<?xml version="1.0" encoding="utf-8" standalone="no"?>
<!DOCTYPE svg PUBLIC "-//W3C//DTD SVG 1.1//EN"
  "http://www.w3.org/Graphics/SVG/1.1/DTD/svg11.dtd">
<svg xmlns:xlink="http://www.w3.org/1999/xlink" width="912.71952pt" height="538.31952pt" viewBox="0 0 912.71952 538.31952" xmlns="http://www.w3.org/2000/svg" version="1.1">
 <metadata>
  <rdf:RDF xmlns:dc="http://purl.org/dc/elements/1.1/" xmlns:cc="http://creativecommons.org/ns#" xmlns:rdf="http://www.w3.org/1999/02/22-rdf-syntax-ns#">
   <cc:Work>
    <dc:type rdf:resource="http://purl.org/dc/dcmitype/StillImage"/>
    <dc:date>2023-03-10T08:53:08.688278</dc:date>
    <dc:format>image/svg+xml</dc:format>
    <dc:creator>
     <cc:Agent>
      <dc:title>Matplotlib v3.7.0, https://matplotlib.org/</dc:title>
     </cc:Agent>
    </dc:creator>
   </cc:Work>
  </rdf:RDF>
 </metadata>
 <defs>
  <style type="text/css">*{stroke-linejoin: round; stroke-linecap: butt}</style>
 </defs>
 <g id="figure_1">
  <g id="patch_1">
   <path d="M 0 538.31952 
L 912.71952 538.31952 
L 912.71952 0 
L 0 0 
L 0 538.31952 
z
" style="fill: none"/>
  </g>
  <g id="axes_1">
   <g id="patch_2">
    <path d="M 29.1825 514.932957 
L 898.174208 514.932957 
L 898.174208 13.738125 
L 29.1825 13.738125 
L 29.1825 514.932957 
z
" style="fill: none"/>
   </g>
   <g id="matplotlib.axis_1">
    <g id="xtick_1">
     <g id="line2d_1"/>
     <g id="text_1">
      <!-- 01 -->
      <g style="opacity: 0" transform="translate(16.797188 531.69077) scale(0.22 -0.22)">
       <defs>
        <path id="Roboto-Regular-30" d="M 3250 1606 
Q 3250 834 2858 384 
Q 2466 -66 1803 -66 
Q 1144 -66 748 384 
Q 353 834 353 1606 
L 353 2944 
Q 353 3709 745 4162 
Q 1138 4616 1797 4616 
Q 2459 4616 2854 4162 
Q 3250 3709 3250 2944 
L 3250 1606 
z
M 2634 3072 
Q 2634 3563 2415 3847 
Q 2197 4131 1797 4131 
Q 1400 4131 1184 3847 
Q 969 3563 969 3072 
L 969 1481 
Q 969 991 1189 703 
Q 1409 416 1803 416 
Q 2203 416 2418 702 
Q 2634 988 2634 1481 
L 2634 3072 
z
" transform="scale(0.015625)"/>
        <path id="Roboto-Regular-31" d="M 2219 0 
L 1600 0 
L 1600 3981 
L 609 3972 
L 609 4447 
L 2219 4616 
L 2219 0 
z
" transform="scale(0.015625)"/>
       </defs>
       <use xlink:href="#Roboto-Regular-30"/>
       <use xlink:href="#Roboto-Regular-31" x="56.298828"/>
      </g>
     </g>
    </g>
    <g id="xtick_2">
     <g id="line2d_2"/>
     <g id="text_2">
      <!-- 15 -->
      <g style="opacity: 0" transform="translate(133.77684 531.69077) scale(0.22 -0.22)">
       <defs>
        <path id="Roboto-Regular-35" d="M 547 2022 
L 809 4550 
L 3088 4550 
L 3088 4003 
L 1328 4003 
L 1181 2694 
Q 1328 2803 1506 2873 
Q 1684 2944 1913 2947 
Q 2544 2953 2901 2551 
Q 3259 2150 3259 1450 
Q 3259 766 2892 350 
Q 2525 -66 1822 -66 
Q 1244 -66 859 250 
Q 475 566 491 1178 
L 497 1197 
L 1053 1197 
Q 1053 825 1267 620 
Q 1481 416 1822 416 
Q 2213 416 2428 691 
Q 2644 966 2644 1444 
Q 2644 1878 2426 2147 
Q 2209 2416 1822 2416 
Q 1459 2416 1296 2306 
Q 1134 2197 1056 1969 
L 547 2022 
z
" transform="scale(0.015625)"/>
       </defs>
       <use xlink:href="#Roboto-Regular-31"/>
       <use xlink:href="#Roboto-Regular-35" x="56.298828"/>
      </g>
     </g>
    </g>
    <g id="xtick_3">
     <g id="line2d_3"/>
     <g id="text_3">
      <!-- 01 -->
      <g style="opacity: 0" transform="translate(275.823562 531.69077) scale(0.22 -0.22)">
       <use xlink:href="#Roboto-Regular-30"/>
       <use xlink:href="#Roboto-Regular-31" x="56.298828"/>
      </g>
     </g>
    </g>
    <g id="xtick_4">
     <g id="line2d_4"/>
     <g id="text_4">
      <!-- 15 -->
      <g style="opacity: 0" transform="translate(392.803215 531.69077) scale(0.22 -0.22)">
       <use xlink:href="#Roboto-Regular-31"/>
       <use xlink:href="#Roboto-Regular-35" x="56.298828"/>
      </g>
     </g>
    </g>
    <g id="xtick_5">
     <g id="line2d_5"/>
     <g id="text_5">
      <!-- 01 -->
      <g style="opacity: 0" transform="translate(509.782868 531.69077) scale(0.22 -0.22)">
       <use xlink:href="#Roboto-Regular-30"/>
       <use xlink:href="#Roboto-Regular-31" x="56.298828"/>
      </g>
     </g>
    </g>
    <g id="xtick_6">
     <g id="line2d_6"/>
     <g id="text_6">
      <!-- 15 -->
      <g style="opacity: 0" transform="translate(626.762521 531.69077) scale(0.22 -0.22)">
       <use xlink:href="#Roboto-Regular-31"/>
       <use xlink:href="#Roboto-Regular-35" x="56.298828"/>
      </g>
     </g>
    </g>
    <g id="xtick_7">
     <g id="line2d_7"/>
     <g id="text_7">
      <!-- 01 -->
      <g style="opacity: 0" transform="translate(768.809242 531.69077) scale(0.22 -0.22)">
       <use xlink:href="#Roboto-Regular-30"/>
       <use xlink:href="#Roboto-Regular-31" x="56.298828"/>
      </g>
     </g>
    </g>
    <g id="xtick_8">
     <g id="line2d_8"/>
     <g id="text_8">
      <!-- 15 -->
      <g style="opacity: 0" transform="translate(885.788895 531.69077) scale(0.22 -0.22)">
       <use xlink:href="#Roboto-Regular-31"/>
       <use xlink:href="#Roboto-Regular-35" x="56.298828"/>
      </g>
     </g>
    </g>
   </g>
   <g id="matplotlib.axis_2">
    <g id="ytick_1">
     <g id="text_9">
      <!-- 0 -->
      <g style="opacity: 0" transform="translate(15.67125 521.636082) scale(0.24 -0.24)">
       <use xlink:href="#Roboto-Regular-30"/>
      </g>
     </g>
    </g>
    <g id="ytick_2">
     <g id="text_10">
      <!-- 10 -->
      <g style="opacity: 0" transform="translate(2.16 438.10361) scale(0.24 -0.24)">
       <use xlink:href="#Roboto-Regular-31"/>
       <use xlink:href="#Roboto-Regular-30" x="56.298828"/>
      </g>
     </g>
    </g>
    <g id="ytick_3">
     <g id="text_11">
      <!-- 20 -->
      <g style="opacity: 0" transform="translate(2.16 354.571138) scale(0.24 -0.24)">
       <defs>
        <path id="Roboto-Regular-32" d="M 3294 0 
L 469 0 
L 469 422 
L 1897 2125 
Q 2278 2588 2414 2861 
Q 2550 3134 2550 3413 
Q 2550 3728 2365 3929 
Q 2181 4131 1856 4131 
Q 1453 4131 1242 3884 
Q 1031 3638 1031 3269 
L 438 3269 
L 431 3288 
Q 416 3844 803 4230 
Q 1191 4616 1856 4616 
Q 2466 4616 2816 4278 
Q 3166 3941 3166 3406 
Q 3166 3047 2967 2703 
Q 2769 2359 2363 1841 
L 1216 497 
L 1222 481 
L 3294 481 
L 3294 0 
z
" transform="scale(0.015625)"/>
       </defs>
       <use xlink:href="#Roboto-Regular-32"/>
       <use xlink:href="#Roboto-Regular-30" x="56.298828"/>
      </g>
     </g>
    </g>
    <g id="ytick_4">
     <g id="text_12">
      <!-- 30 -->
      <g style="opacity: 0" transform="translate(2.16 271.038666) scale(0.24 -0.24)">
       <defs>
        <path id="Roboto-Regular-33" d="M 1809 2588 
Q 2222 2588 2392 2792 
Q 2563 2997 2563 3366 
Q 2563 3709 2377 3920 
Q 2191 4131 1825 4131 
Q 1469 4131 1236 3911 
Q 1003 3691 1003 3359 
L 416 3359 
L 406 3378 
Q 391 3891 794 4253 
Q 1197 4616 1825 4616 
Q 2459 4616 2818 4295 
Q 3178 3975 3178 3353 
Q 3178 3034 3011 2771 
Q 2844 2509 2544 2363 
Q 2888 2225 3067 1945 
Q 3247 1666 3247 1269 
Q 3247 644 2851 289 
Q 2456 -66 1825 -66 
Q 1244 -66 801 276 
Q 359 619 375 1181 
L 381 1200 
L 969 1200 
Q 969 869 1208 642 
Q 1447 416 1825 416 
Q 2200 416 2415 648 
Q 2631 881 2631 1256 
Q 2631 1684 2432 1896 
Q 2234 2109 1809 2109 
L 1303 2109 
L 1303 2588 
L 1809 2588 
z
" transform="scale(0.015625)"/>
       </defs>
       <use xlink:href="#Roboto-Regular-33"/>
       <use xlink:href="#Roboto-Regular-30" x="56.298828"/>
      </g>
     </g>
    </g>
    <g id="ytick_5">
     <g id="text_13">
      <!-- 40 -->
      <g style="opacity: 0" transform="translate(2.16 187.506194) scale(0.24 -0.24)">
       <defs>
        <path id="Roboto-Regular-34" d="M 2791 1531 
L 3419 1531 
L 3419 1050 
L 2791 1050 
L 2791 0 
L 2178 0 
L 2178 1050 
L 225 1050 
L 225 1397 
L 2141 4550 
L 2791 4550 
L 2791 1531 
z
M 884 1531 
L 2178 1531 
L 2178 3666 
L 2159 3669 
L 2100 3513 
L 884 1531 
z
" transform="scale(0.015625)"/>
       </defs>
       <use xlink:href="#Roboto-Regular-34"/>
       <use xlink:href="#Roboto-Regular-30" x="56.298828"/>
      </g>
     </g>
    </g>
    <g id="ytick_6">
     <g id="text_14">
      <!-- 50 -->
      <g style="opacity: 0" transform="translate(2.16 103.973722) scale(0.24 -0.24)">
       <use xlink:href="#Roboto-Regular-35"/>
       <use xlink:href="#Roboto-Regular-30" x="56.298828"/>
      </g>
     </g>
    </g>
    <g id="ytick_7">
     <g id="text_15">
      <!-- 60 -->
      <g style="opacity: 0" transform="translate(2.16 20.44125) scale(0.24 -0.24)">
       <defs>
        <path id="Roboto-Regular-36" d="M 2003 4616 
Q 2272 4616 2534 4562 
Q 2797 4509 2969 4428 
L 2838 3956 
Q 2659 4034 2462 4082 
Q 2266 4131 2003 4131 
Q 1575 4131 1308 3765 
Q 1041 3400 1041 2841 
L 1041 2488 
Q 1231 2678 1492 2787 
Q 1753 2897 2053 2897 
Q 2641 2897 2983 2503 
Q 3325 2109 3325 1469 
Q 3325 769 2942 351 
Q 2559 -66 1909 -66 
Q 1278 -66 853 414 
Q 428 894 428 1725 
L 428 2772 
Q 428 3572 883 4094 
Q 1338 4616 2003 4616 
z
M 1856 2438 
Q 1566 2438 1358 2314 
Q 1150 2191 1041 1981 
L 1041 1666 
Q 1041 1088 1292 752 
Q 1544 416 1909 416 
Q 2294 416 2501 708 
Q 2709 1000 2709 1469 
Q 2709 1913 2486 2175 
Q 2263 2438 1856 2438 
z
" transform="scale(0.015625)"/>
       </defs>
       <use xlink:href="#Roboto-Regular-36"/>
       <use xlink:href="#Roboto-Regular-30" x="56.298828"/>
      </g>
     </g>
    </g>
   </g>
   <g id="line2d_9">
    <path d="M 622.436454 278.536062 
L 614.080765 278.536062 
L 605.725075 278.536062 
L 597.369386 278.536062 
L 589.013696 278.536062 
L 580.658007 278.536062 
L 572.302317 278.536062 
L 563.946628 278.536062 
L 555.590938 278.536062 
L 547.235249 278.536062 
L 538.879559 278.536062 
L 530.52387 278.536062 
L 522.16818 278.536062 
L 513.812491 278.536062 
L 505.456801 278.536062 
L 497.101112 278.536062 
L 488.745422 278.536062 
L 480.389733 278.536062 
L 472.034043 278.536062 
L 463.678354 278.536062 
L 455.322664 278.536062 
L 446.966975 278.536062 
L 438.611285 277.700737 
L 430.255596 277.700737 
L 421.899906 277.700737 
L 413.544217 277.700737 
L 405.188527 277.700737 
L 396.832838 277.700737 
L 388.477148 277.700737 
L 380.121459 277.700737 
L 371.765769 277.700737 
L 363.41008 276.865412 
L 355.05439 276.865412 
L 346.698701 276.865412 
L 338.343011 276.030087 
L 329.987322 276.030087 
L 321.631632 275.194763 
L 313.275943 275.194763 
L 304.920253 274.359438 
L 296.564564 274.359438 
L 288.208874 275.194763 
L 279.853185 275.194763 
L 271.497495 275.194763 
L 263.141806 275.194763 
L 254.786116 276.030087 
L 246.430427 276.030087 
L 238.074737 276.030087 
L 229.719048 276.030087 
L 221.363358 276.865412 
L 213.007669 276.865412 
L 204.651979 276.865412 
L 196.29629 277.700737 
L 187.9406 277.700737 
L 179.584911 277.700737 
L 171.229221 277.700737 
L 162.873532 278.536062 
L 154.517842 278.536062 
L 146.162153 278.536062 
L 137.806463 279.371386 
L 129.450774 279.371386 
L 121.095084 279.371386 
L 112.739395 279.371386 
L 104.383705 279.371386 
L 96.028016 279.371386 
L 87.672326 279.371386 
L 79.316637 278.536062 
L 70.960947 277.700737 
L 62.605258 277.700737 
L 54.249568 276.865412 
L 45.893879 276.030087 
L 37.538189 276.030087 
L 29.1825 275.194763 
" clip-path="url(#p2a8d3a6d5a)" style="fill: none; stroke: #666666; stroke-width: 15"/>
   </g>
   <g id="line2d_10">
    <path d="M 622.436454 149.896054 
L 614.080765 149.896054 
L 605.725075 149.896054 
L 597.369386 149.896054 
L 589.013696 149.896054 
L 580.658007 149.896054 
L 572.302317 149.896054 
L 563.946628 149.896054 
L 555.590938 149.896054 
L 547.235249 149.896054 
L 538.879559 149.896054 
L 530.52387 149.896054 
L 522.16818 149.896054 
L 513.812491 149.896054 
L 505.456801 149.896054 
L 497.101112 149.896054 
L 488.745422 149.896054 
L 480.389733 149.896054 
L 472.034043 149.896054 
L 463.678354 149.896054 
L 455.322664 149.896054 
L 446.966975 149.896054 
L 438.611285 149.896054 
L 430.255596 149.896054 
L 421.899906 149.896054 
L 413.544217 149.896054 
L 405.188527 149.896054 
L 396.832838 149.896054 
L 388.477148 149.896054 
L 380.121459 149.896054 
L 371.765769 149.896054 
L 363.41008 149.06073 
L 355.05439 149.06073 
L 346.698701 149.06073 
L 338.343011 148.225405 
L 329.987322 148.225405 
L 321.631632 148.225405 
L 313.275943 147.39008 
L 304.920253 147.39008 
L 296.564564 147.39008 
L 288.208874 146.554756 
L 279.853185 146.554756 
L 271.497495 146.554756 
L 263.141806 146.554756 
L 254.786116 146.554756 
L 246.430427 145.719431 
L 238.074737 145.719431 
L 229.719048 145.719431 
L 221.363358 145.719431 
L 213.007669 145.719431 
L 204.651979 144.884106 
L 196.29629 144.884106 
L 187.9406 144.884106 
L 179.584911 144.884106 
L 171.229221 144.048781 
L 162.873532 144.048781 
L 154.517842 144.048781 
L 146.162153 144.048781 
L 137.806463 144.048781 
L 129.450774 144.048781 
L 121.095084 143.213457 
L 112.739395 143.213457 
L 104.383705 143.213457 
L 96.028016 142.378132 
L 87.672326 141.542807 
L 79.316637 141.542807 
L 70.960947 140.707483 
L 62.605258 140.707483 
L 54.249568 139.872158 
L 45.893879 139.872158 
L 37.538189 139.872158 
L 29.1825 139.036833 
" clip-path="url(#p2a8d3a6d5a)" style="fill: none; stroke: #4c81ff; stroke-width: 15"/>
   </g>
  </g>
 </g>
 <defs>
  <clipPath id="p2a8d3a6d5a">
   <rect x="29.1825" y="13.738125" width="868.991708" height="501.194832"/>
  </clipPath>
 </defs>
</svg>
