<?xml version="1.0" encoding="utf-8" standalone="no"?>
<!DOCTYPE svg PUBLIC "-//W3C//DTD SVG 1.1//EN"
  "http://www.w3.org/Graphics/SVG/1.1/DTD/svg11.dtd">
<svg xmlns:xlink="http://www.w3.org/1999/xlink" width="958.07952pt" height="681.71976pt" viewBox="0 0 958.07952 681.71976" xmlns="http://www.w3.org/2000/svg" version="1.1">
 <metadata>
  <rdf:RDF xmlns:dc="http://purl.org/dc/elements/1.1/" xmlns:cc="http://creativecommons.org/ns#" xmlns:rdf="http://www.w3.org/1999/02/22-rdf-syntax-ns#">
   <cc:Work>
    <dc:type rdf:resource="http://purl.org/dc/dcmitype/StillImage"/>
    <dc:date>2023-07-03T11:47:21.685609</dc:date>
    <dc:format>image/svg+xml</dc:format>
    <dc:creator>
     <cc:Agent>
      <dc:title>Matplotlib v3.7.1, https://matplotlib.org/</dc:title>
     </cc:Agent>
    </dc:creator>
   </cc:Work>
  </rdf:RDF>
 </metadata>
 <defs>
  <style type="text/css">*{stroke-linejoin: round; stroke-linecap: butt}</style>
 </defs>
 <g id="figure_1">
  <g id="patch_1">
   <path d="M 0 681.71976 
L 958.07952 681.71976 
L 958.07952 -0 
L 0 -0 
L 0 681.71976 
z
" style="fill: none"/>
  </g>
  <g id="axes_1">
   <g id="patch_2">
    <path d="M 42.306875 342.671562 
L 327.898615 342.671562 
L 327.898615 49.224302 
L 42.306875 49.224302 
L 42.306875 342.671562 
z
" style="fill: none"/>
   </g>
   <g id="matplotlib.axis_1">
    <g id="xtick_1">
     <g id="line2d_1">
      <path d="M 42.306875 342.671562 
L 42.306875 49.224302 
" clip-path="url(#p4d5ece0ba4)" style="fill: none; stroke-dasharray: 0.7,2.1; stroke-dashoffset: 0; stroke: #000000; stroke-opacity: 0.3; stroke-width: 0.7"/>
     </g>
     <g id="line2d_2"/>
    </g>
    <g id="xtick_2">
     <g id="line2d_3">
      <path d="M 327.898615 342.671562 
L 327.898615 49.224302 
" clip-path="url(#p4d5ece0ba4)" style="fill: none; stroke-dasharray: 0.7,2.1; stroke-dashoffset: 0; stroke: #000000; stroke-opacity: 0.3; stroke-width: 0.7"/>
     </g>
     <g id="line2d_4"/>
    </g>
   </g>
   <g id="matplotlib.axis_2">
    <g id="ytick_1">
     <g id="line2d_5">
      <path d="M 42.306875 329.333051 
L 327.898615 329.333051 
" clip-path="url(#p4d5ece0ba4)" style="fill: none; stroke-dasharray: 0.7,2.1; stroke-dashoffset: 0; stroke: #000000; stroke-opacity: 0.3; stroke-width: 0.7"/>
     </g>
     <g id="text_1">
      <text style="fill: #333333; font: 20px 'Roboto', 'Arial', 'DejaVu Sans', sans-serif; text-anchor: end" x="39.306875" y="334.918988" transform="rotate(-0 39.306875 334.918988)">0  </text>
     </g>
    </g>
    <g id="ytick_2">
     <g id="line2d_6">
      <path d="M 42.306875 289.840788 
L 327.898615 289.840788 
" clip-path="url(#p4d5ece0ba4)" style="fill: none; stroke-dasharray: 0.7,2.1; stroke-dashoffset: 0; stroke: #000000; stroke-opacity: 0.3; stroke-width: 0.7"/>
     </g>
     <g id="text_2">
      <text style="fill: #333333; font: 20px 'Roboto', 'Arial', 'DejaVu Sans', sans-serif; text-anchor: end" x="39.306875" y="295.426725" transform="rotate(-0 39.306875 295.426725)">10  </text>
     </g>
    </g>
    <g id="ytick_3">
     <g id="line2d_7">
      <path d="M 42.306875 250.348525 
L 327.898615 250.348525 
" clip-path="url(#p4d5ece0ba4)" style="fill: none; stroke-dasharray: 0.7,2.1; stroke-dashoffset: 0; stroke: #000000; stroke-opacity: 0.3; stroke-width: 0.7"/>
     </g>
     <g id="text_3">
      <text style="fill: #333333; font: 20px 'Roboto', 'Arial', 'DejaVu Sans', sans-serif; text-anchor: end" x="39.306875" y="255.934462" transform="rotate(-0 39.306875 255.934462)">20  </text>
     </g>
    </g>
    <g id="ytick_4">
     <g id="line2d_8">
      <path d="M 42.306875 210.856262 
L 327.898615 210.856262 
" clip-path="url(#p4d5ece0ba4)" style="fill: none; stroke-dasharray: 0.7,2.1; stroke-dashoffset: 0; stroke: #000000; stroke-opacity: 0.3; stroke-width: 0.7"/>
     </g>
     <g id="text_4">
      <text style="fill: #333333; font: 20px 'Roboto', 'Arial', 'DejaVu Sans', sans-serif; text-anchor: end" x="39.306875" y="216.442199" transform="rotate(-0 39.306875 216.442199)">30  </text>
     </g>
    </g>
    <g id="ytick_5">
     <g id="line2d_9">
      <path d="M 42.306875 171.363999 
L 327.898615 171.363999 
" clip-path="url(#p4d5ece0ba4)" style="fill: none; stroke-dasharray: 0.7,2.1; stroke-dashoffset: 0; stroke: #000000; stroke-opacity: 0.3; stroke-width: 0.7"/>
     </g>
     <g id="text_5">
      <text style="fill: #333333; font: 20px 'Roboto', 'Arial', 'DejaVu Sans', sans-serif; text-anchor: end" x="39.306875" y="176.949936" transform="rotate(-0 39.306875 176.949936)">40  </text>
     </g>
    </g>
    <g id="ytick_6">
     <g id="line2d_10">
      <path d="M 42.306875 131.871736 
L 327.898615 131.871736 
" clip-path="url(#p4d5ece0ba4)" style="fill: none; stroke-dasharray: 0.7,2.1; stroke-dashoffset: 0; stroke: #000000; stroke-opacity: 0.3; stroke-width: 0.7"/>
     </g>
     <g id="text_6">
      <text style="fill: #333333; font: 20px 'Roboto', 'Arial', 'DejaVu Sans', sans-serif; text-anchor: end" x="39.306875" y="137.457673" transform="rotate(-0 39.306875 137.457673)">50  </text>
     </g>
    </g>
    <g id="ytick_7">
     <g id="line2d_11">
      <path d="M 42.306875 92.379473 
L 327.898615 92.379473 
" clip-path="url(#p4d5ece0ba4)" style="fill: none; stroke-dasharray: 0.7,2.1; stroke-dashoffset: 0; stroke: #000000; stroke-opacity: 0.3; stroke-width: 0.7"/>
     </g>
     <g id="text_7">
      <text style="fill: #333333; font: 20px 'Roboto', 'Arial', 'DejaVu Sans', sans-serif; text-anchor: end" x="39.306875" y="97.96541" transform="rotate(-0 39.306875 97.96541)">60  </text>
     </g>
    </g>
    <g id="ytick_8">
     <g id="line2d_12">
      <path d="M 42.306875 52.88721 
L 327.898615 52.88721 
" clip-path="url(#p4d5ece0ba4)" style="fill: none; stroke-dasharray: 0.7,2.1; stroke-dashoffset: 0; stroke: #000000; stroke-opacity: 0.3; stroke-width: 0.7"/>
     </g>
     <g id="text_8">
      <text style="fill: #333333; font: 20px 'Roboto', 'Arial', 'DejaVu Sans', sans-serif; text-anchor: end" x="39.306875" y="58.473147" transform="rotate(-0 39.306875 58.473147)">70%</text>
     </g>
    </g>
   </g>
   <g id="line2d_13">
    <path d="M 42.306875 342.671562 
L 42.306875 49.224302 
" clip-path="url(#p4d5ece0ba4)" style="fill: none; stroke: #000000; stroke-opacity: 0.7; stroke-width: 3"/>
   </g>
   <g id="line2d_14">
    <path d="M 42.306875 342.671562 
L 42.306875 49.224302 
" clip-path="url(#p4d5ece0ba4)" style="fill: none; stroke: #000000; stroke-opacity: 0.7; stroke-width: 3"/>
   </g>
   <g id="line2d_15">
    <path d="M 42.306875 342.671562 
L 42.306875 49.224302 
" clip-path="url(#p4d5ece0ba4)" style="fill: none; stroke: #000000; stroke-opacity: 0.7; stroke-width: 3"/>
   </g>
   <g id="line2d_16">
    <path d="M 42.306875 342.671562 
L 42.306875 49.224302 
" clip-path="url(#p4d5ece0ba4)" style="fill: none; stroke: #000000; stroke-opacity: 0.7; stroke-width: 3"/>
   </g>
   <g id="line2d_17">
    <path d="M 327.898615 215.990256 
L 319.965511 215.911271 
L 300.926062 214.923965 
L 294.579579 214.371073 
L 289.819716 213.936658 
L 285.059854 213.502243 
L 278.713371 213.739197 
L 273.953509 213.897166 
L 262.847163 214.252596 
L 254.914059 214.568534 
L 248.567576 214.687011 
L 242.221093 214.608027 
L 235.87461 214.529042 
L 231.114748 214.48955 
L 223.181644 214.410565 
L 213.661919 214.252596 
L 208.902057 214.213104 
L 205.728815 214.015643 
L 172.409779 216.58264 
L 167.649916 217.017055 
L 164.476675 217.214516 
L 159.716813 217.609439 
L 140.677363 219.070652 
L 112.118189 229.85204 
L 107.358327 231.708177 
L 102.598465 232.616499 
L 97.838602 233.603805 
L 91.492119 234.788573 
L 53.41322 242.292103 
L 42.306875 239.290691 
L 42.306875 239.290691 
" clip-path="url(#p4d5ece0ba4)" style="fill: none; stroke: #888d8f; stroke-width: 4"/>
   </g>
   <g id="line2d_18">
    <path d="M 327.898615 218.280807 
L 299.339441 218.201823 
L 278.713371 216.740609 
L 273.953509 216.543148 
L 205.728815 213.186305 
L 180.342883 215.792795 
L 177.169641 216.345686 
L 169.236537 217.846392 
L 164.476675 218.754714 
L 151.783709 221.203235 
L 143.850605 222.664448 
L 139.090742 223.533278 
L 115.291431 227.166566 
L 110.531568 227.916919 
L 107.358327 228.390827 
L 96.251981 228.588288 
L 91.492119 228.667272 
L 72.45267 229.062195 
L 62.932945 229.14118 
L 42.306875 229.694071 
L 42.306875 229.694071 
" clip-path="url(#p4d5ece0ba4)" style="fill: none; stroke: #f5700a; stroke-width: 4"/>
   </g>
   <g id="line2d_19">
    <path d="M 327.898615 215.990256 
L 319.965511 215.911271 
L 300.926062 214.923965 
L 294.579579 214.371073 
L 289.819716 213.936658 
L 285.059854 213.502243 
L 278.713371 213.739197 
L 273.953509 213.897166 
L 262.847163 214.252596 
L 254.914059 214.568534 
L 248.567576 214.687011 
L 242.221093 214.608027 
L 235.87461 214.529042 
L 231.114748 214.48955 
L 223.181644 214.410565 
L 213.661919 214.252596 
L 208.902057 214.213104 
L 205.728815 214.015643 
L 172.409779 216.58264 
L 167.649916 217.017055 
L 164.476675 217.214516 
L 159.716813 217.609439 
L 140.677363 219.070652 
L 112.118189 229.85204 
L 107.358327 231.708177 
L 102.598465 232.616499 
L 97.838602 233.603805 
L 91.492119 234.788573 
L 53.41322 242.292103 
L 42.306875 239.290691 
L 42.306875 239.290691 
" clip-path="url(#p4d5ece0ba4)" style="fill: none; stroke: #888d8f; stroke-width: 4"/>
   </g>
   <g id="line2d_20">
    <path d="M 327.898615 218.280807 
L 299.339441 218.201823 
L 278.713371 216.740609 
L 273.953509 216.543148 
L 205.728815 213.186305 
L 180.342883 215.792795 
L 177.169641 216.345686 
L 169.236537 217.846392 
L 164.476675 218.754714 
L 151.783709 221.203235 
L 143.850605 222.664448 
L 139.090742 223.533278 
L 115.291431 227.166566 
L 110.531568 227.916919 
L 107.358327 228.390827 
L 96.251981 228.588288 
L 91.492119 228.667272 
L 72.45267 229.062195 
L 62.932945 229.14118 
L 42.306875 229.694071 
L 42.306875 229.694071 
" clip-path="url(#p4d5ece0ba4)" style="fill: none; stroke: #f5700a; stroke-width: 4"/>
   </g>
   <g id="line2d_21">
    <path d="M 327.898615 215.990256 
L 319.965511 215.911271 
L 300.926062 214.923965 
L 294.579579 214.371073 
L 289.819716 213.936658 
L 285.059854 213.502243 
L 278.713371 213.739197 
L 273.953509 213.897166 
L 262.847163 214.252596 
L 254.914059 214.568534 
L 248.567576 214.687011 
L 242.221093 214.608027 
L 235.87461 214.529042 
L 231.114748 214.48955 
L 223.181644 214.410565 
L 213.661919 214.252596 
L 208.902057 214.213104 
L 205.728815 214.015643 
L 172.409779 216.58264 
L 167.649916 217.017055 
L 164.476675 217.214516 
L 159.716813 217.609439 
L 140.677363 219.070652 
L 112.118189 229.85204 
L 107.358327 231.708177 
L 102.598465 232.616499 
L 97.838602 233.603805 
L 91.492119 234.788573 
L 53.41322 242.292103 
L 42.306875 239.290691 
L 42.306875 239.290691 
" clip-path="url(#p4d5ece0ba4)" style="fill: none; stroke: #888d8f; stroke-width: 4"/>
   </g>
   <g id="line2d_22">
    <path d="M 327.898615 218.280807 
L 299.339441 218.201823 
L 278.713371 216.740609 
L 273.953509 216.543148 
L 205.728815 213.186305 
L 180.342883 215.792795 
L 177.169641 216.345686 
L 169.236537 217.846392 
L 164.476675 218.754714 
L 151.783709 221.203235 
L 143.850605 222.664448 
L 139.090742 223.533278 
L 115.291431 227.166566 
L 110.531568 227.916919 
L 107.358327 228.390827 
L 96.251981 228.588288 
L 91.492119 228.667272 
L 72.45267 229.062195 
L 62.932945 229.14118 
L 42.306875 229.694071 
L 42.306875 229.694071 
" clip-path="url(#p4d5ece0ba4)" style="fill: none; stroke: #f5700a; stroke-width: 4"/>
   </g>
   <g id="line2d_23">
    <path d="M 327.898615 215.990256 
L 319.965511 215.911271 
L 300.926062 214.923965 
L 294.579579 214.371073 
L 289.819716 213.936658 
L 285.059854 213.502243 
L 278.713371 213.739197 
L 273.953509 213.897166 
L 262.847163 214.252596 
L 254.914059 214.568534 
L 248.567576 214.687011 
L 242.221093 214.608027 
L 235.87461 214.529042 
L 231.114748 214.48955 
L 223.181644 214.410565 
L 213.661919 214.252596 
L 208.902057 214.213104 
L 205.728815 214.015643 
L 172.409779 216.58264 
L 167.649916 217.017055 
L 164.476675 217.214516 
L 159.716813 217.609439 
L 140.677363 219.070652 
L 112.118189 229.85204 
L 107.358327 231.708177 
L 102.598465 232.616499 
L 97.838602 233.603805 
L 91.492119 234.788573 
L 53.41322 242.292103 
L 42.306875 239.290691 
L 42.306875 239.290691 
" clip-path="url(#p4d5ece0ba4)" style="fill: none; stroke: #888d8f; stroke-width: 4"/>
   </g>
   <g id="line2d_24">
    <path d="M 327.898615 218.280807 
L 299.339441 218.201823 
L 278.713371 216.740609 
L 273.953509 216.543148 
L 205.728815 213.186305 
L 180.342883 215.792795 
L 177.169641 216.345686 
L 169.236537 217.846392 
L 164.476675 218.754714 
L 151.783709 221.203235 
L 143.850605 222.664448 
L 139.090742 223.533278 
L 115.291431 227.166566 
L 110.531568 227.916919 
L 107.358327 228.390827 
L 96.251981 228.588288 
L 91.492119 228.667272 
L 72.45267 229.062195 
L 62.932945 229.14118 
L 42.306875 229.694071 
L 42.306875 229.694071 
" clip-path="url(#p4d5ece0ba4)" style="fill: none; stroke: #f5700a; stroke-width: 4"/>
   </g>
   <g id="line2d_25">
    <path d="M 327.898615 187.279381 
L 321.552132 187.318873 
L 313.619028 187.79278 
L 310.445786 188.029734 
L 304.099303 188.424656 
L 300.926062 188.582625 
L 285.059854 190.912669 
L 273.953509 190.162316 
L 266.020405 189.688409 
L 256.50068 189.056533 
L 251.740818 188.740595 
L 250.154197 188.622118 
L 227.941506 188.543133 
L 223.181644 188.503641 
L 204.142194 188.582625 
L 196.20909 188.701102 
L 175.58302 188.66161 
L 172.409779 188.543133 
L 167.649916 188.464149 
L 158.130192 188.148211 
L 153.370329 187.990242 
L 140.677363 187.634811 
L 137.504122 186.529028 
L 105.771706 175.550179 
L 97.838602 173.259627 
L 86.732257 170.139739 
L 81.972394 168.797002 
L 78.799153 167.928172 
L 70.866049 165.677113 
L 62.932945 163.386562 
L 53.41322 160.701088 
L 50.239979 161.727887 
L 42.306875 164.215899 
L 42.306875 164.215899 
" clip-path="url(#p4d5ece0ba4)" style="fill: none; stroke: #068773; stroke-width: 4"/>
   </g>
   <g id="line2d_26">
    <path d="M 42.306875 329.333051 
L 327.898615 329.333051 
" clip-path="url(#p4d5ece0ba4)" style="fill: none; stroke: #000000; stroke-opacity: 0.7; stroke-width: 2"/>
   </g>
   <g id="line2d_27">
    <path d="M 327.898615 187.279381 
L 321.552132 187.318873 
L 313.619028 187.79278 
L 310.445786 188.029734 
L 304.099303 188.424656 
L 300.926062 188.582625 
L 285.059854 190.912669 
L 273.953509 190.162316 
L 266.020405 189.688409 
L 256.50068 189.056533 
L 251.740818 188.740595 
L 250.154197 188.622118 
L 227.941506 188.543133 
L 223.181644 188.503641 
L 204.142194 188.582625 
L 196.20909 188.701102 
L 175.58302 188.66161 
L 172.409779 188.543133 
L 167.649916 188.464149 
L 158.130192 188.148211 
L 153.370329 187.990242 
L 140.677363 187.634811 
L 137.504122 186.529028 
L 105.771706 175.550179 
L 97.838602 173.259627 
L 86.732257 170.139739 
L 81.972394 168.797002 
L 78.799153 167.928172 
L 70.866049 165.677113 
L 62.932945 163.386562 
L 53.41322 160.701088 
L 50.239979 161.727887 
L 42.306875 164.215899 
L 42.306875 164.215899 
" clip-path="url(#p4d5ece0ba4)" style="fill: none; stroke: #068773; stroke-width: 4"/>
   </g>
   <g id="line2d_28">
    <path d="M 42.306875 329.333051 
L 327.898615 329.333051 
" clip-path="url(#p4d5ece0ba4)" style="fill: none; stroke: #000000; stroke-opacity: 0.7; stroke-width: 2"/>
   </g>
   <g id="line2d_29">
    <path d="M 327.898615 187.279381 
L 321.552132 187.318873 
L 313.619028 187.79278 
L 310.445786 188.029734 
L 304.099303 188.424656 
L 300.926062 188.582625 
L 285.059854 190.912669 
L 273.953509 190.162316 
L 266.020405 189.688409 
L 256.50068 189.056533 
L 251.740818 188.740595 
L 250.154197 188.622118 
L 227.941506 188.543133 
L 223.181644 188.503641 
L 204.142194 188.582625 
L 196.20909 188.701102 
L 175.58302 188.66161 
L 172.409779 188.543133 
L 167.649916 188.464149 
L 158.130192 188.148211 
L 153.370329 187.990242 
L 140.677363 187.634811 
L 137.504122 186.529028 
L 105.771706 175.550179 
L 97.838602 173.259627 
L 86.732257 170.139739 
L 81.972394 168.797002 
L 78.799153 167.928172 
L 70.866049 165.677113 
L 62.932945 163.386562 
L 53.41322 160.701088 
L 50.239979 161.727887 
L 42.306875 164.215899 
L 42.306875 164.215899 
" clip-path="url(#p4d5ece0ba4)" style="fill: none; stroke: #068773; stroke-width: 4"/>
   </g>
   <g id="line2d_30">
    <path d="M 42.306875 329.333051 
L 327.898615 329.333051 
" clip-path="url(#p4d5ece0ba4)" style="fill: none; stroke: #000000; stroke-opacity: 0.7; stroke-width: 2"/>
   </g>
   <g id="line2d_31">
    <path d="M 327.898615 187.279381 
L 321.552132 187.318873 
L 313.619028 187.79278 
L 310.445786 188.029734 
L 304.099303 188.424656 
L 300.926062 188.582625 
L 285.059854 190.912669 
L 273.953509 190.162316 
L 266.020405 189.688409 
L 256.50068 189.056533 
L 251.740818 188.740595 
L 250.154197 188.622118 
L 227.941506 188.543133 
L 223.181644 188.503641 
L 204.142194 188.582625 
L 196.20909 188.701102 
L 175.58302 188.66161 
L 172.409779 188.543133 
L 167.649916 188.464149 
L 158.130192 188.148211 
L 153.370329 187.990242 
L 140.677363 187.634811 
L 137.504122 186.529028 
L 105.771706 175.550179 
L 97.838602 173.259627 
L 86.732257 170.139739 
L 81.972394 168.797002 
L 78.799153 167.928172 
L 70.866049 165.677113 
L 62.932945 163.386562 
L 53.41322 160.701088 
L 50.239979 161.727887 
L 42.306875 164.215899 
L 42.306875 164.215899 
" clip-path="url(#p4d5ece0ba4)" style="fill: none; stroke: #068773; stroke-width: 4"/>
   </g>
   <g id="line2d_32">
    <path d="M 42.306875 329.333051 
L 327.898615 329.333051 
" clip-path="url(#p4d5ece0ba4)" style="fill: none; stroke: #000000; stroke-opacity: 0.7; stroke-width: 2"/>
   </g>
   <g id="text_9">
    <text style="fill: #808080; font: 700 14px 'Roboto', 'Arial', 'DejaVu Sans', sans-serif; text-anchor: middle" x="185.102745" y="48.224302" transform="rotate(-0 185.102745 48.224302)">SE</text>
   </g>
  </g>
  <g id="axes_2">
   <g id="patch_3">
    <path d="M 364.65014 342.671562 
L 650.24188 342.671562 
L 650.24188 49.224302 
L 364.65014 49.224302 
L 364.65014 342.671562 
z
" style="fill: none"/>
   </g>
   <g id="matplotlib.axis_3">
    <g id="xtick_3">
     <g id="line2d_33">
      <path d="M 364.65014 342.671562 
L 364.65014 49.224302 
" clip-path="url(#p770bdaa255)" style="fill: none; stroke-dasharray: 0.7,2.1; stroke-dashoffset: 0; stroke: #000000; stroke-opacity: 0.3; stroke-width: 0.7"/>
     </g>
     <g id="line2d_34"/>
    </g>
    <g id="xtick_4">
     <g id="line2d_35">
      <path d="M 650.24188 342.671562 
L 650.24188 49.224302 
" clip-path="url(#p770bdaa255)" style="fill: none; stroke-dasharray: 0.7,2.1; stroke-dashoffset: 0; stroke: #000000; stroke-opacity: 0.3; stroke-width: 0.7"/>
     </g>
     <g id="line2d_36"/>
    </g>
   </g>
   <g id="matplotlib.axis_4">
    <g id="ytick_9">
     <g id="line2d_37">
      <path d="M 364.65014 329.333051 
L 650.24188 329.333051 
" clip-path="url(#p770bdaa255)" style="fill: none; stroke-dasharray: 0.7,2.1; stroke-dashoffset: 0; stroke: #000000; stroke-opacity: 0.3; stroke-width: 0.7"/>
     </g>
    </g>
    <g id="ytick_10">
     <g id="line2d_38">
      <path d="M 364.65014 289.840788 
L 650.24188 289.840788 
" clip-path="url(#p770bdaa255)" style="fill: none; stroke-dasharray: 0.7,2.1; stroke-dashoffset: 0; stroke: #000000; stroke-opacity: 0.3; stroke-width: 0.7"/>
     </g>
    </g>
    <g id="ytick_11">
     <g id="line2d_39">
      <path d="M 364.65014 250.348525 
L 650.24188 250.348525 
" clip-path="url(#p770bdaa255)" style="fill: none; stroke-dasharray: 0.7,2.1; stroke-dashoffset: 0; stroke: #000000; stroke-opacity: 0.3; stroke-width: 0.7"/>
     </g>
    </g>
    <g id="ytick_12">
     <g id="line2d_40">
      <path d="M 364.65014 210.856262 
L 650.24188 210.856262 
" clip-path="url(#p770bdaa255)" style="fill: none; stroke-dasharray: 0.7,2.1; stroke-dashoffset: 0; stroke: #000000; stroke-opacity: 0.3; stroke-width: 0.7"/>
     </g>
    </g>
    <g id="ytick_13">
     <g id="line2d_41">
      <path d="M 364.65014 171.363999 
L 650.24188 171.363999 
" clip-path="url(#p770bdaa255)" style="fill: none; stroke-dasharray: 0.7,2.1; stroke-dashoffset: 0; stroke: #000000; stroke-opacity: 0.3; stroke-width: 0.7"/>
     </g>
    </g>
    <g id="ytick_14">
     <g id="line2d_42">
      <path d="M 364.65014 131.871736 
L 650.24188 131.871736 
" clip-path="url(#p770bdaa255)" style="fill: none; stroke-dasharray: 0.7,2.1; stroke-dashoffset: 0; stroke: #000000; stroke-opacity: 0.3; stroke-width: 0.7"/>
     </g>
    </g>
    <g id="ytick_15">
     <g id="line2d_43">
      <path d="M 364.65014 92.379473 
L 650.24188 92.379473 
" clip-path="url(#p770bdaa255)" style="fill: none; stroke-dasharray: 0.7,2.1; stroke-dashoffset: 0; stroke: #000000; stroke-opacity: 0.3; stroke-width: 0.7"/>
     </g>
    </g>
    <g id="ytick_16">
     <g id="line2d_44">
      <path d="M 364.65014 52.88721 
L 650.24188 52.88721 
" clip-path="url(#p770bdaa255)" style="fill: none; stroke-dasharray: 0.7,2.1; stroke-dashoffset: 0; stroke: #000000; stroke-opacity: 0.3; stroke-width: 0.7"/>
     </g>
    </g>
   </g>
   <g id="line2d_45">
    <path d="M 364.65014 342.671562 
L 364.65014 49.224302 
" clip-path="url(#p770bdaa255)" style="fill: none; stroke: #000000; stroke-opacity: 0.7; stroke-width: 3"/>
   </g>
   <g id="line2d_46">
    <path d="M 364.65014 342.671562 
L 364.65014 49.224302 
" clip-path="url(#p770bdaa255)" style="fill: none; stroke: #000000; stroke-opacity: 0.7; stroke-width: 3"/>
   </g>
   <g id="line2d_47">
    <path d="M 364.65014 342.671562 
L 364.65014 49.224302 
" clip-path="url(#p770bdaa255)" style="fill: none; stroke: #000000; stroke-opacity: 0.7; stroke-width: 3"/>
   </g>
   <g id="line2d_48">
    <path d="M 364.65014 342.671562 
L 364.65014 49.224302 
" clip-path="url(#p770bdaa255)" style="fill: none; stroke: #000000; stroke-opacity: 0.7; stroke-width: 3"/>
   </g>
   <g id="line2d_49">
    <path d="M 650.24188 216.345686 
L 643.895397 216.345686 
L 639.135535 215.911271 
L 626.442568 214.726504 
L 623.269327 214.450058 
L 607.403119 215.239903 
L 570.910841 222.466987 
L 567.7376 222.901402 
L 562.977737 223.651755 
L 556.631254 224.520585 
L 543.938288 226.337229 
L 540.765046 226.811136 
L 531.245322 228.153873 
L 523.312218 229.022703 
L 520.138976 229.338641 
L 507.44601 230.681378 
L 504.272768 230.997316 
L 502.686148 231.155285 
L 497.926285 230.72087 
L 486.81994 229.536102 
L 480.473457 228.825241 
L 466.19387 227.324535 
L 463.020628 226.969105 
L 442.394558 235.578418 
L 434.461454 238.856276 
L 429.701592 240.830889 
L 421.768488 243.516363 
L 409.075522 247.702543 
L 402.729039 249.835125 
L 394.795935 252.441615 
L 390.036072 254.10029 
L 383.689589 256.232872 
L 375.756485 258.799869 
L 364.65014 254.218767 
L 364.65014 254.218767 
" clip-path="url(#p770bdaa255)" style="fill: none; stroke: #888d8f; stroke-width: 4"/>
   </g>
   <g id="line2d_50">
    <path d="M 650.24188 248.373912 
L 640.722155 248.452896 
L 635.962293 248.610865 
L 623.269327 248.926803 
L 618.509464 248.057973 
L 607.403119 246.08336 
L 597.883394 247.110159 
L 589.95029 248.018481 
L 580.430566 249.04528 
L 572.497462 249.953602 
L 562.977737 250.822432 
L 555.044633 251.454308 
L 551.871392 251.770246 
L 543.938288 252.481107 
L 534.418563 253.270952 
L 526.485459 254.10029 
L 510.619252 256.54881 
L 504.272768 257.575609 
L 502.686148 257.812562 
L 478.886836 266.579845 
L 470.953732 269.423288 
L 463.020628 272.385207 
L 448.741041 275.663065 
L 445.5678 276.413418 
L 442.394558 277.124279 
L 436.048075 278.624985 
L 429.701592 280.125691 
L 424.94173 280.797059 
L 415.422005 282.139796 
L 412.248763 282.613704 
L 397.969176 284.667301 
L 391.622693 285.536131 
L 382.102969 286.878868 
L 375.756485 287.708206 
L 369.410002 287.629221 
L 364.65014 287.550236 
L 364.65014 287.550236 
" clip-path="url(#p770bdaa255)" style="fill: none; stroke: #f5700a; stroke-width: 4"/>
   </g>
   <g id="line2d_51">
    <path d="M 650.24188 216.345686 
L 643.895397 216.345686 
L 639.135535 215.911271 
L 626.442568 214.726504 
L 623.269327 214.450058 
L 607.403119 215.239903 
L 570.910841 222.466987 
L 567.7376 222.901402 
L 562.977737 223.651755 
L 556.631254 224.520585 
L 543.938288 226.337229 
L 540.765046 226.811136 
L 531.245322 228.153873 
L 523.312218 229.022703 
L 520.138976 229.338641 
L 507.44601 230.681378 
L 504.272768 230.997316 
L 502.686148 231.155285 
L 497.926285 230.72087 
L 486.81994 229.536102 
L 480.473457 228.825241 
L 466.19387 227.324535 
L 463.020628 226.969105 
L 442.394558 235.578418 
L 434.461454 238.856276 
L 429.701592 240.830889 
L 421.768488 243.516363 
L 409.075522 247.702543 
L 402.729039 249.835125 
L 394.795935 252.441615 
L 390.036072 254.10029 
L 383.689589 256.232872 
L 375.756485 258.799869 
L 364.65014 254.218767 
L 364.65014 254.218767 
" clip-path="url(#p770bdaa255)" style="fill: none; stroke: #888d8f; stroke-width: 4"/>
   </g>
   <g id="line2d_52">
    <path d="M 650.24188 248.373912 
L 640.722155 248.452896 
L 635.962293 248.610865 
L 623.269327 248.926803 
L 618.509464 248.057973 
L 607.403119 246.08336 
L 597.883394 247.110159 
L 589.95029 248.018481 
L 580.430566 249.04528 
L 572.497462 249.953602 
L 562.977737 250.822432 
L 555.044633 251.454308 
L 551.871392 251.770246 
L 543.938288 252.481107 
L 534.418563 253.270952 
L 526.485459 254.10029 
L 510.619252 256.54881 
L 504.272768 257.575609 
L 502.686148 257.812562 
L 478.886836 266.579845 
L 470.953732 269.423288 
L 463.020628 272.385207 
L 448.741041 275.663065 
L 445.5678 276.413418 
L 442.394558 277.124279 
L 436.048075 278.624985 
L 429.701592 280.125691 
L 424.94173 280.797059 
L 415.422005 282.139796 
L 412.248763 282.613704 
L 397.969176 284.667301 
L 391.622693 285.536131 
L 382.102969 286.878868 
L 375.756485 287.708206 
L 369.410002 287.629221 
L 364.65014 287.550236 
L 364.65014 287.550236 
" clip-path="url(#p770bdaa255)" style="fill: none; stroke: #f5700a; stroke-width: 4"/>
   </g>
   <g id="line2d_53">
    <path d="M 650.24188 216.345686 
L 643.895397 216.345686 
L 639.135535 215.911271 
L 626.442568 214.726504 
L 623.269327 214.450058 
L 607.403119 215.239903 
L 570.910841 222.466987 
L 567.7376 222.901402 
L 562.977737 223.651755 
L 556.631254 224.520585 
L 543.938288 226.337229 
L 540.765046 226.811136 
L 531.245322 228.153873 
L 523.312218 229.022703 
L 520.138976 229.338641 
L 507.44601 230.681378 
L 504.272768 230.997316 
L 502.686148 231.155285 
L 497.926285 230.72087 
L 486.81994 229.536102 
L 480.473457 228.825241 
L 466.19387 227.324535 
L 463.020628 226.969105 
L 442.394558 235.578418 
L 434.461454 238.856276 
L 429.701592 240.830889 
L 421.768488 243.516363 
L 409.075522 247.702543 
L 402.729039 249.835125 
L 394.795935 252.441615 
L 390.036072 254.10029 
L 383.689589 256.232872 
L 375.756485 258.799869 
L 364.65014 254.218767 
L 364.65014 254.218767 
" clip-path="url(#p770bdaa255)" style="fill: none; stroke: #888d8f; stroke-width: 4"/>
   </g>
   <g id="line2d_54">
    <path d="M 650.24188 248.373912 
L 640.722155 248.452896 
L 635.962293 248.610865 
L 623.269327 248.926803 
L 618.509464 248.057973 
L 607.403119 246.08336 
L 597.883394 247.110159 
L 589.95029 248.018481 
L 580.430566 249.04528 
L 572.497462 249.953602 
L 562.977737 250.822432 
L 555.044633 251.454308 
L 551.871392 251.770246 
L 543.938288 252.481107 
L 534.418563 253.270952 
L 526.485459 254.10029 
L 510.619252 256.54881 
L 504.272768 257.575609 
L 502.686148 257.812562 
L 478.886836 266.579845 
L 470.953732 269.423288 
L 463.020628 272.385207 
L 448.741041 275.663065 
L 445.5678 276.413418 
L 442.394558 277.124279 
L 436.048075 278.624985 
L 429.701592 280.125691 
L 424.94173 280.797059 
L 415.422005 282.139796 
L 412.248763 282.613704 
L 397.969176 284.667301 
L 391.622693 285.536131 
L 382.102969 286.878868 
L 375.756485 287.708206 
L 369.410002 287.629221 
L 364.65014 287.550236 
L 364.65014 287.550236 
" clip-path="url(#p770bdaa255)" style="fill: none; stroke: #f5700a; stroke-width: 4"/>
   </g>
   <g id="line2d_55">
    <path d="M 650.24188 216.345686 
L 643.895397 216.345686 
L 639.135535 215.911271 
L 626.442568 214.726504 
L 623.269327 214.450058 
L 607.403119 215.239903 
L 570.910841 222.466987 
L 567.7376 222.901402 
L 562.977737 223.651755 
L 556.631254 224.520585 
L 543.938288 226.337229 
L 540.765046 226.811136 
L 531.245322 228.153873 
L 523.312218 229.022703 
L 520.138976 229.338641 
L 507.44601 230.681378 
L 504.272768 230.997316 
L 502.686148 231.155285 
L 497.926285 230.72087 
L 486.81994 229.536102 
L 480.473457 228.825241 
L 466.19387 227.324535 
L 463.020628 226.969105 
L 442.394558 235.578418 
L 434.461454 238.856276 
L 429.701592 240.830889 
L 421.768488 243.516363 
L 409.075522 247.702543 
L 402.729039 249.835125 
L 394.795935 252.441615 
L 390.036072 254.10029 
L 383.689589 256.232872 
L 375.756485 258.799869 
L 364.65014 254.218767 
L 364.65014 254.218767 
" clip-path="url(#p770bdaa255)" style="fill: none; stroke: #888d8f; stroke-width: 4"/>
   </g>
   <g id="line2d_56">
    <path d="M 650.24188 248.373912 
L 640.722155 248.452896 
L 635.962293 248.610865 
L 623.269327 248.926803 
L 618.509464 248.057973 
L 607.403119 246.08336 
L 597.883394 247.110159 
L 589.95029 248.018481 
L 580.430566 249.04528 
L 572.497462 249.953602 
L 562.977737 250.822432 
L 555.044633 251.454308 
L 551.871392 251.770246 
L 543.938288 252.481107 
L 534.418563 253.270952 
L 526.485459 254.10029 
L 510.619252 256.54881 
L 504.272768 257.575609 
L 502.686148 257.812562 
L 478.886836 266.579845 
L 470.953732 269.423288 
L 463.020628 272.385207 
L 448.741041 275.663065 
L 445.5678 276.413418 
L 442.394558 277.124279 
L 436.048075 278.624985 
L 429.701592 280.125691 
L 424.94173 280.797059 
L 415.422005 282.139796 
L 412.248763 282.613704 
L 397.969176 284.667301 
L 391.622693 285.536131 
L 382.102969 286.878868 
L 375.756485 287.708206 
L 369.410002 287.629221 
L 364.65014 287.550236 
L 364.65014 287.550236 
" clip-path="url(#p770bdaa255)" style="fill: none; stroke: #f5700a; stroke-width: 4"/>
   </g>
   <g id="line2d_57">
    <path d="M 650.24188 138.664405 
L 645.482018 138.585421 
L 642.308776 138.703897 
L 628.029189 139.691204 
L 623.269327 140.007142 
L 613.749602 141.033941 
L 607.403119 141.784294 
L 599.470015 139.138312 
L 594.710153 137.558622 
L 572.497462 130.450014 
L 561.391116 128.001494 
L 558.217875 127.369618 
L 531.245322 121.366794 
L 526.485459 120.497964 
L 523.312218 119.826596 
L 516.965735 118.641828 
L 502.686148 115.877369 
L 496.339665 114.85057 
L 493.166423 114.297679 
L 478.886836 112.086112 
L 474.126974 111.335759 
L 463.020628 109.5981 
L 439.221317 95.262408 
L 431.288213 90.444352 
L 428.114971 88.746185 
L 420.181867 84.717974 
L 375.756485 62.562814 
L 369.410002 65.366765 
L 364.65014 67.538839 
L 364.65014 67.538839 
" clip-path="url(#p770bdaa255)" style="fill: none; stroke: #068773; stroke-width: 4"/>
   </g>
   <g id="line2d_58">
    <path d="M 364.65014 329.333051 
L 650.24188 329.333051 
" clip-path="url(#p770bdaa255)" style="fill: none; stroke: #000000; stroke-opacity: 0.7; stroke-width: 2"/>
   </g>
   <g id="line2d_59">
    <path d="M 650.24188 138.664405 
L 645.482018 138.585421 
L 642.308776 138.703897 
L 628.029189 139.691204 
L 623.269327 140.007142 
L 613.749602 141.033941 
L 607.403119 141.784294 
L 599.470015 139.138312 
L 594.710153 137.558622 
L 572.497462 130.450014 
L 561.391116 128.001494 
L 558.217875 127.369618 
L 531.245322 121.366794 
L 526.485459 120.497964 
L 523.312218 119.826596 
L 516.965735 118.641828 
L 502.686148 115.877369 
L 496.339665 114.85057 
L 493.166423 114.297679 
L 478.886836 112.086112 
L 474.126974 111.335759 
L 463.020628 109.5981 
L 439.221317 95.262408 
L 431.288213 90.444352 
L 428.114971 88.746185 
L 420.181867 84.717974 
L 375.756485 62.562814 
L 369.410002 65.366765 
L 364.65014 67.538839 
L 364.65014 67.538839 
" clip-path="url(#p770bdaa255)" style="fill: none; stroke: #068773; stroke-width: 4"/>
   </g>
   <g id="line2d_60">
    <path d="M 364.65014 329.333051 
L 650.24188 329.333051 
" clip-path="url(#p770bdaa255)" style="fill: none; stroke: #000000; stroke-opacity: 0.7; stroke-width: 2"/>
   </g>
   <g id="line2d_61">
    <path d="M 650.24188 138.664405 
L 645.482018 138.585421 
L 642.308776 138.703897 
L 628.029189 139.691204 
L 623.269327 140.007142 
L 613.749602 141.033941 
L 607.403119 141.784294 
L 599.470015 139.138312 
L 594.710153 137.558622 
L 572.497462 130.450014 
L 561.391116 128.001494 
L 558.217875 127.369618 
L 531.245322 121.366794 
L 526.485459 120.497964 
L 523.312218 119.826596 
L 516.965735 118.641828 
L 502.686148 115.877369 
L 496.339665 114.85057 
L 493.166423 114.297679 
L 478.886836 112.086112 
L 474.126974 111.335759 
L 463.020628 109.5981 
L 439.221317 95.262408 
L 431.288213 90.444352 
L 428.114971 88.746185 
L 420.181867 84.717974 
L 375.756485 62.562814 
L 369.410002 65.366765 
L 364.65014 67.538839 
L 364.65014 67.538839 
" clip-path="url(#p770bdaa255)" style="fill: none; stroke: #068773; stroke-width: 4"/>
   </g>
   <g id="line2d_62">
    <path d="M 364.65014 329.333051 
L 650.24188 329.333051 
" clip-path="url(#p770bdaa255)" style="fill: none; stroke: #000000; stroke-opacity: 0.7; stroke-width: 2"/>
   </g>
   <g id="line2d_63">
    <path d="M 650.24188 138.664405 
L 645.482018 138.585421 
L 642.308776 138.703897 
L 628.029189 139.691204 
L 623.269327 140.007142 
L 613.749602 141.033941 
L 607.403119 141.784294 
L 599.470015 139.138312 
L 594.710153 137.558622 
L 572.497462 130.450014 
L 561.391116 128.001494 
L 558.217875 127.369618 
L 531.245322 121.366794 
L 526.485459 120.497964 
L 523.312218 119.826596 
L 516.965735 118.641828 
L 502.686148 115.877369 
L 496.339665 114.85057 
L 493.166423 114.297679 
L 478.886836 112.086112 
L 474.126974 111.335759 
L 463.020628 109.5981 
L 439.221317 95.262408 
L 431.288213 90.444352 
L 428.114971 88.746185 
L 420.181867 84.717974 
L 375.756485 62.562814 
L 369.410002 65.366765 
L 364.65014 67.538839 
L 364.65014 67.538839 
" clip-path="url(#p770bdaa255)" style="fill: none; stroke: #068773; stroke-width: 4"/>
   </g>
   <g id="line2d_64">
    <path d="M 364.65014 329.333051 
L 650.24188 329.333051 
" clip-path="url(#p770bdaa255)" style="fill: none; stroke: #000000; stroke-opacity: 0.7; stroke-width: 2"/>
   </g>
   <g id="text_10">
    <text style="fill: #808080; font: 700 14px 'Roboto', 'Arial', 'DejaVu Sans', sans-serif; text-anchor: middle" x="507.44601" y="48.224302" transform="rotate(-0 507.44601 48.224302)">NE</text>
   </g>
  </g>
  <g id="axes_3">
   <g id="patch_4">
    <path d="M 670.32778 342.671562 
L 955.91952 342.671562 
L 955.91952 49.224302 
L 670.32778 49.224302 
L 670.32778 342.671562 
z
" style="fill: none"/>
   </g>
   <g id="matplotlib.axis_5">
    <g id="xtick_5">
     <g id="line2d_65">
      <path d="M 670.32778 342.671562 
L 670.32778 49.224302 
" clip-path="url(#p8f19a1a93c)" style="fill: none; stroke-dasharray: 0.7,2.1; stroke-dashoffset: 0; stroke: #000000; stroke-opacity: 0.3; stroke-width: 0.7"/>
     </g>
     <g id="line2d_66"/>
    </g>
    <g id="xtick_6">
     <g id="line2d_67">
      <path d="M 955.91952 342.671562 
L 955.91952 49.224302 
" clip-path="url(#p8f19a1a93c)" style="fill: none; stroke-dasharray: 0.7,2.1; stroke-dashoffset: 0; stroke: #000000; stroke-opacity: 0.3; stroke-width: 0.7"/>
     </g>
     <g id="line2d_68"/>
    </g>
   </g>
   <g id="matplotlib.axis_6">
    <g id="ytick_17">
     <g id="line2d_69">
      <path d="M 670.32778 329.333051 
L 955.91952 329.333051 
" clip-path="url(#p8f19a1a93c)" style="fill: none; stroke-dasharray: 0.7,2.1; stroke-dashoffset: 0; stroke: #000000; stroke-opacity: 0.3; stroke-width: 0.7"/>
     </g>
    </g>
    <g id="ytick_18">
     <g id="line2d_70">
      <path d="M 670.32778 289.840788 
L 955.91952 289.840788 
" clip-path="url(#p8f19a1a93c)" style="fill: none; stroke-dasharray: 0.7,2.1; stroke-dashoffset: 0; stroke: #000000; stroke-opacity: 0.3; stroke-width: 0.7"/>
     </g>
    </g>
    <g id="ytick_19">
     <g id="line2d_71">
      <path d="M 670.32778 250.348525 
L 955.91952 250.348525 
" clip-path="url(#p8f19a1a93c)" style="fill: none; stroke-dasharray: 0.7,2.1; stroke-dashoffset: 0; stroke: #000000; stroke-opacity: 0.3; stroke-width: 0.7"/>
     </g>
    </g>
    <g id="ytick_20">
     <g id="line2d_72">
      <path d="M 670.32778 210.856262 
L 955.91952 210.856262 
" clip-path="url(#p8f19a1a93c)" style="fill: none; stroke-dasharray: 0.7,2.1; stroke-dashoffset: 0; stroke: #000000; stroke-opacity: 0.3; stroke-width: 0.7"/>
     </g>
    </g>
    <g id="ytick_21">
     <g id="line2d_73">
      <path d="M 670.32778 171.363999 
L 955.91952 171.363999 
" clip-path="url(#p8f19a1a93c)" style="fill: none; stroke-dasharray: 0.7,2.1; stroke-dashoffset: 0; stroke: #000000; stroke-opacity: 0.3; stroke-width: 0.7"/>
     </g>
    </g>
    <g id="ytick_22">
     <g id="line2d_74">
      <path d="M 670.32778 131.871736 
L 955.91952 131.871736 
" clip-path="url(#p8f19a1a93c)" style="fill: none; stroke-dasharray: 0.7,2.1; stroke-dashoffset: 0; stroke: #000000; stroke-opacity: 0.3; stroke-width: 0.7"/>
     </g>
    </g>
    <g id="ytick_23">
     <g id="line2d_75">
      <path d="M 670.32778 92.379473 
L 955.91952 92.379473 
" clip-path="url(#p8f19a1a93c)" style="fill: none; stroke-dasharray: 0.7,2.1; stroke-dashoffset: 0; stroke: #000000; stroke-opacity: 0.3; stroke-width: 0.7"/>
     </g>
    </g>
    <g id="ytick_24">
     <g id="line2d_76">
      <path d="M 670.32778 52.88721 
L 955.91952 52.88721 
" clip-path="url(#p8f19a1a93c)" style="fill: none; stroke-dasharray: 0.7,2.1; stroke-dashoffset: 0; stroke: #000000; stroke-opacity: 0.3; stroke-width: 0.7"/>
     </g>
    </g>
   </g>
   <g id="line2d_77">
    <path d="M 670.32778 342.671562 
L 670.32778 49.224302 
" clip-path="url(#p8f19a1a93c)" style="fill: none; stroke: #000000; stroke-opacity: 0.7; stroke-width: 3"/>
   </g>
   <g id="line2d_78">
    <path d="M 670.32778 342.671562 
L 670.32778 49.224302 
" clip-path="url(#p8f19a1a93c)" style="fill: none; stroke: #000000; stroke-opacity: 0.7; stroke-width: 3"/>
   </g>
   <g id="line2d_79">
    <path d="M 670.32778 342.671562 
L 670.32778 49.224302 
" clip-path="url(#p8f19a1a93c)" style="fill: none; stroke: #000000; stroke-opacity: 0.7; stroke-width: 3"/>
   </g>
   <g id="line2d_80">
    <path d="M 670.32778 342.671562 
L 670.32778 49.224302 
" clip-path="url(#p8f19a1a93c)" style="fill: none; stroke: #000000; stroke-opacity: 0.7; stroke-width: 3"/>
   </g>
   <g id="line2d_81">
    <path d="M 955.91952 210.737785 
L 949.573037 210.737785 
L 936.880071 209.868955 
L 927.360346 209.316064 
L 913.080759 208.249772 
L 909.907517 208.407741 
L 898.801172 208.881649 
L 892.454689 209.118602 
L 887.694827 209.276571 
L 882.934964 209.474033 
L 878.175102 209.671494 
L 873.41524 209.632002 
L 870.241998 209.513525 
L 863.895515 209.43454 
L 860.722273 209.355556 
L 836.922962 208.684187 
L 833.74972 208.486726 
L 828.989858 209.355556 
L 821.056754 210.81677 
L 816.296892 211.685599 
L 794.084201 215.476857 
L 778.217993 217.925377 
L 773.458131 218.67573 
L 768.698268 219.426083 
L 735.379232 231.866146 
L 719.513024 233.366852 
L 714.753162 233.801267 
L 683.020746 236.881663 
L 681.434125 236.960648 
L 670.32778 233.998728 
L 670.32778 233.998728 
" clip-path="url(#p8f19a1a93c)" style="fill: none; stroke: #888d8f; stroke-width: 4"/>
   </g>
   <g id="line2d_82">
    <path d="M 955.91952 200.311828 
L 947.986416 200.35132 
L 940.053312 200.667258 
L 935.29345 200.864719 
L 928.946967 201.101673 
L 924.187104 200.943704 
L 917.840621 200.70675 
L 909.907517 200.390812 
L 903.561034 200.153859 
L 894.04131 199.758936 
L 878.175102 199.285029 
L 859.135653 198.25823 
L 851.202549 197.74483 
L 833.74972 196.915493 
L 811.537029 201.259642 
L 808.363788 201.891518 
L 800.430684 204.142577 
L 795.670821 205.485314 
L 786.151097 208.170788 
L 782.977855 209.07911 
L 779.804614 209.908447 
L 771.87151 212.198999 
L 767.111647 213.581228 
L 735.379232 223.059371 
L 730.61937 223.493786 
L 719.513024 224.520585 
L 714.753162 224.955 
L 703.646816 225.981798 
L 695.713712 226.653167 
L 690.95385 227.04809 
L 686.193988 227.482504 
L 678.260884 228.193365 
L 670.32778 228.864734 
L 670.32778 228.864734 
" clip-path="url(#p8f19a1a93c)" style="fill: none; stroke: #f5700a; stroke-width: 4"/>
   </g>
   <g id="line2d_83">
    <path d="M 955.91952 210.737785 
L 949.573037 210.737785 
L 936.880071 209.868955 
L 927.360346 209.316064 
L 913.080759 208.249772 
L 909.907517 208.407741 
L 898.801172 208.881649 
L 892.454689 209.118602 
L 887.694827 209.276571 
L 882.934964 209.474033 
L 878.175102 209.671494 
L 873.41524 209.632002 
L 870.241998 209.513525 
L 863.895515 209.43454 
L 860.722273 209.355556 
L 836.922962 208.684187 
L 833.74972 208.486726 
L 828.989858 209.355556 
L 821.056754 210.81677 
L 816.296892 211.685599 
L 794.084201 215.476857 
L 778.217993 217.925377 
L 773.458131 218.67573 
L 768.698268 219.426083 
L 735.379232 231.866146 
L 719.513024 233.366852 
L 714.753162 233.801267 
L 683.020746 236.881663 
L 681.434125 236.960648 
L 670.32778 233.998728 
L 670.32778 233.998728 
" clip-path="url(#p8f19a1a93c)" style="fill: none; stroke: #888d8f; stroke-width: 4"/>
   </g>
   <g id="line2d_84">
    <path d="M 955.91952 200.311828 
L 947.986416 200.35132 
L 940.053312 200.667258 
L 935.29345 200.864719 
L 928.946967 201.101673 
L 924.187104 200.943704 
L 917.840621 200.70675 
L 909.907517 200.390812 
L 903.561034 200.153859 
L 894.04131 199.758936 
L 878.175102 199.285029 
L 859.135653 198.25823 
L 851.202549 197.74483 
L 833.74972 196.915493 
L 811.537029 201.259642 
L 808.363788 201.891518 
L 800.430684 204.142577 
L 795.670821 205.485314 
L 786.151097 208.170788 
L 782.977855 209.07911 
L 779.804614 209.908447 
L 771.87151 212.198999 
L 767.111647 213.581228 
L 735.379232 223.059371 
L 730.61937 223.493786 
L 719.513024 224.520585 
L 714.753162 224.955 
L 703.646816 225.981798 
L 695.713712 226.653167 
L 690.95385 227.04809 
L 686.193988 227.482504 
L 678.260884 228.193365 
L 670.32778 228.864734 
L 670.32778 228.864734 
" clip-path="url(#p8f19a1a93c)" style="fill: none; stroke: #f5700a; stroke-width: 4"/>
   </g>
   <g id="line2d_85">
    <path d="M 955.91952 210.737785 
L 949.573037 210.737785 
L 936.880071 209.868955 
L 927.360346 209.316064 
L 913.080759 208.249772 
L 909.907517 208.407741 
L 898.801172 208.881649 
L 892.454689 209.118602 
L 887.694827 209.276571 
L 882.934964 209.474033 
L 878.175102 209.671494 
L 873.41524 209.632002 
L 870.241998 209.513525 
L 863.895515 209.43454 
L 860.722273 209.355556 
L 836.922962 208.684187 
L 833.74972 208.486726 
L 828.989858 209.355556 
L 821.056754 210.81677 
L 816.296892 211.685599 
L 794.084201 215.476857 
L 778.217993 217.925377 
L 773.458131 218.67573 
L 768.698268 219.426083 
L 735.379232 231.866146 
L 719.513024 233.366852 
L 714.753162 233.801267 
L 683.020746 236.881663 
L 681.434125 236.960648 
L 670.32778 233.998728 
L 670.32778 233.998728 
" clip-path="url(#p8f19a1a93c)" style="fill: none; stroke: #888d8f; stroke-width: 4"/>
   </g>
   <g id="line2d_86">
    <path d="M 955.91952 200.311828 
L 947.986416 200.35132 
L 940.053312 200.667258 
L 935.29345 200.864719 
L 928.946967 201.101673 
L 924.187104 200.943704 
L 917.840621 200.70675 
L 909.907517 200.390812 
L 903.561034 200.153859 
L 894.04131 199.758936 
L 878.175102 199.285029 
L 859.135653 198.25823 
L 851.202549 197.74483 
L 833.74972 196.915493 
L 811.537029 201.259642 
L 808.363788 201.891518 
L 800.430684 204.142577 
L 795.670821 205.485314 
L 786.151097 208.170788 
L 782.977855 209.07911 
L 779.804614 209.908447 
L 771.87151 212.198999 
L 767.111647 213.581228 
L 735.379232 223.059371 
L 730.61937 223.493786 
L 719.513024 224.520585 
L 714.753162 224.955 
L 703.646816 225.981798 
L 695.713712 226.653167 
L 690.95385 227.04809 
L 686.193988 227.482504 
L 678.260884 228.193365 
L 670.32778 228.864734 
L 670.32778 228.864734 
" clip-path="url(#p8f19a1a93c)" style="fill: none; stroke: #f5700a; stroke-width: 4"/>
   </g>
   <g id="line2d_87">
    <path d="M 955.91952 210.737785 
L 949.573037 210.737785 
L 936.880071 209.868955 
L 927.360346 209.316064 
L 913.080759 208.249772 
L 909.907517 208.407741 
L 898.801172 208.881649 
L 892.454689 209.118602 
L 887.694827 209.276571 
L 882.934964 209.474033 
L 878.175102 209.671494 
L 873.41524 209.632002 
L 870.241998 209.513525 
L 863.895515 209.43454 
L 860.722273 209.355556 
L 836.922962 208.684187 
L 833.74972 208.486726 
L 828.989858 209.355556 
L 821.056754 210.81677 
L 816.296892 211.685599 
L 794.084201 215.476857 
L 778.217993 217.925377 
L 773.458131 218.67573 
L 768.698268 219.426083 
L 735.379232 231.866146 
L 719.513024 233.366852 
L 714.753162 233.801267 
L 683.020746 236.881663 
L 681.434125 236.960648 
L 670.32778 233.998728 
L 670.32778 233.998728 
" clip-path="url(#p8f19a1a93c)" style="fill: none; stroke: #888d8f; stroke-width: 4"/>
   </g>
   <g id="line2d_88">
    <path d="M 955.91952 200.311828 
L 947.986416 200.35132 
L 940.053312 200.667258 
L 935.29345 200.864719 
L 928.946967 201.101673 
L 924.187104 200.943704 
L 917.840621 200.70675 
L 909.907517 200.390812 
L 903.561034 200.153859 
L 894.04131 199.758936 
L 878.175102 199.285029 
L 859.135653 198.25823 
L 851.202549 197.74483 
L 833.74972 196.915493 
L 811.537029 201.259642 
L 808.363788 201.891518 
L 800.430684 204.142577 
L 795.670821 205.485314 
L 786.151097 208.170788 
L 782.977855 209.07911 
L 779.804614 209.908447 
L 771.87151 212.198999 
L 767.111647 213.581228 
L 735.379232 223.059371 
L 730.61937 223.493786 
L 719.513024 224.520585 
L 714.753162 224.955 
L 703.646816 225.981798 
L 695.713712 226.653167 
L 690.95385 227.04809 
L 686.193988 227.482504 
L 678.260884 228.193365 
L 670.32778 228.864734 
L 670.32778 228.864734 
" clip-path="url(#p8f19a1a93c)" style="fill: none; stroke: #f5700a; stroke-width: 4"/>
   </g>
   <g id="line2d_89">
    <path d="M 955.91952 203.629178 
L 943.226554 204.0241 
L 935.29345 204.5375 
L 928.946967 204.932422 
L 919.427242 206.433128 
L 913.080759 207.499419 
L 908.320897 206.946528 
L 897.214551 205.643283 
L 887.694827 204.616484 
L 881.348343 203.905623 
L 876.588481 203.471209 
L 859.135653 202.957809 
L 855.962411 202.878825 
L 833.74972 202.246948 
L 819.470133 200.904212 
L 816.296892 200.588273 
L 808.363788 199.798428 
L 798.844063 198.218738 
L 790.910959 196.954985 
L 787.737718 196.362601 
L 775.044751 194.387988 
L 768.698268 193.321697 
L 749.658819 186.094613 
L 736.965853 181.15808 
L 735.379232 180.565696 
L 709.993299 173.694042 
L 706.820058 172.825213 
L 681.434125 165.874574 
L 671.914401 168.560048 
L 670.32778 169.033955 
L 670.32778 169.033955 
" clip-path="url(#p8f19a1a93c)" style="fill: none; stroke: #068773; stroke-width: 4"/>
   </g>
   <g id="line2d_90">
    <path d="M 670.32778 329.333051 
L 955.91952 329.333051 
" clip-path="url(#p8f19a1a93c)" style="fill: none; stroke: #000000; stroke-opacity: 0.7; stroke-width: 2"/>
   </g>
   <g id="line2d_91">
    <path d="M 955.91952 203.629178 
L 943.226554 204.0241 
L 935.29345 204.5375 
L 928.946967 204.932422 
L 919.427242 206.433128 
L 913.080759 207.499419 
L 908.320897 206.946528 
L 897.214551 205.643283 
L 887.694827 204.616484 
L 881.348343 203.905623 
L 876.588481 203.471209 
L 859.135653 202.957809 
L 855.962411 202.878825 
L 833.74972 202.246948 
L 819.470133 200.904212 
L 816.296892 200.588273 
L 808.363788 199.798428 
L 798.844063 198.218738 
L 790.910959 196.954985 
L 787.737718 196.362601 
L 775.044751 194.387988 
L 768.698268 193.321697 
L 749.658819 186.094613 
L 736.965853 181.15808 
L 735.379232 180.565696 
L 709.993299 173.694042 
L 706.820058 172.825213 
L 681.434125 165.874574 
L 671.914401 168.560048 
L 670.32778 169.033955 
L 670.32778 169.033955 
" clip-path="url(#p8f19a1a93c)" style="fill: none; stroke: #068773; stroke-width: 4"/>
   </g>
   <g id="line2d_92">
    <path d="M 670.32778 329.333051 
L 955.91952 329.333051 
" clip-path="url(#p8f19a1a93c)" style="fill: none; stroke: #000000; stroke-opacity: 0.7; stroke-width: 2"/>
   </g>
   <g id="line2d_93">
    <path d="M 955.91952 203.629178 
L 943.226554 204.0241 
L 935.29345 204.5375 
L 928.946967 204.932422 
L 919.427242 206.433128 
L 913.080759 207.499419 
L 908.320897 206.946528 
L 897.214551 205.643283 
L 887.694827 204.616484 
L 881.348343 203.905623 
L 876.588481 203.471209 
L 859.135653 202.957809 
L 855.962411 202.878825 
L 833.74972 202.246948 
L 819.470133 200.904212 
L 816.296892 200.588273 
L 808.363788 199.798428 
L 798.844063 198.218738 
L 790.910959 196.954985 
L 787.737718 196.362601 
L 775.044751 194.387988 
L 768.698268 193.321697 
L 749.658819 186.094613 
L 736.965853 181.15808 
L 735.379232 180.565696 
L 709.993299 173.694042 
L 706.820058 172.825213 
L 681.434125 165.874574 
L 671.914401 168.560048 
L 670.32778 169.033955 
L 670.32778 169.033955 
" clip-path="url(#p8f19a1a93c)" style="fill: none; stroke: #068773; stroke-width: 4"/>
   </g>
   <g id="line2d_94">
    <path d="M 670.32778 329.333051 
L 955.91952 329.333051 
" clip-path="url(#p8f19a1a93c)" style="fill: none; stroke: #000000; stroke-opacity: 0.7; stroke-width: 2"/>
   </g>
   <g id="line2d_95">
    <path d="M 955.91952 203.629178 
L 943.226554 204.0241 
L 935.29345 204.5375 
L 928.946967 204.932422 
L 919.427242 206.433128 
L 913.080759 207.499419 
L 908.320897 206.946528 
L 897.214551 205.643283 
L 887.694827 204.616484 
L 881.348343 203.905623 
L 876.588481 203.471209 
L 859.135653 202.957809 
L 855.962411 202.878825 
L 833.74972 202.246948 
L 819.470133 200.904212 
L 816.296892 200.588273 
L 808.363788 199.798428 
L 798.844063 198.218738 
L 790.910959 196.954985 
L 787.737718 196.362601 
L 775.044751 194.387988 
L 768.698268 193.321697 
L 749.658819 186.094613 
L 736.965853 181.15808 
L 735.379232 180.565696 
L 709.993299 173.694042 
L 706.820058 172.825213 
L 681.434125 165.874574 
L 671.914401 168.560048 
L 670.32778 169.033955 
L 670.32778 169.033955 
" clip-path="url(#p8f19a1a93c)" style="fill: none; stroke: #068773; stroke-width: 4"/>
   </g>
   <g id="line2d_96">
    <path d="M 670.32778 329.333051 
L 955.91952 329.333051 
" clip-path="url(#p8f19a1a93c)" style="fill: none; stroke: #000000; stroke-opacity: 0.7; stroke-width: 2"/>
   </g>
   <g id="text_11">
    <text style="fill: #808080; font: 700 14px 'Roboto', 'Arial', 'DejaVu Sans', sans-serif; text-anchor: middle" x="813.12365" y="48.224302" transform="rotate(-0 813.12365 48.224302)">SL</text>
   </g>
  </g>
  <g id="axes_4">
   <g id="patch_5">
    <path d="M 42.306875 654.262885 
L 327.898615 654.262885 
L 327.898615 360.815625 
L 42.306875 360.815625 
L 42.306875 654.262885 
z
" style="fill: none"/>
   </g>
   <g id="matplotlib.axis_7">
    <g id="xtick_7">
     <g id="line2d_97">
      <path d="M 42.306875 654.262885 
L 42.306875 360.815625 
" clip-path="url(#pf66f7c95bb)" style="fill: none; stroke-dasharray: 0.7,2.1; stroke-dashoffset: 0; stroke: #000000; stroke-opacity: 0.3; stroke-width: 0.7"/>
     </g>
     <g id="line2d_98"/>
     <g id="text_12">
      <text style="fill: #333333; font: 20px 'Roboto', 'Arial', 'DejaVu Sans', sans-serif; text-anchor: middle" x="42.306875" y="675.49726" transform="rotate(-0 42.306875 675.49726)">Jan</text>
     </g>
    </g>
    <g id="xtick_8">
     <g id="line2d_99">
      <path d="M 327.898615 654.262885 
L 327.898615 360.815625 
" clip-path="url(#pf66f7c95bb)" style="fill: none; stroke-dasharray: 0.7,2.1; stroke-dashoffset: 0; stroke: #000000; stroke-opacity: 0.3; stroke-width: 0.7"/>
     </g>
     <g id="line2d_100"/>
     <g id="text_13">
      <text style="fill: #333333; font: 20px 'Roboto', 'Arial', 'DejaVu Sans', sans-serif; text-anchor: middle" x="327.898615" y="675.49726" transform="rotate(-0 327.898615 675.49726)">Jul</text>
     </g>
    </g>
   </g>
   <g id="matplotlib.axis_8">
    <g id="ytick_25">
     <g id="line2d_101">
      <path d="M 42.306875 640.924373 
L 327.898615 640.924373 
" clip-path="url(#pf66f7c95bb)" style="fill: none; stroke-dasharray: 0.7,2.1; stroke-dashoffset: 0; stroke: #000000; stroke-opacity: 0.3; stroke-width: 0.7"/>
     </g>
     <g id="text_14">
      <text style="fill: #333333; font: 20px 'Roboto', 'Arial', 'DejaVu Sans', sans-serif; text-anchor: end" x="39.306875" y="646.510311" transform="rotate(-0 39.306875 646.510311)">0  </text>
     </g>
    </g>
    <g id="ytick_26">
     <g id="line2d_102">
      <path d="M 42.306875 601.43211 
L 327.898615 601.43211 
" clip-path="url(#pf66f7c95bb)" style="fill: none; stroke-dasharray: 0.7,2.1; stroke-dashoffset: 0; stroke: #000000; stroke-opacity: 0.3; stroke-width: 0.7"/>
     </g>
     <g id="text_15">
      <text style="fill: #333333; font: 20px 'Roboto', 'Arial', 'DejaVu Sans', sans-serif; text-anchor: end" x="39.306875" y="607.018048" transform="rotate(-0 39.306875 607.018048)">10  </text>
     </g>
    </g>
    <g id="ytick_27">
     <g id="line2d_103">
      <path d="M 42.306875 561.939847 
L 327.898615 561.939847 
" clip-path="url(#pf66f7c95bb)" style="fill: none; stroke-dasharray: 0.7,2.1; stroke-dashoffset: 0; stroke: #000000; stroke-opacity: 0.3; stroke-width: 0.7"/>
     </g>
     <g id="text_16">
      <text style="fill: #333333; font: 20px 'Roboto', 'Arial', 'DejaVu Sans', sans-serif; text-anchor: end" x="39.306875" y="567.525785" transform="rotate(-0 39.306875 567.525785)">20  </text>
     </g>
    </g>
    <g id="ytick_28">
     <g id="line2d_104">
      <path d="M 42.306875 522.447584 
L 327.898615 522.447584 
" clip-path="url(#pf66f7c95bb)" style="fill: none; stroke-dasharray: 0.7,2.1; stroke-dashoffset: 0; stroke: #000000; stroke-opacity: 0.3; stroke-width: 0.7"/>
     </g>
     <g id="text_17">
      <text style="fill: #333333; font: 20px 'Roboto', 'Arial', 'DejaVu Sans', sans-serif; text-anchor: end" x="39.306875" y="528.033522" transform="rotate(-0 39.306875 528.033522)">30  </text>
     </g>
    </g>
    <g id="ytick_29">
     <g id="line2d_105">
      <path d="M 42.306875 482.955321 
L 327.898615 482.955321 
" clip-path="url(#pf66f7c95bb)" style="fill: none; stroke-dasharray: 0.7,2.1; stroke-dashoffset: 0; stroke: #000000; stroke-opacity: 0.3; stroke-width: 0.7"/>
     </g>
     <g id="text_18">
      <text style="fill: #333333; font: 20px 'Roboto', 'Arial', 'DejaVu Sans', sans-serif; text-anchor: end" x="39.306875" y="488.541259" transform="rotate(-0 39.306875 488.541259)">40  </text>
     </g>
    </g>
    <g id="ytick_30">
     <g id="line2d_106">
      <path d="M 42.306875 443.463058 
L 327.898615 443.463058 
" clip-path="url(#pf66f7c95bb)" style="fill: none; stroke-dasharray: 0.7,2.1; stroke-dashoffset: 0; stroke: #000000; stroke-opacity: 0.3; stroke-width: 0.7"/>
     </g>
     <g id="text_19">
      <text style="fill: #333333; font: 20px 'Roboto', 'Arial', 'DejaVu Sans', sans-serif; text-anchor: end" x="39.306875" y="449.048996" transform="rotate(-0 39.306875 449.048996)">50  </text>
     </g>
    </g>
    <g id="ytick_31">
     <g id="line2d_107">
      <path d="M 42.306875 403.970795 
L 327.898615 403.970795 
" clip-path="url(#pf66f7c95bb)" style="fill: none; stroke-dasharray: 0.7,2.1; stroke-dashoffset: 0; stroke: #000000; stroke-opacity: 0.3; stroke-width: 0.7"/>
     </g>
     <g id="text_20">
      <text style="fill: #333333; font: 20px 'Roboto', 'Arial', 'DejaVu Sans', sans-serif; text-anchor: end" x="39.306875" y="409.556733" transform="rotate(-0 39.306875 409.556733)">60  </text>
     </g>
    </g>
    <g id="ytick_32">
     <g id="line2d_108">
      <path d="M 42.306875 364.478532 
L 327.898615 364.478532 
" clip-path="url(#pf66f7c95bb)" style="fill: none; stroke-dasharray: 0.7,2.1; stroke-dashoffset: 0; stroke: #000000; stroke-opacity: 0.3; stroke-width: 0.7"/>
     </g>
     <g id="text_21">
      <text style="fill: #333333; font: 20px 'Roboto', 'Arial', 'DejaVu Sans', sans-serif; text-anchor: end" x="39.306875" y="370.06447" transform="rotate(-0 39.306875 370.06447)">70%</text>
     </g>
    </g>
   </g>
   <g id="line2d_109">
    <path d="M 42.306875 654.262885 
L 42.306875 360.815625 
" clip-path="url(#pf66f7c95bb)" style="fill: none; stroke: #000000; stroke-opacity: 0.7; stroke-width: 3"/>
   </g>
   <g id="line2d_110">
    <path d="M 42.306875 654.262885 
L 42.306875 360.815625 
" clip-path="url(#pf66f7c95bb)" style="fill: none; stroke: #000000; stroke-opacity: 0.7; stroke-width: 3"/>
   </g>
   <g id="line2d_111">
    <path d="M 42.306875 654.262885 
L 42.306875 360.815625 
" clip-path="url(#pf66f7c95bb)" style="fill: none; stroke: #000000; stroke-opacity: 0.7; stroke-width: 3"/>
   </g>
   <g id="line2d_112">
    <path d="M 42.306875 654.262885 
L 42.306875 360.815625 
" clip-path="url(#pf66f7c95bb)" style="fill: none; stroke: #000000; stroke-opacity: 0.7; stroke-width: 3"/>
   </g>
   <g id="line2d_113">
    <path d="M 327.898615 522.408092 
L 321.552132 522.408092 
L 316.79227 522.013169 
L 299.339441 520.788909 
L 289.819716 520.236018 
L 285.059854 519.959572 
L 278.713371 522.092154 
L 272.366888 524.224736 
L 270.780267 524.698643 
L 266.020405 526.357318 
L 254.914059 530.030099 
L 250.154197 531.649282 
L 221.595023 540.100626 
L 216.835161 541.482855 
L 208.902057 543.773406 
L 205.728815 544.563252 
L 197.795711 542.904576 
L 193.035849 541.91727 
L 180.342883 539.310781 
L 164.476675 535.440539 
L 158.130192 533.939833 
L 148.610467 531.649282 
L 142.263984 530.148576 
L 140.677363 529.753653 
L 132.744259 528.489901 
L 127.984397 527.739548 
L 120.051293 526.475795 
L 113.70481 525.448996 
L 107.358327 524.501182 
L 104.185085 525.291027 
L 93.07874 528.13447 
L 81.972394 531.09639 
L 69.279428 534.334755 
L 62.932945 535.99343 
L 53.41322 538.441951 
L 50.239979 537.533629 
L 45.480117 536.269876 
L 42.306875 535.361554 
L 42.306875 535.361554 
" clip-path="url(#pf66f7c95bb)" style="fill: none; stroke: #888d8f; stroke-width: 4"/>
   </g>
   <g id="line2d_114">
    <path d="M 327.898615 524.145752 
L 316.79227 524.066767 
L 313.619028 523.987783 
L 300.926062 523.632352 
L 292.992958 522.72403 
L 277.12675 521.223324 
L 270.780267 520.670432 
L 246.980955 518.221912 
L 231.114748 516.168314 
L 226.354885 515.536438 
L 213.661919 513.877763 
L 205.728815 512.614011 
L 196.20909 515.299485 
L 185.102745 518.53785 
L 180.342883 519.920079 
L 177.169641 520.946878 
L 158.130192 527.502594 
L 154.95695 528.529393 
L 140.677363 533.465926 
L 134.33088 536.50683 
L 107.358327 549.223339 
L 101.011844 548.986385 
L 80.385774 548.394001 
L 75.625911 548.236032 
L 53.41322 547.643648 
L 42.306875 545.432081 
L 42.306875 545.432081 
" clip-path="url(#pf66f7c95bb)" style="fill: none; stroke: #f5700a; stroke-width: 4"/>
   </g>
   <g id="line2d_115">
    <path d="M 327.898615 522.408092 
L 321.552132 522.408092 
L 316.79227 522.013169 
L 299.339441 520.788909 
L 289.819716 520.236018 
L 285.059854 519.959572 
L 278.713371 522.092154 
L 272.366888 524.224736 
L 270.780267 524.698643 
L 266.020405 526.357318 
L 254.914059 530.030099 
L 250.154197 531.649282 
L 221.595023 540.100626 
L 216.835161 541.482855 
L 208.902057 543.773406 
L 205.728815 544.563252 
L 197.795711 542.904576 
L 193.035849 541.91727 
L 180.342883 539.310781 
L 164.476675 535.440539 
L 158.130192 533.939833 
L 148.610467 531.649282 
L 142.263984 530.148576 
L 140.677363 529.753653 
L 132.744259 528.489901 
L 127.984397 527.739548 
L 120.051293 526.475795 
L 113.70481 525.448996 
L 107.358327 524.501182 
L 104.185085 525.291027 
L 93.07874 528.13447 
L 81.972394 531.09639 
L 69.279428 534.334755 
L 62.932945 535.99343 
L 53.41322 538.441951 
L 50.239979 537.533629 
L 45.480117 536.269876 
L 42.306875 535.361554 
L 42.306875 535.361554 
" clip-path="url(#pf66f7c95bb)" style="fill: none; stroke: #888d8f; stroke-width: 4"/>
   </g>
   <g id="line2d_116">
    <path d="M 327.898615 524.145752 
L 316.79227 524.066767 
L 313.619028 523.987783 
L 300.926062 523.632352 
L 292.992958 522.72403 
L 277.12675 521.223324 
L 270.780267 520.670432 
L 246.980955 518.221912 
L 231.114748 516.168314 
L 226.354885 515.536438 
L 213.661919 513.877763 
L 205.728815 512.614011 
L 196.20909 515.299485 
L 185.102745 518.53785 
L 180.342883 519.920079 
L 177.169641 520.946878 
L 158.130192 527.502594 
L 154.95695 528.529393 
L 140.677363 533.465926 
L 134.33088 536.50683 
L 107.358327 549.223339 
L 101.011844 548.986385 
L 80.385774 548.394001 
L 75.625911 548.236032 
L 53.41322 547.643648 
L 42.306875 545.432081 
L 42.306875 545.432081 
" clip-path="url(#pf66f7c95bb)" style="fill: none; stroke: #f5700a; stroke-width: 4"/>
   </g>
   <g id="line2d_117">
    <path d="M 327.898615 522.408092 
L 321.552132 522.408092 
L 316.79227 522.013169 
L 299.339441 520.788909 
L 289.819716 520.236018 
L 285.059854 519.959572 
L 278.713371 522.092154 
L 272.366888 524.224736 
L 270.780267 524.698643 
L 266.020405 526.357318 
L 254.914059 530.030099 
L 250.154197 531.649282 
L 221.595023 540.100626 
L 216.835161 541.482855 
L 208.902057 543.773406 
L 205.728815 544.563252 
L 197.795711 542.904576 
L 193.035849 541.91727 
L 180.342883 539.310781 
L 164.476675 535.440539 
L 158.130192 533.939833 
L 148.610467 531.649282 
L 142.263984 530.148576 
L 140.677363 529.753653 
L 132.744259 528.489901 
L 127.984397 527.739548 
L 120.051293 526.475795 
L 113.70481 525.448996 
L 107.358327 524.501182 
L 104.185085 525.291027 
L 93.07874 528.13447 
L 81.972394 531.09639 
L 69.279428 534.334755 
L 62.932945 535.99343 
L 53.41322 538.441951 
L 50.239979 537.533629 
L 45.480117 536.269876 
L 42.306875 535.361554 
L 42.306875 535.361554 
" clip-path="url(#pf66f7c95bb)" style="fill: none; stroke: #888d8f; stroke-width: 4"/>
   </g>
   <g id="line2d_118">
    <path d="M 327.898615 524.145752 
L 316.79227 524.066767 
L 313.619028 523.987783 
L 300.926062 523.632352 
L 292.992958 522.72403 
L 277.12675 521.223324 
L 270.780267 520.670432 
L 246.980955 518.221912 
L 231.114748 516.168314 
L 226.354885 515.536438 
L 213.661919 513.877763 
L 205.728815 512.614011 
L 196.20909 515.299485 
L 185.102745 518.53785 
L 180.342883 519.920079 
L 177.169641 520.946878 
L 158.130192 527.502594 
L 154.95695 528.529393 
L 140.677363 533.465926 
L 134.33088 536.50683 
L 107.358327 549.223339 
L 101.011844 548.986385 
L 80.385774 548.394001 
L 75.625911 548.236032 
L 53.41322 547.643648 
L 42.306875 545.432081 
L 42.306875 545.432081 
" clip-path="url(#pf66f7c95bb)" style="fill: none; stroke: #f5700a; stroke-width: 4"/>
   </g>
   <g id="line2d_119">
    <path d="M 327.898615 522.408092 
L 321.552132 522.408092 
L 316.79227 522.013169 
L 299.339441 520.788909 
L 289.819716 520.236018 
L 285.059854 519.959572 
L 278.713371 522.092154 
L 272.366888 524.224736 
L 270.780267 524.698643 
L 266.020405 526.357318 
L 254.914059 530.030099 
L 250.154197 531.649282 
L 221.595023 540.100626 
L 216.835161 541.482855 
L 208.902057 543.773406 
L 205.728815 544.563252 
L 197.795711 542.904576 
L 193.035849 541.91727 
L 180.342883 539.310781 
L 164.476675 535.440539 
L 158.130192 533.939833 
L 148.610467 531.649282 
L 142.263984 530.148576 
L 140.677363 529.753653 
L 132.744259 528.489901 
L 127.984397 527.739548 
L 120.051293 526.475795 
L 113.70481 525.448996 
L 107.358327 524.501182 
L 104.185085 525.291027 
L 93.07874 528.13447 
L 81.972394 531.09639 
L 69.279428 534.334755 
L 62.932945 535.99343 
L 53.41322 538.441951 
L 50.239979 537.533629 
L 45.480117 536.269876 
L 42.306875 535.361554 
L 42.306875 535.361554 
" clip-path="url(#pf66f7c95bb)" style="fill: none; stroke: #888d8f; stroke-width: 4"/>
   </g>
   <g id="line2d_120">
    <path d="M 327.898615 524.145752 
L 316.79227 524.066767 
L 313.619028 523.987783 
L 300.926062 523.632352 
L 292.992958 522.72403 
L 277.12675 521.223324 
L 270.780267 520.670432 
L 246.980955 518.221912 
L 231.114748 516.168314 
L 226.354885 515.536438 
L 213.661919 513.877763 
L 205.728815 512.614011 
L 196.20909 515.299485 
L 185.102745 518.53785 
L 180.342883 519.920079 
L 177.169641 520.946878 
L 158.130192 527.502594 
L 154.95695 528.529393 
L 140.677363 533.465926 
L 134.33088 536.50683 
L 107.358327 549.223339 
L 101.011844 548.986385 
L 80.385774 548.394001 
L 75.625911 548.236032 
L 53.41322 547.643648 
L 42.306875 545.432081 
L 42.306875 545.432081 
" clip-path="url(#pf66f7c95bb)" style="fill: none; stroke: #f5700a; stroke-width: 4"/>
   </g>
   <g id="line2d_121">
    <path d="M 327.898615 494.881985 
L 321.552132 494.881985 
L 318.37889 495.197923 
L 300.926062 497.014567 
L 291.406337 499.068165 
L 285.059854 500.371409 
L 281.886612 499.779025 
L 277.12675 498.791719 
L 266.020405 496.659137 
L 261.260542 495.750815 
L 250.154197 493.57874 
L 215.24854 489.313576 
L 210.488677 488.760684 
L 208.902057 488.563223 
L 204.142194 488.405254 
L 193.035849 488.326269 
L 188.275987 488.247285 
L 185.102745 488.286777 
L 177.169641 488.010331 
L 169.236537 487.575916 
L 166.063296 487.29947 
L 161.303433 486.983532 
L 151.783709 486.351656 
L 142.263984 485.798764 
L 140.677363 485.680287 
L 102.598465 479.124572 
L 88.318878 476.913005 
L 85.145636 476.320621 
L 58.173083 472.213426 
L 53.41322 471.463073 
L 42.306875 476.162652 
L 42.306875 476.162652 
" clip-path="url(#pf66f7c95bb)" style="fill: none; stroke: #068773; stroke-width: 4"/>
   </g>
   <g id="line2d_122">
    <path d="M 42.306875 640.924373 
L 327.898615 640.924373 
" clip-path="url(#pf66f7c95bb)" style="fill: none; stroke: #000000; stroke-opacity: 0.7; stroke-width: 2"/>
   </g>
   <g id="line2d_123">
    <path d="M 327.898615 494.881985 
L 321.552132 494.881985 
L 318.37889 495.197923 
L 300.926062 497.014567 
L 291.406337 499.068165 
L 285.059854 500.371409 
L 281.886612 499.779025 
L 277.12675 498.791719 
L 266.020405 496.659137 
L 261.260542 495.750815 
L 250.154197 493.57874 
L 215.24854 489.313576 
L 210.488677 488.760684 
L 208.902057 488.563223 
L 204.142194 488.405254 
L 193.035849 488.326269 
L 188.275987 488.247285 
L 185.102745 488.286777 
L 177.169641 488.010331 
L 169.236537 487.575916 
L 166.063296 487.29947 
L 161.303433 486.983532 
L 151.783709 486.351656 
L 142.263984 485.798764 
L 140.677363 485.680287 
L 102.598465 479.124572 
L 88.318878 476.913005 
L 85.145636 476.320621 
L 58.173083 472.213426 
L 53.41322 471.463073 
L 42.306875 476.162652 
L 42.306875 476.162652 
" clip-path="url(#pf66f7c95bb)" style="fill: none; stroke: #068773; stroke-width: 4"/>
   </g>
   <g id="line2d_124">
    <path d="M 42.306875 640.924373 
L 327.898615 640.924373 
" clip-path="url(#pf66f7c95bb)" style="fill: none; stroke: #000000; stroke-opacity: 0.7; stroke-width: 2"/>
   </g>
   <g id="line2d_125">
    <path d="M 327.898615 494.881985 
L 321.552132 494.881985 
L 318.37889 495.197923 
L 300.926062 497.014567 
L 291.406337 499.068165 
L 285.059854 500.371409 
L 281.886612 499.779025 
L 277.12675 498.791719 
L 266.020405 496.659137 
L 261.260542 495.750815 
L 250.154197 493.57874 
L 215.24854 489.313576 
L 210.488677 488.760684 
L 208.902057 488.563223 
L 204.142194 488.405254 
L 193.035849 488.326269 
L 188.275987 488.247285 
L 185.102745 488.286777 
L 177.169641 488.010331 
L 169.236537 487.575916 
L 166.063296 487.29947 
L 161.303433 486.983532 
L 151.783709 486.351656 
L 142.263984 485.798764 
L 140.677363 485.680287 
L 102.598465 479.124572 
L 88.318878 476.913005 
L 85.145636 476.320621 
L 58.173083 472.213426 
L 53.41322 471.463073 
L 42.306875 476.162652 
L 42.306875 476.162652 
" clip-path="url(#pf66f7c95bb)" style="fill: none; stroke: #068773; stroke-width: 4"/>
   </g>
   <g id="line2d_126">
    <path d="M 42.306875 640.924373 
L 327.898615 640.924373 
" clip-path="url(#pf66f7c95bb)" style="fill: none; stroke: #000000; stroke-opacity: 0.7; stroke-width: 2"/>
   </g>
   <g id="line2d_127">
    <path d="M 327.898615 494.881985 
L 321.552132 494.881985 
L 318.37889 495.197923 
L 300.926062 497.014567 
L 291.406337 499.068165 
L 285.059854 500.371409 
L 281.886612 499.779025 
L 277.12675 498.791719 
L 266.020405 496.659137 
L 261.260542 495.750815 
L 250.154197 493.57874 
L 215.24854 489.313576 
L 210.488677 488.760684 
L 208.902057 488.563223 
L 204.142194 488.405254 
L 193.035849 488.326269 
L 188.275987 488.247285 
L 185.102745 488.286777 
L 177.169641 488.010331 
L 169.236537 487.575916 
L 166.063296 487.29947 
L 161.303433 486.983532 
L 151.783709 486.351656 
L 142.263984 485.798764 
L 140.677363 485.680287 
L 102.598465 479.124572 
L 88.318878 476.913005 
L 85.145636 476.320621 
L 58.173083 472.213426 
L 53.41322 471.463073 
L 42.306875 476.162652 
L 42.306875 476.162652 
" clip-path="url(#pf66f7c95bb)" style="fill: none; stroke: #068773; stroke-width: 4"/>
   </g>
   <g id="line2d_128">
    <path d="M 42.306875 640.924373 
L 327.898615 640.924373 
" clip-path="url(#pf66f7c95bb)" style="fill: none; stroke: #000000; stroke-opacity: 0.7; stroke-width: 2"/>
   </g>
   <g id="text_22">
    <text style="fill: #808080; font: 700 14px 'Roboto', 'Arial', 'DejaVu Sans', sans-serif; text-anchor: middle" x="185.102745" y="359.815625" transform="rotate(-0 185.102745 359.815625)">NO</text>
   </g>
  </g>
  <g id="axes_5">
   <g id="patch_6">
    <path d="M 364.65014 654.262885 
L 650.24188 654.262885 
L 650.24188 360.815625 
L 364.65014 360.815625 
L 364.65014 654.262885 
z
" style="fill: none"/>
   </g>
   <g id="matplotlib.axis_9">
    <g id="xtick_9">
     <g id="line2d_129">
      <path d="M 364.65014 654.262885 
L 364.65014 360.815625 
" clip-path="url(#paef6d645e4)" style="fill: none; stroke-dasharray: 0.7,2.1; stroke-dashoffset: 0; stroke: #000000; stroke-opacity: 0.3; stroke-width: 0.7"/>
     </g>
     <g id="line2d_130"/>
     <g id="text_23">
      <text style="fill: #333333; font: 20px 'Roboto', 'Arial', 'DejaVu Sans', sans-serif; text-anchor: middle" x="364.65014" y="675.49726" transform="rotate(-0 364.65014 675.49726)">Jan</text>
     </g>
    </g>
    <g id="xtick_10">
     <g id="line2d_131">
      <path d="M 650.24188 654.262885 
L 650.24188 360.815625 
" clip-path="url(#paef6d645e4)" style="fill: none; stroke-dasharray: 0.7,2.1; stroke-dashoffset: 0; stroke: #000000; stroke-opacity: 0.3; stroke-width: 0.7"/>
     </g>
     <g id="line2d_132"/>
     <g id="text_24">
      <text style="fill: #333333; font: 20px 'Roboto', 'Arial', 'DejaVu Sans', sans-serif; text-anchor: middle" x="650.24188" y="675.49726" transform="rotate(-0 650.24188 675.49726)">Jul</text>
     </g>
    </g>
   </g>
   <g id="matplotlib.axis_10">
    <g id="ytick_33">
     <g id="line2d_133">
      <path d="M 364.65014 640.924373 
L 650.24188 640.924373 
" clip-path="url(#paef6d645e4)" style="fill: none; stroke-dasharray: 0.7,2.1; stroke-dashoffset: 0; stroke: #000000; stroke-opacity: 0.3; stroke-width: 0.7"/>
     </g>
    </g>
    <g id="ytick_34">
     <g id="line2d_134">
      <path d="M 364.65014 601.43211 
L 650.24188 601.43211 
" clip-path="url(#paef6d645e4)" style="fill: none; stroke-dasharray: 0.7,2.1; stroke-dashoffset: 0; stroke: #000000; stroke-opacity: 0.3; stroke-width: 0.7"/>
     </g>
    </g>
    <g id="ytick_35">
     <g id="line2d_135">
      <path d="M 364.65014 561.939847 
L 650.24188 561.939847 
" clip-path="url(#paef6d645e4)" style="fill: none; stroke-dasharray: 0.7,2.1; stroke-dashoffset: 0; stroke: #000000; stroke-opacity: 0.3; stroke-width: 0.7"/>
     </g>
    </g>
    <g id="ytick_36">
     <g id="line2d_136">
      <path d="M 364.65014 522.447584 
L 650.24188 522.447584 
" clip-path="url(#paef6d645e4)" style="fill: none; stroke-dasharray: 0.7,2.1; stroke-dashoffset: 0; stroke: #000000; stroke-opacity: 0.3; stroke-width: 0.7"/>
     </g>
    </g>
    <g id="ytick_37">
     <g id="line2d_137">
      <path d="M 364.65014 482.955321 
L 650.24188 482.955321 
" clip-path="url(#paef6d645e4)" style="fill: none; stroke-dasharray: 0.7,2.1; stroke-dashoffset: 0; stroke: #000000; stroke-opacity: 0.3; stroke-width: 0.7"/>
     </g>
    </g>
    <g id="ytick_38">
     <g id="line2d_138">
      <path d="M 364.65014 443.463058 
L 650.24188 443.463058 
" clip-path="url(#paef6d645e4)" style="fill: none; stroke-dasharray: 0.7,2.1; stroke-dashoffset: 0; stroke: #000000; stroke-opacity: 0.3; stroke-width: 0.7"/>
     </g>
    </g>
    <g id="ytick_39">
     <g id="line2d_139">
      <path d="M 364.65014 403.970795 
L 650.24188 403.970795 
" clip-path="url(#paef6d645e4)" style="fill: none; stroke-dasharray: 0.7,2.1; stroke-dashoffset: 0; stroke: #000000; stroke-opacity: 0.3; stroke-width: 0.7"/>
     </g>
    </g>
    <g id="ytick_40">
     <g id="line2d_140">
      <path d="M 364.65014 364.478532 
L 650.24188 364.478532 
" clip-path="url(#paef6d645e4)" style="fill: none; stroke-dasharray: 0.7,2.1; stroke-dashoffset: 0; stroke: #000000; stroke-opacity: 0.3; stroke-width: 0.7"/>
     </g>
    </g>
   </g>
   <g id="line2d_141">
    <path d="M 364.65014 654.262885 
L 364.65014 360.815625 
" clip-path="url(#paef6d645e4)" style="fill: none; stroke: #000000; stroke-opacity: 0.7; stroke-width: 3"/>
   </g>
   <g id="line2d_142">
    <path d="M 364.65014 654.262885 
L 364.65014 360.815625 
" clip-path="url(#paef6d645e4)" style="fill: none; stroke: #000000; stroke-opacity: 0.7; stroke-width: 3"/>
   </g>
   <g id="line2d_143">
    <path d="M 364.65014 654.262885 
L 364.65014 360.815625 
" clip-path="url(#paef6d645e4)" style="fill: none; stroke: #000000; stroke-opacity: 0.7; stroke-width: 3"/>
   </g>
   <g id="line2d_144">
    <path d="M 364.65014 654.262885 
L 364.65014 360.815625 
" clip-path="url(#paef6d645e4)" style="fill: none; stroke: #000000; stroke-opacity: 0.7; stroke-width: 3"/>
   </g>
   <g id="line2d_145">
    <path d="M 650.24188 524.46169 
L 647.068638 524.422197 
L 643.895397 524.422197 
L 634.375672 523.750829 
L 631.202431 523.59286 
L 626.442568 523.276922 
L 623.269327 523.000476 
L 607.403119 522.645046 
L 604.229877 523.276922 
L 594.710153 525.251535 
L 588.36367 526.594272 
L 582.017187 527.937009 
L 577.257324 528.924315 
L 561.391116 532.004712 
L 556.631254 532.913034 
L 545.524909 535.045616 
L 542.351667 535.598508 
L 536.005184 536.783276 
L 531.245322 537.691598 
L 528.07208 538.165505 
L 521.725597 538.402459 
L 502.686148 539.310781 
L 499.512906 539.310781 
L 488.406561 539.231796 
L 482.060078 539.152812 
L 478.886836 539.152812 
L 463.020628 539.073827 
L 458.260766 539.587226 
L 453.500904 540.140118 
L 443.981179 541.245901 
L 437.634696 541.956762 
L 426.52835 543.417976 
L 418.595246 544.760713 
L 415.422005 545.23462 
L 409.075522 546.261419 
L 396.382556 548.394001 
L 386.862831 549.894707 
L 378.929727 551.197952 
L 375.756485 551.711351 
L 370.996623 550.724045 
L 364.65014 549.4208 
L 364.65014 549.4208 
" clip-path="url(#paef6d645e4)" style="fill: none; stroke: #888d8f; stroke-width: 4"/>
   </g>
   <g id="line2d_146">
    <path d="M 650.24188 510.32346 
L 648.655259 510.244475 
L 621.682706 510.836859 
L 604.229877 509.612599 
L 572.497462 507.993416 
L 566.150979 507.440524 
L 548.69815 506.058295 
L 540.765046 505.347434 
L 531.245322 504.597081 
L 528.07208 504.241651 
L 518.552355 506.058295 
L 512.205872 507.243063 
L 504.272768 508.743769 
L 502.686148 509.020215 
L 496.339665 510.836859 
L 491.579802 512.100611 
L 477.300215 516.08933 
L 472.540353 517.432067 
L 463.020628 520.117541 
L 443.981179 527.344625 
L 436.048075 530.385529 
L 429.701592 532.834049 
L 423.355109 533.228972 
L 420.181867 533.465926 
L 417.008626 533.702879 
L 405.90228 534.453232 
L 399.555797 534.848155 
L 394.795935 535.243077 
L 382.102969 536.111907 
L 375.756485 536.50683 
L 366.236761 535.874954 
L 364.65014 535.795969 
L 364.65014 535.795969 
" clip-path="url(#paef6d645e4)" style="fill: none; stroke: #f5700a; stroke-width: 4"/>
   </g>
   <g id="line2d_147">
    <path d="M 650.24188 524.46169 
L 647.068638 524.422197 
L 643.895397 524.422197 
L 634.375672 523.750829 
L 631.202431 523.59286 
L 626.442568 523.276922 
L 623.269327 523.000476 
L 607.403119 522.645046 
L 604.229877 523.276922 
L 594.710153 525.251535 
L 588.36367 526.594272 
L 582.017187 527.937009 
L 577.257324 528.924315 
L 561.391116 532.004712 
L 556.631254 532.913034 
L 545.524909 535.045616 
L 542.351667 535.598508 
L 536.005184 536.783276 
L 531.245322 537.691598 
L 528.07208 538.165505 
L 521.725597 538.402459 
L 502.686148 539.310781 
L 499.512906 539.310781 
L 488.406561 539.231796 
L 482.060078 539.152812 
L 478.886836 539.152812 
L 463.020628 539.073827 
L 458.260766 539.587226 
L 453.500904 540.140118 
L 443.981179 541.245901 
L 437.634696 541.956762 
L 426.52835 543.417976 
L 418.595246 544.760713 
L 415.422005 545.23462 
L 409.075522 546.261419 
L 396.382556 548.394001 
L 386.862831 549.894707 
L 378.929727 551.197952 
L 375.756485 551.711351 
L 370.996623 550.724045 
L 364.65014 549.4208 
L 364.65014 549.4208 
" clip-path="url(#paef6d645e4)" style="fill: none; stroke: #888d8f; stroke-width: 4"/>
   </g>
   <g id="line2d_148">
    <path d="M 650.24188 510.32346 
L 648.655259 510.244475 
L 621.682706 510.836859 
L 604.229877 509.612599 
L 572.497462 507.993416 
L 566.150979 507.440524 
L 548.69815 506.058295 
L 540.765046 505.347434 
L 531.245322 504.597081 
L 528.07208 504.241651 
L 518.552355 506.058295 
L 512.205872 507.243063 
L 504.272768 508.743769 
L 502.686148 509.020215 
L 496.339665 510.836859 
L 491.579802 512.100611 
L 477.300215 516.08933 
L 472.540353 517.432067 
L 463.020628 520.117541 
L 443.981179 527.344625 
L 436.048075 530.385529 
L 429.701592 532.834049 
L 423.355109 533.228972 
L 420.181867 533.465926 
L 417.008626 533.702879 
L 405.90228 534.453232 
L 399.555797 534.848155 
L 394.795935 535.243077 
L 382.102969 536.111907 
L 375.756485 536.50683 
L 366.236761 535.874954 
L 364.65014 535.795969 
L 364.65014 535.795969 
" clip-path="url(#paef6d645e4)" style="fill: none; stroke: #f5700a; stroke-width: 4"/>
   </g>
   <g id="line2d_149">
    <path d="M 650.24188 524.46169 
L 647.068638 524.422197 
L 643.895397 524.422197 
L 634.375672 523.750829 
L 631.202431 523.59286 
L 626.442568 523.276922 
L 623.269327 523.000476 
L 607.403119 522.645046 
L 604.229877 523.276922 
L 594.710153 525.251535 
L 588.36367 526.594272 
L 582.017187 527.937009 
L 577.257324 528.924315 
L 561.391116 532.004712 
L 556.631254 532.913034 
L 545.524909 535.045616 
L 542.351667 535.598508 
L 536.005184 536.783276 
L 531.245322 537.691598 
L 528.07208 538.165505 
L 521.725597 538.402459 
L 502.686148 539.310781 
L 499.512906 539.310781 
L 488.406561 539.231796 
L 482.060078 539.152812 
L 478.886836 539.152812 
L 463.020628 539.073827 
L 458.260766 539.587226 
L 453.500904 540.140118 
L 443.981179 541.245901 
L 437.634696 541.956762 
L 426.52835 543.417976 
L 418.595246 544.760713 
L 415.422005 545.23462 
L 409.075522 546.261419 
L 396.382556 548.394001 
L 386.862831 549.894707 
L 378.929727 551.197952 
L 375.756485 551.711351 
L 370.996623 550.724045 
L 364.65014 549.4208 
L 364.65014 549.4208 
" clip-path="url(#paef6d645e4)" style="fill: none; stroke: #888d8f; stroke-width: 4"/>
   </g>
   <g id="line2d_150">
    <path d="M 650.24188 510.32346 
L 648.655259 510.244475 
L 621.682706 510.836859 
L 604.229877 509.612599 
L 572.497462 507.993416 
L 566.150979 507.440524 
L 548.69815 506.058295 
L 540.765046 505.347434 
L 531.245322 504.597081 
L 528.07208 504.241651 
L 518.552355 506.058295 
L 512.205872 507.243063 
L 504.272768 508.743769 
L 502.686148 509.020215 
L 496.339665 510.836859 
L 491.579802 512.100611 
L 477.300215 516.08933 
L 472.540353 517.432067 
L 463.020628 520.117541 
L 443.981179 527.344625 
L 436.048075 530.385529 
L 429.701592 532.834049 
L 423.355109 533.228972 
L 420.181867 533.465926 
L 417.008626 533.702879 
L 405.90228 534.453232 
L 399.555797 534.848155 
L 394.795935 535.243077 
L 382.102969 536.111907 
L 375.756485 536.50683 
L 366.236761 535.874954 
L 364.65014 535.795969 
L 364.65014 535.795969 
" clip-path="url(#paef6d645e4)" style="fill: none; stroke: #f5700a; stroke-width: 4"/>
   </g>
   <g id="line2d_151">
    <path d="M 650.24188 524.46169 
L 647.068638 524.422197 
L 643.895397 524.422197 
L 634.375672 523.750829 
L 631.202431 523.59286 
L 626.442568 523.276922 
L 623.269327 523.000476 
L 607.403119 522.645046 
L 604.229877 523.276922 
L 594.710153 525.251535 
L 588.36367 526.594272 
L 582.017187 527.937009 
L 577.257324 528.924315 
L 561.391116 532.004712 
L 556.631254 532.913034 
L 545.524909 535.045616 
L 542.351667 535.598508 
L 536.005184 536.783276 
L 531.245322 537.691598 
L 528.07208 538.165505 
L 521.725597 538.402459 
L 502.686148 539.310781 
L 499.512906 539.310781 
L 488.406561 539.231796 
L 482.060078 539.152812 
L 478.886836 539.152812 
L 463.020628 539.073827 
L 458.260766 539.587226 
L 453.500904 540.140118 
L 443.981179 541.245901 
L 437.634696 541.956762 
L 426.52835 543.417976 
L 418.595246 544.760713 
L 415.422005 545.23462 
L 409.075522 546.261419 
L 396.382556 548.394001 
L 386.862831 549.894707 
L 378.929727 551.197952 
L 375.756485 551.711351 
L 370.996623 550.724045 
L 364.65014 549.4208 
L 364.65014 549.4208 
" clip-path="url(#paef6d645e4)" style="fill: none; stroke: #888d8f; stroke-width: 4"/>
   </g>
   <g id="line2d_152">
    <path d="M 650.24188 510.32346 
L 648.655259 510.244475 
L 621.682706 510.836859 
L 604.229877 509.612599 
L 572.497462 507.993416 
L 566.150979 507.440524 
L 548.69815 506.058295 
L 540.765046 505.347434 
L 531.245322 504.597081 
L 528.07208 504.241651 
L 518.552355 506.058295 
L 512.205872 507.243063 
L 504.272768 508.743769 
L 502.686148 509.020215 
L 496.339665 510.836859 
L 491.579802 512.100611 
L 477.300215 516.08933 
L 472.540353 517.432067 
L 463.020628 520.117541 
L 443.981179 527.344625 
L 436.048075 530.385529 
L 429.701592 532.834049 
L 423.355109 533.228972 
L 420.181867 533.465926 
L 417.008626 533.702879 
L 405.90228 534.453232 
L 399.555797 534.848155 
L 394.795935 535.243077 
L 382.102969 536.111907 
L 375.756485 536.50683 
L 366.236761 535.874954 
L 364.65014 535.795969 
L 364.65014 535.795969 
" clip-path="url(#paef6d645e4)" style="fill: none; stroke: #f5700a; stroke-width: 4"/>
   </g>
   <g id="line2d_153">
    <path d="M 650.24188 509.612599 
L 643.895397 509.652091 
L 623.269327 510.67889 
L 607.403119 513.482841 
L 594.710153 510.402444 
L 589.95029 509.257168 
L 577.257324 506.176772 
L 569.32422 504.478605 
L 562.977737 503.293837 
L 555.044633 501.753638 
L 550.284771 500.963793 
L 540.765046 499.147149 
L 532.831942 497.685935 
L 531.245322 497.369997 
L 528.07208 496.975075 
L 515.379114 498.475781 
L 509.032631 499.186641 
L 502.686148 499.936994 
L 496.339665 500.015979 
L 491.579802 500.173948 
L 482.060078 500.331917 
L 477.300215 500.410902 
L 463.020628 500.687347 
L 456.674145 500.292425 
L 450.327662 499.897502 
L 429.701592 498.870703 
L 424.94173 497.606951 
L 399.555797 490.735297 
L 396.382556 489.90596 
L 391.622693 488.52373 
L 385.27621 486.865055 
L 375.756485 484.219074 
L 364.65014 487.29947 
L 364.65014 487.29947 
" clip-path="url(#paef6d645e4)" style="fill: none; stroke: #068773; stroke-width: 4"/>
   </g>
   <g id="line2d_154">
    <path d="M 364.65014 640.924373 
L 650.24188 640.924373 
" clip-path="url(#paef6d645e4)" style="fill: none; stroke: #000000; stroke-opacity: 0.7; stroke-width: 2"/>
   </g>
   <g id="line2d_155">
    <path d="M 650.24188 509.612599 
L 643.895397 509.652091 
L 623.269327 510.67889 
L 607.403119 513.482841 
L 594.710153 510.402444 
L 589.95029 509.257168 
L 577.257324 506.176772 
L 569.32422 504.478605 
L 562.977737 503.293837 
L 555.044633 501.753638 
L 550.284771 500.963793 
L 540.765046 499.147149 
L 532.831942 497.685935 
L 531.245322 497.369997 
L 528.07208 496.975075 
L 515.379114 498.475781 
L 509.032631 499.186641 
L 502.686148 499.936994 
L 496.339665 500.015979 
L 491.579802 500.173948 
L 482.060078 500.331917 
L 477.300215 500.410902 
L 463.020628 500.687347 
L 456.674145 500.292425 
L 450.327662 499.897502 
L 429.701592 498.870703 
L 424.94173 497.606951 
L 399.555797 490.735297 
L 396.382556 489.90596 
L 391.622693 488.52373 
L 385.27621 486.865055 
L 375.756485 484.219074 
L 364.65014 487.29947 
L 364.65014 487.29947 
" clip-path="url(#paef6d645e4)" style="fill: none; stroke: #068773; stroke-width: 4"/>
   </g>
   <g id="line2d_156">
    <path d="M 364.65014 640.924373 
L 650.24188 640.924373 
" clip-path="url(#paef6d645e4)" style="fill: none; stroke: #000000; stroke-opacity: 0.7; stroke-width: 2"/>
   </g>
   <g id="line2d_157">
    <path d="M 650.24188 509.612599 
L 643.895397 509.652091 
L 623.269327 510.67889 
L 607.403119 513.482841 
L 594.710153 510.402444 
L 589.95029 509.257168 
L 577.257324 506.176772 
L 569.32422 504.478605 
L 562.977737 503.293837 
L 555.044633 501.753638 
L 550.284771 500.963793 
L 540.765046 499.147149 
L 532.831942 497.685935 
L 531.245322 497.369997 
L 528.07208 496.975075 
L 515.379114 498.475781 
L 509.032631 499.186641 
L 502.686148 499.936994 
L 496.339665 500.015979 
L 491.579802 500.173948 
L 482.060078 500.331917 
L 477.300215 500.410902 
L 463.020628 500.687347 
L 456.674145 500.292425 
L 450.327662 499.897502 
L 429.701592 498.870703 
L 424.94173 497.606951 
L 399.555797 490.735297 
L 396.382556 489.90596 
L 391.622693 488.52373 
L 385.27621 486.865055 
L 375.756485 484.219074 
L 364.65014 487.29947 
L 364.65014 487.29947 
" clip-path="url(#paef6d645e4)" style="fill: none; stroke: #068773; stroke-width: 4"/>
   </g>
   <g id="line2d_158">
    <path d="M 364.65014 640.924373 
L 650.24188 640.924373 
" clip-path="url(#paef6d645e4)" style="fill: none; stroke: #000000; stroke-opacity: 0.7; stroke-width: 2"/>
   </g>
   <g id="line2d_159">
    <path d="M 650.24188 509.612599 
L 643.895397 509.652091 
L 623.269327 510.67889 
L 607.403119 513.482841 
L 594.710153 510.402444 
L 589.95029 509.257168 
L 577.257324 506.176772 
L 569.32422 504.478605 
L 562.977737 503.293837 
L 555.044633 501.753638 
L 550.284771 500.963793 
L 540.765046 499.147149 
L 532.831942 497.685935 
L 531.245322 497.369997 
L 528.07208 496.975075 
L 515.379114 498.475781 
L 509.032631 499.186641 
L 502.686148 499.936994 
L 496.339665 500.015979 
L 491.579802 500.173948 
L 482.060078 500.331917 
L 477.300215 500.410902 
L 463.020628 500.687347 
L 456.674145 500.292425 
L 450.327662 499.897502 
L 429.701592 498.870703 
L 424.94173 497.606951 
L 399.555797 490.735297 
L 396.382556 489.90596 
L 391.622693 488.52373 
L 385.27621 486.865055 
L 375.756485 484.219074 
L 364.65014 487.29947 
L 364.65014 487.29947 
" clip-path="url(#paef6d645e4)" style="fill: none; stroke: #068773; stroke-width: 4"/>
   </g>
   <g id="line2d_160">
    <path d="M 364.65014 640.924373 
L 650.24188 640.924373 
" clip-path="url(#paef6d645e4)" style="fill: none; stroke: #000000; stroke-opacity: 0.7; stroke-width: 2"/>
   </g>
   <g id="text_25">
    <text style="fill: #808080; font: 700 14px 'Roboto', 'Arial', 'DejaVu Sans', sans-serif; text-anchor: middle" x="507.44601" y="359.815625" transform="rotate(-0 507.44601 359.815625)">CO</text>
   </g>
  </g>
  <g id="text_26">
   <text style="fill: #222222; font: 700 24px 'Roboto', 'Arial', 'DejaVu Sans', sans-serif" transform="translate(4.96701 20.6625)">Avaliao de governo por macrorregio</text>
   <text style="fill: #222222; font: 700 24px 'Roboto', 'Arial', 'DejaVu Sans', sans-serif" transform="translate(215.10576 48)"/>
  </g>
 </g>
 <defs>
  <clipPath id="p4d5ece0ba4">
   <rect x="42.306875" y="49.224302" width="285.59174" height="293.44726"/>
  </clipPath>
  <clipPath id="p770bdaa255">
   <rect x="364.65014" y="49.224302" width="285.59174" height="293.44726"/>
  </clipPath>
  <clipPath id="p8f19a1a93c">
   <rect x="670.32778" y="49.224302" width="285.59174" height="293.44726"/>
  </clipPath>
  <clipPath id="pf66f7c95bb">
   <rect x="42.306875" y="360.815625" width="285.59174" height="293.44726"/>
  </clipPath>
  <clipPath id="paef6d645e4">
   <rect x="364.65014" y="360.815625" width="285.59174" height="293.44726"/>
  </clipPath>
 </defs>
</svg>
