<?xml version="1.0" encoding="utf-8" standalone="no"?>
<!DOCTYPE svg PUBLIC "-//W3C//DTD SVG 1.1//EN"
  "http://www.w3.org/Graphics/SVG/1.1/DTD/svg11.dtd">
<svg xmlns:xlink="http://www.w3.org/1999/xlink" width="958.07952pt" height="357.71976pt" viewBox="0 0 958.07952 357.71976" xmlns="http://www.w3.org/2000/svg" version="1.1">
 <metadata>
  <rdf:RDF xmlns:dc="http://purl.org/dc/elements/1.1/" xmlns:cc="http://creativecommons.org/ns#" xmlns:rdf="http://www.w3.org/1999/02/22-rdf-syntax-ns#">
   <cc:Work>
    <dc:type rdf:resource="http://purl.org/dc/dcmitype/StillImage"/>
    <dc:date>2023-07-03T11:40:56.138578</dc:date>
    <dc:format>image/svg+xml</dc:format>
    <dc:creator>
     <cc:Agent>
      <dc:title>Matplotlib v3.7.1, https://matplotlib.org/</dc:title>
     </cc:Agent>
    </dc:creator>
   </cc:Work>
  </rdf:RDF>
 </metadata>
 <defs>
  <style type="text/css">*{stroke-linejoin: round; stroke-linecap: butt}</style>
 </defs>
 <g id="figure_1">
  <g id="patch_1">
   <path d="M 0 357.71976 
L 958.07952 357.71976 
L 958.07952 0 
L 0 0 
L 0 357.71976 
z
" style="fill: none"/>
  </g>
  <g id="axes_1">
   <g id="patch_2">
    <path d="M 42.306875 330.262885 
L 317.780907 330.262885 
L 317.780907 52.033843 
L 42.306875 52.033843 
L 42.306875 330.262885 
z
" style="fill: none"/>
   </g>
   <g id="matplotlib.axis_1">
    <g id="xtick_1">
     <g id="line2d_1">
      <path d="M 42.306875 330.262885 
L 42.306875 52.033843 
" clip-path="url(#pa317cada8b)" style="fill: none; stroke-dasharray: 0.7,2.1; stroke-dashoffset: 0; stroke: #000000; stroke-opacity: 0.3; stroke-width: 0.7"/>
     </g>
     <g id="line2d_2"/>
     <g id="text_1">
      <text style="fill: #333333; font: 20px 'Roboto', 'Arial', 'DejaVu Sans', sans-serif; text-anchor: middle" x="42.306875" y="351.49726" transform="rotate(-0 42.306875 351.49726)">Jan</text>
     </g>
    </g>
    <g id="xtick_2">
     <g id="line2d_3">
      <path d="M 317.780907 330.262885 
L 317.780907 52.033843 
" clip-path="url(#pa317cada8b)" style="fill: none; stroke-dasharray: 0.7,2.1; stroke-dashoffset: 0; stroke: #000000; stroke-opacity: 0.3; stroke-width: 0.7"/>
     </g>
     <g id="line2d_4"/>
     <g id="text_2">
      <text style="fill: #333333; font: 20px 'Roboto', 'Arial', 'DejaVu Sans', sans-serif; text-anchor: middle" x="317.780907" y="351.49726" transform="rotate(-0 317.780907 351.49726)">Jul</text>
     </g>
    </g>
   </g>
   <g id="matplotlib.axis_2">
    <g id="ytick_1">
     <g id="line2d_5">
      <path d="M 42.306875 319.905807 
L 317.780907 319.905807 
" clip-path="url(#pa317cada8b)" style="fill: none; stroke-dasharray: 0.7,2.1; stroke-dashoffset: 0; stroke: #000000; stroke-opacity: 0.3; stroke-width: 0.7"/>
     </g>
     <g id="text_3">
      <text style="fill: #333333; font: 20px 'Roboto', 'Arial', 'DejaVu Sans', sans-serif; text-anchor: end" x="39.306875" y="325.491744" transform="rotate(-0 39.306875 325.491744)">0  </text>
     </g>
    </g>
    <g id="ytick_2">
     <g id="line2d_6">
      <path d="M 42.306875 281.638383 
L 317.780907 281.638383 
" clip-path="url(#pa317cada8b)" style="fill: none; stroke-dasharray: 0.7,2.1; stroke-dashoffset: 0; stroke: #000000; stroke-opacity: 0.3; stroke-width: 0.7"/>
     </g>
     <g id="text_4">
      <text style="fill: #333333; font: 20px 'Roboto', 'Arial', 'DejaVu Sans', sans-serif; text-anchor: end" x="39.306875" y="287.224321" transform="rotate(-0 39.306875 287.224321)">10  </text>
     </g>
    </g>
    <g id="ytick_3">
     <g id="line2d_7">
      <path d="M 42.306875 243.37096 
L 317.780907 243.37096 
" clip-path="url(#pa317cada8b)" style="fill: none; stroke-dasharray: 0.7,2.1; stroke-dashoffset: 0; stroke: #000000; stroke-opacity: 0.3; stroke-width: 0.7"/>
     </g>
     <g id="text_5">
      <text style="fill: #333333; font: 20px 'Roboto', 'Arial', 'DejaVu Sans', sans-serif; text-anchor: end" x="39.306875" y="248.956897" transform="rotate(-0 39.306875 248.956897)">20  </text>
     </g>
    </g>
    <g id="ytick_4">
     <g id="line2d_8">
      <path d="M 42.306875 205.103536 
L 317.780907 205.103536 
" clip-path="url(#pa317cada8b)" style="fill: none; stroke-dasharray: 0.7,2.1; stroke-dashoffset: 0; stroke: #000000; stroke-opacity: 0.3; stroke-width: 0.7"/>
     </g>
     <g id="text_6">
      <text style="fill: #333333; font: 20px 'Roboto', 'Arial', 'DejaVu Sans', sans-serif; text-anchor: end" x="39.306875" y="210.689474" transform="rotate(-0 39.306875 210.689474)">30  </text>
     </g>
    </g>
    <g id="ytick_5">
     <g id="line2d_9">
      <path d="M 42.306875 166.836113 
L 317.780907 166.836113 
" clip-path="url(#pa317cada8b)" style="fill: none; stroke-dasharray: 0.7,2.1; stroke-dashoffset: 0; stroke: #000000; stroke-opacity: 0.3; stroke-width: 0.7"/>
     </g>
     <g id="text_7">
      <text style="fill: #333333; font: 20px 'Roboto', 'Arial', 'DejaVu Sans', sans-serif; text-anchor: end" x="39.306875" y="172.42205" transform="rotate(-0 39.306875 172.42205)">40  </text>
     </g>
    </g>
    <g id="ytick_6">
     <g id="line2d_10">
      <path d="M 42.306875 128.56869 
L 317.780907 128.56869 
" clip-path="url(#pa317cada8b)" style="fill: none; stroke-dasharray: 0.7,2.1; stroke-dashoffset: 0; stroke: #000000; stroke-opacity: 0.3; stroke-width: 0.7"/>
     </g>
     <g id="text_8">
      <text style="fill: #333333; font: 20px 'Roboto', 'Arial', 'DejaVu Sans', sans-serif; text-anchor: end" x="39.306875" y="134.154627" transform="rotate(-0 39.306875 134.154627)">50  </text>
     </g>
    </g>
    <g id="ytick_7">
     <g id="line2d_11">
      <path d="M 42.306875 90.301266 
L 317.780907 90.301266 
" clip-path="url(#pa317cada8b)" style="fill: none; stroke-dasharray: 0.7,2.1; stroke-dashoffset: 0; stroke: #000000; stroke-opacity: 0.3; stroke-width: 0.7"/>
     </g>
     <g id="text_9">
      <text style="fill: #333333; font: 20px 'Roboto', 'Arial', 'DejaVu Sans', sans-serif; text-anchor: end" x="39.306875" y="95.887204" transform="rotate(-0 39.306875 95.887204)">60  </text>
     </g>
    </g>
    <g id="ytick_8">
     <g id="line2d_12">
      <path d="M 42.306875 52.033843 
L 317.780907 52.033843 
" clip-path="url(#pa317cada8b)" style="fill: none; stroke-dasharray: 0.7,2.1; stroke-dashoffset: 0; stroke: #000000; stroke-opacity: 0.3; stroke-width: 0.7"/>
     </g>
     <g id="text_10">
      <text style="fill: #333333; font: 20px 'Roboto', 'Arial', 'DejaVu Sans', sans-serif; text-anchor: end" x="39.306875" y="57.61978" transform="rotate(-0 39.306875 57.61978)">70%</text>
     </g>
    </g>
   </g>
   <g id="line2d_13">
    <path d="M 42.306875 330.262885 
L 42.306875 52.033843 
" clip-path="url(#pa317cada8b)" style="fill: none; stroke: #000000; stroke-opacity: 0.7; stroke-width: 3"/>
   </g>
   <g id="line2d_14">
    <path d="M 42.306875 330.262885 
L 42.306875 52.033843 
" clip-path="url(#pa317cada8b)" style="fill: none; stroke: #000000; stroke-opacity: 0.7; stroke-width: 3"/>
   </g>
   <g id="line2d_15">
    <path d="M 42.306875 330.262885 
L 42.306875 52.033843 
" clip-path="url(#pa317cada8b)" style="fill: none; stroke: #000000; stroke-opacity: 0.7; stroke-width: 3"/>
   </g>
   <g id="line2d_16">
    <path d="M 42.306875 330.262885 
L 42.306875 52.033843 
" clip-path="url(#pa317cada8b)" style="fill: none; stroke: #000000; stroke-opacity: 0.7; stroke-width: 3"/>
   </g>
   <g id="line2d_17">
    <path d="M 317.780907 206.672501 
L 300.946383 206.175024 
L 291.763915 205.79235 
L 284.111858 205.524478 
L 279.520624 205.371408 
L 276.459802 205.256606 
L 267.277334 206.098489 
L 259.625278 206.749036 
L 241.260342 208.509337 
L 238.19952 208.738942 
L 195.348004 211.915138 
L 190.75677 212.106475 
L 149.435665 214.096381 
L 141.783609 214.364253 
L 137.192375 214.593857 
L 106.584149 225.423538 
L 98.932093 228.178793 
L 83.62798 233.038756 
L 75.975923 235.449603 
L 53.019754 242.873483 
L 48.42852 242.222937 
L 42.306875 241.381054 
L 42.306875 241.381054 
" clip-path="url(#pa317cada8b)" style="fill: none; stroke: #888d8f; stroke-width: 4"/>
   </g>
   <g id="line2d_18">
    <path d="M 317.780907 230.474838 
L 311.659262 230.513106 
L 297.88556 231.278454 
L 293.294326 231.546326 
L 291.763915 231.622861 
L 284.111858 231.508059 
L 279.520624 231.546326 
L 276.459802 231.508059 
L 271.868568 231.240187 
L 258.094866 230.474838 
L 251.973221 230.092164 
L 221.364996 228.638002 
L 212.182528 228.331862 
L 204.530471 228.025723 
L 201.469649 227.872653 
L 199.939238 227.719584 
L 173.922246 231.661128 
L 129.540318 240.615705 
L 121.888262 242.261205 
L 109.644972 244.786855 
L 105.053738 245.74354 
L 98.932093 245.973145 
L 91.280036 246.470621 
L 69.854278 247.618644 
L 66.793456 247.809981 
L 63.732633 247.963051 
L 57.610988 248.345725 
L 51.489343 248.690132 
L 42.306875 249.799887 
L 42.306875 249.799887 
" clip-path="url(#pa317cada8b)" style="fill: none; stroke: #f5700a; stroke-width: 4"/>
   </g>
   <g id="line2d_19">
    <path d="M 317.780907 206.672501 
L 300.946383 206.175024 
L 291.763915 205.79235 
L 284.111858 205.524478 
L 279.520624 205.371408 
L 276.459802 205.256606 
L 267.277334 206.098489 
L 259.625278 206.749036 
L 241.260342 208.509337 
L 238.19952 208.738942 
L 195.348004 211.915138 
L 190.75677 212.106475 
L 149.435665 214.096381 
L 141.783609 214.364253 
L 137.192375 214.593857 
L 106.584149 225.423538 
L 98.932093 228.178793 
L 83.62798 233.038756 
L 75.975923 235.449603 
L 53.019754 242.873483 
L 48.42852 242.222937 
L 42.306875 241.381054 
L 42.306875 241.381054 
" clip-path="url(#pa317cada8b)" style="fill: none; stroke: #888d8f; stroke-width: 4"/>
   </g>
   <g id="line2d_20">
    <path d="M 317.780907 230.474838 
L 311.659262 230.513106 
L 297.88556 231.278454 
L 293.294326 231.546326 
L 291.763915 231.622861 
L 284.111858 231.508059 
L 279.520624 231.546326 
L 276.459802 231.508059 
L 271.868568 231.240187 
L 258.094866 230.474838 
L 251.973221 230.092164 
L 221.364996 228.638002 
L 212.182528 228.331862 
L 204.530471 228.025723 
L 201.469649 227.872653 
L 199.939238 227.719584 
L 173.922246 231.661128 
L 129.540318 240.615705 
L 121.888262 242.261205 
L 109.644972 244.786855 
L 105.053738 245.74354 
L 98.932093 245.973145 
L 91.280036 246.470621 
L 69.854278 247.618644 
L 66.793456 247.809981 
L 63.732633 247.963051 
L 57.610988 248.345725 
L 51.489343 248.690132 
L 42.306875 249.799887 
L 42.306875 249.799887 
" clip-path="url(#pa317cada8b)" style="fill: none; stroke: #f5700a; stroke-width: 4"/>
   </g>
   <g id="line2d_21">
    <path d="M 317.780907 206.672501 
L 300.946383 206.175024 
L 291.763915 205.79235 
L 284.111858 205.524478 
L 279.520624 205.371408 
L 276.459802 205.256606 
L 267.277334 206.098489 
L 259.625278 206.749036 
L 241.260342 208.509337 
L 238.19952 208.738942 
L 195.348004 211.915138 
L 190.75677 212.106475 
L 149.435665 214.096381 
L 141.783609 214.364253 
L 137.192375 214.593857 
L 106.584149 225.423538 
L 98.932093 228.178793 
L 83.62798 233.038756 
L 75.975923 235.449603 
L 53.019754 242.873483 
L 48.42852 242.222937 
L 42.306875 241.381054 
L 42.306875 241.381054 
" clip-path="url(#pa317cada8b)" style="fill: none; stroke: #888d8f; stroke-width: 4"/>
   </g>
   <g id="line2d_22">
    <path d="M 317.780907 230.474838 
L 311.659262 230.513106 
L 297.88556 231.278454 
L 293.294326 231.546326 
L 291.763915 231.622861 
L 284.111858 231.508059 
L 279.520624 231.546326 
L 276.459802 231.508059 
L 271.868568 231.240187 
L 258.094866 230.474838 
L 251.973221 230.092164 
L 221.364996 228.638002 
L 212.182528 228.331862 
L 204.530471 228.025723 
L 201.469649 227.872653 
L 199.939238 227.719584 
L 173.922246 231.661128 
L 129.540318 240.615705 
L 121.888262 242.261205 
L 109.644972 244.786855 
L 105.053738 245.74354 
L 98.932093 245.973145 
L 91.280036 246.470621 
L 69.854278 247.618644 
L 66.793456 247.809981 
L 63.732633 247.963051 
L 57.610988 248.345725 
L 51.489343 248.690132 
L 42.306875 249.799887 
L 42.306875 249.799887 
" clip-path="url(#pa317cada8b)" style="fill: none; stroke: #f5700a; stroke-width: 4"/>
   </g>
   <g id="line2d_23">
    <path d="M 317.780907 206.672501 
L 300.946383 206.175024 
L 291.763915 205.79235 
L 284.111858 205.524478 
L 279.520624 205.371408 
L 276.459802 205.256606 
L 267.277334 206.098489 
L 259.625278 206.749036 
L 241.260342 208.509337 
L 238.19952 208.738942 
L 195.348004 211.915138 
L 190.75677 212.106475 
L 149.435665 214.096381 
L 141.783609 214.364253 
L 137.192375 214.593857 
L 106.584149 225.423538 
L 98.932093 228.178793 
L 83.62798 233.038756 
L 75.975923 235.449603 
L 53.019754 242.873483 
L 48.42852 242.222937 
L 42.306875 241.381054 
L 42.306875 241.381054 
" clip-path="url(#pa317cada8b)" style="fill: none; stroke: #888d8f; stroke-width: 4"/>
   </g>
   <g id="line2d_24">
    <path d="M 317.780907 230.474838 
L 311.659262 230.513106 
L 297.88556 231.278454 
L 293.294326 231.546326 
L 291.763915 231.622861 
L 284.111858 231.508059 
L 279.520624 231.546326 
L 276.459802 231.508059 
L 271.868568 231.240187 
L 258.094866 230.474838 
L 251.973221 230.092164 
L 221.364996 228.638002 
L 212.182528 228.331862 
L 204.530471 228.025723 
L 201.469649 227.872653 
L 199.939238 227.719584 
L 173.922246 231.661128 
L 129.540318 240.615705 
L 121.888262 242.261205 
L 109.644972 244.786855 
L 105.053738 245.74354 
L 98.932093 245.973145 
L 91.280036 246.470621 
L 69.854278 247.618644 
L 66.793456 247.809981 
L 63.732633 247.963051 
L 57.610988 248.345725 
L 51.489343 248.690132 
L 42.306875 249.799887 
L 42.306875 249.799887 
" clip-path="url(#pa317cada8b)" style="fill: none; stroke: #f5700a; stroke-width: 4"/>
   </g>
   <g id="line2d_25">
    <path d="M 317.780907 163.353777 
L 314.720084 163.353777 
L 311.659262 163.353777 
L 308.598439 163.545115 
L 296.355149 163.927789 
L 293.294326 164.080858 
L 291.763915 164.119126 
L 281.051036 165.535021 
L 276.459802 166.147299 
L 242.790754 160.292384 
L 221.364996 157.690199 
L 216.773762 157.192722 
L 212.182528 156.580443 
L 201.469649 155.164549 
L 199.939238 154.820142 
L 187.695947 153.672119 
L 183.104713 153.251178 
L 173.922246 152.256225 
L 167.800601 151.414341 
L 154.026899 149.615772 
L 141.783609 147.855471 
L 137.192375 147.243192 
L 132.601141 145.176751 
L 126.479496 142.612834 
L 105.053738 133.390385 
L 101.992915 131.744886 
L 92.810447 128.186015 
L 83.62798 124.627145 
L 71.384689 119.843717 
L 60.67181 115.710835 
L 53.019754 112.764244 
L 42.306875 115.6343 
L 42.306875 115.6343 
" clip-path="url(#pa317cada8b)" style="fill: none; stroke: #068773; stroke-width: 4"/>
   </g>
   <g id="line2d_26">
    <path d="M 42.306875 319.905807 
L 317.780907 319.905807 
" clip-path="url(#pa317cada8b)" style="fill: none; stroke: #000000; stroke-opacity: 0.7; stroke-width: 2"/>
   </g>
   <g id="line2d_27">
    <path d="M 317.780907 163.353777 
L 314.720084 163.353777 
L 311.659262 163.353777 
L 308.598439 163.545115 
L 296.355149 163.927789 
L 293.294326 164.080858 
L 291.763915 164.119126 
L 281.051036 165.535021 
L 276.459802 166.147299 
L 242.790754 160.292384 
L 221.364996 157.690199 
L 216.773762 157.192722 
L 212.182528 156.580443 
L 201.469649 155.164549 
L 199.939238 154.820142 
L 187.695947 153.672119 
L 183.104713 153.251178 
L 173.922246 152.256225 
L 167.800601 151.414341 
L 154.026899 149.615772 
L 141.783609 147.855471 
L 137.192375 147.243192 
L 132.601141 145.176751 
L 126.479496 142.612834 
L 105.053738 133.390385 
L 101.992915 131.744886 
L 92.810447 128.186015 
L 83.62798 124.627145 
L 71.384689 119.843717 
L 60.67181 115.710835 
L 53.019754 112.764244 
L 42.306875 115.6343 
L 42.306875 115.6343 
" clip-path="url(#pa317cada8b)" style="fill: none; stroke: #068773; stroke-width: 4"/>
   </g>
   <g id="line2d_28">
    <path d="M 42.306875 319.905807 
L 317.780907 319.905807 
" clip-path="url(#pa317cada8b)" style="fill: none; stroke: #000000; stroke-opacity: 0.7; stroke-width: 2"/>
   </g>
   <g id="line2d_29">
    <path d="M 317.780907 163.353777 
L 314.720084 163.353777 
L 311.659262 163.353777 
L 308.598439 163.545115 
L 296.355149 163.927789 
L 293.294326 164.080858 
L 291.763915 164.119126 
L 281.051036 165.535021 
L 276.459802 166.147299 
L 242.790754 160.292384 
L 221.364996 157.690199 
L 216.773762 157.192722 
L 212.182528 156.580443 
L 201.469649 155.164549 
L 199.939238 154.820142 
L 187.695947 153.672119 
L 183.104713 153.251178 
L 173.922246 152.256225 
L 167.800601 151.414341 
L 154.026899 149.615772 
L 141.783609 147.855471 
L 137.192375 147.243192 
L 132.601141 145.176751 
L 126.479496 142.612834 
L 105.053738 133.390385 
L 101.992915 131.744886 
L 92.810447 128.186015 
L 83.62798 124.627145 
L 71.384689 119.843717 
L 60.67181 115.710835 
L 53.019754 112.764244 
L 42.306875 115.6343 
L 42.306875 115.6343 
" clip-path="url(#pa317cada8b)" style="fill: none; stroke: #068773; stroke-width: 4"/>
   </g>
   <g id="line2d_30">
    <path d="M 42.306875 319.905807 
L 317.780907 319.905807 
" clip-path="url(#pa317cada8b)" style="fill: none; stroke: #000000; stroke-opacity: 0.7; stroke-width: 2"/>
   </g>
   <g id="line2d_31">
    <path d="M 317.780907 163.353777 
L 314.720084 163.353777 
L 311.659262 163.353777 
L 308.598439 163.545115 
L 296.355149 163.927789 
L 293.294326 164.080858 
L 291.763915 164.119126 
L 281.051036 165.535021 
L 276.459802 166.147299 
L 242.790754 160.292384 
L 221.364996 157.690199 
L 216.773762 157.192722 
L 212.182528 156.580443 
L 201.469649 155.164549 
L 199.939238 154.820142 
L 187.695947 153.672119 
L 183.104713 153.251178 
L 173.922246 152.256225 
L 167.800601 151.414341 
L 154.026899 149.615772 
L 141.783609 147.855471 
L 137.192375 147.243192 
L 132.601141 145.176751 
L 126.479496 142.612834 
L 105.053738 133.390385 
L 101.992915 131.744886 
L 92.810447 128.186015 
L 83.62798 124.627145 
L 71.384689 119.843717 
L 60.67181 115.710835 
L 53.019754 112.764244 
L 42.306875 115.6343 
L 42.306875 115.6343 
" clip-path="url(#pa317cada8b)" style="fill: none; stroke: #068773; stroke-width: 4"/>
   </g>
   <g id="line2d_32">
    <path d="M 42.306875 319.905807 
L 317.780907 319.905807 
" clip-path="url(#pa317cada8b)" style="fill: none; stroke: #000000; stroke-opacity: 0.7; stroke-width: 2"/>
   </g>
   <g id="text_11">
    <text style="fill: #808080; font: 700 14px 'Roboto', 'Arial', 'DejaVu Sans', sans-serif; text-anchor: middle" x="180.043891" y="48.251552" transform="rotate(-0 180.043891 48.251552)">ATÉ 2 SM</text>
   </g>
  </g>
  <g id="axes_2">
   <g id="patch_3">
    <path d="M 354.532432 330.262885 
L 630.006463 330.262885 
L 630.006463 52.033843 
L 354.532432 52.033843 
L 354.532432 330.262885 
z
" style="fill: none"/>
   </g>
   <g id="matplotlib.axis_3">
    <g id="xtick_3">
     <g id="line2d_33">
      <path d="M 354.532432 330.262885 
L 354.532432 52.033843 
" clip-path="url(#p622f1859af)" style="fill: none; stroke-dasharray: 0.7,2.1; stroke-dashoffset: 0; stroke: #000000; stroke-opacity: 0.3; stroke-width: 0.7"/>
     </g>
     <g id="line2d_34"/>
     <g id="text_12">
      <text style="fill: #333333; font: 20px 'Roboto', 'Arial', 'DejaVu Sans', sans-serif; text-anchor: middle" x="354.532432" y="351.49726" transform="rotate(-0 354.532432 351.49726)">Jan</text>
     </g>
    </g>
    <g id="xtick_4">
     <g id="line2d_35">
      <path d="M 630.006463 330.262885 
L 630.006463 52.033843 
" clip-path="url(#p622f1859af)" style="fill: none; stroke-dasharray: 0.7,2.1; stroke-dashoffset: 0; stroke: #000000; stroke-opacity: 0.3; stroke-width: 0.7"/>
     </g>
     <g id="line2d_36"/>
     <g id="text_13">
      <text style="fill: #333333; font: 20px 'Roboto', 'Arial', 'DejaVu Sans', sans-serif; text-anchor: middle" x="630.006463" y="351.49726" transform="rotate(-0 630.006463 351.49726)">Jul</text>
     </g>
    </g>
   </g>
   <g id="matplotlib.axis_4">
    <g id="ytick_9">
     <g id="line2d_37">
      <path d="M 354.532432 319.905807 
L 630.006463 319.905807 
" clip-path="url(#p622f1859af)" style="fill: none; stroke-dasharray: 0.7,2.1; stroke-dashoffset: 0; stroke: #000000; stroke-opacity: 0.3; stroke-width: 0.7"/>
     </g>
    </g>
    <g id="ytick_10">
     <g id="line2d_38">
      <path d="M 354.532432 281.638383 
L 630.006463 281.638383 
" clip-path="url(#p622f1859af)" style="fill: none; stroke-dasharray: 0.7,2.1; stroke-dashoffset: 0; stroke: #000000; stroke-opacity: 0.3; stroke-width: 0.7"/>
     </g>
    </g>
    <g id="ytick_11">
     <g id="line2d_39">
      <path d="M 354.532432 243.37096 
L 630.006463 243.37096 
" clip-path="url(#p622f1859af)" style="fill: none; stroke-dasharray: 0.7,2.1; stroke-dashoffset: 0; stroke: #000000; stroke-opacity: 0.3; stroke-width: 0.7"/>
     </g>
    </g>
    <g id="ytick_12">
     <g id="line2d_40">
      <path d="M 354.532432 205.103536 
L 630.006463 205.103536 
" clip-path="url(#p622f1859af)" style="fill: none; stroke-dasharray: 0.7,2.1; stroke-dashoffset: 0; stroke: #000000; stroke-opacity: 0.3; stroke-width: 0.7"/>
     </g>
    </g>
    <g id="ytick_13">
     <g id="line2d_41">
      <path d="M 354.532432 166.836113 
L 630.006463 166.836113 
" clip-path="url(#p622f1859af)" style="fill: none; stroke-dasharray: 0.7,2.1; stroke-dashoffset: 0; stroke: #000000; stroke-opacity: 0.3; stroke-width: 0.7"/>
     </g>
    </g>
    <g id="ytick_14">
     <g id="line2d_42">
      <path d="M 354.532432 128.56869 
L 630.006463 128.56869 
" clip-path="url(#p622f1859af)" style="fill: none; stroke-dasharray: 0.7,2.1; stroke-dashoffset: 0; stroke: #000000; stroke-opacity: 0.3; stroke-width: 0.7"/>
     </g>
    </g>
    <g id="ytick_15">
     <g id="line2d_43">
      <path d="M 354.532432 90.301266 
L 630.006463 90.301266 
" clip-path="url(#p622f1859af)" style="fill: none; stroke-dasharray: 0.7,2.1; stroke-dashoffset: 0; stroke: #000000; stroke-opacity: 0.3; stroke-width: 0.7"/>
     </g>
    </g>
    <g id="ytick_16">
     <g id="line2d_44">
      <path d="M 354.532432 52.033843 
L 630.006463 52.033843 
" clip-path="url(#p622f1859af)" style="fill: none; stroke-dasharray: 0.7,2.1; stroke-dashoffset: 0; stroke: #000000; stroke-opacity: 0.3; stroke-width: 0.7"/>
     </g>
    </g>
   </g>
   <g id="line2d_45">
    <path d="M 354.532432 330.262885 
L 354.532432 52.033843 
" clip-path="url(#p622f1859af)" style="fill: none; stroke: #000000; stroke-opacity: 0.7; stroke-width: 3"/>
   </g>
   <g id="line2d_46">
    <path d="M 354.532432 330.262885 
L 354.532432 52.033843 
" clip-path="url(#p622f1859af)" style="fill: none; stroke: #000000; stroke-opacity: 0.7; stroke-width: 3"/>
   </g>
   <g id="line2d_47">
    <path d="M 354.532432 330.262885 
L 354.532432 52.033843 
" clip-path="url(#p622f1859af)" style="fill: none; stroke: #000000; stroke-opacity: 0.7; stroke-width: 3"/>
   </g>
   <g id="line2d_48">
    <path d="M 354.532432 330.262885 
L 354.532432 52.033843 
" clip-path="url(#p622f1859af)" style="fill: none; stroke: #000000; stroke-opacity: 0.7; stroke-width: 3"/>
   </g>
   <g id="line2d_49">
    <path d="M 630.006463 201.582933 
L 620.823996 201.506399 
L 614.70235 201.315062 
L 610.111117 201.008922 
L 605.519883 200.817585 
L 588.685359 200.013969 
L 571.850834 200.779318 
L 570.320423 200.779318 
L 564.198778 201.161992 
L 559.607544 201.353329 
L 512.164794 203.764177 
L 504.512738 205.218339 
L 498.391093 206.366361 
L 496.860681 206.710768 
L 493.799859 207.246512 
L 449.417931 216.201089 
L 417.279294 230.704443 
L 412.688061 232.08207 
L 401.975182 234.913859 
L 398.914359 235.717475 
L 395.853536 236.521091 
L 380.549424 240.615705 
L 366.775722 244.136308 
L 365.245311 244.55725 
L 360.654077 244.174576 
L 356.062843 243.868436 
L 354.532432 243.715367 
L 354.532432 243.715367 
" clip-path="url(#p622f1859af)" style="fill: none; stroke: #888d8f; stroke-width: 4"/>
   </g>
   <g id="line2d_50">
    <path d="M 630.006463 212.986626 
L 622.354407 213.063161 
L 607.050294 213.52237 
L 602.45906 213.675439 
L 593.276592 213.751974 
L 588.685359 213.790242 
L 584.094125 213.407567 
L 571.850834 212.450882 
L 568.790012 212.144742 
L 564.198778 211.838603 
L 519.816851 208.432802 
L 512.164794 207.629186 
L 498.391093 208.394535 
L 493.799859 208.662407 
L 487.678214 209.006814 
L 483.08698 209.619092 
L 464.722044 211.991673 
L 460.13081 212.603951 
L 447.88752 214.211183 
L 434.113819 216.545496 
L 429.522585 217.310845 
L 417.279294 219.45382 
L 414.218472 219.415553 
L 365.245311 221.864668 
L 359.123666 222.553482 
L 356.062843 222.859621 
L 354.532432 223.089225 
L 354.532432 223.089225 
" clip-path="url(#p622f1859af)" style="fill: none; stroke: #f5700a; stroke-width: 4"/>
   </g>
   <g id="line2d_51">
    <path d="M 630.006463 201.582933 
L 620.823996 201.506399 
L 614.70235 201.315062 
L 610.111117 201.008922 
L 605.519883 200.817585 
L 588.685359 200.013969 
L 571.850834 200.779318 
L 570.320423 200.779318 
L 564.198778 201.161992 
L 559.607544 201.353329 
L 512.164794 203.764177 
L 504.512738 205.218339 
L 498.391093 206.366361 
L 496.860681 206.710768 
L 493.799859 207.246512 
L 449.417931 216.201089 
L 417.279294 230.704443 
L 412.688061 232.08207 
L 401.975182 234.913859 
L 398.914359 235.717475 
L 395.853536 236.521091 
L 380.549424 240.615705 
L 366.775722 244.136308 
L 365.245311 244.55725 
L 360.654077 244.174576 
L 356.062843 243.868436 
L 354.532432 243.715367 
L 354.532432 243.715367 
" clip-path="url(#p622f1859af)" style="fill: none; stroke: #888d8f; stroke-width: 4"/>
   </g>
   <g id="line2d_52">
    <path d="M 630.006463 212.986626 
L 622.354407 213.063161 
L 607.050294 213.52237 
L 602.45906 213.675439 
L 593.276592 213.751974 
L 588.685359 213.790242 
L 584.094125 213.407567 
L 571.850834 212.450882 
L 568.790012 212.144742 
L 564.198778 211.838603 
L 519.816851 208.432802 
L 512.164794 207.629186 
L 498.391093 208.394535 
L 493.799859 208.662407 
L 487.678214 209.006814 
L 483.08698 209.619092 
L 464.722044 211.991673 
L 460.13081 212.603951 
L 447.88752 214.211183 
L 434.113819 216.545496 
L 429.522585 217.310845 
L 417.279294 219.45382 
L 414.218472 219.415553 
L 365.245311 221.864668 
L 359.123666 222.553482 
L 356.062843 222.859621 
L 354.532432 223.089225 
L 354.532432 223.089225 
" clip-path="url(#p622f1859af)" style="fill: none; stroke: #f5700a; stroke-width: 4"/>
   </g>
   <g id="line2d_53">
    <path d="M 630.006463 201.582933 
L 620.823996 201.506399 
L 614.70235 201.315062 
L 610.111117 201.008922 
L 605.519883 200.817585 
L 588.685359 200.013969 
L 571.850834 200.779318 
L 570.320423 200.779318 
L 564.198778 201.161992 
L 559.607544 201.353329 
L 512.164794 203.764177 
L 504.512738 205.218339 
L 498.391093 206.366361 
L 496.860681 206.710768 
L 493.799859 207.246512 
L 449.417931 216.201089 
L 417.279294 230.704443 
L 412.688061 232.08207 
L 401.975182 234.913859 
L 398.914359 235.717475 
L 395.853536 236.521091 
L 380.549424 240.615705 
L 366.775722 244.136308 
L 365.245311 244.55725 
L 360.654077 244.174576 
L 356.062843 243.868436 
L 354.532432 243.715367 
L 354.532432 243.715367 
" clip-path="url(#p622f1859af)" style="fill: none; stroke: #888d8f; stroke-width: 4"/>
   </g>
   <g id="line2d_54">
    <path d="M 630.006463 212.986626 
L 622.354407 213.063161 
L 607.050294 213.52237 
L 602.45906 213.675439 
L 593.276592 213.751974 
L 588.685359 213.790242 
L 584.094125 213.407567 
L 571.850834 212.450882 
L 568.790012 212.144742 
L 564.198778 211.838603 
L 519.816851 208.432802 
L 512.164794 207.629186 
L 498.391093 208.394535 
L 493.799859 208.662407 
L 487.678214 209.006814 
L 483.08698 209.619092 
L 464.722044 211.991673 
L 460.13081 212.603951 
L 447.88752 214.211183 
L 434.113819 216.545496 
L 429.522585 217.310845 
L 417.279294 219.45382 
L 414.218472 219.415553 
L 365.245311 221.864668 
L 359.123666 222.553482 
L 356.062843 222.859621 
L 354.532432 223.089225 
L 354.532432 223.089225 
" clip-path="url(#p622f1859af)" style="fill: none; stroke: #f5700a; stroke-width: 4"/>
   </g>
   <g id="line2d_55">
    <path d="M 630.006463 201.582933 
L 620.823996 201.506399 
L 614.70235 201.315062 
L 610.111117 201.008922 
L 605.519883 200.817585 
L 588.685359 200.013969 
L 571.850834 200.779318 
L 570.320423 200.779318 
L 564.198778 201.161992 
L 559.607544 201.353329 
L 512.164794 203.764177 
L 504.512738 205.218339 
L 498.391093 206.366361 
L 496.860681 206.710768 
L 493.799859 207.246512 
L 449.417931 216.201089 
L 417.279294 230.704443 
L 412.688061 232.08207 
L 401.975182 234.913859 
L 398.914359 235.717475 
L 395.853536 236.521091 
L 380.549424 240.615705 
L 366.775722 244.136308 
L 365.245311 244.55725 
L 360.654077 244.174576 
L 356.062843 243.868436 
L 354.532432 243.715367 
L 354.532432 243.715367 
" clip-path="url(#p622f1859af)" style="fill: none; stroke: #888d8f; stroke-width: 4"/>
   </g>
   <g id="line2d_56">
    <path d="M 630.006463 212.986626 
L 622.354407 213.063161 
L 607.050294 213.52237 
L 602.45906 213.675439 
L 593.276592 213.751974 
L 588.685359 213.790242 
L 584.094125 213.407567 
L 571.850834 212.450882 
L 568.790012 212.144742 
L 564.198778 211.838603 
L 519.816851 208.432802 
L 512.164794 207.629186 
L 498.391093 208.394535 
L 493.799859 208.662407 
L 487.678214 209.006814 
L 483.08698 209.619092 
L 464.722044 211.991673 
L 460.13081 212.603951 
L 447.88752 214.211183 
L 434.113819 216.545496 
L 429.522585 217.310845 
L 417.279294 219.45382 
L 414.218472 219.415553 
L 365.245311 221.864668 
L 359.123666 222.553482 
L 356.062843 222.859621 
L 354.532432 223.089225 
L 354.532432 223.089225 
" clip-path="url(#p622f1859af)" style="fill: none; stroke: #f5700a; stroke-width: 4"/>
   </g>
   <g id="line2d_57">
    <path d="M 630.006463 181.990013 
L 622.354407 182.066548 
L 619.293584 182.219617 
L 605.519883 182.640559 
L 603.989471 182.717094 
L 596.337415 183.788582 
L 588.685359 184.783535 
L 579.502891 185.089674 
L 571.850834 185.395813 
L 562.668367 185.701953 
L 556.546722 185.931557 
L 551.955488 186.122894 
L 545.833843 186.352499 
L 535.120964 186.696906 
L 528.999318 186.92651 
L 515.225617 187.347452 
L 512.164794 186.658638 
L 501.451915 185.510616 
L 495.33027 184.821802 
L 487.678214 183.979919 
L 486.147802 183.712047 
L 483.08698 182.984966 
L 473.904512 181.071594 
L 461.661222 178.392875 
L 452.478754 176.479504 
L 449.417931 175.79069 
L 432.583407 167.486659 
L 421.870528 162.28229 
L 417.279294 159.986244 
L 414.218472 158.072873 
L 371.366956 144.028729 
L 365.245311 142.000555 
L 356.062843 142.536299 
L 354.532432 142.651101 
L 354.532432 142.651101 
" clip-path="url(#p622f1859af)" style="fill: none; stroke: #068773; stroke-width: 4"/>
   </g>
   <g id="line2d_58">
    <path d="M 354.532432 319.905807 
L 630.006463 319.905807 
" clip-path="url(#p622f1859af)" style="fill: none; stroke: #000000; stroke-opacity: 0.7; stroke-width: 2"/>
   </g>
   <g id="line2d_59">
    <path d="M 630.006463 181.990013 
L 622.354407 182.066548 
L 619.293584 182.219617 
L 605.519883 182.640559 
L 603.989471 182.717094 
L 596.337415 183.788582 
L 588.685359 184.783535 
L 579.502891 185.089674 
L 571.850834 185.395813 
L 562.668367 185.701953 
L 556.546722 185.931557 
L 551.955488 186.122894 
L 545.833843 186.352499 
L 535.120964 186.696906 
L 528.999318 186.92651 
L 515.225617 187.347452 
L 512.164794 186.658638 
L 501.451915 185.510616 
L 495.33027 184.821802 
L 487.678214 183.979919 
L 486.147802 183.712047 
L 483.08698 182.984966 
L 473.904512 181.071594 
L 461.661222 178.392875 
L 452.478754 176.479504 
L 449.417931 175.79069 
L 432.583407 167.486659 
L 421.870528 162.28229 
L 417.279294 159.986244 
L 414.218472 158.072873 
L 371.366956 144.028729 
L 365.245311 142.000555 
L 356.062843 142.536299 
L 354.532432 142.651101 
L 354.532432 142.651101 
" clip-path="url(#p622f1859af)" style="fill: none; stroke: #068773; stroke-width: 4"/>
   </g>
   <g id="line2d_60">
    <path d="M 354.532432 319.905807 
L 630.006463 319.905807 
" clip-path="url(#p622f1859af)" style="fill: none; stroke: #000000; stroke-opacity: 0.7; stroke-width: 2"/>
   </g>
   <g id="line2d_61">
    <path d="M 630.006463 181.990013 
L 622.354407 182.066548 
L 619.293584 182.219617 
L 605.519883 182.640559 
L 603.989471 182.717094 
L 596.337415 183.788582 
L 588.685359 184.783535 
L 579.502891 185.089674 
L 571.850834 185.395813 
L 562.668367 185.701953 
L 556.546722 185.931557 
L 551.955488 186.122894 
L 545.833843 186.352499 
L 535.120964 186.696906 
L 528.999318 186.92651 
L 515.225617 187.347452 
L 512.164794 186.658638 
L 501.451915 185.510616 
L 495.33027 184.821802 
L 487.678214 183.979919 
L 486.147802 183.712047 
L 483.08698 182.984966 
L 473.904512 181.071594 
L 461.661222 178.392875 
L 452.478754 176.479504 
L 449.417931 175.79069 
L 432.583407 167.486659 
L 421.870528 162.28229 
L 417.279294 159.986244 
L 414.218472 158.072873 
L 371.366956 144.028729 
L 365.245311 142.000555 
L 356.062843 142.536299 
L 354.532432 142.651101 
L 354.532432 142.651101 
" clip-path="url(#p622f1859af)" style="fill: none; stroke: #068773; stroke-width: 4"/>
   </g>
   <g id="line2d_62">
    <path d="M 354.532432 319.905807 
L 630.006463 319.905807 
" clip-path="url(#p622f1859af)" style="fill: none; stroke: #000000; stroke-opacity: 0.7; stroke-width: 2"/>
   </g>
   <g id="line2d_63">
    <path d="M 630.006463 181.990013 
L 622.354407 182.066548 
L 619.293584 182.219617 
L 605.519883 182.640559 
L 603.989471 182.717094 
L 596.337415 183.788582 
L 588.685359 184.783535 
L 579.502891 185.089674 
L 571.850834 185.395813 
L 562.668367 185.701953 
L 556.546722 185.931557 
L 551.955488 186.122894 
L 545.833843 186.352499 
L 535.120964 186.696906 
L 528.999318 186.92651 
L 515.225617 187.347452 
L 512.164794 186.658638 
L 501.451915 185.510616 
L 495.33027 184.821802 
L 487.678214 183.979919 
L 486.147802 183.712047 
L 483.08698 182.984966 
L 473.904512 181.071594 
L 461.661222 178.392875 
L 452.478754 176.479504 
L 449.417931 175.79069 
L 432.583407 167.486659 
L 421.870528 162.28229 
L 417.279294 159.986244 
L 414.218472 158.072873 
L 371.366956 144.028729 
L 365.245311 142.000555 
L 356.062843 142.536299 
L 354.532432 142.651101 
L 354.532432 142.651101 
" clip-path="url(#p622f1859af)" style="fill: none; stroke: #068773; stroke-width: 4"/>
   </g>
   <g id="line2d_64">
    <path d="M 354.532432 319.905807 
L 630.006463 319.905807 
" clip-path="url(#p622f1859af)" style="fill: none; stroke: #000000; stroke-opacity: 0.7; stroke-width: 2"/>
   </g>
   <g id="text_14">
    <text style="fill: #808080; font: 700 14px 'Roboto', 'Arial', 'DejaVu Sans', sans-serif; text-anchor: middle" x="492.269448" y="48.251552" transform="rotate(-0 492.269448 48.251552)">2 A 5 SM</text>
   </g>
  </g>
  <g id="axes_3">
   <g id="patch_4">
    <path d="M 666.757988 330.262885 
L 942.23202 330.262885 
L 942.23202 52.033843 
L 666.757988 52.033843 
L 666.757988 330.262885 
z
" style="fill: none"/>
   </g>
   <g id="matplotlib.axis_5">
    <g id="xtick_5">
     <g id="line2d_65">
      <path d="M 666.757988 330.262885 
L 666.757988 52.033843 
" clip-path="url(#p3f0d48f3c2)" style="fill: none; stroke-dasharray: 0.7,2.1; stroke-dashoffset: 0; stroke: #000000; stroke-opacity: 0.3; stroke-width: 0.7"/>
     </g>
     <g id="line2d_66"/>
     <g id="text_15">
      <text style="fill: #333333; font: 20px 'Roboto', 'Arial', 'DejaVu Sans', sans-serif; text-anchor: middle" x="666.757988" y="351.49726" transform="rotate(-0 666.757988 351.49726)">Jan</text>
     </g>
    </g>
    <g id="xtick_6">
     <g id="line2d_67">
      <path d="M 942.23202 330.262885 
L 942.23202 52.033843 
" clip-path="url(#p3f0d48f3c2)" style="fill: none; stroke-dasharray: 0.7,2.1; stroke-dashoffset: 0; stroke: #000000; stroke-opacity: 0.3; stroke-width: 0.7"/>
     </g>
     <g id="line2d_68"/>
     <g id="text_16">
      <text style="fill: #333333; font: 20px 'Roboto', 'Arial', 'DejaVu Sans', sans-serif; text-anchor: middle" x="942.23202" y="351.49726" transform="rotate(-0 942.23202 351.49726)">Jul</text>
     </g>
    </g>
   </g>
   <g id="matplotlib.axis_6">
    <g id="ytick_17">
     <g id="line2d_69">
      <path d="M 666.757988 319.905807 
L 942.23202 319.905807 
" clip-path="url(#p3f0d48f3c2)" style="fill: none; stroke-dasharray: 0.7,2.1; stroke-dashoffset: 0; stroke: #000000; stroke-opacity: 0.3; stroke-width: 0.7"/>
     </g>
    </g>
    <g id="ytick_18">
     <g id="line2d_70">
      <path d="M 666.757988 281.638383 
L 942.23202 281.638383 
" clip-path="url(#p3f0d48f3c2)" style="fill: none; stroke-dasharray: 0.7,2.1; stroke-dashoffset: 0; stroke: #000000; stroke-opacity: 0.3; stroke-width: 0.7"/>
     </g>
    </g>
    <g id="ytick_19">
     <g id="line2d_71">
      <path d="M 666.757988 243.37096 
L 942.23202 243.37096 
" clip-path="url(#p3f0d48f3c2)" style="fill: none; stroke-dasharray: 0.7,2.1; stroke-dashoffset: 0; stroke: #000000; stroke-opacity: 0.3; stroke-width: 0.7"/>
     </g>
    </g>
    <g id="ytick_20">
     <g id="line2d_72">
      <path d="M 666.757988 205.103536 
L 942.23202 205.103536 
" clip-path="url(#p3f0d48f3c2)" style="fill: none; stroke-dasharray: 0.7,2.1; stroke-dashoffset: 0; stroke: #000000; stroke-opacity: 0.3; stroke-width: 0.7"/>
     </g>
    </g>
    <g id="ytick_21">
     <g id="line2d_73">
      <path d="M 666.757988 166.836113 
L 942.23202 166.836113 
" clip-path="url(#p3f0d48f3c2)" style="fill: none; stroke-dasharray: 0.7,2.1; stroke-dashoffset: 0; stroke: #000000; stroke-opacity: 0.3; stroke-width: 0.7"/>
     </g>
    </g>
    <g id="ytick_22">
     <g id="line2d_74">
      <path d="M 666.757988 128.56869 
L 942.23202 128.56869 
" clip-path="url(#p3f0d48f3c2)" style="fill: none; stroke-dasharray: 0.7,2.1; stroke-dashoffset: 0; stroke: #000000; stroke-opacity: 0.3; stroke-width: 0.7"/>
     </g>
    </g>
    <g id="ytick_23">
     <g id="line2d_75">
      <path d="M 666.757988 90.301266 
L 942.23202 90.301266 
" clip-path="url(#p3f0d48f3c2)" style="fill: none; stroke-dasharray: 0.7,2.1; stroke-dashoffset: 0; stroke: #000000; stroke-opacity: 0.3; stroke-width: 0.7"/>
     </g>
    </g>
    <g id="ytick_24">
     <g id="line2d_76">
      <path d="M 666.757988 52.033843 
L 942.23202 52.033843 
" clip-path="url(#p3f0d48f3c2)" style="fill: none; stroke-dasharray: 0.7,2.1; stroke-dashoffset: 0; stroke: #000000; stroke-opacity: 0.3; stroke-width: 0.7"/>
     </g>
    </g>
   </g>
   <g id="line2d_77">
    <path d="M 666.757988 330.262885 
L 666.757988 52.033843 
" clip-path="url(#p3f0d48f3c2)" style="fill: none; stroke: #000000; stroke-opacity: 0.7; stroke-width: 3"/>
   </g>
   <g id="line2d_78">
    <path d="M 666.757988 330.262885 
L 666.757988 52.033843 
" clip-path="url(#p3f0d48f3c2)" style="fill: none; stroke: #000000; stroke-opacity: 0.7; stroke-width: 3"/>
   </g>
   <g id="line2d_79">
    <path d="M 666.757988 330.262885 
L 666.757988 52.033843 
" clip-path="url(#p3f0d48f3c2)" style="fill: none; stroke: #000000; stroke-opacity: 0.7; stroke-width: 3"/>
   </g>
   <g id="line2d_80">
    <path d="M 666.757988 330.262885 
L 666.757988 52.033843 
" clip-path="url(#p3f0d48f3c2)" style="fill: none; stroke: #000000; stroke-opacity: 0.7; stroke-width: 3"/>
   </g>
   <g id="line2d_81">
    <path d="M 942.23202 214.287718 
L 936.110375 214.287718 
L 929.98873 213.905044 
L 916.215028 213.177963 
L 899.380504 214.938264 
L 890.198036 216.622031 
L 882.54598 218.076193 
L 874.893923 219.492088 
L 867.241867 220.94625 
L 856.528988 222.362144 
L 845.816109 223.892841 
L 838.164052 224.926062 
L 827.451173 226.495026 
L 824.390351 227.949188 
L 819.799117 229.135478 
L 815.207883 230.245234 
L 799.90377 234.148511 
L 784.599657 235.373068 
L 778.478012 235.908812 
L 775.41719 236.100149 
L 769.295545 236.635893 
L 764.704311 236.942033 
L 760.113077 237.439509 
L 737.156908 240.960112 
L 732.565674 241.687193 
L 729.504851 242.146402 
L 726.444029 243.37096 
L 717.261561 243.52403 
L 712.670327 243.600564 
L 706.548682 243.677099 
L 698.896625 243.753634 
L 682.062101 244.098041 
L 677.470867 244.174576 
L 671.349222 243.026553 
L 666.757988 242.146402 
L 666.757988 242.146402 
" clip-path="url(#p3f0d48f3c2)" style="fill: none; stroke: #888d8f; stroke-width: 4"/>
   </g>
   <g id="line2d_82">
    <path d="M 942.23202 189.911369 
L 936.110375 189.949637 
L 933.049552 190.102706 
L 916.215028 190.982857 
L 908.562972 190.102706 
L 902.441327 189.413893 
L 900.910915 189.222556 
L 894.78927 187.653591 
L 882.54598 184.515663 
L 873.363512 182.104815 
L 864.181044 179.885304 
L 862.650633 179.617432 
L 859.589811 178.928619 
L 853.468165 177.627526 
L 836.633641 174.183458 
L 832.042407 173.226773 
L 827.451173 172.270087 
L 824.390351 170.968995 
L 819.799117 171.275134 
L 816.738294 171.389936 
L 807.555827 172.002215 
L 799.90377 172.423157 
L 792.251714 174.795737 
L 778.478012 179.043421 
L 769.295545 181.913478 
L 761.643488 184.286058 
L 752.46102 187.844928 
L 744.808964 190.829787 
L 737.156908 193.814647 
L 734.096085 195.000937 
L 729.504851 196.761238 
L 726.444029 196.569901 
L 723.383206 196.990843 
L 714.200738 198.52154 
L 703.487859 200.205306 
L 698.896625 200.932387 
L 688.183746 202.616154 
L 682.062101 203.611107 
L 677.470867 204.338188 
L 666.757988 207.093442 
L 666.757988 207.093442 
" clip-path="url(#p3f0d48f3c2)" style="fill: none; stroke: #f5700a; stroke-width: 4"/>
   </g>
   <g id="line2d_83">
    <path d="M 942.23202 214.287718 
L 936.110375 214.287718 
L 929.98873 213.905044 
L 916.215028 213.177963 
L 899.380504 214.938264 
L 890.198036 216.622031 
L 882.54598 218.076193 
L 874.893923 219.492088 
L 867.241867 220.94625 
L 856.528988 222.362144 
L 845.816109 223.892841 
L 838.164052 224.926062 
L 827.451173 226.495026 
L 824.390351 227.949188 
L 819.799117 229.135478 
L 815.207883 230.245234 
L 799.90377 234.148511 
L 784.599657 235.373068 
L 778.478012 235.908812 
L 775.41719 236.100149 
L 769.295545 236.635893 
L 764.704311 236.942033 
L 760.113077 237.439509 
L 737.156908 240.960112 
L 732.565674 241.687193 
L 729.504851 242.146402 
L 726.444029 243.37096 
L 717.261561 243.52403 
L 712.670327 243.600564 
L 706.548682 243.677099 
L 698.896625 243.753634 
L 682.062101 244.098041 
L 677.470867 244.174576 
L 671.349222 243.026553 
L 666.757988 242.146402 
L 666.757988 242.146402 
" clip-path="url(#p3f0d48f3c2)" style="fill: none; stroke: #888d8f; stroke-width: 4"/>
   </g>
   <g id="line2d_84">
    <path d="M 942.23202 189.911369 
L 936.110375 189.949637 
L 933.049552 190.102706 
L 916.215028 190.982857 
L 908.562972 190.102706 
L 902.441327 189.413893 
L 900.910915 189.222556 
L 894.78927 187.653591 
L 882.54598 184.515663 
L 873.363512 182.104815 
L 864.181044 179.885304 
L 862.650633 179.617432 
L 859.589811 178.928619 
L 853.468165 177.627526 
L 836.633641 174.183458 
L 832.042407 173.226773 
L 827.451173 172.270087 
L 824.390351 170.968995 
L 819.799117 171.275134 
L 816.738294 171.389936 
L 807.555827 172.002215 
L 799.90377 172.423157 
L 792.251714 174.795737 
L 778.478012 179.043421 
L 769.295545 181.913478 
L 761.643488 184.286058 
L 752.46102 187.844928 
L 744.808964 190.829787 
L 737.156908 193.814647 
L 734.096085 195.000937 
L 729.504851 196.761238 
L 726.444029 196.569901 
L 723.383206 196.990843 
L 714.200738 198.52154 
L 703.487859 200.205306 
L 698.896625 200.932387 
L 688.183746 202.616154 
L 682.062101 203.611107 
L 677.470867 204.338188 
L 666.757988 207.093442 
L 666.757988 207.093442 
" clip-path="url(#p3f0d48f3c2)" style="fill: none; stroke: #f5700a; stroke-width: 4"/>
   </g>
   <g id="line2d_85">
    <path d="M 942.23202 214.287718 
L 936.110375 214.287718 
L 929.98873 213.905044 
L 916.215028 213.177963 
L 899.380504 214.938264 
L 890.198036 216.622031 
L 882.54598 218.076193 
L 874.893923 219.492088 
L 867.241867 220.94625 
L 856.528988 222.362144 
L 845.816109 223.892841 
L 838.164052 224.926062 
L 827.451173 226.495026 
L 824.390351 227.949188 
L 819.799117 229.135478 
L 815.207883 230.245234 
L 799.90377 234.148511 
L 784.599657 235.373068 
L 778.478012 235.908812 
L 775.41719 236.100149 
L 769.295545 236.635893 
L 764.704311 236.942033 
L 760.113077 237.439509 
L 737.156908 240.960112 
L 732.565674 241.687193 
L 729.504851 242.146402 
L 726.444029 243.37096 
L 717.261561 243.52403 
L 712.670327 243.600564 
L 706.548682 243.677099 
L 698.896625 243.753634 
L 682.062101 244.098041 
L 677.470867 244.174576 
L 671.349222 243.026553 
L 666.757988 242.146402 
L 666.757988 242.146402 
" clip-path="url(#p3f0d48f3c2)" style="fill: none; stroke: #888d8f; stroke-width: 4"/>
   </g>
   <g id="line2d_86">
    <path d="M 942.23202 189.911369 
L 936.110375 189.949637 
L 933.049552 190.102706 
L 916.215028 190.982857 
L 908.562972 190.102706 
L 902.441327 189.413893 
L 900.910915 189.222556 
L 894.78927 187.653591 
L 882.54598 184.515663 
L 873.363512 182.104815 
L 864.181044 179.885304 
L 862.650633 179.617432 
L 859.589811 178.928619 
L 853.468165 177.627526 
L 836.633641 174.183458 
L 832.042407 173.226773 
L 827.451173 172.270087 
L 824.390351 170.968995 
L 819.799117 171.275134 
L 816.738294 171.389936 
L 807.555827 172.002215 
L 799.90377 172.423157 
L 792.251714 174.795737 
L 778.478012 179.043421 
L 769.295545 181.913478 
L 761.643488 184.286058 
L 752.46102 187.844928 
L 744.808964 190.829787 
L 737.156908 193.814647 
L 734.096085 195.000937 
L 729.504851 196.761238 
L 726.444029 196.569901 
L 723.383206 196.990843 
L 714.200738 198.52154 
L 703.487859 200.205306 
L 698.896625 200.932387 
L 688.183746 202.616154 
L 682.062101 203.611107 
L 677.470867 204.338188 
L 666.757988 207.093442 
L 666.757988 207.093442 
" clip-path="url(#p3f0d48f3c2)" style="fill: none; stroke: #f5700a; stroke-width: 4"/>
   </g>
   <g id="line2d_87">
    <path d="M 942.23202 214.287718 
L 936.110375 214.287718 
L 929.98873 213.905044 
L 916.215028 213.177963 
L 899.380504 214.938264 
L 890.198036 216.622031 
L 882.54598 218.076193 
L 874.893923 219.492088 
L 867.241867 220.94625 
L 856.528988 222.362144 
L 845.816109 223.892841 
L 838.164052 224.926062 
L 827.451173 226.495026 
L 824.390351 227.949188 
L 819.799117 229.135478 
L 815.207883 230.245234 
L 799.90377 234.148511 
L 784.599657 235.373068 
L 778.478012 235.908812 
L 775.41719 236.100149 
L 769.295545 236.635893 
L 764.704311 236.942033 
L 760.113077 237.439509 
L 737.156908 240.960112 
L 732.565674 241.687193 
L 729.504851 242.146402 
L 726.444029 243.37096 
L 717.261561 243.52403 
L 712.670327 243.600564 
L 706.548682 243.677099 
L 698.896625 243.753634 
L 682.062101 244.098041 
L 677.470867 244.174576 
L 671.349222 243.026553 
L 666.757988 242.146402 
L 666.757988 242.146402 
" clip-path="url(#p3f0d48f3c2)" style="fill: none; stroke: #888d8f; stroke-width: 4"/>
   </g>
   <g id="line2d_88">
    <path d="M 942.23202 189.911369 
L 936.110375 189.949637 
L 933.049552 190.102706 
L 916.215028 190.982857 
L 908.562972 190.102706 
L 902.441327 189.413893 
L 900.910915 189.222556 
L 894.78927 187.653591 
L 882.54598 184.515663 
L 873.363512 182.104815 
L 864.181044 179.885304 
L 862.650633 179.617432 
L 859.589811 178.928619 
L 853.468165 177.627526 
L 836.633641 174.183458 
L 832.042407 173.226773 
L 827.451173 172.270087 
L 824.390351 170.968995 
L 819.799117 171.275134 
L 816.738294 171.389936 
L 807.555827 172.002215 
L 799.90377 172.423157 
L 792.251714 174.795737 
L 778.478012 179.043421 
L 769.295545 181.913478 
L 761.643488 184.286058 
L 752.46102 187.844928 
L 744.808964 190.829787 
L 737.156908 193.814647 
L 734.096085 195.000937 
L 729.504851 196.761238 
L 726.444029 196.569901 
L 723.383206 196.990843 
L 714.200738 198.52154 
L 703.487859 200.205306 
L 698.896625 200.932387 
L 688.183746 202.616154 
L 682.062101 203.611107 
L 677.470867 204.338188 
L 666.757988 207.093442 
L 666.757988 207.093442 
" clip-path="url(#p3f0d48f3c2)" style="fill: none; stroke: #f5700a; stroke-width: 4"/>
   </g>
   <g id="line2d_89">
    <path d="M 942.23202 186.429034 
L 934.579964 186.505569 
L 922.336673 186.888243 
L 919.275851 187.041313 
L 913.154206 187.270917 
L 902.441327 187.500522 
L 899.380504 187.500522 
L 894.78927 187.577056 
L 884.076391 187.806661 
L 881.015569 187.806661 
L 874.893923 187.883196 
L 861.120222 188.304138 
L 827.451173 189.949637 
L 822.85994 188.801614 
L 818.268706 187.730126 
L 807.555827 185.242744 
L 802.964593 184.171256 
L 793.782125 182.02828 
L 787.66048 180.574118 
L 781.538835 179.119956 
L 776.947601 177.971933 
L 769.295545 176.173364 
L 761.643488 174.336528 
L 755.521843 171.696076 
L 729.504851 160.598523 
L 726.444029 159.144361 
L 706.548682 156.236037 
L 700.427037 155.394153 
L 686.653335 153.404247 
L 683.592512 152.945038 
L 677.470867 151.988353 
L 674.410045 152.217957 
L 666.757988 152.753701 
L 666.757988 152.753701 
" clip-path="url(#p3f0d48f3c2)" style="fill: none; stroke: #068773; stroke-width: 4"/>
   </g>
   <g id="line2d_90">
    <path d="M 666.757988 319.905807 
L 942.23202 319.905807 
" clip-path="url(#p3f0d48f3c2)" style="fill: none; stroke: #000000; stroke-opacity: 0.7; stroke-width: 2"/>
   </g>
   <g id="line2d_91">
    <path d="M 942.23202 186.429034 
L 934.579964 186.505569 
L 922.336673 186.888243 
L 919.275851 187.041313 
L 913.154206 187.270917 
L 902.441327 187.500522 
L 899.380504 187.500522 
L 894.78927 187.577056 
L 884.076391 187.806661 
L 881.015569 187.806661 
L 874.893923 187.883196 
L 861.120222 188.304138 
L 827.451173 189.949637 
L 822.85994 188.801614 
L 818.268706 187.730126 
L 807.555827 185.242744 
L 802.964593 184.171256 
L 793.782125 182.02828 
L 787.66048 180.574118 
L 781.538835 179.119956 
L 776.947601 177.971933 
L 769.295545 176.173364 
L 761.643488 174.336528 
L 755.521843 171.696076 
L 729.504851 160.598523 
L 726.444029 159.144361 
L 706.548682 156.236037 
L 700.427037 155.394153 
L 686.653335 153.404247 
L 683.592512 152.945038 
L 677.470867 151.988353 
L 674.410045 152.217957 
L 666.757988 152.753701 
L 666.757988 152.753701 
" clip-path="url(#p3f0d48f3c2)" style="fill: none; stroke: #068773; stroke-width: 4"/>
   </g>
   <g id="line2d_92">
    <path d="M 666.757988 319.905807 
L 942.23202 319.905807 
" clip-path="url(#p3f0d48f3c2)" style="fill: none; stroke: #000000; stroke-opacity: 0.7; stroke-width: 2"/>
   </g>
   <g id="line2d_93">
    <path d="M 942.23202 186.429034 
L 934.579964 186.505569 
L 922.336673 186.888243 
L 919.275851 187.041313 
L 913.154206 187.270917 
L 902.441327 187.500522 
L 899.380504 187.500522 
L 894.78927 187.577056 
L 884.076391 187.806661 
L 881.015569 187.806661 
L 874.893923 187.883196 
L 861.120222 188.304138 
L 827.451173 189.949637 
L 822.85994 188.801614 
L 818.268706 187.730126 
L 807.555827 185.242744 
L 802.964593 184.171256 
L 793.782125 182.02828 
L 787.66048 180.574118 
L 781.538835 179.119956 
L 776.947601 177.971933 
L 769.295545 176.173364 
L 761.643488 174.336528 
L 755.521843 171.696076 
L 729.504851 160.598523 
L 726.444029 159.144361 
L 706.548682 156.236037 
L 700.427037 155.394153 
L 686.653335 153.404247 
L 683.592512 152.945038 
L 677.470867 151.988353 
L 674.410045 152.217957 
L 666.757988 152.753701 
L 666.757988 152.753701 
" clip-path="url(#p3f0d48f3c2)" style="fill: none; stroke: #068773; stroke-width: 4"/>
   </g>
   <g id="line2d_94">
    <path d="M 666.757988 319.905807 
L 942.23202 319.905807 
" clip-path="url(#p3f0d48f3c2)" style="fill: none; stroke: #000000; stroke-opacity: 0.7; stroke-width: 2"/>
   </g>
   <g id="line2d_95">
    <path d="M 942.23202 186.429034 
L 934.579964 186.505569 
L 922.336673 186.888243 
L 919.275851 187.041313 
L 913.154206 187.270917 
L 902.441327 187.500522 
L 899.380504 187.500522 
L 894.78927 187.577056 
L 884.076391 187.806661 
L 881.015569 187.806661 
L 874.893923 187.883196 
L 861.120222 188.304138 
L 827.451173 189.949637 
L 822.85994 188.801614 
L 818.268706 187.730126 
L 807.555827 185.242744 
L 802.964593 184.171256 
L 793.782125 182.02828 
L 787.66048 180.574118 
L 781.538835 179.119956 
L 776.947601 177.971933 
L 769.295545 176.173364 
L 761.643488 174.336528 
L 755.521843 171.696076 
L 729.504851 160.598523 
L 726.444029 159.144361 
L 706.548682 156.236037 
L 700.427037 155.394153 
L 686.653335 153.404247 
L 683.592512 152.945038 
L 677.470867 151.988353 
L 674.410045 152.217957 
L 666.757988 152.753701 
L 666.757988 152.753701 
" clip-path="url(#p3f0d48f3c2)" style="fill: none; stroke: #068773; stroke-width: 4"/>
   </g>
   <g id="line2d_96">
    <path d="M 666.757988 319.905807 
L 942.23202 319.905807 
" clip-path="url(#p3f0d48f3c2)" style="fill: none; stroke: #000000; stroke-opacity: 0.7; stroke-width: 2"/>
   </g>
   <g id="text_17">
    <text style="fill: #808080; font: 700 14px 'Roboto', 'Arial', 'DejaVu Sans', sans-serif; text-anchor: middle" x="804.495004" y="48.251552" transform="rotate(-0 804.495004 48.251552)">5 SM OU +</text>
   </g>
  </g>
  <g id="text_18">
   <text style="fill: #222222; font: 700 24px 'Roboto', 'Arial', 'DejaVu Sans', sans-serif" transform="translate(6.46206 20.6625)">Avaliação de governo por nível de renda</text>
   <text style="fill: #222222; font: 700 24px 'Roboto', 'Arial', 'DejaVu Sans', sans-serif" transform="translate(219.90456 48)"/>
  </g>
 </g>
 <defs>
  <clipPath id="pa317cada8b">
   <rect x="42.306875" y="52.033843" width="275.474032" height="278.229042"/>
  </clipPath>
  <clipPath id="p622f1859af">
   <rect x="354.532432" y="52.033843" width="275.474032" height="278.229042"/>
  </clipPath>
  <clipPath id="p3f0d48f3c2">
   <rect x="666.757988" y="52.033843" width="275.474032" height="278.229042"/>
  </clipPath>
 </defs>
</svg>
