<?xml version="1.0" encoding="utf-8" standalone="no"?>
<!DOCTYPE svg PUBLIC "-//W3C//DTD SVG 1.1//EN"
  "http://www.w3.org/Graphics/SVG/1.1/DTD/svg11.dtd">
<svg xmlns:xlink="http://www.w3.org/1999/xlink" width="958.07952pt" height="357.71976pt" viewBox="0 0 958.07952 357.71976" xmlns="http://www.w3.org/2000/svg" version="1.1">
 <metadata>
  <rdf:RDF xmlns:dc="http://purl.org/dc/elements/1.1/" xmlns:cc="http://creativecommons.org/ns#" xmlns:rdf="http://www.w3.org/1999/02/22-rdf-syntax-ns#">
   <cc:Work>
    <dc:type rdf:resource="http://purl.org/dc/dcmitype/StillImage"/>
    <dc:date>2023-07-03T11:23:17.489798</dc:date>
    <dc:format>image/svg+xml</dc:format>
    <dc:creator>
     <cc:Agent>
      <dc:title>Matplotlib v3.7.1, https://matplotlib.org/</dc:title>
     </cc:Agent>
    </dc:creator>
   </cc:Work>
  </rdf:RDF>
 </metadata>
 <defs>
  <style type="text/css">*{stroke-linejoin: round; stroke-linecap: butt}</style>
 </defs>
 <g id="figure_1">
  <g id="patch_1">
   <path d="M 0 357.71976 
L 958.07952 357.71976 
L 958.07952 0 
L 0 0 
L 0 357.71976 
z
" style="fill: none"/>
  </g>
  <g id="axes_1">
   <g id="patch_2">
    <path d="M 42.306875 330.262885 
L 317.780907 330.262885 
L 317.780907 52.033843 
L 42.306875 52.033843 
L 42.306875 330.262885 
z
" style="fill: none"/>
   </g>
   <g id="matplotlib.axis_1">
    <g id="xtick_1">
     <g id="line2d_1">
      <path d="M 42.306875 330.262885 
L 42.306875 52.033843 
" clip-path="url(#p75a2c36632)" style="fill: none; stroke-dasharray: 0.7,2.1; stroke-dashoffset: 0; stroke: #000000; stroke-opacity: 0.3; stroke-width: 0.7"/>
     </g>
     <g id="line2d_2"/>
     <g id="text_1">
      <text style="fill: #333333; font: 20px 'Roboto', 'Arial', 'DejaVu Sans', sans-serif; text-anchor: middle" x="42.306875" y="351.49726" transform="rotate(-0 42.306875 351.49726)">Jan</text>
     </g>
    </g>
    <g id="xtick_2">
     <g id="line2d_3">
      <path d="M 317.780907 330.262885 
L 317.780907 52.033843 
" clip-path="url(#p75a2c36632)" style="fill: none; stroke-dasharray: 0.7,2.1; stroke-dashoffset: 0; stroke: #000000; stroke-opacity: 0.3; stroke-width: 0.7"/>
     </g>
     <g id="line2d_4"/>
     <g id="text_2">
      <text style="fill: #333333; font: 20px 'Roboto', 'Arial', 'DejaVu Sans', sans-serif; text-anchor: middle" x="317.780907" y="351.49726" transform="rotate(-0 317.780907 351.49726)">Jul</text>
     </g>
    </g>
   </g>
   <g id="matplotlib.axis_2">
    <g id="ytick_1">
     <g id="line2d_5">
      <path d="M 42.306875 319.392832 
L 317.780907 319.392832 
" clip-path="url(#p75a2c36632)" style="fill: none; stroke-dasharray: 0.7,2.1; stroke-dashoffset: 0; stroke: #000000; stroke-opacity: 0.3; stroke-width: 0.7"/>
     </g>
     <g id="text_3">
      <text style="fill: #333333; font: 20px 'Roboto', 'Arial', 'DejaVu Sans', sans-serif; text-anchor: end" x="39.306875" y="324.97877" transform="rotate(-0 39.306875 324.97877)">0  </text>
     </g>
    </g>
    <g id="ytick_2">
     <g id="line2d_6">
      <path d="M 42.306875 281.198691 
L 317.780907 281.198691 
" clip-path="url(#p75a2c36632)" style="fill: none; stroke-dasharray: 0.7,2.1; stroke-dashoffset: 0; stroke: #000000; stroke-opacity: 0.3; stroke-width: 0.7"/>
     </g>
     <g id="text_4">
      <text style="fill: #333333; font: 20px 'Roboto', 'Arial', 'DejaVu Sans', sans-serif; text-anchor: end" x="39.306875" y="286.784628" transform="rotate(-0 39.306875 286.784628)">10  </text>
     </g>
    </g>
    <g id="ytick_3">
     <g id="line2d_7">
      <path d="M 42.306875 243.00455 
L 317.780907 243.00455 
" clip-path="url(#p75a2c36632)" style="fill: none; stroke-dasharray: 0.7,2.1; stroke-dashoffset: 0; stroke: #000000; stroke-opacity: 0.3; stroke-width: 0.7"/>
     </g>
     <g id="text_5">
      <text style="fill: #333333; font: 20px 'Roboto', 'Arial', 'DejaVu Sans', sans-serif; text-anchor: end" x="39.306875" y="248.590487" transform="rotate(-0 39.306875 248.590487)">20  </text>
     </g>
    </g>
    <g id="ytick_4">
     <g id="line2d_8">
      <path d="M 42.306875 204.810408 
L 317.780907 204.810408 
" clip-path="url(#p75a2c36632)" style="fill: none; stroke-dasharray: 0.7,2.1; stroke-dashoffset: 0; stroke: #000000; stroke-opacity: 0.3; stroke-width: 0.7"/>
     </g>
     <g id="text_6">
      <text style="fill: #333333; font: 20px 'Roboto', 'Arial', 'DejaVu Sans', sans-serif; text-anchor: end" x="39.306875" y="210.396346" transform="rotate(-0 39.306875 210.396346)">30  </text>
     </g>
    </g>
    <g id="ytick_5">
     <g id="line2d_9">
      <path d="M 42.306875 166.616267 
L 317.780907 166.616267 
" clip-path="url(#p75a2c36632)" style="fill: none; stroke-dasharray: 0.7,2.1; stroke-dashoffset: 0; stroke: #000000; stroke-opacity: 0.3; stroke-width: 0.7"/>
     </g>
     <g id="text_7">
      <text style="fill: #333333; font: 20px 'Roboto', 'Arial', 'DejaVu Sans', sans-serif; text-anchor: end" x="39.306875" y="172.202204" transform="rotate(-0 39.306875 172.202204)">40  </text>
     </g>
    </g>
    <g id="ytick_6">
     <g id="line2d_10">
      <path d="M 42.306875 128.422125 
L 317.780907 128.422125 
" clip-path="url(#p75a2c36632)" style="fill: none; stroke-dasharray: 0.7,2.1; stroke-dashoffset: 0; stroke: #000000; stroke-opacity: 0.3; stroke-width: 0.7"/>
     </g>
     <g id="text_8">
      <text style="fill: #333333; font: 20px 'Roboto', 'Arial', 'DejaVu Sans', sans-serif; text-anchor: end" x="39.306875" y="134.008063" transform="rotate(-0 39.306875 134.008063)">50  </text>
     </g>
    </g>
    <g id="ytick_7">
     <g id="line2d_11">
      <path d="M 42.306875 90.227984 
L 317.780907 90.227984 
" clip-path="url(#p75a2c36632)" style="fill: none; stroke-dasharray: 0.7,2.1; stroke-dashoffset: 0; stroke: #000000; stroke-opacity: 0.3; stroke-width: 0.7"/>
     </g>
     <g id="text_9">
      <text style="fill: #333333; font: 20px 'Roboto', 'Arial', 'DejaVu Sans', sans-serif; text-anchor: end" x="39.306875" y="95.813921" transform="rotate(-0 39.306875 95.813921)">60  </text>
     </g>
    </g>
    <g id="ytick_8">
     <g id="line2d_12">
      <path d="M 42.306875 52.033843 
L 317.780907 52.033843 
" clip-path="url(#p75a2c36632)" style="fill: none; stroke-dasharray: 0.7,2.1; stroke-dashoffset: 0; stroke: #000000; stroke-opacity: 0.3; stroke-width: 0.7"/>
     </g>
     <g id="text_10">
      <text style="fill: #333333; font: 20px 'Roboto', 'Arial', 'DejaVu Sans', sans-serif; text-anchor: end" x="39.306875" y="57.61978" transform="rotate(-0 39.306875 57.61978)">70%</text>
     </g>
    </g>
   </g>
   <g id="line2d_13">
    <path d="M 42.306875 330.262885 
L 42.306875 52.033843 
" clip-path="url(#p75a2c36632)" style="fill: none; stroke: #000000; stroke-opacity: 0.7; stroke-width: 3"/>
   </g>
   <g id="line2d_14">
    <path d="M 42.306875 330.262885 
L 42.306875 52.033843 
" clip-path="url(#p75a2c36632)" style="fill: none; stroke: #000000; stroke-opacity: 0.7; stroke-width: 3"/>
   </g>
   <g id="line2d_15">
    <path d="M 42.306875 330.262885 
L 42.306875 52.033843 
" clip-path="url(#p75a2c36632)" style="fill: none; stroke: #000000; stroke-opacity: 0.7; stroke-width: 3"/>
   </g>
   <g id="line2d_16">
    <path d="M 42.306875 330.262885 
L 42.306875 52.033843 
" clip-path="url(#p75a2c36632)" style="fill: none; stroke: #000000; stroke-opacity: 0.7; stroke-width: 3"/>
   </g>
   <g id="line2d_17">
    <path d="M 317.780907 209.584676 
L 274.929391 209.62287 
L 236.669108 211.608965 
L 233.608286 211.799936 
L 230.547463 211.952713 
L 224.425818 212.334654 
L 215.24335 212.869372 
L 209.121705 213.251313 
L 201.469649 213.709643 
L 196.878415 214.244361 
L 173.922246 217.032533 
L 137.192375 220.775559 
L 134.131552 221.997772 
L 128.009907 224.404003 
L 120.357851 227.535922 
L 103.523326 234.219897 
L 97.401681 236.09141 
L 75.975923 242.622608 
L 69.854278 244.494121 
L 56.080577 248.733671 
L 53.019754 249.688524 
L 45.367698 249.039224 
L 42.306875 248.771865 
L 42.306875 248.771865 
" clip-path="url(#p75a2c36632)" style="fill: none; stroke: #888d8f; stroke-width: 4"/>
   </g>
   <g id="line2d_18">
    <path d="M 317.780907 234.410868 
L 313.189673 234.449062 
L 310.12885 234.410868 
L 304.007205 234.181703 
L 300.946383 234.028926 
L 294.824737 233.799761 
L 290.233503 233.608791 
L 276.459802 232.653937 
L 271.868568 232.844908 
L 255.034044 233.608791 
L 250.44281 233.799761 
L 245.851576 234.06712 
L 239.729931 234.296285 
L 235.138697 234.487256 
L 227.486641 234.792809 
L 222.895407 234.98378 
L 213.712939 235.365721 
L 209.121705 235.556692 
L 199.939238 235.976828 
L 181.574302 238.650417 
L 178.51348 239.070553 
L 170.861423 240.483736 
L 161.678955 242.240667 
L 157.087722 243.080938 
L 152.496488 244.035791 
L 144.844431 245.448975 
L 135.661964 247.282293 
L 131.07073 248.580894 
L 112.705794 253.240579 
L 106.584149 254.844733 
L 105.053738 255.188481 
L 53.019754 261.719679 
L 46.898109 261.337737 
L 42.306875 260.99399 
L 42.306875 260.99399 
" clip-path="url(#p75a2c36632)" style="fill: none; stroke: #f5700a; stroke-width: 4"/>
   </g>
   <g id="line2d_19">
    <path d="M 317.780907 209.584676 
L 274.929391 209.62287 
L 236.669108 211.608965 
L 233.608286 211.799936 
L 230.547463 211.952713 
L 224.425818 212.334654 
L 215.24335 212.869372 
L 209.121705 213.251313 
L 201.469649 213.709643 
L 196.878415 214.244361 
L 173.922246 217.032533 
L 137.192375 220.775559 
L 134.131552 221.997772 
L 128.009907 224.404003 
L 120.357851 227.535922 
L 103.523326 234.219897 
L 97.401681 236.09141 
L 75.975923 242.622608 
L 69.854278 244.494121 
L 56.080577 248.733671 
L 53.019754 249.688524 
L 45.367698 249.039224 
L 42.306875 248.771865 
L 42.306875 248.771865 
" clip-path="url(#p75a2c36632)" style="fill: none; stroke: #888d8f; stroke-width: 4"/>
   </g>
   <g id="line2d_20">
    <path d="M 317.780907 234.410868 
L 313.189673 234.449062 
L 310.12885 234.410868 
L 304.007205 234.181703 
L 300.946383 234.028926 
L 294.824737 233.799761 
L 290.233503 233.608791 
L 276.459802 232.653937 
L 271.868568 232.844908 
L 255.034044 233.608791 
L 250.44281 233.799761 
L 245.851576 234.06712 
L 239.729931 234.296285 
L 235.138697 234.487256 
L 227.486641 234.792809 
L 222.895407 234.98378 
L 213.712939 235.365721 
L 209.121705 235.556692 
L 199.939238 235.976828 
L 181.574302 238.650417 
L 178.51348 239.070553 
L 170.861423 240.483736 
L 161.678955 242.240667 
L 157.087722 243.080938 
L 152.496488 244.035791 
L 144.844431 245.448975 
L 135.661964 247.282293 
L 131.07073 248.580894 
L 112.705794 253.240579 
L 106.584149 254.844733 
L 105.053738 255.188481 
L 53.019754 261.719679 
L 46.898109 261.337737 
L 42.306875 260.99399 
L 42.306875 260.99399 
" clip-path="url(#p75a2c36632)" style="fill: none; stroke: #f5700a; stroke-width: 4"/>
   </g>
   <g id="line2d_21">
    <path d="M 317.780907 209.584676 
L 274.929391 209.62287 
L 236.669108 211.608965 
L 233.608286 211.799936 
L 230.547463 211.952713 
L 224.425818 212.334654 
L 215.24335 212.869372 
L 209.121705 213.251313 
L 201.469649 213.709643 
L 196.878415 214.244361 
L 173.922246 217.032533 
L 137.192375 220.775559 
L 134.131552 221.997772 
L 128.009907 224.404003 
L 120.357851 227.535922 
L 103.523326 234.219897 
L 97.401681 236.09141 
L 75.975923 242.622608 
L 69.854278 244.494121 
L 56.080577 248.733671 
L 53.019754 249.688524 
L 45.367698 249.039224 
L 42.306875 248.771865 
L 42.306875 248.771865 
" clip-path="url(#p75a2c36632)" style="fill: none; stroke: #888d8f; stroke-width: 4"/>
   </g>
   <g id="line2d_22">
    <path d="M 317.780907 234.410868 
L 313.189673 234.449062 
L 310.12885 234.410868 
L 304.007205 234.181703 
L 300.946383 234.028926 
L 294.824737 233.799761 
L 290.233503 233.608791 
L 276.459802 232.653937 
L 271.868568 232.844908 
L 255.034044 233.608791 
L 250.44281 233.799761 
L 245.851576 234.06712 
L 239.729931 234.296285 
L 235.138697 234.487256 
L 227.486641 234.792809 
L 222.895407 234.98378 
L 213.712939 235.365721 
L 209.121705 235.556692 
L 199.939238 235.976828 
L 181.574302 238.650417 
L 178.51348 239.070553 
L 170.861423 240.483736 
L 161.678955 242.240667 
L 157.087722 243.080938 
L 152.496488 244.035791 
L 144.844431 245.448975 
L 135.661964 247.282293 
L 131.07073 248.580894 
L 112.705794 253.240579 
L 106.584149 254.844733 
L 105.053738 255.188481 
L 53.019754 261.719679 
L 46.898109 261.337737 
L 42.306875 260.99399 
L 42.306875 260.99399 
" clip-path="url(#p75a2c36632)" style="fill: none; stroke: #f5700a; stroke-width: 4"/>
   </g>
   <g id="line2d_23">
    <path d="M 317.780907 209.584676 
L 274.929391 209.62287 
L 236.669108 211.608965 
L 233.608286 211.799936 
L 230.547463 211.952713 
L 224.425818 212.334654 
L 215.24335 212.869372 
L 209.121705 213.251313 
L 201.469649 213.709643 
L 196.878415 214.244361 
L 173.922246 217.032533 
L 137.192375 220.775559 
L 134.131552 221.997772 
L 128.009907 224.404003 
L 120.357851 227.535922 
L 103.523326 234.219897 
L 97.401681 236.09141 
L 75.975923 242.622608 
L 69.854278 244.494121 
L 56.080577 248.733671 
L 53.019754 249.688524 
L 45.367698 249.039224 
L 42.306875 248.771865 
L 42.306875 248.771865 
" clip-path="url(#p75a2c36632)" style="fill: none; stroke: #888d8f; stroke-width: 4"/>
   </g>
   <g id="line2d_24">
    <path d="M 317.780907 234.410868 
L 313.189673 234.449062 
L 310.12885 234.410868 
L 304.007205 234.181703 
L 300.946383 234.028926 
L 294.824737 233.799761 
L 290.233503 233.608791 
L 276.459802 232.653937 
L 271.868568 232.844908 
L 255.034044 233.608791 
L 250.44281 233.799761 
L 245.851576 234.06712 
L 239.729931 234.296285 
L 235.138697 234.487256 
L 227.486641 234.792809 
L 222.895407 234.98378 
L 213.712939 235.365721 
L 209.121705 235.556692 
L 199.939238 235.976828 
L 181.574302 238.650417 
L 178.51348 239.070553 
L 170.861423 240.483736 
L 161.678955 242.240667 
L 157.087722 243.080938 
L 152.496488 244.035791 
L 144.844431 245.448975 
L 135.661964 247.282293 
L 131.07073 248.580894 
L 112.705794 253.240579 
L 106.584149 254.844733 
L 105.053738 255.188481 
L 53.019754 261.719679 
L 46.898109 261.337737 
L 42.306875 260.99399 
L 42.306875 260.99399 
" clip-path="url(#p75a2c36632)" style="fill: none; stroke: #f5700a; stroke-width: 4"/>
   </g>
   <g id="line2d_25">
    <path d="M 317.780907 146.755313 
L 310.12885 146.831702 
L 297.88556 147.671973 
L 293.294326 147.977526 
L 288.703092 148.397661 
L 281.051036 149.314321 
L 279.520624 149.428903 
L 276.459802 149.849039 
L 273.398979 149.619874 
L 267.277334 149.237932 
L 258.094866 148.703214 
L 251.973221 148.321273 
L 244.321165 147.862943 
L 241.260342 147.671973 
L 232.077875 147.366419 
L 221.364996 146.90809 
L 216.773762 146.717119 
L 207.591294 146.335178 
L 203.00006 146.182401 
L 199.939238 145.227548 
L 161.678955 141.484522 
L 157.087722 141.064386 
L 138.722786 139.307456 
L 137.192375 139.192873 
L 132.601141 136.901225 
L 114.236205 127.620048 
L 103.523326 121.890927 
L 101.992915 120.859685 
L 88.219214 115.588894 
L 79.036746 112.036839 
L 68.323867 107.911871 
L 60.67181 104.970923 
L 53.019754 101.99178 
L 48.42852 103.213992 
L 42.306875 104.894534 
L 42.306875 104.894534 
" clip-path="url(#p75a2c36632)" style="fill: none; stroke: #068773; stroke-width: 4"/>
   </g>
   <g id="line2d_26">
    <path d="M 42.306875 319.392832 
L 317.780907 319.392832 
" clip-path="url(#p75a2c36632)" style="fill: none; stroke: #000000; stroke-opacity: 0.7; stroke-width: 2"/>
   </g>
   <g id="line2d_27">
    <path d="M 317.780907 146.755313 
L 310.12885 146.831702 
L 297.88556 147.671973 
L 293.294326 147.977526 
L 288.703092 148.397661 
L 281.051036 149.314321 
L 279.520624 149.428903 
L 276.459802 149.849039 
L 273.398979 149.619874 
L 267.277334 149.237932 
L 258.094866 148.703214 
L 251.973221 148.321273 
L 244.321165 147.862943 
L 241.260342 147.671973 
L 232.077875 147.366419 
L 221.364996 146.90809 
L 216.773762 146.717119 
L 207.591294 146.335178 
L 203.00006 146.182401 
L 199.939238 145.227548 
L 161.678955 141.484522 
L 157.087722 141.064386 
L 138.722786 139.307456 
L 137.192375 139.192873 
L 132.601141 136.901225 
L 114.236205 127.620048 
L 103.523326 121.890927 
L 101.992915 120.859685 
L 88.219214 115.588894 
L 79.036746 112.036839 
L 68.323867 107.911871 
L 60.67181 104.970923 
L 53.019754 101.99178 
L 48.42852 103.213992 
L 42.306875 104.894534 
L 42.306875 104.894534 
" clip-path="url(#p75a2c36632)" style="fill: none; stroke: #068773; stroke-width: 4"/>
   </g>
   <g id="line2d_28">
    <path d="M 42.306875 319.392832 
L 317.780907 319.392832 
" clip-path="url(#p75a2c36632)" style="fill: none; stroke: #000000; stroke-opacity: 0.7; stroke-width: 2"/>
   </g>
   <g id="line2d_29">
    <path d="M 317.780907 146.755313 
L 310.12885 146.831702 
L 297.88556 147.671973 
L 293.294326 147.977526 
L 288.703092 148.397661 
L 281.051036 149.314321 
L 279.520624 149.428903 
L 276.459802 149.849039 
L 273.398979 149.619874 
L 267.277334 149.237932 
L 258.094866 148.703214 
L 251.973221 148.321273 
L 244.321165 147.862943 
L 241.260342 147.671973 
L 232.077875 147.366419 
L 221.364996 146.90809 
L 216.773762 146.717119 
L 207.591294 146.335178 
L 203.00006 146.182401 
L 199.939238 145.227548 
L 161.678955 141.484522 
L 157.087722 141.064386 
L 138.722786 139.307456 
L 137.192375 139.192873 
L 132.601141 136.901225 
L 114.236205 127.620048 
L 103.523326 121.890927 
L 101.992915 120.859685 
L 88.219214 115.588894 
L 79.036746 112.036839 
L 68.323867 107.911871 
L 60.67181 104.970923 
L 53.019754 101.99178 
L 48.42852 103.213992 
L 42.306875 104.894534 
L 42.306875 104.894534 
" clip-path="url(#p75a2c36632)" style="fill: none; stroke: #068773; stroke-width: 4"/>
   </g>
   <g id="line2d_30">
    <path d="M 42.306875 319.392832 
L 317.780907 319.392832 
" clip-path="url(#p75a2c36632)" style="fill: none; stroke: #000000; stroke-opacity: 0.7; stroke-width: 2"/>
   </g>
   <g id="line2d_31">
    <path d="M 317.780907 146.755313 
L 310.12885 146.831702 
L 297.88556 147.671973 
L 293.294326 147.977526 
L 288.703092 148.397661 
L 281.051036 149.314321 
L 279.520624 149.428903 
L 276.459802 149.849039 
L 273.398979 149.619874 
L 267.277334 149.237932 
L 258.094866 148.703214 
L 251.973221 148.321273 
L 244.321165 147.862943 
L 241.260342 147.671973 
L 232.077875 147.366419 
L 221.364996 146.90809 
L 216.773762 146.717119 
L 207.591294 146.335178 
L 203.00006 146.182401 
L 199.939238 145.227548 
L 161.678955 141.484522 
L 157.087722 141.064386 
L 138.722786 139.307456 
L 137.192375 139.192873 
L 132.601141 136.901225 
L 114.236205 127.620048 
L 103.523326 121.890927 
L 101.992915 120.859685 
L 88.219214 115.588894 
L 79.036746 112.036839 
L 68.323867 107.911871 
L 60.67181 104.970923 
L 53.019754 101.99178 
L 48.42852 103.213992 
L 42.306875 104.894534 
L 42.306875 104.894534 
" clip-path="url(#p75a2c36632)" style="fill: none; stroke: #068773; stroke-width: 4"/>
   </g>
   <g id="line2d_32">
    <path d="M 42.306875 319.392832 
L 317.780907 319.392832 
" clip-path="url(#p75a2c36632)" style="fill: none; stroke: #000000; stroke-opacity: 0.7; stroke-width: 2"/>
   </g>
   <g id="text_11">
    <text style="fill: #808080; font: 700 14px 'Roboto', 'Arial', 'DejaVu Sans', sans-serif; text-anchor: middle" x="180.043891" y="48.251552" transform="rotate(-0 180.043891 48.251552)">FUNDAMENTAL</text>
   </g>
  </g>
  <g id="axes_2">
   <g id="patch_3">
    <path d="M 354.532432 330.262885 
L 630.006463 330.262885 
L 630.006463 52.033843 
L 354.532432 52.033843 
L 354.532432 330.262885 
z
" style="fill: none"/>
   </g>
   <g id="matplotlib.axis_3">
    <g id="xtick_3">
     <g id="line2d_33">
      <path d="M 354.532432 330.262885 
L 354.532432 52.033843 
" clip-path="url(#p8e33f8b44d)" style="fill: none; stroke-dasharray: 0.7,2.1; stroke-dashoffset: 0; stroke: #000000; stroke-opacity: 0.3; stroke-width: 0.7"/>
     </g>
     <g id="line2d_34"/>
     <g id="text_12">
      <text style="fill: #333333; font: 20px 'Roboto', 'Arial', 'DejaVu Sans', sans-serif; text-anchor: middle" x="354.532432" y="351.49726" transform="rotate(-0 354.532432 351.49726)">Jan</text>
     </g>
    </g>
    <g id="xtick_4">
     <g id="line2d_35">
      <path d="M 630.006463 330.262885 
L 630.006463 52.033843 
" clip-path="url(#p8e33f8b44d)" style="fill: none; stroke-dasharray: 0.7,2.1; stroke-dashoffset: 0; stroke: #000000; stroke-opacity: 0.3; stroke-width: 0.7"/>
     </g>
     <g id="line2d_36"/>
     <g id="text_13">
      <text style="fill: #333333; font: 20px 'Roboto', 'Arial', 'DejaVu Sans', sans-serif; text-anchor: middle" x="630.006463" y="351.49726" transform="rotate(-0 630.006463 351.49726)">Jul</text>
     </g>
    </g>
   </g>
   <g id="matplotlib.axis_4">
    <g id="ytick_9">
     <g id="line2d_37">
      <path d="M 354.532432 319.392832 
L 630.006463 319.392832 
" clip-path="url(#p8e33f8b44d)" style="fill: none; stroke-dasharray: 0.7,2.1; stroke-dashoffset: 0; stroke: #000000; stroke-opacity: 0.3; stroke-width: 0.7"/>
     </g>
    </g>
    <g id="ytick_10">
     <g id="line2d_38">
      <path d="M 354.532432 281.198691 
L 630.006463 281.198691 
" clip-path="url(#p8e33f8b44d)" style="fill: none; stroke-dasharray: 0.7,2.1; stroke-dashoffset: 0; stroke: #000000; stroke-opacity: 0.3; stroke-width: 0.7"/>
     </g>
    </g>
    <g id="ytick_11">
     <g id="line2d_39">
      <path d="M 354.532432 243.00455 
L 630.006463 243.00455 
" clip-path="url(#p8e33f8b44d)" style="fill: none; stroke-dasharray: 0.7,2.1; stroke-dashoffset: 0; stroke: #000000; stroke-opacity: 0.3; stroke-width: 0.7"/>
     </g>
    </g>
    <g id="ytick_12">
     <g id="line2d_40">
      <path d="M 354.532432 204.810408 
L 630.006463 204.810408 
" clip-path="url(#p8e33f8b44d)" style="fill: none; stroke-dasharray: 0.7,2.1; stroke-dashoffset: 0; stroke: #000000; stroke-opacity: 0.3; stroke-width: 0.7"/>
     </g>
    </g>
    <g id="ytick_13">
     <g id="line2d_41">
      <path d="M 354.532432 166.616267 
L 630.006463 166.616267 
" clip-path="url(#p8e33f8b44d)" style="fill: none; stroke-dasharray: 0.7,2.1; stroke-dashoffset: 0; stroke: #000000; stroke-opacity: 0.3; stroke-width: 0.7"/>
     </g>
    </g>
    <g id="ytick_14">
     <g id="line2d_42">
      <path d="M 354.532432 128.422125 
L 630.006463 128.422125 
" clip-path="url(#p8e33f8b44d)" style="fill: none; stroke-dasharray: 0.7,2.1; stroke-dashoffset: 0; stroke: #000000; stroke-opacity: 0.3; stroke-width: 0.7"/>
     </g>
    </g>
    <g id="ytick_15">
     <g id="line2d_43">
      <path d="M 354.532432 90.227984 
L 630.006463 90.227984 
" clip-path="url(#p8e33f8b44d)" style="fill: none; stroke-dasharray: 0.7,2.1; stroke-dashoffset: 0; stroke: #000000; stroke-opacity: 0.3; stroke-width: 0.7"/>
     </g>
    </g>
    <g id="ytick_16">
     <g id="line2d_44">
      <path d="M 354.532432 52.033843 
L 630.006463 52.033843 
" clip-path="url(#p8e33f8b44d)" style="fill: none; stroke-dasharray: 0.7,2.1; stroke-dashoffset: 0; stroke: #000000; stroke-opacity: 0.3; stroke-width: 0.7"/>
     </g>
    </g>
   </g>
   <g id="line2d_45">
    <path d="M 354.532432 330.262885 
L 354.532432 52.033843 
" clip-path="url(#p8e33f8b44d)" style="fill: none; stroke: #000000; stroke-opacity: 0.7; stroke-width: 3"/>
   </g>
   <g id="line2d_46">
    <path d="M 354.532432 330.262885 
L 354.532432 52.033843 
" clip-path="url(#p8e33f8b44d)" style="fill: none; stroke: #000000; stroke-opacity: 0.7; stroke-width: 3"/>
   </g>
   <g id="line2d_47">
    <path d="M 354.532432 330.262885 
L 354.532432 52.033843 
" clip-path="url(#p8e33f8b44d)" style="fill: none; stroke: #000000; stroke-opacity: 0.7; stroke-width: 3"/>
   </g>
   <g id="line2d_48">
    <path d="M 354.532432 330.262885 
L 354.532432 52.033843 
" clip-path="url(#p8e33f8b44d)" style="fill: none; stroke: #000000; stroke-opacity: 0.7; stroke-width: 3"/>
   </g>
   <g id="line2d_49">
    <path d="M 630.006463 207.063863 
L 623.884818 207.025668 
L 603.989471 205.956232 
L 591.746181 204.963185 
L 588.685359 204.73402 
L 530.52973 204.657632 
L 527.468907 204.619437 
L 524.408085 204.619437 
L 516.756028 204.543049 
L 513.695206 204.543049 
L 510.634383 204.619437 
L 506.043149 204.810408 
L 495.33027 205.268738 
L 487.678214 205.536097 
L 476.965335 206.261786 
L 472.374101 206.567339 
L 450.948343 208.095104 
L 449.417931 208.171493 
L 444.826698 210.043006 
L 437.174641 213.022149 
L 423.40094 218.407522 
L 414.218472 221.806801 
L 406.566415 223.983867 
L 397.383948 226.619263 
L 389.731891 228.796329 
L 377.488601 232.271996 
L 369.836545 234.449062 
L 365.245311 235.747663 
L 360.654077 235.136556 
L 356.062843 234.601838 
L 354.532432 234.410868 
L 354.532432 234.410868 
" clip-path="url(#p8e33f8b44d)" style="fill: none; stroke: #888d8f; stroke-width: 4"/>
   </g>
   <g id="line2d_50">
    <path d="M 630.006463 195.376455 
L 617.763173 195.758397 
L 614.70235 195.949367 
L 611.641528 196.102144 
L 607.050294 196.369503 
L 600.928649 196.751444 
L 577.97248 198.508375 
L 574.911657 198.813928 
L 562.668367 199.806976 
L 558.077133 200.188917 
L 548.894665 200.9528 
L 541.242609 201.640294 
L 535.120964 202.175012 
L 530.52973 202.556954 
L 521.347262 203.320837 
L 515.225617 203.931943 
L 512.164794 203.81736 
L 506.043149 205.077767 
L 502.982327 205.765262 
L 484.617391 209.813841 
L 469.313278 212.94576 
L 463.191633 214.244361 
L 455.539577 215.848515 
L 452.478754 216.497815 
L 447.88752 217.223504 
L 438.705052 218.063775 
L 432.583407 218.598493 
L 429.522585 218.94224 
L 423.40094 219.438764 
L 420.340117 219.744317 
L 417.279294 220.011676 
L 412.688061 219.629735 
L 401.975182 219.706123 
L 394.323125 219.820706 
L 379.019012 219.897094 
L 374.427778 219.935288 
L 365.245311 220.011676 
L 354.532432 221.272083 
L 354.532432 221.272083 
" clip-path="url(#p8e33f8b44d)" style="fill: none; stroke: #f5700a; stroke-width: 4"/>
   </g>
   <g id="line2d_51">
    <path d="M 630.006463 207.063863 
L 623.884818 207.025668 
L 603.989471 205.956232 
L 591.746181 204.963185 
L 588.685359 204.73402 
L 530.52973 204.657632 
L 527.468907 204.619437 
L 524.408085 204.619437 
L 516.756028 204.543049 
L 513.695206 204.543049 
L 510.634383 204.619437 
L 506.043149 204.810408 
L 495.33027 205.268738 
L 487.678214 205.536097 
L 476.965335 206.261786 
L 472.374101 206.567339 
L 450.948343 208.095104 
L 449.417931 208.171493 
L 444.826698 210.043006 
L 437.174641 213.022149 
L 423.40094 218.407522 
L 414.218472 221.806801 
L 406.566415 223.983867 
L 397.383948 226.619263 
L 389.731891 228.796329 
L 377.488601 232.271996 
L 369.836545 234.449062 
L 365.245311 235.747663 
L 360.654077 235.136556 
L 356.062843 234.601838 
L 354.532432 234.410868 
L 354.532432 234.410868 
" clip-path="url(#p8e33f8b44d)" style="fill: none; stroke: #888d8f; stroke-width: 4"/>
   </g>
   <g id="line2d_52">
    <path d="M 630.006463 195.376455 
L 617.763173 195.758397 
L 614.70235 195.949367 
L 611.641528 196.102144 
L 607.050294 196.369503 
L 600.928649 196.751444 
L 577.97248 198.508375 
L 574.911657 198.813928 
L 562.668367 199.806976 
L 558.077133 200.188917 
L 548.894665 200.9528 
L 541.242609 201.640294 
L 535.120964 202.175012 
L 530.52973 202.556954 
L 521.347262 203.320837 
L 515.225617 203.931943 
L 512.164794 203.81736 
L 506.043149 205.077767 
L 502.982327 205.765262 
L 484.617391 209.813841 
L 469.313278 212.94576 
L 463.191633 214.244361 
L 455.539577 215.848515 
L 452.478754 216.497815 
L 447.88752 217.223504 
L 438.705052 218.063775 
L 432.583407 218.598493 
L 429.522585 218.94224 
L 423.40094 219.438764 
L 420.340117 219.744317 
L 417.279294 220.011676 
L 412.688061 219.629735 
L 401.975182 219.706123 
L 394.323125 219.820706 
L 379.019012 219.897094 
L 374.427778 219.935288 
L 365.245311 220.011676 
L 354.532432 221.272083 
L 354.532432 221.272083 
" clip-path="url(#p8e33f8b44d)" style="fill: none; stroke: #f5700a; stroke-width: 4"/>
   </g>
   <g id="line2d_53">
    <path d="M 630.006463 207.063863 
L 623.884818 207.025668 
L 603.989471 205.956232 
L 591.746181 204.963185 
L 588.685359 204.73402 
L 530.52973 204.657632 
L 527.468907 204.619437 
L 524.408085 204.619437 
L 516.756028 204.543049 
L 513.695206 204.543049 
L 510.634383 204.619437 
L 506.043149 204.810408 
L 495.33027 205.268738 
L 487.678214 205.536097 
L 476.965335 206.261786 
L 472.374101 206.567339 
L 450.948343 208.095104 
L 449.417931 208.171493 
L 444.826698 210.043006 
L 437.174641 213.022149 
L 423.40094 218.407522 
L 414.218472 221.806801 
L 406.566415 223.983867 
L 397.383948 226.619263 
L 389.731891 228.796329 
L 377.488601 232.271996 
L 369.836545 234.449062 
L 365.245311 235.747663 
L 360.654077 235.136556 
L 356.062843 234.601838 
L 354.532432 234.410868 
L 354.532432 234.410868 
" clip-path="url(#p8e33f8b44d)" style="fill: none; stroke: #888d8f; stroke-width: 4"/>
   </g>
   <g id="line2d_54">
    <path d="M 630.006463 195.376455 
L 617.763173 195.758397 
L 614.70235 195.949367 
L 611.641528 196.102144 
L 607.050294 196.369503 
L 600.928649 196.751444 
L 577.97248 198.508375 
L 574.911657 198.813928 
L 562.668367 199.806976 
L 558.077133 200.188917 
L 548.894665 200.9528 
L 541.242609 201.640294 
L 535.120964 202.175012 
L 530.52973 202.556954 
L 521.347262 203.320837 
L 515.225617 203.931943 
L 512.164794 203.81736 
L 506.043149 205.077767 
L 502.982327 205.765262 
L 484.617391 209.813841 
L 469.313278 212.94576 
L 463.191633 214.244361 
L 455.539577 215.848515 
L 452.478754 216.497815 
L 447.88752 217.223504 
L 438.705052 218.063775 
L 432.583407 218.598493 
L 429.522585 218.94224 
L 423.40094 219.438764 
L 420.340117 219.744317 
L 417.279294 220.011676 
L 412.688061 219.629735 
L 401.975182 219.706123 
L 394.323125 219.820706 
L 379.019012 219.897094 
L 374.427778 219.935288 
L 365.245311 220.011676 
L 354.532432 221.272083 
L 354.532432 221.272083 
" clip-path="url(#p8e33f8b44d)" style="fill: none; stroke: #f5700a; stroke-width: 4"/>
   </g>
   <g id="line2d_55">
    <path d="M 630.006463 207.063863 
L 623.884818 207.025668 
L 603.989471 205.956232 
L 591.746181 204.963185 
L 588.685359 204.73402 
L 530.52973 204.657632 
L 527.468907 204.619437 
L 524.408085 204.619437 
L 516.756028 204.543049 
L 513.695206 204.543049 
L 510.634383 204.619437 
L 506.043149 204.810408 
L 495.33027 205.268738 
L 487.678214 205.536097 
L 476.965335 206.261786 
L 472.374101 206.567339 
L 450.948343 208.095104 
L 449.417931 208.171493 
L 444.826698 210.043006 
L 437.174641 213.022149 
L 423.40094 218.407522 
L 414.218472 221.806801 
L 406.566415 223.983867 
L 397.383948 226.619263 
L 389.731891 228.796329 
L 377.488601 232.271996 
L 369.836545 234.449062 
L 365.245311 235.747663 
L 360.654077 235.136556 
L 356.062843 234.601838 
L 354.532432 234.410868 
L 354.532432 234.410868 
" clip-path="url(#p8e33f8b44d)" style="fill: none; stroke: #888d8f; stroke-width: 4"/>
   </g>
   <g id="line2d_56">
    <path d="M 630.006463 195.376455 
L 617.763173 195.758397 
L 614.70235 195.949367 
L 611.641528 196.102144 
L 607.050294 196.369503 
L 600.928649 196.751444 
L 577.97248 198.508375 
L 574.911657 198.813928 
L 562.668367 199.806976 
L 558.077133 200.188917 
L 548.894665 200.9528 
L 541.242609 201.640294 
L 535.120964 202.175012 
L 530.52973 202.556954 
L 521.347262 203.320837 
L 515.225617 203.931943 
L 512.164794 203.81736 
L 506.043149 205.077767 
L 502.982327 205.765262 
L 484.617391 209.813841 
L 469.313278 212.94576 
L 463.191633 214.244361 
L 455.539577 215.848515 
L 452.478754 216.497815 
L 447.88752 217.223504 
L 438.705052 218.063775 
L 432.583407 218.598493 
L 429.522585 218.94224 
L 423.40094 219.438764 
L 420.340117 219.744317 
L 417.279294 220.011676 
L 412.688061 219.629735 
L 401.975182 219.706123 
L 394.323125 219.820706 
L 379.019012 219.897094 
L 374.427778 219.935288 
L 365.245311 220.011676 
L 354.532432 221.272083 
L 354.532432 221.272083 
" clip-path="url(#p8e33f8b44d)" style="fill: none; stroke: #f5700a; stroke-width: 4"/>
   </g>
   <g id="line2d_57">
    <path d="M 630.006463 187.279297 
L 620.823996 187.355686 
L 588.685359 188.157763 
L 584.094125 187.890404 
L 576.442068 187.432074 
L 568.790012 186.93555 
L 545.833843 185.866114 
L 515.225617 185.140425 
L 512.164794 184.300154 
L 509.103972 183.994601 
L 496.860681 182.696 
L 492.269448 182.199476 
L 489.208625 181.932117 
L 481.556568 181.053652 
L 469.313278 179.755051 
L 464.722044 179.258528 
L 449.417931 177.692568 
L 444.826698 175.706472 
L 440.235464 173.758571 
L 437.174641 172.421776 
L 434.113819 171.16137 
L 427.992173 168.48778 
L 421.870528 165.928772 
L 417.279294 163.866289 
L 414.218472 162.071164 
L 405.036004 159.206603 
L 382.079835 152.217075 
L 371.366956 148.855991 
L 365.245311 146.984478 
L 360.654077 147.595584 
L 354.532432 148.397661 
L 354.532432 148.397661 
" clip-path="url(#p8e33f8b44d)" style="fill: none; stroke: #068773; stroke-width: 4"/>
   </g>
   <g id="line2d_58">
    <path d="M 354.532432 319.392832 
L 630.006463 319.392832 
" clip-path="url(#p8e33f8b44d)" style="fill: none; stroke: #000000; stroke-opacity: 0.7; stroke-width: 2"/>
   </g>
   <g id="line2d_59">
    <path d="M 630.006463 187.279297 
L 620.823996 187.355686 
L 588.685359 188.157763 
L 584.094125 187.890404 
L 576.442068 187.432074 
L 568.790012 186.93555 
L 545.833843 185.866114 
L 515.225617 185.140425 
L 512.164794 184.300154 
L 509.103972 183.994601 
L 496.860681 182.696 
L 492.269448 182.199476 
L 489.208625 181.932117 
L 481.556568 181.053652 
L 469.313278 179.755051 
L 464.722044 179.258528 
L 449.417931 177.692568 
L 444.826698 175.706472 
L 440.235464 173.758571 
L 437.174641 172.421776 
L 434.113819 171.16137 
L 427.992173 168.48778 
L 421.870528 165.928772 
L 417.279294 163.866289 
L 414.218472 162.071164 
L 405.036004 159.206603 
L 382.079835 152.217075 
L 371.366956 148.855991 
L 365.245311 146.984478 
L 360.654077 147.595584 
L 354.532432 148.397661 
L 354.532432 148.397661 
" clip-path="url(#p8e33f8b44d)" style="fill: none; stroke: #068773; stroke-width: 4"/>
   </g>
   <g id="line2d_60">
    <path d="M 354.532432 319.392832 
L 630.006463 319.392832 
" clip-path="url(#p8e33f8b44d)" style="fill: none; stroke: #000000; stroke-opacity: 0.7; stroke-width: 2"/>
   </g>
   <g id="line2d_61">
    <path d="M 630.006463 187.279297 
L 620.823996 187.355686 
L 588.685359 188.157763 
L 584.094125 187.890404 
L 576.442068 187.432074 
L 568.790012 186.93555 
L 545.833843 185.866114 
L 515.225617 185.140425 
L 512.164794 184.300154 
L 509.103972 183.994601 
L 496.860681 182.696 
L 492.269448 182.199476 
L 489.208625 181.932117 
L 481.556568 181.053652 
L 469.313278 179.755051 
L 464.722044 179.258528 
L 449.417931 177.692568 
L 444.826698 175.706472 
L 440.235464 173.758571 
L 437.174641 172.421776 
L 434.113819 171.16137 
L 427.992173 168.48778 
L 421.870528 165.928772 
L 417.279294 163.866289 
L 414.218472 162.071164 
L 405.036004 159.206603 
L 382.079835 152.217075 
L 371.366956 148.855991 
L 365.245311 146.984478 
L 360.654077 147.595584 
L 354.532432 148.397661 
L 354.532432 148.397661 
" clip-path="url(#p8e33f8b44d)" style="fill: none; stroke: #068773; stroke-width: 4"/>
   </g>
   <g id="line2d_62">
    <path d="M 354.532432 319.392832 
L 630.006463 319.392832 
" clip-path="url(#p8e33f8b44d)" style="fill: none; stroke: #000000; stroke-opacity: 0.7; stroke-width: 2"/>
   </g>
   <g id="line2d_63">
    <path d="M 630.006463 187.279297 
L 620.823996 187.355686 
L 588.685359 188.157763 
L 584.094125 187.890404 
L 576.442068 187.432074 
L 568.790012 186.93555 
L 545.833843 185.866114 
L 515.225617 185.140425 
L 512.164794 184.300154 
L 509.103972 183.994601 
L 496.860681 182.696 
L 492.269448 182.199476 
L 489.208625 181.932117 
L 481.556568 181.053652 
L 469.313278 179.755051 
L 464.722044 179.258528 
L 449.417931 177.692568 
L 444.826698 175.706472 
L 440.235464 173.758571 
L 437.174641 172.421776 
L 434.113819 171.16137 
L 427.992173 168.48778 
L 421.870528 165.928772 
L 417.279294 163.866289 
L 414.218472 162.071164 
L 405.036004 159.206603 
L 382.079835 152.217075 
L 371.366956 148.855991 
L 365.245311 146.984478 
L 360.654077 147.595584 
L 354.532432 148.397661 
L 354.532432 148.397661 
" clip-path="url(#p8e33f8b44d)" style="fill: none; stroke: #068773; stroke-width: 4"/>
   </g>
   <g id="line2d_64">
    <path d="M 354.532432 319.392832 
L 630.006463 319.392832 
" clip-path="url(#p8e33f8b44d)" style="fill: none; stroke: #000000; stroke-opacity: 0.7; stroke-width: 2"/>
   </g>
   <g id="text_14">
    <text style="fill: #808080; font: 700 14px 'Roboto', 'Arial', 'DejaVu Sans', sans-serif; text-anchor: middle" x="492.269448" y="48.251552" transform="rotate(-0 492.269448 48.251552)">MÉDIO</text>
   </g>
  </g>
  <g id="axes_3">
   <g id="patch_4">
    <path d="M 666.757988 330.262885 
L 942.23202 330.262885 
L 942.23202 52.033843 
L 666.757988 52.033843 
L 666.757988 330.262885 
z
" style="fill: none"/>
   </g>
   <g id="matplotlib.axis_5">
    <g id="xtick_5">
     <g id="line2d_65">
      <path d="M 666.757988 330.262885 
L 666.757988 52.033843 
" clip-path="url(#p7458ca7b48)" style="fill: none; stroke-dasharray: 0.7,2.1; stroke-dashoffset: 0; stroke: #000000; stroke-opacity: 0.3; stroke-width: 0.7"/>
     </g>
     <g id="line2d_66"/>
     <g id="text_15">
      <text style="fill: #333333; font: 20px 'Roboto', 'Arial', 'DejaVu Sans', sans-serif; text-anchor: middle" x="666.757988" y="351.49726" transform="rotate(-0 666.757988 351.49726)">Jan</text>
     </g>
    </g>
    <g id="xtick_6">
     <g id="line2d_67">
      <path d="M 942.23202 330.262885 
L 942.23202 52.033843 
" clip-path="url(#p7458ca7b48)" style="fill: none; stroke-dasharray: 0.7,2.1; stroke-dashoffset: 0; stroke: #000000; stroke-opacity: 0.3; stroke-width: 0.7"/>
     </g>
     <g id="line2d_68"/>
     <g id="text_16">
      <text style="fill: #333333; font: 20px 'Roboto', 'Arial', 'DejaVu Sans', sans-serif; text-anchor: middle" x="942.23202" y="351.49726" transform="rotate(-0 942.23202 351.49726)">Jul</text>
     </g>
    </g>
   </g>
   <g id="matplotlib.axis_6">
    <g id="ytick_17">
     <g id="line2d_69">
      <path d="M 666.757988 319.392832 
L 942.23202 319.392832 
" clip-path="url(#p7458ca7b48)" style="fill: none; stroke-dasharray: 0.7,2.1; stroke-dashoffset: 0; stroke: #000000; stroke-opacity: 0.3; stroke-width: 0.7"/>
     </g>
    </g>
    <g id="ytick_18">
     <g id="line2d_70">
      <path d="M 666.757988 281.198691 
L 942.23202 281.198691 
" clip-path="url(#p7458ca7b48)" style="fill: none; stroke-dasharray: 0.7,2.1; stroke-dashoffset: 0; stroke: #000000; stroke-opacity: 0.3; stroke-width: 0.7"/>
     </g>
    </g>
    <g id="ytick_19">
     <g id="line2d_71">
      <path d="M 666.757988 243.00455 
L 942.23202 243.00455 
" clip-path="url(#p7458ca7b48)" style="fill: none; stroke-dasharray: 0.7,2.1; stroke-dashoffset: 0; stroke: #000000; stroke-opacity: 0.3; stroke-width: 0.7"/>
     </g>
    </g>
    <g id="ytick_20">
     <g id="line2d_72">
      <path d="M 666.757988 204.810408 
L 942.23202 204.810408 
" clip-path="url(#p7458ca7b48)" style="fill: none; stroke-dasharray: 0.7,2.1; stroke-dashoffset: 0; stroke: #000000; stroke-opacity: 0.3; stroke-width: 0.7"/>
     </g>
    </g>
    <g id="ytick_21">
     <g id="line2d_73">
      <path d="M 666.757988 166.616267 
L 942.23202 166.616267 
" clip-path="url(#p7458ca7b48)" style="fill: none; stroke-dasharray: 0.7,2.1; stroke-dashoffset: 0; stroke: #000000; stroke-opacity: 0.3; stroke-width: 0.7"/>
     </g>
    </g>
    <g id="ytick_22">
     <g id="line2d_74">
      <path d="M 666.757988 128.422125 
L 942.23202 128.422125 
" clip-path="url(#p7458ca7b48)" style="fill: none; stroke-dasharray: 0.7,2.1; stroke-dashoffset: 0; stroke: #000000; stroke-opacity: 0.3; stroke-width: 0.7"/>
     </g>
    </g>
    <g id="ytick_23">
     <g id="line2d_75">
      <path d="M 666.757988 90.227984 
L 942.23202 90.227984 
" clip-path="url(#p7458ca7b48)" style="fill: none; stroke-dasharray: 0.7,2.1; stroke-dashoffset: 0; stroke: #000000; stroke-opacity: 0.3; stroke-width: 0.7"/>
     </g>
    </g>
    <g id="ytick_24">
     <g id="line2d_76">
      <path d="M 666.757988 52.033843 
L 942.23202 52.033843 
" clip-path="url(#p7458ca7b48)" style="fill: none; stroke-dasharray: 0.7,2.1; stroke-dashoffset: 0; stroke: #000000; stroke-opacity: 0.3; stroke-width: 0.7"/>
     </g>
    </g>
   </g>
   <g id="line2d_77">
    <path d="M 666.757988 330.262885 
L 666.757988 52.033843 
" clip-path="url(#p7458ca7b48)" style="fill: none; stroke: #000000; stroke-opacity: 0.7; stroke-width: 3"/>
   </g>
   <g id="line2d_78">
    <path d="M 666.757988 330.262885 
L 666.757988 52.033843 
" clip-path="url(#p7458ca7b48)" style="fill: none; stroke: #000000; stroke-opacity: 0.7; stroke-width: 3"/>
   </g>
   <g id="line2d_79">
    <path d="M 666.757988 330.262885 
L 666.757988 52.033843 
" clip-path="url(#p7458ca7b48)" style="fill: none; stroke: #000000; stroke-opacity: 0.7; stroke-width: 3"/>
   </g>
   <g id="line2d_80">
    <path d="M 666.757988 330.262885 
L 666.757988 52.033843 
" clip-path="url(#p7458ca7b48)" style="fill: none; stroke: #000000; stroke-opacity: 0.7; stroke-width: 3"/>
   </g>
   <g id="line2d_81">
    <path d="M 942.23202 217.796416 
L 936.110375 217.872805 
L 928.458318 217.376281 
L 922.336673 216.994339 
L 916.215028 216.574204 
L 907.03256 214.893661 
L 902.441327 214.015196 
L 900.910915 213.786031 
L 897.850093 214.015196 
L 879.485157 215.466574 
L 876.424335 215.695738 
L 865.711456 216.421427 
L 836.633641 217.223504 
L 828.981585 217.529057 
L 827.451173 217.567251 
L 824.390351 218.331134 
L 816.738294 219.591541 
L 804.495004 221.501248 
L 799.90377 222.303325 
L 795.312536 223.372761 
L 783.069246 226.199127 
L 775.41719 228.032446 
L 761.643488 231.20256 
L 749.400198 235.060168 
L 738.687319 238.383058 
L 734.096085 239.910824 
L 727.97444 241.858725 
L 726.444029 242.393443 
L 697.366214 245.945498 
L 691.244569 246.632993 
L 688.183746 247.014934 
L 677.470867 248.313535 
L 666.757988 245.678139 
L 666.757988 245.678139 
" clip-path="url(#p7458ca7b48)" style="fill: none; stroke: #888d8f; stroke-width: 4"/>
   </g>
   <g id="line2d_82">
    <path d="M 942.23202 183.765436 
L 934.579964 183.80363 
L 910.093383 184.949455 
L 900.910915 185.102231 
L 890.198036 184.91126 
L 884.076391 184.834872 
L 859.589811 184.300154 
L 853.468165 184.223766 
L 844.285698 184.070989 
L 839.694464 183.994601 
L 827.451173 183.689048 
L 824.390351 182.772389 
L 802.964593 187.661239 
L 798.373359 188.845257 
L 792.251714 190.71677 
L 781.538835 194.03966 
L 769.295545 197.897269 
L 755.521843 201.907653 
L 731.035262 208.744405 
L 729.504851 209.202734 
L 726.444029 208.51524 
L 714.200738 209.355511 
L 709.609504 209.62287 
L 705.018271 210.004811 
L 677.470867 212.067295 
L 666.757988 213.900614 
L 666.757988 213.900614 
" clip-path="url(#p7458ca7b48)" style="fill: none; stroke: #f5700a; stroke-width: 4"/>
   </g>
   <g id="line2d_83">
    <path d="M 942.23202 217.796416 
L 936.110375 217.872805 
L 928.458318 217.376281 
L 922.336673 216.994339 
L 916.215028 216.574204 
L 907.03256 214.893661 
L 902.441327 214.015196 
L 900.910915 213.786031 
L 897.850093 214.015196 
L 879.485157 215.466574 
L 876.424335 215.695738 
L 865.711456 216.421427 
L 836.633641 217.223504 
L 828.981585 217.529057 
L 827.451173 217.567251 
L 824.390351 218.331134 
L 816.738294 219.591541 
L 804.495004 221.501248 
L 799.90377 222.303325 
L 795.312536 223.372761 
L 783.069246 226.199127 
L 775.41719 228.032446 
L 761.643488 231.20256 
L 749.400198 235.060168 
L 738.687319 238.383058 
L 734.096085 239.910824 
L 727.97444 241.858725 
L 726.444029 242.393443 
L 697.366214 245.945498 
L 691.244569 246.632993 
L 688.183746 247.014934 
L 677.470867 248.313535 
L 666.757988 245.678139 
L 666.757988 245.678139 
" clip-path="url(#p7458ca7b48)" style="fill: none; stroke: #888d8f; stroke-width: 4"/>
   </g>
   <g id="line2d_84">
    <path d="M 942.23202 183.765436 
L 934.579964 183.80363 
L 910.093383 184.949455 
L 900.910915 185.102231 
L 890.198036 184.91126 
L 884.076391 184.834872 
L 859.589811 184.300154 
L 853.468165 184.223766 
L 844.285698 184.070989 
L 839.694464 183.994601 
L 827.451173 183.689048 
L 824.390351 182.772389 
L 802.964593 187.661239 
L 798.373359 188.845257 
L 792.251714 190.71677 
L 781.538835 194.03966 
L 769.295545 197.897269 
L 755.521843 201.907653 
L 731.035262 208.744405 
L 729.504851 209.202734 
L 726.444029 208.51524 
L 714.200738 209.355511 
L 709.609504 209.62287 
L 705.018271 210.004811 
L 677.470867 212.067295 
L 666.757988 213.900614 
L 666.757988 213.900614 
" clip-path="url(#p7458ca7b48)" style="fill: none; stroke: #f5700a; stroke-width: 4"/>
   </g>
   <g id="line2d_85">
    <path d="M 942.23202 217.796416 
L 936.110375 217.872805 
L 928.458318 217.376281 
L 922.336673 216.994339 
L 916.215028 216.574204 
L 907.03256 214.893661 
L 902.441327 214.015196 
L 900.910915 213.786031 
L 897.850093 214.015196 
L 879.485157 215.466574 
L 876.424335 215.695738 
L 865.711456 216.421427 
L 836.633641 217.223504 
L 828.981585 217.529057 
L 827.451173 217.567251 
L 824.390351 218.331134 
L 816.738294 219.591541 
L 804.495004 221.501248 
L 799.90377 222.303325 
L 795.312536 223.372761 
L 783.069246 226.199127 
L 775.41719 228.032446 
L 761.643488 231.20256 
L 749.400198 235.060168 
L 738.687319 238.383058 
L 734.096085 239.910824 
L 727.97444 241.858725 
L 726.444029 242.393443 
L 697.366214 245.945498 
L 691.244569 246.632993 
L 688.183746 247.014934 
L 677.470867 248.313535 
L 666.757988 245.678139 
L 666.757988 245.678139 
" clip-path="url(#p7458ca7b48)" style="fill: none; stroke: #888d8f; stroke-width: 4"/>
   </g>
   <g id="line2d_86">
    <path d="M 942.23202 183.765436 
L 934.579964 183.80363 
L 910.093383 184.949455 
L 900.910915 185.102231 
L 890.198036 184.91126 
L 884.076391 184.834872 
L 859.589811 184.300154 
L 853.468165 184.223766 
L 844.285698 184.070989 
L 839.694464 183.994601 
L 827.451173 183.689048 
L 824.390351 182.772389 
L 802.964593 187.661239 
L 798.373359 188.845257 
L 792.251714 190.71677 
L 781.538835 194.03966 
L 769.295545 197.897269 
L 755.521843 201.907653 
L 731.035262 208.744405 
L 729.504851 209.202734 
L 726.444029 208.51524 
L 714.200738 209.355511 
L 709.609504 209.62287 
L 705.018271 210.004811 
L 677.470867 212.067295 
L 666.757988 213.900614 
L 666.757988 213.900614 
" clip-path="url(#p7458ca7b48)" style="fill: none; stroke: #f5700a; stroke-width: 4"/>
   </g>
   <g id="line2d_87">
    <path d="M 942.23202 217.796416 
L 936.110375 217.872805 
L 928.458318 217.376281 
L 922.336673 216.994339 
L 916.215028 216.574204 
L 907.03256 214.893661 
L 902.441327 214.015196 
L 900.910915 213.786031 
L 897.850093 214.015196 
L 879.485157 215.466574 
L 876.424335 215.695738 
L 865.711456 216.421427 
L 836.633641 217.223504 
L 828.981585 217.529057 
L 827.451173 217.567251 
L 824.390351 218.331134 
L 816.738294 219.591541 
L 804.495004 221.501248 
L 799.90377 222.303325 
L 795.312536 223.372761 
L 783.069246 226.199127 
L 775.41719 228.032446 
L 761.643488 231.20256 
L 749.400198 235.060168 
L 738.687319 238.383058 
L 734.096085 239.910824 
L 727.97444 241.858725 
L 726.444029 242.393443 
L 697.366214 245.945498 
L 691.244569 246.632993 
L 688.183746 247.014934 
L 677.470867 248.313535 
L 666.757988 245.678139 
L 666.757988 245.678139 
" clip-path="url(#p7458ca7b48)" style="fill: none; stroke: #888d8f; stroke-width: 4"/>
   </g>
   <g id="line2d_88">
    <path d="M 942.23202 183.765436 
L 934.579964 183.80363 
L 910.093383 184.949455 
L 900.910915 185.102231 
L 890.198036 184.91126 
L 884.076391 184.834872 
L 859.589811 184.300154 
L 853.468165 184.223766 
L 844.285698 184.070989 
L 839.694464 183.994601 
L 827.451173 183.689048 
L 824.390351 182.772389 
L 802.964593 187.661239 
L 798.373359 188.845257 
L 792.251714 190.71677 
L 781.538835 194.03966 
L 769.295545 197.897269 
L 755.521843 201.907653 
L 731.035262 208.744405 
L 729.504851 209.202734 
L 726.444029 208.51524 
L 714.200738 209.355511 
L 709.609504 209.62287 
L 705.018271 210.004811 
L 677.470867 212.067295 
L 666.757988 213.900614 
L 666.757988 213.900614 
" clip-path="url(#p7458ca7b48)" style="fill: none; stroke: #f5700a; stroke-width: 4"/>
   </g>
   <g id="line2d_89">
    <path d="M 942.23202 188.004986 
L 934.579964 188.081374 
L 931.519141 188.272345 
L 928.458318 188.425122 
L 916.215028 189.036228 
L 900.910915 192.435506 
L 894.78927 191.595235 
L 881.015569 189.914693 
L 879.485157 189.800111 
L 873.363512 188.959839 
L 865.711456 188.081374 
L 858.059399 187.58485 
L 853.468165 187.279297 
L 845.816109 186.782773 
L 839.694464 186.400832 
L 833.572819 186.018891 
L 827.451173 185.636949 
L 824.390351 185.36959 
L 810.616649 182.008506 
L 806.025415 180.900876 
L 799.90377 179.449498 
L 792.251714 176.470355 
L 783.069246 172.880106 
L 780.008424 171.734282 
L 772.356367 168.793333 
L 761.643488 164.668366 
L 752.46102 159.970486 
L 734.096085 150.727504 
L 729.504851 148.321273 
L 726.444029 147.213643 
L 677.470867 133.769305 
L 669.818811 135.56443 
L 666.757988 136.251924 
L 666.757988 136.251924 
" clip-path="url(#p7458ca7b48)" style="fill: none; stroke: #068773; stroke-width: 4"/>
   </g>
   <g id="line2d_90">
    <path d="M 666.757988 319.392832 
L 942.23202 319.392832 
" clip-path="url(#p7458ca7b48)" style="fill: none; stroke: #000000; stroke-opacity: 0.7; stroke-width: 2"/>
   </g>
   <g id="line2d_91">
    <path d="M 942.23202 188.004986 
L 934.579964 188.081374 
L 931.519141 188.272345 
L 928.458318 188.425122 
L 916.215028 189.036228 
L 900.910915 192.435506 
L 894.78927 191.595235 
L 881.015569 189.914693 
L 879.485157 189.800111 
L 873.363512 188.959839 
L 865.711456 188.081374 
L 858.059399 187.58485 
L 853.468165 187.279297 
L 845.816109 186.782773 
L 839.694464 186.400832 
L 833.572819 186.018891 
L 827.451173 185.636949 
L 824.390351 185.36959 
L 810.616649 182.008506 
L 806.025415 180.900876 
L 799.90377 179.449498 
L 792.251714 176.470355 
L 783.069246 172.880106 
L 780.008424 171.734282 
L 772.356367 168.793333 
L 761.643488 164.668366 
L 752.46102 159.970486 
L 734.096085 150.727504 
L 729.504851 148.321273 
L 726.444029 147.213643 
L 677.470867 133.769305 
L 669.818811 135.56443 
L 666.757988 136.251924 
L 666.757988 136.251924 
" clip-path="url(#p7458ca7b48)" style="fill: none; stroke: #068773; stroke-width: 4"/>
   </g>
   <g id="line2d_92">
    <path d="M 666.757988 319.392832 
L 942.23202 319.392832 
" clip-path="url(#p7458ca7b48)" style="fill: none; stroke: #000000; stroke-opacity: 0.7; stroke-width: 2"/>
   </g>
   <g id="line2d_93">
    <path d="M 942.23202 188.004986 
L 934.579964 188.081374 
L 931.519141 188.272345 
L 928.458318 188.425122 
L 916.215028 189.036228 
L 900.910915 192.435506 
L 894.78927 191.595235 
L 881.015569 189.914693 
L 879.485157 189.800111 
L 873.363512 188.959839 
L 865.711456 188.081374 
L 858.059399 187.58485 
L 853.468165 187.279297 
L 845.816109 186.782773 
L 839.694464 186.400832 
L 833.572819 186.018891 
L 827.451173 185.636949 
L 824.390351 185.36959 
L 810.616649 182.008506 
L 806.025415 180.900876 
L 799.90377 179.449498 
L 792.251714 176.470355 
L 783.069246 172.880106 
L 780.008424 171.734282 
L 772.356367 168.793333 
L 761.643488 164.668366 
L 752.46102 159.970486 
L 734.096085 150.727504 
L 729.504851 148.321273 
L 726.444029 147.213643 
L 677.470867 133.769305 
L 669.818811 135.56443 
L 666.757988 136.251924 
L 666.757988 136.251924 
" clip-path="url(#p7458ca7b48)" style="fill: none; stroke: #068773; stroke-width: 4"/>
   </g>
   <g id="line2d_94">
    <path d="M 666.757988 319.392832 
L 942.23202 319.392832 
" clip-path="url(#p7458ca7b48)" style="fill: none; stroke: #000000; stroke-opacity: 0.7; stroke-width: 2"/>
   </g>
   <g id="line2d_95">
    <path d="M 942.23202 188.004986 
L 934.579964 188.081374 
L 931.519141 188.272345 
L 928.458318 188.425122 
L 916.215028 189.036228 
L 900.910915 192.435506 
L 894.78927 191.595235 
L 881.015569 189.914693 
L 879.485157 189.800111 
L 873.363512 188.959839 
L 865.711456 188.081374 
L 858.059399 187.58485 
L 853.468165 187.279297 
L 845.816109 186.782773 
L 839.694464 186.400832 
L 833.572819 186.018891 
L 827.451173 185.636949 
L 824.390351 185.36959 
L 810.616649 182.008506 
L 806.025415 180.900876 
L 799.90377 179.449498 
L 792.251714 176.470355 
L 783.069246 172.880106 
L 780.008424 171.734282 
L 772.356367 168.793333 
L 761.643488 164.668366 
L 752.46102 159.970486 
L 734.096085 150.727504 
L 729.504851 148.321273 
L 726.444029 147.213643 
L 677.470867 133.769305 
L 669.818811 135.56443 
L 666.757988 136.251924 
L 666.757988 136.251924 
" clip-path="url(#p7458ca7b48)" style="fill: none; stroke: #068773; stroke-width: 4"/>
   </g>
   <g id="line2d_96">
    <path d="M 666.757988 319.392832 
L 942.23202 319.392832 
" clip-path="url(#p7458ca7b48)" style="fill: none; stroke: #000000; stroke-opacity: 0.7; stroke-width: 2"/>
   </g>
   <g id="text_17">
    <text style="fill: #808080; font: 700 14px 'Roboto', 'Arial', 'DejaVu Sans', sans-serif; text-anchor: middle" x="804.495004" y="48.251552" transform="rotate(-0 804.495004 48.251552)">SUPERIOR</text>
   </g>
  </g>
  <g id="text_18">
   <text style="fill: #222222; font: 700 24px 'Roboto', 'Arial', 'DejaVu Sans', sans-serif" transform="translate(5.296635 20.6625)">Avaliação de governo por nível de instrução</text>
   <text style="fill: #222222; font: 700 24px 'Roboto', 'Arial', 'DejaVu Sans', sans-serif" transform="translate(239.09976 48)"/>
  </g>
 </g>
 <defs>
  <clipPath id="p75a2c36632">
   <rect x="42.306875" y="52.033843" width="275.474032" height="278.229042"/>
  </clipPath>
  <clipPath id="p8e33f8b44d">
   <rect x="354.532432" y="52.033843" width="275.474032" height="278.229042"/>
  </clipPath>
  <clipPath id="p7458ca7b48">
   <rect x="666.757988" y="52.033843" width="275.474032" height="278.229042"/>
  </clipPath>
 </defs>
</svg>
