<?xml version="1.0" encoding="utf-8" standalone="no"?>
<!DOCTYPE svg PUBLIC "-//W3C//DTD SVG 1.1//EN"
  "http://www.w3.org/Graphics/SVG/1.1/DTD/svg11.dtd">
<svg xmlns:xlink="http://www.w3.org/1999/xlink" width="958.07952pt" height="357.71976pt" viewBox="0 0 958.07952 357.71976" xmlns="http://www.w3.org/2000/svg" version="1.1">
 <metadata>
  <rdf:RDF xmlns:dc="http://purl.org/dc/elements/1.1/" xmlns:cc="http://creativecommons.org/ns#" xmlns:rdf="http://www.w3.org/1999/02/22-rdf-syntax-ns#">
   <cc:Work>
    <dc:type rdf:resource="http://purl.org/dc/dcmitype/StillImage"/>
    <dc:date>2023-07-03T11:41:43.693955</dc:date>
    <dc:format>image/svg+xml</dc:format>
    <dc:creator>
     <cc:Agent>
      <dc:title>Matplotlib v3.7.1, https://matplotlib.org/</dc:title>
     </cc:Agent>
    </dc:creator>
   </cc:Work>
  </rdf:RDF>
 </metadata>
 <defs>
  <style type="text/css">*{stroke-linejoin: round; stroke-linecap: butt}</style>
 </defs>
 <g id="figure_1">
  <g id="patch_1">
   <path d="M 0 357.71976 
L 958.07952 357.71976 
L 958.07952 0 
L 0 0 
L 0 357.71976 
z
" style="fill: none"/>
  </g>
  <g id="axes_1">
   <g id="patch_2">
    <path d="M 42.306875 330.262885 
L 317.780907 330.262885 
L 317.780907 52.033843 
L 42.306875 52.033843 
L 42.306875 330.262885 
z
" style="fill: none"/>
   </g>
   <g id="matplotlib.axis_1">
    <g id="xtick_1">
     <g id="line2d_1">
      <path d="M 42.306875 330.262885 
L 42.306875 52.033843 
" clip-path="url(#p00ceee4436)" style="fill: none; stroke-dasharray: 0.7,2.1; stroke-dashoffset: 0; stroke: #000000; stroke-opacity: 0.3; stroke-width: 0.7"/>
     </g>
     <g id="line2d_2"/>
     <g id="text_1">
      <text style="fill: #333333; font: 20px 'Roboto', 'Arial', 'DejaVu Sans', sans-serif; text-anchor: middle" x="42.306875" y="351.49726" transform="rotate(-0 42.306875 351.49726)">Jan</text>
     </g>
    </g>
    <g id="xtick_2">
     <g id="line2d_3">
      <path d="M 317.780907 330.262885 
L 317.780907 52.033843 
" clip-path="url(#p00ceee4436)" style="fill: none; stroke-dasharray: 0.7,2.1; stroke-dashoffset: 0; stroke: #000000; stroke-opacity: 0.3; stroke-width: 0.7"/>
     </g>
     <g id="line2d_4"/>
     <g id="text_2">
      <text style="fill: #333333; font: 20px 'Roboto', 'Arial', 'DejaVu Sans', sans-serif; text-anchor: middle" x="317.780907" y="351.49726" transform="rotate(-0 317.780907 351.49726)">Jul</text>
     </g>
    </g>
   </g>
   <g id="matplotlib.axis_2">
    <g id="ytick_1">
     <g id="line2d_5">
      <path d="M 42.306875 320.1455 
L 317.780907 320.1455 
" clip-path="url(#p00ceee4436)" style="fill: none; stroke-dasharray: 0.7,2.1; stroke-dashoffset: 0; stroke: #000000; stroke-opacity: 0.3; stroke-width: 0.7"/>
     </g>
     <g id="text_3">
      <text style="fill: #333333; font: 20px 'Roboto', 'Arial', 'DejaVu Sans', sans-serif; text-anchor: end" x="39.306875" y="325.731438" transform="rotate(-0 39.306875 325.731438)">0  </text>
     </g>
    </g>
    <g id="ytick_2">
     <g id="line2d_6">
      <path d="M 42.306875 281.843835 
L 317.780907 281.843835 
" clip-path="url(#p00ceee4436)" style="fill: none; stroke-dasharray: 0.7,2.1; stroke-dashoffset: 0; stroke: #000000; stroke-opacity: 0.3; stroke-width: 0.7"/>
     </g>
     <g id="text_4">
      <text style="fill: #333333; font: 20px 'Roboto', 'Arial', 'DejaVu Sans', sans-serif; text-anchor: end" x="39.306875" y="287.429772" transform="rotate(-0 39.306875 287.429772)">10  </text>
     </g>
    </g>
    <g id="ytick_3">
     <g id="line2d_7">
      <path d="M 42.306875 243.542169 
L 317.780907 243.542169 
" clip-path="url(#p00ceee4436)" style="fill: none; stroke-dasharray: 0.7,2.1; stroke-dashoffset: 0; stroke: #000000; stroke-opacity: 0.3; stroke-width: 0.7"/>
     </g>
     <g id="text_5">
      <text style="fill: #333333; font: 20px 'Roboto', 'Arial', 'DejaVu Sans', sans-serif; text-anchor: end" x="39.306875" y="249.128107" transform="rotate(-0 39.306875 249.128107)">20  </text>
     </g>
    </g>
    <g id="ytick_4">
     <g id="line2d_8">
      <path d="M 42.306875 205.240504 
L 317.780907 205.240504 
" clip-path="url(#p00ceee4436)" style="fill: none; stroke-dasharray: 0.7,2.1; stroke-dashoffset: 0; stroke: #000000; stroke-opacity: 0.3; stroke-width: 0.7"/>
     </g>
     <g id="text_6">
      <text style="fill: #333333; font: 20px 'Roboto', 'Arial', 'DejaVu Sans', sans-serif; text-anchor: end" x="39.306875" y="210.826442" transform="rotate(-0 39.306875 210.826442)">30  </text>
     </g>
    </g>
    <g id="ytick_5">
     <g id="line2d_9">
      <path d="M 42.306875 166.938839 
L 317.780907 166.938839 
" clip-path="url(#p00ceee4436)" style="fill: none; stroke-dasharray: 0.7,2.1; stroke-dashoffset: 0; stroke: #000000; stroke-opacity: 0.3; stroke-width: 0.7"/>
     </g>
     <g id="text_7">
      <text style="fill: #333333; font: 20px 'Roboto', 'Arial', 'DejaVu Sans', sans-serif; text-anchor: end" x="39.306875" y="172.524776" transform="rotate(-0 39.306875 172.524776)">40  </text>
     </g>
    </g>
    <g id="ytick_6">
     <g id="line2d_10">
      <path d="M 42.306875 128.637173 
L 317.780907 128.637173 
" clip-path="url(#p00ceee4436)" style="fill: none; stroke-dasharray: 0.7,2.1; stroke-dashoffset: 0; stroke: #000000; stroke-opacity: 0.3; stroke-width: 0.7"/>
     </g>
     <g id="text_8">
      <text style="fill: #333333; font: 20px 'Roboto', 'Arial', 'DejaVu Sans', sans-serif; text-anchor: end" x="39.306875" y="134.223111" transform="rotate(-0 39.306875 134.223111)">50  </text>
     </g>
    </g>
    <g id="ytick_7">
     <g id="line2d_11">
      <path d="M 42.306875 90.335508 
L 317.780907 90.335508 
" clip-path="url(#p00ceee4436)" style="fill: none; stroke-dasharray: 0.7,2.1; stroke-dashoffset: 0; stroke: #000000; stroke-opacity: 0.3; stroke-width: 0.7"/>
     </g>
     <g id="text_9">
      <text style="fill: #333333; font: 20px 'Roboto', 'Arial', 'DejaVu Sans', sans-serif; text-anchor: end" x="39.306875" y="95.921445" transform="rotate(-0 39.306875 95.921445)">60  </text>
     </g>
    </g>
    <g id="ytick_8">
     <g id="line2d_12">
      <path d="M 42.306875 52.033843 
L 317.780907 52.033843 
" clip-path="url(#p00ceee4436)" style="fill: none; stroke-dasharray: 0.7,2.1; stroke-dashoffset: 0; stroke: #000000; stroke-opacity: 0.3; stroke-width: 0.7"/>
     </g>
     <g id="text_10">
      <text style="fill: #333333; font: 20px 'Roboto', 'Arial', 'DejaVu Sans', sans-serif; text-anchor: end" x="39.306875" y="57.61978" transform="rotate(-0 39.306875 57.61978)">70%</text>
     </g>
    </g>
   </g>
   <g id="line2d_13">
    <path d="M 42.306875 330.262885 
L 42.306875 52.033843 
" clip-path="url(#p00ceee4436)" style="fill: none; stroke: #000000; stroke-opacity: 0.7; stroke-width: 3"/>
   </g>
   <g id="line2d_14">
    <path d="M 42.306875 330.262885 
L 42.306875 52.033843 
" clip-path="url(#p00ceee4436)" style="fill: none; stroke: #000000; stroke-opacity: 0.7; stroke-width: 3"/>
   </g>
   <g id="line2d_15">
    <path d="M 42.306875 330.262885 
L 42.306875 52.033843 
" clip-path="url(#p00ceee4436)" style="fill: none; stroke: #000000; stroke-opacity: 0.7; stroke-width: 3"/>
   </g>
   <g id="line2d_16">
    <path d="M 42.306875 330.262885 
L 42.306875 52.033843 
" clip-path="url(#p00ceee4436)" style="fill: none; stroke: #000000; stroke-opacity: 0.7; stroke-width: 3"/>
   </g>
   <g id="line2d_17">
    <path d="M 317.780907 190.456061 
L 310.12885 190.41776 
L 307.068028 190.264553 
L 294.824737 189.575123 
L 291.763915 189.383615 
L 276.459802 189.0389 
L 242.790754 191.490206 
L 235.138697 191.834921 
L 232.077875 191.873223 
L 206.060883 193.098876 
L 203.00006 193.213781 
L 199.939238 193.558496 
L 195.348004 193.826608 
L 180.043891 194.669244 
L 175.452657 194.937356 
L 137.192375 195.894898 
L 129.540318 198.499411 
L 108.11456 205.891632 
L 97.401681 209.262179 
L 68.323867 217.152322 
L 63.732633 218.377975 
L 53.019754 221.288902 
L 45.367698 220.063249 
L 42.306875 219.565327 
L 42.306875 219.565327 
" clip-path="url(#p00ceee4436)" style="fill: none; stroke: #888d8f; stroke-width: 4"/>
   </g>
   <g id="line2d_18">
    <path d="M 317.780907 229.868475 
L 314.720084 229.906777 
L 311.659262 229.868475 
L 291.763915 230.289793 
L 276.459802 229.447157 
L 268.807745 228.413012 
L 262.6861 227.570375 
L 256.564455 226.727738 
L 216.773762 220.676075 
L 210.652117 219.680232 
L 203.00006 218.531182 
L 199.939238 217.535339 
L 175.452657 219.986645 
L 161.678955 222.476253 
L 155.55731 223.625303 
L 137.192375 226.842643 
L 124.949084 230.940921 
L 114.236205 234.57958 
L 109.644972 236.073345 
L 105.053738 237.605411 
L 101.992915 237.222395 
L 92.810447 237.988428 
L 83.62798 238.831065 
L 53.019754 241.090863 
L 49.958931 241.129164 
L 46.898109 241.244069 
L 42.306875 241.282371 
L 42.306875 241.282371 
" clip-path="url(#p00ceee4436)" style="fill: none; stroke: #f5700a; stroke-width: 4"/>
   </g>
   <g id="line2d_19">
    <path d="M 317.780907 190.456061 
L 310.12885 190.41776 
L 307.068028 190.264553 
L 294.824737 189.575123 
L 291.763915 189.383615 
L 276.459802 189.0389 
L 242.790754 191.490206 
L 235.138697 191.834921 
L 232.077875 191.873223 
L 206.060883 193.098876 
L 203.00006 193.213781 
L 199.939238 193.558496 
L 195.348004 193.826608 
L 180.043891 194.669244 
L 175.452657 194.937356 
L 137.192375 195.894898 
L 129.540318 198.499411 
L 108.11456 205.891632 
L 97.401681 209.262179 
L 68.323867 217.152322 
L 63.732633 218.377975 
L 53.019754 221.288902 
L 45.367698 220.063249 
L 42.306875 219.565327 
L 42.306875 219.565327 
" clip-path="url(#p00ceee4436)" style="fill: none; stroke: #888d8f; stroke-width: 4"/>
   </g>
   <g id="line2d_20">
    <path d="M 317.780907 229.868475 
L 314.720084 229.906777 
L 311.659262 229.868475 
L 291.763915 230.289793 
L 276.459802 229.447157 
L 268.807745 228.413012 
L 262.6861 227.570375 
L 256.564455 226.727738 
L 216.773762 220.676075 
L 210.652117 219.680232 
L 203.00006 218.531182 
L 199.939238 217.535339 
L 175.452657 219.986645 
L 161.678955 222.476253 
L 155.55731 223.625303 
L 137.192375 226.842643 
L 124.949084 230.940921 
L 114.236205 234.57958 
L 109.644972 236.073345 
L 105.053738 237.605411 
L 101.992915 237.222395 
L 92.810447 237.988428 
L 83.62798 238.831065 
L 53.019754 241.090863 
L 49.958931 241.129164 
L 46.898109 241.244069 
L 42.306875 241.282371 
L 42.306875 241.282371 
" clip-path="url(#p00ceee4436)" style="fill: none; stroke: #f5700a; stroke-width: 4"/>
   </g>
   <g id="line2d_21">
    <path d="M 317.780907 190.456061 
L 310.12885 190.41776 
L 307.068028 190.264553 
L 294.824737 189.575123 
L 291.763915 189.383615 
L 276.459802 189.0389 
L 242.790754 191.490206 
L 235.138697 191.834921 
L 232.077875 191.873223 
L 206.060883 193.098876 
L 203.00006 193.213781 
L 199.939238 193.558496 
L 195.348004 193.826608 
L 180.043891 194.669244 
L 175.452657 194.937356 
L 137.192375 195.894898 
L 129.540318 198.499411 
L 108.11456 205.891632 
L 97.401681 209.262179 
L 68.323867 217.152322 
L 63.732633 218.377975 
L 53.019754 221.288902 
L 45.367698 220.063249 
L 42.306875 219.565327 
L 42.306875 219.565327 
" clip-path="url(#p00ceee4436)" style="fill: none; stroke: #888d8f; stroke-width: 4"/>
   </g>
   <g id="line2d_22">
    <path d="M 317.780907 229.868475 
L 314.720084 229.906777 
L 311.659262 229.868475 
L 291.763915 230.289793 
L 276.459802 229.447157 
L 268.807745 228.413012 
L 262.6861 227.570375 
L 256.564455 226.727738 
L 216.773762 220.676075 
L 210.652117 219.680232 
L 203.00006 218.531182 
L 199.939238 217.535339 
L 175.452657 219.986645 
L 161.678955 222.476253 
L 155.55731 223.625303 
L 137.192375 226.842643 
L 124.949084 230.940921 
L 114.236205 234.57958 
L 109.644972 236.073345 
L 105.053738 237.605411 
L 101.992915 237.222395 
L 92.810447 237.988428 
L 83.62798 238.831065 
L 53.019754 241.090863 
L 49.958931 241.129164 
L 46.898109 241.244069 
L 42.306875 241.282371 
L 42.306875 241.282371 
" clip-path="url(#p00ceee4436)" style="fill: none; stroke: #f5700a; stroke-width: 4"/>
   </g>
   <g id="line2d_23">
    <path d="M 317.780907 190.456061 
L 310.12885 190.41776 
L 307.068028 190.264553 
L 294.824737 189.575123 
L 291.763915 189.383615 
L 276.459802 189.0389 
L 242.790754 191.490206 
L 235.138697 191.834921 
L 232.077875 191.873223 
L 206.060883 193.098876 
L 203.00006 193.213781 
L 199.939238 193.558496 
L 195.348004 193.826608 
L 180.043891 194.669244 
L 175.452657 194.937356 
L 137.192375 195.894898 
L 129.540318 198.499411 
L 108.11456 205.891632 
L 97.401681 209.262179 
L 68.323867 217.152322 
L 63.732633 218.377975 
L 53.019754 221.288902 
L 45.367698 220.063249 
L 42.306875 219.565327 
L 42.306875 219.565327 
" clip-path="url(#p00ceee4436)" style="fill: none; stroke: #888d8f; stroke-width: 4"/>
   </g>
   <g id="line2d_24">
    <path d="M 317.780907 229.868475 
L 314.720084 229.906777 
L 311.659262 229.868475 
L 291.763915 230.289793 
L 276.459802 229.447157 
L 268.807745 228.413012 
L 262.6861 227.570375 
L 256.564455 226.727738 
L 216.773762 220.676075 
L 210.652117 219.680232 
L 203.00006 218.531182 
L 199.939238 217.535339 
L 175.452657 219.986645 
L 161.678955 222.476253 
L 155.55731 223.625303 
L 137.192375 226.842643 
L 124.949084 230.940921 
L 114.236205 234.57958 
L 109.644972 236.073345 
L 105.053738 237.605411 
L 101.992915 237.222395 
L 92.810447 237.988428 
L 83.62798 238.831065 
L 53.019754 241.090863 
L 49.958931 241.129164 
L 46.898109 241.244069 
L 42.306875 241.282371 
L 42.306875 241.282371 
" clip-path="url(#p00ceee4436)" style="fill: none; stroke: #f5700a; stroke-width: 4"/>
   </g>
   <g id="line2d_25">
    <path d="M 317.780907 174.177853 
L 310.12885 174.254457 
L 305.537616 174.637473 
L 294.824737 175.518412 
L 291.763915 175.786523 
L 287.172681 175.824825 
L 276.459802 175.863127 
L 253.503633 173.488423 
L 250.44281 173.18201 
L 242.790754 172.454278 
L 218.304173 171.764848 
L 212.182528 171.535038 
L 199.939238 171.152022 
L 193.817592 170.309385 
L 189.226359 169.581654 
L 175.452657 167.475062 
L 137.192375 165.483375 
L 134.131552 164.181119 
L 124.949084 160.159444 
L 117.297028 156.788897 
L 105.053738 151.388363 
L 100.462504 150.009503 
L 53.019754 138.097685 
L 46.898109 139.897863 
L 42.306875 141.276723 
L 42.306875 141.276723 
" clip-path="url(#p00ceee4436)" style="fill: none; stroke: #068773; stroke-width: 4"/>
   </g>
   <g id="line2d_26">
    <path d="M 42.306875 320.1455 
L 317.780907 320.1455 
" clip-path="url(#p00ceee4436)" style="fill: none; stroke: #000000; stroke-opacity: 0.7; stroke-width: 2"/>
   </g>
   <g id="line2d_27">
    <path d="M 317.780907 174.177853 
L 310.12885 174.254457 
L 305.537616 174.637473 
L 294.824737 175.518412 
L 291.763915 175.786523 
L 287.172681 175.824825 
L 276.459802 175.863127 
L 253.503633 173.488423 
L 250.44281 173.18201 
L 242.790754 172.454278 
L 218.304173 171.764848 
L 212.182528 171.535038 
L 199.939238 171.152022 
L 193.817592 170.309385 
L 189.226359 169.581654 
L 175.452657 167.475062 
L 137.192375 165.483375 
L 134.131552 164.181119 
L 124.949084 160.159444 
L 117.297028 156.788897 
L 105.053738 151.388363 
L 100.462504 150.009503 
L 53.019754 138.097685 
L 46.898109 139.897863 
L 42.306875 141.276723 
L 42.306875 141.276723 
" clip-path="url(#p00ceee4436)" style="fill: none; stroke: #068773; stroke-width: 4"/>
   </g>
   <g id="line2d_28">
    <path d="M 42.306875 320.1455 
L 317.780907 320.1455 
" clip-path="url(#p00ceee4436)" style="fill: none; stroke: #000000; stroke-opacity: 0.7; stroke-width: 2"/>
   </g>
   <g id="line2d_29">
    <path d="M 317.780907 174.177853 
L 310.12885 174.254457 
L 305.537616 174.637473 
L 294.824737 175.518412 
L 291.763915 175.786523 
L 287.172681 175.824825 
L 276.459802 175.863127 
L 253.503633 173.488423 
L 250.44281 173.18201 
L 242.790754 172.454278 
L 218.304173 171.764848 
L 212.182528 171.535038 
L 199.939238 171.152022 
L 193.817592 170.309385 
L 189.226359 169.581654 
L 175.452657 167.475062 
L 137.192375 165.483375 
L 134.131552 164.181119 
L 124.949084 160.159444 
L 117.297028 156.788897 
L 105.053738 151.388363 
L 100.462504 150.009503 
L 53.019754 138.097685 
L 46.898109 139.897863 
L 42.306875 141.276723 
L 42.306875 141.276723 
" clip-path="url(#p00ceee4436)" style="fill: none; stroke: #068773; stroke-width: 4"/>
   </g>
   <g id="line2d_30">
    <path d="M 42.306875 320.1455 
L 317.780907 320.1455 
" clip-path="url(#p00ceee4436)" style="fill: none; stroke: #000000; stroke-opacity: 0.7; stroke-width: 2"/>
   </g>
   <g id="line2d_31">
    <path d="M 317.780907 174.177853 
L 310.12885 174.254457 
L 305.537616 174.637473 
L 294.824737 175.518412 
L 291.763915 175.786523 
L 287.172681 175.824825 
L 276.459802 175.863127 
L 253.503633 173.488423 
L 250.44281 173.18201 
L 242.790754 172.454278 
L 218.304173 171.764848 
L 212.182528 171.535038 
L 199.939238 171.152022 
L 193.817592 170.309385 
L 189.226359 169.581654 
L 175.452657 167.475062 
L 137.192375 165.483375 
L 134.131552 164.181119 
L 124.949084 160.159444 
L 117.297028 156.788897 
L 105.053738 151.388363 
L 100.462504 150.009503 
L 53.019754 138.097685 
L 46.898109 139.897863 
L 42.306875 141.276723 
L 42.306875 141.276723 
" clip-path="url(#p00ceee4436)" style="fill: none; stroke: #068773; stroke-width: 4"/>
   </g>
   <g id="line2d_32">
    <path d="M 42.306875 320.1455 
L 317.780907 320.1455 
" clip-path="url(#p00ceee4436)" style="fill: none; stroke: #000000; stroke-opacity: 0.7; stroke-width: 2"/>
   </g>
   <g id="text_11">
    <text style="fill: #808080; font: 700 14px 'Roboto', 'Arial', 'DejaVu Sans', sans-serif; text-anchor: middle" x="180.043891" y="48.251552" transform="rotate(-0 180.043891 48.251552)">16 A 34 ANOS</text>
   </g>
  </g>
  <g id="axes_2">
   <g id="patch_3">
    <path d="M 354.532432 330.262885 
L 630.006463 330.262885 
L 630.006463 52.033843 
L 354.532432 52.033843 
L 354.532432 330.262885 
z
" style="fill: none"/>
   </g>
   <g id="matplotlib.axis_3">
    <g id="xtick_3">
     <g id="line2d_33">
      <path d="M 354.532432 330.262885 
L 354.532432 52.033843 
" clip-path="url(#p2fc5209adc)" style="fill: none; stroke-dasharray: 0.7,2.1; stroke-dashoffset: 0; stroke: #000000; stroke-opacity: 0.3; stroke-width: 0.7"/>
     </g>
     <g id="line2d_34"/>
     <g id="text_12">
      <text style="fill: #333333; font: 20px 'Roboto', 'Arial', 'DejaVu Sans', sans-serif; text-anchor: middle" x="354.532432" y="351.49726" transform="rotate(-0 354.532432 351.49726)">Jan</text>
     </g>
    </g>
    <g id="xtick_4">
     <g id="line2d_35">
      <path d="M 630.006463 330.262885 
L 630.006463 52.033843 
" clip-path="url(#p2fc5209adc)" style="fill: none; stroke-dasharray: 0.7,2.1; stroke-dashoffset: 0; stroke: #000000; stroke-opacity: 0.3; stroke-width: 0.7"/>
     </g>
     <g id="line2d_36"/>
     <g id="text_13">
      <text style="fill: #333333; font: 20px 'Roboto', 'Arial', 'DejaVu Sans', sans-serif; text-anchor: middle" x="630.006463" y="351.49726" transform="rotate(-0 630.006463 351.49726)">Jul</text>
     </g>
    </g>
   </g>
   <g id="matplotlib.axis_4">
    <g id="ytick_9">
     <g id="line2d_37">
      <path d="M 354.532432 320.1455 
L 630.006463 320.1455 
" clip-path="url(#p2fc5209adc)" style="fill: none; stroke-dasharray: 0.7,2.1; stroke-dashoffset: 0; stroke: #000000; stroke-opacity: 0.3; stroke-width: 0.7"/>
     </g>
    </g>
    <g id="ytick_10">
     <g id="line2d_38">
      <path d="M 354.532432 281.843835 
L 630.006463 281.843835 
" clip-path="url(#p2fc5209adc)" style="fill: none; stroke-dasharray: 0.7,2.1; stroke-dashoffset: 0; stroke: #000000; stroke-opacity: 0.3; stroke-width: 0.7"/>
     </g>
    </g>
    <g id="ytick_11">
     <g id="line2d_39">
      <path d="M 354.532432 243.542169 
L 630.006463 243.542169 
" clip-path="url(#p2fc5209adc)" style="fill: none; stroke-dasharray: 0.7,2.1; stroke-dashoffset: 0; stroke: #000000; stroke-opacity: 0.3; stroke-width: 0.7"/>
     </g>
    </g>
    <g id="ytick_12">
     <g id="line2d_40">
      <path d="M 354.532432 205.240504 
L 630.006463 205.240504 
" clip-path="url(#p2fc5209adc)" style="fill: none; stroke-dasharray: 0.7,2.1; stroke-dashoffset: 0; stroke: #000000; stroke-opacity: 0.3; stroke-width: 0.7"/>
     </g>
    </g>
    <g id="ytick_13">
     <g id="line2d_41">
      <path d="M 354.532432 166.938839 
L 630.006463 166.938839 
" clip-path="url(#p2fc5209adc)" style="fill: none; stroke-dasharray: 0.7,2.1; stroke-dashoffset: 0; stroke: #000000; stroke-opacity: 0.3; stroke-width: 0.7"/>
     </g>
    </g>
    <g id="ytick_14">
     <g id="line2d_42">
      <path d="M 354.532432 128.637173 
L 630.006463 128.637173 
" clip-path="url(#p2fc5209adc)" style="fill: none; stroke-dasharray: 0.7,2.1; stroke-dashoffset: 0; stroke: #000000; stroke-opacity: 0.3; stroke-width: 0.7"/>
     </g>
    </g>
    <g id="ytick_15">
     <g id="line2d_43">
      <path d="M 354.532432 90.335508 
L 630.006463 90.335508 
" clip-path="url(#p2fc5209adc)" style="fill: none; stroke-dasharray: 0.7,2.1; stroke-dashoffset: 0; stroke: #000000; stroke-opacity: 0.3; stroke-width: 0.7"/>
     </g>
    </g>
    <g id="ytick_16">
     <g id="line2d_44">
      <path d="M 354.532432 52.033843 
L 630.006463 52.033843 
" clip-path="url(#p2fc5209adc)" style="fill: none; stroke-dasharray: 0.7,2.1; stroke-dashoffset: 0; stroke: #000000; stroke-opacity: 0.3; stroke-width: 0.7"/>
     </g>
    </g>
   </g>
   <g id="line2d_45">
    <path d="M 354.532432 330.262885 
L 354.532432 52.033843 
" clip-path="url(#p2fc5209adc)" style="fill: none; stroke: #000000; stroke-opacity: 0.7; stroke-width: 3"/>
   </g>
   <g id="line2d_46">
    <path d="M 354.532432 330.262885 
L 354.532432 52.033843 
" clip-path="url(#p2fc5209adc)" style="fill: none; stroke: #000000; stroke-opacity: 0.7; stroke-width: 3"/>
   </g>
   <g id="line2d_47">
    <path d="M 354.532432 330.262885 
L 354.532432 52.033843 
" clip-path="url(#p2fc5209adc)" style="fill: none; stroke: #000000; stroke-opacity: 0.7; stroke-width: 3"/>
   </g>
   <g id="line2d_48">
    <path d="M 354.532432 330.262885 
L 354.532432 52.033843 
" clip-path="url(#p2fc5209adc)" style="fill: none; stroke: #000000; stroke-opacity: 0.7; stroke-width: 3"/>
   </g>
   <g id="line2d_49">
    <path d="M 630.006463 216.347987 
L 620.823996 216.271384 
L 613.171939 216.003272 
L 607.050294 215.773462 
L 603.989471 215.696859 
L 576.442068 217.152322 
L 573.381246 217.420434 
L 568.790012 217.726847 
L 558.077133 218.454579 
L 512.164794 220.752678 
L 504.512738 221.786823 
L 487.678214 224.276432 
L 481.556568 224.659448 
L 460.13081 225.808498 
L 457.069988 225.961705 
L 449.417931 226.421325 
L 437.174641 231.438843 
L 423.40094 237.184093 
L 417.279294 239.673701 
L 391.262303 246.721208 
L 386.671069 247.946861 
L 365.245311 253.768714 
L 354.532432 252.504759 
L 354.532432 252.504759 
" clip-path="url(#p2fc5209adc)" style="fill: none; stroke: #888d8f; stroke-width: 4"/>
   </g>
   <g id="line2d_50">
    <path d="M 630.006463 206.887476 
L 619.293584 206.964079 
L 608.580705 207.155587 
L 603.989471 207.232191 
L 597.867826 206.389554 
L 588.685359 205.202202 
L 551.955488 206.964079 
L 547.364254 207.155587 
L 524.408085 208.228034 
L 512.164794 208.611051 
L 507.57356 208.994067 
L 487.678214 210.411229 
L 483.08698 211.483675 
L 461.661222 216.386289 
L 455.539577 217.841752 
L 447.88752 219.488724 
L 443.296286 220.216455 
L 440.235464 220.79098 
L 438.705052 220.982488 
L 435.64423 221.557013 
L 427.992173 222.782667 
L 423.40094 223.510398 
L 418.809706 224.276432 
L 417.279294 224.544543 
L 412.688061 225.080767 
L 403.505593 226.30642 
L 400.44477 226.727738 
L 394.323125 227.417168 
L 374.427778 229.98338 
L 366.775722 231.055826 
L 365.245311 231.247335 
L 354.532432 231.477145 
L 354.532432 231.477145 
" clip-path="url(#p2fc5209adc)" style="fill: none; stroke: #f5700a; stroke-width: 4"/>
   </g>
   <g id="line2d_51">
    <path d="M 630.006463 216.347987 
L 620.823996 216.271384 
L 613.171939 216.003272 
L 607.050294 215.773462 
L 603.989471 215.696859 
L 576.442068 217.152322 
L 573.381246 217.420434 
L 568.790012 217.726847 
L 558.077133 218.454579 
L 512.164794 220.752678 
L 504.512738 221.786823 
L 487.678214 224.276432 
L 481.556568 224.659448 
L 460.13081 225.808498 
L 457.069988 225.961705 
L 449.417931 226.421325 
L 437.174641 231.438843 
L 423.40094 237.184093 
L 417.279294 239.673701 
L 391.262303 246.721208 
L 386.671069 247.946861 
L 365.245311 253.768714 
L 354.532432 252.504759 
L 354.532432 252.504759 
" clip-path="url(#p2fc5209adc)" style="fill: none; stroke: #888d8f; stroke-width: 4"/>
   </g>
   <g id="line2d_52">
    <path d="M 630.006463 206.887476 
L 619.293584 206.964079 
L 608.580705 207.155587 
L 603.989471 207.232191 
L 597.867826 206.389554 
L 588.685359 205.202202 
L 551.955488 206.964079 
L 547.364254 207.155587 
L 524.408085 208.228034 
L 512.164794 208.611051 
L 507.57356 208.994067 
L 487.678214 210.411229 
L 483.08698 211.483675 
L 461.661222 216.386289 
L 455.539577 217.841752 
L 447.88752 219.488724 
L 443.296286 220.216455 
L 440.235464 220.79098 
L 438.705052 220.982488 
L 435.64423 221.557013 
L 427.992173 222.782667 
L 423.40094 223.510398 
L 418.809706 224.276432 
L 417.279294 224.544543 
L 412.688061 225.080767 
L 403.505593 226.30642 
L 400.44477 226.727738 
L 394.323125 227.417168 
L 374.427778 229.98338 
L 366.775722 231.055826 
L 365.245311 231.247335 
L 354.532432 231.477145 
L 354.532432 231.477145 
" clip-path="url(#p2fc5209adc)" style="fill: none; stroke: #f5700a; stroke-width: 4"/>
   </g>
   <g id="line2d_53">
    <path d="M 630.006463 216.347987 
L 620.823996 216.271384 
L 613.171939 216.003272 
L 607.050294 215.773462 
L 603.989471 215.696859 
L 576.442068 217.152322 
L 573.381246 217.420434 
L 568.790012 217.726847 
L 558.077133 218.454579 
L 512.164794 220.752678 
L 504.512738 221.786823 
L 487.678214 224.276432 
L 481.556568 224.659448 
L 460.13081 225.808498 
L 457.069988 225.961705 
L 449.417931 226.421325 
L 437.174641 231.438843 
L 423.40094 237.184093 
L 417.279294 239.673701 
L 391.262303 246.721208 
L 386.671069 247.946861 
L 365.245311 253.768714 
L 354.532432 252.504759 
L 354.532432 252.504759 
" clip-path="url(#p2fc5209adc)" style="fill: none; stroke: #888d8f; stroke-width: 4"/>
   </g>
   <g id="line2d_54">
    <path d="M 630.006463 206.887476 
L 619.293584 206.964079 
L 608.580705 207.155587 
L 603.989471 207.232191 
L 597.867826 206.389554 
L 588.685359 205.202202 
L 551.955488 206.964079 
L 547.364254 207.155587 
L 524.408085 208.228034 
L 512.164794 208.611051 
L 507.57356 208.994067 
L 487.678214 210.411229 
L 483.08698 211.483675 
L 461.661222 216.386289 
L 455.539577 217.841752 
L 447.88752 219.488724 
L 443.296286 220.216455 
L 440.235464 220.79098 
L 438.705052 220.982488 
L 435.64423 221.557013 
L 427.992173 222.782667 
L 423.40094 223.510398 
L 418.809706 224.276432 
L 417.279294 224.544543 
L 412.688061 225.080767 
L 403.505593 226.30642 
L 400.44477 226.727738 
L 394.323125 227.417168 
L 374.427778 229.98338 
L 366.775722 231.055826 
L 365.245311 231.247335 
L 354.532432 231.477145 
L 354.532432 231.477145 
" clip-path="url(#p2fc5209adc)" style="fill: none; stroke: #f5700a; stroke-width: 4"/>
   </g>
   <g id="line2d_55">
    <path d="M 630.006463 216.347987 
L 620.823996 216.271384 
L 613.171939 216.003272 
L 607.050294 215.773462 
L 603.989471 215.696859 
L 576.442068 217.152322 
L 573.381246 217.420434 
L 568.790012 217.726847 
L 558.077133 218.454579 
L 512.164794 220.752678 
L 504.512738 221.786823 
L 487.678214 224.276432 
L 481.556568 224.659448 
L 460.13081 225.808498 
L 457.069988 225.961705 
L 449.417931 226.421325 
L 437.174641 231.438843 
L 423.40094 237.184093 
L 417.279294 239.673701 
L 391.262303 246.721208 
L 386.671069 247.946861 
L 365.245311 253.768714 
L 354.532432 252.504759 
L 354.532432 252.504759 
" clip-path="url(#p2fc5209adc)" style="fill: none; stroke: #888d8f; stroke-width: 4"/>
   </g>
   <g id="line2d_56">
    <path d="M 630.006463 206.887476 
L 619.293584 206.964079 
L 608.580705 207.155587 
L 603.989471 207.232191 
L 597.867826 206.389554 
L 588.685359 205.202202 
L 551.955488 206.964079 
L 547.364254 207.155587 
L 524.408085 208.228034 
L 512.164794 208.611051 
L 507.57356 208.994067 
L 487.678214 210.411229 
L 483.08698 211.483675 
L 461.661222 216.386289 
L 455.539577 217.841752 
L 447.88752 219.488724 
L 443.296286 220.216455 
L 440.235464 220.79098 
L 438.705052 220.982488 
L 435.64423 221.557013 
L 427.992173 222.782667 
L 423.40094 223.510398 
L 418.809706 224.276432 
L 417.279294 224.544543 
L 412.688061 225.080767 
L 403.505593 226.30642 
L 400.44477 226.727738 
L 394.323125 227.417168 
L 374.427778 229.98338 
L 366.775722 231.055826 
L 365.245311 231.247335 
L 354.532432 231.477145 
L 354.532432 231.477145 
" clip-path="url(#p2fc5209adc)" style="fill: none; stroke: #f5700a; stroke-width: 4"/>
   </g>
   <g id="line2d_57">
    <path d="M 630.006463 170.232782 
L 626.945641 170.232782 
L 622.354407 170.309385 
L 614.70235 170.577497 
L 608.580705 170.807307 
L 603.989471 170.998815 
L 594.807004 171.764848 
L 588.685359 172.339373 
L 553.485899 168.853922 
L 545.833843 168.394302 
L 539.712197 168.011285 
L 519.816851 166.938839 
L 515.225617 166.632425 
L 512.164794 165.713185 
L 507.57356 165.176962 
L 499.921504 164.104515 
L 487.678214 162.495845 
L 472.374101 159.853031 
L 470.843689 159.661522 
L 467.782867 159.086997 
L 460.13081 157.861344 
L 449.417931 156.022864 
L 441.765875 152.499111 
L 424.931351 144.800476 
L 415.748883 140.319181 
L 414.218472 139.36164 
L 405.036004 136.259205 
L 394.323125 132.620546 
L 385.140657 129.518112 
L 374.427778 125.879453 
L 365.245311 122.81532 
L 359.123666 123.96437 
L 354.532432 124.807007 
L 354.532432 124.807007 
" clip-path="url(#p2fc5209adc)" style="fill: none; stroke: #068773; stroke-width: 4"/>
   </g>
   <g id="line2d_58">
    <path d="M 354.532432 320.1455 
L 630.006463 320.1455 
" clip-path="url(#p2fc5209adc)" style="fill: none; stroke: #000000; stroke-opacity: 0.7; stroke-width: 2"/>
   </g>
   <g id="line2d_59">
    <path d="M 630.006463 170.232782 
L 626.945641 170.232782 
L 622.354407 170.309385 
L 614.70235 170.577497 
L 608.580705 170.807307 
L 603.989471 170.998815 
L 594.807004 171.764848 
L 588.685359 172.339373 
L 553.485899 168.853922 
L 545.833843 168.394302 
L 539.712197 168.011285 
L 519.816851 166.938839 
L 515.225617 166.632425 
L 512.164794 165.713185 
L 507.57356 165.176962 
L 499.921504 164.104515 
L 487.678214 162.495845 
L 472.374101 159.853031 
L 470.843689 159.661522 
L 467.782867 159.086997 
L 460.13081 157.861344 
L 449.417931 156.022864 
L 441.765875 152.499111 
L 424.931351 144.800476 
L 415.748883 140.319181 
L 414.218472 139.36164 
L 405.036004 136.259205 
L 394.323125 132.620546 
L 385.140657 129.518112 
L 374.427778 125.879453 
L 365.245311 122.81532 
L 359.123666 123.96437 
L 354.532432 124.807007 
L 354.532432 124.807007 
" clip-path="url(#p2fc5209adc)" style="fill: none; stroke: #068773; stroke-width: 4"/>
   </g>
   <g id="line2d_60">
    <path d="M 354.532432 320.1455 
L 630.006463 320.1455 
" clip-path="url(#p2fc5209adc)" style="fill: none; stroke: #000000; stroke-opacity: 0.7; stroke-width: 2"/>
   </g>
   <g id="line2d_61">
    <path d="M 630.006463 170.232782 
L 626.945641 170.232782 
L 622.354407 170.309385 
L 614.70235 170.577497 
L 608.580705 170.807307 
L 603.989471 170.998815 
L 594.807004 171.764848 
L 588.685359 172.339373 
L 553.485899 168.853922 
L 545.833843 168.394302 
L 539.712197 168.011285 
L 519.816851 166.938839 
L 515.225617 166.632425 
L 512.164794 165.713185 
L 507.57356 165.176962 
L 499.921504 164.104515 
L 487.678214 162.495845 
L 472.374101 159.853031 
L 470.843689 159.661522 
L 467.782867 159.086997 
L 460.13081 157.861344 
L 449.417931 156.022864 
L 441.765875 152.499111 
L 424.931351 144.800476 
L 415.748883 140.319181 
L 414.218472 139.36164 
L 405.036004 136.259205 
L 394.323125 132.620546 
L 385.140657 129.518112 
L 374.427778 125.879453 
L 365.245311 122.81532 
L 359.123666 123.96437 
L 354.532432 124.807007 
L 354.532432 124.807007 
" clip-path="url(#p2fc5209adc)" style="fill: none; stroke: #068773; stroke-width: 4"/>
   </g>
   <g id="line2d_62">
    <path d="M 354.532432 320.1455 
L 630.006463 320.1455 
" clip-path="url(#p2fc5209adc)" style="fill: none; stroke: #000000; stroke-opacity: 0.7; stroke-width: 2"/>
   </g>
   <g id="line2d_63">
    <path d="M 630.006463 170.232782 
L 626.945641 170.232782 
L 622.354407 170.309385 
L 614.70235 170.577497 
L 608.580705 170.807307 
L 603.989471 170.998815 
L 594.807004 171.764848 
L 588.685359 172.339373 
L 553.485899 168.853922 
L 545.833843 168.394302 
L 539.712197 168.011285 
L 519.816851 166.938839 
L 515.225617 166.632425 
L 512.164794 165.713185 
L 507.57356 165.176962 
L 499.921504 164.104515 
L 487.678214 162.495845 
L 472.374101 159.853031 
L 470.843689 159.661522 
L 467.782867 159.086997 
L 460.13081 157.861344 
L 449.417931 156.022864 
L 441.765875 152.499111 
L 424.931351 144.800476 
L 415.748883 140.319181 
L 414.218472 139.36164 
L 405.036004 136.259205 
L 394.323125 132.620546 
L 385.140657 129.518112 
L 374.427778 125.879453 
L 365.245311 122.81532 
L 359.123666 123.96437 
L 354.532432 124.807007 
L 354.532432 124.807007 
" clip-path="url(#p2fc5209adc)" style="fill: none; stroke: #068773; stroke-width: 4"/>
   </g>
   <g id="line2d_64">
    <path d="M 354.532432 320.1455 
L 630.006463 320.1455 
" clip-path="url(#p2fc5209adc)" style="fill: none; stroke: #000000; stroke-opacity: 0.7; stroke-width: 2"/>
   </g>
   <g id="text_14">
    <text style="fill: #808080; font: 700 14px 'Roboto', 'Arial', 'DejaVu Sans', sans-serif; text-anchor: middle" x="492.269448" y="48.251552" transform="rotate(-0 492.269448 48.251552)">35 A 59 ANOS</text>
   </g>
  </g>
  <g id="axes_3">
   <g id="patch_4">
    <path d="M 666.757988 330.262885 
L 942.23202 330.262885 
L 942.23202 52.033843 
L 666.757988 52.033843 
L 666.757988 330.262885 
z
" style="fill: none"/>
   </g>
   <g id="matplotlib.axis_5">
    <g id="xtick_5">
     <g id="line2d_65">
      <path d="M 666.757988 330.262885 
L 666.757988 52.033843 
" clip-path="url(#pa9dda3e767)" style="fill: none; stroke-dasharray: 0.7,2.1; stroke-dashoffset: 0; stroke: #000000; stroke-opacity: 0.3; stroke-width: 0.7"/>
     </g>
     <g id="line2d_66"/>
     <g id="text_15">
      <text style="fill: #333333; font: 20px 'Roboto', 'Arial', 'DejaVu Sans', sans-serif; text-anchor: middle" x="666.757988" y="351.49726" transform="rotate(-0 666.757988 351.49726)">Jan</text>
     </g>
    </g>
    <g id="xtick_6">
     <g id="line2d_67">
      <path d="M 942.23202 330.262885 
L 942.23202 52.033843 
" clip-path="url(#pa9dda3e767)" style="fill: none; stroke-dasharray: 0.7,2.1; stroke-dashoffset: 0; stroke: #000000; stroke-opacity: 0.3; stroke-width: 0.7"/>
     </g>
     <g id="line2d_68"/>
     <g id="text_16">
      <text style="fill: #333333; font: 20px 'Roboto', 'Arial', 'DejaVu Sans', sans-serif; text-anchor: middle" x="942.23202" y="351.49726" transform="rotate(-0 942.23202 351.49726)">Jul</text>
     </g>
    </g>
   </g>
   <g id="matplotlib.axis_6">
    <g id="ytick_17">
     <g id="line2d_69">
      <path d="M 666.757988 320.1455 
L 942.23202 320.1455 
" clip-path="url(#pa9dda3e767)" style="fill: none; stroke-dasharray: 0.7,2.1; stroke-dashoffset: 0; stroke: #000000; stroke-opacity: 0.3; stroke-width: 0.7"/>
     </g>
    </g>
    <g id="ytick_18">
     <g id="line2d_70">
      <path d="M 666.757988 281.843835 
L 942.23202 281.843835 
" clip-path="url(#pa9dda3e767)" style="fill: none; stroke-dasharray: 0.7,2.1; stroke-dashoffset: 0; stroke: #000000; stroke-opacity: 0.3; stroke-width: 0.7"/>
     </g>
    </g>
    <g id="ytick_19">
     <g id="line2d_71">
      <path d="M 666.757988 243.542169 
L 942.23202 243.542169 
" clip-path="url(#pa9dda3e767)" style="fill: none; stroke-dasharray: 0.7,2.1; stroke-dashoffset: 0; stroke: #000000; stroke-opacity: 0.3; stroke-width: 0.7"/>
     </g>
    </g>
    <g id="ytick_20">
     <g id="line2d_72">
      <path d="M 666.757988 205.240504 
L 942.23202 205.240504 
" clip-path="url(#pa9dda3e767)" style="fill: none; stroke-dasharray: 0.7,2.1; stroke-dashoffset: 0; stroke: #000000; stroke-opacity: 0.3; stroke-width: 0.7"/>
     </g>
    </g>
    <g id="ytick_21">
     <g id="line2d_73">
      <path d="M 666.757988 166.938839 
L 942.23202 166.938839 
" clip-path="url(#pa9dda3e767)" style="fill: none; stroke-dasharray: 0.7,2.1; stroke-dashoffset: 0; stroke: #000000; stroke-opacity: 0.3; stroke-width: 0.7"/>
     </g>
    </g>
    <g id="ytick_22">
     <g id="line2d_74">
      <path d="M 666.757988 128.637173 
L 942.23202 128.637173 
" clip-path="url(#pa9dda3e767)" style="fill: none; stroke-dasharray: 0.7,2.1; stroke-dashoffset: 0; stroke: #000000; stroke-opacity: 0.3; stroke-width: 0.7"/>
     </g>
    </g>
    <g id="ytick_23">
     <g id="line2d_75">
      <path d="M 666.757988 90.335508 
L 942.23202 90.335508 
" clip-path="url(#pa9dda3e767)" style="fill: none; stroke-dasharray: 0.7,2.1; stroke-dashoffset: 0; stroke: #000000; stroke-opacity: 0.3; stroke-width: 0.7"/>
     </g>
    </g>
    <g id="ytick_24">
     <g id="line2d_76">
      <path d="M 666.757988 52.033843 
L 942.23202 52.033843 
" clip-path="url(#pa9dda3e767)" style="fill: none; stroke-dasharray: 0.7,2.1; stroke-dashoffset: 0; stroke: #000000; stroke-opacity: 0.3; stroke-width: 0.7"/>
     </g>
    </g>
   </g>
   <g id="line2d_77">
    <path d="M 666.757988 330.262885 
L 666.757988 52.033843 
" clip-path="url(#pa9dda3e767)" style="fill: none; stroke: #000000; stroke-opacity: 0.7; stroke-width: 3"/>
   </g>
   <g id="line2d_78">
    <path d="M 666.757988 330.262885 
L 666.757988 52.033843 
" clip-path="url(#pa9dda3e767)" style="fill: none; stroke: #000000; stroke-opacity: 0.7; stroke-width: 3"/>
   </g>
   <g id="line2d_79">
    <path d="M 666.757988 330.262885 
L 666.757988 52.033843 
" clip-path="url(#pa9dda3e767)" style="fill: none; stroke: #000000; stroke-opacity: 0.7; stroke-width: 3"/>
   </g>
   <g id="line2d_80">
    <path d="M 666.757988 330.262885 
L 666.757988 52.033843 
" clip-path="url(#pa9dda3e767)" style="fill: none; stroke: #000000; stroke-opacity: 0.7; stroke-width: 3"/>
   </g>
   <g id="line2d_81">
    <path d="M 942.23202 215.467049 
L 937.640786 215.50535 
L 919.275851 215.428747 
L 914.684617 215.390445 
L 911.623794 215.467049 
L 900.910915 215.73516 
L 887.137214 218.416277 
L 877.954746 220.10155 
L 868.772278 221.863427 
L 864.181044 222.591158 
L 827.451173 228.183202 
L 824.390351 228.796028 
L 818.268706 229.638665 
L 796.842948 232.817703 
L 783.069246 234.273166 
L 776.947601 234.962596 
L 761.643488 236.494663 
L 743.278553 240.248226 
L 738.687319 241.205768 
L 720.322383 244.806124 
L 689.714158 250.091754 
L 685.122924 250.819486 
L 682.062101 251.355709 
L 677.470867 252.121742 
L 666.757988 251.010994 
L 666.757988 251.010994 
" clip-path="url(#pa9dda3e767)" style="fill: none; stroke: #888d8f; stroke-width: 4"/>
   </g>
   <g id="line2d_82">
    <path d="M 942.23202 226.651135 
L 934.579964 226.574532 
L 926.927907 226.30642 
L 917.745439 225.923403 
L 916.215028 225.885102 
L 902.441327 221.518712 
L 900.910915 221.059092 
L 890.198036 220.599472 
L 884.076391 220.369662 
L 871.833101 219.833439 
L 865.711456 219.603629 
L 850.407343 218.531182 
L 841.224875 217.994959 
L 838.164052 217.726847 
L 830.511996 217.267227 
L 827.451173 217.075719 
L 824.390351 216.501194 
L 799.90377 219.527025 
L 793.782125 222.016633 
L 763.173899 234.388071 
L 761.643488 235.0392 
L 753.991432 237.030886 
L 741.748141 240.286528 
L 735.626496 241.895198 
L 729.504851 243.542169 
L 726.444029 243.350661 
L 715.73115 243.963488 
L 709.609504 244.346504 
L 700.427037 244.882728 
L 688.183746 245.725364 
L 677.470867 246.338191 
L 669.818811 245.687063 
L 666.757988 245.380649 
L 666.757988 245.380649 
" clip-path="url(#pa9dda3e767)" style="fill: none; stroke: #f5700a; stroke-width: 4"/>
   </g>
   <g id="line2d_83">
    <path d="M 942.23202 215.467049 
L 937.640786 215.50535 
L 919.275851 215.428747 
L 914.684617 215.390445 
L 911.623794 215.467049 
L 900.910915 215.73516 
L 887.137214 218.416277 
L 877.954746 220.10155 
L 868.772278 221.863427 
L 864.181044 222.591158 
L 827.451173 228.183202 
L 824.390351 228.796028 
L 818.268706 229.638665 
L 796.842948 232.817703 
L 783.069246 234.273166 
L 776.947601 234.962596 
L 761.643488 236.494663 
L 743.278553 240.248226 
L 738.687319 241.205768 
L 720.322383 244.806124 
L 689.714158 250.091754 
L 685.122924 250.819486 
L 682.062101 251.355709 
L 677.470867 252.121742 
L 666.757988 251.010994 
L 666.757988 251.010994 
" clip-path="url(#pa9dda3e767)" style="fill: none; stroke: #888d8f; stroke-width: 4"/>
   </g>
   <g id="line2d_84">
    <path d="M 942.23202 226.651135 
L 934.579964 226.574532 
L 926.927907 226.30642 
L 917.745439 225.923403 
L 916.215028 225.885102 
L 902.441327 221.518712 
L 900.910915 221.059092 
L 890.198036 220.599472 
L 884.076391 220.369662 
L 871.833101 219.833439 
L 865.711456 219.603629 
L 850.407343 218.531182 
L 841.224875 217.994959 
L 838.164052 217.726847 
L 830.511996 217.267227 
L 827.451173 217.075719 
L 824.390351 216.501194 
L 799.90377 219.527025 
L 793.782125 222.016633 
L 763.173899 234.388071 
L 761.643488 235.0392 
L 753.991432 237.030886 
L 741.748141 240.286528 
L 735.626496 241.895198 
L 729.504851 243.542169 
L 726.444029 243.350661 
L 715.73115 243.963488 
L 709.609504 244.346504 
L 700.427037 244.882728 
L 688.183746 245.725364 
L 677.470867 246.338191 
L 669.818811 245.687063 
L 666.757988 245.380649 
L 666.757988 245.380649 
" clip-path="url(#pa9dda3e767)" style="fill: none; stroke: #f5700a; stroke-width: 4"/>
   </g>
   <g id="line2d_85">
    <path d="M 942.23202 215.467049 
L 937.640786 215.50535 
L 919.275851 215.428747 
L 914.684617 215.390445 
L 911.623794 215.467049 
L 900.910915 215.73516 
L 887.137214 218.416277 
L 877.954746 220.10155 
L 868.772278 221.863427 
L 864.181044 222.591158 
L 827.451173 228.183202 
L 824.390351 228.796028 
L 818.268706 229.638665 
L 796.842948 232.817703 
L 783.069246 234.273166 
L 776.947601 234.962596 
L 761.643488 236.494663 
L 743.278553 240.248226 
L 738.687319 241.205768 
L 720.322383 244.806124 
L 689.714158 250.091754 
L 685.122924 250.819486 
L 682.062101 251.355709 
L 677.470867 252.121742 
L 666.757988 251.010994 
L 666.757988 251.010994 
" clip-path="url(#pa9dda3e767)" style="fill: none; stroke: #888d8f; stroke-width: 4"/>
   </g>
   <g id="line2d_86">
    <path d="M 942.23202 226.651135 
L 934.579964 226.574532 
L 926.927907 226.30642 
L 917.745439 225.923403 
L 916.215028 225.885102 
L 902.441327 221.518712 
L 900.910915 221.059092 
L 890.198036 220.599472 
L 884.076391 220.369662 
L 871.833101 219.833439 
L 865.711456 219.603629 
L 850.407343 218.531182 
L 841.224875 217.994959 
L 838.164052 217.726847 
L 830.511996 217.267227 
L 827.451173 217.075719 
L 824.390351 216.501194 
L 799.90377 219.527025 
L 793.782125 222.016633 
L 763.173899 234.388071 
L 761.643488 235.0392 
L 753.991432 237.030886 
L 741.748141 240.286528 
L 735.626496 241.895198 
L 729.504851 243.542169 
L 726.444029 243.350661 
L 715.73115 243.963488 
L 709.609504 244.346504 
L 700.427037 244.882728 
L 688.183746 245.725364 
L 677.470867 246.338191 
L 669.818811 245.687063 
L 666.757988 245.380649 
L 666.757988 245.380649 
" clip-path="url(#pa9dda3e767)" style="fill: none; stroke: #f5700a; stroke-width: 4"/>
   </g>
   <g id="line2d_87">
    <path d="M 942.23202 215.467049 
L 937.640786 215.50535 
L 919.275851 215.428747 
L 914.684617 215.390445 
L 911.623794 215.467049 
L 900.910915 215.73516 
L 887.137214 218.416277 
L 877.954746 220.10155 
L 868.772278 221.863427 
L 864.181044 222.591158 
L 827.451173 228.183202 
L 824.390351 228.796028 
L 818.268706 229.638665 
L 796.842948 232.817703 
L 783.069246 234.273166 
L 776.947601 234.962596 
L 761.643488 236.494663 
L 743.278553 240.248226 
L 738.687319 241.205768 
L 720.322383 244.806124 
L 689.714158 250.091754 
L 685.122924 250.819486 
L 682.062101 251.355709 
L 677.470867 252.121742 
L 666.757988 251.010994 
L 666.757988 251.010994 
" clip-path="url(#pa9dda3e767)" style="fill: none; stroke: #888d8f; stroke-width: 4"/>
   </g>
   <g id="line2d_88">
    <path d="M 942.23202 226.651135 
L 934.579964 226.574532 
L 926.927907 226.30642 
L 917.745439 225.923403 
L 916.215028 225.885102 
L 902.441327 221.518712 
L 900.910915 221.059092 
L 890.198036 220.599472 
L 884.076391 220.369662 
L 871.833101 219.833439 
L 865.711456 219.603629 
L 850.407343 218.531182 
L 841.224875 217.994959 
L 838.164052 217.726847 
L 830.511996 217.267227 
L 827.451173 217.075719 
L 824.390351 216.501194 
L 799.90377 219.527025 
L 793.782125 222.016633 
L 763.173899 234.388071 
L 761.643488 235.0392 
L 753.991432 237.030886 
L 741.748141 240.286528 
L 735.626496 241.895198 
L 729.504851 243.542169 
L 726.444029 243.350661 
L 715.73115 243.963488 
L 709.609504 244.346504 
L 700.427037 244.882728 
L 688.183746 245.725364 
L 677.470867 246.338191 
L 669.818811 245.687063 
L 666.757988 245.380649 
L 666.757988 245.380649 
" clip-path="url(#pa9dda3e767)" style="fill: none; stroke: #f5700a; stroke-width: 4"/>
   </g>
   <g id="line2d_89">
    <path d="M 942.23202 156.827199 
L 936.110375 156.903802 
L 916.215028 158.474171 
L 908.562972 161.270192 
L 900.910915 164.104515 
L 888.667625 161.883019 
L 882.54598 160.733969 
L 874.893923 159.316807 
L 867.241867 157.861344 
L 838.164052 155.027021 
L 835.10323 154.758909 
L 832.042407 154.452496 
L 827.451173 153.954574 
L 824.390351 152.882127 
L 819.799117 152.499111 
L 804.495004 151.273458 
L 799.90377 150.890441 
L 780.008424 144.800476 
L 770.825956 141.927851 
L 750.930609 136.067696 
L 738.687319 132.582245 
L 729.504851 129.93943 
L 726.444029 128.369062 
L 720.322383 127.066805 
L 706.548682 124.040973 
L 700.427037 122.738717 
L 692.77498 121.091745 
L 686.653335 119.789489 
L 677.470867 117.797802 
L 666.757988 121.781175 
L 666.757988 121.781175 
" clip-path="url(#pa9dda3e767)" style="fill: none; stroke: #068773; stroke-width: 4"/>
   </g>
   <g id="line2d_90">
    <path d="M 666.757988 320.1455 
L 942.23202 320.1455 
" clip-path="url(#pa9dda3e767)" style="fill: none; stroke: #000000; stroke-opacity: 0.7; stroke-width: 2"/>
   </g>
   <g id="line2d_91">
    <path d="M 942.23202 156.827199 
L 936.110375 156.903802 
L 916.215028 158.474171 
L 908.562972 161.270192 
L 900.910915 164.104515 
L 888.667625 161.883019 
L 882.54598 160.733969 
L 874.893923 159.316807 
L 867.241867 157.861344 
L 838.164052 155.027021 
L 835.10323 154.758909 
L 832.042407 154.452496 
L 827.451173 153.954574 
L 824.390351 152.882127 
L 819.799117 152.499111 
L 804.495004 151.273458 
L 799.90377 150.890441 
L 780.008424 144.800476 
L 770.825956 141.927851 
L 750.930609 136.067696 
L 738.687319 132.582245 
L 729.504851 129.93943 
L 726.444029 128.369062 
L 720.322383 127.066805 
L 706.548682 124.040973 
L 700.427037 122.738717 
L 692.77498 121.091745 
L 686.653335 119.789489 
L 677.470867 117.797802 
L 666.757988 121.781175 
L 666.757988 121.781175 
" clip-path="url(#pa9dda3e767)" style="fill: none; stroke: #068773; stroke-width: 4"/>
   </g>
   <g id="line2d_92">
    <path d="M 666.757988 320.1455 
L 942.23202 320.1455 
" clip-path="url(#pa9dda3e767)" style="fill: none; stroke: #000000; stroke-opacity: 0.7; stroke-width: 2"/>
   </g>
   <g id="line2d_93">
    <path d="M 942.23202 156.827199 
L 936.110375 156.903802 
L 916.215028 158.474171 
L 908.562972 161.270192 
L 900.910915 164.104515 
L 888.667625 161.883019 
L 882.54598 160.733969 
L 874.893923 159.316807 
L 867.241867 157.861344 
L 838.164052 155.027021 
L 835.10323 154.758909 
L 832.042407 154.452496 
L 827.451173 153.954574 
L 824.390351 152.882127 
L 819.799117 152.499111 
L 804.495004 151.273458 
L 799.90377 150.890441 
L 780.008424 144.800476 
L 770.825956 141.927851 
L 750.930609 136.067696 
L 738.687319 132.582245 
L 729.504851 129.93943 
L 726.444029 128.369062 
L 720.322383 127.066805 
L 706.548682 124.040973 
L 700.427037 122.738717 
L 692.77498 121.091745 
L 686.653335 119.789489 
L 677.470867 117.797802 
L 666.757988 121.781175 
L 666.757988 121.781175 
" clip-path="url(#pa9dda3e767)" style="fill: none; stroke: #068773; stroke-width: 4"/>
   </g>
   <g id="line2d_94">
    <path d="M 666.757988 320.1455 
L 942.23202 320.1455 
" clip-path="url(#pa9dda3e767)" style="fill: none; stroke: #000000; stroke-opacity: 0.7; stroke-width: 2"/>
   </g>
   <g id="line2d_95">
    <path d="M 942.23202 156.827199 
L 936.110375 156.903802 
L 916.215028 158.474171 
L 908.562972 161.270192 
L 900.910915 164.104515 
L 888.667625 161.883019 
L 882.54598 160.733969 
L 874.893923 159.316807 
L 867.241867 157.861344 
L 838.164052 155.027021 
L 835.10323 154.758909 
L 832.042407 154.452496 
L 827.451173 153.954574 
L 824.390351 152.882127 
L 819.799117 152.499111 
L 804.495004 151.273458 
L 799.90377 150.890441 
L 780.008424 144.800476 
L 770.825956 141.927851 
L 750.930609 136.067696 
L 738.687319 132.582245 
L 729.504851 129.93943 
L 726.444029 128.369062 
L 720.322383 127.066805 
L 706.548682 124.040973 
L 700.427037 122.738717 
L 692.77498 121.091745 
L 686.653335 119.789489 
L 677.470867 117.797802 
L 666.757988 121.781175 
L 666.757988 121.781175 
" clip-path="url(#pa9dda3e767)" style="fill: none; stroke: #068773; stroke-width: 4"/>
   </g>
   <g id="line2d_96">
    <path d="M 666.757988 320.1455 
L 942.23202 320.1455 
" clip-path="url(#pa9dda3e767)" style="fill: none; stroke: #000000; stroke-opacity: 0.7; stroke-width: 2"/>
   </g>
   <g id="text_17">
    <text style="fill: #808080; font: 700 14px 'Roboto', 'Arial', 'DejaVu Sans', sans-serif; text-anchor: middle" x="804.495004" y="48.251552" transform="rotate(-0 804.495004 48.251552)">60 ANOS OU +</text>
   </g>
  </g>
  <g id="text_18">
   <text style="fill: #222222; font: 700 24px 'Roboto', 'Arial', 'DejaVu Sans', sans-serif" transform="translate(6.568935 20.68875)">Avaliação de governo por faixa de idade</text>
   <text style="fill: #222222; font: 700 24px 'Roboto', 'Arial', 'DejaVu Sans', sans-serif" transform="translate(219.90456 48.02625)"/>
  </g>
 </g>
 <defs>
  <clipPath id="p00ceee4436">
   <rect x="42.306875" y="52.033843" width="275.474032" height="278.229042"/>
  </clipPath>
  <clipPath id="p2fc5209adc">
   <rect x="354.532432" y="52.033843" width="275.474032" height="278.229042"/>
  </clipPath>
  <clipPath id="pa9dda3e767">
   <rect x="666.757988" y="52.033843" width="275.474032" height="278.229042"/>
  </clipPath>
 </defs>
</svg>
