<?xml version="1.0" encoding="utf-8" standalone="no"?>
<!DOCTYPE svg PUBLIC "-//W3C//DTD SVG 1.1//EN"
  "http://www.w3.org/Graphics/SVG/1.1/DTD/svg11.dtd">
<svg xmlns:xlink="http://www.w3.org/1999/xlink" width="714.358364pt" height="366.734875pt" viewBox="0 0 714.358364 366.734875" xmlns="http://www.w3.org/2000/svg" version="1.1">
 <metadata>
  <rdf:RDF xmlns:dc="http://purl.org/dc/elements/1.1/" xmlns:cc="http://creativecommons.org/ns#" xmlns:rdf="http://www.w3.org/1999/02/22-rdf-syntax-ns#">
   <cc:Work>
    <dc:type rdf:resource="http://purl.org/dc/dcmitype/StillImage"/>
    <dc:date>2023-10-11T11:18:46.654344</dc:date>
    <dc:format>image/svg+xml</dc:format>
    <dc:creator>
     <cc:Agent>
      <dc:title>Matplotlib v3.8.0, https://matplotlib.org/</dc:title>
     </cc:Agent>
    </dc:creator>
   </cc:Work>
  </rdf:RDF>
 </metadata>
 <defs>
  <style type="text/css">*{stroke-linejoin: round; stroke-linecap: butt}</style>
 </defs>
 <g id="figure_1">
  <g id="patch_1">
   <path d="M 0 366.734875 
L 714.358364 366.734875 
L 714.358364 0 
L 0 0 
L 0 366.734875 
z
" style="fill: none"/>
  </g>
  <g id="axes_1">
   <g id="patch_2">
    <path d="M 42.306875 339.278 
L 686.588379 339.278 
L 686.588379 72.2425 
L 42.306875 72.2425 
L 42.306875 339.278 
z
" style="fill: none"/>
   </g>
   <g id="matplotlib.axis_1">
    <g id="xtick_1">
     <g id="line2d_1">
      <path d="M 160.601184 339.278 
L 160.601184 72.2425 
" clip-path="url(#p2d580cc3a5)" style="fill: none; stroke-dasharray: 0.7,2.1; stroke-dashoffset: 0; stroke: #000000; stroke-opacity: 0.5; stroke-width: 0.7"/>
     </g>
     <g id="line2d_2"/>
     <g id="text_1">
      <text style="fill: #333333; font: 20px 'Roboto', 'Arial', 'DejaVu Sans', sans-serif; text-anchor: middle" x="160.601184" y="360.512375" transform="rotate(-0 160.601184 360.512375)">2023-01</text>
     </g>
    </g>
    <g id="xtick_2">
     <g id="line2d_3">
      <path d="M 285.232688 339.278 
L 285.232688 72.2425 
" clip-path="url(#p2d580cc3a5)" style="fill: none; stroke-dasharray: 0.7,2.1; stroke-dashoffset: 0; stroke: #000000; stroke-opacity: 0.5; stroke-width: 0.7"/>
     </g>
     <g id="line2d_4"/>
     <g id="text_2">
      <text style="fill: #333333; font: 20px 'Roboto', 'Arial', 'DejaVu Sans', sans-serif; text-anchor: middle" x="285.232688" y="360.512375" transform="rotate(-0 285.232688 360.512375)">2023-03</text>
     </g>
    </g>
    <g id="xtick_3">
     <g id="line2d_5">
      <path d="M 414.088989 339.278 
L 414.088989 72.2425 
" clip-path="url(#p2d580cc3a5)" style="fill: none; stroke-dasharray: 0.7,2.1; stroke-dashoffset: 0; stroke: #000000; stroke-opacity: 0.5; stroke-width: 0.7"/>
     </g>
     <g id="line2d_6"/>
     <g id="text_3">
      <text style="fill: #333333; font: 20px 'Roboto', 'Arial', 'DejaVu Sans', sans-serif; text-anchor: middle" x="414.088989" y="360.512375" transform="rotate(-0 414.088989 360.512375)">2023-05</text>
     </g>
    </g>
    <g id="xtick_4">
     <g id="line2d_7">
      <path d="M 542.945289 339.278 
L 542.945289 72.2425 
" clip-path="url(#p2d580cc3a5)" style="fill: none; stroke-dasharray: 0.7,2.1; stroke-dashoffset: 0; stroke: #000000; stroke-opacity: 0.5; stroke-width: 0.7"/>
     </g>
     <g id="line2d_8"/>
     <g id="text_4">
      <text style="fill: #333333; font: 20px 'Roboto', 'Arial', 'DejaVu Sans', sans-serif; text-anchor: middle" x="542.945289" y="360.512375" transform="rotate(-0 542.945289 360.512375)">2023-07</text>
     </g>
    </g>
    <g id="xtick_5">
     <g id="line2d_9">
      <path d="M 673.913989 339.278 
L 673.913989 72.2425 
" clip-path="url(#p2d580cc3a5)" style="fill: none; stroke-dasharray: 0.7,2.1; stroke-dashoffset: 0; stroke: #000000; stroke-opacity: 0.5; stroke-width: 0.7"/>
     </g>
     <g id="line2d_10"/>
     <g id="text_5">
      <text style="fill: #333333; font: 20px 'Roboto', 'Arial', 'DejaVu Sans', sans-serif; text-anchor: middle" x="673.913989" y="360.512375" transform="rotate(-0 673.913989 360.512375)">2023-09</text>
     </g>
    </g>
   </g>
   <g id="matplotlib.axis_2">
    <g id="ytick_1">
     <g id="line2d_11">
      <path d="M 42.306875 339.278 
L 686.588379 339.278 
" clip-path="url(#p2d580cc3a5)" style="fill: none; stroke-dasharray: 0.7,2.1; stroke-dashoffset: 0; stroke: #000000; stroke-opacity: 0.5; stroke-width: 0.7"/>
     </g>
     <g id="text_6">
      <text style="fill: #333333; font: 20px 'Roboto', 'Arial', 'DejaVu Sans', sans-serif; text-anchor: end" x="39.306875" y="344.863937" transform="rotate(-0 39.306875 344.863937)">0  </text>
     </g>
    </g>
    <g id="ytick_2">
     <g id="line2d_12">
      <path d="M 42.306875 294.772083 
L 686.588379 294.772083 
" clip-path="url(#p2d580cc3a5)" style="fill: none; stroke-dasharray: 0.7,2.1; stroke-dashoffset: 0; stroke: #000000; stroke-opacity: 0.5; stroke-width: 0.7"/>
     </g>
     <g id="text_7">
      <text style="fill: #333333; font: 20px 'Roboto', 'Arial', 'DejaVu Sans', sans-serif; text-anchor: end" x="39.306875" y="300.358021" transform="rotate(-0 39.306875 300.358021)">10  </text>
     </g>
    </g>
    <g id="ytick_3">
     <g id="line2d_13">
      <path d="M 42.306875 250.266167 
L 686.588379 250.266167 
" clip-path="url(#p2d580cc3a5)" style="fill: none; stroke-dasharray: 0.7,2.1; stroke-dashoffset: 0; stroke: #000000; stroke-opacity: 0.5; stroke-width: 0.7"/>
     </g>
     <g id="text_8">
      <text style="fill: #333333; font: 20px 'Roboto', 'Arial', 'DejaVu Sans', sans-serif; text-anchor: end" x="39.306875" y="255.852104" transform="rotate(-0 39.306875 255.852104)">20  </text>
     </g>
    </g>
    <g id="ytick_4">
     <g id="line2d_14">
      <path d="M 42.306875 205.76025 
L 686.588379 205.76025 
" clip-path="url(#p2d580cc3a5)" style="fill: none; stroke-dasharray: 0.7,2.1; stroke-dashoffset: 0; stroke: #000000; stroke-opacity: 0.5; stroke-width: 0.7"/>
     </g>
     <g id="text_9">
      <text style="fill: #333333; font: 20px 'Roboto', 'Arial', 'DejaVu Sans', sans-serif; text-anchor: end" x="39.306875" y="211.346187" transform="rotate(-0 39.306875 211.346187)">30  </text>
     </g>
    </g>
    <g id="ytick_5">
     <g id="line2d_15">
      <path d="M 42.306875 161.254333 
L 686.588379 161.254333 
" clip-path="url(#p2d580cc3a5)" style="fill: none; stroke-dasharray: 0.7,2.1; stroke-dashoffset: 0; stroke: #000000; stroke-opacity: 0.5; stroke-width: 0.7"/>
     </g>
     <g id="text_10">
      <text style="fill: #333333; font: 20px 'Roboto', 'Arial', 'DejaVu Sans', sans-serif; text-anchor: end" x="39.306875" y="166.840271" transform="rotate(-0 39.306875 166.840271)">40  </text>
     </g>
    </g>
    <g id="ytick_6">
     <g id="line2d_16">
      <path d="M 42.306875 116.748417 
L 686.588379 116.748417 
" clip-path="url(#p2d580cc3a5)" style="fill: none; stroke-dasharray: 0.7,2.1; stroke-dashoffset: 0; stroke: #000000; stroke-opacity: 0.5; stroke-width: 0.7"/>
     </g>
     <g id="text_11">
      <text style="fill: #333333; font: 20px 'Roboto', 'Arial', 'DejaVu Sans', sans-serif; text-anchor: end" x="39.306875" y="122.334354" transform="rotate(-0 39.306875 122.334354)">50  </text>
     </g>
    </g>
    <g id="ytick_7">
     <g id="line2d_17">
      <path d="M 42.306875 72.2425 
L 686.588379 72.2425 
" clip-path="url(#p2d580cc3a5)" style="fill: none; stroke-dasharray: 0.7,2.1; stroke-dashoffset: 0; stroke: #000000; stroke-opacity: 0.5; stroke-width: 0.7"/>
     </g>
     <g id="text_12">
      <text style="fill: #333333; font: 20px 'Roboto', 'Arial', 'DejaVu Sans', sans-serif; text-anchor: end" x="39.306875" y="77.828437" transform="rotate(-0 39.306875 77.828437)">60%</text>
     </g>
    </g>
   </g>
   <g id="line2d_18">
    <path d="M 686.588379 191.963416 
L 654.902403 191.963416 
L 652.790005 192.408475 
L 650.677606 191.963416 
L 629.553623 191.963416 
L 627.441224 192.408475 
L 623.216428 192.408475 
L 621.104029 192.853534 
L 616.879232 192.853534 
L 614.766834 193.298593 
L 608.429639 193.298593 
L 606.317241 193.743652 
L 602.092444 193.743652 
L 599.980045 194.188712 
L 593.64285 194.188712 
L 591.530452 194.633771 
L 585.193257 194.633771 
L 583.080858 195.07883 
L 578.856062 195.07883 
L 576.743663 195.523889 
L 568.29407 195.523889 
L 566.181671 195.968948 
L 559.844476 195.968948 
L 557.732078 196.414007 
L 551.394883 196.414007 
L 549.282484 196.859067 
L 542.945289 196.859067 
L 540.832891 197.304126 
L 534.495696 197.304126 
L 532.383298 197.749185 
L 528.158501 197.749185 
L 526.046102 198.194244 
L 517.596509 198.194244 
L 515.484111 198.639303 
L 507.034517 198.639303 
L 504.922119 199.084362 
L 500.697322 199.084362 
L 498.584924 199.529422 
L 490.13533 199.529422 
L 488.022932 199.974481 
L 481.685737 199.974481 
L 479.573338 200.41954 
L 473.236143 200.41954 
L 471.123745 200.864599 
L 466.898948 200.864599 
L 464.78655 201.309658 
L 458.449354 201.309658 
L 456.336956 201.754717 
L 449.999761 201.754717 
L 447.887363 202.199777 
L 441.550167 202.199777 
L 439.437769 202.644836 
L 430.988176 202.644836 
L 428.875777 203.089895 
L 420.426184 203.089895 
L 418.313785 203.534954 
L 411.97659 203.534954 
L 409.864192 203.980013 
L 401.414598 203.980013 
L 399.3022 204.425072 
L 392.965005 204.425072 
L 390.852607 204.870132 
L 380.290615 204.870132 
L 378.178216 205.315191 
L 371.841021 205.315191 
L 369.728623 205.76025 
L 359.166631 205.76025 
L 357.054233 206.205309 
L 342.267444 206.205309 
L 340.155046 206.650368 
L 333.81785 206.650368 
L 331.705452 207.095427 
L 321.14346 207.095427 
L 319.031062 207.540487 
L 308.46907 207.540487 
L 306.356672 207.985546 
L 291.569883 207.985546 
L 289.457485 208.430605 
L 285.232688 208.430605 
L 283.12029 208.875664 
L 276.783094 208.875664 
L 274.670696 209.320723 
L 270.445899 209.320723 
L 268.333501 209.765782 
L 264.108704 209.765782 
L 261.996306 210.210842 
L 255.659111 210.210842 
L 253.546712 210.655901 
L 249.321916 210.655901 
L 247.209517 211.10096 
L 242.98472 211.10096 
L 240.872322 211.546019 
L 234.535127 211.546019 
L 232.422729 211.991078 
L 228.197932 211.991078 
L 226.085533 212.436137 
L 221.860737 212.436137 
L 219.748338 212.881197 
L 215.523542 212.881197 
L 213.411143 213.326256 
L 207.073948 213.326256 
L 204.96155 213.771315 
L 200.736753 213.771315 
L 198.624355 214.216374 
L 194.399558 214.216374 
L 192.287159 214.661433 
L 185.949964 214.661433 
L 183.837566 215.106492 
L 179.612769 215.106492 
L 177.500371 215.551552 
L 173.275574 215.551552 
L 171.163176 215.996611 
L 166.938379 215.996611 
L 164.825981 216.44167 
L 158.488786 216.44167 
L 156.376387 216.886729 
L 150.039192 216.886729 
L 147.926794 217.331788 
L 143.701997 217.331788 
L 141.589599 217.776847 
L 135.252403 217.776847 
L 133.140005 218.221907 
L 128.915208 218.221907 
L 126.80281 218.666966 
L 120.465615 218.666966 
L 118.353216 219.112025 
L 114.12842 219.112025 
L 112.016021 219.557084 
L 105.678826 219.557084 
L 103.566428 220.002143 
L 95.116834 220.002143 
L 93.004436 220.447202 
L 86.667241 220.447202 
L 84.554842 220.892262 
L 80.330046 220.892262 
L 78.217647 221.337321 
L 71.880452 221.337321 
L 69.768054 221.78238 
L 65.543257 221.78238 
L 63.430859 222.227439 
L 57.093664 222.227439 
L 54.981265 222.672498 
L 50.756468 222.672498 
L 48.64407 223.117557 
L 46.531672 223.117557 
L 44.419273 223.562617 
L 42.306875 223.562617 
L 42.306875 223.562617 
" clip-path="url(#p2d580cc3a5)" style="fill: none; stroke: #bcbd22; stroke-width: 4"/>
   </g>
   <g id="line2d_19">
    <path d="M 686.588379 230.238504 
L 627.441224 230.238504 
L 625.328826 229.793445 
L 621.104029 229.793445 
L 618.991631 229.348386 
L 616.879232 229.348386 
L 614.766834 228.903327 
L 612.654436 228.903327 
L 610.542037 228.458267 
L 608.429639 228.458267 
L 606.317241 228.013208 
L 602.092444 228.013208 
L 599.980045 227.568149 
L 597.867647 227.568149 
L 595.755249 227.12309 
L 593.64285 227.12309 
L 591.530452 226.678031 
L 587.305655 226.678031 
L 585.193257 226.232972 
L 583.080858 226.232972 
L 580.96846 225.787912 
L 578.856062 225.787912 
L 576.743663 225.342853 
L 572.518867 225.342853 
L 570.406468 224.897794 
L 568.29407 224.897794 
L 566.181671 224.452735 
L 564.069273 224.452735 
L 561.956875 224.007676 
L 557.732078 224.007676 
L 555.61968 223.562617 
L 553.507281 223.562617 
L 551.394883 223.117557 
L 549.282484 223.117557 
L 547.170086 222.672498 
L 542.945289 222.672498 
L 540.832891 222.227439 
L 538.720493 222.227439 
L 536.608094 221.78238 
L 534.495696 221.78238 
L 532.383298 221.337321 
L 528.158501 221.337321 
L 526.046102 220.892262 
L 521.821306 220.892262 
L 519.708907 220.447202 
L 517.596509 220.447202 
L 515.484111 220.002143 
L 513.371712 220.002143 
L 511.259314 219.557084 
L 507.034517 219.557084 
L 504.922119 219.112025 
L 500.697322 219.112025 
L 498.584924 218.666966 
L 496.472525 218.666966 
L 494.360127 218.221907 
L 490.13533 218.221907 
L 488.022932 217.776847 
L 485.910533 217.776847 
L 483.798135 217.331788 
L 481.685737 217.331788 
L 479.573338 216.886729 
L 477.46094 216.886729 
L 475.348541 216.44167 
L 471.123745 216.44167 
L 469.011346 215.996611 
L 466.898948 215.996611 
L 464.78655 215.551552 
L 460.561753 215.551552 
L 458.449354 215.106492 
L 456.336956 215.106492 
L 454.224558 214.661433 
L 452.112159 214.661433 
L 449.999761 214.216374 
L 447.887363 214.216374 
L 445.774964 213.771315 
L 441.550167 213.771315 
L 439.437769 213.326256 
L 435.212972 213.326256 
L 433.100574 212.881197 
L 430.988176 212.881197 
L 428.875777 212.436137 
L 426.763379 212.436137 
L 424.65098 211.991078 
L 420.426184 211.991078 
L 418.313785 211.546019 
L 416.201387 211.546019 
L 414.088989 211.10096 
L 409.864192 211.10096 
L 407.751794 210.655901 
L 405.639395 210.655901 
L 403.526997 210.210842 
L 399.3022 210.210842 
L 397.189802 209.765782 
L 395.077403 209.765782 
L 392.965005 209.320723 
L 388.740208 209.320723 
L 386.62781 208.875664 
L 384.515411 208.875664 
L 382.403013 208.430605 
L 380.290615 208.430605 
L 378.178216 207.985546 
L 373.95342 207.985546 
L 371.841021 207.540487 
L 367.616224 207.540487 
L 365.503826 207.095427 
L 363.391428 207.095427 
L 361.279029 206.650368 
L 357.054233 206.650368 
L 354.941834 206.205309 
L 350.717037 206.205309 
L 348.604639 205.76025 
L 346.492241 205.76025 
L 344.379842 205.315191 
L 340.155046 205.315191 
L 338.042647 204.870132 
L 333.81785 204.870132 
L 331.705452 204.425072 
L 329.593054 204.425072 
L 327.480655 203.980013 
L 325.368257 203.980013 
L 323.255859 203.534954 
L 321.14346 203.534954 
L 319.031062 203.089895 
L 314.806265 203.089895 
L 312.693867 202.644836 
L 310.581468 202.644836 
L 308.46907 202.199777 
L 304.244273 202.199777 
L 302.131875 201.754717 
L 295.79468 201.754717 
L 293.682281 201.309658 
L 291.569883 201.309658 
L 289.457485 200.864599 
L 287.345086 200.864599 
L 281.007891 199.529422 
L 278.895493 199.529422 
L 274.670696 198.639303 
L 272.558298 198.639303 
L 266.221103 197.304126 
L 264.108704 197.304126 
L 259.883907 196.414007 
L 257.771509 196.414007 
L 251.434314 195.07883 
L 249.321916 195.07883 
L 245.097119 194.188712 
L 242.98472 194.188712 
L 238.759924 193.298593 
L 236.647525 193.298593 
L 232.422729 192.408475 
L 230.31033 192.408475 
L 226.085533 191.518357 
L 223.973135 191.518357 
L 219.748338 190.628238 
L 217.63594 190.628238 
L 209.186346 188.848002 
L 207.073948 188.848002 
L 200.736753 187.512824 
L 198.624355 187.512824 
L 194.399558 186.622706 
L 192.287159 186.622706 
L 188.062363 185.732587 
L 185.949964 185.732587 
L 179.612769 184.39741 
L 177.500371 184.39741 
L 171.163176 183.062232 
L 169.050777 183.062232 
L 164.825981 182.172114 
L 162.713582 182.172114 
L 158.488786 181.281996 
L 156.376387 181.281996 
L 150.039192 179.946818 
L 147.926794 179.946818 
L 143.701997 179.0567 
L 141.589599 179.0567 
L 137.364802 178.166582 
L 135.252403 178.166582 
L 131.027607 177.276463 
L 128.915208 177.276463 
L 122.578013 175.941286 
L 120.465615 175.941286 
L 116.240818 175.051167 
L 114.12842 175.051167 
L 109.903623 174.161049 
L 107.791225 174.161049 
L 101.454029 172.825872 
L 99.341631 172.825872 
L 95.116834 171.935753 
L 93.004436 171.935753 
L 88.779639 171.045635 
L 86.667241 171.045635 
L 82.442444 170.155517 
L 80.330046 170.155517 
L 76.105249 169.265398 
L 73.992851 169.265398 
L 69.768054 168.37528 
L 67.655655 168.37528 
L 63.430859 167.485162 
L 61.31846 167.485162 
L 57.093664 166.595043 
L 54.981265 166.595043 
L 42.306875 163.924688 
L 42.306875 163.924688 
" clip-path="url(#p2d580cc3a5)" style="fill: none; stroke: #ff5a5f; stroke-width: 4"/>
   </g>
   <g id="line2d_20">
    <path d="M 686.588379 159.474097 
L 612.654436 159.474097 
L 610.542037 159.919156 
L 597.867647 159.919156 
L 595.755249 160.364215 
L 578.856062 160.364215 
L 576.743663 160.809274 
L 566.181671 160.809274 
L 564.069273 161.254333 
L 553.507281 161.254333 
L 551.394883 161.699392 
L 534.495696 161.699392 
L 532.383298 162.144452 
L 521.821306 162.144452 
L 519.708907 162.589511 
L 509.146915 162.589511 
L 507.034517 163.03457 
L 492.247728 163.03457 
L 490.13533 163.479629 
L 479.573338 163.479629 
L 477.46094 163.924688 
L 464.78655 163.924688 
L 462.674151 164.369747 
L 454.224558 164.369747 
L 452.112159 164.814807 
L 445.774964 164.814807 
L 443.662566 165.259866 
L 435.212972 165.259866 
L 433.100574 165.704925 
L 422.538582 165.704925 
L 420.426184 166.149984 
L 411.97659 166.149984 
L 409.864192 166.595043 
L 399.3022 166.595043 
L 397.189802 167.040102 
L 392.965005 167.040102 
L 390.852607 167.485162 
L 382.403013 167.485162 
L 380.290615 167.930221 
L 367.616224 167.930221 
L 365.503826 168.37528 
L 357.054233 168.37528 
L 354.941834 168.820339 
L 346.492241 168.820339 
L 344.379842 169.265398 
L 333.81785 169.265398 
L 331.705452 169.710457 
L 325.368257 169.710457 
L 323.255859 170.155517 
L 316.918663 170.155517 
L 314.806265 170.600576 
L 306.356672 170.600576 
L 304.244273 171.045635 
L 297.907078 171.045635 
L 295.79468 171.490694 
L 285.232688 171.490694 
L 283.12029 171.935753 
L 281.007891 171.935753 
L 278.895493 172.380812 
L 274.670696 172.380812 
L 272.558298 172.825872 
L 268.333501 172.825872 
L 266.221103 173.270931 
L 261.996306 173.270931 
L 259.883907 173.71599 
L 255.659111 173.71599 
L 253.546712 174.161049 
L 249.321916 174.161049 
L 247.209517 174.606108 
L 242.98472 174.606108 
L 240.872322 175.051167 
L 236.647525 175.051167 
L 234.535127 175.496227 
L 228.197932 175.496227 
L 226.085533 175.941286 
L 223.973135 175.941286 
L 221.860737 176.386345 
L 217.63594 176.386345 
L 215.523542 176.831404 
L 211.298745 176.831404 
L 209.186346 177.276463 
L 204.96155 177.276463 
L 202.849151 177.721522 
L 198.624355 177.721522 
L 196.511956 178.166582 
L 192.287159 178.166582 
L 190.174761 178.611641 
L 188.062363 178.611641 
L 185.949964 179.0567 
L 179.612769 179.0567 
L 177.500371 179.501759 
L 173.275574 179.501759 
L 171.163176 179.946818 
L 166.938379 179.946818 
L 164.825981 180.391877 
L 160.601184 180.391877 
L 158.488786 180.836937 
L 154.263989 180.836937 
L 152.15159 181.281996 
L 147.926794 181.281996 
L 145.814395 181.727055 
L 139.4772 181.727055 
L 137.364802 182.172114 
L 135.252403 182.172114 
L 133.140005 182.617173 
L 128.915208 182.617173 
L 126.80281 183.062232 
L 122.578013 183.062232 
L 120.465615 183.507292 
L 116.240818 183.507292 
L 114.12842 183.952351 
L 109.903623 183.952351 
L 107.791225 184.39741 
L 105.678826 184.39741 
L 103.566428 184.842469 
L 101.454029 184.842469 
L 99.341631 185.287528 
L 95.116834 185.287528 
L 93.004436 185.732587 
L 90.892038 185.732587 
L 88.779639 186.177647 
L 84.554842 186.177647 
L 82.442444 186.622706 
L 78.217647 186.622706 
L 76.105249 187.067765 
L 71.880452 187.067765 
L 69.768054 187.512824 
L 65.543257 187.512824 
L 63.430859 187.957883 
L 59.206062 187.957883 
L 57.093664 188.402942 
L 54.981265 188.402942 
L 52.868867 188.848002 
L 50.756468 188.848002 
L 48.64407 189.293061 
L 46.531672 189.293061 
L 44.419273 189.73812 
L 42.306875 189.73812 
L 42.306875 189.73812 
" clip-path="url(#p2d580cc3a5)" style="fill: none; stroke: #2196f3; stroke-width: 4"/>
   </g>
   <g id="line2d_21">
    <defs>
     <path id="m2694755a07" d="M 0 2.5 
C 0.663008 2.5 1.29895 2.236584 1.767767 1.767767 
C 2.236584 1.29895 2.5 0.663008 2.5 0 
C 2.5 -0.663008 2.236584 -1.29895 1.767767 -1.767767 
C 1.29895 -2.236584 0.663008 -2.5 0 -2.5 
C -0.663008 -2.5 -1.29895 -2.236584 -1.767767 -1.767767 
C -2.236584 -1.29895 -2.5 -0.663008 -2.5 0 
C -2.5 0.663008 -2.236584 1.29895 -1.767767 1.767767 
C -1.29895 2.236584 -0.663008 2.5 0 2.5 
z
" style="stroke: #2196f3; stroke-opacity: 0.5; stroke-width: 2"/>
    </defs>
    <g clip-path="url(#p2d580cc3a5)">
     <use xlink:href="#m2694755a07" x="54.981265" y="191.518357" style="fill: #2196f3; fill-opacity: 0.5; stroke: #2196f3; stroke-opacity: 0.5; stroke-width: 2"/>
     <use xlink:href="#m2694755a07" x="290.513684" y="171.045635" style="fill: #2196f3; fill-opacity: 0.5; stroke: #2196f3; stroke-opacity: 0.5; stroke-width: 2"/>
     <use xlink:href="#m2694755a07" x="630.609822" y="152.35315" style="fill: #2196f3; fill-opacity: 0.5; stroke: #2196f3; stroke-opacity: 0.5; stroke-width: 2"/>
    </g>
   </g>
   <g id="line2d_22">
    <defs>
     <path id="md8aaaba136" d="M 0 2.5 
C 0.663008 2.5 1.29895 2.236584 1.767767 1.767767 
C 2.236584 1.29895 2.5 0.663008 2.5 0 
C 2.5 -0.663008 2.236584 -1.29895 1.767767 -1.767767 
C 1.29895 -2.236584 0.663008 -2.5 0 -2.5 
C -0.663008 -2.5 -1.29895 -2.236584 -1.767767 -1.767767 
C -2.236584 -1.29895 -2.5 -0.663008 -2.5 0 
C -2.5 0.663008 -2.236584 1.29895 -1.767767 1.767767 
C -1.29895 2.236584 -0.663008 2.5 0 2.5 
z
" style="stroke: #bcbd22; stroke-opacity: 0.5; stroke-width: 2"/>
    </defs>
    <g clip-path="url(#p2d580cc3a5)">
     <use xlink:href="#md8aaaba136" x="54.981265" y="225.787912" style="fill: #bcbd22; fill-opacity: 0.5; stroke: #bcbd22; stroke-opacity: 0.5; stroke-width: 2"/>
     <use xlink:href="#md8aaaba136" x="290.513684" y="213.326256" style="fill: #bcbd22; fill-opacity: 0.5; stroke: #bcbd22; stroke-opacity: 0.5; stroke-width: 2"/>
     <use xlink:href="#md8aaaba136" x="630.609822" y="179.0567" style="fill: #bcbd22; fill-opacity: 0.5; stroke: #bcbd22; stroke-opacity: 0.5; stroke-width: 2"/>
    </g>
   </g>
   <g id="line2d_23">
    <defs>
     <path id="m0238ef771b" d="M 0 2.5 
C 0.663008 2.5 1.29895 2.236584 1.767767 1.767767 
C 2.236584 1.29895 2.5 0.663008 2.5 0 
C 2.5 -0.663008 2.236584 -1.29895 1.767767 -1.767767 
C 1.29895 -2.236584 0.663008 -2.5 0 -2.5 
C -0.663008 -2.5 -1.29895 -2.236584 -1.767767 -1.767767 
C -2.236584 -1.29895 -2.5 -0.663008 -2.5 0 
C -2.5 0.663008 -2.236584 1.29895 -1.767767 1.767767 
C -1.29895 2.236584 -0.663008 2.5 0 2.5 
z
" style="stroke: #ff5a5f; stroke-opacity: 0.5; stroke-width: 2"/>
    </defs>
    <g clip-path="url(#p2d580cc3a5)">
     <use xlink:href="#m0238ef771b" x="54.981265" y="155.468564" style="fill: #ff5a5f; fill-opacity: 0.5; stroke: #ff5a5f; stroke-opacity: 0.5; stroke-width: 2"/>
     <use xlink:href="#m0238ef771b" x="290.513684" y="197.749185" style="fill: #ff5a5f; fill-opacity: 0.5; stroke: #ff5a5f; stroke-opacity: 0.5; stroke-width: 2"/>
     <use xlink:href="#m0238ef771b" x="630.609822" y="250.266167" style="fill: #ff5a5f; fill-opacity: 0.5; stroke: #ff5a5f; stroke-opacity: 0.5; stroke-width: 2"/>
    </g>
   </g>
   <g id="line2d_24">
    <path d="M 42.306875 339.278 
L 686.588379 339.278 
" clip-path="url(#p2d580cc3a5)" style="fill: none; stroke: #000000; stroke-opacity: 0.7; stroke-width: 4"/>
   </g>
   <g id="text_13">
    <text style="fill: #222222; font: 700 26px 'Roboto', 'Arial', 'DejaVu Sans', sans-serif" transform="translate(42.306875 22.626875)">Avaliação da gestão de Eduardo Paes (PSD)</text>
    <text style="fill: #222222; font: 700 26px 'Roboto', 'Arial', 'DejaVu Sans', sans-serif" transform="translate(42.306875 52.2425)"/>
   </g>
   <g id="legend_1">
    <g id="patch_3">
     <path d="M 448.925097 109.369844 
L 676.088379 109.369844 
Q 679.088379 109.369844 679.088379 106.369844 
L 679.088379 82.7425 
Q 679.088379 79.7425 676.088379 79.7425 
L 448.925097 79.7425 
Q 445.925097 79.7425 445.925097 82.7425 
L 445.925097 106.369844 
Q 445.925097 109.369844 448.925097 109.369844 
z
" style="fill: #ffffff; opacity: 0.7; stroke: #ffffff; stroke-width: 0.5; stroke-linejoin: miter"/>
    </g>
    <g id="line2d_25">
     <path d="M 453.425097 93.868281 
L 457.175097 93.868281 
L 460.925097 93.868281 
" style="fill: none; stroke: #2196f3; stroke-width: 4"/>
    </g>
    <g id="text_14">
     <text style="fill: #222222; font: 15px 'Roboto', 'Arial', 'DejaVu Sans', sans-serif; text-anchor: start" x="468.425097" y="98.668281" transform="rotate(-0 468.425097 98.668281)">positiva</text>
    </g>
    <g id="line2d_26">
     <path d="M 529.116504 93.868281 
L 532.866504 93.868281 
L 536.616504 93.868281 
" style="fill: none; stroke: #bcbd22; stroke-width: 4"/>
    </g>
    <g id="text_15">
     <text style="fill: #222222; font: 15px 'Roboto', 'Arial', 'DejaVu Sans', sans-serif; text-anchor: start" x="544.116504" y="98.668281" transform="rotate(-0 544.116504 98.668281)">regular</text>
    </g>
    <g id="line2d_27">
     <path d="M 598.922754 93.868281 
L 602.672754 93.868281 
L 606.422754 93.868281 
" style="fill: none; stroke: #ff5a5f; stroke-width: 4"/>
    </g>
    <g id="text_16">
     <text style="fill: #222222; font: 15px 'Roboto', 'Arial', 'DejaVu Sans', sans-serif; text-anchor: start" x="613.922754" y="98.668281" transform="rotate(-0 613.922754 98.668281)">negativa</text>
    </g>
   </g>
  </g>
 </g>
 <defs>
  <clipPath id="p2d580cc3a5">
   <rect x="42.306875" y="72.2425" width="644.281504" height="267.0355"/>
  </clipPath>
 </defs>
</svg>
