<?xml version="1.0" encoding="utf-8" standalone="no"?>
<!DOCTYPE svg PUBLIC "-//W3C//DTD SVG 1.1//EN"
  "http://www.w3.org/Graphics/SVG/1.1/DTD/svg11.dtd">
<svg xmlns:xlink="http://www.w3.org/1999/xlink" width="835.995156pt" height="529.604687pt" viewBox="0 0 835.995156 529.604687" xmlns="http://www.w3.org/2000/svg" version="1.1">
 <metadata>
  <rdf:RDF xmlns:dc="http://purl.org/dc/elements/1.1/" xmlns:cc="http://creativecommons.org/ns#" xmlns:rdf="http://www.w3.org/1999/02/22-rdf-syntax-ns#">
   <cc:Work>
    <dc:type rdf:resource="http://purl.org/dc/dcmitype/StillImage"/>
    <dc:date>2023-10-20T12:37:23.961994</dc:date>
    <dc:format>image/svg+xml</dc:format>
    <dc:creator>
     <cc:Agent>
      <dc:title>Matplotlib v3.8.0, https://matplotlib.org/</dc:title>
     </cc:Agent>
    </dc:creator>
   </cc:Work>
  </rdf:RDF>
 </metadata>
 <defs>
  <style type="text/css">*{stroke-linejoin: round; stroke-linecap: butt}</style>
 </defs>
 <g id="figure_1">
  <g id="patch_1">
   <path d="M 0 529.604687 
L 835.995156 529.604687 
L 835.995156 0 
L 0 0 
L 0 529.604687 
z
" style="fill: none"/>
  </g>
  <g id="axes_1">
   <g id="patch_2">
    <path d="M 29.1825 506.218125 
L 814.3875 506.218125 
L 814.3875 13.738125 
L 29.1825 13.738125 
L 29.1825 506.218125 
z
" style="fill: none"/>
   </g>
   <g id="matplotlib.axis_1">
    <g id="xtick_1">
     <g id="line2d_1"/>
     <g id="text_1">
      <text style="opacity: 0; font: 22px 'Roboto', 'Arial', 'DejaVu Sans', sans-serif; text-anchor: middle" x="29.1825" y="522.975937" transform="rotate(-0 29.1825 522.975937)">Jan</text>
     </g>
    </g>
    <g id="xtick_2">
     <g id="line2d_2"/>
     <g id="text_2">
      <text style="opacity: 0; font: 22px 'Roboto', 'Arial', 'DejaVu Sans', sans-serif; text-anchor: middle" x="109.252747" y="522.975937" transform="rotate(-0 109.252747 522.975937)">Feb</text>
     </g>
    </g>
    <g id="xtick_3">
     <g id="line2d_3"/>
     <g id="text_3">
      <text style="opacity: 0; font: 22px 'Roboto', 'Arial', 'DejaVu Sans', sans-serif; text-anchor: middle" x="181.57426" y="522.975937" transform="rotate(-0 181.57426 522.975937)">Mar</text>
     </g>
    </g>
    <g id="xtick_4">
     <g id="line2d_4"/>
     <g id="text_4">
      <text style="opacity: 0; font: 22px 'Roboto', 'Arial', 'DejaVu Sans', sans-serif; text-anchor: middle" x="261.644507" y="522.975937" transform="rotate(-0 261.644507 522.975937)">Apr</text>
     </g>
    </g>
    <g id="xtick_5">
     <g id="line2d_5"/>
     <g id="text_5">
      <text style="opacity: 0; font: 22px 'Roboto', 'Arial', 'DejaVu Sans', sans-serif; text-anchor: middle" x="339.131842" y="522.749062" transform="rotate(-0 339.131842 522.749062)">May</text>
     </g>
    </g>
    <g id="xtick_6">
     <g id="line2d_6"/>
     <g id="text_6">
      <text style="opacity: 0; font: 22px 'Roboto', 'Arial', 'DejaVu Sans', sans-serif; text-anchor: middle" x="419.202089" y="522.975937" transform="rotate(-0 419.202089 522.975937)">Jun</text>
     </g>
    </g>
    <g id="xtick_7">
     <g id="line2d_7"/>
     <g id="text_7">
      <text style="opacity: 0; font: 22px 'Roboto', 'Arial', 'DejaVu Sans', sans-serif; text-anchor: middle" x="496.689424" y="522.975937" transform="rotate(-0 496.689424 522.975937)">Jul</text>
     </g>
    </g>
    <g id="xtick_8">
     <g id="line2d_8"/>
     <g id="text_8">
      <text style="opacity: 0; font: 22px 'Roboto', 'Arial', 'DejaVu Sans', sans-serif; text-anchor: middle" x="576.759671" y="522.749062" transform="rotate(-0 576.759671 522.749062)">Aug</text>
     </g>
    </g>
    <g id="xtick_9">
     <g id="line2d_9"/>
     <g id="text_9">
      <text style="opacity: 0; font: 22px 'Roboto', 'Arial', 'DejaVu Sans', sans-serif; text-anchor: middle" x="656.829918" y="522.975937" transform="rotate(-0 656.829918 522.975937)">Sep</text>
     </g>
    </g>
    <g id="xtick_10">
     <g id="line2d_10"/>
     <g id="text_10">
      <text style="opacity: 0; font: 22px 'Roboto', 'Arial', 'DejaVu Sans', sans-serif; text-anchor: middle" x="734.317253" y="522.975937" transform="rotate(-0 734.317253 522.975937)">Oct</text>
     </g>
    </g>
    <g id="xtick_11">
     <g id="line2d_11"/>
     <g id="text_11">
      <text style="opacity: 0; font: 22px 'Roboto', 'Arial', 'DejaVu Sans', sans-serif; text-anchor: middle" x="814.3875" y="522.975937" transform="rotate(-0 814.3875 522.975937)">Nov</text>
     </g>
    </g>
   </g>
   <g id="matplotlib.axis_2">
    <g id="ytick_1">
     <g id="text_12">
      <text style="opacity: 0; font: 24px 'Roboto', 'Arial', 'DejaVu Sans', sans-serif; text-anchor: end" x="29.1825" y="512.92125" transform="rotate(-0 29.1825 512.92125)">0</text>
     </g>
    </g>
    <g id="ytick_2">
     <g id="text_13">
      <text style="opacity: 0; font: 24px 'Roboto', 'Arial', 'DejaVu Sans', sans-serif; text-anchor: end" x="29.1825" y="430.84125" transform="rotate(-0 29.1825 430.84125)">10</text>
     </g>
    </g>
    <g id="ytick_3">
     <g id="text_14">
      <text style="opacity: 0; font: 24px 'Roboto', 'Arial', 'DejaVu Sans', sans-serif; text-anchor: end" x="29.1825" y="348.76125" transform="rotate(-0 29.1825 348.76125)">20</text>
     </g>
    </g>
    <g id="ytick_4">
     <g id="text_15">
      <text style="opacity: 0; font: 24px 'Roboto', 'Arial', 'DejaVu Sans', sans-serif; text-anchor: end" x="29.1825" y="266.68125" transform="rotate(-0 29.1825 266.68125)">30</text>
     </g>
    </g>
    <g id="ytick_5">
     <g id="text_16">
      <text style="opacity: 0; font: 24px 'Roboto', 'Arial', 'DejaVu Sans', sans-serif; text-anchor: end" x="29.1825" y="184.60125" transform="rotate(-0 29.1825 184.60125)">40</text>
     </g>
    </g>
    <g id="ytick_6">
     <g id="text_17">
      <text style="opacity: 0; font: 24px 'Roboto', 'Arial', 'DejaVu Sans', sans-serif; text-anchor: end" x="29.1825" y="102.52125" transform="rotate(-0 29.1825 102.52125)">50</text>
     </g>
    </g>
    <g id="ytick_7">
     <g id="text_18">
      <text style="opacity: 0; font: 24px 'Roboto', 'Arial', 'DejaVu Sans', sans-serif; text-anchor: end" x="29.1825" y="20.44125" transform="rotate(-0 29.1825 20.44125)">60</text>
     </g>
    </g>
   </g>
   <g id="line2d_12">
    <path d="M 804.055855 245.203725 
L 778.226743 245.203725 
L 775.643832 246.024525 
L 734.317253 246.024525 
L 726.56852 248.486925 
L 723.985609 250.128525 
L 721.402697 250.949325 
L 718.819786 252.590925 
L 713.653964 254.232525 
L 711.071053 255.874125 
L 708.488141 256.694925 
L 705.90523 256.694925 
L 698.156497 259.157325 
L 695.573586 259.157325 
L 692.990674 258.336525 
L 687.824852 258.336525 
L 685.241941 257.515725 
L 682.65903 258.336525 
L 680.076118 259.978125 
L 669.744474 263.261325 
L 667.161563 264.902925 
L 656.829918 268.186125 
L 654.247007 268.186125 
L 651.664095 269.006925 
L 649.081184 270.648525 
L 643.915362 270.648525 
L 641.332451 271.469325 
L 636.166628 271.469325 
L 633.583717 272.290125 
L 625.834984 272.290125 
L 623.252072 273.110925 
L 612.920428 273.110925 
L 610.337516 273.931725 
L 592.257138 273.931725 
L 589.674227 273.110925 
L 563.845115 273.110925 
L 561.262204 272.290125 
L 535.433092 272.290125 
L 532.850181 271.469325 
L 519.935625 271.469325 
L 517.352714 272.290125 
L 494.106513 272.290125 
L 491.523602 273.110925 
L 486.35778 273.110925 
L 483.774868 273.931725 
L 481.191957 273.110925 
L 476.026135 269.827725 
L 473.443224 269.006925 
L 470.860313 267.365325 
L 468.277401 266.544525 
L 465.69449 264.902925 
L 463.111579 264.082125 
L 460.528668 262.440525 
L 455.362845 260.798925 
L 452.779934 260.798925 
L 445.031201 258.336525 
L 442.448289 258.336525 
L 432.116645 255.053325 
L 429.533734 255.053325 
L 424.367911 253.411725 
L 411.453355 253.411725 
L 408.870444 254.232525 
L 390.790066 254.232525 
L 388.207155 255.053325 
L 383.041332 255.053325 
L 375.292599 257.515725 
L 372.709688 257.515725 
L 367.543865 259.157325 
L 364.960954 259.157325 
L 362.378043 259.978125 
L 352.046398 259.978125 
L 349.463487 260.798925 
L 336.548931 260.798925 
L 333.96602 259.978125 
L 331.383109 259.978125 
L 328.800197 259.157325 
L 323.634375 259.157325 
L 321.051464 258.336525 
L 315.885641 258.336525 
L 313.30273 257.515725 
L 310.719819 257.515725 
L 308.136908 256.694925 
L 302.971086 256.694925 
L 300.388174 255.874125 
L 295.222352 252.590925 
L 292.639441 253.411725 
L 274.559063 253.411725 
L 271.976151 254.232525 
L 259.061595 254.232525 
L 256.478684 255.053325 
L 253.895773 255.053325 
L 251.312862 255.874125 
L 248.729951 257.515725 
L 246.147039 258.336525 
L 243.564128 259.978125 
L 240.981217 260.798925 
L 238.398306 262.440525 
L 233.232484 264.082125 
L 230.649572 265.723725 
L 228.066661 266.544525 
L 225.48375 268.186125 
L 222.900839 269.006925 
L 220.317928 270.648525 
L 215.152105 270.648525 
L 202.237549 274.752525 
L 199.654638 274.752525 
L 186.740082 278.856525 
L 184.157171 278.856525 
L 173.825526 282.139725 
L 171.242615 282.139725 
L 168.659704 282.960525 
L 153.162237 282.960525 
L 150.579326 283.781325 
L 135.081859 283.781325 
L 132.498947 281.318925 
L 129.916036 279.677325 
L 109.252747 273.110925 
L 106.669836 271.469325 
L 104.086924 270.648525 
L 75.674901 279.677325 
L 73.09199 279.677325 
L 55.011612 285.422925 
L 49.845789 285.422925 
L 47.262878 286.243725 
L 42.097056 282.960525 
L 39.514145 282.139725 
L 36.931234 280.498125 
L 34.348322 279.677325 
L 31.765411 278.035725 
L 29.1825 277.214925 
L 29.1825 277.214925 
" clip-path="url(#pb2853eba95)" style="fill: none; stroke: #666666; stroke-width: 17"/>
   </g>
   <g id="line2d_13">
    <path d="M 804.055855 195.134925 
L 752.397632 195.134925 
L 749.81472 195.955725 
L 747.231809 195.955725 
L 744.648898 195.134925 
L 739.483076 195.134925 
L 736.900164 195.955725 
L 734.317253 195.955725 
L 729.151431 194.314125 
L 723.985609 191.030925 
L 721.402697 190.210125 
L 718.819786 188.568525 
L 711.071053 178.718925 
L 703.322319 176.256525 
L 700.739408 174.614925 
L 698.156497 173.794125 
L 695.573586 174.614925 
L 692.990674 174.614925 
L 690.407763 175.435725 
L 687.824852 175.435725 
L 685.241941 176.256525 
L 682.65903 175.435725 
L 680.076118 175.435725 
L 674.910296 173.794125 
L 672.327385 173.794125 
L 667.161563 172.152525 
L 664.578651 172.152525 
L 661.99574 171.331725 
L 659.412829 168.869325 
L 656.829918 167.227725 
L 654.247007 164.765325 
L 651.664095 163.123725 
L 649.081184 160.661325 
L 636.166628 160.661325 
L 633.583717 159.840525 
L 628.417895 159.840525 
L 625.834984 159.019725 
L 620.669161 159.019725 
L 618.08625 158.198925 
L 612.920428 158.198925 
L 610.337516 157.378125 
L 602.588783 157.378125 
L 594.840049 159.840525 
L 592.257138 159.840525 
L 587.091316 161.482125 
L 584.508405 161.482125 
L 579.342582 163.123725 
L 576.759671 163.123725 
L 571.593849 164.765325 
L 569.010938 164.765325 
L 561.262204 167.227725 
L 558.679293 167.227725 
L 553.51347 168.869325 
L 550.930559 168.869325 
L 545.764737 170.510925 
L 543.181826 170.510925 
L 538.016003 172.152525 
L 535.433092 172.152525 
L 530.26727 173.794125 
L 527.684359 173.794125 
L 522.518536 175.435725 
L 519.935625 174.614925 
L 499.272336 174.614925 
L 496.689424 175.435725 
L 494.106513 175.435725 
L 488.940691 177.077325 
L 486.35778 177.077325 
L 483.774868 177.898125 
L 481.191957 179.539725 
L 478.609046 180.360525 
L 470.860313 185.285325 
L 468.277401 186.106125 
L 460.528668 191.030925 
L 457.945757 191.851725 
L 450.197023 196.776525 
L 445.031201 198.418125 
L 442.448289 198.418125 
L 439.865378 199.238925 
L 437.282467 199.238925 
L 434.699556 200.059725 
L 432.116645 200.059725 
L 429.533734 200.880525 
L 426.950822 200.880525 
L 424.367911 201.701325 
L 421.785 200.880525 
L 419.202089 200.880525 
L 411.453355 198.418125 
L 408.870444 198.418125 
L 403.704622 196.776525 
L 401.121711 196.776525 
L 393.372977 194.314125 
L 390.790066 194.314125 
L 385.624243 192.672525 
L 383.041332 192.672525 
L 380.458421 191.030925 
L 375.292599 189.389325 
L 372.709688 187.747725 
L 364.960954 185.285325 
L 359.795132 185.285325 
L 357.21222 184.464525 
L 354.629309 184.464525 
L 352.046398 183.643725 
L 349.463487 183.643725 
L 346.880576 182.822925 
L 341.714753 182.822925 
L 339.131842 182.002125 
L 326.217286 182.002125 
L 323.634375 181.181325 
L 310.719819 181.181325 
L 308.136908 180.360525 
L 300.388174 180.360525 
L 297.805263 181.181325 
L 295.222352 181.181325 
L 290.05653 179.539725 
L 287.473618 177.898125 
L 282.307796 176.256525 
L 279.724885 177.898125 
L 277.141974 180.360525 
L 271.976151 183.643725 
L 269.39324 186.106125 
L 266.810329 187.747725 
L 264.227418 187.747725 
L 261.644507 188.568525 
L 259.061595 188.568525 
L 256.478684 189.389325 
L 253.895773 189.389325 
L 251.312862 188.568525 
L 248.729951 186.926925 
L 246.147039 186.106125 
L 240.981217 182.822925 
L 238.398306 182.002125 
L 235.815395 180.360525 
L 233.232484 179.539725 
L 230.649572 177.898125 
L 228.066661 177.077325 
L 225.48375 175.435725 
L 222.900839 174.614925 
L 220.317928 172.973325 
L 212.569194 170.510925 
L 207.403372 170.510925 
L 204.820461 169.690125 
L 197.071727 169.690125 
L 194.488816 168.869325 
L 189.322993 168.869325 
L 186.740082 168.048525 
L 184.157171 166.406925 
L 178.991349 164.765325 
L 176.408438 163.123725 
L 173.825526 162.302925 
L 171.242615 160.661325 
L 168.659704 159.840525 
L 129.916036 159.840525 
L 127.333125 159.019725 
L 124.750214 157.378125 
L 109.252747 152.453325 
L 106.669836 152.453325 
L 93.75528 148.349325 
L 91.172368 148.349325 
L 75.674901 143.424525 
L 73.09199 143.424525 
L 57.594523 138.499725 
L 55.011612 138.499725 
L 52.428701 136.858125 
L 49.845789 130.291725 
L 47.262878 122.904525 
L 44.679967 122.904525 
L 29.1825 117.979725 
L 29.1825 117.979725 
" clip-path="url(#pb2853eba95)" style="fill: none; stroke: #4c81ff; stroke-width: 17"/>
   </g>
  </g>
 </g>
 <defs>
  <clipPath id="pb2853eba95">
   <rect x="29.1825" y="13.738125" width="785.205" height="492.48"/>
  </clipPath>
 </defs>
</svg>
