<?xml version="1.0" encoding="utf-8" standalone="no"?>
<!DOCTYPE svg PUBLIC "-//W3C//DTD SVG 1.1//EN"
  "http://www.w3.org/Graphics/SVG/1.1/DTD/svg11.dtd">
<svg xmlns:xlink="http://www.w3.org/1999/xlink" width="958.07952pt" height="357.71976pt" viewBox="0 0 958.07952 357.71976" xmlns="http://www.w3.org/2000/svg" version="1.1">
 <metadata>
  <rdf:RDF xmlns:dc="http://purl.org/dc/elements/1.1/" xmlns:cc="http://creativecommons.org/ns#" xmlns:rdf="http://www.w3.org/1999/02/22-rdf-syntax-ns#">
   <cc:Work>
    <dc:type rdf:resource="http://purl.org/dc/dcmitype/StillImage"/>
    <dc:date>2023-07-03T11:42:59.556043</dc:date>
    <dc:format>image/svg+xml</dc:format>
    <dc:creator>
     <cc:Agent>
      <dc:title>Matplotlib v3.7.1, https://matplotlib.org/</dc:title>
     </cc:Agent>
    </dc:creator>
   </cc:Work>
  </rdf:RDF>
 </metadata>
 <defs>
  <style type="text/css">*{stroke-linejoin: round; stroke-linecap: butt}</style>
 </defs>
 <g id="figure_1">
  <g id="patch_1">
   <path d="M 0 357.71976 
L 958.07952 357.71976 
L 958.07952 0 
L 0 0 
L 0 357.71976 
z
" style="fill: none"/>
  </g>
  <g id="axes_1">
   <g id="patch_2">
    <path d="M 42.306875 330.262885 
L 317.780907 330.262885 
L 317.780907 52.033843 
L 42.306875 52.033843 
L 42.306875 330.262885 
z
" style="fill: none"/>
   </g>
   <g id="matplotlib.axis_1">
    <g id="xtick_1">
     <g id="line2d_1">
      <path d="M 42.306875 330.262885 
L 42.306875 52.033843 
" clip-path="url(#pa3f1dca231)" style="fill: none; stroke-dasharray: 0.7,2.1; stroke-dashoffset: 0; stroke: #000000; stroke-opacity: 0.3; stroke-width: 0.7"/>
     </g>
     <g id="line2d_2"/>
     <g id="text_1">
      <text style="fill: #333333; font: 20px 'Roboto', 'Arial', 'DejaVu Sans', sans-serif; text-anchor: middle" x="42.306875" y="351.49726" transform="rotate(-0 42.306875 351.49726)">Jan</text>
     </g>
    </g>
    <g id="xtick_2">
     <g id="line2d_3">
      <path d="M 317.780907 330.262885 
L 317.780907 52.033843 
" clip-path="url(#pa3f1dca231)" style="fill: none; stroke-dasharray: 0.7,2.1; stroke-dashoffset: 0; stroke: #000000; stroke-opacity: 0.3; stroke-width: 0.7"/>
     </g>
     <g id="line2d_4"/>
     <g id="text_2">
      <text style="fill: #333333; font: 20px 'Roboto', 'Arial', 'DejaVu Sans', sans-serif; text-anchor: middle" x="317.780907" y="351.49726" transform="rotate(-0 317.780907 351.49726)">Jul</text>
     </g>
    </g>
   </g>
   <g id="matplotlib.axis_2">
    <g id="ytick_1">
     <g id="line2d_5">
      <path d="M 42.306875 319.865286 
L 317.780907 319.865286 
" clip-path="url(#pa3f1dca231)" style="fill: none; stroke-dasharray: 0.7,2.1; stroke-dashoffset: 0; stroke: #000000; stroke-opacity: 0.3; stroke-width: 0.7"/>
     </g>
     <g id="text_3">
      <text style="fill: #333333; font: 20px 'Roboto', 'Arial', 'DejaVu Sans', sans-serif; text-anchor: end" x="39.306875" y="325.451223" transform="rotate(-0 39.306875 325.451223)">0  </text>
     </g>
    </g>
    <g id="ytick_2">
     <g id="line2d_6">
      <path d="M 42.306875 281.603651 
L 317.780907 281.603651 
" clip-path="url(#pa3f1dca231)" style="fill: none; stroke-dasharray: 0.7,2.1; stroke-dashoffset: 0; stroke: #000000; stroke-opacity: 0.3; stroke-width: 0.7"/>
     </g>
     <g id="text_4">
      <text style="fill: #333333; font: 20px 'Roboto', 'Arial', 'DejaVu Sans', sans-serif; text-anchor: end" x="39.306875" y="287.189589" transform="rotate(-0 39.306875 287.189589)">10  </text>
     </g>
    </g>
    <g id="ytick_3">
     <g id="line2d_7">
      <path d="M 42.306875 243.342016 
L 317.780907 243.342016 
" clip-path="url(#pa3f1dca231)" style="fill: none; stroke-dasharray: 0.7,2.1; stroke-dashoffset: 0; stroke: #000000; stroke-opacity: 0.3; stroke-width: 0.7"/>
     </g>
     <g id="text_5">
      <text style="fill: #333333; font: 20px 'Roboto', 'Arial', 'DejaVu Sans', sans-serif; text-anchor: end" x="39.306875" y="248.927954" transform="rotate(-0 39.306875 248.927954)">20  </text>
     </g>
    </g>
    <g id="ytick_4">
     <g id="line2d_8">
      <path d="M 42.306875 205.080382 
L 317.780907 205.080382 
" clip-path="url(#pa3f1dca231)" style="fill: none; stroke-dasharray: 0.7,2.1; stroke-dashoffset: 0; stroke: #000000; stroke-opacity: 0.3; stroke-width: 0.7"/>
     </g>
     <g id="text_6">
      <text style="fill: #333333; font: 20px 'Roboto', 'Arial', 'DejaVu Sans', sans-serif; text-anchor: end" x="39.306875" y="210.666319" transform="rotate(-0 39.306875 210.666319)">30  </text>
     </g>
    </g>
    <g id="ytick_5">
     <g id="line2d_9">
      <path d="M 42.306875 166.818747 
L 317.780907 166.818747 
" clip-path="url(#pa3f1dca231)" style="fill: none; stroke-dasharray: 0.7,2.1; stroke-dashoffset: 0; stroke: #000000; stroke-opacity: 0.3; stroke-width: 0.7"/>
     </g>
     <g id="text_7">
      <text style="fill: #333333; font: 20px 'Roboto', 'Arial', 'DejaVu Sans', sans-serif; text-anchor: end" x="39.306875" y="172.404684" transform="rotate(-0 39.306875 172.404684)">40  </text>
     </g>
    </g>
    <g id="ytick_6">
     <g id="line2d_10">
      <path d="M 42.306875 128.557112 
L 317.780907 128.557112 
" clip-path="url(#pa3f1dca231)" style="fill: none; stroke-dasharray: 0.7,2.1; stroke-dashoffset: 0; stroke: #000000; stroke-opacity: 0.3; stroke-width: 0.7"/>
     </g>
     <g id="text_8">
      <text style="fill: #333333; font: 20px 'Roboto', 'Arial', 'DejaVu Sans', sans-serif; text-anchor: end" x="39.306875" y="134.14305" transform="rotate(-0 39.306875 134.14305)">50  </text>
     </g>
    </g>
    <g id="ytick_7">
     <g id="line2d_11">
      <path d="M 42.306875 90.295477 
L 317.780907 90.295477 
" clip-path="url(#pa3f1dca231)" style="fill: none; stroke-dasharray: 0.7,2.1; stroke-dashoffset: 0; stroke: #000000; stroke-opacity: 0.3; stroke-width: 0.7"/>
     </g>
     <g id="text_9">
      <text style="fill: #333333; font: 20px 'Roboto', 'Arial', 'DejaVu Sans', sans-serif; text-anchor: end" x="39.306875" y="95.881415" transform="rotate(-0 39.306875 95.881415)">60  </text>
     </g>
    </g>
    <g id="ytick_8">
     <g id="line2d_12">
      <path d="M 42.306875 52.033843 
L 317.780907 52.033843 
" clip-path="url(#pa3f1dca231)" style="fill: none; stroke-dasharray: 0.7,2.1; stroke-dashoffset: 0; stroke: #000000; stroke-opacity: 0.3; stroke-width: 0.7"/>
     </g>
     <g id="text_10">
      <text style="fill: #333333; font: 20px 'Roboto', 'Arial', 'DejaVu Sans', sans-serif; text-anchor: end" x="39.306875" y="57.61978" transform="rotate(-0 39.306875 57.61978)">70%</text>
     </g>
    </g>
   </g>
   <g id="line2d_13">
    <path d="M 42.306875 330.262885 
L 42.306875 52.033843 
" clip-path="url(#pa3f1dca231)" style="fill: none; stroke: #000000; stroke-opacity: 0.7; stroke-width: 3"/>
   </g>
   <g id="line2d_14">
    <path d="M 42.306875 330.262885 
L 42.306875 52.033843 
" clip-path="url(#pa3f1dca231)" style="fill: none; stroke: #000000; stroke-opacity: 0.7; stroke-width: 3"/>
   </g>
   <g id="line2d_15">
    <path d="M 42.306875 330.262885 
L 42.306875 52.033843 
" clip-path="url(#pa3f1dca231)" style="fill: none; stroke: #000000; stroke-opacity: 0.7; stroke-width: 3"/>
   </g>
   <g id="line2d_16">
    <path d="M 42.306875 330.262885 
L 42.306875 52.033843 
" clip-path="url(#pa3f1dca231)" style="fill: none; stroke: #000000; stroke-opacity: 0.7; stroke-width: 3"/>
   </g>
   <g id="line2d_17">
    <path d="M 317.780907 210.130917 
L 311.659262 210.130917 
L 308.598439 209.824824 
L 302.476794 209.289161 
L 296.355149 208.753498 
L 291.763915 208.294359 
L 287.172681 208.447405 
L 276.459802 208.79176 
L 273.398979 209.327423 
L 264.216512 210.857888 
L 259.625278 211.623121 
L 253.503633 212.617924 
L 248.912399 213.383156 
L 242.790754 214.377959 
L 199.939238 218.663262 
L 192.287181 219.925896 
L 186.165536 220.920698 
L 180.043891 221.915501 
L 175.452657 222.60421 
L 166.270189 222.565949 
L 163.209367 222.451164 
L 150.966076 222.37464 
L 143.31402 222.259856 
L 137.192375 222.221594 
L 123.418673 226.58342 
L 117.297028 228.534764 
L 105.053738 232.399189 
L 86.688802 235.995782 
L 80.567157 237.10537 
L 75.975923 238.061911 
L 53.019754 242.576784 
L 43.837286 239.477591 
L 42.306875 239.018452 
L 42.306875 239.018452 
" clip-path="url(#pa3f1dca231)" style="fill: none; stroke: #888d8f; stroke-width: 4"/>
   </g>
   <g id="line2d_18">
    <path d="M 317.780907 234.388794 
L 291.763915 234.350532 
L 284.111858 232.973113 
L 281.051036 232.360927 
L 276.459802 231.48091 
L 264.216512 230.945247 
L 253.503633 230.600892 
L 250.44281 230.486107 
L 245.851576 230.409584 
L 242.790754 230.256537 
L 239.729931 230.026967 
L 236.669108 229.759136 
L 229.017052 229.299996 
L 225.956229 229.070427 
L 212.182528 228.113886 
L 206.060883 227.731269 
L 199.939238 227.310391 
L 190.75677 228.381717 
L 187.695947 228.68781 
L 175.452657 230.141752 
L 170.861423 231.519171 
L 164.739778 233.317468 
L 144.844431 239.171498 
L 138.722786 240.969795 
L 132.601141 242.691568 
L 118.827439 246.364685 
L 114.236205 247.589058 
L 105.053738 250.114326 
L 98.932093 250.496942 
L 86.688802 251.338698 
L 80.567157 251.721314 
L 69.854278 252.486547 
L 66.793456 252.639594 
L 56.080577 253.25178 
L 53.019754 253.443088 
L 49.958931 253.213518 
L 42.306875 252.677855 
L 42.306875 252.677855 
" clip-path="url(#pa3f1dca231)" style="fill: none; stroke: #f5700a; stroke-width: 4"/>
   </g>
   <g id="line2d_19">
    <path d="M 317.780907 210.130917 
L 311.659262 210.130917 
L 308.598439 209.824824 
L 302.476794 209.289161 
L 296.355149 208.753498 
L 291.763915 208.294359 
L 287.172681 208.447405 
L 276.459802 208.79176 
L 273.398979 209.327423 
L 264.216512 210.857888 
L 259.625278 211.623121 
L 253.503633 212.617924 
L 248.912399 213.383156 
L 242.790754 214.377959 
L 199.939238 218.663262 
L 192.287181 219.925896 
L 186.165536 220.920698 
L 180.043891 221.915501 
L 175.452657 222.60421 
L 166.270189 222.565949 
L 163.209367 222.451164 
L 150.966076 222.37464 
L 143.31402 222.259856 
L 137.192375 222.221594 
L 123.418673 226.58342 
L 117.297028 228.534764 
L 105.053738 232.399189 
L 86.688802 235.995782 
L 80.567157 237.10537 
L 75.975923 238.061911 
L 53.019754 242.576784 
L 43.837286 239.477591 
L 42.306875 239.018452 
L 42.306875 239.018452 
" clip-path="url(#pa3f1dca231)" style="fill: none; stroke: #888d8f; stroke-width: 4"/>
   </g>
   <g id="line2d_20">
    <path d="M 317.780907 234.388794 
L 291.763915 234.350532 
L 284.111858 232.973113 
L 281.051036 232.360927 
L 276.459802 231.48091 
L 264.216512 230.945247 
L 253.503633 230.600892 
L 250.44281 230.486107 
L 245.851576 230.409584 
L 242.790754 230.256537 
L 239.729931 230.026967 
L 236.669108 229.759136 
L 229.017052 229.299996 
L 225.956229 229.070427 
L 212.182528 228.113886 
L 206.060883 227.731269 
L 199.939238 227.310391 
L 190.75677 228.381717 
L 187.695947 228.68781 
L 175.452657 230.141752 
L 170.861423 231.519171 
L 164.739778 233.317468 
L 144.844431 239.171498 
L 138.722786 240.969795 
L 132.601141 242.691568 
L 118.827439 246.364685 
L 114.236205 247.589058 
L 105.053738 250.114326 
L 98.932093 250.496942 
L 86.688802 251.338698 
L 80.567157 251.721314 
L 69.854278 252.486547 
L 66.793456 252.639594 
L 56.080577 253.25178 
L 53.019754 253.443088 
L 49.958931 253.213518 
L 42.306875 252.677855 
L 42.306875 252.677855 
" clip-path="url(#pa3f1dca231)" style="fill: none; stroke: #f5700a; stroke-width: 4"/>
   </g>
   <g id="line2d_21">
    <path d="M 317.780907 210.130917 
L 311.659262 210.130917 
L 308.598439 209.824824 
L 302.476794 209.289161 
L 296.355149 208.753498 
L 291.763915 208.294359 
L 287.172681 208.447405 
L 276.459802 208.79176 
L 273.398979 209.327423 
L 264.216512 210.857888 
L 259.625278 211.623121 
L 253.503633 212.617924 
L 248.912399 213.383156 
L 242.790754 214.377959 
L 199.939238 218.663262 
L 192.287181 219.925896 
L 186.165536 220.920698 
L 180.043891 221.915501 
L 175.452657 222.60421 
L 166.270189 222.565949 
L 163.209367 222.451164 
L 150.966076 222.37464 
L 143.31402 222.259856 
L 137.192375 222.221594 
L 123.418673 226.58342 
L 117.297028 228.534764 
L 105.053738 232.399189 
L 86.688802 235.995782 
L 80.567157 237.10537 
L 75.975923 238.061911 
L 53.019754 242.576784 
L 43.837286 239.477591 
L 42.306875 239.018452 
L 42.306875 239.018452 
" clip-path="url(#pa3f1dca231)" style="fill: none; stroke: #888d8f; stroke-width: 4"/>
   </g>
   <g id="line2d_22">
    <path d="M 317.780907 234.388794 
L 291.763915 234.350532 
L 284.111858 232.973113 
L 281.051036 232.360927 
L 276.459802 231.48091 
L 264.216512 230.945247 
L 253.503633 230.600892 
L 250.44281 230.486107 
L 245.851576 230.409584 
L 242.790754 230.256537 
L 239.729931 230.026967 
L 236.669108 229.759136 
L 229.017052 229.299996 
L 225.956229 229.070427 
L 212.182528 228.113886 
L 206.060883 227.731269 
L 199.939238 227.310391 
L 190.75677 228.381717 
L 187.695947 228.68781 
L 175.452657 230.141752 
L 170.861423 231.519171 
L 164.739778 233.317468 
L 144.844431 239.171498 
L 138.722786 240.969795 
L 132.601141 242.691568 
L 118.827439 246.364685 
L 114.236205 247.589058 
L 105.053738 250.114326 
L 98.932093 250.496942 
L 86.688802 251.338698 
L 80.567157 251.721314 
L 69.854278 252.486547 
L 66.793456 252.639594 
L 56.080577 253.25178 
L 53.019754 253.443088 
L 49.958931 253.213518 
L 42.306875 252.677855 
L 42.306875 252.677855 
" clip-path="url(#pa3f1dca231)" style="fill: none; stroke: #f5700a; stroke-width: 4"/>
   </g>
   <g id="line2d_23">
    <path d="M 317.780907 210.130917 
L 311.659262 210.130917 
L 308.598439 209.824824 
L 302.476794 209.289161 
L 296.355149 208.753498 
L 291.763915 208.294359 
L 287.172681 208.447405 
L 276.459802 208.79176 
L 273.398979 209.327423 
L 264.216512 210.857888 
L 259.625278 211.623121 
L 253.503633 212.617924 
L 248.912399 213.383156 
L 242.790754 214.377959 
L 199.939238 218.663262 
L 192.287181 219.925896 
L 186.165536 220.920698 
L 180.043891 221.915501 
L 175.452657 222.60421 
L 166.270189 222.565949 
L 163.209367 222.451164 
L 150.966076 222.37464 
L 143.31402 222.259856 
L 137.192375 222.221594 
L 123.418673 226.58342 
L 117.297028 228.534764 
L 105.053738 232.399189 
L 86.688802 235.995782 
L 80.567157 237.10537 
L 75.975923 238.061911 
L 53.019754 242.576784 
L 43.837286 239.477591 
L 42.306875 239.018452 
L 42.306875 239.018452 
" clip-path="url(#pa3f1dca231)" style="fill: none; stroke: #888d8f; stroke-width: 4"/>
   </g>
   <g id="line2d_24">
    <path d="M 317.780907 234.388794 
L 291.763915 234.350532 
L 284.111858 232.973113 
L 281.051036 232.360927 
L 276.459802 231.48091 
L 264.216512 230.945247 
L 253.503633 230.600892 
L 250.44281 230.486107 
L 245.851576 230.409584 
L 242.790754 230.256537 
L 239.729931 230.026967 
L 236.669108 229.759136 
L 229.017052 229.299996 
L 225.956229 229.070427 
L 212.182528 228.113886 
L 206.060883 227.731269 
L 199.939238 227.310391 
L 190.75677 228.381717 
L 187.695947 228.68781 
L 175.452657 230.141752 
L 170.861423 231.519171 
L 164.739778 233.317468 
L 144.844431 239.171498 
L 138.722786 240.969795 
L 132.601141 242.691568 
L 118.827439 246.364685 
L 114.236205 247.589058 
L 105.053738 250.114326 
L 98.932093 250.496942 
L 86.688802 251.338698 
L 80.567157 251.721314 
L 69.854278 252.486547 
L 66.793456 252.639594 
L 56.080577 253.25178 
L 53.019754 253.443088 
L 49.958931 253.213518 
L 42.306875 252.677855 
L 42.306875 252.677855 
" clip-path="url(#pa3f1dca231)" style="fill: none; stroke: #f5700a; stroke-width: 4"/>
   </g>
   <g id="line2d_25">
    <path d="M 317.780907 143.976551 
L 311.659262 143.938289 
L 291.763915 147.420098 
L 276.459802 148.87404 
L 261.155689 147.802714 
L 256.564455 147.496621 
L 242.790754 146.54008 
L 225.956229 148.147069 
L 222.895407 148.376639 
L 210.652117 149.524488 
L 203.00006 150.174936 
L 199.939238 150.442767 
L 192.287181 149.983628 
L 187.695947 149.715796 
L 181.574302 149.371441 
L 178.51348 149.141872 
L 175.452657 148.950563 
L 167.800601 150.174936 
L 161.678955 151.169738 
L 154.026899 152.39411 
L 143.31402 154.192407 
L 137.192375 155.148948 
L 121.888262 144.550475 
L 112.705794 138.237306 
L 105.053738 132.9572 
L 69.854278 118.762134 
L 63.732633 116.275127 
L 53.019754 111.913301 
L 43.837286 118.91518 
L 42.306875 120.024768 
L 42.306875 120.024768 
" clip-path="url(#pa3f1dca231)" style="fill: none; stroke: #068773; stroke-width: 4"/>
   </g>
   <g id="line2d_26">
    <path d="M 42.306875 319.865286 
L 317.780907 319.865286 
" clip-path="url(#pa3f1dca231)" style="fill: none; stroke: #000000; stroke-opacity: 0.7; stroke-width: 2"/>
   </g>
   <g id="line2d_27">
    <path d="M 317.780907 143.976551 
L 311.659262 143.938289 
L 291.763915 147.420098 
L 276.459802 148.87404 
L 261.155689 147.802714 
L 256.564455 147.496621 
L 242.790754 146.54008 
L 225.956229 148.147069 
L 222.895407 148.376639 
L 210.652117 149.524488 
L 203.00006 150.174936 
L 199.939238 150.442767 
L 192.287181 149.983628 
L 187.695947 149.715796 
L 181.574302 149.371441 
L 178.51348 149.141872 
L 175.452657 148.950563 
L 167.800601 150.174936 
L 161.678955 151.169738 
L 154.026899 152.39411 
L 143.31402 154.192407 
L 137.192375 155.148948 
L 121.888262 144.550475 
L 112.705794 138.237306 
L 105.053738 132.9572 
L 69.854278 118.762134 
L 63.732633 116.275127 
L 53.019754 111.913301 
L 43.837286 118.91518 
L 42.306875 120.024768 
L 42.306875 120.024768 
" clip-path="url(#pa3f1dca231)" style="fill: none; stroke: #068773; stroke-width: 4"/>
   </g>
   <g id="line2d_28">
    <path d="M 42.306875 319.865286 
L 317.780907 319.865286 
" clip-path="url(#pa3f1dca231)" style="fill: none; stroke: #000000; stroke-opacity: 0.7; stroke-width: 2"/>
   </g>
   <g id="line2d_29">
    <path d="M 317.780907 143.976551 
L 311.659262 143.938289 
L 291.763915 147.420098 
L 276.459802 148.87404 
L 261.155689 147.802714 
L 256.564455 147.496621 
L 242.790754 146.54008 
L 225.956229 148.147069 
L 222.895407 148.376639 
L 210.652117 149.524488 
L 203.00006 150.174936 
L 199.939238 150.442767 
L 192.287181 149.983628 
L 187.695947 149.715796 
L 181.574302 149.371441 
L 178.51348 149.141872 
L 175.452657 148.950563 
L 167.800601 150.174936 
L 161.678955 151.169738 
L 154.026899 152.39411 
L 143.31402 154.192407 
L 137.192375 155.148948 
L 121.888262 144.550475 
L 112.705794 138.237306 
L 105.053738 132.9572 
L 69.854278 118.762134 
L 63.732633 116.275127 
L 53.019754 111.913301 
L 43.837286 118.91518 
L 42.306875 120.024768 
L 42.306875 120.024768 
" clip-path="url(#pa3f1dca231)" style="fill: none; stroke: #068773; stroke-width: 4"/>
   </g>
   <g id="line2d_30">
    <path d="M 42.306875 319.865286 
L 317.780907 319.865286 
" clip-path="url(#pa3f1dca231)" style="fill: none; stroke: #000000; stroke-opacity: 0.7; stroke-width: 2"/>
   </g>
   <g id="line2d_31">
    <path d="M 317.780907 143.976551 
L 311.659262 143.938289 
L 291.763915 147.420098 
L 276.459802 148.87404 
L 261.155689 147.802714 
L 256.564455 147.496621 
L 242.790754 146.54008 
L 225.956229 148.147069 
L 222.895407 148.376639 
L 210.652117 149.524488 
L 203.00006 150.174936 
L 199.939238 150.442767 
L 192.287181 149.983628 
L 187.695947 149.715796 
L 181.574302 149.371441 
L 178.51348 149.141872 
L 175.452657 148.950563 
L 167.800601 150.174936 
L 161.678955 151.169738 
L 154.026899 152.39411 
L 143.31402 154.192407 
L 137.192375 155.148948 
L 121.888262 144.550475 
L 112.705794 138.237306 
L 105.053738 132.9572 
L 69.854278 118.762134 
L 63.732633 116.275127 
L 53.019754 111.913301 
L 43.837286 118.91518 
L 42.306875 120.024768 
L 42.306875 120.024768 
" clip-path="url(#pa3f1dca231)" style="fill: none; stroke: #068773; stroke-width: 4"/>
   </g>
   <g id="line2d_32">
    <path d="M 42.306875 319.865286 
L 317.780907 319.865286 
" clip-path="url(#pa3f1dca231)" style="fill: none; stroke: #000000; stroke-opacity: 0.7; stroke-width: 2"/>
   </g>
   <g id="text_11">
    <text style="fill: #808080; font: 700 14px 'Roboto', 'Arial', 'DejaVu Sans', sans-serif; text-anchor: middle" x="180.043891" y="48.251552" transform="rotate(-0 180.043891 48.251552)">CATÓLICA</text>
   </g>
  </g>
  <g id="axes_2">
   <g id="patch_3">
    <path d="M 354.532432 330.262885 
L 630.006463 330.262885 
L 630.006463 52.033843 
L 354.532432 52.033843 
L 354.532432 330.262885 
z
" style="fill: none"/>
   </g>
   <g id="matplotlib.axis_3">
    <g id="xtick_3">
     <g id="line2d_33">
      <path d="M 354.532432 330.262885 
L 354.532432 52.033843 
" clip-path="url(#pe1b9a5e67b)" style="fill: none; stroke-dasharray: 0.7,2.1; stroke-dashoffset: 0; stroke: #000000; stroke-opacity: 0.3; stroke-width: 0.7"/>
     </g>
     <g id="line2d_34"/>
     <g id="text_12">
      <text style="fill: #333333; font: 20px 'Roboto', 'Arial', 'DejaVu Sans', sans-serif; text-anchor: middle" x="354.532432" y="351.49726" transform="rotate(-0 354.532432 351.49726)">Jan</text>
     </g>
    </g>
    <g id="xtick_4">
     <g id="line2d_35">
      <path d="M 630.006463 330.262885 
L 630.006463 52.033843 
" clip-path="url(#pe1b9a5e67b)" style="fill: none; stroke-dasharray: 0.7,2.1; stroke-dashoffset: 0; stroke: #000000; stroke-opacity: 0.3; stroke-width: 0.7"/>
     </g>
     <g id="line2d_36"/>
     <g id="text_13">
      <text style="fill: #333333; font: 20px 'Roboto', 'Arial', 'DejaVu Sans', sans-serif; text-anchor: middle" x="630.006463" y="351.49726" transform="rotate(-0 630.006463 351.49726)">Jul</text>
     </g>
    </g>
   </g>
   <g id="matplotlib.axis_4">
    <g id="ytick_9">
     <g id="line2d_37">
      <path d="M 354.532432 319.865286 
L 630.006463 319.865286 
" clip-path="url(#pe1b9a5e67b)" style="fill: none; stroke-dasharray: 0.7,2.1; stroke-dashoffset: 0; stroke: #000000; stroke-opacity: 0.3; stroke-width: 0.7"/>
     </g>
    </g>
    <g id="ytick_10">
     <g id="line2d_38">
      <path d="M 354.532432 281.603651 
L 630.006463 281.603651 
" clip-path="url(#pe1b9a5e67b)" style="fill: none; stroke-dasharray: 0.7,2.1; stroke-dashoffset: 0; stroke: #000000; stroke-opacity: 0.3; stroke-width: 0.7"/>
     </g>
    </g>
    <g id="ytick_11">
     <g id="line2d_39">
      <path d="M 354.532432 243.342016 
L 630.006463 243.342016 
" clip-path="url(#pe1b9a5e67b)" style="fill: none; stroke-dasharray: 0.7,2.1; stroke-dashoffset: 0; stroke: #000000; stroke-opacity: 0.3; stroke-width: 0.7"/>
     </g>
    </g>
    <g id="ytick_12">
     <g id="line2d_40">
      <path d="M 354.532432 205.080382 
L 630.006463 205.080382 
" clip-path="url(#pe1b9a5e67b)" style="fill: none; stroke-dasharray: 0.7,2.1; stroke-dashoffset: 0; stroke: #000000; stroke-opacity: 0.3; stroke-width: 0.7"/>
     </g>
    </g>
    <g id="ytick_13">
     <g id="line2d_41">
      <path d="M 354.532432 166.818747 
L 630.006463 166.818747 
" clip-path="url(#pe1b9a5e67b)" style="fill: none; stroke-dasharray: 0.7,2.1; stroke-dashoffset: 0; stroke: #000000; stroke-opacity: 0.3; stroke-width: 0.7"/>
     </g>
    </g>
    <g id="ytick_14">
     <g id="line2d_42">
      <path d="M 354.532432 128.557112 
L 630.006463 128.557112 
" clip-path="url(#pe1b9a5e67b)" style="fill: none; stroke-dasharray: 0.7,2.1; stroke-dashoffset: 0; stroke: #000000; stroke-opacity: 0.3; stroke-width: 0.7"/>
     </g>
    </g>
    <g id="ytick_15">
     <g id="line2d_43">
      <path d="M 354.532432 90.295477 
L 630.006463 90.295477 
" clip-path="url(#pe1b9a5e67b)" style="fill: none; stroke-dasharray: 0.7,2.1; stroke-dashoffset: 0; stroke: #000000; stroke-opacity: 0.3; stroke-width: 0.7"/>
     </g>
    </g>
    <g id="ytick_16">
     <g id="line2d_44">
      <path d="M 354.532432 52.033843 
L 630.006463 52.033843 
" clip-path="url(#pe1b9a5e67b)" style="fill: none; stroke-dasharray: 0.7,2.1; stroke-dashoffset: 0; stroke: #000000; stroke-opacity: 0.3; stroke-width: 0.7"/>
     </g>
    </g>
   </g>
   <g id="line2d_45">
    <path d="M 354.532432 330.262885 
L 354.532432 52.033843 
" clip-path="url(#pe1b9a5e67b)" style="fill: none; stroke: #000000; stroke-opacity: 0.7; stroke-width: 3"/>
   </g>
   <g id="line2d_46">
    <path d="M 354.532432 330.262885 
L 354.532432 52.033843 
" clip-path="url(#pe1b9a5e67b)" style="fill: none; stroke: #000000; stroke-opacity: 0.7; stroke-width: 3"/>
   </g>
   <g id="line2d_47">
    <path d="M 354.532432 330.262885 
L 354.532432 52.033843 
" clip-path="url(#pe1b9a5e67b)" style="fill: none; stroke: #000000; stroke-opacity: 0.7; stroke-width: 3"/>
   </g>
   <g id="line2d_48">
    <path d="M 354.532432 330.262885 
L 354.532432 52.033843 
" clip-path="url(#pe1b9a5e67b)" style="fill: none; stroke: #000000; stroke-opacity: 0.7; stroke-width: 3"/>
   </g>
   <g id="line2d_49">
    <path d="M 630.006463 201.215956 
L 622.354407 201.215956 
L 617.763173 200.948125 
L 600.928649 200.029846 
L 588.685359 199.035043 
L 581.033302 199.723753 
L 573.381246 200.3742 
L 562.668367 201.369003 
L 547.364254 202.47859 
L 542.77302 202.669899 
L 539.712197 202.822945 
L 504.512738 204.506457 
L 466.252456 205.386475 
L 461.661222 205.462998 
L 458.600399 205.539521 
L 449.417931 205.807353 
L 415.748883 215.793639 
L 412.688061 216.635395 
L 391.262303 222.412902 
L 386.671069 223.637274 
L 365.245311 229.491304 
L 362.184488 228.879118 
L 354.532432 227.386915 
L 354.532432 227.386915 
" clip-path="url(#pe1b9a5e67b)" style="fill: none; stroke: #888d8f; stroke-width: 4"/>
   </g>
   <g id="line2d_50">
    <path d="M 630.006463 173.705841 
L 625.415229 173.667579 
L 620.823996 173.858888 
L 613.171939 174.356289 
L 605.519883 174.815428 
L 602.45906 175.08326 
L 597.867826 175.618923 
L 593.276592 176.039801 
L 588.685359 176.537202 
L 573.381246 176.231109 
L 570.320423 176.154586 
L 550.425076 175.733708 
L 542.77302 175.657184 
L 525.938496 175.31283 
L 515.225617 175.236306 
L 512.164794 175.198045 
L 486.147802 180.975552 
L 476.965335 182.888633 
L 470.843689 184.189529 
L 464.722044 185.490425 
L 458.600399 186.829582 
L 455.539577 187.403506 
L 441.765875 190.579222 
L 437.174641 191.765333 
L 431.052996 193.219275 
L 418.809706 196.203682 
L 417.279294 196.548037 
L 411.157649 196.777607 
L 406.566415 196.85413 
L 400.44477 197.0837 
L 397.383948 197.160223 
L 385.140657 197.542839 
L 382.079835 197.657624 
L 379.019012 197.695886 
L 369.836545 198.078502 
L 365.245311 198.193287 
L 359.123666 199.035043 
L 354.532432 199.647229 
L 354.532432 199.647229 
" clip-path="url(#pe1b9a5e67b)" style="fill: none; stroke: #f5700a; stroke-width: 4"/>
   </g>
   <g id="line2d_51">
    <path d="M 630.006463 201.215956 
L 622.354407 201.215956 
L 617.763173 200.948125 
L 600.928649 200.029846 
L 588.685359 199.035043 
L 581.033302 199.723753 
L 573.381246 200.3742 
L 562.668367 201.369003 
L 547.364254 202.47859 
L 542.77302 202.669899 
L 539.712197 202.822945 
L 504.512738 204.506457 
L 466.252456 205.386475 
L 461.661222 205.462998 
L 458.600399 205.539521 
L 449.417931 205.807353 
L 415.748883 215.793639 
L 412.688061 216.635395 
L 391.262303 222.412902 
L 386.671069 223.637274 
L 365.245311 229.491304 
L 362.184488 228.879118 
L 354.532432 227.386915 
L 354.532432 227.386915 
" clip-path="url(#pe1b9a5e67b)" style="fill: none; stroke: #888d8f; stroke-width: 4"/>
   </g>
   <g id="line2d_52">
    <path d="M 630.006463 173.705841 
L 625.415229 173.667579 
L 620.823996 173.858888 
L 613.171939 174.356289 
L 605.519883 174.815428 
L 602.45906 175.08326 
L 597.867826 175.618923 
L 593.276592 176.039801 
L 588.685359 176.537202 
L 573.381246 176.231109 
L 570.320423 176.154586 
L 550.425076 175.733708 
L 542.77302 175.657184 
L 525.938496 175.31283 
L 515.225617 175.236306 
L 512.164794 175.198045 
L 486.147802 180.975552 
L 476.965335 182.888633 
L 470.843689 184.189529 
L 464.722044 185.490425 
L 458.600399 186.829582 
L 455.539577 187.403506 
L 441.765875 190.579222 
L 437.174641 191.765333 
L 431.052996 193.219275 
L 418.809706 196.203682 
L 417.279294 196.548037 
L 411.157649 196.777607 
L 406.566415 196.85413 
L 400.44477 197.0837 
L 397.383948 197.160223 
L 385.140657 197.542839 
L 382.079835 197.657624 
L 379.019012 197.695886 
L 369.836545 198.078502 
L 365.245311 198.193287 
L 359.123666 199.035043 
L 354.532432 199.647229 
L 354.532432 199.647229 
" clip-path="url(#pe1b9a5e67b)" style="fill: none; stroke: #f5700a; stroke-width: 4"/>
   </g>
   <g id="line2d_53">
    <path d="M 630.006463 201.215956 
L 622.354407 201.215956 
L 617.763173 200.948125 
L 600.928649 200.029846 
L 588.685359 199.035043 
L 581.033302 199.723753 
L 573.381246 200.3742 
L 562.668367 201.369003 
L 547.364254 202.47859 
L 542.77302 202.669899 
L 539.712197 202.822945 
L 504.512738 204.506457 
L 466.252456 205.386475 
L 461.661222 205.462998 
L 458.600399 205.539521 
L 449.417931 205.807353 
L 415.748883 215.793639 
L 412.688061 216.635395 
L 391.262303 222.412902 
L 386.671069 223.637274 
L 365.245311 229.491304 
L 362.184488 228.879118 
L 354.532432 227.386915 
L 354.532432 227.386915 
" clip-path="url(#pe1b9a5e67b)" style="fill: none; stroke: #888d8f; stroke-width: 4"/>
   </g>
   <g id="line2d_54">
    <path d="M 630.006463 173.705841 
L 625.415229 173.667579 
L 620.823996 173.858888 
L 613.171939 174.356289 
L 605.519883 174.815428 
L 602.45906 175.08326 
L 597.867826 175.618923 
L 593.276592 176.039801 
L 588.685359 176.537202 
L 573.381246 176.231109 
L 570.320423 176.154586 
L 550.425076 175.733708 
L 542.77302 175.657184 
L 525.938496 175.31283 
L 515.225617 175.236306 
L 512.164794 175.198045 
L 486.147802 180.975552 
L 476.965335 182.888633 
L 470.843689 184.189529 
L 464.722044 185.490425 
L 458.600399 186.829582 
L 455.539577 187.403506 
L 441.765875 190.579222 
L 437.174641 191.765333 
L 431.052996 193.219275 
L 418.809706 196.203682 
L 417.279294 196.548037 
L 411.157649 196.777607 
L 406.566415 196.85413 
L 400.44477 197.0837 
L 397.383948 197.160223 
L 385.140657 197.542839 
L 382.079835 197.657624 
L 379.019012 197.695886 
L 369.836545 198.078502 
L 365.245311 198.193287 
L 359.123666 199.035043 
L 354.532432 199.647229 
L 354.532432 199.647229 
" clip-path="url(#pe1b9a5e67b)" style="fill: none; stroke: #f5700a; stroke-width: 4"/>
   </g>
   <g id="line2d_55">
    <path d="M 630.006463 201.215956 
L 622.354407 201.215956 
L 617.763173 200.948125 
L 600.928649 200.029846 
L 588.685359 199.035043 
L 581.033302 199.723753 
L 573.381246 200.3742 
L 562.668367 201.369003 
L 547.364254 202.47859 
L 542.77302 202.669899 
L 539.712197 202.822945 
L 504.512738 204.506457 
L 466.252456 205.386475 
L 461.661222 205.462998 
L 458.600399 205.539521 
L 449.417931 205.807353 
L 415.748883 215.793639 
L 412.688061 216.635395 
L 391.262303 222.412902 
L 386.671069 223.637274 
L 365.245311 229.491304 
L 362.184488 228.879118 
L 354.532432 227.386915 
L 354.532432 227.386915 
" clip-path="url(#pe1b9a5e67b)" style="fill: none; stroke: #888d8f; stroke-width: 4"/>
   </g>
   <g id="line2d_56">
    <path d="M 630.006463 173.705841 
L 625.415229 173.667579 
L 620.823996 173.858888 
L 613.171939 174.356289 
L 605.519883 174.815428 
L 602.45906 175.08326 
L 597.867826 175.618923 
L 593.276592 176.039801 
L 588.685359 176.537202 
L 573.381246 176.231109 
L 570.320423 176.154586 
L 550.425076 175.733708 
L 542.77302 175.657184 
L 525.938496 175.31283 
L 515.225617 175.236306 
L 512.164794 175.198045 
L 486.147802 180.975552 
L 476.965335 182.888633 
L 470.843689 184.189529 
L 464.722044 185.490425 
L 458.600399 186.829582 
L 455.539577 187.403506 
L 441.765875 190.579222 
L 437.174641 191.765333 
L 431.052996 193.219275 
L 418.809706 196.203682 
L 417.279294 196.548037 
L 411.157649 196.777607 
L 406.566415 196.85413 
L 400.44477 197.0837 
L 397.383948 197.160223 
L 385.140657 197.542839 
L 382.079835 197.657624 
L 379.019012 197.695886 
L 369.836545 198.078502 
L 365.245311 198.193287 
L 359.123666 199.035043 
L 354.532432 199.647229 
L 354.532432 199.647229 
" clip-path="url(#pe1b9a5e67b)" style="fill: none; stroke: #f5700a; stroke-width: 4"/>
   </g>
   <g id="line2d_57">
    <path d="M 630.006463 222.183332 
L 625.415229 222.145071 
L 608.580705 222.068547 
L 603.989471 222.030286 
L 600.928649 222.106809 
L 591.746181 222.412902 
L 588.685359 222.527687 
L 555.01631 217.553674 
L 544.303431 216.405825 
L 541.242609 216.023209 
L 535.120964 215.3345 
L 527.468907 214.41622 
L 524.408085 214.110127 
L 516.756028 213.268371 
L 512.164794 212.732708 
L 506.043149 212.809232 
L 496.860681 212.885755 
L 490.739036 212.962278 
L 475.434923 213.038802 
L 470.843689 213.077063 
L 449.417931 213.115325 
L 440.235464 211.010935 
L 437.174641 210.283964 
L 432.583407 209.212638 
L 417.279294 205.692568 
L 409.627238 203.090777 
L 365.245311 187.633076 
L 360.654077 188.130477 
L 354.532432 188.742663 
L 354.532432 188.742663 
" clip-path="url(#pe1b9a5e67b)" style="fill: none; stroke: #068773; stroke-width: 4"/>
   </g>
   <g id="line2d_58">
    <path d="M 354.532432 319.865286 
L 630.006463 319.865286 
" clip-path="url(#pe1b9a5e67b)" style="fill: none; stroke: #000000; stroke-opacity: 0.7; stroke-width: 2"/>
   </g>
   <g id="line2d_59">
    <path d="M 630.006463 222.183332 
L 625.415229 222.145071 
L 608.580705 222.068547 
L 603.989471 222.030286 
L 600.928649 222.106809 
L 591.746181 222.412902 
L 588.685359 222.527687 
L 555.01631 217.553674 
L 544.303431 216.405825 
L 541.242609 216.023209 
L 535.120964 215.3345 
L 527.468907 214.41622 
L 524.408085 214.110127 
L 516.756028 213.268371 
L 512.164794 212.732708 
L 506.043149 212.809232 
L 496.860681 212.885755 
L 490.739036 212.962278 
L 475.434923 213.038802 
L 470.843689 213.077063 
L 449.417931 213.115325 
L 440.235464 211.010935 
L 437.174641 210.283964 
L 432.583407 209.212638 
L 417.279294 205.692568 
L 409.627238 203.090777 
L 365.245311 187.633076 
L 360.654077 188.130477 
L 354.532432 188.742663 
L 354.532432 188.742663 
" clip-path="url(#pe1b9a5e67b)" style="fill: none; stroke: #068773; stroke-width: 4"/>
   </g>
   <g id="line2d_60">
    <path d="M 354.532432 319.865286 
L 630.006463 319.865286 
" clip-path="url(#pe1b9a5e67b)" style="fill: none; stroke: #000000; stroke-opacity: 0.7; stroke-width: 2"/>
   </g>
   <g id="line2d_61">
    <path d="M 630.006463 222.183332 
L 625.415229 222.145071 
L 608.580705 222.068547 
L 603.989471 222.030286 
L 600.928649 222.106809 
L 591.746181 222.412902 
L 588.685359 222.527687 
L 555.01631 217.553674 
L 544.303431 216.405825 
L 541.242609 216.023209 
L 535.120964 215.3345 
L 527.468907 214.41622 
L 524.408085 214.110127 
L 516.756028 213.268371 
L 512.164794 212.732708 
L 506.043149 212.809232 
L 496.860681 212.885755 
L 490.739036 212.962278 
L 475.434923 213.038802 
L 470.843689 213.077063 
L 449.417931 213.115325 
L 440.235464 211.010935 
L 437.174641 210.283964 
L 432.583407 209.212638 
L 417.279294 205.692568 
L 409.627238 203.090777 
L 365.245311 187.633076 
L 360.654077 188.130477 
L 354.532432 188.742663 
L 354.532432 188.742663 
" clip-path="url(#pe1b9a5e67b)" style="fill: none; stroke: #068773; stroke-width: 4"/>
   </g>
   <g id="line2d_62">
    <path d="M 354.532432 319.865286 
L 630.006463 319.865286 
" clip-path="url(#pe1b9a5e67b)" style="fill: none; stroke: #000000; stroke-opacity: 0.7; stroke-width: 2"/>
   </g>
   <g id="line2d_63">
    <path d="M 630.006463 222.183332 
L 625.415229 222.145071 
L 608.580705 222.068547 
L 603.989471 222.030286 
L 600.928649 222.106809 
L 591.746181 222.412902 
L 588.685359 222.527687 
L 555.01631 217.553674 
L 544.303431 216.405825 
L 541.242609 216.023209 
L 535.120964 215.3345 
L 527.468907 214.41622 
L 524.408085 214.110127 
L 516.756028 213.268371 
L 512.164794 212.732708 
L 506.043149 212.809232 
L 496.860681 212.885755 
L 490.739036 212.962278 
L 475.434923 213.038802 
L 470.843689 213.077063 
L 449.417931 213.115325 
L 440.235464 211.010935 
L 437.174641 210.283964 
L 432.583407 209.212638 
L 417.279294 205.692568 
L 409.627238 203.090777 
L 365.245311 187.633076 
L 360.654077 188.130477 
L 354.532432 188.742663 
L 354.532432 188.742663 
" clip-path="url(#pe1b9a5e67b)" style="fill: none; stroke: #068773; stroke-width: 4"/>
   </g>
   <g id="line2d_64">
    <path d="M 354.532432 319.865286 
L 630.006463 319.865286 
" clip-path="url(#pe1b9a5e67b)" style="fill: none; stroke: #000000; stroke-opacity: 0.7; stroke-width: 2"/>
   </g>
   <g id="text_14">
    <text style="fill: #808080; font: 700 14px 'Roboto', 'Arial', 'DejaVu Sans', sans-serif; text-anchor: middle" x="492.269448" y="48.251552" transform="rotate(-0 492.269448 48.251552)">EVANGÉLICA</text>
   </g>
  </g>
  <g id="axes_3">
   <g id="patch_4">
    <path d="M 666.757988 330.262885 
L 942.23202 330.262885 
L 942.23202 52.033843 
L 666.757988 52.033843 
L 666.757988 330.262885 
z
" style="fill: none"/>
   </g>
   <g id="matplotlib.axis_5">
    <g id="xtick_5">
     <g id="line2d_65">
      <path d="M 666.757988 330.262885 
L 666.757988 52.033843 
" clip-path="url(#p0c4dcc3830)" style="fill: none; stroke-dasharray: 0.7,2.1; stroke-dashoffset: 0; stroke: #000000; stroke-opacity: 0.3; stroke-width: 0.7"/>
     </g>
     <g id="line2d_66"/>
     <g id="text_15">
      <text style="fill: #333333; font: 20px 'Roboto', 'Arial', 'DejaVu Sans', sans-serif; text-anchor: middle" x="666.757988" y="351.49726" transform="rotate(-0 666.757988 351.49726)">Jan</text>
     </g>
    </g>
    <g id="xtick_6">
     <g id="line2d_67">
      <path d="M 942.23202 330.262885 
L 942.23202 52.033843 
" clip-path="url(#p0c4dcc3830)" style="fill: none; stroke-dasharray: 0.7,2.1; stroke-dashoffset: 0; stroke: #000000; stroke-opacity: 0.3; stroke-width: 0.7"/>
     </g>
     <g id="line2d_68"/>
     <g id="text_16">
      <text style="fill: #333333; font: 20px 'Roboto', 'Arial', 'DejaVu Sans', sans-serif; text-anchor: middle" x="942.23202" y="351.49726" transform="rotate(-0 942.23202 351.49726)">Jul</text>
     </g>
    </g>
   </g>
   <g id="matplotlib.axis_6">
    <g id="ytick_17">
     <g id="line2d_69">
      <path d="M 666.757988 319.865286 
L 942.23202 319.865286 
" clip-path="url(#p0c4dcc3830)" style="fill: none; stroke-dasharray: 0.7,2.1; stroke-dashoffset: 0; stroke: #000000; stroke-opacity: 0.3; stroke-width: 0.7"/>
     </g>
    </g>
    <g id="ytick_18">
     <g id="line2d_70">
      <path d="M 666.757988 281.603651 
L 942.23202 281.603651 
" clip-path="url(#p0c4dcc3830)" style="fill: none; stroke-dasharray: 0.7,2.1; stroke-dashoffset: 0; stroke: #000000; stroke-opacity: 0.3; stroke-width: 0.7"/>
     </g>
    </g>
    <g id="ytick_19">
     <g id="line2d_71">
      <path d="M 666.757988 243.342016 
L 942.23202 243.342016 
" clip-path="url(#p0c4dcc3830)" style="fill: none; stroke-dasharray: 0.7,2.1; stroke-dashoffset: 0; stroke: #000000; stroke-opacity: 0.3; stroke-width: 0.7"/>
     </g>
    </g>
    <g id="ytick_20">
     <g id="line2d_72">
      <path d="M 666.757988 205.080382 
L 942.23202 205.080382 
" clip-path="url(#p0c4dcc3830)" style="fill: none; stroke-dasharray: 0.7,2.1; stroke-dashoffset: 0; stroke: #000000; stroke-opacity: 0.3; stroke-width: 0.7"/>
     </g>
    </g>
    <g id="ytick_21">
     <g id="line2d_73">
      <path d="M 666.757988 166.818747 
L 942.23202 166.818747 
" clip-path="url(#p0c4dcc3830)" style="fill: none; stroke-dasharray: 0.7,2.1; stroke-dashoffset: 0; stroke: #000000; stroke-opacity: 0.3; stroke-width: 0.7"/>
     </g>
    </g>
    <g id="ytick_22">
     <g id="line2d_74">
      <path d="M 666.757988 128.557112 
L 942.23202 128.557112 
" clip-path="url(#p0c4dcc3830)" style="fill: none; stroke-dasharray: 0.7,2.1; stroke-dashoffset: 0; stroke: #000000; stroke-opacity: 0.3; stroke-width: 0.7"/>
     </g>
    </g>
    <g id="ytick_23">
     <g id="line2d_75">
      <path d="M 666.757988 90.295477 
L 942.23202 90.295477 
" clip-path="url(#p0c4dcc3830)" style="fill: none; stroke-dasharray: 0.7,2.1; stroke-dashoffset: 0; stroke: #000000; stroke-opacity: 0.3; stroke-width: 0.7"/>
     </g>
    </g>
    <g id="ytick_24">
     <g id="line2d_76">
      <path d="M 666.757988 52.033843 
L 942.23202 52.033843 
" clip-path="url(#p0c4dcc3830)" style="fill: none; stroke-dasharray: 0.7,2.1; stroke-dashoffset: 0; stroke: #000000; stroke-opacity: 0.3; stroke-width: 0.7"/>
     </g>
    </g>
   </g>
   <g id="line2d_77">
    <path d="M 666.757988 330.262885 
L 666.757988 52.033843 
" clip-path="url(#p0c4dcc3830)" style="fill: none; stroke: #000000; stroke-opacity: 0.7; stroke-width: 3"/>
   </g>
   <g id="line2d_78">
    <path d="M 666.757988 330.262885 
L 666.757988 52.033843 
" clip-path="url(#p0c4dcc3830)" style="fill: none; stroke: #000000; stroke-opacity: 0.7; stroke-width: 3"/>
   </g>
   <g id="line2d_79">
    <path d="M 666.757988 330.262885 
L 666.757988 52.033843 
" clip-path="url(#p0c4dcc3830)" style="fill: none; stroke: #000000; stroke-opacity: 0.7; stroke-width: 3"/>
   </g>
   <g id="line2d_80">
    <path d="M 666.757988 330.262885 
L 666.757988 52.033843 
" clip-path="url(#p0c4dcc3830)" style="fill: none; stroke: #000000; stroke-opacity: 0.7; stroke-width: 3"/>
   </g>
   <g id="line2d_81">
    <path d="M 942.23202 202.249021 
L 940.701609 202.325544 
L 934.579964 202.249021 
L 916.215028 202.287282 
L 900.910915 199.608968 
L 896.319681 199.341136 
L 865.711456 197.734148 
L 858.059399 197.236746 
L 851.937754 196.85413 
L 845.816109 196.471514 
L 833.572819 195.782804 
L 824.390351 195.132357 
L 802.964593 195.744543 
L 799.90377 195.859328 
L 784.599657 198.231549 
L 778.478012 199.226351 
L 761.643488 201.789881 
L 743.278553 208.103051 
L 732.565674 211.699644 
L 729.504851 212.77097 
L 715.73115 215.946686 
L 705.018271 218.548477 
L 697.366214 220.346774 
L 679.001279 224.861647 
L 677.470867 225.206001 
L 666.757988 224.440769 
L 666.757988 224.440769 
" clip-path="url(#p0c4dcc3830)" style="fill: none; stroke: #888d8f; stroke-width: 4"/>
   </g>
   <g id="line2d_82">
    <path d="M 942.23202 230.868723 
L 916.215028 230.945247 
L 903.971738 228.726072 
L 900.910915 228.190409 
L 899.380504 228.152147 
L 896.319681 228.228671 
L 891.728448 228.266932 
L 887.137214 228.343455 
L 873.363512 228.611287 
L 868.772278 228.68781 
L 844.285698 229.223473 
L 841.224875 229.261735 
L 836.633641 229.414781 
L 818.268706 229.950444 
L 799.90377 230.7922 
L 796.842948 231.557433 
L 792.251714 232.705282 
L 766.234722 239.286283 
L 761.643488 240.472394 
L 750.930609 241.467196 
L 740.21773 242.347214 
L 734.096085 242.882877 
L 731.035262 243.112446 
L 729.504851 243.265493 
L 723.383206 243.495063 
L 717.261561 243.724633 
L 708.079093 244.030726 
L 697.366214 244.489865 
L 683.592512 244.910743 
L 674.410045 245.29336 
L 666.757988 245.484668 
L 666.757988 245.484668 
" clip-path="url(#p0c4dcc3830)" style="fill: none; stroke: #f5700a; stroke-width: 4"/>
   </g>
   <g id="line2d_83">
    <path d="M 942.23202 202.249021 
L 940.701609 202.325544 
L 934.579964 202.249021 
L 916.215028 202.287282 
L 900.910915 199.608968 
L 896.319681 199.341136 
L 865.711456 197.734148 
L 858.059399 197.236746 
L 851.937754 196.85413 
L 845.816109 196.471514 
L 833.572819 195.782804 
L 824.390351 195.132357 
L 802.964593 195.744543 
L 799.90377 195.859328 
L 784.599657 198.231549 
L 778.478012 199.226351 
L 761.643488 201.789881 
L 743.278553 208.103051 
L 732.565674 211.699644 
L 729.504851 212.77097 
L 715.73115 215.946686 
L 705.018271 218.548477 
L 697.366214 220.346774 
L 679.001279 224.861647 
L 677.470867 225.206001 
L 666.757988 224.440769 
L 666.757988 224.440769 
" clip-path="url(#p0c4dcc3830)" style="fill: none; stroke: #888d8f; stroke-width: 4"/>
   </g>
   <g id="line2d_84">
    <path d="M 942.23202 230.868723 
L 916.215028 230.945247 
L 903.971738 228.726072 
L 900.910915 228.190409 
L 899.380504 228.152147 
L 896.319681 228.228671 
L 891.728448 228.266932 
L 887.137214 228.343455 
L 873.363512 228.611287 
L 868.772278 228.68781 
L 844.285698 229.223473 
L 841.224875 229.261735 
L 836.633641 229.414781 
L 818.268706 229.950444 
L 799.90377 230.7922 
L 796.842948 231.557433 
L 792.251714 232.705282 
L 766.234722 239.286283 
L 761.643488 240.472394 
L 750.930609 241.467196 
L 740.21773 242.347214 
L 734.096085 242.882877 
L 731.035262 243.112446 
L 729.504851 243.265493 
L 723.383206 243.495063 
L 717.261561 243.724633 
L 708.079093 244.030726 
L 697.366214 244.489865 
L 683.592512 244.910743 
L 674.410045 245.29336 
L 666.757988 245.484668 
L 666.757988 245.484668 
" clip-path="url(#p0c4dcc3830)" style="fill: none; stroke: #f5700a; stroke-width: 4"/>
   </g>
   <g id="line2d_85">
    <path d="M 942.23202 202.249021 
L 940.701609 202.325544 
L 934.579964 202.249021 
L 916.215028 202.287282 
L 900.910915 199.608968 
L 896.319681 199.341136 
L 865.711456 197.734148 
L 858.059399 197.236746 
L 851.937754 196.85413 
L 845.816109 196.471514 
L 833.572819 195.782804 
L 824.390351 195.132357 
L 802.964593 195.744543 
L 799.90377 195.859328 
L 784.599657 198.231549 
L 778.478012 199.226351 
L 761.643488 201.789881 
L 743.278553 208.103051 
L 732.565674 211.699644 
L 729.504851 212.77097 
L 715.73115 215.946686 
L 705.018271 218.548477 
L 697.366214 220.346774 
L 679.001279 224.861647 
L 677.470867 225.206001 
L 666.757988 224.440769 
L 666.757988 224.440769 
" clip-path="url(#p0c4dcc3830)" style="fill: none; stroke: #888d8f; stroke-width: 4"/>
   </g>
   <g id="line2d_86">
    <path d="M 942.23202 230.868723 
L 916.215028 230.945247 
L 903.971738 228.726072 
L 900.910915 228.190409 
L 899.380504 228.152147 
L 896.319681 228.228671 
L 891.728448 228.266932 
L 887.137214 228.343455 
L 873.363512 228.611287 
L 868.772278 228.68781 
L 844.285698 229.223473 
L 841.224875 229.261735 
L 836.633641 229.414781 
L 818.268706 229.950444 
L 799.90377 230.7922 
L 796.842948 231.557433 
L 792.251714 232.705282 
L 766.234722 239.286283 
L 761.643488 240.472394 
L 750.930609 241.467196 
L 740.21773 242.347214 
L 734.096085 242.882877 
L 731.035262 243.112446 
L 729.504851 243.265493 
L 723.383206 243.495063 
L 717.261561 243.724633 
L 708.079093 244.030726 
L 697.366214 244.489865 
L 683.592512 244.910743 
L 674.410045 245.29336 
L 666.757988 245.484668 
L 666.757988 245.484668 
" clip-path="url(#p0c4dcc3830)" style="fill: none; stroke: #f5700a; stroke-width: 4"/>
   </g>
   <g id="line2d_87">
    <path d="M 942.23202 202.249021 
L 940.701609 202.325544 
L 934.579964 202.249021 
L 916.215028 202.287282 
L 900.910915 199.608968 
L 896.319681 199.341136 
L 865.711456 197.734148 
L 858.059399 197.236746 
L 851.937754 196.85413 
L 845.816109 196.471514 
L 833.572819 195.782804 
L 824.390351 195.132357 
L 802.964593 195.744543 
L 799.90377 195.859328 
L 784.599657 198.231549 
L 778.478012 199.226351 
L 761.643488 201.789881 
L 743.278553 208.103051 
L 732.565674 211.699644 
L 729.504851 212.77097 
L 715.73115 215.946686 
L 705.018271 218.548477 
L 697.366214 220.346774 
L 679.001279 224.861647 
L 677.470867 225.206001 
L 666.757988 224.440769 
L 666.757988 224.440769 
" clip-path="url(#p0c4dcc3830)" style="fill: none; stroke: #888d8f; stroke-width: 4"/>
   </g>
   <g id="line2d_88">
    <path d="M 942.23202 230.868723 
L 916.215028 230.945247 
L 903.971738 228.726072 
L 900.910915 228.190409 
L 899.380504 228.152147 
L 896.319681 228.228671 
L 891.728448 228.266932 
L 887.137214 228.343455 
L 873.363512 228.611287 
L 868.772278 228.68781 
L 844.285698 229.223473 
L 841.224875 229.261735 
L 836.633641 229.414781 
L 818.268706 229.950444 
L 799.90377 230.7922 
L 796.842948 231.557433 
L 792.251714 232.705282 
L 766.234722 239.286283 
L 761.643488 240.472394 
L 750.930609 241.467196 
L 740.21773 242.347214 
L 734.096085 242.882877 
L 731.035262 243.112446 
L 729.504851 243.265493 
L 723.383206 243.495063 
L 717.261561 243.724633 
L 708.079093 244.030726 
L 697.366214 244.489865 
L 683.592512 244.910743 
L 674.410045 245.29336 
L 666.757988 245.484668 
L 666.757988 245.484668 
" clip-path="url(#p0c4dcc3830)" style="fill: none; stroke: #f5700a; stroke-width: 4"/>
   </g>
   <g id="line2d_89">
    <path d="M 942.23202 176.843295 
L 916.215028 176.805033 
L 900.910915 180.975552 
L 839.694464 179.368563 
L 835.10323 179.215516 
L 822.85994 178.985947 
L 818.268706 179.368563 
L 799.90377 180.745982 
L 792.251714 179.52161 
L 787.66048 178.794638 
L 772.356367 176.422417 
L 764.704311 175.159783 
L 761.643488 174.662382 
L 749.400198 171.10405 
L 737.156908 167.622241 
L 727.97444 164.829142 
L 724.913617 163.643031 
L 683.592512 148.032284 
L 679.001279 146.272249 
L 677.470867 145.736586 
L 671.349222 146.119202 
L 666.757988 146.387034 
L 666.757988 146.387034 
" clip-path="url(#p0c4dcc3830)" style="fill: none; stroke: #068773; stroke-width: 4"/>
   </g>
   <g id="line2d_90">
    <path d="M 666.757988 319.865286 
L 942.23202 319.865286 
" clip-path="url(#p0c4dcc3830)" style="fill: none; stroke: #000000; stroke-opacity: 0.7; stroke-width: 2"/>
   </g>
   <g id="line2d_91">
    <path d="M 942.23202 176.843295 
L 916.215028 176.805033 
L 900.910915 180.975552 
L 839.694464 179.368563 
L 835.10323 179.215516 
L 822.85994 178.985947 
L 818.268706 179.368563 
L 799.90377 180.745982 
L 792.251714 179.52161 
L 787.66048 178.794638 
L 772.356367 176.422417 
L 764.704311 175.159783 
L 761.643488 174.662382 
L 749.400198 171.10405 
L 737.156908 167.622241 
L 727.97444 164.829142 
L 724.913617 163.643031 
L 683.592512 148.032284 
L 679.001279 146.272249 
L 677.470867 145.736586 
L 671.349222 146.119202 
L 666.757988 146.387034 
L 666.757988 146.387034 
" clip-path="url(#p0c4dcc3830)" style="fill: none; stroke: #068773; stroke-width: 4"/>
   </g>
   <g id="line2d_92">
    <path d="M 666.757988 319.865286 
L 942.23202 319.865286 
" clip-path="url(#p0c4dcc3830)" style="fill: none; stroke: #000000; stroke-opacity: 0.7; stroke-width: 2"/>
   </g>
   <g id="line2d_93">
    <path d="M 942.23202 176.843295 
L 916.215028 176.805033 
L 900.910915 180.975552 
L 839.694464 179.368563 
L 835.10323 179.215516 
L 822.85994 178.985947 
L 818.268706 179.368563 
L 799.90377 180.745982 
L 792.251714 179.52161 
L 787.66048 178.794638 
L 772.356367 176.422417 
L 764.704311 175.159783 
L 761.643488 174.662382 
L 749.400198 171.10405 
L 737.156908 167.622241 
L 727.97444 164.829142 
L 724.913617 163.643031 
L 683.592512 148.032284 
L 679.001279 146.272249 
L 677.470867 145.736586 
L 671.349222 146.119202 
L 666.757988 146.387034 
L 666.757988 146.387034 
" clip-path="url(#p0c4dcc3830)" style="fill: none; stroke: #068773; stroke-width: 4"/>
   </g>
   <g id="line2d_94">
    <path d="M 666.757988 319.865286 
L 942.23202 319.865286 
" clip-path="url(#p0c4dcc3830)" style="fill: none; stroke: #000000; stroke-opacity: 0.7; stroke-width: 2"/>
   </g>
   <g id="line2d_95">
    <path d="M 942.23202 176.843295 
L 916.215028 176.805033 
L 900.910915 180.975552 
L 839.694464 179.368563 
L 835.10323 179.215516 
L 822.85994 178.985947 
L 818.268706 179.368563 
L 799.90377 180.745982 
L 792.251714 179.52161 
L 787.66048 178.794638 
L 772.356367 176.422417 
L 764.704311 175.159783 
L 761.643488 174.662382 
L 749.400198 171.10405 
L 737.156908 167.622241 
L 727.97444 164.829142 
L 724.913617 163.643031 
L 683.592512 148.032284 
L 679.001279 146.272249 
L 677.470867 145.736586 
L 671.349222 146.119202 
L 666.757988 146.387034 
L 666.757988 146.387034 
" clip-path="url(#p0c4dcc3830)" style="fill: none; stroke: #068773; stroke-width: 4"/>
   </g>
   <g id="line2d_96">
    <path d="M 666.757988 319.865286 
L 942.23202 319.865286 
" clip-path="url(#p0c4dcc3830)" style="fill: none; stroke: #000000; stroke-opacity: 0.7; stroke-width: 2"/>
   </g>
   <g id="text_17">
    <text style="fill: #808080; font: 700 14px 'Roboto', 'Arial', 'DejaVu Sans', sans-serif; text-anchor: middle" x="804.495004" y="48.251552" transform="rotate(-0 804.495004 48.251552)">OUTRAS</text>
   </g>
  </g>
  <g id="text_18">
   <text style="fill: #222222; font: 700 24px 'Roboto', 'Arial', 'DejaVu Sans', sans-serif" transform="translate(41.477685 20.6625)">Avaliação de governo por religião</text>
   <text style="fill: #222222; font: 700 24px 'Roboto', 'Arial', 'DejaVu Sans', sans-serif" transform="translate(219.90456 48)"/>
  </g>
 </g>
 <defs>
  <clipPath id="pa3f1dca231">
   <rect x="42.306875" y="52.033843" width="275.474032" height="278.229042"/>
  </clipPath>
  <clipPath id="pe1b9a5e67b">
   <rect x="354.532432" y="52.033843" width="275.474032" height="278.229042"/>
  </clipPath>
  <clipPath id="p0c4dcc3830">
   <rect x="666.757988" y="52.033843" width="275.474032" height="278.229042"/>
  </clipPath>
 </defs>
</svg>
