<?xml version="1.0" encoding="utf-8" standalone="no"?>
<!DOCTYPE svg PUBLIC "-//W3C//DTD SVG 1.1//EN"
  "http://www.w3.org/Graphics/SVG/1.1/DTD/svg11.dtd">
<svg xmlns:xlink="http://www.w3.org/1999/xlink" width="715.746875pt" height="366.734875pt" viewBox="0 0 715.746875 366.734875" xmlns="http://www.w3.org/2000/svg" version="1.1">
 <metadata>
  <rdf:RDF xmlns:dc="http://purl.org/dc/elements/1.1/" xmlns:cc="http://creativecommons.org/ns#" xmlns:rdf="http://www.w3.org/1999/02/22-rdf-syntax-ns#">
   <cc:Work>
    <dc:type rdf:resource="http://purl.org/dc/dcmitype/StillImage"/>
    <dc:date>2023-10-13T13:56:26.279785</dc:date>
    <dc:format>image/svg+xml</dc:format>
    <dc:creator>
     <cc:Agent>
      <dc:title>Matplotlib v3.8.0, https://matplotlib.org/</dc:title>
     </cc:Agent>
    </dc:creator>
   </cc:Work>
  </rdf:RDF>
 </metadata>
 <defs>
  <style type="text/css">*{stroke-linejoin: round; stroke-linecap: butt}</style>
 </defs>
 <g id="figure_1">
  <g id="patch_1">
   <path d="M 0 366.734875 
L 715.746875 366.734875 
L 715.746875 0 
L 0 0 
L 0 366.734875 
z
" style="fill: none"/>
  </g>
  <g id="axes_1">
   <g id="patch_2">
    <path d="M 42.306875 339.278 
L 713.586875 339.278 
L 713.586875 72.2425 
L 42.306875 72.2425 
L 42.306875 339.278 
z
" style="fill: none"/>
   </g>
   <g id="matplotlib.axis_1">
    <g id="xtick_1">
     <g id="line2d_1">
      <path d="M 94.424887 339.278 
L 94.424887 72.2425 
" clip-path="url(#p490dccc580)" style="fill: none; stroke-dasharray: 0.7,2.1; stroke-dashoffset: 0; stroke: #000000; stroke-opacity: 0.5; stroke-width: 0.7"/>
     </g>
     <g id="line2d_2"/>
     <g id="text_1">
      <text style="fill: #333333; font: 20px 'Roboto', 'Arial', 'DejaVu Sans', sans-serif; text-anchor: middle" x="94.424887" y="360.512375" transform="rotate(-0 94.424887 360.512375)">2022-12</text>
     </g>
    </g>
    <g id="xtick_2">
     <g id="line2d_3">
      <path d="M 223.677558 339.278 
L 223.677558 72.2425 
" clip-path="url(#p490dccc580)" style="fill: none; stroke-dasharray: 0.7,2.1; stroke-dashoffset: 0; stroke: #000000; stroke-opacity: 0.5; stroke-width: 0.7"/>
     </g>
     <g id="line2d_4"/>
     <g id="text_2">
      <text style="fill: #333333; font: 20px 'Roboto', 'Arial', 'DejaVu Sans', sans-serif; text-anchor: middle" x="223.677558" y="360.512375" transform="rotate(-0 223.677558 360.512375)">2023-02</text>
     </g>
    </g>
    <g id="xtick_3">
     <g id="line2d_5">
      <path d="M 346.676068 339.278 
L 346.676068 72.2425 
" clip-path="url(#p490dccc580)" style="fill: none; stroke-dasharray: 0.7,2.1; stroke-dashoffset: 0; stroke: #000000; stroke-opacity: 0.5; stroke-width: 0.7"/>
     </g>
     <g id="line2d_6"/>
     <g id="text_3">
      <text style="fill: #333333; font: 20px 'Roboto', 'Arial', 'DejaVu Sans', sans-serif; text-anchor: middle" x="346.676068" y="360.512375" transform="rotate(-0 346.676068 360.512375)">2023-04</text>
     </g>
    </g>
    <g id="xtick_4">
     <g id="line2d_7">
      <path d="M 473.844018 339.278 
L 473.844018 72.2425 
" clip-path="url(#p490dccc580)" style="fill: none; stroke-dasharray: 0.7,2.1; stroke-dashoffset: 0; stroke: #000000; stroke-opacity: 0.5; stroke-width: 0.7"/>
     </g>
     <g id="line2d_8"/>
     <g id="text_4">
      <text style="fill: #333333; font: 20px 'Roboto', 'Arial', 'DejaVu Sans', sans-serif; text-anchor: middle" x="473.844018" y="360.512375" transform="rotate(-0 473.844018 360.512375)">2023-06</text>
     </g>
    </g>
    <g id="xtick_5">
     <g id="line2d_9">
      <path d="M 601.011968 339.278 
L 601.011968 72.2425 
" clip-path="url(#p490dccc580)" style="fill: none; stroke-dasharray: 0.7,2.1; stroke-dashoffset: 0; stroke: #000000; stroke-opacity: 0.5; stroke-width: 0.7"/>
     </g>
     <g id="line2d_10"/>
     <g id="text_5">
      <text style="fill: #333333; font: 20px 'Roboto', 'Arial', 'DejaVu Sans', sans-serif; text-anchor: middle" x="601.011968" y="360.512375" transform="rotate(-0 601.011968 360.512375)">2023-08</text>
     </g>
    </g>
   </g>
   <g id="matplotlib.axis_2">
    <g id="ytick_1">
     <g id="line2d_11">
      <path d="M 42.306875 339.278 
L 713.586875 339.278 
" clip-path="url(#p490dccc580)" style="fill: none; stroke-dasharray: 0.7,2.1; stroke-dashoffset: 0; stroke: #000000; stroke-opacity: 0.5; stroke-width: 0.7"/>
     </g>
     <g id="text_6">
      <text style="fill: #333333; font: 20px 'Roboto', 'Arial', 'DejaVu Sans', sans-serif; text-anchor: end" x="39.306875" y="344.863937" transform="rotate(-0 39.306875 344.863937)">0  </text>
     </g>
    </g>
    <g id="ytick_2">
     <g id="line2d_12">
      <path d="M 42.306875 294.772083 
L 713.586875 294.772083 
" clip-path="url(#p490dccc580)" style="fill: none; stroke-dasharray: 0.7,2.1; stroke-dashoffset: 0; stroke: #000000; stroke-opacity: 0.5; stroke-width: 0.7"/>
     </g>
     <g id="text_7">
      <text style="fill: #333333; font: 20px 'Roboto', 'Arial', 'DejaVu Sans', sans-serif; text-anchor: end" x="39.306875" y="300.358021" transform="rotate(-0 39.306875 300.358021)">10  </text>
     </g>
    </g>
    <g id="ytick_3">
     <g id="line2d_13">
      <path d="M 42.306875 250.266167 
L 713.586875 250.266167 
" clip-path="url(#p490dccc580)" style="fill: none; stroke-dasharray: 0.7,2.1; stroke-dashoffset: 0; stroke: #000000; stroke-opacity: 0.5; stroke-width: 0.7"/>
     </g>
     <g id="text_8">
      <text style="fill: #333333; font: 20px 'Roboto', 'Arial', 'DejaVu Sans', sans-serif; text-anchor: end" x="39.306875" y="255.852104" transform="rotate(-0 39.306875 255.852104)">20  </text>
     </g>
    </g>
    <g id="ytick_4">
     <g id="line2d_14">
      <path d="M 42.306875 205.76025 
L 713.586875 205.76025 
" clip-path="url(#p490dccc580)" style="fill: none; stroke-dasharray: 0.7,2.1; stroke-dashoffset: 0; stroke: #000000; stroke-opacity: 0.5; stroke-width: 0.7"/>
     </g>
     <g id="text_9">
      <text style="fill: #333333; font: 20px 'Roboto', 'Arial', 'DejaVu Sans', sans-serif; text-anchor: end" x="39.306875" y="211.346187" transform="rotate(-0 39.306875 211.346187)">30  </text>
     </g>
    </g>
    <g id="ytick_5">
     <g id="line2d_15">
      <path d="M 42.306875 161.254333 
L 713.586875 161.254333 
" clip-path="url(#p490dccc580)" style="fill: none; stroke-dasharray: 0.7,2.1; stroke-dashoffset: 0; stroke: #000000; stroke-opacity: 0.5; stroke-width: 0.7"/>
     </g>
     <g id="text_10">
      <text style="fill: #333333; font: 20px 'Roboto', 'Arial', 'DejaVu Sans', sans-serif; text-anchor: end" x="39.306875" y="166.840271" transform="rotate(-0 39.306875 166.840271)">40  </text>
     </g>
    </g>
    <g id="ytick_6">
     <g id="line2d_16">
      <path d="M 42.306875 116.748417 
L 713.586875 116.748417 
" clip-path="url(#p490dccc580)" style="fill: none; stroke-dasharray: 0.7,2.1; stroke-dashoffset: 0; stroke: #000000; stroke-opacity: 0.5; stroke-width: 0.7"/>
     </g>
     <g id="text_11">
      <text style="fill: #333333; font: 20px 'Roboto', 'Arial', 'DejaVu Sans', sans-serif; text-anchor: end" x="39.306875" y="122.334354" transform="rotate(-0 39.306875 122.334354)">50  </text>
     </g>
    </g>
    <g id="ytick_7">
     <g id="line2d_17">
      <path d="M 42.306875 72.2425 
L 713.586875 72.2425 
" clip-path="url(#p490dccc580)" style="fill: none; stroke-dasharray: 0.7,2.1; stroke-dashoffset: 0; stroke: #000000; stroke-opacity: 0.5; stroke-width: 0.7"/>
     </g>
     <g id="text_12">
      <text style="fill: #333333; font: 20px 'Roboto', 'Arial', 'DejaVu Sans', sans-serif; text-anchor: end" x="39.306875" y="77.828437" transform="rotate(-0 39.306875 77.828437)">60%</text>
     </g>
    </g>
   </g>
   <g id="line2d_18">
    <path d="M 713.586875 161.699392 
L 673.977186 161.699392 
L 671.892465 162.144452 
L 653.129981 162.144452 
L 651.04526 161.699392 
L 640.621658 161.699392 
L 638.536937 161.254333 
L 628.113335 161.254333 
L 626.028614 160.809274 
L 613.520291 160.809274 
L 611.435571 160.364215 
L 601.011968 160.364215 
L 598.927248 159.919156 
L 584.334204 159.919156 
L 582.249484 159.474097 
L 571.825881 159.474097 
L 569.741161 159.029037 
L 557.232838 159.029037 
L 555.148117 158.583978 
L 546.809235 158.583978 
L 544.724515 158.138919 
L 540.555074 158.138919 
L 538.470353 157.69386 
L 528.046751 157.69386 
L 525.96203 157.248801 
L 517.623148 157.248801 
L 515.538428 156.803742 
L 507.199546 156.803742 
L 505.114825 156.358682 
L 494.691223 156.358682 
L 492.606502 155.913623 
L 484.26762 155.913623 
L 482.1829 155.468564 
L 471.759297 155.468564 
L 469.674577 155.023505 
L 463.420415 155.023505 
L 461.335695 154.578446 
L 452.996813 154.578446 
L 450.912092 154.133387 
L 444.657931 154.133387 
L 442.57321 153.688327 
L 432.149608 153.688327 
L 430.064887 153.243268 
L 423.810726 153.243268 
L 421.726005 152.798209 
L 419.641285 153.243268 
L 415.471844 153.243268 
L 413.387123 153.688327 
L 409.217682 153.688327 
L 407.132962 154.133387 
L 405.048241 154.133387 
L 402.963521 154.578446 
L 400.8788 154.578446 
L 398.79408 155.023505 
L 394.624639 155.023505 
L 392.539918 155.468564 
L 390.455198 155.468564 
L 388.370477 155.913623 
L 386.285757 155.913623 
L 384.201036 156.358682 
L 380.031595 156.358682 
L 377.946875 156.803742 
L 373.777434 156.803742 
L 371.692714 157.248801 
L 369.607993 157.248801 
L 367.523273 157.69386 
L 363.353832 157.69386 
L 361.269111 158.138919 
L 357.09967 158.138919 
L 355.01495 158.583978 
L 352.930229 158.583978 
L 350.845509 159.029037 
L 346.676068 159.029037 
L 344.591347 159.474097 
L 340.421906 159.474097 
L 338.337186 159.919156 
L 336.252465 159.919156 
L 334.167745 160.364215 
L 329.998304 160.364215 
L 327.913583 160.809274 
L 325.828863 160.809274 
L 323.744142 161.254333 
L 317.489981 161.254333 
L 315.40526 161.699392 
L 311.235819 161.699392 
L 309.151099 162.144452 
L 307.066378 162.144452 
L 304.981658 162.589511 
L 296.642776 162.589511 
L 294.558055 163.03457 
L 284.134453 163.03457 
L 282.049732 163.479629 
L 271.62613 163.479629 
L 269.541409 163.924688 
L 259.117807 163.924688 
L 257.033086 164.369747 
L 244.524763 164.369747 
L 242.440043 164.814807 
L 236.185881 164.814807 
L 234.101161 165.259866 
L 223.677558 165.259866 
L 221.592838 165.704925 
L 211.169235 165.704925 
L 209.084515 166.149984 
L 198.660912 166.149984 
L 196.576192 166.595043 
L 184.067869 166.595043 
L 181.983148 167.040102 
L 173.644266 167.040102 
L 171.559546 167.485162 
L 161.135943 167.485162 
L 159.051223 167.930221 
L 152.797061 167.930221 
L 150.712341 168.37528 
L 140.288738 168.37528 
L 138.204018 168.820339 
L 127.780415 168.820339 
L 125.695695 169.265398 
L 111.102651 169.265398 
L 109.017931 169.710457 
L 94.424887 169.710457 
L 92.340167 169.265398 
L 90.255446 169.265398 
L 88.170726 168.820339 
L 86.086005 168.820339 
L 84.001285 168.37528 
L 81.916564 168.37528 
L 79.831844 167.930221 
L 77.747123 167.930221 
L 75.662403 167.485162 
L 73.577682 167.485162 
L 71.492962 167.040102 
L 69.408241 167.040102 
L 67.323521 166.595043 
L 65.2388 166.595043 
L 63.15408 166.149984 
L 61.069359 166.149984 
L 58.984639 165.704925 
L 56.899918 165.704925 
L 54.815198 165.259866 
L 52.730477 165.259866 
L 50.645757 164.814807 
L 48.561036 164.814807 
L 46.476316 164.369747 
L 44.391595 164.369747 
L 42.306875 163.924688 
L 42.306875 163.924688 
" clip-path="url(#p490dccc580)" style="fill: none; stroke: #bcbd22; stroke-width: 4"/>
   </g>
   <g id="line2d_19">
    <path d="M 713.586875 275.18948 
L 646.875819 275.18948 
L 644.791099 274.744421 
L 630.198055 274.744421 
L 628.113335 274.299362 
L 609.35085 274.299362 
L 607.26613 273.854302 
L 592.673086 273.854302 
L 590.588366 273.409243 
L 578.080043 273.409243 
L 575.995322 272.964184 
L 561.402279 272.964184 
L 559.317558 272.519125 
L 542.639794 272.519125 
L 540.555074 272.074066 
L 528.046751 272.074066 
L 525.96203 271.629007 
L 515.538428 271.629007 
L 513.453707 271.183947 
L 498.860664 271.183947 
L 496.775943 270.738888 
L 478.013459 270.738888 
L 475.928738 270.293829 
L 465.505136 270.293829 
L 463.420415 269.84877 
L 446.742651 269.84877 
L 444.657931 269.403711 
L 436.319049 269.403711 
L 434.234328 268.958652 
L 400.8788 268.958652 
L 398.79408 269.403711 
L 382.116316 269.403711 
L 380.031595 269.84877 
L 357.09967 269.84877 
L 355.01495 270.293829 
L 336.252465 270.293829 
L 334.167745 270.738888 
L 317.489981 270.738888 
L 315.40526 271.183947 
L 294.558055 271.183947 
L 292.473335 271.629007 
L 277.880291 271.629007 
L 275.795571 272.074066 
L 259.117807 272.074066 
L 257.033086 272.519125 
L 242.440043 272.519125 
L 240.355322 272.964184 
L 227.846999 272.964184 
L 225.762279 273.409243 
L 209.084515 273.409243 
L 206.999794 273.854302 
L 192.406751 273.854302 
L 190.32203 274.299362 
L 177.813707 274.299362 
L 175.728987 274.744421 
L 154.881782 274.744421 
L 152.797061 275.18948 
L 142.373459 275.18948 
L 140.288738 275.634539 
L 127.780415 275.634539 
L 125.695695 276.079598 
L 115.272092 276.079598 
L 113.187372 276.524657 
L 102.763769 276.524657 
L 100.679049 276.969717 
L 98.594328 276.969717 
L 96.509608 276.524657 
L 77.747123 276.524657 
L 75.662403 276.079598 
L 58.984639 276.079598 
L 56.899918 275.634539 
L 42.306875 275.634539 
L 42.306875 275.634539 
" clip-path="url(#p490dccc580)" style="fill: none; stroke: #ff5a5f; stroke-width: 4"/>
   </g>
   <g id="line2d_20">
    <path d="M 713.586875 188.848002 
L 711.502155 188.848002 
L 709.417434 189.293061 
L 707.332714 189.293061 
L 705.247993 188.848002 
L 703.163273 189.293061 
L 701.078552 188.848002 
L 651.04526 188.848002 
L 648.96054 189.293061 
L 609.35085 189.293061 
L 607.26613 189.73812 
L 605.181409 189.293061 
L 603.096689 189.73812 
L 582.249484 189.73812 
L 580.164763 190.183179 
L 553.063397 190.183179 
L 550.978676 190.628238 
L 536.385633 190.628238 
L 534.300912 191.073297 
L 515.538428 191.073297 
L 513.453707 191.518357 
L 498.860664 191.518357 
L 496.775943 191.963416 
L 478.013459 191.963416 
L 475.928738 192.408475 
L 455.081533 192.408475 
L 452.996813 192.853534 
L 442.57321 192.853534 
L 440.48849 193.298593 
L 430.064887 193.298593 
L 427.980167 193.743652 
L 419.641285 193.743652 
L 417.556564 193.298593 
L 415.471844 193.298593 
L 413.387123 192.853534 
L 409.217682 192.853534 
L 407.132962 192.408475 
L 405.048241 192.408475 
L 400.8788 191.518357 
L 396.709359 191.518357 
L 394.624639 191.073297 
L 392.539918 191.073297 
L 390.455198 190.628238 
L 388.370477 190.628238 
L 386.285757 190.183179 
L 384.201036 190.183179 
L 382.116316 189.73812 
L 380.031595 189.73812 
L 377.946875 189.293061 
L 373.777434 189.293061 
L 371.692714 188.848002 
L 369.607993 188.848002 
L 367.523273 188.402942 
L 365.438552 188.402942 
L 363.353832 187.957883 
L 361.269111 187.957883 
L 359.184391 187.512824 
L 355.01495 187.512824 
L 352.930229 187.067765 
L 350.845509 187.067765 
L 348.760788 186.622706 
L 346.676068 186.622706 
L 344.591347 186.177647 
L 342.506627 186.177647 
L 340.421906 185.732587 
L 338.337186 185.732587 
L 336.252465 185.287528 
L 334.167745 185.287528 
L 332.083024 184.842469 
L 327.913583 184.842469 
L 323.744142 183.952351 
L 319.574701 183.952351 
L 317.489981 183.507292 
L 315.40526 183.507292 
L 313.32054 183.062232 
L 311.235819 183.062232 
L 309.151099 182.617173 
L 304.981658 182.617173 
L 302.896937 182.172114 
L 300.812217 182.172114 
L 298.727496 181.727055 
L 294.558055 181.727055 
L 292.473335 181.281996 
L 290.388614 181.281996 
L 288.303894 180.836937 
L 284.134453 180.836937 
L 282.049732 180.391877 
L 279.965012 180.391877 
L 277.880291 179.946818 
L 273.71085 179.946818 
L 271.62613 179.501759 
L 267.456689 179.501759 
L 265.371968 179.0567 
L 263.287248 179.0567 
L 261.202527 178.611641 
L 257.033086 178.611641 
L 254.948366 178.166582 
L 252.863645 178.166582 
L 250.778925 177.721522 
L 246.609484 177.721522 
L 244.524763 177.276463 
L 242.440043 177.276463 
L 240.355322 176.831404 
L 236.185881 176.831404 
L 234.101161 176.386345 
L 229.93172 176.386345 
L 227.846999 175.941286 
L 225.762279 175.941286 
L 223.677558 175.496227 
L 219.508117 175.496227 
L 217.423397 175.051167 
L 215.338676 175.051167 
L 213.253956 174.606108 
L 211.169235 174.606108 
L 209.084515 174.161049 
L 204.915074 174.161049 
L 202.830353 173.71599 
L 200.745633 173.71599 
L 198.660912 173.270931 
L 194.491471 173.270931 
L 192.406751 172.825872 
L 190.32203 172.825872 
L 188.23731 172.380812 
L 186.152589 172.380812 
L 184.067869 171.935753 
L 179.898428 171.935753 
L 177.813707 171.490694 
L 175.728987 171.490694 
L 173.644266 171.045635 
L 171.559546 171.045635 
L 169.474825 170.600576 
L 165.305384 170.600576 
L 163.220664 170.155517 
L 159.051223 170.155517 
L 156.966502 169.710457 
L 154.881782 169.710457 
L 152.797061 169.265398 
L 150.712341 169.265398 
L 148.62762 168.820339 
L 146.5429 168.820339 
L 144.458179 168.37528 
L 140.288738 168.37528 
L 138.204018 167.930221 
L 136.119297 167.930221 
L 134.034577 167.485162 
L 131.949856 167.485162 
L 129.865136 167.040102 
L 127.780415 167.040102 
L 125.695695 166.595043 
L 121.526254 166.595043 
L 119.441533 166.149984 
L 117.356813 166.149984 
L 115.272092 165.704925 
L 111.102651 165.704925 
L 109.017931 165.259866 
L 106.93321 165.259866 
L 104.84849 164.814807 
L 102.763769 164.814807 
L 100.679049 164.369747 
L 92.340167 164.369747 
L 90.255446 164.814807 
L 81.916564 164.814807 
L 79.831844 165.259866 
L 71.492962 165.259866 
L 69.408241 165.704925 
L 58.984639 165.704925 
L 56.899918 166.149984 
L 48.561036 166.149984 
L 46.476316 166.595043 
L 42.306875 166.595043 
L 42.306875 166.595043 
" clip-path="url(#p490dccc580)" style="fill: none; stroke: #2196f3; stroke-width: 4"/>
   </g>
   <g id="line2d_21">
    <defs>
     <path id="m54e3253b67" d="M 0 2.5 
C 0.663008 2.5 1.29895 2.236584 1.767767 1.767767 
C 2.236584 1.29895 2.5 0.663008 2.5 0 
C 2.5 -0.663008 2.236584 -1.29895 1.767767 -1.767767 
C 1.29895 -2.236584 0.663008 -2.5 0 -2.5 
C -0.663008 -2.5 -1.29895 -2.236584 -1.767767 -1.767767 
C -2.236584 -1.29895 -2.5 -0.663008 -2.5 0 
C -2.5 0.663008 -2.236584 1.29895 -1.767767 1.767767 
C -1.29895 2.236584 -0.663008 2.5 0 2.5 
z
" style="stroke: #2196f3; stroke-opacity: 0.5; stroke-width: 2"/>
    </defs>
    <g clip-path="url(#p490dccc580)">
     <use xlink:href="#m54e3253b67" x="301.854577" y="177.721522" style="fill: #2196f3; fill-opacity: 0.5; stroke: #2196f3; stroke-opacity: 0.5; stroke-width: 2"/>
     <use xlink:href="#m54e3253b67" x="658.341782" y="184.842469" style="fill: #2196f3; fill-opacity: 0.5; stroke: #2196f3; stroke-opacity: 0.5; stroke-width: 2"/>
     <use xlink:href="#m54e3253b67" x="421.726005" y="205.76025" style="fill: #2196f3; fill-opacity: 0.5; stroke: #2196f3; stroke-opacity: 0.5; stroke-width: 2"/>
     <use xlink:href="#m54e3253b67" x="98.594328" y="164.369747" style="fill: #2196f3; fill-opacity: 0.5; stroke: #2196f3; stroke-opacity: 0.5; stroke-width: 2"/>
    </g>
   </g>
   <g id="line2d_22">
    <defs>
     <path id="m58d9726b76" d="M 0 2.5 
C 0.663008 2.5 1.29895 2.236584 1.767767 1.767767 
C 2.236584 1.29895 2.5 0.663008 2.5 0 
C 2.5 -0.663008 2.236584 -1.29895 1.767767 -1.767767 
C 1.29895 -2.236584 0.663008 -2.5 0 -2.5 
C -0.663008 -2.5 -1.29895 -2.236584 -1.767767 -1.767767 
C -2.236584 -1.29895 -2.5 -0.663008 -2.5 0 
C -2.5 0.663008 -2.236584 1.29895 -1.767767 1.767767 
C -1.29895 2.236584 -0.663008 2.5 0 2.5 
z
" style="stroke: #bcbd22; stroke-opacity: 0.5; stroke-width: 2"/>
    </defs>
    <g clip-path="url(#p490dccc580)">
     <use xlink:href="#m58d9726b76" x="301.854577" y="171.045635" style="fill: #bcbd22; fill-opacity: 0.5; stroke: #bcbd22; stroke-opacity: 0.5; stroke-width: 2"/>
     <use xlink:href="#m58d9726b76" x="658.341782" y="170.600576" style="fill: #bcbd22; fill-opacity: 0.5; stroke: #bcbd22; stroke-opacity: 0.5; stroke-width: 2"/>
     <use xlink:href="#m58d9726b76" x="421.726005" y="134.550783" style="fill: #bcbd22; fill-opacity: 0.5; stroke: #bcbd22; stroke-opacity: 0.5; stroke-width: 2"/>
     <use xlink:href="#m58d9726b76" x="98.594328" y="156.803742" style="fill: #bcbd22; fill-opacity: 0.5; stroke: #bcbd22; stroke-opacity: 0.5; stroke-width: 2"/>
    </g>
   </g>
   <g id="line2d_23">
    <defs>
     <path id="m3b8bd49951" d="M 0 2.5 
C 0.663008 2.5 1.29895 2.236584 1.767767 1.767767 
C 2.236584 1.29895 2.5 0.663008 2.5 0 
C 2.5 -0.663008 2.236584 -1.29895 1.767767 -1.767767 
C 1.29895 -2.236584 0.663008 -2.5 0 -2.5 
C -0.663008 -2.5 -1.29895 -2.236584 -1.767767 -1.767767 
C -2.236584 -1.29895 -2.5 -0.663008 -2.5 0 
C -2.5 0.663008 -2.236584 1.29895 -1.767767 1.767767 
C -1.29895 2.236584 -0.663008 2.5 0 2.5 
z
" style="stroke: #ff5a5f; stroke-opacity: 0.5; stroke-width: 2"/>
    </defs>
    <g clip-path="url(#p490dccc580)">
     <use xlink:href="#m3b8bd49951" x="301.854577" y="263.172882" style="fill: #ff5a5f; fill-opacity: 0.5; stroke: #ff5a5f; stroke-opacity: 0.5; stroke-width: 2"/>
     <use xlink:href="#m3b8bd49951" x="658.341782" y="287.651137" style="fill: #ff5a5f; fill-opacity: 0.5; stroke: #ff5a5f; stroke-opacity: 0.5; stroke-width: 2"/>
     <use xlink:href="#m3b8bd49951" x="421.726005" y="263.617942" style="fill: #ff5a5f; fill-opacity: 0.5; stroke: #ff5a5f; stroke-opacity: 0.5; stroke-width: 2"/>
     <use xlink:href="#m3b8bd49951" x="98.594328" y="273.409243" style="fill: #ff5a5f; fill-opacity: 0.5; stroke: #ff5a5f; stroke-opacity: 0.5; stroke-width: 2"/>
    </g>
   </g>
   <g id="line2d_24">
    <path d="M 42.306875 339.278 
L 713.586875 339.278 
" clip-path="url(#p490dccc580)" style="fill: none; stroke: #000000; stroke-opacity: 0.7; stroke-width: 4"/>
   </g>
   <g id="text_13">
    <text style="fill: #222222; font: 700 26px 'Roboto', 'Arial', 'DejaVu Sans', sans-serif" transform="translate(42.306875 22.626875)">Avaliação da gestão de Fuad Noman (PSD)</text>
    <text style="fill: #222222; font: 700 26px 'Roboto', 'Arial', 'DejaVu Sans', sans-serif" transform="translate(42.306875 52.2425)"/>
   </g>
   <g id="legend_1">
    <g id="patch_3">
     <path d="M 475.923594 109.369844 
L 703.086875 109.369844 
Q 706.086875 109.369844 706.086875 106.369844 
L 706.086875 82.7425 
Q 706.086875 79.7425 703.086875 79.7425 
L 475.923594 79.7425 
Q 472.923594 79.7425 472.923594 82.7425 
L 472.923594 106.369844 
Q 472.923594 109.369844 475.923594 109.369844 
z
" style="fill: #ffffff; opacity: 0.7; stroke: #ffffff; stroke-width: 0.5; stroke-linejoin: miter"/>
    </g>
    <g id="line2d_25">
     <path d="M 480.423594 93.868281 
L 484.173594 93.868281 
L 487.923594 93.868281 
" style="fill: none; stroke: #2196f3; stroke-width: 4"/>
    </g>
    <g id="text_14">
     <text style="fill: #222222; font: 15px 'Roboto', 'Arial', 'DejaVu Sans', sans-serif; text-anchor: start" x="495.423594" y="98.668281" transform="rotate(-0 495.423594 98.668281)">positiva</text>
    </g>
    <g id="line2d_26">
     <path d="M 556.115 93.868281 
L 559.865 93.868281 
L 563.615 93.868281 
" style="fill: none; stroke: #bcbd22; stroke-width: 4"/>
    </g>
    <g id="text_15">
     <text style="fill: #222222; font: 15px 'Roboto', 'Arial', 'DejaVu Sans', sans-serif; text-anchor: start" x="571.115" y="98.668281" transform="rotate(-0 571.115 98.668281)">regular</text>
    </g>
    <g id="line2d_27">
     <path d="M 625.92125 93.868281 
L 629.67125 93.868281 
L 633.42125 93.868281 
" style="fill: none; stroke: #ff5a5f; stroke-width: 4"/>
    </g>
    <g id="text_16">
     <text style="fill: #222222; font: 15px 'Roboto', 'Arial', 'DejaVu Sans', sans-serif; text-anchor: start" x="640.92125" y="98.668281" transform="rotate(-0 640.92125 98.668281)">negativa</text>
    </g>
   </g>
  </g>
 </g>
 <defs>
  <clipPath id="p490dccc580">
   <rect x="42.306875" y="72.2425" width="671.28" height="267.0355"/>
  </clipPath>
 </defs>
</svg>
