<?xml version="1.0" encoding="utf-8" standalone="no"?>
<!DOCTYPE svg PUBLIC "-//W3C//DTD SVG 1.1//EN"
  "http://www.w3.org/Graphics/SVG/1.1/DTD/svg11.dtd">
<svg xmlns:xlink="http://www.w3.org/1999/xlink" width="715.746875pt" height="366.734875pt" viewBox="0 0 715.746875 366.734875" xmlns="http://www.w3.org/2000/svg" version="1.1">
 <metadata>
  <rdf:RDF xmlns:dc="http://purl.org/dc/elements/1.1/" xmlns:cc="http://creativecommons.org/ns#" xmlns:rdf="http://www.w3.org/1999/02/22-rdf-syntax-ns#">
   <cc:Work>
    <dc:type rdf:resource="http://purl.org/dc/dcmitype/StillImage"/>
    <dc:date>2023-10-16T20:36:51.978529</dc:date>
    <dc:format>image/svg+xml</dc:format>
    <dc:creator>
     <cc:Agent>
      <dc:title>Matplotlib v3.8.0, https://matplotlib.org/</dc:title>
     </cc:Agent>
    </dc:creator>
   </cc:Work>
  </rdf:RDF>
 </metadata>
 <defs>
  <style type="text/css">*{stroke-linejoin: round; stroke-linecap: butt}</style>
 </defs>
 <g id="figure_1">
  <g id="patch_1">
   <path d="M 0 366.734875 
L 715.746875 366.734875 
L 715.746875 0 
L 0 0 
L 0 366.734875 
z
" style="fill: none"/>
  </g>
  <g id="axes_1">
   <g id="patch_2">
    <path d="M 42.306875 339.278 
L 713.586875 339.278 
L 713.586875 72.2425 
L 42.306875 72.2425 
L 42.306875 339.278 
z
" style="fill: none"/>
   </g>
   <g id="matplotlib.axis_1">
    <g id="xtick_1">
     <g id="line2d_1">
      <path d="M 95.752735 339.278 
L 95.752735 72.2425 
" clip-path="url(#p6f8ab3de85)" style="fill: none; stroke-dasharray: 0.7,2.1; stroke-dashoffset: 0; stroke: #000000; stroke-opacity: 0.5; stroke-width: 0.7"/>
     </g>
     <g id="line2d_2"/>
     <g id="text_1">
      <text style="fill: #333333; font: 20px 'Roboto', 'Arial', 'DejaVu Sans', sans-serif; text-anchor: middle" x="95.752735" y="360.512375" transform="rotate(-0 95.752735 360.512375)">2022-12</text>
     </g>
    </g>
    <g id="xtick_2">
     <g id="line2d_3">
      <path d="M 228.298467 339.278 
L 228.298467 72.2425 
" clip-path="url(#p6f8ab3de85)" style="fill: none; stroke-dasharray: 0.7,2.1; stroke-dashoffset: 0; stroke: #000000; stroke-opacity: 0.5; stroke-width: 0.7"/>
     </g>
     <g id="line2d_4"/>
     <g id="text_2">
      <text style="fill: #333333; font: 20px 'Roboto', 'Arial', 'DejaVu Sans', sans-serif; text-anchor: middle" x="228.298467" y="360.512375" transform="rotate(-0 228.298467 360.512375)">2023-02</text>
     </g>
    </g>
    <g id="xtick_3">
     <g id="line2d_5">
      <path d="M 354.430697 339.278 
L 354.430697 72.2425 
" clip-path="url(#p6f8ab3de85)" style="fill: none; stroke-dasharray: 0.7,2.1; stroke-dashoffset: 0; stroke: #000000; stroke-opacity: 0.5; stroke-width: 0.7"/>
     </g>
     <g id="line2d_6"/>
     <g id="text_3">
      <text style="fill: #333333; font: 20px 'Roboto', 'Arial', 'DejaVu Sans', sans-serif; text-anchor: middle" x="354.430697" y="360.512375" transform="rotate(-0 354.430697 360.512375)">2023-04</text>
     </g>
    </g>
    <g id="xtick_4">
     <g id="line2d_7">
      <path d="M 484.838595 339.278 
L 484.838595 72.2425 
" clip-path="url(#p6f8ab3de85)" style="fill: none; stroke-dasharray: 0.7,2.1; stroke-dashoffset: 0; stroke: #000000; stroke-opacity: 0.5; stroke-width: 0.7"/>
     </g>
     <g id="line2d_8"/>
     <g id="text_4">
      <text style="fill: #333333; font: 20px 'Roboto', 'Arial', 'DejaVu Sans', sans-serif; text-anchor: middle" x="484.838595" y="360.512375" transform="rotate(-0 484.838595 360.512375)">2023-06</text>
     </g>
    </g>
    <g id="xtick_5">
     <g id="line2d_9">
      <path d="M 615.246493 339.278 
L 615.246493 72.2425 
" clip-path="url(#p6f8ab3de85)" style="fill: none; stroke-dasharray: 0.7,2.1; stroke-dashoffset: 0; stroke: #000000; stroke-opacity: 0.5; stroke-width: 0.7"/>
     </g>
     <g id="line2d_10"/>
     <g id="text_5">
      <text style="fill: #333333; font: 20px 'Roboto', 'Arial', 'DejaVu Sans', sans-serif; text-anchor: middle" x="615.246493" y="360.512375" transform="rotate(-0 615.246493 360.512375)">2023-08</text>
     </g>
    </g>
   </g>
   <g id="matplotlib.axis_2">
    <g id="ytick_1">
     <g id="line2d_11">
      <path d="M 42.306875 339.278 
L 713.586875 339.278 
" clip-path="url(#p6f8ab3de85)" style="fill: none; stroke-dasharray: 0.7,2.1; stroke-dashoffset: 0; stroke: #000000; stroke-opacity: 0.5; stroke-width: 0.7"/>
     </g>
     <g id="text_6">
      <text style="fill: #333333; font: 20px 'Roboto', 'Arial', 'DejaVu Sans', sans-serif; text-anchor: end" x="39.306875" y="344.863937" transform="rotate(-0 39.306875 344.863937)">0  </text>
     </g>
    </g>
    <g id="ytick_2">
     <g id="line2d_12">
      <path d="M 42.306875 294.772083 
L 713.586875 294.772083 
" clip-path="url(#p6f8ab3de85)" style="fill: none; stroke-dasharray: 0.7,2.1; stroke-dashoffset: 0; stroke: #000000; stroke-opacity: 0.5; stroke-width: 0.7"/>
     </g>
     <g id="text_7">
      <text style="fill: #333333; font: 20px 'Roboto', 'Arial', 'DejaVu Sans', sans-serif; text-anchor: end" x="39.306875" y="300.358021" transform="rotate(-0 39.306875 300.358021)">10  </text>
     </g>
    </g>
    <g id="ytick_3">
     <g id="line2d_13">
      <path d="M 42.306875 250.266167 
L 713.586875 250.266167 
" clip-path="url(#p6f8ab3de85)" style="fill: none; stroke-dasharray: 0.7,2.1; stroke-dashoffset: 0; stroke: #000000; stroke-opacity: 0.5; stroke-width: 0.7"/>
     </g>
     <g id="text_8">
      <text style="fill: #333333; font: 20px 'Roboto', 'Arial', 'DejaVu Sans', sans-serif; text-anchor: end" x="39.306875" y="255.852104" transform="rotate(-0 39.306875 255.852104)">20  </text>
     </g>
    </g>
    <g id="ytick_4">
     <g id="line2d_14">
      <path d="M 42.306875 205.76025 
L 713.586875 205.76025 
" clip-path="url(#p6f8ab3de85)" style="fill: none; stroke-dasharray: 0.7,2.1; stroke-dashoffset: 0; stroke: #000000; stroke-opacity: 0.5; stroke-width: 0.7"/>
     </g>
     <g id="text_9">
      <text style="fill: #333333; font: 20px 'Roboto', 'Arial', 'DejaVu Sans', sans-serif; text-anchor: end" x="39.306875" y="211.346187" transform="rotate(-0 39.306875 211.346187)">30  </text>
     </g>
    </g>
    <g id="ytick_5">
     <g id="line2d_15">
      <path d="M 42.306875 161.254333 
L 713.586875 161.254333 
" clip-path="url(#p6f8ab3de85)" style="fill: none; stroke-dasharray: 0.7,2.1; stroke-dashoffset: 0; stroke: #000000; stroke-opacity: 0.5; stroke-width: 0.7"/>
     </g>
     <g id="text_10">
      <text style="fill: #333333; font: 20px 'Roboto', 'Arial', 'DejaVu Sans', sans-serif; text-anchor: end" x="39.306875" y="166.840271" transform="rotate(-0 39.306875 166.840271)">40  </text>
     </g>
    </g>
    <g id="ytick_6">
     <g id="line2d_16">
      <path d="M 42.306875 116.748417 
L 713.586875 116.748417 
" clip-path="url(#p6f8ab3de85)" style="fill: none; stroke-dasharray: 0.7,2.1; stroke-dashoffset: 0; stroke: #000000; stroke-opacity: 0.5; stroke-width: 0.7"/>
     </g>
     <g id="text_11">
      <text style="fill: #333333; font: 20px 'Roboto', 'Arial', 'DejaVu Sans', sans-serif; text-anchor: end" x="39.306875" y="122.334354" transform="rotate(-0 39.306875 122.334354)">50  </text>
     </g>
    </g>
    <g id="ytick_7">
     <g id="line2d_17">
      <path d="M 42.306875 72.2425 
L 713.586875 72.2425 
" clip-path="url(#p6f8ab3de85)" style="fill: none; stroke-dasharray: 0.7,2.1; stroke-dashoffset: 0; stroke: #000000; stroke-opacity: 0.5; stroke-width: 0.7"/>
     </g>
     <g id="text_12">
      <text style="fill: #333333; font: 20px 'Roboto', 'Arial', 'DejaVu Sans', sans-serif; text-anchor: end" x="39.306875" y="77.828437" transform="rotate(-0 39.306875 77.828437)">60%</text>
     </g>
    </g>
   </g>
   <g id="line2d_18">
    <path d="M 713.586875 201.309658 
L 670.830187 201.309658 
L 668.692353 201.754717 
L 666.554518 201.309658 
L 664.416684 201.754717 
L 662.27885 201.309658 
L 655.865346 201.309658 
L 653.727512 201.754717 
L 651.589678 201.754717 
L 649.451843 202.199777 
L 647.314009 202.199777 
L 645.176174 202.644836 
L 640.900506 202.644836 
L 638.762671 203.089895 
L 636.624837 203.089895 
L 634.487002 203.534954 
L 630.211334 203.534954 
L 628.073499 203.980013 
L 625.935665 203.980013 
L 623.79783 204.425072 
L 621.659996 204.425072 
L 619.522162 204.870132 
L 615.246493 204.870132 
L 613.108658 205.315191 
L 610.970824 205.315191 
L 608.83299 205.76025 
L 606.695155 205.76025 
L 604.557321 206.205309 
L 602.419486 206.205309 
L 600.281652 206.650368 
L 598.143818 206.650368 
L 596.005983 207.095427 
L 591.730314 207.095427 
L 589.59248 207.540487 
L 587.454646 207.540487 
L 585.316811 207.985546 
L 583.178977 207.985546 
L 581.041143 208.430605 
L 576.765474 208.430605 
L 574.627639 208.875664 
L 570.351971 208.875664 
L 568.214136 209.320723 
L 566.076302 209.320723 
L 563.938467 209.765782 
L 559.662799 209.765782 
L 557.524964 210.210842 
L 555.38713 210.210842 
L 553.249295 210.655901 
L 551.111461 210.655901 
L 548.973627 211.10096 
L 544.697958 211.10096 
L 542.560123 211.546019 
L 540.422289 211.546019 
L 538.284455 211.991078 
L 536.14662 211.991078 
L 534.008786 212.436137 
L 529.733117 212.436137 
L 527.595283 212.881197 
L 525.457448 212.881197 
L 523.319614 213.326256 
L 521.181779 213.326256 
L 519.043945 213.771315 
L 516.906111 213.771315 
L 514.768276 214.216374 
L 510.492607 214.216374 
L 508.354773 214.661433 
L 506.216939 214.661433 
L 504.079104 215.106492 
L 499.803436 215.106492 
L 497.665601 215.551552 
L 493.389932 215.551552 
L 491.252098 215.996611 
L 489.114264 215.996611 
L 486.976429 216.44167 
L 484.838595 216.44167 
L 482.70076 216.886729 
L 478.425092 216.886729 
L 476.287257 217.331788 
L 474.149423 217.331788 
L 472.011588 217.776847 
L 469.873754 217.776847 
L 467.73592 218.221907 
L 463.460251 218.221907 
L 461.322416 218.666966 
L 457.046748 218.666966 
L 454.908913 219.112025 
L 452.771079 219.112025 
L 450.633244 219.557084 
L 446.357576 219.557084 
L 444.219741 220.002143 
L 439.944072 220.002143 
L 437.806238 220.447202 
L 433.530569 220.447202 
L 431.392735 220.892262 
L 429.2549 220.892262 
L 427.117066 221.337321 
L 422.841397 221.337321 
L 420.703563 221.78238 
L 416.427894 221.78238 
L 414.29006 222.227439 
L 412.152225 222.227439 
L 410.014391 222.672498 
L 405.738722 222.672498 
L 403.600888 223.117557 
L 399.325219 223.117557 
L 397.187385 223.562617 
L 392.911716 223.562617 
L 390.773881 224.007676 
L 386.498213 224.007676 
L 384.360378 224.452735 
L 382.222544 224.452735 
L 380.084709 224.897794 
L 375.809041 224.897794 
L 373.671206 225.342853 
L 371.533372 225.342853 
L 369.395537 225.787912 
L 365.119869 225.787912 
L 362.982034 226.232972 
L 360.8442 225.787912 
L 356.568531 225.787912 
L 354.430697 225.342853 
L 348.017193 225.342853 
L 345.879359 224.897794 
L 343.741525 224.897794 
L 341.60369 224.452735 
L 335.190187 224.452735 
L 333.052353 224.007676 
L 330.914518 224.007676 
L 328.776684 223.562617 
L 324.501015 223.562617 
L 322.363181 223.117557 
L 320.225346 223.117557 
L 318.087512 222.672498 
L 313.811843 222.672498 
L 311.674009 222.227439 
L 309.536174 222.227439 
L 307.39834 221.78238 
L 303.122671 221.78238 
L 300.984837 221.337321 
L 296.709168 221.337321 
L 294.571334 220.892262 
L 290.295665 220.892262 
L 288.15783 220.447202 
L 286.019996 220.447202 
L 283.882162 220.002143 
L 281.744327 220.002143 
L 279.606493 219.557084 
L 275.330824 219.557084 
L 273.19299 219.112025 
L 271.055155 219.112025 
L 268.917321 218.666966 
L 266.779486 218.666966 
L 264.641652 218.221907 
L 260.365983 218.221907 
L 258.228149 217.776847 
L 256.090314 217.776847 
L 253.95248 217.331788 
L 251.814646 217.331788 
L 249.676811 216.886729 
L 245.401143 216.886729 
L 243.263308 216.44167 
L 238.987639 216.44167 
L 236.849805 215.996611 
L 234.711971 215.996611 
L 232.574136 215.551552 
L 230.436302 215.551552 
L 228.298467 215.106492 
L 226.160633 215.106492 
L 224.022799 214.661433 
L 219.74713 214.661433 
L 217.609295 214.216374 
L 213.333627 214.216374 
L 211.195792 213.771315 
L 209.057958 213.771315 
L 206.920123 213.326256 
L 204.782289 213.326256 
L 202.644455 212.881197 
L 198.368786 212.881197 
L 196.230951 212.436137 
L 191.955283 212.436137 
L 189.817448 211.991078 
L 187.679614 211.991078 
L 185.541779 211.546019 
L 181.266111 211.546019 
L 179.128276 211.10096 
L 176.990442 211.10096 
L 174.852607 210.655901 
L 170.576939 210.655901 
L 168.439104 210.210842 
L 166.30127 210.210842 
L 164.163436 209.765782 
L 162.025601 209.765782 
L 159.887767 209.320723 
L 155.612098 209.320723 
L 153.474264 208.875664 
L 151.336429 208.875664 
L 149.198595 208.430605 
L 147.06076 208.430605 
L 144.922926 207.985546 
L 140.647257 207.985546 
L 138.509423 207.540487 
L 136.371588 207.540487 
L 134.233754 207.095427 
L 132.09592 207.095427 
L 129.958085 206.650368 
L 125.682416 206.650368 
L 123.544582 206.205309 
L 119.268913 206.205309 
L 117.131079 205.76025 
L 114.993244 205.76025 
L 112.85541 205.315191 
L 108.579741 205.315191 
L 106.441907 204.870132 
L 104.304072 204.870132 
L 102.166238 204.425072 
L 97.890569 204.425072 
L 95.752735 203.980013 
L 93.6149 203.980013 
L 91.477066 203.534954 
L 87.201397 203.534954 
L 82.925729 202.644836 
L 78.65006 202.644836 
L 76.512225 202.199777 
L 74.374391 202.199777 
L 72.236557 201.754717 
L 67.960888 201.754717 
L 65.823053 201.309658 
L 61.547385 201.309658 
L 59.40955 200.864599 
L 57.271716 200.864599 
L 55.133881 200.41954 
L 50.858213 200.41954 
L 48.720378 199.974481 
L 46.582544 199.974481 
L 44.444709 199.529422 
L 42.306875 199.529422 
L 42.306875 199.529422 
" clip-path="url(#p6f8ab3de85)" style="fill: none; stroke: #bcbd22; stroke-width: 4"/>
   </g>
   <g id="line2d_19">
    <path d="M 713.586875 235.579214 
L 668.692353 235.579214 
L 666.554518 235.134155 
L 655.865346 235.134155 
L 653.727512 235.579214 
L 649.451843 235.579214 
L 647.314009 236.024273 
L 645.176174 236.024273 
L 643.03834 236.469332 
L 638.762671 236.469332 
L 636.624837 236.914392 
L 632.349168 236.914392 
L 630.211334 237.359451 
L 625.935665 237.359451 
L 623.79783 237.80451 
L 621.659996 237.80451 
L 619.522162 238.249569 
L 615.246493 238.249569 
L 613.108658 238.694628 
L 608.83299 238.694628 
L 606.695155 239.139687 
L 602.419486 239.139687 
L 600.281652 239.584747 
L 596.005983 239.584747 
L 593.868149 240.029806 
L 589.59248 240.029806 
L 587.454646 240.474865 
L 583.178977 240.474865 
L 581.041143 240.919924 
L 576.765474 240.919924 
L 574.627639 241.364983 
L 570.351971 241.364983 
L 568.214136 241.810042 
L 563.938467 241.810042 
L 561.800633 242.255102 
L 557.524964 242.255102 
L 555.38713 242.700161 
L 553.249295 242.700161 
L 551.111461 243.14522 
L 544.697958 243.14522 
L 542.560123 243.590279 
L 538.284455 243.590279 
L 536.14662 244.035338 
L 534.008786 244.035338 
L 531.870951 244.480397 
L 527.595283 244.480397 
L 525.457448 244.925457 
L 521.181779 244.925457 
L 519.043945 245.370516 
L 512.630442 245.370516 
L 510.492607 245.815575 
L 508.354773 245.815575 
L 506.216939 246.260634 
L 501.94127 246.260634 
L 499.803436 246.705693 
L 497.665601 246.705693 
L 495.527767 247.150752 
L 491.252098 247.150752 
L 489.114264 247.595812 
L 484.838595 247.595812 
L 482.70076 248.040871 
L 478.425092 248.040871 
L 476.287257 248.48593 
L 472.011588 248.48593 
L 469.873754 248.930989 
L 465.598085 248.930989 
L 463.460251 249.376048 
L 459.184582 249.376048 
L 457.046748 249.821107 
L 454.908913 249.821107 
L 452.771079 250.266167 
L 448.49541 250.266167 
L 446.357576 250.711226 
L 444.219741 250.711226 
L 442.081907 251.156285 
L 439.944072 251.156285 
L 437.806238 251.601344 
L 433.530569 251.601344 
L 431.392735 252.046403 
L 427.117066 252.046403 
L 424.979232 252.491462 
L 420.703563 252.491462 
L 418.565729 252.936522 
L 416.427894 252.936522 
L 414.29006 253.381581 
L 412.152225 253.381581 
L 410.014391 253.82664 
L 405.738722 253.82664 
L 403.600888 254.271699 
L 401.463053 254.271699 
L 399.325219 254.716758 
L 395.04955 254.716758 
L 392.911716 255.161817 
L 388.636047 255.161817 
L 386.498213 255.606877 
L 384.360378 255.606877 
L 382.222544 256.051936 
L 380.084709 256.051936 
L 377.946875 256.496995 
L 373.671206 256.496995 
L 371.533372 256.942054 
L 369.395537 256.942054 
L 367.257703 257.387113 
L 360.8442 257.387113 
L 358.706365 257.832172 
L 356.568531 257.387113 
L 300.984837 257.387113 
L 298.847002 256.942054 
L 292.433499 256.942054 
L 290.295665 257.387113 
L 288.15783 257.387113 
L 286.019996 256.942054 
L 249.676811 256.942054 
L 247.538977 256.496995 
L 245.401143 256.942054 
L 243.263308 256.496995 
L 191.955283 256.496995 
L 189.817448 256.051936 
L 138.509423 256.051936 
L 136.371588 255.606877 
L 74.374391 255.606877 
L 72.236557 255.161817 
L 42.306875 255.161817 
L 42.306875 255.161817 
" clip-path="url(#p6f8ab3de85)" style="fill: none; stroke: #ff5a5f; stroke-width: 4"/>
   </g>
   <g id="line2d_20">
    <path d="M 713.586875 146.567381 
L 685.795028 146.567381 
L 683.657193 146.122322 
L 664.416684 146.122322 
L 662.27885 146.567381 
L 655.865346 146.567381 
L 653.727512 146.122322 
L 640.900506 146.122322 
L 638.762671 145.677262 
L 621.659996 145.677262 
L 619.522162 145.232203 
L 604.557321 145.232203 
L 602.419486 144.787144 
L 581.041143 144.787144 
L 578.903308 144.342085 
L 553.249295 144.342085 
L 551.111461 143.897026 
L 531.870951 143.897026 
L 529.733117 143.451967 
L 514.768276 143.451967 
L 512.630442 143.006907 
L 495.527767 143.006907 
L 493.389932 142.561848 
L 476.287257 142.561848 
L 474.149423 142.116789 
L 452.771079 142.116789 
L 450.633244 141.67173 
L 422.841397 141.67173 
L 420.703563 141.226671 
L 390.773881 141.226671 
L 388.636047 140.781612 
L 367.257703 140.781612 
L 365.119869 140.336552 
L 335.190187 140.336552 
L 333.052353 139.891493 
L 315.949678 139.891493 
L 313.811843 139.446434 
L 298.847002 139.446434 
L 296.709168 139.001375 
L 277.468658 139.001375 
L 275.330824 138.556316 
L 256.090314 138.556316 
L 253.95248 138.111257 
L 224.022799 138.111257 
L 221.884964 137.666197 
L 206.920123 137.666197 
L 204.782289 137.221138 
L 189.817448 137.221138 
L 187.679614 136.776079 
L 172.714773 136.776079 
L 170.576939 136.33102 
L 144.922926 136.33102 
L 142.785092 135.885961 
L 123.544582 135.885961 
L 121.406748 135.440902 
L 108.579741 135.440902 
L 106.441907 134.995842 
L 93.6149 134.995842 
L 91.477066 134.550783 
L 72.236557 134.550783 
L 70.098722 134.105724 
L 55.133881 134.105724 
L 52.996047 133.660665 
L 42.306875 133.660665 
L 42.306875 133.660665 
" clip-path="url(#p6f8ab3de85)" style="fill: none; stroke: #2196f3; stroke-width: 4"/>
   </g>
   <g id="line2d_21">
    <defs>
     <path id="m8590fe0423" d="M 0 2.5 
C 0.663008 2.5 1.29895 2.236584 1.767767 1.767767 
C 2.236584 1.29895 2.5 0.663008 2.5 0 
C 2.5 -0.663008 2.236584 -1.29895 1.767767 -1.767767 
C 1.29895 -2.236584 0.663008 -2.5 0 -2.5 
C -0.663008 -2.5 -1.29895 -2.236584 -1.767767 -1.767767 
C -2.236584 -1.29895 -2.5 -0.663008 -2.5 0 
C -2.5 0.663008 -2.236584 1.29895 -1.767767 1.767767 
C -1.29895 2.236584 -0.663008 2.5 0 2.5 
z
" style="stroke: #2196f3; stroke-opacity: 0.5; stroke-width: 2"/>
    </defs>
    <g clip-path="url(#p6f8ab3de85)">
     <use xlink:href="#m8590fe0423" x="337.328021" y="132.770547" style="fill: #2196f3; fill-opacity: 0.5; stroke: #2196f3; stroke-opacity: 0.5; stroke-width: 2"/>
     <use xlink:href="#m8590fe0423" x="362.982034" y="147.902558" style="fill: #2196f3; fill-opacity: 0.5; stroke: #2196f3; stroke-opacity: 0.5; stroke-width: 2"/>
     <use xlink:href="#m8590fe0423" x="655.865346" y="156.803742" style="fill: #2196f3; fill-opacity: 0.5; stroke: #2196f3; stroke-opacity: 0.5; stroke-width: 2"/>
    </g>
   </g>
   <g id="line2d_22">
    <defs>
     <path id="m9a2dc81ddd" d="M 0 2.5 
C 0.663008 2.5 1.29895 2.236584 1.767767 1.767767 
C 2.236584 1.29895 2.5 0.663008 2.5 0 
C 2.5 -0.663008 2.236584 -1.29895 1.767767 -1.767767 
C 1.29895 -2.236584 0.663008 -2.5 0 -2.5 
C -0.663008 -2.5 -1.29895 -2.236584 -1.767767 -1.767767 
C -2.236584 -1.29895 -2.5 -0.663008 -2.5 0 
C -2.5 0.663008 -2.236584 1.29895 -1.767767 1.767767 
C -1.29895 2.236584 -0.663008 2.5 0 2.5 
z
" style="stroke: #bcbd22; stroke-opacity: 0.5; stroke-width: 2"/>
    </defs>
    <g clip-path="url(#p6f8ab3de85)">
     <use xlink:href="#m9a2dc81ddd" x="337.328021" y="196.859067" style="fill: #bcbd22; fill-opacity: 0.5; stroke: #bcbd22; stroke-opacity: 0.5; stroke-width: 2"/>
     <use xlink:href="#m9a2dc81ddd" x="362.982034" y="259.16735" style="fill: #bcbd22; fill-opacity: 0.5; stroke: #bcbd22; stroke-opacity: 0.5; stroke-width: 2"/>
     <use xlink:href="#m9a2dc81ddd" x="655.865346" y="228.013208" style="fill: #bcbd22; fill-opacity: 0.5; stroke: #bcbd22; stroke-opacity: 0.5; stroke-width: 2"/>
    </g>
   </g>
   <g id="line2d_23">
    <defs>
     <path id="m7dea285e75" d="M 0 2.5 
C 0.663008 2.5 1.29895 2.236584 1.767767 1.767767 
C 2.236584 1.29895 2.5 0.663008 2.5 0 
C 2.5 -0.663008 2.236584 -1.29895 1.767767 -1.767767 
C 1.29895 -2.236584 0.663008 -2.5 0 -2.5 
C -0.663008 -2.5 -1.29895 -2.236584 -1.767767 -1.767767 
C -2.236584 -1.29895 -2.5 -0.663008 -2.5 0 
C -2.5 0.663008 -2.236584 1.29895 -1.767767 1.767767 
C -1.29895 2.236584 -0.663008 2.5 0 2.5 
z
" style="stroke: #ff5a5f; stroke-opacity: 0.5; stroke-width: 2"/>
    </defs>
    <g clip-path="url(#p6f8ab3de85)">
     <use xlink:href="#m7dea285e75" x="337.328021" y="254.716758" style="fill: #ff5a5f; fill-opacity: 0.5; stroke: #ff5a5f; stroke-opacity: 0.5; stroke-width: 2"/>
     <use xlink:href="#m7dea285e75" x="362.982034" y="263.617942" style="fill: #ff5a5f; fill-opacity: 0.5; stroke: #ff5a5f; stroke-opacity: 0.5; stroke-width: 2"/>
     <use xlink:href="#m7dea285e75" x="655.865346" y="236.914392" style="fill: #ff5a5f; fill-opacity: 0.5; stroke: #ff5a5f; stroke-opacity: 0.5; stroke-width: 2"/>
    </g>
   </g>
   <g id="line2d_24">
    <path d="M 42.306875 339.278 
L 713.586875 339.278 
" clip-path="url(#p6f8ab3de85)" style="fill: none; stroke: #000000; stroke-opacity: 0.7; stroke-width: 4"/>
   </g>
   <g id="text_13">
    <text style="fill: #222222; font: 700 26px 'Roboto', 'Arial', 'DejaVu Sans', sans-serif" transform="translate(42.306875 22.626875)">Avaliação da gestão de Sebastião Melo (MDD)</text>
    <text style="fill: #222222; font: 700 26px 'Roboto', 'Arial', 'DejaVu Sans', sans-serif" transform="translate(42.306875 52.2425)"/>
   </g>
   <g id="legend_1">
    <g id="patch_3">
     <path d="M 475.923594 109.369844 
L 703.086875 109.369844 
Q 706.086875 109.369844 706.086875 106.369844 
L 706.086875 82.7425 
Q 706.086875 79.7425 703.086875 79.7425 
L 475.923594 79.7425 
Q 472.923594 79.7425 472.923594 82.7425 
L 472.923594 106.369844 
Q 472.923594 109.369844 475.923594 109.369844 
z
" style="fill: #ffffff; opacity: 0.7; stroke: #ffffff; stroke-width: 0.5; stroke-linejoin: miter"/>
    </g>
    <g id="line2d_25">
     <path d="M 480.423594 93.868281 
L 484.173594 93.868281 
L 487.923594 93.868281 
" style="fill: none; stroke: #2196f3; stroke-width: 4"/>
    </g>
    <g id="text_14">
     <text style="fill: #222222; font: 15px 'Roboto', 'Arial', 'DejaVu Sans', sans-serif; text-anchor: start" x="495.423594" y="98.668281" transform="rotate(-0 495.423594 98.668281)">positiva</text>
    </g>
    <g id="line2d_26">
     <path d="M 556.115 93.868281 
L 559.865 93.868281 
L 563.615 93.868281 
" style="fill: none; stroke: #bcbd22; stroke-width: 4"/>
    </g>
    <g id="text_15">
     <text style="fill: #222222; font: 15px 'Roboto', 'Arial', 'DejaVu Sans', sans-serif; text-anchor: start" x="571.115" y="98.668281" transform="rotate(-0 571.115 98.668281)">regular</text>
    </g>
    <g id="line2d_27">
     <path d="M 625.92125 93.868281 
L 629.67125 93.868281 
L 633.42125 93.868281 
" style="fill: none; stroke: #ff5a5f; stroke-width: 4"/>
    </g>
    <g id="text_16">
     <text style="fill: #222222; font: 15px 'Roboto', 'Arial', 'DejaVu Sans', sans-serif; text-anchor: start" x="640.92125" y="98.668281" transform="rotate(-0 640.92125 98.668281)">negativa</text>
    </g>
   </g>
  </g>
 </g>
 <defs>
  <clipPath id="p6f8ab3de85">
   <rect x="42.306875" y="72.2425" width="671.28" height="267.0355"/>
  </clipPath>
 </defs>
</svg>
