<?xml version="1.0" encoding="utf-8" standalone="no"?>
<!DOCTYPE svg PUBLIC "-//W3C//DTD SVG 1.1//EN"
  "http://www.w3.org/Graphics/SVG/1.1/DTD/svg11.dtd">
<svg xmlns:xlink="http://www.w3.org/1999/xlink" width="670.22234pt" height="357.71976pt" viewBox="0 0 670.22234 357.71976" xmlns="http://www.w3.org/2000/svg" version="1.1">
 <metadata>
  <rdf:RDF xmlns:dc="http://purl.org/dc/elements/1.1/" xmlns:cc="http://creativecommons.org/ns#" xmlns:rdf="http://www.w3.org/1999/02/22-rdf-syntax-ns#">
   <cc:Work>
    <dc:type rdf:resource="http://purl.org/dc/dcmitype/StillImage"/>
    <dc:date>2023-07-03T11:17:50.328687</dc:date>
    <dc:format>image/svg+xml</dc:format>
    <dc:creator>
     <cc:Agent>
      <dc:title>Matplotlib v3.7.1, https://matplotlib.org/</dc:title>
     </cc:Agent>
    </dc:creator>
   </cc:Work>
  </rdf:RDF>
 </metadata>
 <defs>
  <style type="text/css">*{stroke-linejoin: round; stroke-linecap: butt}</style>
 </defs>
 <g id="figure_1">
  <g id="patch_1">
   <path d="M 0 357.71976 
L 670.22234 357.71976 
L 670.22234 0 
L 0 0 
L 0 357.71976 
z
" style="fill: none"/>
  </g>
  <g id="axes_1">
   <g id="patch_2">
    <path d="M 42.306875 330.262885 
L 329.965095 330.262885 
L 329.965095 52.033843 
L 42.306875 52.033843 
L 42.306875 330.262885 
z
" style="fill: none"/>
   </g>
   <g id="matplotlib.axis_1">
    <g id="xtick_1">
     <g id="line2d_1">
      <path d="M 42.306875 330.262885 
L 42.306875 52.033843 
" clip-path="url(#p58985d0bac)" style="fill: none; stroke-dasharray: 0.7,2.1; stroke-dashoffset: 0; stroke: #000000; stroke-opacity: 0.3; stroke-width: 0.7"/>
     </g>
     <g id="line2d_2"/>
     <g id="text_1">
      <text style="fill: #333333; font: 20px 'Roboto', 'Arial', 'DejaVu Sans', sans-serif; text-anchor: middle" x="42.306875" y="351.49726" transform="rotate(-0 42.306875 351.49726)">Jan</text>
     </g>
    </g>
    <g id="xtick_2">
     <g id="line2d_3">
      <path d="M 329.965095 330.262885 
L 329.965095 52.033843 
" clip-path="url(#p58985d0bac)" style="fill: none; stroke-dasharray: 0.7,2.1; stroke-dashoffset: 0; stroke: #000000; stroke-opacity: 0.3; stroke-width: 0.7"/>
     </g>
     <g id="line2d_4"/>
     <g id="text_2">
      <text style="fill: #333333; font: 20px 'Roboto', 'Arial', 'DejaVu Sans', sans-serif; text-anchor: middle" x="329.965095" y="351.49726" transform="rotate(-0 329.965095 351.49726)">Jul</text>
     </g>
    </g>
   </g>
   <g id="matplotlib.axis_2">
    <g id="ytick_1">
     <g id="line2d_5">
      <path d="M 42.306875 320.906129 
L 329.965095 320.906129 
" clip-path="url(#p58985d0bac)" style="fill: none; stroke-dasharray: 0.7,2.1; stroke-dashoffset: 0; stroke: #000000; stroke-opacity: 0.3; stroke-width: 0.7"/>
     </g>
     <g id="text_3">
      <text style="fill: #333333; font: 20px 'Roboto', 'Arial', 'DejaVu Sans', sans-serif; text-anchor: end" x="39.306875" y="326.492067" transform="rotate(-0 39.306875 326.492067)">0  </text>
     </g>
    </g>
    <g id="ytick_2">
     <g id="line2d_6">
      <path d="M 42.306875 282.495803 
L 329.965095 282.495803 
" clip-path="url(#p58985d0bac)" style="fill: none; stroke-dasharray: 0.7,2.1; stroke-dashoffset: 0; stroke: #000000; stroke-opacity: 0.3; stroke-width: 0.7"/>
     </g>
     <g id="text_4">
      <text style="fill: #333333; font: 20px 'Roboto', 'Arial', 'DejaVu Sans', sans-serif; text-anchor: end" x="39.306875" y="288.08174" transform="rotate(-0 39.306875 288.08174)">10  </text>
     </g>
    </g>
    <g id="ytick_3">
     <g id="line2d_7">
      <path d="M 42.306875 244.085476 
L 329.965095 244.085476 
" clip-path="url(#p58985d0bac)" style="fill: none; stroke-dasharray: 0.7,2.1; stroke-dashoffset: 0; stroke: #000000; stroke-opacity: 0.3; stroke-width: 0.7"/>
     </g>
     <g id="text_5">
      <text style="fill: #333333; font: 20px 'Roboto', 'Arial', 'DejaVu Sans', sans-serif; text-anchor: end" x="39.306875" y="249.671414" transform="rotate(-0 39.306875 249.671414)">20  </text>
     </g>
    </g>
    <g id="ytick_4">
     <g id="line2d_8">
      <path d="M 42.306875 205.675149 
L 329.965095 205.675149 
" clip-path="url(#p58985d0bac)" style="fill: none; stroke-dasharray: 0.7,2.1; stroke-dashoffset: 0; stroke: #000000; stroke-opacity: 0.3; stroke-width: 0.7"/>
     </g>
     <g id="text_6">
      <text style="fill: #333333; font: 20px 'Roboto', 'Arial', 'DejaVu Sans', sans-serif; text-anchor: end" x="39.306875" y="211.261087" transform="rotate(-0 39.306875 211.261087)">30  </text>
     </g>
    </g>
    <g id="ytick_5">
     <g id="line2d_9">
      <path d="M 42.306875 167.264823 
L 329.965095 167.264823 
" clip-path="url(#p58985d0bac)" style="fill: none; stroke-dasharray: 0.7,2.1; stroke-dashoffset: 0; stroke: #000000; stroke-opacity: 0.3; stroke-width: 0.7"/>
     </g>
     <g id="text_7">
      <text style="fill: #333333; font: 20px 'Roboto', 'Arial', 'DejaVu Sans', sans-serif; text-anchor: end" x="39.306875" y="172.85076" transform="rotate(-0 39.306875 172.85076)">40  </text>
     </g>
    </g>
    <g id="ytick_6">
     <g id="line2d_10">
      <path d="M 42.306875 128.854496 
L 329.965095 128.854496 
" clip-path="url(#p58985d0bac)" style="fill: none; stroke-dasharray: 0.7,2.1; stroke-dashoffset: 0; stroke: #000000; stroke-opacity: 0.3; stroke-width: 0.7"/>
     </g>
     <g id="text_8">
      <text style="fill: #333333; font: 20px 'Roboto', 'Arial', 'DejaVu Sans', sans-serif; text-anchor: end" x="39.306875" y="134.440433" transform="rotate(-0 39.306875 134.440433)">50  </text>
     </g>
    </g>
    <g id="ytick_7">
     <g id="line2d_11">
      <path d="M 42.306875 90.444169 
L 329.965095 90.444169 
" clip-path="url(#p58985d0bac)" style="fill: none; stroke-dasharray: 0.7,2.1; stroke-dashoffset: 0; stroke: #000000; stroke-opacity: 0.3; stroke-width: 0.7"/>
     </g>
     <g id="text_9">
      <text style="fill: #333333; font: 20px 'Roboto', 'Arial', 'DejaVu Sans', sans-serif; text-anchor: end" x="39.306875" y="96.030107" transform="rotate(-0 39.306875 96.030107)">60  </text>
     </g>
    </g>
    <g id="ytick_8">
     <g id="line2d_12">
      <path d="M 42.306875 52.033843 
L 329.965095 52.033843 
" clip-path="url(#p58985d0bac)" style="fill: none; stroke-dasharray: 0.7,2.1; stroke-dashoffset: 0; stroke: #000000; stroke-opacity: 0.3; stroke-width: 0.7"/>
     </g>
     <g id="text_10">
      <text style="fill: #333333; font: 20px 'Roboto', 'Arial', 'DejaVu Sans', sans-serif; text-anchor: end" x="39.306875" y="57.61978" transform="rotate(-0 39.306875 57.61978)">70%</text>
     </g>
    </g>
   </g>
   <g id="line2d_13">
    <path d="M 42.306875 330.262885 
L 42.306875 52.033843 
" clip-path="url(#p58985d0bac)" style="fill: none; stroke: #000000; stroke-opacity: 0.7; stroke-width: 3"/>
   </g>
   <g id="line2d_14">
    <path d="M 42.306875 330.262885 
L 42.306875 52.033843 
" clip-path="url(#p58985d0bac)" style="fill: none; stroke: #000000; stroke-opacity: 0.7; stroke-width: 3"/>
   </g>
   <g id="line2d_15">
    <path d="M 42.306875 330.262885 
L 42.306875 52.033843 
" clip-path="url(#p58985d0bac)" style="fill: none; stroke: #000000; stroke-opacity: 0.7; stroke-width: 3"/>
   </g>
   <g id="line2d_16">
    <path d="M 42.306875 330.262885 
L 42.306875 52.033843 
" clip-path="url(#p58985d0bac)" style="fill: none; stroke: #000000; stroke-opacity: 0.7; stroke-width: 3"/>
   </g>
   <g id="line2d_17">
    <path d="M 329.965095 209.669823 
L 321.974589 209.631413 
L 299.601172 208.479103 
L 296.404969 208.210231 
L 291.610666 207.710897 
L 286.816362 207.288383 
L 250.060034 209.861875 
L 238.873325 210.322799 
L 230.882819 210.591671 
L 211.705605 211.436698 
L 210.107503 211.475109 
L 206.911301 211.129416 
L 202.116997 210.975774 
L 182.939783 210.898954 
L 179.74358 210.898954 
L 168.556872 210.975774 
L 163.762568 211.014185 
L 141.389151 211.091005 
L 131.800543 213.97178 
L 123.810037 216.39163 
L 112.623329 219.771739 
L 107.829025 221.269742 
L 104.632823 221.653845 
L 66.278393 232.83125 
L 61.48409 234.214022 
L 53.493584 236.557052 
L 42.306875 234.367663 
L 42.306875 234.367663 
" clip-path="url(#p58985d0bac)" style="fill: none; stroke: #888d8f; stroke-width: 4"/>
   </g>
   <g id="line2d_18">
    <path d="M 329.965095 220.808818 
L 320.376488 220.885639 
L 312.385982 221.192921 
L 298.003071 221.461794 
L 290.012564 221.346563 
L 259.648641 221.269742 
L 256.452439 221.231332 
L 253.256236 221.231332 
L 214.901807 221.154511 
L 211.705605 221.116101 
L 210.107503 221.154511 
L 206.911301 220.655177 
L 202.116997 221.384973 
L 190.930289 223.075027 
L 187.734086 223.535951 
L 181.341681 224.496209 
L 174.949276 225.802161 
L 162.164467 228.490883 
L 157.370163 229.489552 
L 141.389151 232.869661 
L 131.800543 233.637867 
L 107.829025 235.980897 
L 104.632823 235.327922 
L 101.43662 235.17428 
L 90.249912 234.713356 
L 83.857507 234.482894 
L 72.670798 234.02197 
L 69.474596 233.98356 
L 53.493584 233.215354 
L 42.306875 234.290843 
L 42.306875 234.290843 
" clip-path="url(#p58985d0bac)" style="fill: none; stroke: #f5700a; stroke-width: 4"/>
   </g>
   <g id="line2d_19">
    <path d="M 329.965095 209.669823 
L 321.974589 209.631413 
L 299.601172 208.479103 
L 296.404969 208.210231 
L 291.610666 207.710897 
L 286.816362 207.288383 
L 250.060034 209.861875 
L 238.873325 210.322799 
L 230.882819 210.591671 
L 211.705605 211.436698 
L 210.107503 211.475109 
L 206.911301 211.129416 
L 202.116997 210.975774 
L 182.939783 210.898954 
L 179.74358 210.898954 
L 168.556872 210.975774 
L 163.762568 211.014185 
L 141.389151 211.091005 
L 131.800543 213.97178 
L 123.810037 216.39163 
L 112.623329 219.771739 
L 107.829025 221.269742 
L 104.632823 221.653845 
L 66.278393 232.83125 
L 61.48409 234.214022 
L 53.493584 236.557052 
L 42.306875 234.367663 
L 42.306875 234.367663 
" clip-path="url(#p58985d0bac)" style="fill: none; stroke: #888d8f; stroke-width: 4"/>
   </g>
   <g id="line2d_20">
    <path d="M 329.965095 220.808818 
L 320.376488 220.885639 
L 312.385982 221.192921 
L 298.003071 221.461794 
L 290.012564 221.346563 
L 259.648641 221.269742 
L 256.452439 221.231332 
L 253.256236 221.231332 
L 214.901807 221.154511 
L 211.705605 221.116101 
L 210.107503 221.154511 
L 206.911301 220.655177 
L 202.116997 221.384973 
L 190.930289 223.075027 
L 187.734086 223.535951 
L 181.341681 224.496209 
L 174.949276 225.802161 
L 162.164467 228.490883 
L 157.370163 229.489552 
L 141.389151 232.869661 
L 131.800543 233.637867 
L 107.829025 235.980897 
L 104.632823 235.327922 
L 101.43662 235.17428 
L 90.249912 234.713356 
L 83.857507 234.482894 
L 72.670798 234.02197 
L 69.474596 233.98356 
L 53.493584 233.215354 
L 42.306875 234.290843 
L 42.306875 234.290843 
" clip-path="url(#p58985d0bac)" style="fill: none; stroke: #f5700a; stroke-width: 4"/>
   </g>
   <g id="line2d_21">
    <path d="M 329.965095 209.669823 
L 321.974589 209.631413 
L 299.601172 208.479103 
L 296.404969 208.210231 
L 291.610666 207.710897 
L 286.816362 207.288383 
L 250.060034 209.861875 
L 238.873325 210.322799 
L 230.882819 210.591671 
L 211.705605 211.436698 
L 210.107503 211.475109 
L 206.911301 211.129416 
L 202.116997 210.975774 
L 182.939783 210.898954 
L 179.74358 210.898954 
L 168.556872 210.975774 
L 163.762568 211.014185 
L 141.389151 211.091005 
L 131.800543 213.97178 
L 123.810037 216.39163 
L 112.623329 219.771739 
L 107.829025 221.269742 
L 104.632823 221.653845 
L 66.278393 232.83125 
L 61.48409 234.214022 
L 53.493584 236.557052 
L 42.306875 234.367663 
L 42.306875 234.367663 
" clip-path="url(#p58985d0bac)" style="fill: none; stroke: #888d8f; stroke-width: 4"/>
   </g>
   <g id="line2d_22">
    <path d="M 329.965095 220.808818 
L 320.376488 220.885639 
L 312.385982 221.192921 
L 298.003071 221.461794 
L 290.012564 221.346563 
L 259.648641 221.269742 
L 256.452439 221.231332 
L 253.256236 221.231332 
L 214.901807 221.154511 
L 211.705605 221.116101 
L 210.107503 221.154511 
L 206.911301 220.655177 
L 202.116997 221.384973 
L 190.930289 223.075027 
L 187.734086 223.535951 
L 181.341681 224.496209 
L 174.949276 225.802161 
L 162.164467 228.490883 
L 157.370163 229.489552 
L 141.389151 232.869661 
L 131.800543 233.637867 
L 107.829025 235.980897 
L 104.632823 235.327922 
L 101.43662 235.17428 
L 90.249912 234.713356 
L 83.857507 234.482894 
L 72.670798 234.02197 
L 69.474596 233.98356 
L 53.493584 233.215354 
L 42.306875 234.290843 
L 42.306875 234.290843 
" clip-path="url(#p58985d0bac)" style="fill: none; stroke: #f5700a; stroke-width: 4"/>
   </g>
   <g id="line2d_23">
    <path d="M 329.965095 209.669823 
L 321.974589 209.631413 
L 299.601172 208.479103 
L 296.404969 208.210231 
L 291.610666 207.710897 
L 286.816362 207.288383 
L 250.060034 209.861875 
L 238.873325 210.322799 
L 230.882819 210.591671 
L 211.705605 211.436698 
L 210.107503 211.475109 
L 206.911301 211.129416 
L 202.116997 210.975774 
L 182.939783 210.898954 
L 179.74358 210.898954 
L 168.556872 210.975774 
L 163.762568 211.014185 
L 141.389151 211.091005 
L 131.800543 213.97178 
L 123.810037 216.39163 
L 112.623329 219.771739 
L 107.829025 221.269742 
L 104.632823 221.653845 
L 66.278393 232.83125 
L 61.48409 234.214022 
L 53.493584 236.557052 
L 42.306875 234.367663 
L 42.306875 234.367663 
" clip-path="url(#p58985d0bac)" style="fill: none; stroke: #888d8f; stroke-width: 4"/>
   </g>
   <g id="line2d_24">
    <path d="M 329.965095 220.808818 
L 320.376488 220.885639 
L 312.385982 221.192921 
L 298.003071 221.461794 
L 290.012564 221.346563 
L 259.648641 221.269742 
L 256.452439 221.231332 
L 253.256236 221.231332 
L 214.901807 221.154511 
L 211.705605 221.116101 
L 210.107503 221.154511 
L 206.911301 220.655177 
L 202.116997 221.384973 
L 190.930289 223.075027 
L 187.734086 223.535951 
L 181.341681 224.496209 
L 174.949276 225.802161 
L 162.164467 228.490883 
L 157.370163 229.489552 
L 141.389151 232.869661 
L 131.800543 233.637867 
L 107.829025 235.980897 
L 104.632823 235.327922 
L 101.43662 235.17428 
L 90.249912 234.713356 
L 83.857507 234.482894 
L 72.670798 234.02197 
L 69.474596 233.98356 
L 53.493584 233.215354 
L 42.306875 234.290843 
L 42.306875 234.290843 
" clip-path="url(#p58985d0bac)" style="fill: none; stroke: #f5700a; stroke-width: 4"/>
   </g>
   <g id="line2d_25">
    <path d="M 329.965095 177.213097 
L 323.57269 177.213097 
L 318.778386 177.597201 
L 305.993577 178.595869 
L 302.797374 178.903152 
L 293.208767 182.014388 
L 286.816362 184.165366 
L 282.022058 182.782595 
L 251.658135 174.140271 
L 226.088516 169.146929 
L 221.294212 168.18667 
L 210.107503 165.958872 
L 206.911301 165.997282 
L 203.715098 165.843641 
L 181.341681 164.806562 
L 170.154973 162.041018 
L 158.968264 159.160244 
L 146.183454 156.010597 
L 141.389151 154.781466 
L 134.996746 153.475515 
L 107.829025 147.675556 
L 104.632823 147.329863 
L 53.493584 133.771018 
L 45.503077 136.536561 
L 42.306875 137.61205 
L 42.306875 137.61205 
" clip-path="url(#p58985d0bac)" style="fill: none; stroke: #068773; stroke-width: 4"/>
   </g>
   <g id="line2d_26">
    <path d="M 42.306875 320.906129 
L 329.965095 320.906129 
" clip-path="url(#p58985d0bac)" style="fill: none; stroke: #000000; stroke-opacity: 0.7; stroke-width: 2"/>
   </g>
   <g id="line2d_27">
    <path d="M 329.965095 177.213097 
L 323.57269 177.213097 
L 318.778386 177.597201 
L 305.993577 178.595869 
L 302.797374 178.903152 
L 293.208767 182.014388 
L 286.816362 184.165366 
L 282.022058 182.782595 
L 251.658135 174.140271 
L 226.088516 169.146929 
L 221.294212 168.18667 
L 210.107503 165.958872 
L 206.911301 165.997282 
L 203.715098 165.843641 
L 181.341681 164.806562 
L 170.154973 162.041018 
L 158.968264 159.160244 
L 146.183454 156.010597 
L 141.389151 154.781466 
L 134.996746 153.475515 
L 107.829025 147.675556 
L 104.632823 147.329863 
L 53.493584 133.771018 
L 45.503077 136.536561 
L 42.306875 137.61205 
L 42.306875 137.61205 
" clip-path="url(#p58985d0bac)" style="fill: none; stroke: #068773; stroke-width: 4"/>
   </g>
   <g id="line2d_28">
    <path d="M 42.306875 320.906129 
L 329.965095 320.906129 
" clip-path="url(#p58985d0bac)" style="fill: none; stroke: #000000; stroke-opacity: 0.7; stroke-width: 2"/>
   </g>
   <g id="line2d_29">
    <path d="M 329.965095 177.213097 
L 323.57269 177.213097 
L 318.778386 177.597201 
L 305.993577 178.595869 
L 302.797374 178.903152 
L 293.208767 182.014388 
L 286.816362 184.165366 
L 282.022058 182.782595 
L 251.658135 174.140271 
L 226.088516 169.146929 
L 221.294212 168.18667 
L 210.107503 165.958872 
L 206.911301 165.997282 
L 203.715098 165.843641 
L 181.341681 164.806562 
L 170.154973 162.041018 
L 158.968264 159.160244 
L 146.183454 156.010597 
L 141.389151 154.781466 
L 134.996746 153.475515 
L 107.829025 147.675556 
L 104.632823 147.329863 
L 53.493584 133.771018 
L 45.503077 136.536561 
L 42.306875 137.61205 
L 42.306875 137.61205 
" clip-path="url(#p58985d0bac)" style="fill: none; stroke: #068773; stroke-width: 4"/>
   </g>
   <g id="line2d_30">
    <path d="M 42.306875 320.906129 
L 329.965095 320.906129 
" clip-path="url(#p58985d0bac)" style="fill: none; stroke: #000000; stroke-opacity: 0.7; stroke-width: 2"/>
   </g>
   <g id="line2d_31">
    <path d="M 329.965095 177.213097 
L 323.57269 177.213097 
L 318.778386 177.597201 
L 305.993577 178.595869 
L 302.797374 178.903152 
L 293.208767 182.014388 
L 286.816362 184.165366 
L 282.022058 182.782595 
L 251.658135 174.140271 
L 226.088516 169.146929 
L 221.294212 168.18667 
L 210.107503 165.958872 
L 206.911301 165.997282 
L 203.715098 165.843641 
L 181.341681 164.806562 
L 170.154973 162.041018 
L 158.968264 159.160244 
L 146.183454 156.010597 
L 141.389151 154.781466 
L 134.996746 153.475515 
L 107.829025 147.675556 
L 104.632823 147.329863 
L 53.493584 133.771018 
L 45.503077 136.536561 
L 42.306875 137.61205 
L 42.306875 137.61205 
" clip-path="url(#p58985d0bac)" style="fill: none; stroke: #068773; stroke-width: 4"/>
   </g>
   <g id="line2d_32">
    <path d="M 42.306875 320.906129 
L 329.965095 320.906129 
" clip-path="url(#p58985d0bac)" style="fill: none; stroke: #000000; stroke-opacity: 0.7; stroke-width: 2"/>
   </g>
   <g id="text_11">
    <text style="fill: #808080; font: 700 14px 'Roboto', 'Arial', 'DejaVu Sans', sans-serif; text-anchor: middle" x="186.135985" y="48.251552" transform="rotate(-0 186.135985 48.251552)">FEMININO</text>
   </g>
  </g>
  <g id="axes_2">
   <g id="patch_3">
    <path d="M 366.71662 330.262885 
L 654.37484 330.262885 
L 654.37484 52.033843 
L 366.71662 52.033843 
L 366.71662 330.262885 
z
" style="fill: none"/>
   </g>
   <g id="matplotlib.axis_3">
    <g id="xtick_3">
     <g id="line2d_33">
      <path d="M 366.71662 330.262885 
L 366.71662 52.033843 
" clip-path="url(#p8c60e4d03f)" style="fill: none; stroke-dasharray: 0.7,2.1; stroke-dashoffset: 0; stroke: #000000; stroke-opacity: 0.3; stroke-width: 0.7"/>
     </g>
     <g id="line2d_34"/>
     <g id="text_12">
      <text style="fill: #333333; font: 20px 'Roboto', 'Arial', 'DejaVu Sans', sans-serif; text-anchor: middle" x="366.71662" y="351.49726" transform="rotate(-0 366.71662 351.49726)">Jan</text>
     </g>
    </g>
    <g id="xtick_4">
     <g id="line2d_35">
      <path d="M 654.37484 330.262885 
L 654.37484 52.033843 
" clip-path="url(#p8c60e4d03f)" style="fill: none; stroke-dasharray: 0.7,2.1; stroke-dashoffset: 0; stroke: #000000; stroke-opacity: 0.3; stroke-width: 0.7"/>
     </g>
     <g id="line2d_36"/>
     <g id="text_13">
      <text style="fill: #333333; font: 20px 'Roboto', 'Arial', 'DejaVu Sans', sans-serif; text-anchor: middle" x="654.37484" y="351.49726" transform="rotate(-0 654.37484 351.49726)">Jul</text>
     </g>
    </g>
   </g>
   <g id="matplotlib.axis_4">
    <g id="ytick_9">
     <g id="line2d_37">
      <path d="M 366.71662 320.906129 
L 654.37484 320.906129 
" clip-path="url(#p8c60e4d03f)" style="fill: none; stroke-dasharray: 0.7,2.1; stroke-dashoffset: 0; stroke: #000000; stroke-opacity: 0.3; stroke-width: 0.7"/>
     </g>
    </g>
    <g id="ytick_10">
     <g id="line2d_38">
      <path d="M 366.71662 282.495803 
L 654.37484 282.495803 
" clip-path="url(#p8c60e4d03f)" style="fill: none; stroke-dasharray: 0.7,2.1; stroke-dashoffset: 0; stroke: #000000; stroke-opacity: 0.3; stroke-width: 0.7"/>
     </g>
    </g>
    <g id="ytick_11">
     <g id="line2d_39">
      <path d="M 366.71662 244.085476 
L 654.37484 244.085476 
" clip-path="url(#p8c60e4d03f)" style="fill: none; stroke-dasharray: 0.7,2.1; stroke-dashoffset: 0; stroke: #000000; stroke-opacity: 0.3; stroke-width: 0.7"/>
     </g>
    </g>
    <g id="ytick_12">
     <g id="line2d_40">
      <path d="M 366.71662 205.675149 
L 654.37484 205.675149 
" clip-path="url(#p8c60e4d03f)" style="fill: none; stroke-dasharray: 0.7,2.1; stroke-dashoffset: 0; stroke: #000000; stroke-opacity: 0.3; stroke-width: 0.7"/>
     </g>
    </g>
    <g id="ytick_13">
     <g id="line2d_41">
      <path d="M 366.71662 167.264823 
L 654.37484 167.264823 
" clip-path="url(#p8c60e4d03f)" style="fill: none; stroke-dasharray: 0.7,2.1; stroke-dashoffset: 0; stroke: #000000; stroke-opacity: 0.3; stroke-width: 0.7"/>
     </g>
    </g>
    <g id="ytick_14">
     <g id="line2d_42">
      <path d="M 366.71662 128.854496 
L 654.37484 128.854496 
" clip-path="url(#p8c60e4d03f)" style="fill: none; stroke-dasharray: 0.7,2.1; stroke-dashoffset: 0; stroke: #000000; stroke-opacity: 0.3; stroke-width: 0.7"/>
     </g>
    </g>
    <g id="ytick_15">
     <g id="line2d_43">
      <path d="M 366.71662 90.444169 
L 654.37484 90.444169 
" clip-path="url(#p8c60e4d03f)" style="fill: none; stroke-dasharray: 0.7,2.1; stroke-dashoffset: 0; stroke: #000000; stroke-opacity: 0.3; stroke-width: 0.7"/>
     </g>
    </g>
    <g id="ytick_16">
     <g id="line2d_44">
      <path d="M 366.71662 52.033843 
L 654.37484 52.033843 
" clip-path="url(#p8c60e4d03f)" style="fill: none; stroke-dasharray: 0.7,2.1; stroke-dashoffset: 0; stroke: #000000; stroke-opacity: 0.3; stroke-width: 0.7"/>
     </g>
    </g>
   </g>
   <g id="line2d_45">
    <path d="M 366.71662 330.262885 
L 366.71662 52.033843 
" clip-path="url(#p8c60e4d03f)" style="fill: none; stroke: #000000; stroke-opacity: 0.7; stroke-width: 3"/>
   </g>
   <g id="line2d_46">
    <path d="M 366.71662 330.262885 
L 366.71662 52.033843 
" clip-path="url(#p8c60e4d03f)" style="fill: none; stroke: #000000; stroke-opacity: 0.7; stroke-width: 3"/>
   </g>
   <g id="line2d_47">
    <path d="M 366.71662 330.262885 
L 366.71662 52.033843 
" clip-path="url(#p8c60e4d03f)" style="fill: none; stroke: #000000; stroke-opacity: 0.7; stroke-width: 3"/>
   </g>
   <g id="line2d_48">
    <path d="M 366.71662 330.262885 
L 366.71662 52.033843 
" clip-path="url(#p8c60e4d03f)" style="fill: none; stroke: #000000; stroke-opacity: 0.7; stroke-width: 3"/>
   </g>
   <g id="line2d_49">
    <path d="M 654.37484 208.517514 
L 647.982435 208.479103 
L 619.216613 207.173152 
L 614.422309 207.096331 
L 611.226107 206.9811 
L 598.441297 208.594334 
L 593.646994 209.208899 
L 588.85269 209.861875 
L 582.460285 210.706902 
L 568.077374 212.358546 
L 534.517248 215.661834 
L 531.321046 215.508193 
L 528.124843 215.661834 
L 518.536236 216.199579 
L 508.947629 216.814144 
L 500.957123 217.159837 
L 496.162819 217.236658 
L 465.798896 217.928044 
L 432.23877 227.492215 
L 429.042568 227.953139 
L 421.052062 230.142527 
L 411.463454 232.79284 
L 403.472948 234.982229 
L 397.080543 236.902745 
L 393.884341 237.747772 
L 382.697632 240.782188 
L 377.903329 242.088139 
L 366.71662 240.206033 
L 366.71662 240.206033 
" clip-path="url(#p8c60e4d03f)" style="fill: none; stroke: #888d8f; stroke-width: 4"/>
   </g>
   <g id="line2d_50">
    <path d="M 654.37484 203.869864 
L 649.580536 203.908274 
L 638.393828 203.985095 
L 633.599524 204.023505 
L 627.207119 204.061916 
L 612.824208 201.565244 
L 611.226107 201.257962 
L 603.235601 201.757296 
L 600.039398 201.949348 
L 596.843196 202.17981 
L 588.85269 202.679144 
L 582.460285 203.063247 
L 576.06788 203.44735 
L 542.507754 204.330788 
L 536.11535 204.56125 
L 534.517248 204.56125 
L 531.321046 203.793043 
L 526.526742 203.754633 
L 521.732439 203.793043 
L 516.938135 203.754633 
L 505.751426 203.754633 
L 502.555224 204.292378 
L 494.564718 205.71356 
L 488.172313 206.865869 
L 484.97611 207.403614 
L 468.995098 210.169158 
L 462.602693 211.475109 
L 457.80839 212.550598 
L 448.219782 214.701576 
L 443.425479 215.777065 
L 432.23877 218.273736 
L 429.042568 218.120095 
L 403.472948 224.188927 
L 398.678644 225.302826 
L 381.099531 229.451142 
L 377.903329 230.180938 
L 366.71662 229.2975 
L 366.71662 229.2975 
" clip-path="url(#p8c60e4d03f)" style="fill: none; stroke: #f5700a; stroke-width: 4"/>
   </g>
   <g id="line2d_51">
    <path d="M 654.37484 208.517514 
L 647.982435 208.479103 
L 619.216613 207.173152 
L 614.422309 207.096331 
L 611.226107 206.9811 
L 598.441297 208.594334 
L 593.646994 209.208899 
L 588.85269 209.861875 
L 582.460285 210.706902 
L 568.077374 212.358546 
L 534.517248 215.661834 
L 531.321046 215.508193 
L 528.124843 215.661834 
L 518.536236 216.199579 
L 508.947629 216.814144 
L 500.957123 217.159837 
L 496.162819 217.236658 
L 465.798896 217.928044 
L 432.23877 227.492215 
L 429.042568 227.953139 
L 421.052062 230.142527 
L 411.463454 232.79284 
L 403.472948 234.982229 
L 397.080543 236.902745 
L 393.884341 237.747772 
L 382.697632 240.782188 
L 377.903329 242.088139 
L 366.71662 240.206033 
L 366.71662 240.206033 
" clip-path="url(#p8c60e4d03f)" style="fill: none; stroke: #888d8f; stroke-width: 4"/>
   </g>
   <g id="line2d_52">
    <path d="M 654.37484 203.869864 
L 649.580536 203.908274 
L 638.393828 203.985095 
L 633.599524 204.023505 
L 627.207119 204.061916 
L 612.824208 201.565244 
L 611.226107 201.257962 
L 603.235601 201.757296 
L 600.039398 201.949348 
L 596.843196 202.17981 
L 588.85269 202.679144 
L 582.460285 203.063247 
L 576.06788 203.44735 
L 542.507754 204.330788 
L 536.11535 204.56125 
L 534.517248 204.56125 
L 531.321046 203.793043 
L 526.526742 203.754633 
L 521.732439 203.793043 
L 516.938135 203.754633 
L 505.751426 203.754633 
L 502.555224 204.292378 
L 494.564718 205.71356 
L 488.172313 206.865869 
L 484.97611 207.403614 
L 468.995098 210.169158 
L 462.602693 211.475109 
L 457.80839 212.550598 
L 448.219782 214.701576 
L 443.425479 215.777065 
L 432.23877 218.273736 
L 429.042568 218.120095 
L 403.472948 224.188927 
L 398.678644 225.302826 
L 381.099531 229.451142 
L 377.903329 230.180938 
L 366.71662 229.2975 
L 366.71662 229.2975 
" clip-path="url(#p8c60e4d03f)" style="fill: none; stroke: #f5700a; stroke-width: 4"/>
   </g>
   <g id="line2d_53">
    <path d="M 654.37484 208.517514 
L 647.982435 208.479103 
L 619.216613 207.173152 
L 614.422309 207.096331 
L 611.226107 206.9811 
L 598.441297 208.594334 
L 593.646994 209.208899 
L 588.85269 209.861875 
L 582.460285 210.706902 
L 568.077374 212.358546 
L 534.517248 215.661834 
L 531.321046 215.508193 
L 528.124843 215.661834 
L 518.536236 216.199579 
L 508.947629 216.814144 
L 500.957123 217.159837 
L 496.162819 217.236658 
L 465.798896 217.928044 
L 432.23877 227.492215 
L 429.042568 227.953139 
L 421.052062 230.142527 
L 411.463454 232.79284 
L 403.472948 234.982229 
L 397.080543 236.902745 
L 393.884341 237.747772 
L 382.697632 240.782188 
L 377.903329 242.088139 
L 366.71662 240.206033 
L 366.71662 240.206033 
" clip-path="url(#p8c60e4d03f)" style="fill: none; stroke: #888d8f; stroke-width: 4"/>
   </g>
   <g id="line2d_54">
    <path d="M 654.37484 203.869864 
L 649.580536 203.908274 
L 638.393828 203.985095 
L 633.599524 204.023505 
L 627.207119 204.061916 
L 612.824208 201.565244 
L 611.226107 201.257962 
L 603.235601 201.757296 
L 600.039398 201.949348 
L 596.843196 202.17981 
L 588.85269 202.679144 
L 582.460285 203.063247 
L 576.06788 203.44735 
L 542.507754 204.330788 
L 536.11535 204.56125 
L 534.517248 204.56125 
L 531.321046 203.793043 
L 526.526742 203.754633 
L 521.732439 203.793043 
L 516.938135 203.754633 
L 505.751426 203.754633 
L 502.555224 204.292378 
L 494.564718 205.71356 
L 488.172313 206.865869 
L 484.97611 207.403614 
L 468.995098 210.169158 
L 462.602693 211.475109 
L 457.80839 212.550598 
L 448.219782 214.701576 
L 443.425479 215.777065 
L 432.23877 218.273736 
L 429.042568 218.120095 
L 403.472948 224.188927 
L 398.678644 225.302826 
L 381.099531 229.451142 
L 377.903329 230.180938 
L 366.71662 229.2975 
L 366.71662 229.2975 
" clip-path="url(#p8c60e4d03f)" style="fill: none; stroke: #f5700a; stroke-width: 4"/>
   </g>
   <g id="line2d_55">
    <path d="M 654.37484 208.517514 
L 647.982435 208.479103 
L 619.216613 207.173152 
L 614.422309 207.096331 
L 611.226107 206.9811 
L 598.441297 208.594334 
L 593.646994 209.208899 
L 588.85269 209.861875 
L 582.460285 210.706902 
L 568.077374 212.358546 
L 534.517248 215.661834 
L 531.321046 215.508193 
L 528.124843 215.661834 
L 518.536236 216.199579 
L 508.947629 216.814144 
L 500.957123 217.159837 
L 496.162819 217.236658 
L 465.798896 217.928044 
L 432.23877 227.492215 
L 429.042568 227.953139 
L 421.052062 230.142527 
L 411.463454 232.79284 
L 403.472948 234.982229 
L 397.080543 236.902745 
L 393.884341 237.747772 
L 382.697632 240.782188 
L 377.903329 242.088139 
L 366.71662 240.206033 
L 366.71662 240.206033 
" clip-path="url(#p8c60e4d03f)" style="fill: none; stroke: #888d8f; stroke-width: 4"/>
   </g>
   <g id="line2d_56">
    <path d="M 654.37484 203.869864 
L 649.580536 203.908274 
L 638.393828 203.985095 
L 633.599524 204.023505 
L 627.207119 204.061916 
L 612.824208 201.565244 
L 611.226107 201.257962 
L 603.235601 201.757296 
L 600.039398 201.949348 
L 596.843196 202.17981 
L 588.85269 202.679144 
L 582.460285 203.063247 
L 576.06788 203.44735 
L 542.507754 204.330788 
L 536.11535 204.56125 
L 534.517248 204.56125 
L 531.321046 203.793043 
L 526.526742 203.754633 
L 521.732439 203.793043 
L 516.938135 203.754633 
L 505.751426 203.754633 
L 502.555224 204.292378 
L 494.564718 205.71356 
L 488.172313 206.865869 
L 484.97611 207.403614 
L 468.995098 210.169158 
L 462.602693 211.475109 
L 457.80839 212.550598 
L 448.219782 214.701576 
L 443.425479 215.777065 
L 432.23877 218.273736 
L 429.042568 218.120095 
L 403.472948 224.188927 
L 398.678644 225.302826 
L 381.099531 229.451142 
L 377.903329 230.180938 
L 366.71662 229.2975 
L 366.71662 229.2975 
" clip-path="url(#p8c60e4d03f)" style="fill: none; stroke: #f5700a; stroke-width: 4"/>
   </g>
   <g id="line2d_57">
    <path d="M 654.37484 179.440896 
L 647.982435 179.440896 
L 636.795727 180.324334 
L 630.403322 180.862078 
L 627.207119 181.09254 
L 620.814714 182.705774 
L 611.226107 185.087214 
L 608.029905 184.472649 
L 603.235601 183.589211 
L 582.460285 179.671358 
L 577.665981 178.787921 
L 576.06788 178.480638 
L 569.675475 177.789252 
L 560.086868 176.713763 
L 547.302058 175.407812 
L 542.507754 174.908478 
L 536.11535 174.217092 
L 534.517248 174.02504 
L 529.722945 174.409143 
L 524.928641 174.716426 
L 508.947629 175.791915 
L 505.751426 175.945556 
L 496.162819 175.407812 
L 491.368515 175.13894 
L 483.378009 174.678016 
L 478.583706 174.409143 
L 465.798896 173.717758 
L 451.415985 168.301901 
L 445.02358 165.882051 
L 437.033074 162.924456 
L 427.444466 159.352295 
L 377.903329 136.690203 
L 366.71662 140.800108 
L 366.71662 140.800108 
" clip-path="url(#p8c60e4d03f)" style="fill: none; stroke: #068773; stroke-width: 4"/>
   </g>
   <g id="line2d_58">
    <path d="M 366.71662 320.906129 
L 654.37484 320.906129 
" clip-path="url(#p8c60e4d03f)" style="fill: none; stroke: #000000; stroke-opacity: 0.7; stroke-width: 2"/>
   </g>
   <g id="line2d_59">
    <path d="M 654.37484 179.440896 
L 647.982435 179.440896 
L 636.795727 180.324334 
L 630.403322 180.862078 
L 627.207119 181.09254 
L 620.814714 182.705774 
L 611.226107 185.087214 
L 608.029905 184.472649 
L 603.235601 183.589211 
L 582.460285 179.671358 
L 577.665981 178.787921 
L 576.06788 178.480638 
L 569.675475 177.789252 
L 560.086868 176.713763 
L 547.302058 175.407812 
L 542.507754 174.908478 
L 536.11535 174.217092 
L 534.517248 174.02504 
L 529.722945 174.409143 
L 524.928641 174.716426 
L 508.947629 175.791915 
L 505.751426 175.945556 
L 496.162819 175.407812 
L 491.368515 175.13894 
L 483.378009 174.678016 
L 478.583706 174.409143 
L 465.798896 173.717758 
L 451.415985 168.301901 
L 445.02358 165.882051 
L 437.033074 162.924456 
L 427.444466 159.352295 
L 377.903329 136.690203 
L 366.71662 140.800108 
L 366.71662 140.800108 
" clip-path="url(#p8c60e4d03f)" style="fill: none; stroke: #068773; stroke-width: 4"/>
   </g>
   <g id="line2d_60">
    <path d="M 366.71662 320.906129 
L 654.37484 320.906129 
" clip-path="url(#p8c60e4d03f)" style="fill: none; stroke: #000000; stroke-opacity: 0.7; stroke-width: 2"/>
   </g>
   <g id="line2d_61">
    <path d="M 654.37484 179.440896 
L 647.982435 179.440896 
L 636.795727 180.324334 
L 630.403322 180.862078 
L 627.207119 181.09254 
L 620.814714 182.705774 
L 611.226107 185.087214 
L 608.029905 184.472649 
L 603.235601 183.589211 
L 582.460285 179.671358 
L 577.665981 178.787921 
L 576.06788 178.480638 
L 569.675475 177.789252 
L 560.086868 176.713763 
L 547.302058 175.407812 
L 542.507754 174.908478 
L 536.11535 174.217092 
L 534.517248 174.02504 
L 529.722945 174.409143 
L 524.928641 174.716426 
L 508.947629 175.791915 
L 505.751426 175.945556 
L 496.162819 175.407812 
L 491.368515 175.13894 
L 483.378009 174.678016 
L 478.583706 174.409143 
L 465.798896 173.717758 
L 451.415985 168.301901 
L 445.02358 165.882051 
L 437.033074 162.924456 
L 427.444466 159.352295 
L 377.903329 136.690203 
L 366.71662 140.800108 
L 366.71662 140.800108 
" clip-path="url(#p8c60e4d03f)" style="fill: none; stroke: #068773; stroke-width: 4"/>
   </g>
   <g id="line2d_62">
    <path d="M 366.71662 320.906129 
L 654.37484 320.906129 
" clip-path="url(#p8c60e4d03f)" style="fill: none; stroke: #000000; stroke-opacity: 0.7; stroke-width: 2"/>
   </g>
   <g id="line2d_63">
    <path d="M 654.37484 179.440896 
L 647.982435 179.440896 
L 636.795727 180.324334 
L 630.403322 180.862078 
L 627.207119 181.09254 
L 620.814714 182.705774 
L 611.226107 185.087214 
L 608.029905 184.472649 
L 603.235601 183.589211 
L 582.460285 179.671358 
L 577.665981 178.787921 
L 576.06788 178.480638 
L 569.675475 177.789252 
L 560.086868 176.713763 
L 547.302058 175.407812 
L 542.507754 174.908478 
L 536.11535 174.217092 
L 534.517248 174.02504 
L 529.722945 174.409143 
L 524.928641 174.716426 
L 508.947629 175.791915 
L 505.751426 175.945556 
L 496.162819 175.407812 
L 491.368515 175.13894 
L 483.378009 174.678016 
L 478.583706 174.409143 
L 465.798896 173.717758 
L 451.415985 168.301901 
L 445.02358 165.882051 
L 437.033074 162.924456 
L 427.444466 159.352295 
L 377.903329 136.690203 
L 366.71662 140.800108 
L 366.71662 140.800108 
" clip-path="url(#p8c60e4d03f)" style="fill: none; stroke: #068773; stroke-width: 4"/>
   </g>
   <g id="line2d_64">
    <path d="M 366.71662 320.906129 
L 654.37484 320.906129 
" clip-path="url(#p8c60e4d03f)" style="fill: none; stroke: #000000; stroke-opacity: 0.7; stroke-width: 2"/>
   </g>
   <g id="text_14">
    <text style="fill: #808080; font: 700 14px 'Roboto', 'Arial', 'DejaVu Sans', sans-serif; text-anchor: middle" x="510.54573" y="48.251552" transform="rotate(-0 510.54573 48.251552)">MASCULINO</text>
   </g>
  </g>
  <g id="text_15">
   <text style="fill: #222222; font: 700 24px 'Roboto', 'Arial', 'DejaVu Sans', sans-serif" transform="translate(8.245935 20.6625)">Avaliação de governo por sexo</text>
   <text style="fill: #222222; font: 700 24px 'Roboto', 'Arial', 'DejaVu Sans', sans-serif" transform="translate(171.91656 48)"/>
  </g>
 </g>
 <defs>
  <clipPath id="p58985d0bac">
   <rect x="42.306875" y="52.033843" width="287.65822" height="278.229042"/>
  </clipPath>
  <clipPath id="p8c60e4d03f">
   <rect x="366.71662" y="52.033843" width="287.65822" height="278.229042"/>
  </clipPath>
 </defs>
</svg>
