<?xml version="1.0" encoding="utf-8" standalone="no"?>
<!DOCTYPE svg PUBLIC "-//W3C//DTD SVG 1.1//EN"
  "http://www.w3.org/Graphics/SVG/1.1/DTD/svg11.dtd">
<svg xmlns:xlink="http://www.w3.org/1999/xlink" width="715.78125pt" height="366.734875pt" viewBox="0 0 715.78125 366.734875" xmlns="http://www.w3.org/2000/svg" version="1.1">
 <metadata>
  <rdf:RDF xmlns:dc="http://purl.org/dc/elements/1.1/" xmlns:cc="http://creativecommons.org/ns#" xmlns:rdf="http://www.w3.org/1999/02/22-rdf-syntax-ns#">
   <cc:Work>
    <dc:type rdf:resource="http://purl.org/dc/dcmitype/StillImage"/>
    <dc:date>2023-10-09T16:11:59.234244</dc:date>
    <dc:format>image/svg+xml</dc:format>
    <dc:creator>
     <cc:Agent>
      <dc:title>Matplotlib v3.8.0, https://matplotlib.org/</dc:title>
     </cc:Agent>
    </dc:creator>
   </cc:Work>
  </rdf:RDF>
 </metadata>
 <defs>
  <style type="text/css">*{stroke-linejoin: round; stroke-linecap: butt}</style>
 </defs>
 <g id="figure_1">
  <g id="patch_1">
   <path d="M 0 366.734875 
L 715.78125 366.734875 
L 715.78125 0 
L 0 0 
L 0 366.734875 
z
" style="fill: none"/>
  </g>
  <g id="axes_1">
   <g id="patch_2">
    <path d="M 42.306875 339.278 
L 675.336875 339.278 
L 675.336875 72.2425 
L 42.306875 72.2425 
L 42.306875 339.278 
z
" style="fill: none"/>
   </g>
   <g id="matplotlib.axis_1">
    <g id="xtick_1">
     <g id="line2d_1">
      <path d="M 42.306875 339.278 
L 42.306875 72.2425 
" clip-path="url(#p4a09cf7614)" style="fill: none; stroke-dasharray: 0.7,2.1; stroke-dashoffset: 0; stroke: #000000; stroke-opacity: 0.5; stroke-width: 0.7"/>
     </g>
     <g id="line2d_2"/>
     <g id="text_1">
      <text style="fill: #333333; font: 20px 'Roboto', 'Arial', 'DejaVu Sans', sans-serif; text-anchor: middle" x="42.306875" y="360.512375" transform="rotate(-0 42.306875 360.512375)">2022-12</text>
     </g>
    </g>
    <g id="xtick_2">
     <g id="line2d_3">
      <path d="M 171.411678 339.278 
L 171.411678 72.2425 
" clip-path="url(#p4a09cf7614)" style="fill: none; stroke-dasharray: 0.7,2.1; stroke-dashoffset: 0; stroke: #000000; stroke-opacity: 0.5; stroke-width: 0.7"/>
     </g>
     <g id="line2d_4"/>
     <g id="text_2">
      <text style="fill: #333333; font: 20px 'Roboto', 'Arial', 'DejaVu Sans', sans-serif; text-anchor: middle" x="171.411678" y="360.512375" transform="rotate(-0 171.411678 360.512375)">2023-02</text>
     </g>
    </g>
    <g id="xtick_3">
     <g id="line2d_5">
      <path d="M 294.269474 339.278 
L 294.269474 72.2425 
" clip-path="url(#p4a09cf7614)" style="fill: none; stroke-dasharray: 0.7,2.1; stroke-dashoffset: 0; stroke: #000000; stroke-opacity: 0.5; stroke-width: 0.7"/>
     </g>
     <g id="line2d_6"/>
     <g id="text_3">
      <text style="fill: #333333; font: 20px 'Roboto', 'Arial', 'DejaVu Sans', sans-serif; text-anchor: middle" x="294.269474" y="360.512375" transform="rotate(-0 294.269474 360.512375)">2023-04</text>
     </g>
    </g>
    <g id="xtick_4">
     <g id="line2d_7">
      <path d="M 421.291941 339.278 
L 421.291941 72.2425 
" clip-path="url(#p4a09cf7614)" style="fill: none; stroke-dasharray: 0.7,2.1; stroke-dashoffset: 0; stroke: #000000; stroke-opacity: 0.5; stroke-width: 0.7"/>
     </g>
     <g id="line2d_8"/>
     <g id="text_4">
      <text style="fill: #333333; font: 20px 'Roboto', 'Arial', 'DejaVu Sans', sans-serif; text-anchor: middle" x="421.291941" y="360.512375" transform="rotate(-0 421.291941 360.512375)">2023-06</text>
     </g>
    </g>
    <g id="xtick_5">
     <g id="line2d_9">
      <path d="M 548.314408 339.278 
L 548.314408 72.2425 
" clip-path="url(#p4a09cf7614)" style="fill: none; stroke-dasharray: 0.7,2.1; stroke-dashoffset: 0; stroke: #000000; stroke-opacity: 0.5; stroke-width: 0.7"/>
     </g>
     <g id="line2d_10"/>
     <g id="text_5">
      <text style="fill: #333333; font: 20px 'Roboto', 'Arial', 'DejaVu Sans', sans-serif; text-anchor: middle" x="548.314408" y="360.512375" transform="rotate(-0 548.314408 360.512375)">2023-08</text>
     </g>
    </g>
    <g id="xtick_6">
     <g id="line2d_11">
      <path d="M 675.336875 339.278 
L 675.336875 72.2425 
" clip-path="url(#p4a09cf7614)" style="fill: none; stroke-dasharray: 0.7,2.1; stroke-dashoffset: 0; stroke: #000000; stroke-opacity: 0.5; stroke-width: 0.7"/>
     </g>
     <g id="line2d_12"/>
     <g id="text_6">
      <text style="fill: #333333; font: 20px 'Roboto', 'Arial', 'DejaVu Sans', sans-serif; text-anchor: middle" x="675.336875" y="360.512375" transform="rotate(-0 675.336875 360.512375)">2023-10</text>
     </g>
    </g>
   </g>
   <g id="matplotlib.axis_2">
    <g id="ytick_1">
     <g id="line2d_13">
      <path d="M 42.306875 339.278 
L 675.336875 339.278 
" clip-path="url(#p4a09cf7614)" style="fill: none; stroke-dasharray: 0.7,2.1; stroke-dashoffset: 0; stroke: #000000; stroke-opacity: 0.5; stroke-width: 0.7"/>
     </g>
     <g id="text_7">
      <text style="fill: #333333; font: 20px 'Roboto', 'Arial', 'DejaVu Sans', sans-serif; text-anchor: end" x="39.306875" y="344.863937" transform="rotate(-0 39.306875 344.863937)">0  </text>
     </g>
    </g>
    <g id="ytick_2">
     <g id="line2d_14">
      <path d="M 42.306875 294.772083 
L 675.336875 294.772083 
" clip-path="url(#p4a09cf7614)" style="fill: none; stroke-dasharray: 0.7,2.1; stroke-dashoffset: 0; stroke: #000000; stroke-opacity: 0.5; stroke-width: 0.7"/>
     </g>
     <g id="text_8">
      <text style="fill: #333333; font: 20px 'Roboto', 'Arial', 'DejaVu Sans', sans-serif; text-anchor: end" x="39.306875" y="300.358021" transform="rotate(-0 39.306875 300.358021)">10  </text>
     </g>
    </g>
    <g id="ytick_3">
     <g id="line2d_15">
      <path d="M 42.306875 250.266167 
L 675.336875 250.266167 
" clip-path="url(#p4a09cf7614)" style="fill: none; stroke-dasharray: 0.7,2.1; stroke-dashoffset: 0; stroke: #000000; stroke-opacity: 0.5; stroke-width: 0.7"/>
     </g>
     <g id="text_9">
      <text style="fill: #333333; font: 20px 'Roboto', 'Arial', 'DejaVu Sans', sans-serif; text-anchor: end" x="39.306875" y="255.852104" transform="rotate(-0 39.306875 255.852104)">20  </text>
     </g>
    </g>
    <g id="ytick_4">
     <g id="line2d_16">
      <path d="M 42.306875 205.76025 
L 675.336875 205.76025 
" clip-path="url(#p4a09cf7614)" style="fill: none; stroke-dasharray: 0.7,2.1; stroke-dashoffset: 0; stroke: #000000; stroke-opacity: 0.5; stroke-width: 0.7"/>
     </g>
     <g id="text_10">
      <text style="fill: #333333; font: 20px 'Roboto', 'Arial', 'DejaVu Sans', sans-serif; text-anchor: end" x="39.306875" y="211.346187" transform="rotate(-0 39.306875 211.346187)">30  </text>
     </g>
    </g>
    <g id="ytick_5">
     <g id="line2d_17">
      <path d="M 42.306875 161.254333 
L 675.336875 161.254333 
" clip-path="url(#p4a09cf7614)" style="fill: none; stroke-dasharray: 0.7,2.1; stroke-dashoffset: 0; stroke: #000000; stroke-opacity: 0.5; stroke-width: 0.7"/>
     </g>
     <g id="text_11">
      <text style="fill: #333333; font: 20px 'Roboto', 'Arial', 'DejaVu Sans', sans-serif; text-anchor: end" x="39.306875" y="166.840271" transform="rotate(-0 39.306875 166.840271)">40  </text>
     </g>
    </g>
    <g id="ytick_6">
     <g id="line2d_18">
      <path d="M 42.306875 116.748417 
L 675.336875 116.748417 
" clip-path="url(#p4a09cf7614)" style="fill: none; stroke-dasharray: 0.7,2.1; stroke-dashoffset: 0; stroke: #000000; stroke-opacity: 0.5; stroke-width: 0.7"/>
     </g>
     <g id="text_12">
      <text style="fill: #333333; font: 20px 'Roboto', 'Arial', 'DejaVu Sans', sans-serif; text-anchor: end" x="39.306875" y="122.334354" transform="rotate(-0 39.306875 122.334354)">50  </text>
     </g>
    </g>
    <g id="ytick_7">
     <g id="line2d_19">
      <path d="M 42.306875 72.2425 
L 675.336875 72.2425 
" clip-path="url(#p4a09cf7614)" style="fill: none; stroke-dasharray: 0.7,2.1; stroke-dashoffset: 0; stroke: #000000; stroke-opacity: 0.5; stroke-width: 0.7"/>
     </g>
     <g id="text_13">
      <text style="fill: #333333; font: 20px 'Roboto', 'Arial', 'DejaVu Sans', sans-serif; text-anchor: end" x="39.306875" y="77.828437" transform="rotate(-0 39.306875 77.828437)">60%</text>
     </g>
    </g>
   </g>
   <g id="line2d_20">
    <path d="M 675.336875 143.897026 
L 583.714112 143.897026 
L 581.631776 144.342085 
L 579.549441 143.897026 
L 577.467105 144.342085 
L 575.38477 143.897026 
L 502.503026 143.897026 
L 500.420691 144.342085 
L 490.009013 144.342085 
L 487.926678 144.787144 
L 477.515 144.787144 
L 475.432664 145.232203 
L 467.103322 145.232203 
L 465.020987 145.677262 
L 456.691645 145.677262 
L 454.609309 146.122322 
L 446.279967 146.122322 
L 444.197632 146.567381 
L 437.950625 146.567381 
L 435.868289 147.01244 
L 425.456612 147.01244 
L 423.374276 147.457499 
L 415.044934 147.457499 
L 412.962599 147.902558 
L 406.715592 147.902558 
L 404.633257 148.347617 
L 398.38625 148.347617 
L 396.303914 148.792677 
L 387.974572 148.792677 
L 385.892237 149.237736 
L 379.64523 149.237736 
L 377.562895 149.682795 
L 369.233553 149.682795 
L 367.151217 150.127854 
L 350.492533 150.127854 
L 348.410197 150.572913 
L 290.104803 150.572913 
L 288.022467 151.017972 
L 258.86977 151.017972 
L 256.787434 151.463032 
L 206.811382 151.463032 
L 204.729046 151.017972 
L 194.317368 151.017972 
L 192.235033 150.572913 
L 183.905691 150.572913 
L 181.823355 150.127854 
L 171.411678 150.127854 
L 169.329342 149.682795 
L 161 149.682795 
L 158.917664 149.237736 
L 148.505987 149.237736 
L 146.423651 148.792677 
L 133.929638 148.792677 
L 131.847303 148.347617 
L 123.517961 148.347617 
L 121.435625 147.902558 
L 111.023947 147.902558 
L 108.941612 147.457499 
L 98.529934 147.457499 
L 96.447599 147.01244 
L 83.953586 147.01244 
L 81.87125 146.567381 
L 75.624243 146.567381 
L 73.541908 146.122322 
L 67.294901 146.122322 
L 65.212566 145.677262 
L 56.883224 145.677262 
L 54.800888 145.232203 
L 48.553882 145.232203 
L 46.471546 144.787144 
L 42.306875 144.787144 
L 42.306875 144.787144 
" clip-path="url(#p4a09cf7614)" style="fill: none; stroke: #bcbd22; stroke-width: 4"/>
   </g>
   <g id="line2d_21">
    <path d="M 675.336875 229.348386 
L 652.431184 229.348386 
L 650.348849 228.903327 
L 648.266513 229.348386 
L 639.937171 229.348386 
L 637.854836 228.903327 
L 600.372796 228.903327 
L 598.290461 228.458267 
L 594.125789 228.458267 
L 592.043454 228.013208 
L 587.878783 228.013208 
L 585.796447 227.568149 
L 581.631776 227.568149 
L 579.549441 227.12309 
L 575.38477 227.12309 
L 573.302434 226.678031 
L 571.220099 226.678031 
L 569.137763 226.232972 
L 562.890757 226.232972 
L 560.808421 225.787912 
L 556.64375 225.787912 
L 554.561414 225.342853 
L 550.396743 225.342853 
L 548.314408 224.897794 
L 544.149737 224.897794 
L 542.067401 224.452735 
L 535.820395 224.452735 
L 533.738059 224.007676 
L 531.655724 224.007676 
L 529.573388 223.562617 
L 525.408717 223.562617 
L 523.326382 223.117557 
L 517.079375 223.117557 
L 514.997039 222.672498 
L 510.832368 222.672498 
L 508.750033 222.227439 
L 506.667697 222.227439 
L 502.503026 221.337321 
L 500.420691 221.337321 
L 498.338355 220.892262 
L 496.25602 220.892262 
L 494.173684 220.447202 
L 492.091349 220.447202 
L 490.009013 220.002143 
L 487.926678 220.002143 
L 485.844342 219.557084 
L 483.762007 219.557084 
L 481.679671 219.112025 
L 479.597336 219.112025 
L 477.515 218.666966 
L 475.432664 218.666966 
L 473.350329 218.221907 
L 471.267993 218.221907 
L 467.103322 217.331788 
L 462.938651 217.331788 
L 460.856316 216.886729 
L 458.77398 216.886729 
L 454.609309 215.996611 
L 452.526974 215.996611 
L 450.444638 215.551552 
L 448.362303 215.551552 
L 446.279967 215.106492 
L 444.197632 215.106492 
L 440.032961 214.216374 
L 437.950625 214.216374 
L 435.868289 213.771315 
L 433.785954 213.771315 
L 431.703618 213.326256 
L 429.621283 213.326256 
L 427.538947 212.881197 
L 425.456612 212.881197 
L 421.291941 211.991078 
L 419.209605 211.991078 
L 417.12727 211.546019 
L 415.044934 211.546019 
L 412.962599 211.10096 
L 410.880263 211.10096 
L 408.797928 210.655901 
L 406.715592 210.655901 
L 404.633257 210.210842 
L 402.550921 210.210842 
L 400.468586 209.765782 
L 398.38625 209.765782 
L 394.221579 208.875664 
L 392.139243 208.875664 
L 390.056908 208.430605 
L 387.974572 208.430605 
L 385.892237 207.985546 
L 383.809901 207.985546 
L 379.64523 207.095427 
L 377.562895 207.095427 
L 375.480559 206.650368 
L 373.398224 206.650368 
L 371.315888 206.205309 
L 369.233553 206.205309 
L 365.068882 205.315191 
L 362.986546 205.315191 
L 360.904211 204.870132 
L 358.821875 204.870132 
L 356.739539 204.425072 
L 348.410197 204.425072 
L 346.327862 203.980013 
L 340.080855 203.980013 
L 337.99852 203.534954 
L 329.669178 203.534954 
L 327.586842 203.089895 
L 321.339836 203.089895 
L 319.2575 202.644836 
L 313.010493 202.644836 
L 310.928158 202.199777 
L 304.681151 202.199777 
L 302.598816 201.754717 
L 296.351809 201.754717 
L 294.269474 201.309658 
L 290.104803 201.309658 
L 288.022467 200.864599 
L 283.857796 200.864599 
L 281.775461 200.41954 
L 277.610789 200.41954 
L 275.528454 199.974481 
L 267.199112 199.974481 
L 265.116776 199.529422 
L 260.952105 199.529422 
L 258.86977 199.084362 
L 252.622763 199.084362 
L 250.540428 198.639303 
L 244.293421 198.639303 
L 242.211086 198.194244 
L 238.046414 198.194244 
L 235.964079 197.749185 
L 229.717072 197.749185 
L 227.634737 197.304126 
L 223.470066 197.304126 
L 221.38773 196.859067 
L 219.305395 196.859067 
L 210.976053 195.07883 
L 208.893717 194.188712 
L 192.235033 190.628238 
L 190.152697 189.73812 
L 173.494013 186.177647 
L 171.411678 185.287528 
L 152.670658 181.281996 
L 150.588322 180.391877 
L 140.176645 178.166582 
L 138.094309 177.276463 
L 123.517961 174.161049 
L 121.435625 173.270931 
L 108.941612 170.600576 
L 106.859276 169.710457 
L 92.282928 166.595043 
L 90.200592 165.704925 
L 81.87125 163.924688 
L 79.788914 163.03457 
L 75.624243 162.144452 
L 73.541908 161.254333 
L 69.377237 160.364215 
L 67.294901 159.474097 
L 65.212566 159.029037 
L 63.13023 158.138919 
L 58.965559 157.248801 
L 56.883224 156.358682 
L 54.800888 155.913623 
L 52.718553 155.023505 
L 48.553882 154.133387 
L 46.471546 153.243268 
L 42.306875 152.35315 
L 42.306875 152.35315 
" clip-path="url(#p4a09cf7614)" style="fill: none; stroke: #ff5a5f; stroke-width: 4"/>
   </g>
   <g id="line2d_22">
    <path d="M 675.336875 219.112025 
L 606.619803 219.112025 
L 604.537467 219.557084 
L 598.290461 219.557084 
L 596.208125 220.002143 
L 589.961118 220.002143 
L 587.878783 220.447202 
L 583.714112 220.447202 
L 581.631776 220.892262 
L 575.38477 220.892262 
L 573.302434 221.337321 
L 569.137763 221.337321 
L 567.055428 221.78238 
L 562.890757 221.78238 
L 560.808421 222.227439 
L 554.561414 222.227439 
L 552.479079 222.672498 
L 548.314408 222.672498 
L 546.232072 223.117557 
L 539.985066 223.117557 
L 537.90273 223.562617 
L 533.738059 223.562617 
L 531.655724 224.007676 
L 527.491053 224.007676 
L 525.408717 224.452735 
L 521.244046 224.452735 
L 519.161711 224.897794 
L 512.914704 224.897794 
L 510.832368 225.342853 
L 508.750033 225.342853 
L 506.667697 225.787912 
L 504.585362 225.787912 
L 502.503026 226.232972 
L 500.420691 226.232972 
L 498.338355 226.678031 
L 496.25602 226.678031 
L 494.173684 227.12309 
L 490.009013 227.12309 
L 487.926678 227.568149 
L 483.762007 227.568149 
L 481.679671 228.013208 
L 479.597336 228.013208 
L 477.515 228.458267 
L 473.350329 228.458267 
L 471.267993 228.903327 
L 469.185658 228.903327 
L 467.103322 229.348386 
L 462.938651 229.348386 
L 460.856316 229.793445 
L 458.77398 229.793445 
L 456.691645 230.238504 
L 454.609309 230.238504 
L 452.526974 230.683563 
L 448.362303 230.683563 
L 446.279967 231.128622 
L 444.197632 231.128622 
L 442.115296 231.573682 
L 440.032961 231.573682 
L 437.950625 232.018741 
L 433.785954 232.018741 
L 431.703618 232.4638 
L 429.621283 232.4638 
L 427.538947 232.908859 
L 425.456612 232.908859 
L 423.374276 233.353918 
L 419.209605 233.353918 
L 417.12727 233.798977 
L 415.044934 233.798977 
L 412.962599 234.244037 
L 408.797928 234.244037 
L 406.715592 234.689096 
L 404.633257 234.689096 
L 402.550921 235.134155 
L 398.38625 235.134155 
L 396.303914 235.579214 
L 394.221579 235.579214 
L 392.139243 236.024273 
L 390.056908 236.024273 
L 387.974572 236.469332 
L 383.809901 236.469332 
L 381.727566 236.914392 
L 379.64523 236.914392 
L 377.562895 237.359451 
L 375.480559 237.359451 
L 373.398224 237.80451 
L 369.233553 237.80451 
L 367.151217 238.249569 
L 365.068882 238.249569 
L 362.986546 238.694628 
L 360.904211 238.694628 
L 358.821875 239.139687 
L 352.574868 239.139687 
L 350.492533 239.584747 
L 346.327862 239.584747 
L 344.245526 240.029806 
L 335.916184 240.029806 
L 333.833849 240.474865 
L 329.669178 240.474865 
L 327.586842 240.919924 
L 321.339836 240.919924 
L 319.2575 241.364983 
L 313.010493 241.364983 
L 310.928158 241.810042 
L 304.681151 241.810042 
L 302.598816 242.255102 
L 298.434145 242.255102 
L 296.351809 242.700161 
L 292.187138 242.700161 
L 290.104803 243.14522 
L 283.857796 243.14522 
L 281.775461 243.590279 
L 277.610789 243.590279 
L 275.528454 244.035338 
L 269.281447 244.035338 
L 267.199112 244.480397 
L 260.952105 244.480397 
L 258.86977 244.925457 
L 254.705099 244.925457 
L 252.622763 245.370516 
L 246.375757 245.370516 
L 244.293421 245.815575 
L 240.12875 245.815575 
L 238.046414 246.260634 
L 233.881743 246.260634 
L 231.799408 246.705693 
L 225.552401 246.705693 
L 223.470066 247.150752 
L 219.305395 247.150752 
L 213.058388 248.48593 
L 210.976053 249.376048 
L 188.070362 254.271699 
L 185.988026 255.161817 
L 171.411678 258.277232 
L 169.329342 259.16735 
L 148.505987 263.617942 
L 146.423651 264.50806 
L 125.600296 268.958652 
L 123.517961 269.84877 
L 106.859276 273.409243 
L 104.776941 274.299362 
L 86.035921 278.304894 
L 83.953586 279.195012 
L 75.624243 280.975249 
L 73.541908 281.865367 
L 69.377237 282.755486 
L 67.294901 283.645604 
L 65.212566 284.090663 
L 63.13023 284.980782 
L 58.965559 285.8709 
L 56.883224 286.761018 
L 54.800888 287.206077 
L 52.718553 288.096196 
L 46.471546 289.431373 
L 44.389211 290.321492 
L 42.306875 290.766551 
L 42.306875 290.766551 
" clip-path="url(#p4a09cf7614)" style="fill: none; stroke: #2196f3; stroke-width: 4"/>
   </g>
   <g id="line2d_23">
    <defs>
     <path id="m4de17f2f7b" d="M 0 2.5 
C 0.663008 2.5 1.29895 2.236584 1.767767 1.767767 
C 2.236584 1.29895 2.5 0.663008 2.5 0 
C 2.5 -0.663008 2.236584 -1.29895 1.767767 -1.767767 
C 1.29895 -2.236584 0.663008 -2.5 0 -2.5 
C -0.663008 -2.5 -1.29895 -2.236584 -1.767767 -1.767767 
C -2.236584 -1.29895 -2.5 -0.663008 -2.5 0 
C -2.5 0.663008 -2.236584 1.29895 -1.767767 1.767767 
C -1.29895 2.236584 -0.663008 2.5 0 2.5 
z
" style="stroke: #2196f3; stroke-opacity: 0.5; stroke-width: 2"/>
    </defs>
    <g clip-path="url(#p4a09cf7614)">
     <use xlink:href="#m4de17f2f7b" x="607.66097" y="236.914392" style="fill: #2196f3; fill-opacity: 0.5; stroke: #2196f3; stroke-opacity: 0.5; stroke-width: 2"/>
     <use xlink:href="#m4de17f2f7b" x="79.788914" y="299.222675" style="fill: #2196f3; fill-opacity: 0.5; stroke: #2196f3; stroke-opacity: 0.5; stroke-width: 2"/>
     <use xlink:href="#m4de17f2f7b" x="509.791201" y="228.013208" style="fill: #2196f3; fill-opacity: 0.5; stroke: #2196f3; stroke-opacity: 0.5; stroke-width: 2"/>
     <use xlink:href="#m4de17f2f7b" x="220.346563" y="195.523889" style="fill: #2196f3; fill-opacity: 0.5; stroke: #2196f3; stroke-opacity: 0.5; stroke-width: 2"/>
     <use xlink:href="#m4de17f2f7b" x="358.821875" y="195.523889" style="fill: #2196f3; fill-opacity: 0.5; stroke: #2196f3; stroke-opacity: 0.5; stroke-width: 2"/>
     <use xlink:href="#m4de17f2f7b" x="504.585362" y="183.507292" style="fill: #2196f3; fill-opacity: 0.5; stroke: #2196f3; stroke-opacity: 0.5; stroke-width: 2"/>
    </g>
   </g>
   <g id="line2d_24">
    <defs>
     <path id="m8a75503b9a" d="M 0 2.5 
C 0.663008 2.5 1.29895 2.236584 1.767767 1.767767 
C 2.236584 1.29895 2.5 0.663008 2.5 0 
C 2.5 -0.663008 2.236584 -1.29895 1.767767 -1.767767 
C 1.29895 -2.236584 0.663008 -2.5 0 -2.5 
C -0.663008 -2.5 -1.29895 -2.236584 -1.767767 -1.767767 
C -2.236584 -1.29895 -2.5 -0.663008 -2.5 0 
C -2.5 0.663008 -2.236584 1.29895 -1.767767 1.767767 
C -1.29895 2.236584 -0.663008 2.5 0 2.5 
z
" style="stroke: #bcbd22; stroke-opacity: 0.5; stroke-width: 2"/>
    </defs>
    <g clip-path="url(#p4a09cf7614)">
     <use xlink:href="#m8a75503b9a" x="607.66097" y="121.199008" style="fill: #bcbd22; fill-opacity: 0.5; stroke: #bcbd22; stroke-opacity: 0.5; stroke-width: 2"/>
     <use xlink:href="#m8a75503b9a" x="79.788914" y="143.451967" style="fill: #bcbd22; fill-opacity: 0.5; stroke: #bcbd22; stroke-opacity: 0.5; stroke-width: 2"/>
     <use xlink:href="#m8a75503b9a" x="509.791201" y="143.451967" style="fill: #bcbd22; fill-opacity: 0.5; stroke: #bcbd22; stroke-opacity: 0.5; stroke-width: 2"/>
     <use xlink:href="#m8a75503b9a" x="220.346563" y="184.39741" style="fill: #bcbd22; fill-opacity: 0.5; stroke: #bcbd22; stroke-opacity: 0.5; stroke-width: 2"/>
     <use xlink:href="#m8a75503b9a" x="358.821875" y="183.507292" style="fill: #bcbd22; fill-opacity: 0.5; stroke: #bcbd22; stroke-opacity: 0.5; stroke-width: 2"/>
     <use xlink:href="#m8a75503b9a" x="504.585362" y="173.270931" style="fill: #bcbd22; fill-opacity: 0.5; stroke: #bcbd22; stroke-opacity: 0.5; stroke-width: 2"/>
    </g>
   </g>
   <g id="line2d_25">
    <defs>
     <path id="m836195d754" d="M 0 2.5 
C 0.663008 2.5 1.29895 2.236584 1.767767 1.767767 
C 2.236584 1.29895 2.5 0.663008 2.5 0 
C 2.5 -0.663008 2.236584 -1.29895 1.767767 -1.767767 
C 1.29895 -2.236584 0.663008 -2.5 0 -2.5 
C -0.663008 -2.5 -1.29895 -2.236584 -1.767767 -1.767767 
C -2.236584 -1.29895 -2.5 -0.663008 -2.5 0 
C -2.5 0.663008 -2.236584 1.29895 -1.767767 1.767767 
C -1.29895 2.236584 -0.663008 2.5 0 2.5 
z
" style="stroke: #ff5a5f; stroke-opacity: 0.5; stroke-width: 2"/>
    </defs>
    <g clip-path="url(#p4a09cf7614)">
     <use xlink:href="#m836195d754" x="607.66097" y="232.4638" style="fill: #ff5a5f; fill-opacity: 0.5; stroke: #ff5a5f; stroke-opacity: 0.5; stroke-width: 2"/>
     <use xlink:href="#m836195d754" x="79.788914" y="143.451967" style="fill: #ff5a5f; fill-opacity: 0.5; stroke: #ff5a5f; stroke-opacity: 0.5; stroke-width: 2"/>
     <use xlink:href="#m836195d754" x="509.791201" y="236.914392" style="fill: #ff5a5f; fill-opacity: 0.5; stroke: #ff5a5f; stroke-opacity: 0.5; stroke-width: 2"/>
     <use xlink:href="#m836195d754" x="220.346563" y="216.44167" style="fill: #ff5a5f; fill-opacity: 0.5; stroke: #ff5a5f; stroke-opacity: 0.5; stroke-width: 2"/>
     <use xlink:href="#m836195d754" x="358.821875" y="214.216374" style="fill: #ff5a5f; fill-opacity: 0.5; stroke: #ff5a5f; stroke-opacity: 0.5; stroke-width: 2"/>
     <use xlink:href="#m836195d754" x="504.585362" y="232.4638" style="fill: #ff5a5f; fill-opacity: 0.5; stroke: #ff5a5f; stroke-opacity: 0.5; stroke-width: 2"/>
    </g>
   </g>
   <g id="line2d_26">
    <path d="M 42.306875 339.278 
L 675.336875 339.278 
" clip-path="url(#p4a09cf7614)" style="fill: none; stroke: #000000; stroke-opacity: 0.7; stroke-width: 4"/>
   </g>
   <g id="text_14">
    <text style="fill: #222222; font: 700 26px 'Roboto', 'Arial', 'DejaVu Sans', sans-serif" transform="translate(42.306875 22.626875)">Avaliação do governo de Ricardo Nunes (MDB)</text>
    <text style="fill: #222222; font: 700 26px 'Roboto', 'Arial', 'DejaVu Sans', sans-serif" transform="translate(42.306875 52.2425)"/>
   </g>
   <g id="legend_1">
    <g id="patch_3">
     <path d="M 437.673594 109.369844 
L 664.836875 109.369844 
Q 667.836875 109.369844 667.836875 106.369844 
L 667.836875 82.7425 
Q 667.836875 79.7425 664.836875 79.7425 
L 437.673594 79.7425 
Q 434.673594 79.7425 434.673594 82.7425 
L 434.673594 106.369844 
Q 434.673594 109.369844 437.673594 109.369844 
z
" style="fill: #ffffff; opacity: 0.7; stroke: #ffffff; stroke-width: 0.5; stroke-linejoin: miter"/>
    </g>
    <g id="line2d_27">
     <path d="M 442.173594 93.868281 
L 445.923594 93.868281 
L 449.673594 93.868281 
" style="fill: none; stroke: #2196f3; stroke-width: 4"/>
    </g>
    <g id="text_15">
     <text style="fill: #222222; font: 15px 'Roboto', 'Arial', 'DejaVu Sans', sans-serif; text-anchor: start" x="457.173594" y="98.668281" transform="rotate(-0 457.173594 98.668281)">positiva</text>
    </g>
    <g id="line2d_28">
     <path d="M 517.865 93.868281 
L 521.615 93.868281 
L 525.365 93.868281 
" style="fill: none; stroke: #bcbd22; stroke-width: 4"/>
    </g>
    <g id="text_16">
     <text style="fill: #222222; font: 15px 'Roboto', 'Arial', 'DejaVu Sans', sans-serif; text-anchor: start" x="532.865" y="98.668281" transform="rotate(-0 532.865 98.668281)">regular</text>
    </g>
    <g id="line2d_29">
     <path d="M 587.67125 93.868281 
L 591.42125 93.868281 
L 595.17125 93.868281 
" style="fill: none; stroke: #ff5a5f; stroke-width: 4"/>
    </g>
    <g id="text_17">
     <text style="fill: #222222; font: 15px 'Roboto', 'Arial', 'DejaVu Sans', sans-serif; text-anchor: start" x="602.67125" y="98.668281" transform="rotate(-0 602.67125 98.668281)">negativa</text>
    </g>
   </g>
  </g>
 </g>
 <defs>
  <clipPath id="p4a09cf7614">
   <rect x="42.306875" y="72.2425" width="633.03" height="267.0355"/>
  </clipPath>
 </defs>
</svg>
