<?xml version="1.0" encoding="utf-8" standalone="no"?>
<!DOCTYPE svg PUBLIC "-//W3C//DTD SVG 1.1//EN"
  "http://www.w3.org/Graphics/SVG/1.1/DTD/svg11.dtd">
<svg xmlns:xlink="http://www.w3.org/1999/xlink" width="1006.319814pt" height="574.31952pt" viewBox="0 0 1006.319814 574.31952" xmlns="http://www.w3.org/2000/svg" version="1.1">
 <metadata>
  <rdf:RDF xmlns:dc="http://purl.org/dc/elements/1.1/" xmlns:cc="http://creativecommons.org/ns#" xmlns:rdf="http://www.w3.org/1999/02/22-rdf-syntax-ns#">
   <cc:Work>
    <dc:type rdf:resource="http://purl.org/dc/dcmitype/StillImage"/>
    <dc:date>2023-05-18T11:12:52.696641</dc:date>
    <dc:format>image/svg+xml</dc:format>
    <dc:creator>
     <cc:Agent>
      <dc:title>Matplotlib v3.7.1, https://matplotlib.org/</dc:title>
     </cc:Agent>
    </dc:creator>
   </cc:Work>
  </rdf:RDF>
 </metadata>
 <defs>
  <style type="text/css">*{stroke-linejoin: round; stroke-linecap: butt}</style>
 </defs>
 <g id="figure_1">
  <g id="patch_1">
   <path d="M 0 574.31952 
L 1006.319814 574.31952 
L 1006.319814 0 
L 0 0 
L 0 574.31952 
z
" style="fill: none"/>
  </g>
  <g id="axes_1">
   <g id="patch_2">
    <path d="M 51.593594 546.862645 
L 964.063128 546.862645 
L 964.063128 14.220547 
L 51.593594 14.220547 
L 51.593594 546.862645 
z
" style="fill: none"/>
   </g>
   <g id="matplotlib.axis_1">
    <g id="xtick_1">
     <g id="line2d_1">
      <path d="M 51.593594 546.862645 
L 51.593594 14.220547 
" clip-path="url(#p58c068fc9d)" style="fill: none; stroke-dasharray: 0.7,2.1; stroke-dashoffset: 0; stroke: #000000; stroke-opacity: 0.5; stroke-width: 0.7"/>
     </g>
     <g id="line2d_2"/>
    </g>
    <g id="xtick_2">
     <g id="line2d_3">
      <path d="M 203.67185 546.862645 
L 203.67185 14.220547 
" clip-path="url(#p58c068fc9d)" style="fill: none; stroke-dasharray: 0.7,2.1; stroke-dashoffset: 0; stroke: #000000; stroke-opacity: 0.5; stroke-width: 0.7"/>
     </g>
     <g id="line2d_4"/>
     <g id="text_1">
      <text style="fill: #333333; font: 20px 'Roboto', 'Arial', 'DejaVu Sans', sans-serif; text-anchor: middle" x="203.67185" y="568.09702" transform="rotate(-0 203.67185 568.09702)">1 MÊS</text>
     </g>
    </g>
    <g id="xtick_3">
     <g id="line2d_5">
      <path d="M 355.750105 546.862645 
L 355.750105 14.220547 
" clip-path="url(#p58c068fc9d)" style="fill: none; stroke-dasharray: 0.7,2.1; stroke-dashoffset: 0; stroke: #000000; stroke-opacity: 0.5; stroke-width: 0.7"/>
     </g>
     <g id="line2d_6"/>
     <g id="text_2">
      <text style="fill: #333333; font: 20px 'Roboto', 'Arial', 'DejaVu Sans', sans-serif; text-anchor: middle" x="355.750105" y="568.09702" transform="rotate(-0 355.750105 568.09702)">2</text>
     </g>
    </g>
    <g id="xtick_4">
     <g id="line2d_7">
      <path d="M 507.828361 546.862645 
L 507.828361 14.220547 
" clip-path="url(#p58c068fc9d)" style="fill: none; stroke-dasharray: 0.7,2.1; stroke-dashoffset: 0; stroke: #000000; stroke-opacity: 0.5; stroke-width: 0.7"/>
     </g>
     <g id="line2d_8"/>
     <g id="text_3">
      <text style="fill: #333333; font: 20px 'Roboto', 'Arial', 'DejaVu Sans', sans-serif; text-anchor: middle" x="507.828361" y="568.09702" transform="rotate(-0 507.828361 568.09702)">3</text>
     </g>
    </g>
    <g id="xtick_5">
     <g id="line2d_9">
      <path d="M 659.906617 546.862645 
L 659.906617 14.220547 
" clip-path="url(#p58c068fc9d)" style="fill: none; stroke-dasharray: 0.7,2.1; stroke-dashoffset: 0; stroke: #000000; stroke-opacity: 0.5; stroke-width: 0.7"/>
     </g>
     <g id="line2d_10"/>
     <g id="text_4">
      <text style="fill: #333333; font: 20px 'Roboto', 'Arial', 'DejaVu Sans', sans-serif; text-anchor: middle" x="659.906617" y="568.09702" transform="rotate(-0 659.906617 568.09702)">4</text>
     </g>
    </g>
    <g id="xtick_6">
     <g id="line2d_11">
      <path d="M 811.984873 546.862645 
L 811.984873 14.220547 
" clip-path="url(#p58c068fc9d)" style="fill: none; stroke-dasharray: 0.7,2.1; stroke-dashoffset: 0; stroke: #000000; stroke-opacity: 0.5; stroke-width: 0.7"/>
     </g>
     <g id="line2d_12"/>
     <g id="text_5">
      <text style="fill: #333333; font: 20px 'Roboto', 'Arial', 'DejaVu Sans', sans-serif; text-anchor: middle" x="811.984873" y="568.09702" transform="rotate(-0 811.984873 568.09702)">5</text>
     </g>
    </g>
    <g id="xtick_7">
     <g id="line2d_13">
      <path d="M 964.063128 546.862645 
L 964.063128 14.220547 
" clip-path="url(#p58c068fc9d)" style="fill: none; stroke-dasharray: 0.7,2.1; stroke-dashoffset: 0; stroke: #000000; stroke-opacity: 0.5; stroke-width: 0.7"/>
     </g>
     <g id="line2d_14"/>
     <g id="text_6">
      <text style="fill: #333333; font: 20px 'Roboto', 'Arial', 'DejaVu Sans', sans-serif; text-anchor: middle" x="964.063128" y="568.09702" transform="rotate(-0 964.063128 568.09702)">6</text>
     </g>
    </g>
   </g>
   <g id="matplotlib.axis_2">
    <g id="ytick_1">
     <g id="line2d_15">
      <path d="M 51.593594 546.862645 
L 964.063128 546.862645 
" clip-path="url(#p58c068fc9d)" style="fill: none; stroke-dasharray: 0.7,2.1; stroke-dashoffset: 0; stroke: #000000; stroke-opacity: 0.5; stroke-width: 0.7"/>
     </g>
     <g id="text_7">
      <text style="fill: #a3a3a3; font: 25px 'Roboto', 'Arial', 'DejaVu Sans', sans-serif; text-anchor: end" x="48.593594" y="553.845067" transform="rotate(-0 48.593594 553.845067)">0%</text>
     </g>
    </g>
    <g id="ytick_2">
     <g id="line2d_16">
      <path d="M 51.593594 369.315279 
L 964.063128 369.315279 
" clip-path="url(#p58c068fc9d)" style="fill: none; stroke-dasharray: 0.7,2.1; stroke-dashoffset: 0; stroke: #000000; stroke-opacity: 0.5; stroke-width: 0.7"/>
     </g>
     <g id="text_8">
      <text style="fill: #a3a3a3; font: 25px 'Roboto', 'Arial', 'DejaVu Sans', sans-serif; text-anchor: end" x="48.593594" y="376.297701" transform="rotate(-0 48.593594 376.297701)">25%</text>
     </g>
    </g>
    <g id="ytick_3">
     <g id="line2d_17">
      <path d="M 51.593594 191.767913 
L 964.063128 191.767913 
" clip-path="url(#p58c068fc9d)" style="fill: none; stroke-dasharray: 0.7,2.1; stroke-dashoffset: 0; stroke: #000000; stroke-opacity: 0.5; stroke-width: 0.7"/>
     </g>
     <g id="text_9">
      <text style="fill: #3b4252; font: 25px 'Roboto', 'Arial', 'DejaVu Sans', sans-serif; text-anchor: end" x="48.593594" y="198.750335" transform="rotate(-0 48.593594 198.750335)">50%</text>
     </g>
    </g>
    <g id="ytick_4">
     <g id="line2d_18">
      <path d="M 51.593594 14.220547 
L 964.063128 14.220547 
" clip-path="url(#p58c068fc9d)" style="fill: none; stroke-dasharray: 0.7,2.1; stroke-dashoffset: 0; stroke: #000000; stroke-opacity: 0.5; stroke-width: 0.7"/>
     </g>
     <g id="text_10">
      <text style="fill: #a3a3a3; font: 25px 'Roboto', 'Arial', 'DejaVu Sans', sans-serif; text-anchor: end" x="48.593594" y="21.202969" transform="rotate(-0 48.593594 21.202969)">75%</text>
     </g>
    </g>
   </g>
   <g id="line2d_19">
    <path d="M 51.593594 168.331661 
L 89.613158 165.490903 
L 127.632722 160.519576 
L 165.652286 156.359895 
L 203.67185 152.808948 
L 241.691413 149.055089 
L 279.710977 157.272996 
L 393.769669 212.566319 
L 431.789233 230.828333 
L 469.808797 245.133578 
L 507.828361 247.771425 
L 545.847925 250.003449 
L 583.867489 252.032562 
L 621.887053 254.366041 
L 697.926181 258.525723 
L 735.945745 260.656291 
L 773.965309 262.989771 
L 811.984873 263.395593 
L 850.004437 261.36648 
L 926.043564 255.177687 
L 964.063128 251.322372 
L 1002.082692 247.872881 
L 1007.319814 247.691201 
L 1007.319814 247.691201 
" clip-path="url(#p58c068fc9d)" style="fill: none; stroke: #bcbd22; stroke-width: 4"/>
   </g>
   <g id="line2d_20">
    <path d="M 51.593594 210.232839 
L 89.613158 212.76923 
L 127.632722 223.320616 
L 165.652286 227.987576 
L 203.67185 232.654535 
L 241.691413 236.915672 
L 279.710977 242.597187 
L 317.730541 246.655413 
L 355.750105 250.20636 
L 393.769669 254.87332 
L 431.789233 256.395154 
L 469.808797 258.018444 
L 507.828361 261.569392 
L 545.847925 264.714516 
L 583.867489 263.192682 
L 621.887053 262.381037 
L 659.906617 264.41015 
L 697.926181 266.439262 
L 735.945745 267.758186 
L 773.965309 267.758186 
L 811.984873 267.758186 
L 850.004437 267.758186 
" clip-path="url(#p58c068fc9d)" style="fill: none; stroke: #1f77b4; stroke-width: 4"/>
   </g>
   <g id="line2d_21">
    <path d="M 51.593594 546.862645 
L 964.063128 546.862645 
" clip-path="url(#p58c068fc9d)" style="fill: none; stroke: #000000; stroke-opacity: 0.5; stroke-width: 6"/>
   </g>
   <g id="line2d_22">
    <path d="M 51.593594 546.862645 
L 51.593594 14.220547 
" clip-path="url(#p58c068fc9d)" style="fill: none; stroke: #808080; stroke-opacity: 0.1; stroke-width: 2"/>
   </g>
   <g id="line2d_23">
    <path d="M 203.67185 546.862645 
L 203.67185 14.220547 
" clip-path="url(#p58c068fc9d)" style="fill: none; stroke: #808080; stroke-opacity: 0.1; stroke-width: 4.5"/>
   </g>
   <g id="line2d_24">
    <path d="M 355.750105 546.862645 
L 355.750105 14.220547 
" clip-path="url(#p58c068fc9d)" style="fill: none; stroke: #808080; stroke-opacity: 0.1; stroke-width: 2"/>
   </g>
   <g id="line2d_25">
    <path d="M 507.828361 546.862645 
L 507.828361 14.220547 
" clip-path="url(#p58c068fc9d)" style="fill: none; stroke: #808080; stroke-opacity: 0.1; stroke-width: 2"/>
   </g>
   <g id="line2d_26">
    <path d="M 659.906617 546.862645 
L 659.906617 14.220547 
" clip-path="url(#p58c068fc9d)" style="fill: none; stroke: #808080; stroke-opacity: 0.1; stroke-width: 2"/>
   </g>
   <g id="line2d_27">
    <path d="M 811.984873 546.862645 
L 811.984873 14.220547 
" clip-path="url(#p58c068fc9d)" style="fill: none; stroke: #808080; stroke-opacity: 0.1; stroke-width: 2"/>
   </g>
   <g id="line2d_28">
    <path d="M 964.063128 546.862645 
L 964.063128 14.220547 
" clip-path="url(#p58c068fc9d)" style="fill: none; stroke: #808080; stroke-opacity: 0.1; stroke-width: 3.5"/>
   </g>
   <g id="line2d_29">
    <path d="M 51.593594 546.862645 
L 964.063128 546.862645 
" clip-path="url(#p58c068fc9d)" style="fill: none; stroke: #808080; stroke-opacity: 0.2; stroke-width: 2"/>
   </g>
   <g id="line2d_30">
    <path d="M 51.593594 369.315279 
L 964.063128 369.315279 
" clip-path="url(#p58c068fc9d)" style="fill: none; stroke: #808080; stroke-opacity: 0.2; stroke-width: 3.5"/>
   </g>
   <g id="line2d_31">
    <path d="M 51.593594 191.767913 
L 964.063128 191.767913 
" clip-path="url(#p58c068fc9d)" style="fill: none; stroke: #808080; stroke-opacity: 0.2; stroke-width: 3.5"/>
   </g>
   <g id="line2d_32">
    <path d="M 51.593594 14.220547 
L 964.063128 14.220547 
" clip-path="url(#p58c068fc9d)" style="fill: none; stroke: #808080; stroke-opacity: 0.2; stroke-width: 2"/>
   </g>
   <g id="text_11">
    <text style="fill: #bcbd22; font: 700 24px 'Roboto', 'Arial', 'DejaVu Sans', sans-serif; text-anchor: start" x="926.043564" y="325.283532" transform="rotate(-0 926.043564 325.283532)">FHC 1</text>
   </g>
   <g id="text_12">
    <text style="fill: #1f77b4; font: 700 24px 'Roboto', 'Arial', 'DejaVu Sans', sans-serif; text-anchor: start" x="926.043564" y="225.146818" transform="rotate(-0 926.043564 225.146818)">LULA 3</text>
   </g>
   <g id="patch_3">
    <path d="M 872.217104 302.728013 
Q 859.509328 290.228869 859.509328 265.021949 
L 859.509328 266.16422 
" style="fill: none; stroke: #bcbd22; stroke-width: 2.5; stroke-linecap: round"/>
    <path d="M 855.109328 274.96422 
L 859.509328 266.16422 
L 863.909328 274.96422 
" style="fill: none; stroke: #bcbd22; stroke-width: 2.5; stroke-linecap: round"/>
   </g>
   <g id="text_13">
    <g id="patch_4">
     <path d="M 880.509328 332.23523 
L 922.006828 332.23523 
Q 928.606828 332.23523 928.606828 325.63523 
L 928.606828 304.408668 
Q 928.606828 297.808668 922.006828 297.808668 
L 880.509328 297.808668 
Q 873.909328 297.808668 873.909328 304.408668 
L 873.909328 325.63523 
Q 873.909328 332.23523 880.509328 332.23523 
z
" style="fill: #fafafa; stroke: #bcbd22; stroke-width: 0.5; stroke-linejoin: miter"/>
    </g>
    <text style="fill: #bcbd22; font: 700 22px 'Roboto', 'Arial', 'DejaVu Sans', sans-serif; text-anchor: start" x="880.509328" y="321.16648" transform="rotate(-0 880.509328 321.16648)">40%</text>
   </g>
   <g id="patch_5">
    <path d="M 872.217104 234.607591 
Q 859.509328 247.106734 859.509328 272.313654 
L 859.509328 272.550737 
" style="fill: none; stroke: #1f77b4; stroke-width: 2.5; stroke-linecap: round"/>
    <path d="M 855.109328 281.350737 
L 859.509328 272.550737 
L 863.909328 281.350737 
" style="fill: none; stroke: #1f77b4; stroke-width: 2.5; stroke-linecap: round"/>
   </g>
   <g id="text_14">
    <g id="patch_6">
     <path d="M 880.509328 239.526936 
L 922.006828 239.526936 
Q 928.606828 239.526936 928.606828 232.926936 
L 928.606828 211.700373 
Q 928.606828 205.100373 922.006828 205.100373 
L 880.509328 205.100373 
Q 873.909328 205.100373 873.909328 211.700373 
L 873.909328 232.926936 
Q 873.909328 239.526936 880.509328 239.526936 
z
" style="fill: #fafafa; stroke: #1f77b4; stroke-width: 0.5; stroke-linejoin: miter"/>
    </g>
    <text style="fill: #1f77b4; font: 700 22px 'Roboto', 'Arial', 'DejaVu Sans', sans-serif; text-anchor: start" x="880.509328" y="228.458186" transform="rotate(-0 880.509328 228.458186)">39%</text>
   </g>
  </g>
 </g>
 <defs>
  <clipPath id="p58c068fc9d">
   <rect x="51.593594" y="14.220547" width="912.469535" height="532.642098"/>
  </clipPath>
 </defs>
</svg>
