<?xml version="1.0" encoding="utf-8" standalone="no"?>
<!DOCTYPE svg PUBLIC "-//W3C//DTD SVG 1.1//EN"
  "http://www.w3.org/Graphics/SVG/1.1/DTD/svg11.dtd">
<svg xmlns:xlink="http://www.w3.org/1999/xlink" width="1006.320022pt" height="574.31952pt" viewBox="0 0 1006.320022 574.31952" xmlns="http://www.w3.org/2000/svg" version="1.1">
 <metadata>
  <rdf:RDF xmlns:dc="http://purl.org/dc/elements/1.1/" xmlns:cc="http://creativecommons.org/ns#" xmlns:rdf="http://www.w3.org/1999/02/22-rdf-syntax-ns#">
   <cc:Work>
    <dc:type rdf:resource="http://purl.org/dc/dcmitype/StillImage"/>
    <dc:date>2023-05-18T11:12:58.823323</dc:date>
    <dc:format>image/svg+xml</dc:format>
    <dc:creator>
     <cc:Agent>
      <dc:title>Matplotlib v3.7.1, https://matplotlib.org/</dc:title>
     </cc:Agent>
    </dc:creator>
   </cc:Work>
  </rdf:RDF>
 </metadata>
 <defs>
  <style type="text/css">*{stroke-linejoin: round; stroke-linecap: butt}</style>
 </defs>
 <g id="figure_1">
  <g id="patch_1">
   <path d="M 0 574.31952 
L 1006.320022 574.31952 
L 1006.320022 0 
L 0 0 
L 0 574.31952 
z
" style="fill: none"/>
  </g>
  <g id="axes_1">
   <g id="patch_2">
    <path d="M 51.593594 546.862645 
L 949.19378 546.862645 
L 949.19378 14.220547 
L 51.593594 14.220547 
L 51.593594 546.862645 
z
" style="fill: none"/>
   </g>
   <g id="matplotlib.axis_1">
    <g id="xtick_1">
     <g id="line2d_1">
      <path d="M 51.593594 546.862645 
L 51.593594 14.220547 
" clip-path="url(#p8630f8a0b9)" style="fill: none; stroke-dasharray: 0.7,2.1; stroke-dashoffset: 0; stroke: #000000; stroke-opacity: 0.5; stroke-width: 0.7"/>
     </g>
     <g id="line2d_2"/>
    </g>
    <g id="xtick_2">
     <g id="line2d_3">
      <path d="M 201.193625 546.862645 
L 201.193625 14.220547 
" clip-path="url(#p8630f8a0b9)" style="fill: none; stroke-dasharray: 0.7,2.1; stroke-dashoffset: 0; stroke: #000000; stroke-opacity: 0.5; stroke-width: 0.7"/>
     </g>
     <g id="line2d_4"/>
     <g id="text_1">
      <text style="fill: #333333; font: 20px 'Roboto', 'Arial', 'DejaVu Sans', sans-serif; text-anchor: middle" x="201.193625" y="568.09702" transform="rotate(-0 201.193625 568.09702)">1 MÊS</text>
     </g>
    </g>
    <g id="xtick_3">
     <g id="line2d_5">
      <path d="M 350.793656 546.862645 
L 350.793656 14.220547 
" clip-path="url(#p8630f8a0b9)" style="fill: none; stroke-dasharray: 0.7,2.1; stroke-dashoffset: 0; stroke: #000000; stroke-opacity: 0.5; stroke-width: 0.7"/>
     </g>
     <g id="line2d_6"/>
     <g id="text_2">
      <text style="fill: #333333; font: 20px 'Roboto', 'Arial', 'DejaVu Sans', sans-serif; text-anchor: middle" x="350.793656" y="568.09702" transform="rotate(-0 350.793656 568.09702)">2</text>
     </g>
    </g>
    <g id="xtick_4">
     <g id="line2d_7">
      <path d="M 500.393687 546.862645 
L 500.393687 14.220547 
" clip-path="url(#p8630f8a0b9)" style="fill: none; stroke-dasharray: 0.7,2.1; stroke-dashoffset: 0; stroke: #000000; stroke-opacity: 0.5; stroke-width: 0.7"/>
     </g>
     <g id="line2d_8"/>
     <g id="text_3">
      <text style="fill: #333333; font: 20px 'Roboto', 'Arial', 'DejaVu Sans', sans-serif; text-anchor: middle" x="500.393687" y="568.09702" transform="rotate(-0 500.393687 568.09702)">3</text>
     </g>
    </g>
    <g id="xtick_5">
     <g id="line2d_9">
      <path d="M 649.993718 546.862645 
L 649.993718 14.220547 
" clip-path="url(#p8630f8a0b9)" style="fill: none; stroke-dasharray: 0.7,2.1; stroke-dashoffset: 0; stroke: #000000; stroke-opacity: 0.5; stroke-width: 0.7"/>
     </g>
     <g id="line2d_10"/>
     <g id="text_4">
      <text style="fill: #333333; font: 20px 'Roboto', 'Arial', 'DejaVu Sans', sans-serif; text-anchor: middle" x="649.993718" y="568.09702" transform="rotate(-0 649.993718 568.09702)">4</text>
     </g>
    </g>
    <g id="xtick_6">
     <g id="line2d_11">
      <path d="M 799.593749 546.862645 
L 799.593749 14.220547 
" clip-path="url(#p8630f8a0b9)" style="fill: none; stroke-dasharray: 0.7,2.1; stroke-dashoffset: 0; stroke: #000000; stroke-opacity: 0.5; stroke-width: 0.7"/>
     </g>
     <g id="line2d_12"/>
     <g id="text_5">
      <text style="fill: #333333; font: 20px 'Roboto', 'Arial', 'DejaVu Sans', sans-serif; text-anchor: middle" x="799.593749" y="568.09702" transform="rotate(-0 799.593749 568.09702)">5</text>
     </g>
    </g>
    <g id="xtick_7">
     <g id="line2d_13">
      <path d="M 949.19378 546.862645 
L 949.19378 14.220547 
" clip-path="url(#p8630f8a0b9)" style="fill: none; stroke-dasharray: 0.7,2.1; stroke-dashoffset: 0; stroke: #000000; stroke-opacity: 0.5; stroke-width: 0.7"/>
     </g>
     <g id="line2d_14"/>
     <g id="text_6">
      <text style="fill: #333333; font: 20px 'Roboto', 'Arial', 'DejaVu Sans', sans-serif; text-anchor: middle" x="949.19378" y="568.09702" transform="rotate(-0 949.19378 568.09702)">6</text>
     </g>
    </g>
   </g>
   <g id="matplotlib.axis_2">
    <g id="ytick_1">
     <g id="line2d_15">
      <path d="M 51.593594 546.862645 
L 949.19378 546.862645 
" clip-path="url(#p8630f8a0b9)" style="fill: none; stroke-dasharray: 0.7,2.1; stroke-dashoffset: 0; stroke: #000000; stroke-opacity: 0.5; stroke-width: 0.7"/>
     </g>
     <g id="text_7">
      <text style="fill: #a3a3a3; font: 25px 'Roboto', 'Arial', 'DejaVu Sans', sans-serif; text-anchor: end" x="48.593594" y="553.845067" transform="rotate(-0 48.593594 553.845067)">0%</text>
     </g>
    </g>
    <g id="ytick_2">
     <g id="line2d_16">
      <path d="M 51.593594 369.315279 
L 949.19378 369.315279 
" clip-path="url(#p8630f8a0b9)" style="fill: none; stroke-dasharray: 0.7,2.1; stroke-dashoffset: 0; stroke: #000000; stroke-opacity: 0.5; stroke-width: 0.7"/>
     </g>
     <g id="text_8">
      <text style="fill: #a3a3a3; font: 25px 'Roboto', 'Arial', 'DejaVu Sans', sans-serif; text-anchor: end" x="48.593594" y="376.297701" transform="rotate(-0 48.593594 376.297701)">25%</text>
     </g>
    </g>
    <g id="ytick_3">
     <g id="line2d_17">
      <path d="M 51.593594 191.767913 
L 949.19378 191.767913 
" clip-path="url(#p8630f8a0b9)" style="fill: none; stroke-dasharray: 0.7,2.1; stroke-dashoffset: 0; stroke: #000000; stroke-opacity: 0.5; stroke-width: 0.7"/>
     </g>
     <g id="text_9">
      <text style="fill: #3b4252; font: 25px 'Roboto', 'Arial', 'DejaVu Sans', sans-serif; text-anchor: end" x="48.593594" y="198.750335" transform="rotate(-0 48.593594 198.750335)">50%</text>
     </g>
    </g>
    <g id="ytick_4">
     <g id="line2d_18">
      <path d="M 51.593594 14.220547 
L 949.19378 14.220547 
" clip-path="url(#p8630f8a0b9)" style="fill: none; stroke-dasharray: 0.7,2.1; stroke-dashoffset: 0; stroke: #000000; stroke-opacity: 0.5; stroke-width: 0.7"/>
     </g>
     <g id="text_10">
      <text style="fill: #a3a3a3; font: 25px 'Roboto', 'Arial', 'DejaVu Sans', sans-serif; text-anchor: end" x="48.593594" y="21.202969" transform="rotate(-0 48.593594 21.202969)">75%</text>
     </g>
    </g>
   </g>
   <g id="line2d_19">
    <path d="M 51.593594 228.608991 
L 88.993602 236.580868 
L 126.393609 242.647915 
L 163.793617 232.887883 
L 201.193625 221.636453 
L 238.593633 211.125649 
L 275.99364 201.984496 
L 313.393648 184.929803 
L 350.793656 164.3546 
L 388.193664 143.789542 
L 425.593671 122.980991 
L 462.993679 100.265073 
L 500.393687 94.80676 
L 537.793695 99.473719 
L 575.193703 105.246545 
L 612.59371 110.299036 
L 649.993718 103.805875 
L 687.393726 96.917037 
L 724.793734 89.987617 
L 762.193741 83.210381 
L 799.593749 76.940422 
L 836.993757 70.731337 
L 874.393765 64.654144 
L 911.793772 58.617534 
L 949.19378 52.651942 
L 986.593788 46.463149 
L 1007.320022 43.410163 
" clip-path="url(#p8630f8a0b9)" style="fill: none; stroke: #bcbd22; stroke-width: 4"/>
   </g>
   <g id="line2d_20">
    <path d="M 51.593594 349.429974 
L 88.993602 351.357631 
L 126.393609 351.560542 
L 163.793617 348.719784 
L 201.193625 345.879027 
L 238.593633 344.458648 
L 275.99364 345.676115 
L 313.393648 345.371748 
L 350.793656 343.545547 
L 388.193664 341.414979 
L 425.593671 338.574221 
L 462.993679 335.733463 
L 500.393687 332.892705 
L 537.793695 329.950492 
L 575.193703 326.906822 
L 612.59371 324.776254 
L 649.993718 325.79081 
L 687.393726 326.196633 
L 724.793734 326.906822 
L 762.193741 327.819923 
L 799.593749 328.12429 
L 836.993757 328.12429 
" clip-path="url(#p8630f8a0b9)" style="fill: none; stroke: #d62728; stroke-width: 4"/>
   </g>
   <g id="line2d_21">
    <path d="M 51.593594 546.862645 
L 949.19378 546.862645 
" clip-path="url(#p8630f8a0b9)" style="fill: none; stroke: #000000; stroke-opacity: 0.5; stroke-width: 6"/>
   </g>
   <g id="line2d_22">
    <path d="M 51.593594 546.862645 
L 51.593594 14.220547 
" clip-path="url(#p8630f8a0b9)" style="fill: none; stroke: #808080; stroke-opacity: 0.1; stroke-width: 2"/>
   </g>
   <g id="line2d_23">
    <path d="M 201.193625 546.862645 
L 201.193625 14.220547 
" clip-path="url(#p8630f8a0b9)" style="fill: none; stroke: #808080; stroke-opacity: 0.1; stroke-width: 4.5"/>
   </g>
   <g id="line2d_24">
    <path d="M 350.793656 546.862645 
L 350.793656 14.220547 
" clip-path="url(#p8630f8a0b9)" style="fill: none; stroke: #808080; stroke-opacity: 0.1; stroke-width: 2"/>
   </g>
   <g id="line2d_25">
    <path d="M 500.393687 546.862645 
L 500.393687 14.220547 
" clip-path="url(#p8630f8a0b9)" style="fill: none; stroke: #808080; stroke-opacity: 0.1; stroke-width: 2"/>
   </g>
   <g id="line2d_26">
    <path d="M 649.993718 546.862645 
L 649.993718 14.220547 
" clip-path="url(#p8630f8a0b9)" style="fill: none; stroke: #808080; stroke-opacity: 0.1; stroke-width: 2"/>
   </g>
   <g id="line2d_27">
    <path d="M 799.593749 546.862645 
L 799.593749 14.220547 
" clip-path="url(#p8630f8a0b9)" style="fill: none; stroke: #808080; stroke-opacity: 0.1; stroke-width: 2"/>
   </g>
   <g id="line2d_28">
    <path d="M 949.19378 546.862645 
L 949.19378 14.220547 
" clip-path="url(#p8630f8a0b9)" style="fill: none; stroke: #808080; stroke-opacity: 0.1; stroke-width: 3.5"/>
   </g>
   <g id="line2d_29">
    <path d="M 51.593594 546.862645 
L 949.19378 546.862645 
" clip-path="url(#p8630f8a0b9)" style="fill: none; stroke: #808080; stroke-opacity: 0.2; stroke-width: 2"/>
   </g>
   <g id="line2d_30">
    <path d="M 51.593594 369.315279 
L 949.19378 369.315279 
" clip-path="url(#p8630f8a0b9)" style="fill: none; stroke: #808080; stroke-opacity: 0.2; stroke-width: 3.5"/>
   </g>
   <g id="line2d_31">
    <path d="M 51.593594 191.767913 
L 949.19378 191.767913 
" clip-path="url(#p8630f8a0b9)" style="fill: none; stroke: #808080; stroke-opacity: 0.2; stroke-width: 3.5"/>
   </g>
   <g id="line2d_32">
    <path d="M 51.593594 14.220547 
L 949.19378 14.220547 
" clip-path="url(#p8630f8a0b9)" style="fill: none; stroke: #808080; stroke-opacity: 0.2; stroke-width: 2"/>
   </g>
   <g id="text_11">
    <text style="fill: #bcbd22; font: 700 24px 'Roboto', 'Arial', 'DejaVu Sans', sans-serif; text-anchor: start" x="911.793772" y="127.546494" transform="rotate(-0 911.793772 127.546494)">DILMA 2</text>
   </g>
   <g id="text_12">
    <text style="fill: #d62728; font: 700 24px 'Roboto', 'Arial', 'DejaVu Sans', sans-serif; text-anchor: start" x="911.793772" y="285.512922" transform="rotate(-0 911.793772 285.512922)">LULA 3</text>
   </g>
   <g id="patch_3">
    <path d="M 859.051535 105.250013 
Q 846.343759 92.750869 846.343759 67.543949 
L 846.343759 65.934796 
" style="fill: none; stroke: #bcbd22; stroke-width: 2.5; stroke-linecap: round"/>
    <path d="M 850.743759 57.134796 
L 846.343759 65.934796 
L 841.943759 57.134796 
" style="fill: none; stroke: #bcbd22; stroke-width: 2.5; stroke-linecap: round"/>
   </g>
   <g id="text_13">
    <g id="patch_4">
     <path d="M 867.343759 134.75723 
L 908.841259 134.75723 
Q 915.441259 134.75723 915.441259 128.15723 
L 915.441259 106.930667 
Q 915.441259 100.330667 908.841259 100.330667 
L 867.343759 100.330667 
Q 860.743759 100.330667 860.743759 106.930667 
L 860.743759 128.15723 
Q 860.743759 134.75723 867.343759 134.75723 
z
" style="fill: #fafafa; stroke: #bcbd22; stroke-width: 0.5; stroke-linejoin: miter"/>
    </g>
    <text style="fill: #bcbd22; font: 700 22px 'Roboto', 'Arial', 'DejaVu Sans', sans-serif; text-anchor: start" x="867.343759" y="123.68848" transform="rotate(-0 867.343759 123.68848)">67%</text>
   </g>
   <g id="patch_5">
    <path d="M 859.051535 288.473695 
Q 846.358496 300.958344 846.345411 323.326228 
" style="fill: none; stroke: #d62728; stroke-width: 2.5; stroke-linecap: round"/>
    <path d="M 850.750558 314.528803 
L 846.345411 323.326228 
L 841.950559 314.523656 
" style="fill: none; stroke: #d62728; stroke-width: 2.5; stroke-linecap: round"/>
   </g>
   <g id="text_14">
    <g id="patch_6">
     <path d="M 867.343759 293.39304 
L 908.841259 293.39304 
Q 915.441259 293.39304 915.441259 286.79304 
L 915.441259 265.566478 
Q 915.441259 258.966478 908.841259 258.966478 
L 867.343759 258.966478 
Q 860.743759 258.966478 860.743759 265.566478 
L 860.743759 286.79304 
Q 860.743759 293.39304 867.343759 293.39304 
z
" style="fill: #fafafa; stroke: #d62728; stroke-width: 0.5; stroke-linejoin: miter"/>
    </g>
    <text style="fill: #d62728; font: 700 22px 'Roboto', 'Arial', 'DejaVu Sans', sans-serif; text-anchor: start" x="867.343759" y="282.32429" transform="rotate(-0 867.343759 282.32429)">31%</text>
   </g>
  </g>
 </g>
 <defs>
  <clipPath id="p8630f8a0b9">
   <rect x="51.593594" y="14.220547" width="897.600186" height="532.642098"/>
  </clipPath>
 </defs>
</svg>
