<?xml version="1.0" encoding="utf-8" standalone="no"?>
<!DOCTYPE svg PUBLIC "-//W3C//DTD SVG 1.1//EN"
  "http://www.w3.org/Graphics/SVG/1.1/DTD/svg11.dtd">
<svg xmlns:xlink="http://www.w3.org/1999/xlink" width="1006.319814pt" height="574.31952pt" viewBox="0 0 1006.319814 574.31952" xmlns="http://www.w3.org/2000/svg" version="1.1">
 <metadata>
  <rdf:RDF xmlns:dc="http://purl.org/dc/elements/1.1/" xmlns:cc="http://creativecommons.org/ns#" xmlns:rdf="http://www.w3.org/1999/02/22-rdf-syntax-ns#">
   <cc:Work>
    <dc:type rdf:resource="http://purl.org/dc/dcmitype/StillImage"/>
    <dc:date>2023-05-18T11:12:49.530288</dc:date>
    <dc:format>image/svg+xml</dc:format>
    <dc:creator>
     <cc:Agent>
      <dc:title>Matplotlib v3.7.1, https://matplotlib.org/</dc:title>
     </cc:Agent>
    </dc:creator>
   </cc:Work>
  </rdf:RDF>
 </metadata>
 <defs>
  <style type="text/css">*{stroke-linejoin: round; stroke-linecap: butt}</style>
 </defs>
 <g id="figure_1">
  <g id="patch_1">
   <path d="M 0 574.31952 
L 1006.319814 574.31952 
L 1006.319814 0 
L 0 0 
L 0 574.31952 
z
" style="fill: none"/>
  </g>
  <g id="axes_1">
   <g id="patch_2">
    <path d="M 51.593594 546.862645 
L 964.063128 546.862645 
L 964.063128 14.220547 
L 51.593594 14.220547 
L 51.593594 546.862645 
z
" style="fill: none"/>
   </g>
   <g id="matplotlib.axis_1">
    <g id="xtick_1">
     <g id="line2d_1">
      <path d="M 51.593594 546.862645 
L 51.593594 14.220547 
" clip-path="url(#pa240fdb13f)" style="fill: none; stroke-dasharray: 0.7,2.1; stroke-dashoffset: 0; stroke: #000000; stroke-opacity: 0.5; stroke-width: 0.7"/>
     </g>
     <g id="line2d_2"/>
    </g>
    <g id="xtick_2">
     <g id="line2d_3">
      <path d="M 203.67185 546.862645 
L 203.67185 14.220547 
" clip-path="url(#pa240fdb13f)" style="fill: none; stroke-dasharray: 0.7,2.1; stroke-dashoffset: 0; stroke: #000000; stroke-opacity: 0.5; stroke-width: 0.7"/>
     </g>
     <g id="line2d_4"/>
     <g id="text_1">
      <text style="fill: #333333; font: 20px 'Roboto', 'Arial', 'DejaVu Sans', sans-serif; text-anchor: middle" x="203.67185" y="568.09702" transform="rotate(-0 203.67185 568.09702)">1 MÊS</text>
     </g>
    </g>
    <g id="xtick_3">
     <g id="line2d_5">
      <path d="M 355.750105 546.862645 
L 355.750105 14.220547 
" clip-path="url(#pa240fdb13f)" style="fill: none; stroke-dasharray: 0.7,2.1; stroke-dashoffset: 0; stroke: #000000; stroke-opacity: 0.5; stroke-width: 0.7"/>
     </g>
     <g id="line2d_6"/>
     <g id="text_2">
      <text style="fill: #333333; font: 20px 'Roboto', 'Arial', 'DejaVu Sans', sans-serif; text-anchor: middle" x="355.750105" y="568.09702" transform="rotate(-0 355.750105 568.09702)">2</text>
     </g>
    </g>
    <g id="xtick_4">
     <g id="line2d_7">
      <path d="M 507.828361 546.862645 
L 507.828361 14.220547 
" clip-path="url(#pa240fdb13f)" style="fill: none; stroke-dasharray: 0.7,2.1; stroke-dashoffset: 0; stroke: #000000; stroke-opacity: 0.5; stroke-width: 0.7"/>
     </g>
     <g id="line2d_8"/>
     <g id="text_3">
      <text style="fill: #333333; font: 20px 'Roboto', 'Arial', 'DejaVu Sans', sans-serif; text-anchor: middle" x="507.828361" y="568.09702" transform="rotate(-0 507.828361 568.09702)">3</text>
     </g>
    </g>
    <g id="xtick_5">
     <g id="line2d_9">
      <path d="M 659.906617 546.862645 
L 659.906617 14.220547 
" clip-path="url(#pa240fdb13f)" style="fill: none; stroke-dasharray: 0.7,2.1; stroke-dashoffset: 0; stroke: #000000; stroke-opacity: 0.5; stroke-width: 0.7"/>
     </g>
     <g id="line2d_10"/>
     <g id="text_4">
      <text style="fill: #333333; font: 20px 'Roboto', 'Arial', 'DejaVu Sans', sans-serif; text-anchor: middle" x="659.906617" y="568.09702" transform="rotate(-0 659.906617 568.09702)">4</text>
     </g>
    </g>
    <g id="xtick_6">
     <g id="line2d_11">
      <path d="M 811.984873 546.862645 
L 811.984873 14.220547 
" clip-path="url(#pa240fdb13f)" style="fill: none; stroke-dasharray: 0.7,2.1; stroke-dashoffset: 0; stroke: #000000; stroke-opacity: 0.5; stroke-width: 0.7"/>
     </g>
     <g id="line2d_12"/>
     <g id="text_5">
      <text style="fill: #333333; font: 20px 'Roboto', 'Arial', 'DejaVu Sans', sans-serif; text-anchor: middle" x="811.984873" y="568.09702" transform="rotate(-0 811.984873 568.09702)">5</text>
     </g>
    </g>
    <g id="xtick_7">
     <g id="line2d_13">
      <path d="M 964.063128 546.862645 
L 964.063128 14.220547 
" clip-path="url(#pa240fdb13f)" style="fill: none; stroke-dasharray: 0.7,2.1; stroke-dashoffset: 0; stroke: #000000; stroke-opacity: 0.5; stroke-width: 0.7"/>
     </g>
     <g id="line2d_14"/>
     <g id="text_6">
      <text style="fill: #333333; font: 20px 'Roboto', 'Arial', 'DejaVu Sans', sans-serif; text-anchor: middle" x="964.063128" y="568.09702" transform="rotate(-0 964.063128 568.09702)">6</text>
     </g>
    </g>
   </g>
   <g id="matplotlib.axis_2">
    <g id="ytick_1">
     <g id="line2d_15">
      <path d="M 51.593594 546.862645 
L 964.063128 546.862645 
" clip-path="url(#pa240fdb13f)" style="fill: none; stroke-dasharray: 0.7,2.1; stroke-dashoffset: 0; stroke: #000000; stroke-opacity: 0.5; stroke-width: 0.7"/>
     </g>
     <g id="text_7">
      <text style="fill: #a3a3a3; font: 25px 'Roboto', 'Arial', 'DejaVu Sans', sans-serif; text-anchor: end" x="48.593594" y="553.845067" transform="rotate(-0 48.593594 553.845067)">0%</text>
     </g>
    </g>
    <g id="ytick_2">
     <g id="line2d_16">
      <path d="M 51.593594 369.315279 
L 964.063128 369.315279 
" clip-path="url(#pa240fdb13f)" style="fill: none; stroke-dasharray: 0.7,2.1; stroke-dashoffset: 0; stroke: #000000; stroke-opacity: 0.5; stroke-width: 0.7"/>
     </g>
     <g id="text_8">
      <text style="fill: #a3a3a3; font: 25px 'Roboto', 'Arial', 'DejaVu Sans', sans-serif; text-anchor: end" x="48.593594" y="376.297701" transform="rotate(-0 48.593594 376.297701)">25%</text>
     </g>
    </g>
    <g id="ytick_3">
     <g id="line2d_17">
      <path d="M 51.593594 191.767913 
L 964.063128 191.767913 
" clip-path="url(#pa240fdb13f)" style="fill: none; stroke-dasharray: 0.7,2.1; stroke-dashoffset: 0; stroke: #000000; stroke-opacity: 0.5; stroke-width: 0.7"/>
     </g>
     <g id="text_9">
      <text style="fill: #3b4252; font: 25px 'Roboto', 'Arial', 'DejaVu Sans', sans-serif; text-anchor: end" x="48.593594" y="198.750335" transform="rotate(-0 48.593594 198.750335)">50%</text>
     </g>
    </g>
    <g id="ytick_4">
     <g id="line2d_18">
      <path d="M 51.593594 14.220547 
L 964.063128 14.220547 
" clip-path="url(#pa240fdb13f)" style="fill: none; stroke-dasharray: 0.7,2.1; stroke-dashoffset: 0; stroke: #000000; stroke-opacity: 0.5; stroke-width: 0.7"/>
     </g>
     <g id="text_10">
      <text style="fill: #a3a3a3; font: 25px 'Roboto', 'Arial', 'DejaVu Sans', sans-serif; text-anchor: end" x="48.593594" y="21.202969" transform="rotate(-0 48.593594 21.202969)">75%</text>
     </g>
    </g>
   </g>
   <g id="line2d_19">
    <path d="M 51.593594 184.666018 
L 89.613158 180.404881 
L 127.632722 175.433555 
L 165.652286 172.592797 
L 203.67185 178.274313 
L 355.750105 203.841134 
L 393.769669 209.319738 
L 431.789233 201.101832 
L 469.808797 190.550445 
L 507.828361 195.217405 
L 583.867489 212.870686 
L 621.887053 213.175052 
L 659.906617 211.14594 
L 811.984873 205.464424 
L 850.004437 205.160057 
L 888.024 212.261952 
L 926.043564 220.68277 
L 964.063128 228.900676 
L 1002.082692 233.567636 
L 1007.319814 233.302105 
L 1007.319814 233.302105 
" clip-path="url(#pa240fdb13f)" style="fill: none; stroke: #bcbd22; stroke-width: 4"/>
   </g>
   <g id="line2d_20">
    <path d="M 51.593594 210.232839 
L 89.613158 212.76923 
L 127.632722 223.320616 
L 165.652286 227.987576 
L 203.67185 232.654535 
L 241.691413 236.915672 
L 279.710977 242.597187 
L 317.730541 246.655413 
L 355.750105 250.20636 
L 393.769669 254.87332 
L 431.789233 256.395154 
L 469.808797 258.018444 
L 507.828361 261.569392 
L 545.847925 264.714516 
L 583.867489 263.192682 
L 621.887053 262.381037 
L 659.906617 264.41015 
L 697.926181 266.439262 
L 735.945745 267.758186 
L 773.965309 267.758186 
L 811.984873 267.758186 
L 850.004437 267.758186 
" clip-path="url(#pa240fdb13f)" style="fill: none; stroke: #1f77b4; stroke-width: 4"/>
   </g>
   <g id="line2d_21">
    <path d="M 51.593594 546.862645 
L 964.063128 546.862645 
" clip-path="url(#pa240fdb13f)" style="fill: none; stroke: #000000; stroke-opacity: 0.5; stroke-width: 6"/>
   </g>
   <g id="line2d_22">
    <path d="M 51.593594 546.862645 
L 51.593594 14.220547 
" clip-path="url(#pa240fdb13f)" style="fill: none; stroke: #808080; stroke-opacity: 0.1; stroke-width: 2"/>
   </g>
   <g id="line2d_23">
    <path d="M 203.67185 546.862645 
L 203.67185 14.220547 
" clip-path="url(#pa240fdb13f)" style="fill: none; stroke: #808080; stroke-opacity: 0.1; stroke-width: 4.5"/>
   </g>
   <g id="line2d_24">
    <path d="M 355.750105 546.862645 
L 355.750105 14.220547 
" clip-path="url(#pa240fdb13f)" style="fill: none; stroke: #808080; stroke-opacity: 0.1; stroke-width: 2"/>
   </g>
   <g id="line2d_25">
    <path d="M 507.828361 546.862645 
L 507.828361 14.220547 
" clip-path="url(#pa240fdb13f)" style="fill: none; stroke: #808080; stroke-opacity: 0.1; stroke-width: 2"/>
   </g>
   <g id="line2d_26">
    <path d="M 659.906617 546.862645 
L 659.906617 14.220547 
" clip-path="url(#pa240fdb13f)" style="fill: none; stroke: #808080; stroke-opacity: 0.1; stroke-width: 2"/>
   </g>
   <g id="line2d_27">
    <path d="M 811.984873 546.862645 
L 811.984873 14.220547 
" clip-path="url(#pa240fdb13f)" style="fill: none; stroke: #808080; stroke-opacity: 0.1; stroke-width: 2"/>
   </g>
   <g id="line2d_28">
    <path d="M 964.063128 546.862645 
L 964.063128 14.220547 
" clip-path="url(#pa240fdb13f)" style="fill: none; stroke: #808080; stroke-opacity: 0.1; stroke-width: 3.5"/>
   </g>
   <g id="line2d_29">
    <path d="M 51.593594 546.862645 
L 964.063128 546.862645 
" clip-path="url(#pa240fdb13f)" style="fill: none; stroke: #808080; stroke-opacity: 0.2; stroke-width: 2"/>
   </g>
   <g id="line2d_30">
    <path d="M 51.593594 369.315279 
L 964.063128 369.315279 
" clip-path="url(#pa240fdb13f)" style="fill: none; stroke: #808080; stroke-opacity: 0.2; stroke-width: 3.5"/>
   </g>
   <g id="line2d_31">
    <path d="M 51.593594 191.767913 
L 964.063128 191.767913 
" clip-path="url(#pa240fdb13f)" style="fill: none; stroke: #808080; stroke-opacity: 0.2; stroke-width: 3.5"/>
   </g>
   <g id="line2d_32">
    <path d="M 51.593594 14.220547 
L 964.063128 14.220547 
" clip-path="url(#pa240fdb13f)" style="fill: none; stroke: #808080; stroke-opacity: 0.2; stroke-width: 2"/>
   </g>
   <g id="text_11">
    <text style="fill: #bcbd22; font: 700 24px 'Roboto', 'Arial', 'DejaVu Sans', sans-serif; text-anchor: start" x="926.043564" y="155.446795" transform="rotate(-0 926.043564 155.446795)">LULA 1</text>
   </g>
   <g id="text_12">
    <text style="fill: #1f77b4; font: 700 24px 'Roboto', 'Arial', 'DejaVu Sans', sans-serif; text-anchor: start" x="926.043564" y="324.573343" transform="rotate(-0 926.043564 324.573343)">LULA 3</text>
   </g>
   <g id="patch_3">
    <path d="M 872.217104 163.195176 
Q 859.509328 175.69432 859.509328 200.90124 
L 859.509328 200.364493 
" style="fill: none; stroke: #bcbd22; stroke-width: 2.5; stroke-linecap: round"/>
    <path d="M 863.909328 191.564493 
L 859.509328 200.364493 
L 855.109328 191.564493 
" style="fill: none; stroke: #bcbd22; stroke-width: 2.5; stroke-linecap: round"/>
   </g>
   <g id="text_13">
    <g id="patch_4">
     <path d="M 880.509328 168.114521 
L 922.006828 168.114521 
Q 928.606828 168.114521 928.606828 161.514521 
L 928.606828 140.287959 
Q 928.606828 133.687959 922.006828 133.687959 
L 880.509328 133.687959 
Q 873.909328 133.687959 873.909328 140.287959 
L 873.909328 161.514521 
Q 873.909328 168.114521 880.509328 168.114521 
z
" style="fill: #fafafa; stroke: #bcbd22; stroke-width: 0.5; stroke-linejoin: miter"/>
    </g>
    <text style="fill: #bcbd22; font: 700 22px 'Roboto', 'Arial', 'DejaVu Sans', sans-serif; text-anchor: start" x="880.509328" y="157.045771" transform="rotate(-0 880.509328 157.045771)">48%</text>
   </g>
   <g id="patch_5">
    <path d="M 872.217104 310.019718 
Q 859.509328 297.520574 859.509328 272.313654 
L 859.509328 272.550737 
" style="fill: none; stroke: #1f77b4; stroke-width: 2.5; stroke-linecap: round"/>
    <path d="M 855.109328 281.350737 
L 859.509328 272.550737 
L 863.909328 281.350737 
" style="fill: none; stroke: #1f77b4; stroke-width: 2.5; stroke-linecap: round"/>
   </g>
   <g id="text_14">
    <g id="patch_6">
     <path d="M 880.509328 339.526936 
L 922.006828 339.526936 
Q 928.606828 339.526936 928.606828 332.926936 
L 928.606828 311.700373 
Q 928.606828 305.100373 922.006828 305.100373 
L 880.509328 305.100373 
Q 873.909328 305.100373 873.909328 311.700373 
L 873.909328 332.926936 
Q 873.909328 339.526936 880.509328 339.526936 
z
" style="fill: #fafafa; stroke: #1f77b4; stroke-width: 0.5; stroke-linejoin: miter"/>
    </g>
    <text style="fill: #1f77b4; font: 700 22px 'Roboto', 'Arial', 'DejaVu Sans', sans-serif; text-anchor: start" x="880.509328" y="328.458186" transform="rotate(-0 880.509328 328.458186)">39%</text>
   </g>
  </g>
 </g>
 <defs>
  <clipPath id="pa240fdb13f">
   <rect x="51.593594" y="14.220547" width="912.469535" height="532.642098"/>
  </clipPath>
 </defs>
</svg>
