<?xml version="1.0" encoding="utf-8" standalone="no"?>
<!DOCTYPE svg PUBLIC "-//W3C//DTD SVG 1.1//EN"
  "http://www.w3.org/Graphics/SVG/1.1/DTD/svg11.dtd">
<svg xmlns:xlink="http://www.w3.org/1999/xlink" width="1006.319814pt" height="574.31952pt" viewBox="0 0 1006.319814 574.31952" xmlns="http://www.w3.org/2000/svg" version="1.1">
 <metadata>
  <rdf:RDF xmlns:dc="http://purl.org/dc/elements/1.1/" xmlns:cc="http://creativecommons.org/ns#" xmlns:rdf="http://www.w3.org/1999/02/22-rdf-syntax-ns#">
   <cc:Work>
    <dc:type rdf:resource="http://purl.org/dc/dcmitype/StillImage"/>
    <dc:date>2023-05-18T11:13:00.420422</dc:date>
    <dc:format>image/svg+xml</dc:format>
    <dc:creator>
     <cc:Agent>
      <dc:title>Matplotlib v3.7.1, https://matplotlib.org/</dc:title>
     </cc:Agent>
    </dc:creator>
   </cc:Work>
  </rdf:RDF>
 </metadata>
 <defs>
  <style type="text/css">*{stroke-linejoin: round; stroke-linecap: butt}</style>
 </defs>
 <g id="figure_1">
  <g id="patch_1">
   <path d="M 0 574.31952 
L 1006.319814 574.31952 
L 1006.319814 0 
L 0 0 
L 0 574.31952 
z
" style="fill: none"/>
  </g>
  <g id="axes_1">
   <g id="patch_2">
    <path d="M 51.593594 546.862645 
L 964.063128 546.862645 
L 964.063128 14.220547 
L 51.593594 14.220547 
L 51.593594 546.862645 
z
" style="fill: none"/>
   </g>
   <g id="matplotlib.axis_1">
    <g id="xtick_1">
     <g id="line2d_1">
      <path d="M 51.593594 546.862645 
L 51.593594 14.220547 
" clip-path="url(#p937a2918fa)" style="fill: none; stroke-dasharray: 0.7,2.1; stroke-dashoffset: 0; stroke: #000000; stroke-opacity: 0.5; stroke-width: 0.7"/>
     </g>
     <g id="line2d_2"/>
    </g>
    <g id="xtick_2">
     <g id="line2d_3">
      <path d="M 203.67185 546.862645 
L 203.67185 14.220547 
" clip-path="url(#p937a2918fa)" style="fill: none; stroke-dasharray: 0.7,2.1; stroke-dashoffset: 0; stroke: #000000; stroke-opacity: 0.5; stroke-width: 0.7"/>
     </g>
     <g id="line2d_4"/>
     <g id="text_1">
      <text style="fill: #333333; font: 20px 'Roboto', 'Arial', 'DejaVu Sans', sans-serif; text-anchor: middle" x="203.67185" y="568.09702" transform="rotate(-0 203.67185 568.09702)">1 MÊS</text>
     </g>
    </g>
    <g id="xtick_3">
     <g id="line2d_5">
      <path d="M 355.750105 546.862645 
L 355.750105 14.220547 
" clip-path="url(#p937a2918fa)" style="fill: none; stroke-dasharray: 0.7,2.1; stroke-dashoffset: 0; stroke: #000000; stroke-opacity: 0.5; stroke-width: 0.7"/>
     </g>
     <g id="line2d_6"/>
     <g id="text_2">
      <text style="fill: #333333; font: 20px 'Roboto', 'Arial', 'DejaVu Sans', sans-serif; text-anchor: middle" x="355.750105" y="568.09702" transform="rotate(-0 355.750105 568.09702)">2</text>
     </g>
    </g>
    <g id="xtick_4">
     <g id="line2d_7">
      <path d="M 507.828361 546.862645 
L 507.828361 14.220547 
" clip-path="url(#p937a2918fa)" style="fill: none; stroke-dasharray: 0.7,2.1; stroke-dashoffset: 0; stroke: #000000; stroke-opacity: 0.5; stroke-width: 0.7"/>
     </g>
     <g id="line2d_8"/>
     <g id="text_3">
      <text style="fill: #333333; font: 20px 'Roboto', 'Arial', 'DejaVu Sans', sans-serif; text-anchor: middle" x="507.828361" y="568.09702" transform="rotate(-0 507.828361 568.09702)">3</text>
     </g>
    </g>
    <g id="xtick_5">
     <g id="line2d_9">
      <path d="M 659.906617 546.862645 
L 659.906617 14.220547 
" clip-path="url(#p937a2918fa)" style="fill: none; stroke-dasharray: 0.7,2.1; stroke-dashoffset: 0; stroke: #000000; stroke-opacity: 0.5; stroke-width: 0.7"/>
     </g>
     <g id="line2d_10"/>
     <g id="text_4">
      <text style="fill: #333333; font: 20px 'Roboto', 'Arial', 'DejaVu Sans', sans-serif; text-anchor: middle" x="659.906617" y="568.09702" transform="rotate(-0 659.906617 568.09702)">4</text>
     </g>
    </g>
    <g id="xtick_6">
     <g id="line2d_11">
      <path d="M 811.984873 546.862645 
L 811.984873 14.220547 
" clip-path="url(#p937a2918fa)" style="fill: none; stroke-dasharray: 0.7,2.1; stroke-dashoffset: 0; stroke: #000000; stroke-opacity: 0.5; stroke-width: 0.7"/>
     </g>
     <g id="line2d_12"/>
     <g id="text_5">
      <text style="fill: #333333; font: 20px 'Roboto', 'Arial', 'DejaVu Sans', sans-serif; text-anchor: middle" x="811.984873" y="568.09702" transform="rotate(-0 811.984873 568.09702)">5</text>
     </g>
    </g>
    <g id="xtick_7">
     <g id="line2d_13">
      <path d="M 964.063128 546.862645 
L 964.063128 14.220547 
" clip-path="url(#p937a2918fa)" style="fill: none; stroke-dasharray: 0.7,2.1; stroke-dashoffset: 0; stroke: #000000; stroke-opacity: 0.5; stroke-width: 0.7"/>
     </g>
     <g id="line2d_14"/>
     <g id="text_6">
      <text style="fill: #333333; font: 20px 'Roboto', 'Arial', 'DejaVu Sans', sans-serif; text-anchor: middle" x="964.063128" y="568.09702" transform="rotate(-0 964.063128 568.09702)">6</text>
     </g>
    </g>
   </g>
   <g id="matplotlib.axis_2">
    <g id="ytick_1">
     <g id="line2d_15">
      <path d="M 51.593594 546.862645 
L 964.063128 546.862645 
" clip-path="url(#p937a2918fa)" style="fill: none; stroke-dasharray: 0.7,2.1; stroke-dashoffset: 0; stroke: #000000; stroke-opacity: 0.5; stroke-width: 0.7"/>
     </g>
     <g id="text_7">
      <text style="fill: #a3a3a3; font: 25px 'Roboto', 'Arial', 'DejaVu Sans', sans-serif; text-anchor: end" x="48.593594" y="553.845067" transform="rotate(-0 48.593594 553.845067)">0%</text>
     </g>
    </g>
    <g id="ytick_2">
     <g id="line2d_16">
      <path d="M 51.593594 369.315279 
L 964.063128 369.315279 
" clip-path="url(#p937a2918fa)" style="fill: none; stroke-dasharray: 0.7,2.1; stroke-dashoffset: 0; stroke: #000000; stroke-opacity: 0.5; stroke-width: 0.7"/>
     </g>
     <g id="text_8">
      <text style="fill: #a3a3a3; font: 25px 'Roboto', 'Arial', 'DejaVu Sans', sans-serif; text-anchor: end" x="48.593594" y="376.297701" transform="rotate(-0 48.593594 376.297701)">25%</text>
     </g>
    </g>
    <g id="ytick_3">
     <g id="line2d_17">
      <path d="M 51.593594 191.767913 
L 964.063128 191.767913 
" clip-path="url(#p937a2918fa)" style="fill: none; stroke-dasharray: 0.7,2.1; stroke-dashoffset: 0; stroke: #000000; stroke-opacity: 0.5; stroke-width: 0.7"/>
     </g>
     <g id="text_9">
      <text style="fill: #3b4252; font: 25px 'Roboto', 'Arial', 'DejaVu Sans', sans-serif; text-anchor: end" x="48.593594" y="198.750335" transform="rotate(-0 48.593594 198.750335)">50%</text>
     </g>
    </g>
    <g id="ytick_4">
     <g id="line2d_18">
      <path d="M 51.593594 14.220547 
L 964.063128 14.220547 
" clip-path="url(#p937a2918fa)" style="fill: none; stroke-dasharray: 0.7,2.1; stroke-dashoffset: 0; stroke: #000000; stroke-opacity: 0.5; stroke-width: 0.7"/>
     </g>
     <g id="text_10">
      <text style="fill: #a3a3a3; font: 25px 'Roboto', 'Arial', 'DejaVu Sans', sans-serif; text-anchor: end" x="48.593594" y="21.202969" transform="rotate(-0 48.593594 21.202969)">75%</text>
     </g>
    </g>
   </g>
   <g id="line2d_19">
    <path d="M 51.593594 504.961467 
L 89.613158 507.802224 
L 127.632722 511.150261 
L 165.652286 513.077918 
L 203.67185 509.729882 
L 355.750105 495.627548 
L 393.769669 492.279512 
L 431.789233 493.192613 
L 469.808797 494.815903 
L 507.828361 492.076601 
L 583.867489 484.670339 
L 621.887053 483.858694 
L 659.906617 483.655783 
L 697.926181 483.655783 
L 735.945745 484.163061 
L 773.965309 484.365972 
L 811.984873 484.365972 
L 850.004437 483.96015 
L 888.024 481.423759 
L 1002.082692 471.886929 
L 1007.319814 471.677299 
L 1007.319814 471.677299 
" clip-path="url(#p937a2918fa)" style="fill: none; stroke: #bcbd22; stroke-width: 4"/>
   </g>
   <g id="line2d_20">
    <path d="M 51.593594 349.429974 
L 89.613158 351.357631 
L 127.632722 351.560542 
L 165.652286 348.719784 
L 203.67185 345.879027 
L 241.691413 344.458648 
L 279.710977 345.676115 
L 317.730541 345.371748 
L 355.750105 343.545547 
L 393.769669 341.414979 
L 431.789233 338.574221 
L 469.808797 335.733463 
L 507.828361 332.892705 
L 545.847925 329.950492 
L 583.867489 326.906822 
L 621.887053 324.776254 
L 659.906617 325.79081 
L 697.926181 326.196633 
L 735.945745 326.906822 
L 773.965309 327.819923 
L 811.984873 328.12429 
L 850.004437 328.12429 
" clip-path="url(#p937a2918fa)" style="fill: none; stroke: #d62728; stroke-width: 4"/>
   </g>
   <g id="line2d_21">
    <path d="M 51.593594 546.862645 
L 964.063128 546.862645 
" clip-path="url(#p937a2918fa)" style="fill: none; stroke: #000000; stroke-opacity: 0.5; stroke-width: 6"/>
   </g>
   <g id="line2d_22">
    <path d="M 51.593594 546.862645 
L 51.593594 14.220547 
" clip-path="url(#p937a2918fa)" style="fill: none; stroke: #808080; stroke-opacity: 0.1; stroke-width: 2"/>
   </g>
   <g id="line2d_23">
    <path d="M 203.67185 546.862645 
L 203.67185 14.220547 
" clip-path="url(#p937a2918fa)" style="fill: none; stroke: #808080; stroke-opacity: 0.1; stroke-width: 4.5"/>
   </g>
   <g id="line2d_24">
    <path d="M 355.750105 546.862645 
L 355.750105 14.220547 
" clip-path="url(#p937a2918fa)" style="fill: none; stroke: #808080; stroke-opacity: 0.1; stroke-width: 2"/>
   </g>
   <g id="line2d_25">
    <path d="M 507.828361 546.862645 
L 507.828361 14.220547 
" clip-path="url(#p937a2918fa)" style="fill: none; stroke: #808080; stroke-opacity: 0.1; stroke-width: 2"/>
   </g>
   <g id="line2d_26">
    <path d="M 659.906617 546.862645 
L 659.906617 14.220547 
" clip-path="url(#p937a2918fa)" style="fill: none; stroke: #808080; stroke-opacity: 0.1; stroke-width: 2"/>
   </g>
   <g id="line2d_27">
    <path d="M 811.984873 546.862645 
L 811.984873 14.220547 
" clip-path="url(#p937a2918fa)" style="fill: none; stroke: #808080; stroke-opacity: 0.1; stroke-width: 2"/>
   </g>
   <g id="line2d_28">
    <path d="M 964.063128 546.862645 
L 964.063128 14.220547 
" clip-path="url(#p937a2918fa)" style="fill: none; stroke: #808080; stroke-opacity: 0.1; stroke-width: 3.5"/>
   </g>
   <g id="line2d_29">
    <path d="M 51.593594 546.862645 
L 964.063128 546.862645 
" clip-path="url(#p937a2918fa)" style="fill: none; stroke: #808080; stroke-opacity: 0.2; stroke-width: 2"/>
   </g>
   <g id="line2d_30">
    <path d="M 51.593594 369.315279 
L 964.063128 369.315279 
" clip-path="url(#p937a2918fa)" style="fill: none; stroke: #808080; stroke-opacity: 0.2; stroke-width: 3.5"/>
   </g>
   <g id="line2d_31">
    <path d="M 51.593594 191.767913 
L 964.063128 191.767913 
" clip-path="url(#p937a2918fa)" style="fill: none; stroke: #808080; stroke-opacity: 0.2; stroke-width: 3.5"/>
   </g>
   <g id="line2d_32">
    <path d="M 51.593594 14.220547 
L 964.063128 14.220547 
" clip-path="url(#p937a2918fa)" style="fill: none; stroke: #808080; stroke-opacity: 0.2; stroke-width: 2"/>
   </g>
   <g id="text_11">
    <text style="fill: #bcbd22; font: 700 24px 'Roboto', 'Arial', 'DejaVu Sans', sans-serif; text-anchor: start" x="926.043564" y="441.348782" transform="rotate(-0 926.043564 441.348782)">LULA 1</text>
   </g>
   <g id="text_12">
    <text style="fill: #d62728; font: 700 24px 'Roboto', 'Arial', 'DejaVu Sans', sans-serif; text-anchor: start" x="926.043564" y="285.512922" transform="rotate(-0 926.043564 285.512922)">LULA 3</text>
   </g>
   <g id="patch_3">
    <path d="M 872.217104 451.252412 
Q 859.509328 463.751555 859.509328 488.958475 
L 859.509328 488.751636 
" style="fill: none; stroke: #bcbd22; stroke-width: 2.5; stroke-linecap: round"/>
    <path d="M 855.109328 497.551636 
L 859.509328 488.751636 
L 863.909328 497.551636 
" style="fill: none; stroke: #bcbd22; stroke-width: 2.5; stroke-linecap: round"/>
   </g>
   <g id="text_13">
    <g id="patch_4">
     <path d="M 880.509328 456.171757 
L 909.384328 456.171757 
Q 915.984328 456.171757 915.984328 449.571757 
L 915.984328 428.345194 
Q 915.984328 421.745194 909.384328 421.745194 
L 880.509328 421.745194 
Q 873.909328 421.745194 873.909328 428.345194 
L 873.909328 449.571757 
Q 873.909328 456.171757 880.509328 456.171757 
z
" style="fill: #fafafa; stroke: #bcbd22; stroke-width: 0.5; stroke-linejoin: miter"/>
    </g>
    <text style="fill: #bcbd22; font: 700 22px 'Roboto', 'Arial', 'DejaVu Sans', sans-serif; text-anchor: start" x="880.509328" y="445.103007" transform="rotate(-0 880.509328 445.103007)">9%</text>
   </g>
   <g id="patch_5">
    <path d="M 872.217104 288.473695 
Q 859.524064 300.958344 859.51098 323.326228 
" style="fill: none; stroke: #d62728; stroke-width: 2.5; stroke-linecap: round"/>
    <path d="M 863.916127 314.528803 
L 859.51098 323.326228 
L 855.116128 314.523656 
" style="fill: none; stroke: #d62728; stroke-width: 2.5; stroke-linecap: round"/>
   </g>
   <g id="text_14">
    <g id="patch_6">
     <path d="M 880.509328 293.39304 
L 922.006828 293.39304 
Q 928.606828 293.39304 928.606828 286.79304 
L 928.606828 265.566478 
Q 928.606828 258.966478 922.006828 258.966478 
L 880.509328 258.966478 
Q 873.909328 258.966478 873.909328 265.566478 
L 873.909328 286.79304 
Q 873.909328 293.39304 880.509328 293.39304 
z
" style="fill: #fafafa; stroke: #d62728; stroke-width: 0.5; stroke-linejoin: miter"/>
    </g>
    <text style="fill: #d62728; font: 700 22px 'Roboto', 'Arial', 'DejaVu Sans', sans-serif; text-anchor: start" x="880.509328" y="282.32429" transform="rotate(-0 880.509328 282.32429)">31%</text>
   </g>
  </g>
 </g>
 <defs>
  <clipPath id="p937a2918fa">
   <rect x="51.593594" y="14.220547" width="912.469535" height="532.642098"/>
  </clipPath>
 </defs>
</svg>
