<?xml version="1.0" encoding="utf-8" standalone="no"?>
<!DOCTYPE svg PUBLIC "-//W3C//DTD SVG 1.1//EN"
  "http://www.w3.org/Graphics/SVG/1.1/DTD/svg11.dtd">
<svg xmlns:xlink="http://www.w3.org/1999/xlink" width="1294.319556pt" height="646.31952pt" viewBox="0 0 1294.319556 646.31952" xmlns="http://www.w3.org/2000/svg" version="1.1">
 <metadata>
  <rdf:RDF xmlns:dc="http://purl.org/dc/elements/1.1/" xmlns:cc="http://creativecommons.org/ns#" xmlns:rdf="http://www.w3.org/1999/02/22-rdf-syntax-ns#">
   <cc:Work>
    <dc:type rdf:resource="http://purl.org/dc/dcmitype/StillImage"/>
    <dc:date>2023-05-18T11:13:07.801720</dc:date>
    <dc:format>image/svg+xml</dc:format>
    <dc:creator>
     <cc:Agent>
      <dc:title>Matplotlib v3.7.1, https://matplotlib.org/</dc:title>
     </cc:Agent>
    </dc:creator>
   </cc:Work>
  </rdf:RDF>
 </metadata>
 <defs>
  <style type="text/css">*{stroke-linejoin: round; stroke-linecap: butt}</style>
 </defs>
 <g id="figure_1">
  <g id="patch_1">
   <path d="M 0 646.31952 
L 1294.319556 646.31952 
L 1294.319556 0 
L 0 0 
L 0 646.31952 
z
" style="fill: none"/>
  </g>
  <g id="axes_1">
   <g id="patch_2">
    <path d="M 53.56625 618.862645 
L 1275.023672 618.862645 
L 1275.023672 11.808437 
L 53.56625 11.808437 
L 53.56625 618.862645 
z
" style="fill: none"/>
   </g>
   <g id="matplotlib.axis_1">
    <g id="xtick_1">
     <g id="line2d_1">
      <path d="M 57.141135 618.862645 
L 57.141135 11.808437 
" clip-path="url(#pce9c5d3217)" style="fill: none; stroke-dasharray: 0.7,2.1; stroke-dashoffset: 0; stroke: #000000; stroke-opacity: 0.4; stroke-width: 0.7"/>
     </g>
     <g id="line2d_2">
      <defs>
       <path id="m2a1aa496cc" d="M 0 0 
L 0 -10 
" style="stroke: #333333; stroke-width: 1.5"/>
      </defs>
      <g>
       <use xlink:href="#m2a1aa496cc" x="57.141135" y="618.862645" style="fill: #333333; stroke: #333333; stroke-width: 1.5"/>
      </g>
     </g>
     <g id="text_1">
      <!--         1995 -->
      <g style="fill: #333333; opacity: 0.6" transform="translate(14.734885 640.09702) scale(0.2 -0.2)">
       <defs>
        <path id="Roboto-Regular-20" transform="scale(0.015625)"/>
        <path id="Roboto-Regular-31" d="M 2219 0 
L 1600 0 
L 1600 3981 
L 609 3972 
L 609 4447 
L 2219 4616 
L 2219 0 
z
" transform="scale(0.015625)"/>
        <path id="Roboto-Regular-39" d="M 1566 416 
Q 2009 416 2282 722 
Q 2556 1028 2556 1591 
L 2556 1978 
Q 2406 1756 2182 1642 
Q 1959 1528 1694 1528 
Q 1038 1528 664 1933 
Q 291 2338 291 3056 
Q 291 3744 687 4180 
Q 1084 4616 1669 4616 
Q 2350 4616 2762 4187 
Q 3175 3759 3175 2978 
L 3175 1597 
Q 3175 813 2725 373 
Q 2275 -66 1566 -66 
Q 1325 -66 1073 -16 
Q 822 34 603 131 
L 697 600 
Q 903 500 1101 458 
Q 1300 416 1566 416 
z
M 1694 2009 
Q 2016 2009 2236 2156 
Q 2456 2303 2556 2531 
L 2556 3069 
Q 2556 3578 2328 3854 
Q 2100 4131 1688 4131 
Q 1353 4131 1129 3832 
Q 906 3534 906 3056 
Q 906 2588 1112 2298 
Q 1319 2009 1694 2009 
z
" transform="scale(0.015625)"/>
        <path id="Roboto-Regular-35" d="M 547 2022 
L 809 4550 
L 3088 4550 
L 3088 4003 
L 1328 4003 
L 1181 2694 
Q 1328 2803 1506 2873 
Q 1684 2944 1913 2947 
Q 2544 2953 2901 2551 
Q 3259 2150 3259 1450 
Q 3259 766 2892 350 
Q 2525 -66 1822 -66 
Q 1244 -66 859 250 
Q 475 566 491 1178 
L 497 1197 
L 1053 1197 
Q 1053 825 1267 620 
Q 1481 416 1822 416 
Q 2213 416 2428 691 
Q 2644 966 2644 1444 
Q 2644 1878 2426 2147 
Q 2209 2416 1822 2416 
Q 1459 2416 1296 2306 
Q 1134 2197 1056 1969 
L 547 2022 
z
" transform="scale(0.015625)"/>
       </defs>
       <use xlink:href="#Roboto-Regular-20"/>
       <use xlink:href="#Roboto-Regular-20" x="24.853516"/>
       <use xlink:href="#Roboto-Regular-20" x="49.707031"/>
       <use xlink:href="#Roboto-Regular-20" x="74.560547"/>
       <use xlink:href="#Roboto-Regular-20" x="99.414062"/>
       <use xlink:href="#Roboto-Regular-20" x="124.267578"/>
       <use xlink:href="#Roboto-Regular-20" x="149.121094"/>
       <use xlink:href="#Roboto-Regular-20" x="173.974609"/>
       <use xlink:href="#Roboto-Regular-31" x="198.828125"/>
       <use xlink:href="#Roboto-Regular-39" x="255.126953"/>
       <use xlink:href="#Roboto-Regular-39" x="311.425781"/>
       <use xlink:href="#Roboto-Regular-35" x="367.724609"/>
      </g>
     </g>
    </g>
    <g id="xtick_2">
     <g id="line2d_3">
      <path d="M 225.621997 618.862645 
L 225.621997 11.808437 
" clip-path="url(#pce9c5d3217)" style="fill: none; stroke-dasharray: 0.7,2.1; stroke-dashoffset: 0; stroke: #000000; stroke-opacity: 0.4; stroke-width: 0.7"/>
     </g>
     <g id="line2d_4">
      <g>
       <use xlink:href="#m2a1aa496cc" x="225.621997" y="618.862645" style="fill: #333333; stroke: #333333; stroke-width: 1.5"/>
      </g>
     </g>
     <g id="text_2">
      <!--      '99 -->
      <g style="fill: #333333; opacity: 0.6" transform="translate(199.759497 640.09702) scale(0.2 -0.2)">
       <defs>
        <path id="Roboto-Regular-27" d="M 1013 3853 
L 697 2972 
L 394 2972 
L 397 3800 
L 397 4550 
L 1013 4550 
L 1013 3853 
z
" transform="scale(0.015625)"/>
       </defs>
       <use xlink:href="#Roboto-Regular-20"/>
       <use xlink:href="#Roboto-Regular-20" x="24.853516"/>
       <use xlink:href="#Roboto-Regular-20" x="49.707031"/>
       <use xlink:href="#Roboto-Regular-20" x="74.560547"/>
       <use xlink:href="#Roboto-Regular-20" x="99.414062"/>
       <use xlink:href="#Roboto-Regular-27" x="124.267578"/>
       <use xlink:href="#Roboto-Regular-39" x="145.996094"/>
       <use xlink:href="#Roboto-Regular-39" x="202.294922"/>
      </g>
     </g>
    </g>
    <g id="xtick_3">
     <g id="line2d_5">
      <path d="M 394.102859 618.862645 
L 394.102859 11.808437 
" clip-path="url(#pce9c5d3217)" style="fill: none; stroke-dasharray: 0.7,2.1; stroke-dashoffset: 0; stroke: #000000; stroke-opacity: 0.4; stroke-width: 0.7"/>
     </g>
     <g id="line2d_6">
      <g>
       <use xlink:href="#m2a1aa496cc" x="394.102859" y="618.862645" style="fill: #333333; stroke: #333333; stroke-width: 1.5"/>
      </g>
     </g>
     <g id="text_3">
      <!--         2003 -->
      <g style="fill: #333333; opacity: 0.6" transform="translate(351.696609 640.09702) scale(0.2 -0.2)">
       <defs>
        <path id="Roboto-Regular-32" d="M 3294 0 
L 469 0 
L 469 422 
L 1897 2125 
Q 2278 2588 2414 2861 
Q 2550 3134 2550 3413 
Q 2550 3728 2365 3929 
Q 2181 4131 1856 4131 
Q 1453 4131 1242 3884 
Q 1031 3638 1031 3269 
L 438 3269 
L 431 3288 
Q 416 3844 803 4230 
Q 1191 4616 1856 4616 
Q 2466 4616 2816 4278 
Q 3166 3941 3166 3406 
Q 3166 3047 2967 2703 
Q 2769 2359 2363 1841 
L 1216 497 
L 1222 481 
L 3294 481 
L 3294 0 
z
" transform="scale(0.015625)"/>
        <path id="Roboto-Regular-30" d="M 3250 1606 
Q 3250 834 2858 384 
Q 2466 -66 1803 -66 
Q 1144 -66 748 384 
Q 353 834 353 1606 
L 353 2944 
Q 353 3709 745 4162 
Q 1138 4616 1797 4616 
Q 2459 4616 2854 4162 
Q 3250 3709 3250 2944 
L 3250 1606 
z
M 2634 3072 
Q 2634 3563 2415 3847 
Q 2197 4131 1797 4131 
Q 1400 4131 1184 3847 
Q 969 3563 969 3072 
L 969 1481 
Q 969 991 1189 703 
Q 1409 416 1803 416 
Q 2203 416 2418 702 
Q 2634 988 2634 1481 
L 2634 3072 
z
" transform="scale(0.015625)"/>
        <path id="Roboto-Regular-33" d="M 1809 2588 
Q 2222 2588 2392 2792 
Q 2563 2997 2563 3366 
Q 2563 3709 2377 3920 
Q 2191 4131 1825 4131 
Q 1469 4131 1236 3911 
Q 1003 3691 1003 3359 
L 416 3359 
L 406 3378 
Q 391 3891 794 4253 
Q 1197 4616 1825 4616 
Q 2459 4616 2818 4295 
Q 3178 3975 3178 3353 
Q 3178 3034 3011 2771 
Q 2844 2509 2544 2363 
Q 2888 2225 3067 1945 
Q 3247 1666 3247 1269 
Q 3247 644 2851 289 
Q 2456 -66 1825 -66 
Q 1244 -66 801 276 
Q 359 619 375 1181 
L 381 1200 
L 969 1200 
Q 969 869 1208 642 
Q 1447 416 1825 416 
Q 2200 416 2415 648 
Q 2631 881 2631 1256 
Q 2631 1684 2432 1896 
Q 2234 2109 1809 2109 
L 1303 2109 
L 1303 2588 
L 1809 2588 
z
" transform="scale(0.015625)"/>
       </defs>
       <use xlink:href="#Roboto-Regular-20"/>
       <use xlink:href="#Roboto-Regular-20" x="24.853516"/>
       <use xlink:href="#Roboto-Regular-20" x="49.707031"/>
       <use xlink:href="#Roboto-Regular-20" x="74.560547"/>
       <use xlink:href="#Roboto-Regular-20" x="99.414062"/>
       <use xlink:href="#Roboto-Regular-20" x="124.267578"/>
       <use xlink:href="#Roboto-Regular-20" x="149.121094"/>
       <use xlink:href="#Roboto-Regular-20" x="173.974609"/>
       <use xlink:href="#Roboto-Regular-32" x="198.828125"/>
       <use xlink:href="#Roboto-Regular-30" x="255.126953"/>
       <use xlink:href="#Roboto-Regular-30" x="311.425781"/>
       <use xlink:href="#Roboto-Regular-33" x="367.724609"/>
      </g>
     </g>
    </g>
    <g id="xtick_4">
     <g id="line2d_7">
      <path d="M 562.583722 618.862645 
L 562.583722 11.808437 
" clip-path="url(#pce9c5d3217)" style="fill: none; stroke-dasharray: 0.7,2.1; stroke-dashoffset: 0; stroke: #000000; stroke-opacity: 0.4; stroke-width: 0.7"/>
     </g>
     <g id="line2d_8">
      <g>
       <use xlink:href="#m2a1aa496cc" x="562.583722" y="618.862645" style="fill: #333333; stroke: #333333; stroke-width: 1.5"/>
      </g>
     </g>
     <g id="text_4">
      <!--      '07 -->
      <g style="fill: #333333; opacity: 0.6" transform="translate(536.721222 640.09702) scale(0.2 -0.2)">
       <defs>
        <path id="Roboto-Regular-37" d="M 3322 4066 
Q 2459 3041 2156 2256 
Q 1853 1472 1853 497 
L 1853 0 
L 1238 0 
L 1238 497 
Q 1238 1528 1617 2354 
Q 1997 3181 2716 4066 
L 303 4066 
L 303 4550 
L 3322 4550 
L 3322 4066 
z
" transform="scale(0.015625)"/>
       </defs>
       <use xlink:href="#Roboto-Regular-20"/>
       <use xlink:href="#Roboto-Regular-20" x="24.853516"/>
       <use xlink:href="#Roboto-Regular-20" x="49.707031"/>
       <use xlink:href="#Roboto-Regular-20" x="74.560547"/>
       <use xlink:href="#Roboto-Regular-20" x="99.414062"/>
       <use xlink:href="#Roboto-Regular-27" x="124.267578"/>
       <use xlink:href="#Roboto-Regular-30" x="145.996094"/>
       <use xlink:href="#Roboto-Regular-37" x="202.294922"/>
      </g>
     </g>
    </g>
    <g id="xtick_5">
     <g id="line2d_9">
      <path d="M 731.064584 618.862645 
L 731.064584 11.808437 
" clip-path="url(#pce9c5d3217)" style="fill: none; stroke-dasharray: 0.7,2.1; stroke-dashoffset: 0; stroke: #000000; stroke-opacity: 0.4; stroke-width: 0.7"/>
     </g>
     <g id="line2d_10">
      <g>
       <use xlink:href="#m2a1aa496cc" x="731.064584" y="618.862645" style="fill: #333333; stroke: #333333; stroke-width: 1.5"/>
      </g>
     </g>
     <g id="text_5">
      <!--      '11 -->
      <g style="fill: #333333; opacity: 0.6" transform="translate(705.202084 640.09702) scale(0.2 -0.2)">
       <use xlink:href="#Roboto-Regular-20"/>
       <use xlink:href="#Roboto-Regular-20" x="24.853516"/>
       <use xlink:href="#Roboto-Regular-20" x="49.707031"/>
       <use xlink:href="#Roboto-Regular-20" x="74.560547"/>
       <use xlink:href="#Roboto-Regular-20" x="99.414062"/>
       <use xlink:href="#Roboto-Regular-27" x="124.267578"/>
       <use xlink:href="#Roboto-Regular-31" x="145.996094"/>
       <use xlink:href="#Roboto-Regular-31" x="202.294922"/>
      </g>
     </g>
    </g>
    <g id="xtick_6">
     <g id="line2d_11">
      <path d="M 899.545446 618.862645 
L 899.545446 11.808437 
" clip-path="url(#pce9c5d3217)" style="fill: none; stroke-dasharray: 0.7,2.1; stroke-dashoffset: 0; stroke: #000000; stroke-opacity: 0.4; stroke-width: 0.7"/>
     </g>
     <g id="line2d_12">
      <g>
       <use xlink:href="#m2a1aa496cc" x="899.545446" y="618.862645" style="fill: #333333; stroke: #333333; stroke-width: 1.5"/>
      </g>
     </g>
     <g id="text_6">
      <!--      '15 -->
      <g style="fill: #333333; opacity: 0.6" transform="translate(873.682946 640.09702) scale(0.2 -0.2)">
       <use xlink:href="#Roboto-Regular-20"/>
       <use xlink:href="#Roboto-Regular-20" x="24.853516"/>
       <use xlink:href="#Roboto-Regular-20" x="49.707031"/>
       <use xlink:href="#Roboto-Regular-20" x="74.560547"/>
       <use xlink:href="#Roboto-Regular-20" x="99.414062"/>
       <use xlink:href="#Roboto-Regular-27" x="124.267578"/>
       <use xlink:href="#Roboto-Regular-31" x="145.996094"/>
       <use xlink:href="#Roboto-Regular-35" x="202.294922"/>
      </g>
     </g>
    </g>
    <g id="xtick_7">
     <g id="line2d_13">
      <path d="M 1068.026309 618.862645 
L 1068.026309 11.808437 
" clip-path="url(#pce9c5d3217)" style="fill: none; stroke-dasharray: 0.7,2.1; stroke-dashoffset: 0; stroke: #000000; stroke-opacity: 0.4; stroke-width: 0.7"/>
     </g>
     <g id="line2d_14">
      <g>
       <use xlink:href="#m2a1aa496cc" x="1068.026309" y="618.862645" style="fill: #333333; stroke: #333333; stroke-width: 1.5"/>
      </g>
     </g>
     <g id="text_7">
      <!--      '19 -->
      <g style="fill: #333333; opacity: 0.6" transform="translate(1042.163809 640.09702) scale(0.2 -0.2)">
       <use xlink:href="#Roboto-Regular-20"/>
       <use xlink:href="#Roboto-Regular-20" x="24.853516"/>
       <use xlink:href="#Roboto-Regular-20" x="49.707031"/>
       <use xlink:href="#Roboto-Regular-20" x="74.560547"/>
       <use xlink:href="#Roboto-Regular-20" x="99.414062"/>
       <use xlink:href="#Roboto-Regular-27" x="124.267578"/>
       <use xlink:href="#Roboto-Regular-31" x="145.996094"/>
       <use xlink:href="#Roboto-Regular-39" x="202.294922"/>
      </g>
     </g>
    </g>
    <g id="xtick_8">
     <g id="line2d_15">
      <path d="M 1236.507171 618.862645 
L 1236.507171 11.808437 
" clip-path="url(#pce9c5d3217)" style="fill: none; stroke-dasharray: 0.7,2.1; stroke-dashoffset: 0; stroke: #000000; stroke-opacity: 0.4; stroke-width: 0.7"/>
     </g>
     <g id="line2d_16">
      <g>
       <use xlink:href="#m2a1aa496cc" x="1236.507171" y="618.862645" style="fill: #333333; stroke: #333333; stroke-width: 1.5"/>
      </g>
     </g>
     <g id="text_8">
      <!--         2023 -->
      <g style="fill: #333333; opacity: 0.6" transform="translate(1194.100921 640.09702) scale(0.2 -0.2)">
       <use xlink:href="#Roboto-Regular-20"/>
       <use xlink:href="#Roboto-Regular-20" x="24.853516"/>
       <use xlink:href="#Roboto-Regular-20" x="49.707031"/>
       <use xlink:href="#Roboto-Regular-20" x="74.560547"/>
       <use xlink:href="#Roboto-Regular-20" x="99.414062"/>
       <use xlink:href="#Roboto-Regular-20" x="124.267578"/>
       <use xlink:href="#Roboto-Regular-20" x="149.121094"/>
       <use xlink:href="#Roboto-Regular-20" x="173.974609"/>
       <use xlink:href="#Roboto-Regular-32" x="198.828125"/>
       <use xlink:href="#Roboto-Regular-30" x="255.126953"/>
       <use xlink:href="#Roboto-Regular-32" x="311.425781"/>
       <use xlink:href="#Roboto-Regular-33" x="367.724609"/>
      </g>
     </g>
    </g>
   </g>
   <g id="matplotlib.axis_2">
    <g id="ytick_1">
     <g id="line2d_17">
      <path d="M 53.56625 618.862645 
L 1275.023672 618.862645 
" clip-path="url(#pce9c5d3217)" style="fill: none; stroke-dasharray: 0.7,2.1; stroke-dashoffset: 0; stroke: #000000; stroke-opacity: 0.4; stroke-width: 0.7"/>
     </g>
     <g id="text_9">
      <!--   -->
      <g style="fill: #333333; opacity: 0.6" transform="translate(45.594375 624.448582) scale(0.2 -0.2)">
       <use xlink:href="#Roboto-Regular-20"/>
      </g>
     </g>
    </g>
    <g id="ytick_2">
     <g id="line2d_18">
      <path d="M 53.56625 467.099093 
L 1275.023672 467.099093 
" clip-path="url(#pce9c5d3217)" style="fill: none; stroke-dasharray: 0.7,2.1; stroke-dashoffset: 0; stroke: #000000; stroke-opacity: 0.4; stroke-width: 0.7"/>
     </g>
     <g id="text_10">
      <!-- 25 -->
      <g style="fill: #333333; opacity: 0.6" transform="translate(28.0475 472.685031) scale(0.2 -0.2)">
       <use xlink:href="#Roboto-Regular-32"/>
       <use xlink:href="#Roboto-Regular-35" x="56.298828"/>
      </g>
     </g>
    </g>
    <g id="ytick_3">
     <g id="line2d_19">
      <path d="M 53.56625 315.335541 
L 1275.023672 315.335541 
" clip-path="url(#pce9c5d3217)" style="fill: none; stroke-dasharray: 0.7,2.1; stroke-dashoffset: 0; stroke: #000000; stroke-opacity: 0.4; stroke-width: 0.7"/>
     </g>
     <g id="text_11">
      <!-- 50 -->
      <g style="opacity: 0.6" transform="translate(28.0475 320.921479) scale(0.2 -0.2)">
       <use xlink:href="#Roboto-Regular-35"/>
       <use xlink:href="#Roboto-Regular-30" x="56.298828"/>
      </g>
     </g>
    </g>
    <g id="ytick_4">
     <g id="line2d_20">
      <path d="M 53.56625 163.571989 
L 1275.023672 163.571989 
" clip-path="url(#pce9c5d3217)" style="fill: none; stroke-dasharray: 0.7,2.1; stroke-dashoffset: 0; stroke: #000000; stroke-opacity: 0.4; stroke-width: 0.7"/>
     </g>
     <g id="text_12">
      <!-- 75 -->
      <g style="fill: #333333; opacity: 0.6" transform="translate(28.0475 169.157927) scale(0.2 -0.2)">
       <use xlink:href="#Roboto-Regular-37"/>
       <use xlink:href="#Roboto-Regular-35" x="56.298828"/>
      </g>
     </g>
    </g>
    <g id="ytick_5">
     <g id="line2d_21">
      <path d="M 53.56625 11.808437 
L 1275.023672 11.808437 
" clip-path="url(#pce9c5d3217)" style="fill: none; stroke-dasharray: 0.7,2.1; stroke-dashoffset: 0; stroke: #000000; stroke-opacity: 0.4; stroke-width: 0.7"/>
     </g>
     <g id="text_13">
      <!-- 100% -->
      <g style="fill: #333333; opacity: 0.6" transform="translate(2.16 17.394375) scale(0.2 -0.2)">
       <defs>
        <path id="Roboto-Regular-25" d="M 325 3675 
Q 325 4072 581 4344 
Q 838 4616 1266 4616 
Q 1694 4616 1950 4345 
Q 2206 4075 2206 3675 
L 2206 3434 
Q 2206 3038 1951 2769 
Q 1697 2500 1272 2500 
Q 841 2500 583 2769 
Q 325 3038 325 3434 
L 325 3675 
z
M 781 3434 
Q 781 3203 907 3042 
Q 1034 2881 1272 2881 
Q 1500 2881 1625 3040 
Q 1750 3200 1750 3434 
L 1750 3675 
Q 1750 3906 1623 4070 
Q 1497 4234 1266 4234 
Q 1031 4234 906 4070 
Q 781 3906 781 3675 
L 781 3434 
z
M 2528 1116 
Q 2528 1513 2784 1783 
Q 3041 2053 3469 2053 
Q 3894 2053 4151 1783 
Q 4409 1513 4409 1116 
L 4409 872 
Q 4409 472 4153 203 
Q 3897 -66 3475 -66 
Q 3044 -66 2786 203 
Q 2528 472 2528 872 
L 2528 1116 
z
M 2984 872 
Q 2984 638 3111 477 
Q 3238 316 3475 316 
Q 3703 316 3828 477 
Q 3953 638 3953 872 
L 3953 1116 
Q 3953 1347 3825 1509 
Q 3697 1672 3469 1672 
Q 3238 1672 3111 1509 
Q 2984 1347 2984 1116 
L 2984 872 
z
M 1431 344 
L 1091 553 
L 3313 4109 
L 3653 3900 
L 1431 344 
z
" transform="scale(0.015625)"/>
       </defs>
       <use xlink:href="#Roboto-Regular-31"/>
       <use xlink:href="#Roboto-Regular-30" x="56.298828"/>
       <use xlink:href="#Roboto-Regular-30" x="112.597656"/>
       <use xlink:href="#Roboto-Regular-25" x="168.896484"/>
      </g>
     </g>
    </g>
   </g>
   <g id="line2d_22">
    <path d="M 57.141135 295.302752 
L 57.948367 292.874536 
L 58.755599 288.625156 
L 59.562831 285.069553 
L 61.177295 278.825567 
L 61.984527 285.850051 
L 65.213455 348.723523 
L 66.020687 360.951329 
L 66.82792 363.206102 
L 70.056848 370.577474 
L 72.478544 376.214406 
L 73.285776 376.561294 
L 74.093008 374.826854 
L 75.707472 369.53681 
L 77.321936 363.292824 
L 78.9364 360.951329 
L 79.743632 359.650498 
L 80.550864 356.962115 
L 81.358097 357.482448 
L 82.972561 361.645105 
L 84.587025 365.547596 
L 85.394257 366.328095 
L 87.008721 366.328095 
L 87.815953 365.460874 
L 89.430417 363.9866 
L 91.852113 361.384939 
L 93.466577 359.910664 
L 94.273809 359.650498 
L 95.888274 362.252159 
L 98.30997 366.067929 
L 101.538898 370.40403 
L 103.960594 373.526023 
L 104.767826 375.433908 
L 108.803987 400.75674 
L 112.032915 420.876251 
L 114.454611 435.79244 
L 115.261843 436.572939 
L 118.490771 428.247624 
L 120.105235 418.881645 
L 124.948628 388.268768 
L 127.370324 371.618138 
L 128.984788 360.517719 
L 129.79202 357.395726 
L 131.406484 353.666678 
L 136.249876 342.999869 
L 137.864341 339.270821 
L 139.478805 335.715218 
L 140.286037 335.36833 
L 141.900501 336.148828 
L 142.707733 336.582439 
L 143.514965 336.669161 
L 144.322197 337.189493 
L 145.129429 337.362937 
L 146.743893 338.316879 
L 148.358357 338.490323 
L 149.165589 335.888662 
L 149.972821 330.165008 
L 150.780054 333.63389 
L 156.430678 376.301128 
L 157.23791 380.984118 
L 158.045142 380.63723 
L 158.852374 380.116897 
L 160.466838 378.729345 
L 161.27407 378.469179 
L 163.695766 378.555901 
L 164.502998 379.076233 
L 166.924695 379.076233 
L 167.731927 378.729345 
L 168.539159 374.479965 
L 170.153623 364.073322 
L 170.960855 359.823942 
L 171.768087 358.43639 
L 172.575319 358.43639 
L 173.382551 359.043444 
L 174.189783 359.043444 
L 174.997015 359.910664 
L 178.225943 369.450088 
L 180.64764 376.908182 
L 181.454872 380.290341 
L 182.262104 381.851338 
L 184.6838 378.902789 
L 185.491032 379.856731 
L 186.298264 387.574992 
L 187.105496 394.079144 
L 187.912728 393.818978 
L 191.141656 389.829765 
L 191.948888 389.049266 
L 192.75612 393.03848 
L 194.370585 405.43973 
L 195.177817 407.781225 
L 195.985049 408.561723 
L 199.213977 421.743472 
L 200.021209 421.65675 
L 201.635673 419.141811 
L 202.442905 418.014424 
L 203.250137 413.071269 
L 205.671833 388.35549 
L 206.479065 382.545114 
L 207.286298 379.943453 
L 208.900762 370.664196 
L 210.515226 363.899878 
L 212.936922 351.238462 
L 213.744154 350.891573 
L 216.973082 366.935149 
L 219.394778 379.683287 
L 220.20201 383.325612 
L 222.623707 395.900307 
L 223.430939 399.716076 
L 224.238171 404.225622 
L 225.045403 405.786618 
L 225.852635 405.483091 
L 225.852635 405.483091 
" clip-path="url(#pce9c5d3217)" style="fill: none; stroke: #1f77b4; stroke-width: 4"/>
   </g>
   <g id="line2d_23">
    <path d="M 225.852635 476.81196 
L 226.659867 472.389137 
L 227.467099 466.318595 
L 228.274331 461.115273 
L 229.081563 466.492039 
L 230.696027 482.882503 
L 231.503259 487.04516 
L 232.310491 488.432712 
L 233.924955 492.768814 
L 234.732187 496.064251 
L 235.53942 499.88002 
L 236.346652 501.874627 
L 237.153884 502.308237 
L 237.961116 502.915291 
L 238.768348 503.782512 
L 239.57558 506.384173 
L 241.190044 512.628159 
L 241.997276 514.275877 
L 242.804508 516.704094 
L 244.418972 522.51447 
L 245.226204 524.855965 
L 246.840668 528.238124 
L 247.6479 529.278788 
L 248.455132 529.885843 
L 250.069597 531.707005 
L 250.876829 532.74767 
L 251.684061 534.48211 
L 254.105757 543.587923 
L 254.912989 542.807425 
L 255.720221 540.89954 
L 258.141917 546.623194 
L 258.949149 545.062198 
L 261.370845 535.34933 
L 262.178077 531.446839 
L 262.98531 528.9319 
L 264.599774 527.457626 
L 265.407006 526.850572 
L 266.214238 524.942687 
L 269.443166 511.41405 
L 270.250398 509.246 
L 271.05763 508.118613 
L 271.864862 507.511559 
L 272.672094 506.644339 
L 273.479326 506.297451 
L 275.09379 508.292057 
L 275.901022 509.419444 
L 276.708254 509.766332 
L 277.515487 509.766332 
L 279.129951 511.240606 
L 280.744415 513.321935 
L 281.551647 513.495379 
L 283.166111 509.67961 
L 283.973343 509.592888 
L 284.780575 510.54683 
L 286.395039 511.067162 
L 287.202271 511.760938 
L 288.009503 514.189155 
L 288.816735 512.975047 
L 292.045664 498.058858 
L 292.852896 497.798692 
L 293.660128 500.053464 
L 294.46736 501.614461 
L 296.081824 502.828569 
L 296.889056 502.741847 
L 297.696288 499.272966 
L 299.310752 491.381261 
L 300.117984 487.999102 
L 300.925216 487.825658 
L 301.732448 489.993709 
L 303.346912 495.890807 
L 304.154144 497.538526 
L 305.768609 490.687485 
L 308.190305 479.847231 
L 309.804769 475.858018 
L 313.033697 468.399924 
L 314.648161 465.277931 
L 315.455393 463.456768 
L 317.877089 456.172117 
L 318.684321 451.922738 
L 319.491554 444.898254 
L 320.298786 448.280413 
L 321.91325 456.952616 
L 322.720482 457.733114 
L 324.334946 470.39453 
L 327.563874 495.457197 
L 329.178338 506.904505 
L 329.98557 509.506166 
L 330.792802 508.378779 
L 333.214499 504.042678 
L 334.021731 502.394959 
L 337.250659 493.982922 
L 338.865123 492.508648 
L 339.672355 491.901594 
L 341.286819 490.947651 
L 343.708515 489.213211 
L 344.515747 488.692879 
L 345.322979 487.565492 
L 346.130211 485.484163 
L 346.937443 484.183333 
L 348.551908 488.172546 
L 349.35914 485.310719 
L 350.166372 481.06134 
L 351.780836 474.297022 
L 357.43146 452.00946 
L 358.238692 449.494521 
L 359.045924 449.928131 
L 359.853156 450.70863 
L 360.660388 452.182904 
L 361.467621 453.397012 
L 363.082085 455.218175 
L 363.889317 456.865894 
L 364.696549 459.29411 
L 365.503781 460.941829 
L 367.118245 456.345561 
L 368.732709 450.535185 
L 370.347173 443.684145 
L 371.154405 443.770867 
L 371.961637 444.464643 
L 372.768869 445.852196 
L 373.576101 448.367135 
L 374.383333 457.299504 
L 375.190566 463.283324 
L 375.997798 464.670876 
L 376.80503 464.84432 
L 377.612262 464.670876 
L 378.419494 465.624819 
L 379.226726 465.884985 
L 380.033958 466.578761 
L 380.84119 468.313202 
L 381.648422 471.955527 
L 382.455654 477.072127 
L 383.262886 479.066733 
L 384.070118 478.719845 
L 384.87735 477.332293 
L 385.684582 473.343079 
L 386.491814 472.042249 
L 387.299046 471.435195 
L 392.142439 466.665483 
L 392.949671 466.492039 
L 394.564135 466.492039 
L 394.564135 466.492039 
" clip-path="url(#pce9c5d3217)" style="fill: none; stroke: #1f77b4; stroke-width: 4"/>
   </g>
   <g id="line2d_24">
    <path d="M 394.564135 309.264999 
L 395.371367 305.622674 
L 396.178599 301.373294 
L 396.985831 298.945078 
L 398.600295 309.264999 
L 401.021991 325.655463 
L 401.829223 330.338452 
L 402.636455 323.313968 
L 403.443688 314.294877 
L 404.25092 318.28409 
L 405.865384 333.373723 
L 406.672616 333.63389 
L 407.479848 331.899449 
L 410.708776 327.043015 
L 411.516008 326.782849 
L 412.32324 332.853391 
L 413.937704 347.075804 
L 414.744936 351.065017 
L 416.3594 347.682858 
L 418.781097 344.907753 
L 419.588329 344.127255 
L 420.395561 343.086591 
L 421.202793 342.652981 
L 422.817257 347.856302 
L 424.431721 353.31979 
L 426.046185 360.344275 
L 426.853417 364.160044 
L 427.660649 367.282037 
L 428.467881 366.414817 
L 429.275113 365.981207 
L 430.082345 366.761705 
L 430.889577 367.368759 
L 432.504042 368.929756 
L 433.311274 368.409423 
L 434.118506 366.935149 
L 434.925738 368.235979 
L 440.576362 384.973331 
L 442.998058 391.997815 
L 443.80529 396.420639 
L 445.419755 408.821889 
L 446.226987 417.40737 
L 447.034219 423.8248 
L 448.648683 423.044302 
L 449.455915 422.784136 
L 450.263147 422.263804 
L 451.070379 422.003638 
L 451.877611 423.651356 
L 454.299307 431.803227 
L 455.106539 434.49161 
L 455.913771 435.445552 
L 459.142699 415.065875 
L 460.757164 404.919398 
L 461.564396 401.190351 
L 462.371628 400.32313 
L 463.17886 398.501968 
L 464.793324 388.442212 
L 465.600556 383.325612 
L 466.407788 379.856731 
L 467.21502 377.428514 
L 473.672877 362.599047 
L 474.480109 360.691163 
L 476.094573 354.794065 
L 476.901805 352.279126 
L 477.709037 353.579956 
L 483.359661 366.761705 
L 484.166893 368.149257 
L 484.974125 369.1032 
L 485.781357 369.883698 
L 486.588589 370.83764 
L 487.395822 371.618138 
L 490.62475 375.52063 
L 495.468142 390.870429 
L 496.275374 394.079144 
L 497.889838 396.507361 
L 498.69707 395.640141 
L 499.504302 394.599476 
L 500.311534 394.946364 
L 501.118766 400.75674 
L 504.347695 427.553848 
L 505.154927 430.155508 
L 505.962159 428.421068 
L 506.769391 425.645963 
L 507.576623 424.692021 
L 508.383855 427.467126 
L 510.805551 432.583725 
L 511.612783 435.098664 
L 512.420015 439.261322 
L 513.227247 439.60821 
L 516.456176 437.960491 
L 517.263408 437.613603 
L 518.07064 437.787047 
L 518.877872 437.006549 
L 523.721264 406.30695 
L 524.528496 401.797405 
L 527.757424 389.743043 
L 528.564656 387.314826 
L 529.371888 388.182046 
L 530.986353 391.997815 
L 531.793585 393.03848 
L 532.600817 391.304039 
L 535.022513 385.320219 
L 535.829745 383.499057 
L 536.636977 383.152168 
L 537.444209 377.25507 
L 538.251441 368.409423 
L 539.058673 363.206102 
L 539.865905 366.154651 
L 541.480369 372.918969 
L 542.287601 375.95424 
L 543.094833 377.601959 
L 543.902066 376.648016 
L 544.709298 369.97042 
L 547.130994 344.734309 
L 547.938226 336.23555 
L 548.745458 335.194886 
L 549.55269 331.726005 
L 550.359922 333.807334 
L 551.167154 338.403601 
L 551.974386 333.547167 
L 553.58885 318.197368 
L 554.396082 306.923504 
L 555.203314 300.245908 
L 556.010546 296.863749 
L 557.625011 290.793207 
L 559.239475 284.809387 
L 560.046707 282.641336 
L 560.853939 287.150882 
L 561.661171 287.411048 
L 562.468403 287.411048 
L 562.468403 287.411048 
" clip-path="url(#pce9c5d3217)" style="fill: none; stroke: #d62728; stroke-width: 4"/>
   </g>
   <g id="line2d_25">
    <path d="M 563.275635 322.013138 
L 564.082867 322.186582 
L 566.504563 322.186582 
L 567.311795 322.620192 
L 568.119027 322.53347 
L 569.733491 322.620192 
L 571.347955 322.620192 
L 572.155188 322.793636 
L 572.96242 323.140524 
L 573.769652 320.799029 
L 574.576884 320.799029 
L 575.384116 321.232639 
L 576.99858 322.53347 
L 578.613044 323.660856 
L 579.420276 324.26791 
L 581.03474 325.048409 
L 582.649204 326.175795 
L 583.456436 326.002351 
L 584.263668 325.655463 
L 585.878133 324.614798 
L 586.685365 324.441354 
L 587.492597 324.094466 
L 592.335989 332.333059 
L 593.143221 332.419781 
L 593.950453 331.552561 
L 594.757685 330.945507 
L 595.564917 330.165008 
L 597.179381 325.482019 
L 600.40831 315.682429 
L 601.215542 313.774545 
L 602.022774 312.73388 
L 604.44447 306.663338 
L 610.095094 293.308146 
L 611.709558 286.890716 
L 612.51679 283.335112 
L 613.324022 280.386563 
L 614.938487 277.438014 
L 616.552951 273.795689 
L 617.360183 271.887804 
L 618.167415 270.41353 
L 621.396343 273.188635 
L 622.203575 274.055855 
L 623.010807 274.749631 
L 623.818039 274.576187 
L 624.625271 273.188635 
L 625.432503 269.372866 
L 631.89036 231.12845 
L 634.312056 216.732594 
L 635.119288 210.662051 
L 635.92652 208.667445 
L 638.348216 201.64296 
L 639.96268 197.220137 
L 643.998841 186.032995 
L 644.806073 185.512663 
L 648.035001 185.425941 
L 649.649465 185.252497 
L 650.456697 185.859551 
L 652.071161 198.867855 
L 655.300089 226.098573 
L 656.107322 226.445461 
L 656.914554 227.833013 
L 657.721786 225.491519 
L 663.37241 203.897733 
L 664.179642 202.683625 
L 664.986874 204.244621 
L 671.444731 204.244621 
L 672.251963 204.504787 
L 673.059195 204.504787 
L 674.673659 202.857069 
L 676.288123 198.520967 
L 677.095355 195.919306 
L 679.517051 180.222619 
L 680.324283 175.886518 
L 681.131515 177.100626 
L 683.553211 183.344612 
L 684.360444 184.818887 
L 685.167676 183.604778 
L 686.78214 176.493572 
L 687.589372 172.937969 
L 688.396604 170.769918 
L 689.203836 170.249586 
L 690.011068 170.249586 
L 690.8183 169.815976 
L 691.625532 169.642531 
L 692.432764 169.98942 
L 693.239996 167.474481 
L 694.047228 164.265766 
L 694.85446 162.097715 
L 695.661692 161.057051 
L 696.468924 159.235888 
L 698.083389 153.078624 
L 698.890621 153.33879 
L 699.697853 156.720949 
L 700.505085 159.496054 
L 701.312317 161.750827 
L 702.119549 160.276552 
L 705.348477 151.951237 
L 706.962941 148.569078 
L 707.770173 147.094804 
L 709.384637 143.712645 
L 710.191869 142.411814 
L 712.613566 143.712645 
L 714.22803 143.279034 
L 715.035262 142.064926 
L 715.842494 139.463265 
L 716.649726 138.422601 
L 717.456958 139.549987 
L 718.26419 140.157041 
L 719.878654 136.25455 
L 721.493118 130.27073 
L 723.107582 116.742093 
L 723.914814 113.273212 
L 725.529278 111.105161 
L 726.336511 109.804331 
L 727.143743 109.804331 
L 727.950975 109.544165 
L 728.758207 109.544165 
L 729.565439 109.023833 
L 731.179903 108.937111 
L 731.179903 108.937111 
" clip-path="url(#pce9c5d3217)" style="fill: none; stroke: #d62728; stroke-width: 4"/>
   </g>
   <g id="line2d_26">
    <path d="M 731.179903 314.728487 
L 731.987135 314.815209 
L 732.794367 315.335541 
L 733.601599 315.335541 
L 734.408831 315.855873 
L 735.216063 315.942595 
L 736.023295 316.54965 
L 736.830527 316.54965 
L 739.252223 317.503592 
L 740.059456 313.687823 
L 740.866688 305.275786 
L 742.481152 308.397779 
L 747.324544 318.370812 
L 748.939008 321.752971 
L 749.74624 323.313968 
L 751.360704 324.441354 
L 752.167936 324.874965 
L 752.975168 325.135131 
L 753.7824 325.655463 
L 754.589633 325.742185 
L 755.396865 326.175795 
L 756.204097 322.793636 
L 757.011329 315.769151 
L 757.818561 314.121433 
L 759.433025 312.647158 
L 761.047489 311.259606 
L 761.854721 309.611887 
L 765.890881 296.516861 
L 773.15597 275.009797 
L 774.770434 270.500252 
L 775.577666 268.679089 
L 776.384898 269.025977 
L 777.19213 269.719754 
L 777.999362 270.153364 
L 778.806594 270.760418 
L 780.421058 271.71436 
L 782.035523 272.928469 
L 782.842755 269.633032 
L 785.264451 250.901073 
L 786.071683 246.47825 
L 786.878915 247.952524 
L 789.300611 253.589456 
L 792.529539 261.307717 
L 793.336771 262.521825 
L 794.951235 263.56249 
L 795.758467 263.909378 
L 796.5657 264.42971 
L 797.372932 263.822656 
L 798.987396 253.242568 
L 799.794628 251.941738 
L 802.216324 249.513521 
L 803.830788 247.692358 
L 804.63802 247.865802 
L 805.445252 247.34547 
L 807.866948 247.258748 
L 808.67418 246.91186 
L 809.481412 246.738416 
L 811.095877 246.738416 
L 815.132037 244.917253 
L 817.553733 243.182813 
L 818.360965 242.835924 
L 823.204357 239.713931 
L 824.01159 238.413101 
L 824.818822 238.326379 
L 828.04775 258.706056 
L 832.891142 290.359597 
L 833.698374 298.511467 
L 834.505606 326.262517 
L 836.12007 398.501968 
L 836.927302 412.377492 
L 837.734534 420.355919 
L 838.541767 417.320648 
L 841.770695 401.884127 
L 843.385159 395.206531 
L 844.192391 393.298646 
L 844.999623 394.165866 
L 845.806855 394.079144 
L 846.614087 392.865036 
L 848.228551 389.916487 
L 850.650247 382.458392 
L 853.879176 371.531416 
L 854.686408 370.83764 
L 860.337032 383.325612 
L 861.951496 386.967938 
L 862.758728 388.095324 
L 863.56596 386.534328 
L 865.180424 394.859642 
L 865.987656 399.109022 
L 866.794889 402.317737 
L 867.602121 404.485788 
L 868.409353 407.174171 
L 869.216585 411.163384 
L 870.023817 413.591601 
L 870.831049 414.632265 
L 872.445513 413.244713 
L 873.252745 414.285377 
L 874.059977 417.320648 
L 875.674441 425.645963 
L 876.481673 427.553848 
L 877.288905 425.472519 
L 878.096137 422.003638 
L 878.903369 420.789529 
L 880.517834 426.860071 
L 881.325066 425.992851 
L 882.132298 423.044302 
L 882.93953 418.448034 
L 883.746762 410.816496 
L 884.553994 411.336828 
L 885.361226 409.082055 
L 886.168458 402.838069 
L 889.397386 383.065446 
L 890.204618 376.040962 
L 891.01185 367.368759 
L 891.819082 360.257553 
L 892.626314 361.038051 
L 895.855243 369.363366 
L 896.662475 372.138471 
L 897.469707 374.219799 
L 899.891403 374.219799 
L 899.891403 374.219799 
" clip-path="url(#pce9c5d3217)" style="fill: none; stroke: #d62728; stroke-width: 4"/>
   </g>
   <g id="line2d_27">
    <path d="M 899.891403 470.02813 
L 900.698635 464.436727 
L 901.505867 460.924485 
L 902.313099 470.446563 
L 903.120331 481.052668 
L 903.927563 491.355245 
L 904.734795 500.122842 
L 905.542027 509.497493 
L 906.349259 519.288411 
L 907.156491 529.00995 
L 907.963723 538.722817 
L 908.770956 548.41834 
L 909.578188 551.783155 
L 910.38542 552.320832 
L 911.192652 552.476931 
L 911.999884 552.702409 
L 912.807116 553.942534 
L 913.614348 555.243364 
L 914.42158 556.587556 
L 915.228812 558.035813 
L 916.036044 560.533408 
L 916.843276 563.230463 
L 917.650508 565.892829 
L 918.45774 568.442457 
L 919.264972 571.451711 
L 920.072204 573.186152 
L 920.879436 574.296194 
L 921.686668 575.562336 
L 922.493901 577.053955 
L 923.301133 578.614951 
L 924.108365 580.071881 
L 924.915597 581.233956 
L 925.722829 580.77433 
L 926.530061 580.505491 
L 927.337293 580.314703 
L 928.144525 580.193292 
L 928.951757 580.115242 
L 929.758989 578.259391 
L 930.566221 577.158021 
L 931.373453 578.259391 
L 932.180685 579.534205 
L 932.987917 580.011176 
L 933.795149 577.886486 
L 934.602381 578.051258 
L 935.409613 578.970511 
L 936.216846 579.837732 
L 937.024078 577.895158 
L 937.83131 575.215447 
L 938.638542 574.088061 
L 939.445774 573.064741 
L 940.253006 571.399678 
L 941.060238 572.370965 
L 941.86747 573.498351 
L 942.674702 574.747149 
L 943.481934 575.675074 
L 944.289166 574.539016 
L 945.096398 573.168808 
L 945.90363 571.7986 
L 946.710862 570.46308 
L 947.518094 569.51781 
L 948.325326 569.2403 
L 949.132558 570.437064 
L 949.93979 571.867977 
L 950.747023 571.243579 
L 951.554255 568.745984 
L 952.361487 566.560589 
L 953.168719 565.190381 
L 953.975951 567.445154 
L 954.783183 565.155692 
L 955.590415 561.149134 
L 956.397647 557.515481 
L 957.204879 557.064527 
" clip-path="url(#pce9c5d3217)" style="fill: none; stroke: #d62728; stroke-width: 4"/>
   </g>
   <g id="line2d_28">
    <path d="M 957.204879 549.749523 
L 958.012111 548.097469 
L 959.626575 550.092075 
L 960.433807 550.26552 
L 961.241039 549.658465 
L 962.855503 546.44975 
L 964.469968 543.761367 
L 966.084432 544.194977 
L 967.698896 544.802032 
L 968.506128 544.455144 
L 969.31336 543.761367 
L 970.120592 542.894147 
L 970.927824 542.200371 
L 971.735056 541.33315 
L 974.156752 537.430659 
L 974.963984 536.389995 
L 975.771216 539.078378 
L 978.192912 549.485021 
L 979.000145 552.173404 
L 980.614609 555.121953 
L 981.421841 556.336062 
L 982.229073 555.382119 
L 985.458001 559.631499 
L 986.265233 559.978387 
L 987.879697 559.371333 
L 988.686929 559.371333 
L 989.494161 559.544777 
L 990.301393 561.192495 
L 991.915857 564.054322 
L 995.952018 574.2008 
L 996.75925 574.547688 
L 997.566482 574.63441 
L 999.180946 579.924454 
L 999.988178 581.745616 
L 1002.409874 585.474664 
L 1003.217106 586.341884 
L 1004.024338 586.16844 
L 1004.83157 587.90288 
L 1006.446035 592.412426 
L 1007.253267 593.626534 
L 1008.867731 594.580477 
L 1009.674963 595.360975 
L 1012.903891 597.182138 
L 1014.518355 599.176744 
L 1015.325587 596.228195 
L 1016.132819 594.407033 
L 1016.940051 593.01948 
L 1017.747283 592.759314 
L 1018.554515 593.279646 
L 1020.168979 593.973422 
L 1020.976212 593.973422 
L 1023.397908 592.065538 
L 1024.20514 591.111596 
L 1025.012372 590.591263 
L 1025.819604 590.331097 
L 1026.626836 589.810765 
L 1027.434068 589.724043 
L 1029.048532 589.116989 
L 1029.855764 589.116989 
L 1031.470228 590.417819 
L 1033.084692 592.672592 
L 1033.891924 593.8867 
L 1034.699157 594.840643 
L 1035.506389 595.100809 
L 1036.313621 593.45309 
L 1037.928085 588.509935 
L 1039.542549 576.108684 
L 1041.157013 588.336491 
L 1041.964245 592.759314 
L 1043.578709 596.054751 
L 1044.385941 596.748527 
L 1045.193173 593.626534 
L 1046.000405 592.15226 
L 1046.807637 591.198318 
L 1047.614869 590.938151 
L 1048.422102 591.198318 
L 1049.229334 592.15226 
L 1050.036566 593.713256 
L 1052.458262 597.442304 
L 1054.072726 602.212015 
L 1054.879958 603.859734 
L 1055.68719 602.81907 
L 1056.494422 603.079236 
L 1057.301654 601.691683 
L 1058.916118 592.412426 
L 1060.530582 582.439393 
L 1061.337814 578.450179 
L 1062.145046 578.190013 
L 1064.566743 578.190013 
L 1065.373975 578.797067 
L 1066.181207 579.664288 
L 1066.988439 580.18462 
L 1068.602903 580.011176 
L 1068.602903 580.011176 
" clip-path="url(#pce9c5d3217)" style="fill: none; stroke: #ff7f0e; stroke-width: 4"/>
   </g>
   <g id="line2d_29">
    <path d="M 1068.602903 355.60347 
L 1069.410135 356.008173 
L 1070.217367 351.498628 
L 1071.024599 340.224764 
L 1071.831831 338.056713 
L 1072.639063 354.880787 
L 1073.446295 366.328095 
L 1074.253527 374.306521 
L 1075.060759 379.249677 
L 1075.867991 382.198226 
L 1078.289688 388.095324 
L 1079.09692 394.512754 
L 1079.904152 394.252588 
L 1080.711384 393.645534 
L 1081.518616 388.35549 
L 1082.325848 379.423121 
L 1083.940312 394.165866 
L 1084.747544 401.016907 
L 1085.554776 405.179564 
L 1087.16924 397.981635 
L 1087.976472 401.710683 
L 1088.783704 406.133506 
L 1089.590936 405.613174 
L 1091.205401 401.363795 
L 1092.012633 401.277073 
L 1093.627097 412.464214 
L 1094.434329 417.927702 
L 1096.048793 423.998244 
L 1097.663257 410.469608 
L 1098.470489 403.098235 
L 1099.277721 403.965456 
L 1100.084953 410.035998 
L 1100.892185 414.979153 
L 1102.506649 423.39119 
L 1103.313881 426.686627 
L 1104.121113 425.992851 
L 1104.928346 433.017335 
L 1105.735578 433.450946 
L 1106.54281 433.104058 
L 1107.350042 431.196173 
L 1108.157274 422.870858 
L 1108.964506 400.236408 
L 1109.771738 399.716076 
L 1111.386202 408.214835 
L 1112.193434 409.949276 
L 1113.000666 405.092842 
L 1113.807898 402.404459 
L 1114.61513 403.792011 
L 1115.422362 400.670018 
L 1116.229594 402.838069 
L 1117.036826 402.751347 
L 1117.844058 403.358401 
L 1118.651291 408.475001 
L 1119.458523 409.949276 
L 1121.072987 425.385797 
L 1121.880219 418.621479 
L 1122.687451 419.748865 
L 1123.494683 437.526881 
L 1124.301915 448.714023 
L 1125.109147 447.586636 
L 1125.916379 448.800745 
L 1126.723611 448.280413 
L 1127.530843 447.499914 
L 1128.338075 450.70863 
L 1129.145307 439.868376 
L 1129.952539 440.90904 
L 1130.759771 440.822318 
L 1131.567003 439.348044 
L 1132.374235 436.919827 
L 1133.181468 432.843891 
L 1133.9887 430.415675 
L 1134.795932 425.559241 
L 1136.410396 410.469608 
L 1137.217628 415.239319 
L 1138.02486 401.450517 
L 1138.832092 394.079144 
L 1139.639324 393.558812 
L 1140.446556 392.778314 
L 1141.253788 401.190351 
L 1142.06102 400.32313 
L 1143.675484 390.263375 
L 1144.482716 388.615656 
L 1145.289948 393.298646 
L 1146.09718 402.491181 
L 1146.904413 405.87334 
L 1147.711645 402.751347 
L 1148.518877 402.924791 
L 1149.326109 399.976242 
L 1150.133341 394.599476 
L 1150.940573 395.033086 
L 1151.747805 397.808191 
L 1154.976733 426.079573 
L 1155.783965 430.502397 
L 1156.591197 429.114844 
L 1157.398429 429.548454 
L 1159.012893 434.058 
L 1159.820125 439.868376 
L 1160.627358 450.795352 
L 1161.43459 463.370046 
L 1162.241822 462.069215 
L 1163.049054 461.115273 
L 1163.856286 462.416104 
L 1164.663518 463.456768 
L 1165.47075 462.416104 
L 1166.277982 455.911951 
L 1167.085214 448.193691 
L 1168.699678 457.299504 
L 1169.50691 457.906558 
L 1170.314142 458.947222 
L 1171.121374 454.524399 
L 1171.928606 456.779172 
L 1173.54307 463.630212 
L 1174.350302 466.318595 
L 1175.157535 460.161331 
L 1176.771999 449.060911 
L 1177.579231 452.963402 
L 1178.386463 458.687056 
L 1179.193695 457.472948 
L 1180.000927 457.906558 
L 1180.808159 460.161331 
L 1182.422623 468.313202 
L 1183.229855 469.180422 
L 1184.037087 467.012371 
L 1184.844319 462.936436 
L 1185.651551 461.809049 
L 1188.073247 474.2103 
L 1188.88048 474.817354 
L 1189.687712 474.904076 
L 1190.494944 473.689967 
L 1191.302176 468.920256 
L 1192.109408 472.475859 
L 1192.91664 473.516523 
L 1193.723872 470.221086 
L 1194.531104 464.84432 
L 1195.338336 469.006978 
L 1196.145568 472.042249 
L 1196.9528 471.608639 
L 1197.760032 469.52731 
L 1198.567264 466.492039 
L 1199.374496 465.711541 
L 1200.181728 463.456768 
L 1200.98896 458.600334 
L 1201.796192 455.391619 
L 1202.603425 454.004067 
L 1203.410657 452.269626 
L 1205.025121 443.510701 
L 1206.639585 440.822318 
L 1207.446817 440.90904 
L 1208.254049 442.296593 
L 1209.061281 441.082484 
L 1209.868513 441.34265 
L 1210.675745 441.255928 
L 1211.482977 442.643481 
L 1212.290209 439.087878 
L 1213.097441 439.60821 
L 1213.904673 437.526881 
L 1214.711905 440.562152 
L 1215.519137 440.128542 
L 1216.326369 435.532274 
L 1217.133602 431.976671 
L 1217.940834 430.242231 
L 1218.748066 433.711112 
L 1219.555298 431.369617 
L 1221.976994 417.320648 
L 1223.591458 415.152597 
L 1224.39869 415.933096 
L 1225.205922 413.851767 
L 1226.013154 408.041391 
L 1226.820386 398.935578 
L 1227.627618 393.732256 
L 1228.43485 387.748436 
L 1229.242082 385.060053 
L 1230.049314 382.978724 
L 1233.278243 376.474572 
L 1234.085475 379.509843 
L 1234.892707 380.723952 
L 1235.699939 379.509843 
L 1236.507171 380.08799 
L 1236.507171 380.08799 
" clip-path="url(#pce9c5d3217)" style="fill: none; stroke: #2ca02c; stroke-width: 4"/>
   </g>
   <g id="line2d_30">
    <path d="M 1236.507171 331.118951 
L 1237.314403 333.287001 
L 1238.121635 342.306092 
L 1238.928867 346.295306 
L 1239.736099 350.284519 
L 1240.543331 353.926844 
L 1241.350563 358.783278 
L 1242.157795 362.252159 
L 1242.965027 365.28743 
L 1243.772259 369.276644 
L 1244.579491 370.577474 
L 1245.386724 371.965027 
L 1246.193956 375.000298 
L 1247.001188 377.688681 
L 1247.80842 376.38785 
L 1248.615652 375.694074 
L 1249.422884 377.428514 
L 1250.230116 379.162955 
L 1251.037348 380.290341 
L 1251.84458 380.290341 
L 1252.651812 380.290341 
L 1253.459044 380.290341 
" clip-path="url(#pce9c5d3217)" style="fill: none; stroke: #d62728; stroke-width: 4"/>
   </g>
   <g id="line2d_31">
    <path d="M 53.56625 618.862645 
L 1275.023672 618.862645 
" clip-path="url(#pce9c5d3217)" style="fill: none; stroke: #000000; stroke-opacity: 0.5; stroke-width: 6"/>
   </g>
   <g id="line2d_32">
    <path d="M 53.56625 351.455267 
L 1275.023672 351.455267 
" clip-path="url(#pce9c5d3217)" style="fill: none; stroke-dasharray: 12,12; stroke-dashoffset: 0; stroke: #000000; stroke-width: 2"/>
   </g>
   <g id="text_14">
    <!-- 44% -->
    <g transform="translate(1253.92032 345.688252) scale(0.16 -0.16)">
     <defs>
      <path id="Roboto-Regular-34" d="M 2791 1531 
L 3419 1531 
L 3419 1050 
L 2791 1050 
L 2791 0 
L 2178 0 
L 2178 1050 
L 225 1050 
L 225 1397 
L 2141 4550 
L 2791 4550 
L 2791 1531 
z
M 884 1531 
L 2178 1531 
L 2178 3666 
L 2159 3669 
L 2100 3513 
L 884 1531 
z
" transform="scale(0.015625)"/>
     </defs>
     <use xlink:href="#Roboto-Regular-34"/>
     <use xlink:href="#Roboto-Regular-34" x="56.298828"/>
     <use xlink:href="#Roboto-Regular-25" x="112.597656"/>
    </g>
   </g>
   <g id="text_15">
    <!-- FHC 1 -->
    <g style="fill: #1f77b4" transform="translate(116.760988 527.804514) scale(0.16 -0.16)">
     <defs>
      <path id="Roboto-Bold-46" d="M 3078 1891 
L 1331 1891 
L 1331 0 
L 419 0 
L 419 4550 
L 3397 4550 
L 3397 3847 
L 1331 3847 
L 1331 2594 
L 3078 2594 
L 3078 1891 
z
" transform="scale(0.015625)"/>
      <path id="Roboto-Bold-48" d="M 4097 0 
L 3184 0 
L 3184 1891 
L 1331 1891 
L 1331 0 
L 419 0 
L 419 4550 
L 1331 4550 
L 1331 2594 
L 3184 2594 
L 3184 4550 
L 4097 4550 
L 4097 0 
z
" transform="scale(0.015625)"/>
      <path id="Roboto-Bold-43" d="M 3831 1506 
L 3838 1488 
Q 3850 759 3394 346 
Q 2938 -66 2134 -66 
Q 1316 -66 812 461 
Q 309 988 309 1822 
L 309 2725 
Q 309 3556 800 4086 
Q 1291 4616 2088 4616 
Q 2919 4616 3387 4209 
Q 3856 3803 3844 3066 
L 3838 3047 
L 2950 3047 
Q 2950 3484 2739 3698 
Q 2528 3913 2088 3913 
Q 1678 3913 1448 3583 
Q 1219 3253 1219 2731 
L 1219 1822 
Q 1219 1297 1461 965 
Q 1703 634 2134 634 
Q 2544 634 2745 848 
Q 2947 1063 2947 1506 
L 3831 1506 
z
" transform="scale(0.015625)"/>
      <path id="Roboto-Bold-20" transform="scale(0.015625)"/>
      <path id="Roboto-Bold-31" d="M 2488 0 
L 1578 0 
L 1578 3756 
L 638 3756 
L 638 4453 
L 2488 4616 
L 2488 0 
z
" transform="scale(0.015625)"/>
     </defs>
     <use xlink:href="#Roboto-Bold-46"/>
     <use xlink:href="#Roboto-Bold-48" x="55.615234"/>
     <use xlink:href="#Roboto-Bold-43" x="126.171875"/>
     <use xlink:href="#Roboto-Bold-20" x="189.794922"/>
     <use xlink:href="#Roboto-Bold-31" x="214.697266"/>
    </g>
   </g>
   <g id="text_16">
    <!-- FHC 2 -->
    <g style="fill: #1f77b4" transform="translate(285.241851 527.804514) scale(0.16 -0.16)">
     <defs>
      <path id="Roboto-Bold-32" d="M 3419 0 
L 366 0 
L 366 597 
L 1775 2191 
Q 2091 2563 2223 2820 
Q 2356 3078 2356 3294 
Q 2356 3575 2215 3744 
Q 2075 3913 1794 3913 
Q 1497 3913 1334 3697 
Q 1172 3481 1172 3150 
L 284 3150 
L 278 3169 
Q 263 3775 678 4195 
Q 1094 4616 1794 4616 
Q 2494 4616 2881 4258 
Q 3269 3900 3269 3297 
Q 3269 2888 3051 2550 
Q 2834 2213 2303 1616 
L 1553 716 
L 1559 700 
L 3419 700 
L 3419 0 
z
" transform="scale(0.015625)"/>
     </defs>
     <use xlink:href="#Roboto-Bold-46"/>
     <use xlink:href="#Roboto-Bold-48" x="55.615234"/>
     <use xlink:href="#Roboto-Bold-43" x="126.171875"/>
     <use xlink:href="#Roboto-Bold-20" x="189.794922"/>
     <use xlink:href="#Roboto-Bold-32" x="214.697266"/>
    </g>
   </g>
   <g id="text_17">
    <!-- LULA 1 -->
    <g style="fill: #d62728" transform="translate(453.722713 527.804514) scale(0.16 -0.16)">
     <defs>
      <path id="Roboto-Bold-4c" d="M 1331 700 
L 3369 700 
L 3369 0 
L 419 0 
L 419 4550 
L 1331 4550 
L 1331 700 
z
" transform="scale(0.015625)"/>
      <path id="Roboto-Bold-55" d="M 4025 4550 
L 4025 1572 
Q 4025 803 3515 368 
Q 3006 -66 2194 -66 
Q 1384 -66 879 368 
Q 375 803 375 1572 
L 375 4550 
L 1291 4550 
L 1291 1572 
Q 1291 1116 1534 875 
Q 1778 634 2194 634 
Q 2616 634 2862 875 
Q 3109 1116 3109 1572 
L 3109 4550 
L 4025 4550 
z
" transform="scale(0.015625)"/>
      <path id="Roboto-Bold-41" d="M 2791 981 
L 1316 981 
L 1009 0 
L 56 0 
L 1591 4550 
L 2525 4550 
L 4053 0 
L 3100 0 
L 2791 981 
z
M 1541 1697 
L 2569 1697 
L 2066 3300 
L 2047 3300 
L 1541 1697 
z
" transform="scale(0.015625)"/>
     </defs>
     <use xlink:href="#Roboto-Bold-4c"/>
     <use xlink:href="#Roboto-Bold-55" x="54.441406"/>
     <use xlink:href="#Roboto-Bold-4c" x="123.142578"/>
     <use xlink:href="#Roboto-Bold-41" x="179.583984"/>
     <use xlink:href="#Roboto-Bold-20" x="243.207031"/>
     <use xlink:href="#Roboto-Bold-31" x="268.109375"/>
    </g>
   </g>
   <g id="text_18">
    <!-- LULA 2 -->
    <g style="fill: #d62728" transform="translate(622.203575 527.804514) scale(0.16 -0.16)">
     <use xlink:href="#Roboto-Bold-4c"/>
     <use xlink:href="#Roboto-Bold-55" x="54.441406"/>
     <use xlink:href="#Roboto-Bold-4c" x="123.142578"/>
     <use xlink:href="#Roboto-Bold-41" x="179.583984"/>
     <use xlink:href="#Roboto-Bold-20" x="243.207031"/>
     <use xlink:href="#Roboto-Bold-32" x="268.109375"/>
    </g>
   </g>
   <g id="text_19">
    <!-- DILMA 1 -->
    <g style="fill: #d62728" transform="translate(790.684437 527.804514) scale(0.16 -0.16)">
     <defs>
      <path id="Roboto-Bold-44" d="M 419 0 
L 419 4550 
L 2006 4550 
Q 2841 4550 3381 4017 
Q 3922 3484 3922 2650 
L 3922 1897 
Q 3922 1059 3381 529 
Q 2841 0 2006 0 
L 419 0 
z
M 1331 3847 
L 1331 700 
L 2006 700 
Q 2456 700 2731 1036 
Q 3006 1372 3006 1897 
L 3006 2656 
Q 3006 3178 2731 3512 
Q 2456 3847 2006 3847 
L 1331 3847 
z
" transform="scale(0.015625)"/>
      <path id="Roboto-Bold-49" d="M 1394 0 
L 481 0 
L 481 4550 
L 1394 4550 
L 1394 0 
z
" transform="scale(0.015625)"/>
      <path id="Roboto-Bold-4d" d="M 2772 1197 
L 2791 1197 
L 3959 4550 
L 5150 4550 
L 5150 0 
L 4238 0 
L 4238 3106 
L 4219 3109 
L 3094 0 
L 2475 0 
L 1350 3116 
L 1331 3113 
L 1331 0 
L 419 0 
L 419 4550 
L 1616 4550 
L 2772 1197 
z
" transform="scale(0.015625)"/>
     </defs>
     <use xlink:href="#Roboto-Bold-44"/>
     <use xlink:href="#Roboto-Bold-49" x="66.162109"/>
     <use xlink:href="#Roboto-Bold-4c" x="95.507812"/>
     <use xlink:href="#Roboto-Bold-4d" x="151.074219"/>
     <use xlink:href="#Roboto-Bold-41" x="238.960938"/>
     <use xlink:href="#Roboto-Bold-20" x="302.583984"/>
     <use xlink:href="#Roboto-Bold-31" x="327.486328"/>
    </g>
   </g>
   <g id="text_20">
    <!-- DILMA 2 -->
    <g style="fill: #d62728" transform="translate(906.349259 527.804514) scale(0.16 -0.16)">
     <use xlink:href="#Roboto-Bold-44"/>
     <use xlink:href="#Roboto-Bold-49" x="66.162109"/>
     <use xlink:href="#Roboto-Bold-4c" x="95.507812"/>
     <use xlink:href="#Roboto-Bold-4d" x="151.074219"/>
     <use xlink:href="#Roboto-Bold-41" x="238.960938"/>
     <use xlink:href="#Roboto-Bold-20" x="302.583984"/>
     <use xlink:href="#Roboto-Bold-32" x="327.486328"/>
    </g>
   </g>
   <g id="text_21">
    <!-- TEMER -->
    <g style="fill: #ff7f0e" transform="translate(994.222235 527.804514) scale(0.16 -0.16)">
     <defs>
      <path id="Roboto-Bold-54" d="M 3591 3847 
L 2291 3847 
L 2291 0 
L 1378 0 
L 1378 3847 
L 97 3847 
L 97 4550 
L 3591 4550 
L 3591 3847 
z
" transform="scale(0.015625)"/>
      <path id="Roboto-Bold-45" d="M 3019 2000 
L 1331 2000 
L 1331 700 
L 3338 700 
L 3338 0 
L 419 0 
L 419 4550 
L 3331 4550 
L 3331 3847 
L 1331 3847 
L 1331 2703 
L 3019 2703 
L 3019 2000 
z
" transform="scale(0.015625)"/>
      <path id="Roboto-Bold-52" d="M 1331 1819 
L 1331 0 
L 419 0 
L 419 4550 
L 1994 4550 
Q 2772 4550 3211 4195 
Q 3650 3841 3650 3206 
Q 3650 2856 3464 2601 
Q 3278 2347 2922 2191 
Q 3325 2072 3501 1794 
Q 3678 1516 3678 1106 
L 3678 772 
Q 3678 581 3729 373 
Q 3781 166 3906 66 
L 3906 0 
L 2966 0 
Q 2841 100 2805 331 
Q 2769 563 2769 778 
L 2769 1100 
Q 2769 1441 2583 1630 
Q 2397 1819 2056 1819 
L 1331 1819 
z
M 1331 2522 
L 1978 2522 
Q 2363 2522 2550 2684 
Q 2738 2847 2738 3166 
Q 2738 3478 2548 3662 
Q 2359 3847 1994 3847 
L 1331 3847 
L 1331 2522 
z
" transform="scale(0.015625)"/>
     </defs>
     <use xlink:href="#Roboto-Bold-54"/>
     <use xlink:href="#Roboto-Bold-45" x="57.373047"/>
     <use xlink:href="#Roboto-Bold-4d" x="112.988281"/>
     <use xlink:href="#Roboto-Bold-45" x="200"/>
     <use xlink:href="#Roboto-Bold-52" x="255.615234"/>
    </g>
   </g>
   <g id="text_22">
    <!-- BOLSONARO -->
    <g style="fill: #2ca02c" transform="translate(1110.117694 527.804514) scale(0.16 -0.16)">
     <defs>
      <path id="Roboto-Bold-42" d="M 419 0 
L 419 4550 
L 1909 4550 
Q 2713 4550 3163 4236 
Q 3613 3922 3613 3303 
Q 3613 2991 3450 2744 
Q 3288 2497 2975 2372 
Q 3400 2294 3615 2003 
Q 3831 1713 3831 1325 
Q 3831 672 3400 336 
Q 2969 0 2178 0 
L 419 0 
z
M 1331 2013 
L 1331 700 
L 2178 700 
Q 2541 700 2731 858 
Q 2922 1016 2922 1325 
Q 2922 1656 2734 1834 
Q 2547 2013 2169 2013 
L 1331 2013 
z
M 1331 2644 
L 1941 2644 
Q 2306 2644 2503 2794 
Q 2700 2944 2700 3231 
Q 2700 3547 2501 3697 
Q 2303 3847 1909 3847 
L 1331 3847 
L 1331 2644 
z
" transform="scale(0.015625)"/>
      <path id="Roboto-Bold-4f" d="M 4100 1866 
Q 4100 1025 3572 479 
Q 3044 -66 2197 -66 
Q 1353 -66 828 481 
Q 303 1028 303 1866 
L 303 2684 
Q 303 3519 826 4067 
Q 1350 4616 2191 4616 
Q 3038 4616 3569 4067 
Q 4100 3519 4100 2684 
L 4100 1866 
z
M 3191 2691 
Q 3191 3222 2925 3562 
Q 2659 3903 2191 3903 
Q 1728 3903 1470 3562 
Q 1213 3222 1213 2691 
L 1213 1866 
Q 1213 1325 1472 984 
Q 1731 644 2197 644 
Q 2666 644 2928 984 
Q 3191 1325 3191 1866 
L 3191 2691 
z
" transform="scale(0.015625)"/>
      <path id="Roboto-Bold-53" d="M 2791 1188 
Q 2791 1450 2608 1609 
Q 2425 1769 1966 1909 
Q 1178 2147 770 2469 
Q 363 2791 363 3347 
Q 363 3906 822 4261 
Q 1281 4616 1994 4616 
Q 2750 4616 3211 4234 
Q 3672 3853 3656 3234 
L 3650 3216 
L 2766 3216 
Q 2766 3556 2559 3739 
Q 2353 3922 1981 3922 
Q 1644 3922 1459 3759 
Q 1275 3597 1275 3344 
Q 1275 3113 1475 2964 
Q 1675 2816 2166 2650 
Q 2916 2438 3309 2095 
Q 3703 1753 3703 1194 
Q 3703 609 3247 271 
Q 2791 -66 2041 -66 
Q 1306 -66 779 300 
Q 253 666 269 1391 
L 275 1409 
L 1159 1409 
Q 1159 1006 1396 815 
Q 1634 625 2041 625 
Q 2406 625 2598 778 
Q 2791 931 2791 1188 
z
" transform="scale(0.015625)"/>
      <path id="Roboto-Bold-4e" d="M 4097 0 
L 3184 0 
L 1350 3069 
L 1331 3066 
L 1331 0 
L 419 0 
L 419 4550 
L 1331 4550 
L 3166 1484 
L 3184 1488 
L 3184 4550 
L 4097 4550 
L 4097 0 
z
" transform="scale(0.015625)"/>
     </defs>
     <use xlink:href="#Roboto-Bold-42"/>
     <use xlink:href="#Roboto-Bold-4f" x="63.720703"/>
     <use xlink:href="#Roboto-Bold-4c" x="132.519531"/>
     <use xlink:href="#Roboto-Bold-53" x="188.085938"/>
     <use xlink:href="#Roboto-Bold-4f" x="249.902344"/>
     <use xlink:href="#Roboto-Bold-4e" x="318.701172"/>
     <use xlink:href="#Roboto-Bold-41" x="390.132812"/>
     <use xlink:href="#Roboto-Bold-52" x="453.755859"/>
     <use xlink:href="#Roboto-Bold-4f" x="517.476562"/>
    </g>
   </g>
   <g id="text_23">
    <!-- LULA 3 -->
    <g style="fill: #d62728" transform="translate(1240.082056 527.804514) scale(0.16 -0.16)">
     <defs>
      <path id="Roboto-Bold-33" d="M 1809 2675 
Q 2134 2675 2292 2844 
Q 2450 3013 2450 3319 
Q 2450 3575 2284 3744 
Q 2119 3913 1822 3913 
Q 1572 3913 1401 3759 
Q 1231 3606 1231 3369 
L 350 3369 
L 344 3388 
Q 325 3922 756 4269 
Q 1188 4616 1822 4616 
Q 2528 4616 2943 4283 
Q 3359 3950 3359 3328 
Q 3359 3016 3179 2755 
Q 3000 2494 2688 2344 
Q 3044 2209 3237 1936 
Q 3431 1663 3431 1275 
Q 3431 650 2979 292 
Q 2528 -66 1822 -66 
Q 1200 -66 734 271 
Q 269 609 284 1219 
L 291 1238 
L 1178 1238 
Q 1178 981 1358 807 
Q 1538 634 1822 634 
Q 2134 634 2328 818 
Q 2522 1003 2522 1284 
Q 2522 1644 2340 1817 
Q 2159 1991 1809 1991 
L 1306 1991 
L 1306 2675 
L 1809 2675 
z
" transform="scale(0.015625)"/>
     </defs>
     <use xlink:href="#Roboto-Bold-4c"/>
     <use xlink:href="#Roboto-Bold-55" x="54.441406"/>
     <use xlink:href="#Roboto-Bold-4c" x="123.142578"/>
     <use xlink:href="#Roboto-Bold-41" x="179.583984"/>
     <use xlink:href="#Roboto-Bold-20" x="243.207031"/>
     <use xlink:href="#Roboto-Bold-33" x="268.109375"/>
    </g>
   </g>
   <g id="text_24">
    <!-- Avaliao positiva do governo -->
    <g transform="translate(63.944948 42.161148) scale(0.28 -0.28)">
     <defs>
      <path id="Roboto-Bold-76" d="M 1572 1259 
L 1631 947 
L 1650 947 
L 1713 1259 
L 2269 3381 
L 3222 3381 
L 2072 0 
L 1200 0 
L 50 3381 
L 1003 3381 
L 1572 1259 
z
" transform="scale(0.015625)"/>
      <path id="Roboto-Bold-61" d="M 2344 0 
Q 2294 116 2258 244 
Q 2222 372 2206 506 
Q 2066 259 1834 96 
Q 1603 -66 1284 -66 
Q 753 -66 465 207 
Q 178 481 178 953 
Q 178 1450 561 1723 
Q 944 1997 1678 1997 
L 2191 1997 
L 2191 2266 
Q 2191 2509 2062 2643 
Q 1934 2778 1681 2778 
Q 1459 2778 1339 2670 
Q 1219 2563 1219 2375 
L 341 2375 
L 334 2394 
Q 313 2822 708 3133 
Q 1103 3444 1741 3444 
Q 2350 3444 2726 3137 
Q 3103 2831 3103 2259 
L 3103 863 
Q 3103 625 3139 415 
Q 3175 206 3253 0 
L 2344 0 
z
M 1509 609 
Q 1747 609 1934 728 
Q 2122 847 2191 1003 
L 2191 1481 
L 1678 1481 
Q 1388 1481 1239 1337 
Q 1091 1194 1091 984 
Q 1091 813 1202 711 
Q 1313 609 1509 609 
z
" transform="scale(0.015625)"/>
      <path id="Roboto-Bold-6c" d="M 1309 0 
L 397 0 
L 397 4875 
L 1309 4875 
L 1309 0 
z
" transform="scale(0.015625)"/>
      <path id="Roboto-Bold-69" d="M 1309 0 
L 397 0 
L 397 3381 
L 1309 3381 
L 1309 0 
z
M 1309 4191 
L 397 4191 
L 397 4875 
L 1309 4875 
L 1309 4191 
z
" transform="scale(0.015625)"/>
      <path id="Roboto-Bold-e7" d="M 1763 634 
Q 2000 634 2140 776 
Q 2281 919 2281 1156 
L 3113 1156 
L 3119 1138 
Q 3131 625 2737 279 
Q 2344 -66 1763 -66 
Q 1013 -66 603 414 
Q 194 894 194 1641 
L 194 1734 
Q 194 2478 601 2961 
Q 1009 3444 1756 3444 
Q 2375 3444 2753 3087 
Q 3131 2731 3119 2150 
L 3113 2131 
L 2281 2131 
Q 2281 2394 2142 2567 
Q 2003 2741 1756 2741 
Q 1403 2741 1254 2458 
Q 1106 2175 1106 1734 
L 1106 1641 
Q 1106 1191 1254 912 
Q 1403 634 1763 634 
z
M 2084 13 
L 2050 -165 
Q 2250 -200 2384 -328 
Q 2519 -456 2519 -706 
Q 2519 -1040 2233 -1240 
Q 1947 -1440 1422 -1440 
L 1400 -937 
Q 1559 -937 1653 -873 
Q 1747 -809 1747 -678 
Q 1747 -550 1647 -498 
Q 1547 -447 1303 -431 
L 1400 13 
L 2084 13 
z
" transform="scale(0.015625)"/>
      <path id="Roboto-Bold-e3" d="M 2344 0 
Q 2294 116 2258 244 
Q 2222 372 2206 506 
Q 2066 259 1834 96 
Q 1603 -66 1284 -66 
Q 753 -66 465 207 
Q 178 481 178 953 
Q 178 1450 561 1723 
Q 944 1997 1678 1997 
L 2191 1997 
L 2191 2266 
Q 2191 2509 2062 2643 
Q 1934 2778 1681 2778 
Q 1459 2778 1339 2670 
Q 1219 2563 1219 2375 
L 341 2375 
L 334 2394 
Q 313 2822 708 3133 
Q 1103 3444 1741 3444 
Q 2350 3444 2726 3137 
Q 3103 2831 3103 2259 
L 3103 863 
Q 3103 625 3139 415 
Q 3175 206 3253 0 
L 2344 0 
z
M 1509 609 
Q 1747 609 1934 728 
Q 2122 847 2191 1003 
L 2191 1481 
L 1678 1481 
Q 1388 1481 1239 1337 
Q 1091 1194 1091 984 
Q 1091 813 1202 711 
Q 1313 609 1509 609 
z
M 2875 4794 
Q 2875 4494 2689 4283 
Q 2503 4072 2219 4072 
Q 2000 4072 1723 4208 
Q 1447 4344 1284 4344 
Q 1172 4344 1097 4242 
Q 1022 4140 1022 4000 
L 534 4131 
Q 534 4425 720 4642 
Q 906 4859 1188 4859 
Q 1363 4859 1663 4723 
Q 1963 4587 2125 4587 
Q 2231 4587 2312 4687 
Q 2394 4787 2394 4934 
L 2875 4794 
z
" transform="scale(0.015625)"/>
      <path id="Roboto-Bold-6f" d="M 209 1722 
Q 209 2478 631 2961 
Q 1053 3444 1800 3444 
Q 2550 3444 2975 2962 
Q 3400 2481 3400 1722 
L 3400 1656 
Q 3400 894 2976 414 
Q 2553 -66 1806 -66 
Q 1056 -66 632 414 
Q 209 894 209 1656 
L 209 1722 
z
M 1119 1656 
Q 1119 1194 1281 914 
Q 1444 634 1806 634 
Q 2159 634 2323 915 
Q 2488 1197 2488 1656 
L 2488 1722 
Q 2488 2172 2322 2456 
Q 2156 2741 1800 2741 
Q 1447 2741 1283 2455 
Q 1119 2169 1119 1722 
L 1119 1656 
z
" transform="scale(0.015625)"/>
      <path id="Roboto-Bold-70" d="M 3400 1597 
Q 3400 847 3053 390 
Q 2706 -66 2084 -66 
Q 1819 -66 1612 32 
Q 1406 131 1259 322 
L 1259 -1300 
L 350 -1300 
L 350 3381 
L 1172 3381 
L 1225 2981 
Q 1375 3203 1586 3323 
Q 1797 3444 2078 3444 
Q 2706 3444 3053 2953 
Q 3400 2463 3400 1663 
L 3400 1597 
z
M 2488 1663 
Q 2488 2141 2328 2437 
Q 2169 2734 1841 2734 
Q 1634 2734 1489 2650 
Q 1344 2566 1259 2409 
L 1259 928 
Q 1344 784 1489 709 
Q 1634 634 1847 634 
Q 2178 634 2333 893 
Q 2488 1153 2488 1597 
L 2488 1663 
z
" transform="scale(0.015625)"/>
      <path id="Roboto-Bold-73" d="M 2178 938 
Q 2178 1088 2033 1195 
Q 1888 1303 1494 1384 
Q 900 1503 592 1743 
Q 284 1984 284 2397 
Q 284 2831 653 3137 
Q 1022 3444 1634 3444 
Q 2275 3444 2661 3137 
Q 3047 2831 3031 2375 
L 3025 2356 
L 2144 2356 
Q 2144 2559 2012 2687 
Q 1881 2816 1634 2816 
Q 1416 2816 1287 2706 
Q 1159 2597 1159 2438 
Q 1159 2281 1292 2182 
Q 1425 2084 1831 2006 
Q 2453 1881 2758 1639 
Q 3063 1397 3063 972 
Q 3063 516 2672 225 
Q 2281 -66 1641 -66 
Q 966 -66 573 276 
Q 181 619 200 1056 
L 206 1075 
L 1041 1075 
Q 1050 803 1219 681 
Q 1388 559 1659 559 
Q 1913 559 2045 661 
Q 2178 763 2178 938 
z
" transform="scale(0.015625)"/>
      <path id="Roboto-Bold-74" d="M 1444 4209 
L 1444 3381 
L 2016 3381 
L 2016 2741 
L 1444 2741 
L 1444 1019 
Q 1444 822 1526 737 
Q 1609 653 1744 653 
Q 1816 653 1869 661 
Q 1922 669 1991 688 
L 2066 28 
Q 1928 -19 1798 -42 
Q 1669 -66 1516 -66 
Q 1044 -66 789 193 
Q 534 453 534 1016 
L 534 2741 
L 41 2741 
L 41 3381 
L 534 3381 
L 534 4209 
L 1444 4209 
z
" transform="scale(0.015625)"/>
      <path id="Roboto-Bold-64" d="M 209 1663 
Q 209 2463 554 2953 
Q 900 3444 1528 3444 
Q 1781 3444 1984 3334 
Q 2188 3225 2341 3022 
L 2341 4875 
L 3256 4875 
L 3256 0 
L 2478 0 
L 2400 416 
Q 2241 181 2022 57 
Q 1803 -66 1522 -66 
Q 900 -66 554 390 
Q 209 847 209 1597 
L 209 1663 
z
M 1119 1597 
Q 1119 1153 1269 898 
Q 1419 644 1756 644 
Q 1953 644 2100 723 
Q 2247 803 2341 956 
L 2341 2397 
Q 2247 2556 2101 2645 
Q 1956 2734 1763 2734 
Q 1428 2734 1273 2437 
Q 1119 2141 1119 1663 
L 1119 1597 
z
" transform="scale(0.015625)"/>
      <path id="Roboto-Bold-67" d="M 216 1663 
Q 216 2463 562 2953 
Q 909 3444 1538 3444 
Q 1822 3444 2037 3316 
Q 2253 3188 2406 2950 
L 2478 3381 
L 3263 3381 
L 3263 16 
Q 3263 -644 2831 -1005 
Q 2400 -1366 1628 -1366 
Q 1372 -1366 1084 -1295 
Q 797 -1225 553 -1103 
L 706 -422 
Q 916 -522 1139 -573 
Q 1363 -625 1622 -625 
Q 1997 -625 2173 -469 
Q 2350 -313 2350 19 
L 2350 325 
Q 2200 134 1997 34 
Q 1794 -66 1531 -66 
Q 909 -66 562 390 
Q 216 847 216 1597 
L 216 1663 
z
M 1128 1597 
Q 1128 1153 1276 898 
Q 1425 644 1763 644 
Q 1972 644 2117 720 
Q 2263 797 2350 944 
L 2350 2409 
Q 2263 2566 2117 2650 
Q 1972 2734 1769 2734 
Q 1434 2734 1281 2437 
Q 1128 2141 1128 1663 
L 1128 1597 
z
" transform="scale(0.015625)"/>
      <path id="Roboto-Bold-65" d="M 1816 -66 
Q 1059 -66 634 398 
Q 209 863 209 1594 
L 209 1719 
Q 209 2478 621 2962 
Q 1034 3447 1756 3444 
Q 2438 3444 2802 3026 
Q 3166 2609 3166 1903 
L 3166 1431 
L 1150 1431 
L 1141 1413 
Q 1163 1066 1352 850 
Q 1541 634 1913 634 
Q 2219 634 2433 696 
Q 2647 759 2875 888 
L 3122 325 
Q 2919 159 2572 46 
Q 2225 -66 1816 -66 
z
M 1756 2741 
Q 1481 2741 1332 2552 
Q 1184 2363 1153 2050 
L 1159 2034 
L 2272 2034 
L 2272 2103 
Q 2272 2400 2150 2570 
Q 2028 2741 1756 2741 
z
" transform="scale(0.015625)"/>
      <path id="Roboto-Bold-72" d="M 2128 2597 
L 1794 2606 
Q 1591 2606 1459 2522 
Q 1328 2438 1259 2284 
L 1259 0 
L 350 0 
L 350 3381 
L 1197 3381 
L 1238 2881 
Q 1356 3147 1545 3295 
Q 1734 3444 1981 3444 
Q 2050 3444 2108 3433 
Q 2166 3422 2225 3406 
L 2128 2597 
z
" transform="scale(0.015625)"/>
      <path id="Roboto-Bold-6e" d="M 1184 3381 
L 1225 2897 
Q 1394 3156 1641 3300 
Q 1888 3444 2194 3444 
Q 2706 3444 2993 3114 
Q 3281 2784 3281 2072 
L 3281 0 
L 2366 0 
L 2366 2069 
Q 2366 2431 2239 2582 
Q 2113 2734 1859 2734 
Q 1656 2734 1501 2657 
Q 1347 2581 1247 2447 
L 1247 0 
L 334 0 
L 334 3381 
L 1184 3381 
z
" transform="scale(0.015625)"/>
     </defs>
     <use xlink:href="#Roboto-Bold-41"/>
     <use xlink:href="#Roboto-Bold-76" x="61.123047"/>
     <use xlink:href="#Roboto-Bold-61" x="111.447266"/>
     <use xlink:href="#Roboto-Bold-6c" x="165.158203"/>
     <use xlink:href="#Roboto-Bold-69" x="191.867188"/>
     <use xlink:href="#Roboto-Bold-61" x="218.576172"/>
     <use xlink:href="#Roboto-Bold-e7" x="272.287109"/>
     <use xlink:href="#Roboto-Bold-e3" x="323.849609"/>
     <use xlink:href="#Roboto-Bold-6f" x="377.560547"/>
     <use xlink:href="#Roboto-Bold-20" x="434.005859"/>
     <use xlink:href="#Roboto-Bold-70" x="458.908203"/>
     <use xlink:href="#Roboto-Bold-6f" x="515.353516"/>
     <use xlink:href="#Roboto-Bold-73" x="571.798828"/>
     <use xlink:href="#Roboto-Bold-69" x="623.361328"/>
     <use xlink:href="#Roboto-Bold-74" x="650.070312"/>
     <use xlink:href="#Roboto-Bold-69" x="684.884766"/>
     <use xlink:href="#Roboto-Bold-76" x="711.59375"/>
     <use xlink:href="#Roboto-Bold-61" x="761.917969"/>
     <use xlink:href="#Roboto-Bold-20" x="815.628906"/>
     <use xlink:href="#Roboto-Bold-64" x="840.53125"/>
     <use xlink:href="#Roboto-Bold-6f" x="896.976562"/>
     <use xlink:href="#Roboto-Bold-20" x="953.421875"/>
     <use xlink:href="#Roboto-Bold-67" x="978.324219"/>
     <use xlink:href="#Roboto-Bold-6f" x="1034.769531"/>
     <use xlink:href="#Roboto-Bold-76" x="1090.464844"/>
     <use xlink:href="#Roboto-Bold-65" x="1140.914062"/>
     <use xlink:href="#Roboto-Bold-72" x="1193.208984"/>
     <use xlink:href="#Roboto-Bold-6e" x="1228.414062"/>
     <use xlink:href="#Roboto-Bold-6f" x="1284.859375"/>
    </g>
   </g>
  </g>
 </g>
 <defs>
  <clipPath id="pce9c5d3217">
   <rect x="53.56625" y="11.808437" width="1221.457422" height="607.054208"/>
  </clipPath>
 </defs>
</svg>
