<?xml version="1.0" encoding="utf-8" standalone="no"?>
<!DOCTYPE svg PUBLIC "-//W3C//DTD SVG 1.1//EN"
  "http://www.w3.org/Graphics/SVG/1.1/DTD/svg11.dtd">
<svg xmlns:xlink="http://www.w3.org/1999/xlink" width="912.71952pt" height="538.31952pt" viewBox="0 0 912.71952 538.31952" xmlns="http://www.w3.org/2000/svg" version="1.1">
 <metadata>
  <rdf:RDF xmlns:dc="http://purl.org/dc/elements/1.1/" xmlns:cc="http://creativecommons.org/ns#" xmlns:rdf="http://www.w3.org/1999/02/22-rdf-syntax-ns#">
   <cc:Work>
    <dc:type rdf:resource="http://purl.org/dc/dcmitype/StillImage"/>
    <dc:date>2023-10-03T12:29:42.317714</dc:date>
    <dc:format>image/svg+xml</dc:format>
    <dc:creator>
     <cc:Agent>
      <dc:title>Matplotlib v3.7.1, https://matplotlib.org/</dc:title>
     </cc:Agent>
    </dc:creator>
   </cc:Work>
  </rdf:RDF>
 </metadata>
 <defs>
  <style type="text/css">*{stroke-linejoin: round; stroke-linecap: butt}</style>
 </defs>
 <g id="figure_1">
  <g id="patch_1">
   <path d="M 0 538.31952 
L 912.71952 538.31952 
L 912.71952 0 
L 0 0 
L 0 538.31952 
z
" style="fill: none"/>
  </g>
  <g id="axes_1">
   <g id="patch_2">
    <path d="M 49.73625 519.932958 
L 891.981551 519.932958 
L 891.981551 13.738125 
L 49.73625 13.738125 
L 49.73625 519.932958 
z
" style="fill: none"/>
   </g>
   <g id="matplotlib.axis_1">
    <g id="xtick_1">
     <g id="line2d_1">
      <path d="M 49.73625 519.932958 
L 49.73625 13.738125 
" clip-path="url(#pabcfaa189c)" style="fill: none; stroke-dasharray: 0.7,2.1; stroke-dashoffset: 0; stroke: #000000; stroke-opacity: 0.5; stroke-width: 0.7"/>
     </g>
     <g id="line2d_2"/>
    </g>
    <g id="xtick_2">
     <g id="line2d_3">
      <path d="M 218.18531 519.932958 
L 218.18531 13.738125 
" clip-path="url(#pabcfaa189c)" style="fill: none; stroke-dasharray: 0.7,2.1; stroke-dashoffset: 0; stroke: #000000; stroke-opacity: 0.5; stroke-width: 0.7"/>
     </g>
     <g id="line2d_4"/>
     <g id="text_1">
      <text style="fill: #333333; font: 22px 'Roboto', 'Arial', 'DejaVu Sans', sans-serif; text-anchor: middle" x="218.18531" y="531.69077" transform="rotate(-0 218.18531 531.69077)">60 DIAS</text>
     </g>
    </g>
    <g id="xtick_3">
     <g id="line2d_5">
      <path d="M 386.63437 519.932958 
L 386.63437 13.738125 
" clip-path="url(#pabcfaa189c)" style="fill: none; stroke-dasharray: 0.7,2.1; stroke-dashoffset: 0; stroke: #000000; stroke-opacity: 0.5; stroke-width: 0.7"/>
     </g>
     <g id="line2d_6"/>
     <g id="text_2">
      <text style="fill: #333333; font: 22px 'Roboto', 'Arial', 'DejaVu Sans', sans-serif; text-anchor: middle" x="386.63437" y="531.69077" transform="rotate(-0 386.63437 531.69077)">120</text>
     </g>
    </g>
    <g id="xtick_4">
     <g id="line2d_7">
      <path d="M 555.083431 519.932958 
L 555.083431 13.738125 
" clip-path="url(#pabcfaa189c)" style="fill: none; stroke-dasharray: 0.7,2.1; stroke-dashoffset: 0; stroke: #000000; stroke-opacity: 0.5; stroke-width: 0.7"/>
     </g>
     <g id="line2d_8"/>
     <g id="text_3">
      <text style="fill: #333333; font: 22px 'Roboto', 'Arial', 'DejaVu Sans', sans-serif; text-anchor: middle" x="555.083431" y="531.69077" transform="rotate(-0 555.083431 531.69077)">180</text>
     </g>
    </g>
    <g id="xtick_5">
     <g id="line2d_9">
      <path d="M 723.532491 519.932958 
L 723.532491 13.738125 
" clip-path="url(#pabcfaa189c)" style="fill: none; stroke-dasharray: 0.7,2.1; stroke-dashoffset: 0; stroke: #000000; stroke-opacity: 0.5; stroke-width: 0.7"/>
     </g>
     <g id="line2d_10"/>
     <g id="text_4">
      <text style="fill: #333333; font: 22px 'Roboto', 'Arial', 'DejaVu Sans', sans-serif; text-anchor: middle" x="723.532491" y="531.69077" transform="rotate(-0 723.532491 531.69077)">240</text>
     </g>
    </g>
    <g id="xtick_6">
     <g id="line2d_11">
      <path d="M 891.981551 519.932958 
L 891.981551 13.738125 
" clip-path="url(#pabcfaa189c)" style="fill: none; stroke-dasharray: 0.7,2.1; stroke-dashoffset: 0; stroke: #000000; stroke-opacity: 0.5; stroke-width: 0.7"/>
     </g>
     <g id="line2d_12"/>
     <g id="text_5">
      <text style="fill: #333333; font: 22px 'Roboto', 'Arial', 'DejaVu Sans', sans-serif; text-anchor: middle" x="891.981551" y="531.69077" transform="rotate(-0 891.981551 531.69077)">300</text>
     </g>
    </g>
   </g>
   <g id="matplotlib.axis_2">
    <g id="ytick_1">
     <g id="line2d_13">
      <path d="M 49.73625 502.68928 
L 891.981551 502.68928 
" clip-path="url(#pabcfaa189c)" style="fill: none; stroke-dasharray: 0.7,2.1; stroke-dashoffset: 0; stroke: #000000; stroke-opacity: 0.5; stroke-width: 0.7"/>
     </g>
     <g id="text_6">
      <text style="fill: #333333; font: 24px 'Roboto', 'Arial', 'DejaVu Sans', sans-serif; text-anchor: end" x="46.73625" y="509.392405" transform="rotate(-0 46.73625 509.392405)">0  </text>
     </g>
    </g>
    <g id="ytick_2">
     <g id="line2d_14">
      <path d="M 49.73625 339.705562 
L 891.981551 339.705562 
" clip-path="url(#pabcfaa189c)" style="fill: none; stroke-dasharray: 0.7,2.1; stroke-dashoffset: 0; stroke: #000000; stroke-opacity: 0.5; stroke-width: 0.7"/>
     </g>
     <g id="text_7">
      <text style="fill: #333333; font: 24px 'Roboto', 'Arial', 'DejaVu Sans', sans-serif; text-anchor: end" x="46.73625" y="346.408687" transform="rotate(-0 46.73625 346.408687)">25  </text>
     </g>
    </g>
    <g id="ytick_3">
     <g id="line2d_15">
      <path d="M 49.73625 176.721843 
L 891.981551 176.721843 
" clip-path="url(#pabcfaa189c)" style="fill: none; stroke-dasharray: 0.7,2.1; stroke-dashoffset: 0; stroke: #000000; stroke-opacity: 0.5; stroke-width: 0.7"/>
     </g>
     <g id="text_8">
      <text style="fill: #333333; font: 24px 'Roboto', 'Arial', 'DejaVu Sans', sans-serif; text-anchor: end" x="46.73625" y="183.424968" transform="rotate(-0 46.73625 183.424968)">50  </text>
     </g>
    </g>
    <g id="ytick_4">
     <g id="line2d_16">
      <path d="M 49.73625 13.738125 
L 891.981551 13.738125 
" clip-path="url(#pabcfaa189c)" style="fill: none; stroke-dasharray: 0.7,2.1; stroke-dashoffset: 0; stroke: #000000; stroke-opacity: 0.5; stroke-width: 0.7"/>
     </g>
     <g id="text_9">
      <text style="fill: #333333; font: 24px 'Roboto', 'Arial', 'DejaVu Sans', sans-serif; text-anchor: end" x="46.73625" y="20.44125" transform="rotate(-0 46.73625 20.44125)">75%</text>
     </g>
    </g>
   </g>
   <g id="line2d_17">
    <path d="M 835.831865 241.915331 
L 799.334568 241.915331 
L 796.527084 241.263396 
L 793.719599 239.959526 
L 779.682178 236.699852 
L 774.067209 236.699852 
L 771.259725 237.351787 
L 768.45224 237.351787 
L 765.644756 238.003721 
L 743.184881 238.003721 
L 740.377397 237.351787 
L 737.569913 237.351787 
L 731.954944 236.047917 
L 729.14746 234.744047 
L 723.532491 233.440177 
L 698.265132 233.440177 
L 695.457648 232.788242 
L 681.420226 232.788242 
L 678.612742 232.136308 
L 675.805257 232.136308 
L 672.997773 232.788242 
L 670.190289 232.788242 
L 664.57532 234.092112 
L 661.767836 234.092112 
L 658.960351 234.744047 
L 656.152867 234.744047 
L 650.537898 236.047917 
L 647.730414 236.047917 
L 644.92293 236.699852 
L 642.115445 236.699852 
L 639.307961 237.351787 
L 636.500477 237.351787 
L 630.885508 238.655656 
L 628.078024 238.655656 
L 625.270539 239.307591 
L 622.463055 239.307591 
L 619.655571 239.959526 
L 616.848086 239.959526 
L 611.233118 241.263396 
L 608.425633 241.263396 
L 605.618149 241.915331 
L 602.810664 241.915331 
L 600.00318 242.567266 
L 597.195696 242.567266 
L 594.388211 243.2192 
L 588.773243 243.2192 
L 585.965758 243.871135 
L 583.158274 243.2192 
L 560.698399 243.2192 
L 555.083431 244.52307 
L 552.275946 244.52307 
L 546.660978 245.82694 
L 543.853493 245.82694 
L 541.046009 247.13081 
L 538.238525 247.782745 
L 535.43104 249.086614 
L 532.623556 249.738549 
L 529.816072 251.042419 
L 527.008587 251.694354 
L 524.201103 252.998224 
L 521.393619 253.650158 
L 518.586134 254.954028 
L 512.971166 256.257898 
L 510.163681 257.561768 
L 504.548713 258.865637 
L 498.933744 258.865637 
L 496.12626 259.517572 
L 493.318775 259.517572 
L 490.511291 260.169507 
L 487.703807 260.169507 
L 484.896322 260.821442 
L 482.088838 260.821442 
L 479.281354 261.473377 
L 476.473869 260.821442 
L 473.666385 260.821442 
L 470.858901 260.169507 
L 465.243932 260.169507 
L 462.436448 259.517572 
L 459.628963 259.517572 
L 456.821479 258.865637 
L 451.20651 258.865637 
L 448.399026 258.213703 
L 442.784057 258.213703 
L 439.976573 257.561768 
L 437.169089 257.561768 
L 434.361604 256.909833 
L 428.746636 256.909833 
L 425.939151 256.257898 
L 420.324183 256.257898 
L 417.516698 255.605963 
L 411.90173 255.605963 
L 409.094245 254.954028 
L 406.286761 254.954028 
L 403.479277 254.302093 
L 397.864308 254.302093 
L 395.056824 253.650158 
L 389.441855 253.650158 
L 386.63437 252.998224 
L 381.019402 252.998224 
L 378.211917 252.346289 
L 372.596949 252.346289 
L 369.789464 251.694354 
L 364.174496 251.694354 
L 361.367011 251.042419 
L 355.752043 251.042419 
L 352.944558 250.390484 
L 347.32959 250.390484 
L 344.522105 249.738549 
L 341.714621 250.390484 
L 338.907137 250.390484 
L 330.484684 248.434679 
L 327.677199 248.434679 
L 324.869715 247.782745 
L 305.217325 252.346289 
L 296.794872 252.346289 
L 293.987387 252.998224 
L 291.179903 251.694354 
L 285.564934 250.390484 
L 282.75745 249.086614 
L 277.142481 247.782745 
L 274.334997 246.478875 
L 265.912544 244.52307 
L 263.10506 243.2192 
L 249.067638 239.959526 
L 246.260154 239.959526 
L 243.452669 239.307591 
L 235.030216 239.307591 
L 232.222732 238.655656 
L 226.607763 238.655656 
L 220.992795 237.351787 
L 218.18531 237.351787 
L 201.340404 233.440177 
L 198.53292 233.440177 
L 195.725436 232.788242 
L 192.917951 232.788242 
L 190.110467 232.136308 
L 187.302983 232.136308 
L 184.495498 231.484373 
L 178.88053 231.484373 
L 176.073045 230.832438 
L 173.265561 230.832438 
L 170.458077 230.180503 
L 167.650592 230.180503 
L 162.035623 228.876633 
L 159.228139 228.876633 
L 156.420655 227.572763 
L 153.61317 226.920829 
L 150.805686 225.616959 
L 145.190717 224.313089 
L 142.383233 223.009219 
L 139.575749 222.357285 
L 136.768264 222.357285 
L 117.115874 217.79374 
L 114.30839 217.79374 
L 97.463484 213.882131 
L 94.655999 213.882131 
L 75.003609 209.318587 
L 72.196125 206.710848 
L 66.581156 200.191499 
L 49.73625 196.27989 
L 49.73625 196.27989 
" clip-path="url(#pabcfaa189c)" style="fill: none; stroke: #d62728; stroke-width: 4"/>
   </g>
   <g id="line2d_18">
    <path d="M 49.73625 502.68928 
L 891.981551 502.68928 
" clip-path="url(#pabcfaa189c)" style="fill: none; stroke: #000000; stroke-opacity: 0.5; stroke-width: 3.5"/>
   </g>
   <g id="line2d_19">
    <path d="M 891.981551 186.500866 
L 889.174067 187.152801 
L 886.366583 187.152801 
L 883.559098 187.804736 
L 880.751614 187.804736 
L 877.94413 188.456671 
L 875.136645 188.456671 
L 869.521677 189.760541 
L 866.714192 189.760541 
L 863.906708 190.412476 
L 861.099224 190.412476 
L 858.291739 191.064411 
L 855.484255 191.064411 
L 849.869286 192.36828 
L 847.061802 192.36828 
L 844.254318 193.020215 
L 830.216896 193.020215 
L 827.409411 193.67215 
L 810.564505 193.67215 
L 807.757021 194.324085 
L 796.527084 194.324085 
L 793.719599 194.97602 
L 779.682178 194.97602 
L 776.874693 195.627955 
L 771.259725 195.627955 
L 768.45224 194.97602 
L 762.837272 194.97602 
L 760.029787 194.324085 
L 754.414819 194.324085 
L 751.607334 193.67215 
L 743.184881 193.67215 
L 740.377397 193.020215 
L 734.762428 193.020215 
L 731.954944 192.36828 
L 726.339975 192.36828 
L 723.532491 191.716345 
L 720.725007 191.716345 
L 717.917522 191.064411 
L 712.302554 191.064411 
L 709.495069 190.412476 
L 703.880101 190.412476 
L 701.072616 189.760541 
L 695.457648 189.760541 
L 692.650163 189.108606 
L 684.22771 189.108606 
L 681.420226 188.456671 
L 675.805257 188.456671 
L 672.997773 187.804736 
L 667.382804 187.804736 
L 664.57532 187.152801 
L 658.960351 187.152801 
L 656.152867 186.500866 
L 650.537898 186.500866 
L 647.730414 185.848932 
L 639.307961 185.848932 
L 636.500477 186.500866 
L 605.618149 186.500866 
L 602.810664 187.152801 
L 583.158274 187.152801 
L 580.35079 187.804736 
L 555.083431 187.804736 
L 552.275946 188.456671 
L 543.853493 188.456671 
L 541.046009 187.804736 
L 538.238525 188.456671 
L 524.201103 188.456671 
L 521.393619 187.804736 
L 501.741228 187.804736 
L 498.933744 187.152801 
L 476.473869 187.152801 
L 473.666385 186.500866 
L 448.399026 186.500866 
L 445.591542 185.848932 
L 428.746636 185.848932 
L 425.939151 185.196997 
L 409.094245 185.196997 
L 406.286761 184.545062 
L 386.63437 184.545062 
L 383.826886 183.893127 
L 366.98198 183.893127 
L 364.174496 183.241192 
L 350.137074 183.241192 
L 347.32959 182.589257 
L 322.062231 182.589257 
L 319.254746 181.937322 
L 313.639778 181.937322 
L 299.602356 185.196997 
L 279.949966 185.196997 
L 277.142481 184.545062 
L 170.458077 184.545062 
L 167.650592 183.893127 
L 164.843108 184.545062 
L 142.383233 184.545062 
L 139.575749 183.893127 
L 125.538327 183.893127 
L 122.730843 184.545062 
L 119.923358 183.893127 
L 105.885937 183.893127 
L 103.078452 184.545062 
L 100.270968 184.545062 
L 97.463484 183.893127 
L 89.041031 183.893127 
L 86.233546 184.545062 
L 83.426062 184.545062 
L 80.618578 183.893127 
L 49.73625 183.893127 
L 49.73625 183.893127 
" clip-path="url(#pabcfaa189c)" style="fill: none; stroke: #1f77b4; stroke-width: 4"/>
   </g>
   <g id="line2d_20">
    <path d="M 49.73625 502.68928 
L 891.981551 502.68928 
" clip-path="url(#pabcfaa189c)" style="fill: none; stroke: #000000; stroke-opacity: 0.5; stroke-width: 3.5"/>
   </g>
   <g id="line2d_21">
    <path d="M 891.981551 230.832438 
L 886.366583 230.832438 
L 883.559098 231.484373 
L 875.136645 231.484373 
L 872.329161 232.136308 
L 869.521677 232.136308 
L 866.714192 232.788242 
L 855.484255 232.788242 
L 838.639349 228.876633 
L 835.831865 228.876633 
L 813.37199 223.661154 
L 810.564505 223.661154 
L 793.719599 219.749545 
L 790.912115 219.749545 
L 782.489662 217.79374 
L 779.682178 217.79374 
L 771.259725 215.837936 
L 768.45224 215.837936 
L 765.644756 215.186001 
L 762.837272 215.186001 
L 757.222303 213.882131 
L 754.414819 213.882131 
L 748.79985 212.578261 
L 745.992366 212.578261 
L 743.184881 211.926327 
L 740.377397 211.926327 
L 734.762428 210.622457 
L 731.954944 210.622457 
L 726.339975 209.318587 
L 723.532491 209.318587 
L 717.917522 208.014717 
L 715.110038 208.014717 
L 709.495069 206.710848 
L 706.687585 206.710848 
L 701.072616 205.406978 
L 698.265132 205.406978 
L 695.457648 206.058913 
L 687.035195 206.058913 
L 684.22771 206.710848 
L 672.997773 206.710848 
L 670.190289 207.362782 
L 661.767836 207.362782 
L 658.960351 208.014717 
L 647.730414 208.014717 
L 644.92293 208.666652 
L 633.692992 208.666652 
L 630.885508 209.318587 
L 619.655571 209.318587 
L 616.848086 209.970522 
L 608.425633 209.970522 
L 605.618149 210.622457 
L 591.580727 210.622457 
L 588.773243 211.274392 
L 583.158274 211.274392 
L 580.35079 211.926327 
L 574.735821 211.926327 
L 571.928337 212.578261 
L 569.120852 212.578261 
L 566.313368 213.230196 
L 563.505884 213.230196 
L 560.698399 213.882131 
L 555.083431 213.882131 
L 552.275946 214.534066 
L 549.468462 214.534066 
L 546.660978 215.186001 
L 543.853493 215.186001 
L 541.046009 215.837936 
L 538.238525 215.837936 
L 535.43104 214.534066 
L 529.816072 213.230196 
L 524.201103 210.622457 
L 521.393619 209.970522 
L 515.77865 207.362782 
L 512.971166 206.710848 
L 507.356197 204.103108 
L 504.548713 203.451173 
L 498.933744 200.843434 
L 496.12626 200.191499 
L 490.511291 197.583759 
L 487.703807 196.931824 
L 479.281354 193.020215 
L 476.473869 192.36828 
L 470.858901 189.760541 
L 468.051416 189.108606 
L 465.243932 187.804736 
L 462.436448 188.456671 
L 454.013995 188.456671 
L 451.20651 189.108606 
L 445.591542 189.108606 
L 442.784057 189.760541 
L 437.169089 189.760541 
L 434.361604 190.412476 
L 425.939151 190.412476 
L 423.131667 191.064411 
L 417.516698 191.064411 
L 414.709214 191.716345 
L 406.286761 191.716345 
L 403.479277 192.36828 
L 395.056824 192.36828 
L 392.249339 193.020215 
L 386.63437 193.020215 
L 383.826886 193.67215 
L 375.404433 193.67215 
L 372.596949 194.324085 
L 366.98198 194.324085 
L 364.174496 194.97602 
L 358.559527 194.97602 
L 355.752043 195.627955 
L 347.32959 195.627955 
L 344.522105 196.27989 
L 341.714621 197.583759 
L 338.907137 198.235694 
L 336.099652 199.539564 
L 333.292168 198.235694 
L 330.484684 197.583759 
L 319.254746 192.36828 
L 316.447262 191.716345 
L 305.217325 186.500866 
L 302.40984 185.848932 
L 293.987387 181.937322 
L 291.179903 181.285387 
L 282.75745 177.373778 
L 279.949966 176.721843 
L 271.527513 172.810234 
L 268.720028 174.114104 
L 265.912544 176.069908 
L 263.10506 177.373778 
L 260.297575 179.329583 
L 254.682607 181.937322 
L 251.875122 183.893127 
L 249.067638 185.196997 
L 246.260154 187.152801 
L 240.645185 189.760541 
L 237.837701 191.716345 
L 235.030216 193.020215 
L 232.222732 194.97602 
L 229.415248 193.67215 
L 223.800279 192.36828 
L 220.992795 191.064411 
L 215.377826 189.760541 
L 212.570342 188.456671 
L 206.955373 187.152801 
L 204.147889 185.848932 
L 195.725436 183.893127 
L 192.917951 182.589257 
L 187.302983 181.285387 
L 184.495498 179.981518 
L 176.073045 178.025713 
L 173.265561 176.721843 
L 167.650592 175.417974 
L 164.843108 174.114104 
L 156.420655 172.158299 
L 153.61317 170.85443 
L 147.998202 169.55056 
L 145.190717 168.24669 
L 136.768264 166.290885 
L 133.96078 164.987016 
L 128.345811 163.683146 
L 125.538327 162.379276 
L 119.923358 161.075406 
L 117.115874 159.771537 
L 108.693421 157.815732 
L 49.73625 171.506364 
L 49.73625 171.506364 
" clip-path="url(#pabcfaa189c)" style="fill: none; stroke: #2ca02c; stroke-width: 4"/>
   </g>
   <g id="line2d_22">
    <path d="M 49.73625 502.68928 
L 891.981551 502.68928 
" clip-path="url(#pabcfaa189c)" style="fill: none; stroke: #000000; stroke-opacity: 0.5; stroke-width: 3.5"/>
   </g>
   <g id="legend_1">
    <g id="patch_3">
     <path d="M 809.439364 88.656094 
L 881.481551 88.656094 
Q 884.481551 88.656094 884.481551 85.656094 
L 884.481551 24.238125 
Q 884.481551 21.238125 881.481551 21.238125 
L 809.439364 21.238125 
Q 806.439364 21.238125 806.439364 24.238125 
L 806.439364 85.656094 
Q 806.439364 88.656094 809.439364 88.656094 
z
" style="fill: #ffffff; opacity: 0.7; stroke: #ffffff; stroke-width: 0.5; stroke-linejoin: miter"/>
    </g>
    <g id="line2d_23">
     <path d="M 813.939364 35.363906 
L 817.689364 35.363906 
L 821.439364 35.363906 
" style="fill: none; stroke: #d62728; stroke-width: 4"/>
    </g>
    <g id="text_10">
     <text style="fill: #222222; font: 15px 'Roboto', 'Arial', 'DejaVu Sans', sans-serif; text-anchor: start" x="828.939364" y="40.163906" transform="rotate(-0 828.939364 40.163906)">LULA 3</text>
    </g>
    <g id="line2d_24">
     <path d="M 813.939364 54.336562 
L 817.689364 54.336562 
L 821.439364 54.336562 
" style="fill: none; stroke: #1f77b4; stroke-width: 4"/>
    </g>
    <g id="text_11">
     <text style="fill: #222222; font: 15px 'Roboto', 'Arial', 'DejaVu Sans', sans-serif; text-anchor: start" x="828.939364" y="59.136562" transform="rotate(-0 828.939364 59.136562)">LULA 2</text>
    </g>
    <g id="line2d_25">
     <path d="M 813.939364 73.309219 
L 817.689364 73.309219 
L 821.439364 73.309219 
" style="fill: none; stroke: #2ca02c; stroke-width: 4"/>
    </g>
    <g id="text_12">
     <text style="fill: #222222; font: 15px 'Roboto', 'Arial', 'DejaVu Sans', sans-serif; text-anchor: start" x="828.939364" y="78.109219" transform="rotate(-0 828.939364 78.109219)">LULA 1</text>
    </g>
   </g>
  </g>
 </g>
 <defs>
  <clipPath id="pabcfaa189c">
   <rect x="49.73625" y="13.738125" width="842.245301" height="506.194833"/>
  </clipPath>
 </defs>
</svg>
