<?xml version="1.0" encoding="utf-8" standalone="no"?>
<!DOCTYPE svg PUBLIC "-//W3C//DTD SVG 1.1//EN"
  "http://www.w3.org/Graphics/SVG/1.1/DTD/svg11.dtd">
<svg xmlns:xlink="http://www.w3.org/1999/xlink" width="912.71952pt" height="538.31952pt" viewBox="0 0 912.71952 538.31952" xmlns="http://www.w3.org/2000/svg" version="1.1">
 <metadata>
  <rdf:RDF xmlns:dc="http://purl.org/dc/elements/1.1/" xmlns:cc="http://creativecommons.org/ns#" xmlns:rdf="http://www.w3.org/1999/02/22-rdf-syntax-ns#">
   <cc:Work>
    <dc:type rdf:resource="http://purl.org/dc/dcmitype/StillImage"/>
    <dc:date>2023-10-03T12:26:47.958919</dc:date>
    <dc:format>image/svg+xml</dc:format>
    <dc:creator>
     <cc:Agent>
      <dc:title>Matplotlib v3.7.1, https://matplotlib.org/</dc:title>
     </cc:Agent>
    </dc:creator>
   </cc:Work>
  </rdf:RDF>
 </metadata>
 <defs>
  <style type="text/css">*{stroke-linejoin: round; stroke-linecap: butt}</style>
 </defs>
 <g id="figure_1">
  <g id="patch_1">
   <path d="M 0 538.31952 
L 912.71952 538.31952 
L 912.71952 0 
L 0 0 
L 0 538.31952 
z
" style="fill: none"/>
  </g>
  <g id="axes_1">
   <g id="patch_2">
    <path d="M 49.73625 519.932958 
L 910.55952 519.932958 
L 910.55952 13.738125 
L 49.73625 13.738125 
L 49.73625 519.932958 
z
" style="fill: none"/>
   </g>
   <g id="matplotlib.axis_1">
    <g id="xtick_1">
     <g id="line2d_1">
      <path d="M 49.73625 519.932958 
L 49.73625 13.738125 
" clip-path="url(#pfdc8cef759)" style="fill: none; stroke-dasharray: 0.7,2.1; stroke-dashoffset: 0; stroke: #000000; stroke-opacity: 0.5; stroke-width: 0.7"/>
     </g>
     <g id="line2d_2"/>
    </g>
    <g id="xtick_2">
     <g id="line2d_3">
      <path d="M 135.818577 519.932958 
L 135.818577 13.738125 
" clip-path="url(#pfdc8cef759)" style="fill: none; stroke-dasharray: 0.7,2.1; stroke-dashoffset: 0; stroke: #000000; stroke-opacity: 0.5; stroke-width: 0.7"/>
     </g>
     <g id="line2d_4"/>
     <g id="text_1">
      <text style="fill: #333333; font: 22px 'Roboto', 'Arial', 'DejaVu Sans', sans-serif; text-anchor: middle" x="135.818577" y="531.69077" transform="rotate(-0 135.818577 531.69077)">30 DIAS</text>
     </g>
    </g>
    <g id="xtick_3">
     <g id="line2d_5">
      <path d="M 221.900904 519.932958 
L 221.900904 13.738125 
" clip-path="url(#pfdc8cef759)" style="fill: none; stroke-dasharray: 0.7,2.1; stroke-dashoffset: 0; stroke: #000000; stroke-opacity: 0.5; stroke-width: 0.7"/>
     </g>
     <g id="line2d_6"/>
     <g id="text_2">
      <text style="fill: #333333; font: 22px 'Roboto', 'Arial', 'DejaVu Sans', sans-serif; text-anchor: middle" x="221.900904" y="531.69077" transform="rotate(-0 221.900904 531.69077)">60</text>
     </g>
    </g>
    <g id="xtick_4">
     <g id="line2d_7">
      <path d="M 307.983231 519.932958 
L 307.983231 13.738125 
" clip-path="url(#pfdc8cef759)" style="fill: none; stroke-dasharray: 0.7,2.1; stroke-dashoffset: 0; stroke: #000000; stroke-opacity: 0.5; stroke-width: 0.7"/>
     </g>
     <g id="line2d_8"/>
     <g id="text_3">
      <text style="fill: #333333; font: 22px 'Roboto', 'Arial', 'DejaVu Sans', sans-serif; text-anchor: middle" x="307.983231" y="531.69077" transform="rotate(-0 307.983231 531.69077)">90</text>
     </g>
    </g>
    <g id="xtick_5">
     <g id="line2d_9">
      <path d="M 394.065558 519.932958 
L 394.065558 13.738125 
" clip-path="url(#pfdc8cef759)" style="fill: none; stroke-dasharray: 0.7,2.1; stroke-dashoffset: 0; stroke: #000000; stroke-opacity: 0.5; stroke-width: 0.7"/>
     </g>
     <g id="line2d_10"/>
     <g id="text_4">
      <text style="fill: #333333; font: 22px 'Roboto', 'Arial', 'DejaVu Sans', sans-serif; text-anchor: middle" x="394.065558" y="531.69077" transform="rotate(-0 394.065558 531.69077)">120</text>
     </g>
    </g>
    <g id="xtick_6">
     <g id="line2d_11">
      <path d="M 480.147885 519.932958 
L 480.147885 13.738125 
" clip-path="url(#pfdc8cef759)" style="fill: none; stroke-dasharray: 0.7,2.1; stroke-dashoffset: 0; stroke: #000000; stroke-opacity: 0.5; stroke-width: 0.7"/>
     </g>
     <g id="line2d_12"/>
     <g id="text_5">
      <text style="fill: #333333; font: 22px 'Roboto', 'Arial', 'DejaVu Sans', sans-serif; text-anchor: middle" x="480.147885" y="531.69077" transform="rotate(-0 480.147885 531.69077)">150</text>
     </g>
    </g>
    <g id="xtick_7">
     <g id="line2d_13">
      <path d="M 566.230212 519.932958 
L 566.230212 13.738125 
" clip-path="url(#pfdc8cef759)" style="fill: none; stroke-dasharray: 0.7,2.1; stroke-dashoffset: 0; stroke: #000000; stroke-opacity: 0.5; stroke-width: 0.7"/>
     </g>
     <g id="line2d_14"/>
     <g id="text_6">
      <text style="fill: #333333; font: 22px 'Roboto', 'Arial', 'DejaVu Sans', sans-serif; text-anchor: middle" x="566.230212" y="531.69077" transform="rotate(-0 566.230212 531.69077)">180</text>
     </g>
    </g>
   </g>
   <g id="matplotlib.axis_2">
    <g id="ytick_1">
     <g id="line2d_15">
      <path d="M 49.73625 502.68928 
L 910.55952 502.68928 
" clip-path="url(#pfdc8cef759)" style="fill: none; stroke-dasharray: 0.7,2.1; stroke-dashoffset: 0; stroke: #000000; stroke-opacity: 0.5; stroke-width: 0.7"/>
     </g>
     <g id="text_7">
      <text style="fill: #333333; font: 24px 'Roboto', 'Arial', 'DejaVu Sans', sans-serif; text-anchor: end" x="46.73625" y="509.392405" transform="rotate(-0 46.73625 509.392405)">0  </text>
     </g>
    </g>
    <g id="ytick_2">
     <g id="line2d_16">
      <path d="M 49.73625 339.705562 
L 910.55952 339.705562 
" clip-path="url(#pfdc8cef759)" style="fill: none; stroke-dasharray: 0.7,2.1; stroke-dashoffset: 0; stroke: #000000; stroke-opacity: 0.5; stroke-width: 0.7"/>
     </g>
     <g id="text_8">
      <text style="fill: #333333; font: 24px 'Roboto', 'Arial', 'DejaVu Sans', sans-serif; text-anchor: end" x="46.73625" y="346.408687" transform="rotate(-0 46.73625 346.408687)">25  </text>
     </g>
    </g>
    <g id="ytick_3">
     <g id="line2d_17">
      <path d="M 49.73625 176.721843 
L 910.55952 176.721843 
" clip-path="url(#pfdc8cef759)" style="fill: none; stroke-dasharray: 0.7,2.1; stroke-dashoffset: 0; stroke: #000000; stroke-opacity: 0.5; stroke-width: 0.7"/>
     </g>
     <g id="text_9">
      <text style="fill: #333333; font: 24px 'Roboto', 'Arial', 'DejaVu Sans', sans-serif; text-anchor: end" x="46.73625" y="183.424968" transform="rotate(-0 46.73625 183.424968)">50  </text>
     </g>
    </g>
    <g id="ytick_4">
     <g id="line2d_18">
      <path d="M 49.73625 13.738125 
L 910.55952 13.738125 
" clip-path="url(#pfdc8cef759)" style="fill: none; stroke-dasharray: 0.7,2.1; stroke-dashoffset: 0; stroke: #000000; stroke-opacity: 0.5; stroke-width: 0.7"/>
     </g>
     <g id="text_10">
      <text style="fill: #333333; font: 24px 'Roboto', 'Arial', 'DejaVu Sans', sans-serif; text-anchor: end" x="46.73625" y="20.44125" transform="rotate(-0 46.73625 20.44125)">75%</text>
     </g>
    </g>
   </g>
   <g id="line2d_19">
    <path d="M 853.171302 241.915331 
L 815.86896 241.915331 
L 812.999549 241.263396 
L 810.130139 239.959526 
L 795.783084 236.699852 
L 790.044262 236.699852 
L 787.174851 237.351787 
L 784.30544 237.351787 
L 781.43603 238.003721 
L 758.480742 238.003721 
L 755.611331 237.351787 
L 752.741921 237.351787 
L 747.003099 236.047917 
L 744.133688 234.744047 
L 738.394866 233.440177 
L 712.570168 233.440177 
L 709.700757 232.788242 
L 695.353703 232.788242 
L 692.484292 232.136308 
L 689.614881 232.136308 
L 686.74547 232.788242 
L 683.876059 232.788242 
L 678.137237 234.092112 
L 675.267826 234.092112 
L 672.398415 234.744047 
L 669.529004 234.744047 
L 663.790183 236.047917 
L 660.920772 236.047917 
L 658.051361 236.699852 
L 655.18195 236.699852 
L 652.312539 237.351787 
L 649.443128 237.351787 
L 643.704306 238.655656 
L 640.834895 238.655656 
L 637.965485 239.307591 
L 635.096074 239.307591 
L 632.226663 239.959526 
L 629.357252 239.959526 
L 623.61843 241.263396 
L 620.749019 241.263396 
L 617.879608 241.915331 
L 615.010197 241.915331 
L 612.140786 242.567266 
L 609.271376 242.567266 
L 606.401965 243.2192 
L 600.663143 243.2192 
L 597.793732 243.871135 
L 594.924321 243.2192 
L 571.969034 243.2192 
L 566.230212 244.52307 
L 563.360801 244.52307 
L 557.621979 245.82694 
L 554.752568 245.82694 
L 551.883158 247.13081 
L 549.013747 247.782745 
L 546.144336 249.086614 
L 543.274925 249.738549 
L 540.405514 251.042419 
L 537.536103 251.694354 
L 534.666692 252.998224 
L 531.797281 253.650158 
L 528.92787 254.954028 
L 523.189049 256.257898 
L 520.319638 257.561768 
L 514.580816 258.865637 
L 508.841994 258.865637 
L 505.972583 259.517572 
L 503.103172 259.517572 
L 500.233761 260.169507 
L 497.36435 260.169507 
L 494.494939 260.821442 
L 491.625529 260.821442 
L 488.756118 261.473377 
L 485.886707 260.821442 
L 483.017296 260.821442 
L 480.147885 260.169507 
L 474.409063 260.169507 
L 471.539652 259.517572 
L 468.670241 259.517572 
L 465.800831 258.865637 
L 460.062009 258.865637 
L 457.192598 258.213703 
L 451.453776 258.213703 
L 448.584365 257.561768 
L 445.714954 257.561768 
L 442.845543 256.909833 
L 437.106721 256.909833 
L 434.237311 256.257898 
L 428.498489 256.257898 
L 425.629078 255.605963 
L 419.890256 255.605963 
L 417.020845 254.954028 
L 414.151434 254.954028 
L 411.282023 254.302093 
L 405.543202 254.302093 
L 402.673791 253.650158 
L 396.934969 253.650158 
L 394.065558 252.998224 
L 388.326736 252.998224 
L 385.457325 252.346289 
L 379.718503 252.346289 
L 376.849093 251.694354 
L 371.110271 251.694354 
L 368.24086 251.042419 
L 362.502038 251.042419 
L 359.632627 250.390484 
L 353.893805 250.390484 
L 351.024394 249.738549 
L 348.154984 250.390484 
L 345.285573 250.390484 
L 336.67734 248.434679 
L 333.807929 248.434679 
L 330.938518 247.782745 
L 310.852642 252.346289 
L 302.244409 252.346289 
L 299.374998 252.998224 
L 296.505587 251.694354 
L 290.766766 250.390484 
L 287.897355 249.086614 
L 282.158533 247.782745 
L 279.289122 246.478875 
L 270.680889 244.52307 
L 267.811478 243.2192 
L 253.464424 239.959526 
L 250.595013 239.959526 
L 247.725602 239.307591 
L 239.117369 239.307591 
L 236.247958 238.655656 
L 230.509137 238.655656 
L 224.770315 237.351787 
L 221.900904 237.351787 
L 204.684439 233.440177 
L 201.815028 233.440177 
L 198.945617 232.788242 
L 196.076206 232.788242 
L 193.206795 232.136308 
L 190.337384 232.136308 
L 187.467973 231.484373 
L 181.729151 231.484373 
L 178.85974 230.832438 
L 175.99033 230.832438 
L 173.120919 230.180503 
L 170.251508 230.180503 
L 164.512686 228.876633 
L 161.643275 228.876633 
L 158.773864 227.572763 
L 155.904453 226.920829 
L 153.035042 225.616959 
L 147.296221 224.313089 
L 144.42681 223.009219 
L 141.557399 222.357285 
L 138.687988 222.357285 
L 118.602112 217.79374 
L 115.732701 217.79374 
L 98.516235 213.882131 
L 95.646824 213.882131 
L 75.560948 209.318587 
L 72.691537 206.710848 
L 66.952715 200.191499 
L 49.73625 196.27989 
L 49.73625 196.27989 
" clip-path="url(#pfdc8cef759)" style="fill: none; stroke: #d62728; stroke-width: 4"/>
   </g>
   <g id="line2d_20">
    <path d="M 49.73625 502.68928 
L 910.55952 502.68928 
" clip-path="url(#pfdc8cef759)" style="fill: none; stroke: #000000; stroke-opacity: 0.5; stroke-width: 3.5"/>
   </g>
   <g id="line2d_21">
    <path d="M 910.55952 186.500866 
L 907.690109 187.152801 
L 904.820698 187.152801 
L 901.951287 187.804736 
L 899.081876 187.804736 
L 896.212466 188.456671 
L 893.343055 188.456671 
L 887.604233 189.760541 
L 884.734822 189.760541 
L 881.865411 190.412476 
L 878.996 190.412476 
L 876.126589 191.064411 
L 873.257178 191.064411 
L 867.518357 192.36828 
L 864.648946 192.36828 
L 861.779535 193.020215 
L 847.43248 193.020215 
L 844.563069 193.67215 
L 827.346604 193.67215 
L 824.477193 194.324085 
L 812.999549 194.324085 
L 810.130139 194.97602 
L 795.783084 194.97602 
L 792.913673 195.627955 
L 787.174851 195.627955 
L 784.30544 194.97602 
L 778.566619 194.97602 
L 775.697208 194.324085 
L 769.958386 194.324085 
L 767.088975 193.67215 
L 758.480742 193.67215 
L 755.611331 193.020215 
L 749.87251 193.020215 
L 747.003099 192.36828 
L 741.264277 192.36828 
L 738.394866 191.716345 
L 735.525455 191.716345 
L 732.656044 191.064411 
L 726.917222 191.064411 
L 724.047812 190.412476 
L 718.30899 190.412476 
L 715.439579 189.760541 
L 709.700757 189.760541 
L 706.831346 189.108606 
L 698.223113 189.108606 
L 695.353703 188.456671 
L 689.614881 188.456671 
L 686.74547 187.804736 
L 681.006648 187.804736 
L 678.137237 187.152801 
L 672.398415 187.152801 
L 669.529004 186.500866 
L 663.790183 186.500866 
L 660.920772 185.848932 
L 652.312539 185.848932 
L 649.443128 186.500866 
L 617.879608 186.500866 
L 615.010197 187.152801 
L 594.924321 187.152801 
L 592.05491 187.804736 
L 566.230212 187.804736 
L 563.360801 188.456671 
L 554.752568 188.456671 
L 551.883158 187.804736 
L 549.013747 188.456671 
L 534.666692 188.456671 
L 531.797281 187.804736 
L 511.711405 187.804736 
L 508.841994 187.152801 
L 485.886707 187.152801 
L 483.017296 186.500866 
L 457.192598 186.500866 
L 454.323187 185.848932 
L 437.106721 185.848932 
L 434.237311 185.196997 
L 417.020845 185.196997 
L 414.151434 184.545062 
L 394.065558 184.545062 
L 391.196147 183.893127 
L 373.979682 183.893127 
L 371.110271 183.241192 
L 356.763216 183.241192 
L 353.893805 182.589257 
L 328.069107 182.589257 
L 325.199696 181.937322 
L 319.460875 181.937322 
L 305.11382 185.196997 
L 285.027944 185.196997 
L 282.158533 184.545062 
L 173.120919 184.545062 
L 170.251508 183.893127 
L 167.382097 184.545062 
L 144.42681 184.545062 
L 141.557399 183.893127 
L 127.210344 183.893127 
L 124.340933 184.545062 
L 121.471523 183.893127 
L 107.124468 183.893127 
L 104.255057 184.545062 
L 101.385646 184.545062 
L 98.516235 183.893127 
L 89.908003 183.893127 
L 87.038592 184.545062 
L 84.169181 184.545062 
L 81.29977 183.893127 
L 49.73625 183.893127 
L 49.73625 183.893127 
" clip-path="url(#pfdc8cef759)" style="fill: none; stroke: #1f77b4; stroke-width: 4"/>
   </g>
   <g id="line2d_22">
    <path d="M 49.73625 502.68928 
L 910.55952 502.68928 
" clip-path="url(#pfdc8cef759)" style="fill: none; stroke: #000000; stroke-opacity: 0.5; stroke-width: 3.5"/>
   </g>
   <g id="line2d_23">
    <path d="M 910.55952 230.832438 
L 904.820698 230.832438 
L 901.951287 231.484373 
L 893.343055 231.484373 
L 890.473644 232.136308 
L 887.604233 232.136308 
L 884.734822 232.788242 
L 873.257178 232.788242 
L 856.040713 228.876633 
L 853.171302 228.876633 
L 830.216015 223.661154 
L 827.346604 223.661154 
L 810.130139 219.749545 
L 807.260728 219.749545 
L 798.652495 217.79374 
L 795.783084 217.79374 
L 787.174851 215.837936 
L 784.30544 215.837936 
L 781.43603 215.186001 
L 778.566619 215.186001 
L 772.827797 213.882131 
L 769.958386 213.882131 
L 764.219564 212.578261 
L 761.350153 212.578261 
L 758.480742 211.926327 
L 755.611331 211.926327 
L 749.87251 210.622457 
L 747.003099 210.622457 
L 741.264277 209.318587 
L 738.394866 209.318587 
L 732.656044 208.014717 
L 729.786633 208.014717 
L 724.047812 206.710848 
L 721.178401 206.710848 
L 715.439579 205.406978 
L 712.570168 205.406978 
L 709.700757 206.058913 
L 701.092524 206.058913 
L 698.223113 206.710848 
L 686.74547 206.710848 
L 683.876059 207.362782 
L 675.267826 207.362782 
L 672.398415 208.014717 
L 660.920772 208.014717 
L 658.051361 208.666652 
L 646.573717 208.666652 
L 643.704306 209.318587 
L 632.226663 209.318587 
L 629.357252 209.970522 
L 620.749019 209.970522 
L 617.879608 210.622457 
L 603.532554 210.622457 
L 600.663143 211.274392 
L 594.924321 211.274392 
L 592.05491 211.926327 
L 586.316088 211.926327 
L 583.446677 212.578261 
L 580.577267 212.578261 
L 577.707856 213.230196 
L 574.838445 213.230196 
L 571.969034 213.882131 
L 566.230212 213.882131 
L 563.360801 214.534066 
L 560.49139 214.534066 
L 557.621979 215.186001 
L 554.752568 215.186001 
L 551.883158 215.837936 
L 549.013747 215.837936 
L 546.144336 214.534066 
L 540.405514 213.230196 
L 534.666692 210.622457 
L 531.797281 209.970522 
L 526.058459 207.362782 
L 523.189049 206.710848 
L 517.450227 204.103108 
L 514.580816 203.451173 
L 508.841994 200.843434 
L 505.972583 200.191499 
L 500.233761 197.583759 
L 497.36435 196.931824 
L 488.756118 193.020215 
L 485.886707 192.36828 
L 480.147885 189.760541 
L 477.278474 189.108606 
L 474.409063 187.804736 
L 471.539652 188.456671 
L 462.93142 188.456671 
L 460.062009 189.108606 
L 454.323187 189.108606 
L 451.453776 189.760541 
L 445.714954 189.760541 
L 442.845543 190.412476 
L 434.237311 190.412476 
L 431.3679 191.064411 
L 425.629078 191.064411 
L 422.759667 191.716345 
L 414.151434 191.716345 
L 411.282023 192.36828 
L 402.673791 192.36828 
L 399.80438 193.020215 
L 394.065558 193.020215 
L 391.196147 193.67215 
L 382.587914 193.67215 
L 379.718503 194.324085 
L 373.979682 194.324085 
L 371.110271 194.97602 
L 365.371449 194.97602 
L 362.502038 195.627955 
L 353.893805 195.627955 
L 351.024394 196.27989 
L 348.154984 197.583759 
L 345.285573 198.235694 
L 342.416162 199.539564 
L 339.546751 198.235694 
L 336.67734 197.583759 
L 325.199696 192.36828 
L 322.330286 191.716345 
L 310.852642 186.500866 
L 307.983231 185.848932 
L 299.374998 181.937322 
L 296.505587 181.285387 
L 287.897355 177.373778 
L 285.027944 176.721843 
L 276.419711 172.810234 
L 273.5503 174.114104 
L 270.680889 176.069908 
L 267.811478 177.373778 
L 264.942068 179.329583 
L 259.203246 181.937322 
L 256.333835 183.893127 
L 253.464424 185.196997 
L 250.595013 187.152801 
L 244.856191 189.760541 
L 241.98678 191.716345 
L 239.117369 193.020215 
L 236.247958 194.97602 
L 233.378548 193.67215 
L 227.639726 192.36828 
L 224.770315 191.064411 
L 219.031493 189.760541 
L 216.162082 188.456671 
L 210.42326 187.152801 
L 207.55385 185.848932 
L 198.945617 183.893127 
L 196.076206 182.589257 
L 190.337384 181.285387 
L 187.467973 179.981518 
L 178.85974 178.025713 
L 175.99033 176.721843 
L 170.251508 175.417974 
L 167.382097 174.114104 
L 158.773864 172.158299 
L 155.904453 170.85443 
L 150.165632 169.55056 
L 147.296221 168.24669 
L 138.687988 166.290885 
L 135.818577 164.987016 
L 130.079755 163.683146 
L 127.210344 162.379276 
L 121.471523 161.075406 
L 118.602112 159.771537 
L 109.993879 157.815732 
L 49.73625 171.506364 
L 49.73625 171.506364 
" clip-path="url(#pfdc8cef759)" style="fill: none; stroke: #2ca02c; stroke-width: 4"/>
   </g>
   <g id="line2d_24">
    <path d="M 49.73625 502.68928 
L 910.55952 502.68928 
" clip-path="url(#pfdc8cef759)" style="fill: none; stroke: #000000; stroke-opacity: 0.5; stroke-width: 3.5"/>
   </g>
   <g id="legend_1">
    <g id="patch_3">
     <path d="M 828.017333 88.656094 
L 900.05952 88.656094 
Q 903.05952 88.656094 903.05952 85.656094 
L 903.05952 24.238125 
Q 903.05952 21.238125 900.05952 21.238125 
L 828.017333 21.238125 
Q 825.017333 21.238125 825.017333 24.238125 
L 825.017333 85.656094 
Q 825.017333 88.656094 828.017333 88.656094 
z
" style="fill: #ffffff; opacity: 0.7; stroke: #ffffff; stroke-width: 0.5; stroke-linejoin: miter"/>
    </g>
    <g id="line2d_25">
     <path d="M 832.517333 35.363906 
L 836.267333 35.363906 
L 840.017333 35.363906 
" style="fill: none; stroke: #d62728; stroke-width: 4"/>
    </g>
    <g id="text_11">
     <text style="fill: #222222; font: 15px 'Roboto', 'Arial', 'DejaVu Sans', sans-serif; text-anchor: start" x="847.517333" y="40.163906" transform="rotate(-0 847.517333 40.163906)">LULA 3</text>
    </g>
    <g id="line2d_26">
     <path d="M 832.517333 54.336562 
L 836.267333 54.336562 
L 840.017333 54.336562 
" style="fill: none; stroke: #1f77b4; stroke-width: 4"/>
    </g>
    <g id="text_12">
     <text style="fill: #222222; font: 15px 'Roboto', 'Arial', 'DejaVu Sans', sans-serif; text-anchor: start" x="847.517333" y="59.136562" transform="rotate(-0 847.517333 59.136562)">LULA 2</text>
    </g>
    <g id="line2d_27">
     <path d="M 832.517333 73.309219 
L 836.267333 73.309219 
L 840.017333 73.309219 
" style="fill: none; stroke: #2ca02c; stroke-width: 4"/>
    </g>
    <g id="text_13">
     <text style="fill: #222222; font: 15px 'Roboto', 'Arial', 'DejaVu Sans', sans-serif; text-anchor: start" x="847.517333" y="78.109219" transform="rotate(-0 847.517333 78.109219)">LULA 1</text>
    </g>
   </g>
  </g>
 </g>
 <defs>
  <clipPath id="pfdc8cef759">
   <rect x="49.73625" y="13.738125" width="860.82327" height="506.194833"/>
  </clipPath>
 </defs>
</svg>
