<?xml version="1.0" encoding="utf-8" standalone="no"?>
<!DOCTYPE svg PUBLIC "-//W3C//DTD SVG 1.1//EN"
  "http://www.w3.org/Graphics/SVG/1.1/DTD/svg11.dtd">
<svg xmlns:xlink="http://www.w3.org/1999/xlink" width="912.71952pt" height="538.31952pt" viewBox="0 0 912.71952 538.31952" xmlns="http://www.w3.org/2000/svg" version="1.1">
 <metadata>
  <rdf:RDF xmlns:dc="http://purl.org/dc/elements/1.1/" xmlns:cc="http://creativecommons.org/ns#" xmlns:rdf="http://www.w3.org/1999/02/22-rdf-syntax-ns#">
   <cc:Work>
    <dc:type rdf:resource="http://purl.org/dc/dcmitype/StillImage"/>
    <dc:date>2023-10-02T19:23:20.721023</dc:date>
    <dc:format>image/svg+xml</dc:format>
    <dc:creator>
     <cc:Agent>
      <dc:title>Matplotlib v3.7.1, https://matplotlib.org/</dc:title>
     </cc:Agent>
    </dc:creator>
   </cc:Work>
  </rdf:RDF>
 </metadata>
 <defs>
  <style type="text/css">*{stroke-linejoin: round; stroke-linecap: butt}</style>
 </defs>
 <g id="figure_1">
  <g id="patch_1">
   <path d="M 0 538.31952 
L 912.71952 538.31952 
L 912.71952 0 
L 0 0 
L 0 538.31952 
z
" style="fill: none"/>
  </g>
  <g id="axes_1">
   <g id="patch_2">
    <path d="M 49.73625 524.932957 
L 891.981551 524.932957 
L 891.981551 13.738125 
L 49.73625 13.738125 
L 49.73625 524.932957 
z
" style="fill: none"/>
   </g>
   <g id="matplotlib.axis_1">
    <g id="xtick_1">
     <g id="line2d_1">
      <path d="M 49.73625 524.932957 
L 49.73625 13.738125 
" clip-path="url(#pa20155b39e)" style="fill: none; stroke-dasharray: 0.7,2.1; stroke-dashoffset: 0; stroke: #000000; stroke-opacity: 0.5; stroke-width: 0.7"/>
     </g>
     <g id="line2d_2"/>
    </g>
    <g id="xtick_2">
     <g id="line2d_3">
      <path d="M 143.319061 524.932957 
L 143.319061 13.738125 
" clip-path="url(#pa20155b39e)" style="fill: none; stroke-dasharray: 0.7,2.1; stroke-dashoffset: 0; stroke: #000000; stroke-opacity: 0.5; stroke-width: 0.7"/>
     </g>
     <g id="line2d_4"/>
     <g id="text_1">
      <text style="fill: #333333; font: 22px 'Roboto', 'Arial', 'DejaVu Sans', sans-serif; text-anchor: middle" x="143.319061" y="531.69077" transform="rotate(-0 143.319061 531.69077)">30 DIAS</text>
     </g>
    </g>
    <g id="xtick_3">
     <g id="line2d_5">
      <path d="M 236.901872 524.932957 
L 236.901872 13.738125 
" clip-path="url(#pa20155b39e)" style="fill: none; stroke-dasharray: 0.7,2.1; stroke-dashoffset: 0; stroke: #000000; stroke-opacity: 0.5; stroke-width: 0.7"/>
     </g>
     <g id="line2d_6"/>
     <g id="text_2">
      <text style="fill: #333333; font: 22px 'Roboto', 'Arial', 'DejaVu Sans', sans-serif; text-anchor: middle" x="236.901872" y="531.69077" transform="rotate(-0 236.901872 531.69077)">60</text>
     </g>
    </g>
    <g id="xtick_4">
     <g id="line2d_7">
      <path d="M 330.484684 524.932957 
L 330.484684 13.738125 
" clip-path="url(#pa20155b39e)" style="fill: none; stroke-dasharray: 0.7,2.1; stroke-dashoffset: 0; stroke: #000000; stroke-opacity: 0.5; stroke-width: 0.7"/>
     </g>
     <g id="line2d_8"/>
     <g id="text_3">
      <text style="fill: #333333; font: 22px 'Roboto', 'Arial', 'DejaVu Sans', sans-serif; text-anchor: middle" x="330.484684" y="531.69077" transform="rotate(-0 330.484684 531.69077)">90</text>
     </g>
    </g>
    <g id="xtick_5">
     <g id="line2d_9">
      <path d="M 424.067495 524.932957 
L 424.067495 13.738125 
" clip-path="url(#pa20155b39e)" style="fill: none; stroke-dasharray: 0.7,2.1; stroke-dashoffset: 0; stroke: #000000; stroke-opacity: 0.5; stroke-width: 0.7"/>
     </g>
     <g id="line2d_10"/>
     <g id="text_4">
      <text style="fill: #333333; font: 22px 'Roboto', 'Arial', 'DejaVu Sans', sans-serif; text-anchor: middle" x="424.067495" y="531.69077" transform="rotate(-0 424.067495 531.69077)">120</text>
     </g>
    </g>
    <g id="xtick_6">
     <g id="line2d_11">
      <path d="M 517.650306 524.932957 
L 517.650306 13.738125 
" clip-path="url(#pa20155b39e)" style="fill: none; stroke-dasharray: 0.7,2.1; stroke-dashoffset: 0; stroke: #000000; stroke-opacity: 0.5; stroke-width: 0.7"/>
     </g>
     <g id="line2d_12"/>
     <g id="text_5">
      <text style="fill: #333333; font: 22px 'Roboto', 'Arial', 'DejaVu Sans', sans-serif; text-anchor: middle" x="517.650306" y="531.69077" transform="rotate(-0 517.650306 531.69077)">150</text>
     </g>
    </g>
    <g id="xtick_7">
     <g id="line2d_13">
      <path d="M 611.233118 524.932957 
L 611.233118 13.738125 
" clip-path="url(#pa20155b39e)" style="fill: none; stroke-dasharray: 0.7,2.1; stroke-dashoffset: 0; stroke: #000000; stroke-opacity: 0.5; stroke-width: 0.7"/>
     </g>
     <g id="line2d_14"/>
     <g id="text_6">
      <text style="fill: #333333; font: 22px 'Roboto', 'Arial', 'DejaVu Sans', sans-serif; text-anchor: middle" x="611.233118" y="531.69077" transform="rotate(-0 611.233118 531.69077)">180</text>
     </g>
    </g>
    <g id="xtick_8">
     <g id="line2d_15">
      <path d="M 704.815929 524.932957 
L 704.815929 13.738125 
" clip-path="url(#pa20155b39e)" style="fill: none; stroke-dasharray: 0.7,2.1; stroke-dashoffset: 0; stroke: #000000; stroke-opacity: 0.5; stroke-width: 0.7"/>
     </g>
     <g id="line2d_16"/>
     <g id="text_7">
      <text style="fill: #333333; font: 22px 'Roboto', 'Arial', 'DejaVu Sans', sans-serif; text-anchor: middle" x="704.815929" y="531.69077" transform="rotate(-0 704.815929 531.69077)">210</text>
     </g>
    </g>
    <g id="xtick_9">
     <g id="line2d_17">
      <path d="M 798.39874 524.932957 
L 798.39874 13.738125 
" clip-path="url(#pa20155b39e)" style="fill: none; stroke-dasharray: 0.7,2.1; stroke-dashoffset: 0; stroke: #000000; stroke-opacity: 0.5; stroke-width: 0.7"/>
     </g>
     <g id="line2d_18"/>
     <g id="text_8">
      <text style="fill: #333333; font: 22px 'Roboto', 'Arial', 'DejaVu Sans', sans-serif; text-anchor: middle" x="798.39874" y="531.69077" transform="rotate(-0 798.39874 531.69077)">240</text>
     </g>
    </g>
    <g id="xtick_10">
     <g id="line2d_19">
      <path d="M 891.981551 524.932957 
L 891.981551 13.738125 
" clip-path="url(#pa20155b39e)" style="fill: none; stroke-dasharray: 0.7,2.1; stroke-dashoffset: 0; stroke: #000000; stroke-opacity: 0.5; stroke-width: 0.7"/>
     </g>
     <g id="line2d_20"/>
     <g id="text_9">
      <text style="fill: #333333; font: 22px 'Roboto', 'Arial', 'DejaVu Sans', sans-serif; text-anchor: middle" x="891.981551" y="531.69077" transform="rotate(-0 891.981551 531.69077)">270</text>
     </g>
    </g>
   </g>
   <g id="matplotlib.axis_2">
    <g id="ytick_1">
     <g id="line2d_21">
      <path d="M 49.73625 506.471867 
L 891.981551 506.471867 
" clip-path="url(#pa20155b39e)" style="fill: none; stroke-dasharray: 0.7,2.1; stroke-dashoffset: 0; stroke: #000000; stroke-opacity: 0.5; stroke-width: 0.7"/>
     </g>
     <g id="text_10">
      <text style="fill: #333333; font: 24px 'Roboto', 'Arial', 'DejaVu Sans', sans-serif; text-anchor: end" x="46.73625" y="513.174992" transform="rotate(-0 46.73625 513.174992)">0  </text>
     </g>
    </g>
    <g id="ytick_2">
     <g id="line2d_22">
      <path d="M 49.73625 342.227286 
L 891.981551 342.227286 
" clip-path="url(#pa20155b39e)" style="fill: none; stroke-dasharray: 0.7,2.1; stroke-dashoffset: 0; stroke: #000000; stroke-opacity: 0.5; stroke-width: 0.7"/>
     </g>
     <g id="text_11">
      <text style="fill: #333333; font: 24px 'Roboto', 'Arial', 'DejaVu Sans', sans-serif; text-anchor: end" x="46.73625" y="348.930411" transform="rotate(-0 46.73625 348.930411)">25  </text>
     </g>
    </g>
    <g id="ytick_3">
     <g id="line2d_23">
      <path d="M 49.73625 177.982706 
L 891.981551 177.982706 
" clip-path="url(#pa20155b39e)" style="fill: none; stroke-dasharray: 0.7,2.1; stroke-dashoffset: 0; stroke: #000000; stroke-opacity: 0.5; stroke-width: 0.7"/>
     </g>
     <g id="text_12">
      <text style="fill: #333333; font: 24px 'Roboto', 'Arial', 'DejaVu Sans', sans-serif; text-anchor: end" x="46.73625" y="184.685831" transform="rotate(-0 46.73625 184.685831)">50  </text>
     </g>
    </g>
    <g id="ytick_4">
     <g id="line2d_24">
      <path d="M 49.73625 13.738125 
L 891.981551 13.738125 
" clip-path="url(#pa20155b39e)" style="fill: none; stroke-dasharray: 0.7,2.1; stroke-dashoffset: 0; stroke: #000000; stroke-opacity: 0.5; stroke-width: 0.7"/>
     </g>
     <g id="text_13">
      <text style="fill: #333333; font: 24px 'Roboto', 'Arial', 'DejaVu Sans', sans-serif; text-anchor: end" x="46.73625" y="20.44125" transform="rotate(-0 46.73625 20.44125)">75%</text>
     </g>
    </g>
   </g>
   <g id="line2d_25">
    <path d="M 891.981551 243.680538 
L 882.62327 243.680538 
L 879.503843 243.023559 
L 876.384416 241.709603 
L 860.787281 238.424711 
L 854.548427 238.424711 
L 851.429 239.08169 
L 848.309573 239.08169 
L 845.190146 239.738668 
L 820.234729 239.738668 
L 817.115302 239.08169 
L 813.995875 239.08169 
L 807.757021 237.767733 
L 804.637594 236.453776 
L 798.39874 235.13982 
L 770.323897 235.13982 
L 767.20447 234.482841 
L 751.607334 234.482841 
L 748.487907 233.825863 
L 745.36848 233.825863 
L 742.249053 234.482841 
L 739.129626 234.482841 
L 732.890772 235.796798 
L 729.771345 235.796798 
L 726.651918 236.453776 
L 723.532491 236.453776 
L 717.293637 237.767733 
L 714.17421 237.767733 
L 711.054783 238.424711 
L 707.935356 238.424711 
L 704.815929 239.08169 
L 701.696502 239.08169 
L 695.457648 240.395646 
L 692.338221 240.395646 
L 689.218794 241.052624 
L 686.099366 244.994494 
L 686.099366 241.052624 
L 682.979939 244.994494 
L 682.979939 241.709603 
L 679.860512 244.994494 
L 679.860512 241.709603 
L 676.741085 244.994494 
L 676.741085 242.366581 
L 673.621658 244.994494 
L 673.621658 243.023559 
L 670.502231 244.994494 
L 670.502231 243.023559 
L 667.382804 244.994494 
L 667.382804 243.680538 
L 664.263377 244.994494 
L 664.263377 243.680538 
L 661.14395 244.994494 
L 661.14395 244.337516 
L 658.024523 244.994494 
L 658.024523 244.337516 
L 654.905096 244.994494 
L 654.905096 244.994494 
L 645.546815 244.994494 
L 645.546815 245.651473 
L 642.427388 244.337516 
L 642.427388 244.994494 
L 639.307961 243.680538 
L 639.307961 244.994494 
L 636.188534 243.680538 
L 636.188534 244.994494 
L 633.069107 243.023559 
L 633.069107 244.994494 
L 629.94968 243.023559 
L 629.94968 244.994494 
L 626.830253 242.366581 
L 626.830253 244.994494 
L 623.710826 241.709603 
L 623.710826 244.994494 
L 620.591399 241.709603 
L 620.591399 244.994494 
L 617.471972 241.709603 
L 617.471972 244.994494 
L 614.352545 242.366581 
L 614.352545 245.651473 
L 611.233118 242.366581 
L 611.233118 246.308451 
L 608.11369 242.366581 
L 608.11369 246.308451 
L 604.994263 243.023559 
L 604.994263 246.965429 
L 601.874836 243.023559 
L 601.874836 247.622408 
L 598.755409 243.023559 
L 598.755409 247.622408 
L 595.635982 243.680538 
L 595.635982 248.936364 
L 592.516555 244.337516 
L 592.516555 249.593343 
L 589.397128 244.994494 
L 589.397128 250.907299 
L 586.277701 245.651473 
L 586.277701 251.564278 
L 583.158274 246.308451 
L 583.158274 252.878234 
L 580.038847 246.308451 
L 580.038847 253.535213 
L 576.91942 246.965429 
L 576.91942 254.849169 
L 573.799993 247.622408 
L 573.799993 255.506148 
L 570.680566 248.279386 
L 570.680566 256.820104 
L 567.561139 248.936364 
L 567.561139 257.477083 
L 564.441712 249.593343 
L 564.441712 258.134061 
L 561.322285 249.593343 
L 561.322285 259.448018 
L 558.202858 250.250321 
L 558.202858 260.104996 
L 555.083431 250.907299 
L 555.083431 260.761974 
L 551.964004 251.564278 
L 551.964004 260.761974 
L 548.844577 252.221256 
L 548.844577 260.761974 
L 545.72515 252.878234 
L 545.72515 261.418952 
L 542.605723 252.878234 
L 542.605723 261.418952 
L 539.486296 253.535213 
L 539.486296 262.075931 
L 536.366869 254.192191 
L 536.366869 262.075931 
L 533.247441 254.849169 
L 533.247441 262.732909 
L 530.128014 255.506148 
L 530.128014 262.732909 
L 527.008587 256.163126 
L 527.008587 263.389887 
L 523.88916 255.506148 
L 523.88916 262.732909 
L 520.769733 255.506148 
L 520.769733 262.732909 
L 517.650306 255.506148 
L 517.650306 262.075931 
L 514.530879 255.506148 
L 514.530879 262.075931 
L 511.411452 254.849169 
L 511.411452 262.075931 
L 508.292025 254.849169 
L 508.292025 261.418952 
L 505.172598 254.849169 
L 505.172598 261.418952 
L 502.053171 254.192191 
L 502.053171 260.761974 
L 498.933744 254.192191 
L 498.933744 260.761974 
L 495.814317 254.192191 
L 495.814317 260.761974 
L 492.69489 253.535213 
L 492.69489 260.104996 
L 489.575463 253.535213 
L 489.575463 260.104996 
L 486.456036 253.535213 
L 486.456036 260.104996 
L 483.336609 253.535213 
L 483.336609 259.448018 
L 480.217182 252.878234 
L 480.217182 259.448018 
L 477.097755 252.878234 
L 477.097755 258.791039 
L 473.978328 252.878234 
L 473.978328 258.791039 
L 470.858901 252.221256 
L 470.858901 258.791039 
L 467.739474 252.221256 
L 467.739474 258.134061 
L 464.620047 252.221256 
L 464.620047 258.134061 
L 461.500619 251.564278 
L 461.500619 258.134061 
L 458.381192 251.564278 
L 458.381192 257.477083 
L 455.261765 250.907299 
L 455.261765 257.477083 
L 452.142338 250.907299 
L 452.142338 257.477083 
L 449.022911 250.907299 
L 449.022911 256.820104 
L 445.903484 250.250321 
L 445.903484 256.820104 
L 442.784057 250.250321 
L 442.784057 256.163126 
L 439.66463 250.250321 
L 439.66463 256.163126 
L 436.545203 249.593343 
L 436.545203 256.163126 
L 433.425776 249.593343 
L 433.425776 255.506148 
L 430.306349 249.593343 
L 430.306349 255.506148 
L 427.186922 248.936364 
L 427.186922 255.506148 
L 424.067495 248.936364 
L 424.067495 254.849169 
L 420.948068 248.279386 
L 420.948068 254.849169 
L 417.828641 248.279386 
L 417.828641 254.849169 
L 414.709214 248.279386 
L 414.709214 254.192191 
L 411.589787 247.622408 
L 411.589787 254.192191 
L 408.47036 247.622408 
L 408.47036 254.192191 
L 405.350933 246.965429 
L 405.350933 253.535213 
L 402.231506 246.965429 
L 402.231506 253.535213 
L 399.112079 246.965429 
L 399.112079 253.535213 
L 395.992652 246.308451 
L 395.992652 252.878234 
L 392.873225 246.308451 
L 392.873225 252.878234 
L 389.753798 245.651473 
L 389.753798 252.878234 
L 386.63437 245.651473 
L 386.63437 252.221256 
L 383.514943 244.994494 
L 383.514943 252.221256 
L 380.395516 244.994494 
L 380.395516 252.221256 
L 377.276089 244.337516 
L 377.276089 251.564278 
L 374.156662 244.994494 
L 374.156662 252.221256 
L 371.037235 244.994494 
L 371.037235 252.221256 
L 367.917808 244.337516 
L 367.917808 251.564278 
L 364.798381 243.680538 
L 364.798381 250.907299 
L 361.678954 243.023559 
L 361.678954 250.250321 
L 358.559527 243.023559 
L 358.559527 250.250321 
L 355.4401 242.366581 
L 355.4401 249.593343 
L 352.320673 243.023559 
L 352.320673 250.250321 
L 349.201246 243.680538 
L 349.201246 250.907299 
L 346.081819 244.337516 
L 346.081819 251.564278 
L 342.962392 244.994494 
L 342.962392 252.221256 
L 339.842965 246.308451 
L 339.842965 252.878234 
L 336.723538 246.965429 
L 336.723538 253.535213 
L 333.604111 246.308451 
L 333.604111 254.192191 
L 330.484684 245.651473 
L 330.484684 254.192191 
L 327.365257 244.994494 
L 327.365257 254.192191 
L 324.24583 244.994494 
L 324.24583 254.192191 
L 321.126403 244.337516 
L 321.126403 254.849169 
L 318.006976 243.680538 
L 318.006976 253.535213 
L 314.887549 243.023559 
L 314.887549 252.878234 
L 311.768121 242.366581 
L 311.768121 252.221256 
L 308.648694 241.709603 
L 308.648694 250.907299 
L 305.529267 241.052624 
L 305.529267 250.250321 
L 302.40984 240.395646 
L 302.40984 249.593343 
L 299.290413 240.395646 
L 299.290413 248.279386 
L 296.170986 239.738668 
L 296.170986 247.622408 
L 293.051559 239.08169 
L 293.051559 246.965429 
L 289.932132 238.424711 
L 289.932132 246.308451 
L 286.812705 237.767733 
L 286.812705 244.994494 
L 283.693278 237.110755 
L 283.693278 244.337516 
L 280.573851 236.453776 
L 280.573851 243.680538 
L 277.454424 236.453776 
L 277.454424 243.023559 
L 274.334997 235.796798 
L 274.334997 242.366581 
L 271.21557 235.13982 
L 271.21557 241.709603 
L 268.096143 235.13982 
L 268.096143 241.709603 
L 264.976716 235.13982 
L 264.976716 241.052624 
L 261.857289 235.13982 
L 261.857289 241.052624 
L 258.737862 234.482841 
L 258.737862 241.052624 
L 255.618435 234.482841 
L 255.618435 241.052624 
L 252.499008 234.482841 
L 252.499008 240.395646 
L 249.379581 234.482841 
L 249.379581 240.395646 
L 246.260154 234.482841 
L 246.260154 240.395646 
L 243.140727 234.482841 
L 243.140727 239.738668 
L 240.0213 233.825863 
L 240.0213 239.08169 
L 236.901872 233.168885 
L 236.901872 239.08169 
L 233.782445 232.511906 
L 233.782445 238.424711 
L 230.663018 231.854928 
L 230.663018 237.767733 
L 227.543591 231.854928 
L 227.543591 237.110755 
L 224.424164 231.19795 
L 224.424164 236.453776 
L 221.304737 230.540971 
L 221.304737 235.796798 
L 218.18531 229.883993 
L 218.18531 235.13982 
L 215.065883 229.227015 
L 215.065883 235.13982 
L 211.946456 229.227015 
L 211.946456 234.482841 
L 208.827029 229.227015 
L 208.827029 234.482841 
L 205.707602 228.570036 
L 205.707602 233.825863 
L 202.588175 227.913058 
L 202.588175 233.825863 
L 199.468748 227.913058 
L 199.468748 233.168885 
L 196.349321 227.25608 
L 196.349321 233.168885 
L 193.229894 227.25608 
L 193.229894 233.168885 
L 190.110467 227.25608 
L 190.110467 232.511906 
L 186.99104 226.599101 
L 186.99104 232.511906 
L 183.871613 226.599101 
L 183.871613 231.854928 
L 180.752186 225.942123 
L 180.752186 231.854928 
L 177.632759 225.942123 
L 177.632759 231.19795 
L 174.513332 225.285145 
L 174.513332 230.540971 
L 171.393905 224.628166 
L 171.393905 230.540971 
L 168.274478 223.971188 
L 168.274478 229.227015 
L 165.155051 223.31421 
L 165.155051 228.570036 
L 162.035623 222.657231 
L 162.035623 227.25608 
L 158.916196 222.000253 
L 158.916196 226.599101 
L 155.796769 221.343275 
L 155.796769 225.942123 
L 152.677342 220.686296 
L 152.677342 224.628166 
L 149.557915 220.029318 
L 149.557915 223.971188 
L 146.438488 220.029318 
L 146.438488 223.971188 
L 143.319061 219.37234 
L 143.319061 223.31421 
L 140.199634 219.37234 
L 140.199634 222.657231 
L 137.080207 218.715362 
L 137.080207 222.000253 
L 133.96078 218.058383 
L 133.96078 221.343275 
L 130.841353 217.401405 
L 130.841353 220.686296 
L 127.721926 216.744427 
L 127.721926 220.029318 
L 124.602499 216.087448 
L 124.602499 219.37234 
L 121.483072 215.43047 
L 121.483072 219.37234 
L 118.363645 214.773492 
L 118.363645 218.715362 
L 115.244218 214.116513 
L 115.244218 218.058383 
L 112.124791 214.116513 
L 112.124791 217.401405 
L 109.005364 213.459535 
L 109.005364 216.744427 
L 105.885937 212.802557 
L 105.885937 216.087448 
L 102.76651 212.145578 
L 102.76651 215.43047 
L 99.647083 211.4886 
L 99.647083 215.43047 
L 96.527656 210.831622 
L 96.527656 214.773492 
L 93.408229 210.174643 
L 93.408229 214.116513 
L 90.288802 209.517665 
L 90.288802 213.459535 
L 87.169375 208.860687 
L 87.169375 212.802557 
L 84.049947 208.203708 
L 84.049947 212.145578 
L 80.93052 207.54673 
L 80.93052 211.4886 
L 77.811093 206.889752 
L 77.811093 210.831622 
L 74.691666 204.261838 
L 74.691666 208.203708 
L 71.572239 200.976947 
L 71.572239 204.918817 
L 68.452812 198.349034 
L 68.452812 201.633925 
L 65.333385 197.692055 
L 65.333385 200.976947 
L 62.213958 197.035077 
L 62.213958 200.319969 
L 59.094531 197.035077 
L 59.094531 199.66299 
L 55.975104 196.378099 
L 55.975104 199.006012 
L 52.855677 195.72112 
L 52.855677 198.349034 
L 49.73625 195.72112 
L 49.73625 197.692055 
L 49.73625 197.692055 
" clip-path="url(#pa20155b39e)" style="fill: none; stroke: #d62728; stroke-width: 4"/>
   </g>
   <g id="line2d_26">
    <path d="M 49.73625 506.471867 
L 891.981551 506.471867 
" clip-path="url(#pa20155b39e)" style="fill: none; stroke: #000000; stroke-opacity: 0.5; stroke-width: 3.5"/>
   </g>
   <g id="line2d_27">
    <path d="M 891.981551 276.529454 
L 888.862124 275.215497 
L 885.742697 274.558519 
L 882.62327 273.244562 
L 876.384416 269.302692 
L 873.264989 267.988736 
L 870.145562 271.273627 
L 867.026135 271.930606 
L 860.787281 274.558519 
L 857.667854 275.215497 
L 851.429 277.843411 
L 848.309573 278.500389 
L 842.070719 281.128302 
L 838.951292 281.78528 
L 832.712437 284.413194 
L 829.59301 285.070172 
L 823.354156 287.698085 
L 820.234729 288.355064 
L 813.995875 290.982977 
L 810.876448 291.639955 
L 804.637594 294.267869 
L 801.518167 293.61089 
L 798.39874 295.581825 
L 795.279313 296.895782 
L 789.040459 298.209739 
L 785.921032 299.523695 
L 782.801605 298.209739 
L 779.682178 294.924847 
L 776.562751 292.296934 
L 770.323897 285.72715 
L 764.085043 289.66902 
L 760.965616 290.982977 
L 754.726761 289.66902 
L 751.607334 288.355064 
L 748.487907 287.698085 
L 745.36848 286.384129 
L 739.129626 285.070172 
L 736.010199 283.756215 
L 729.771345 282.442259 
L 726.651918 281.128302 
L 720.413064 279.814345 
L 717.293637 278.500389 
L 711.054783 277.186432 
L 707.935356 275.215497 
L 692.338221 271.930606 
L 686.099366 269.302692 
L 682.979939 269.302692 
L 679.860512 269.959671 
L 676.741085 269.959671 
L 673.621658 270.616649 
L 670.502231 270.616649 
L 667.382804 271.273627 
L 664.263377 271.273627 
L 661.14395 271.930606 
L 658.024523 271.930606 
L 654.905096 272.587584 
L 651.785669 272.587584 
L 648.666242 273.244562 
L 645.546815 273.244562 
L 642.427388 273.901541 
L 639.307961 273.901541 
L 636.188534 274.558519 
L 633.069107 274.558519 
L 629.94968 275.215497 
L 626.830253 275.215497 
L 623.710826 275.872476 
L 620.591399 275.872476 
L 617.471972 276.529454 
L 614.352545 276.529454 
L 611.233118 277.186432 
L 608.11369 276.529454 
L 601.874836 276.529454 
L 598.755409 275.872476 
L 595.635982 275.872476 
L 592.516555 275.215497 
L 589.397128 273.901541 
L 583.158274 272.587584 
L 580.038847 271.273627 
L 573.799993 269.959671 
L 570.680566 268.645714 
L 564.441712 267.331757 
L 561.322285 266.017801 
L 514.530879 275.872476 
L 508.292025 275.872476 
L 505.172598 275.215497 
L 498.933744 272.587584 
L 495.814317 271.930606 
L 492.69489 270.616649 
L 489.575463 269.959671 
L 483.336609 267.331757 
L 480.217182 266.674779 
L 473.978328 264.046866 
L 470.858901 263.389887 
L 467.739474 262.075931 
L 464.620047 261.418952 
L 458.381192 258.791039 
L 455.261765 258.134061 
L 449.022911 255.506148 
L 445.903484 254.849169 
L 439.66463 252.221256 
L 436.545203 251.564278 
L 430.306349 248.936364 
L 427.186922 248.279386 
L 424.067495 246.965429 
L 420.948068 244.337516 
L 417.828641 241.052624 
L 411.589787 251.564278 
L 408.47036 254.849169 
L 405.350933 258.791039 
L 402.231506 262.075931 
L 399.112079 262.732909 
L 374.156662 262.732909 
L 371.037235 263.389887 
L 349.201246 263.389887 
L 346.081819 264.046866 
L 333.604111 264.046866 
L 327.365257 260.104996 
L 324.24583 256.820104 
L 321.126403 256.820104 
L 318.006976 256.163126 
L 314.887549 256.163126 
L 311.768121 255.506148 
L 308.648694 255.506148 
L 305.529267 254.849169 
L 299.290413 254.849169 
L 296.170986 254.192191 
L 293.051559 254.192191 
L 289.932132 253.535213 
L 283.693278 253.535213 
L 280.573851 252.878234 
L 277.454424 252.878234 
L 274.334997 252.221256 
L 271.21557 252.221256 
L 268.096143 251.564278 
L 264.976716 251.564278 
L 261.857289 250.907299 
L 255.618435 250.907299 
L 252.499008 250.250321 
L 249.379581 250.250321 
L 246.260154 249.593343 
L 243.140727 249.593343 
L 240.0213 248.936364 
L 236.901872 248.936364 
L 233.782445 248.279386 
L 230.663018 248.279386 
L 227.543591 246.308451 
L 224.424164 244.994494 
L 218.18531 243.680538 
L 211.946456 243.680538 
L 171.393905 226.599101 
L 168.274478 223.971188 
L 165.155051 220.686296 
L 146.438488 204.918817 
L 143.319061 201.633925 
L 137.080207 196.378099 
L 133.96078 198.349034 
L 130.841353 199.66299 
L 127.721926 201.633925 
L 124.602499 202.947882 
L 118.363645 206.889752 
L 115.244218 208.203708 
L 109.005364 212.145578 
L 105.885937 213.459535 
L 99.647083 217.401405 
L 96.527656 218.715362 
L 93.408229 220.686296 
L 90.288802 222.000253 
L 62.213958 222.000253 
L 59.094531 221.343275 
L 49.73625 221.343275 
L 49.73625 221.343275 
" clip-path="url(#pa20155b39e)" style="fill: none; stroke: #1f77b4; stroke-width: 4"/>
   </g>
   <g id="line2d_28">
    <path d="M 49.73625 506.471867 
L 891.981551 506.471867 
" clip-path="url(#pa20155b39e)" style="fill: none; stroke: #000000; stroke-opacity: 0.5; stroke-width: 3.5"/>
   </g>
   <g id="line2d_29">
    <path d="M 891.981551 169.441987 
L 888.862124 169.441987 
L 882.62327 170.755944 
L 879.503843 170.755944 
L 873.264989 172.069901 
L 870.145562 172.069901 
L 867.026135 172.726879 
L 863.906708 172.726879 
L 860.787281 173.383857 
L 848.309573 173.383857 
L 845.190146 174.040836 
L 829.59301 174.040836 
L 826.473583 174.697814 
L 810.876448 174.697814 
L 807.757021 175.354792 
L 792.159886 175.354792 
L 789.040459 176.011771 
L 776.562751 176.011771 
L 773.443324 176.668749 
L 754.726761 176.668749 
L 751.607334 177.325727 
L 742.249053 177.325727 
L 717.293637 187.83738 
L 714.17421 187.83738 
L 704.815929 189.808315 
L 686.099366 189.808315 
L 682.979939 189.151337 
L 642.427388 189.151337 
L 639.307961 188.494359 
L 608.11369 188.494359 
L 604.994263 187.83738 
L 576.91942 187.83738 
L 573.799993 187.180402 
L 548.844577 187.180402 
L 545.72515 186.523424 
L 542.605723 186.523424 
L 539.486296 185.866445 
L 533.247441 185.866445 
L 530.128014 185.209467 
L 523.88916 185.209467 
L 520.769733 184.552489 
L 517.650306 184.552489 
L 514.530879 183.89551 
L 508.292025 183.89551 
L 505.172598 183.238532 
L 498.933744 183.238532 
L 495.814317 182.581554 
L 492.69489 182.581554 
L 489.575463 181.924575 
L 486.456036 181.924575 
L 483.336609 181.267597 
L 477.097755 181.267597 
L 473.978328 180.610619 
L 467.739474 180.610619 
L 464.620047 179.953641 
L 461.500619 179.953641 
L 458.381192 179.296662 
L 452.142338 179.296662 
L 449.022911 178.639684 
L 445.903484 178.639684 
L 442.784057 177.982706 
L 436.545203 177.982706 
L 433.425776 177.325727 
L 427.186922 177.325727 
L 424.067495 176.668749 
L 420.948068 176.668749 
L 417.828641 176.011771 
L 411.589787 176.011771 
L 408.47036 175.354792 
L 402.231506 175.354792 
L 399.112079 174.697814 
L 395.992652 174.697814 
L 392.873225 174.040836 
L 389.753798 174.040836 
L 386.63437 173.383857 
L 380.395516 173.383857 
L 377.276089 172.726879 
L 374.156662 172.726879 
L 371.037235 172.069901 
L 367.917808 172.069901 
L 364.798381 171.412922 
L 358.559527 171.412922 
L 355.4401 170.755944 
L 349.201246 170.755944 
L 346.081819 170.098966 
L 342.962392 170.098966 
L 339.842965 169.441987 
L 333.604111 169.441987 
L 330.484684 168.785009 
L 327.365257 168.785009 
L 324.24583 168.128031 
L 318.006976 168.128031 
L 314.887549 167.471052 
L 311.768121 167.471052 
L 308.648694 166.814074 
L 302.40984 166.814074 
L 299.290413 166.157096 
L 289.932132 172.069901 
L 286.812705 174.697814 
L 277.454424 180.610619 
L 261.857289 180.610619 
L 258.737862 179.953641 
L 218.18531 179.953641 
L 215.065883 179.296662 
L 165.155051 179.296662 
L 162.035623 178.639684 
L 124.602499 178.639684 
L 121.483072 177.982706 
L 74.691666 177.982706 
L 71.572239 177.325727 
L 49.73625 177.325727 
L 49.73625 177.325727 
" clip-path="url(#pa20155b39e)" style="fill: none; stroke: #2ca02c; stroke-width: 4"/>
   </g>
   <g id="line2d_30">
    <path d="M 49.73625 506.471867 
L 891.981551 506.471867 
" clip-path="url(#pa20155b39e)" style="fill: none; stroke: #000000; stroke-opacity: 0.5; stroke-width: 3.5"/>
   </g>
   <g id="line2d_31">
    <path d="M 891.981551 224.628166 
L 876.384416 221.343275 
L 873.264989 221.343275 
L 863.906708 219.37234 
L 860.787281 219.37234 
L 851.429 217.401405 
L 848.309573 217.401405 
L 845.190146 216.744427 
L 842.070719 216.744427 
L 835.831865 215.43047 
L 832.712437 215.43047 
L 826.473583 214.116513 
L 823.354156 214.116513 
L 820.234729 213.459535 
L 817.115302 213.459535 
L 810.876448 212.145578 
L 807.757021 212.145578 
L 801.518167 210.831622 
L 798.39874 210.831622 
L 792.159886 209.517665 
L 789.040459 209.517665 
L 782.801605 208.203708 
L 779.682178 208.203708 
L 773.443324 206.889752 
L 770.323897 206.889752 
L 767.20447 207.54673 
L 757.846188 207.54673 
L 754.726761 208.203708 
L 742.249053 208.203708 
L 739.129626 208.860687 
L 729.771345 208.860687 
L 726.651918 209.517665 
L 714.17421 209.517665 
L 711.054783 210.174643 
L 698.577075 210.174643 
L 695.457648 210.831622 
L 682.979939 210.831622 
L 679.860512 211.4886 
L 670.502231 211.4886 
L 667.382804 212.145578 
L 651.785669 212.145578 
L 648.666242 212.802557 
L 642.427388 212.802557 
L 639.307961 213.459535 
L 633.069107 213.459535 
L 629.94968 214.116513 
L 626.830253 214.116513 
L 623.710826 214.773492 
L 620.591399 214.773492 
L 617.471972 215.43047 
L 611.233118 215.43047 
L 608.11369 216.087448 
L 604.994263 216.087448 
L 601.874836 216.744427 
L 598.755409 216.744427 
L 595.635982 217.401405 
L 592.516555 217.401405 
L 589.397128 216.087448 
L 583.158274 214.773492 
L 576.91942 212.145578 
L 573.799993 211.4886 
L 567.561139 208.860687 
L 564.441712 208.203708 
L 558.202858 205.575795 
L 555.083431 204.918817 
L 548.844577 202.290903 
L 545.72515 201.633925 
L 539.486296 199.006012 
L 536.366869 198.349034 
L 527.008587 194.407164 
L 523.88916 193.750185 
L 517.650306 191.122272 
L 514.530879 190.465294 
L 511.411452 189.151337 
L 508.292025 189.808315 
L 498.933744 189.808315 
L 495.814317 190.465294 
L 489.575463 190.465294 
L 486.456036 191.122272 
L 480.217182 191.122272 
L 477.097755 191.77925 
L 467.739474 191.77925 
L 464.620047 192.436229 
L 458.381192 192.436229 
L 455.261765 193.093207 
L 445.903484 193.093207 
L 442.784057 193.750185 
L 433.425776 193.750185 
L 430.306349 194.407164 
L 424.067495 194.407164 
L 420.948068 195.064142 
L 411.589787 195.064142 
L 408.47036 195.72112 
L 402.231506 195.72112 
L 399.112079 196.378099 
L 392.873225 196.378099 
L 389.753798 197.035077 
L 380.395516 197.035077 
L 377.276089 197.692055 
L 374.156662 199.006012 
L 371.037235 199.66299 
L 367.917808 200.976947 
L 364.798381 199.66299 
L 361.678954 199.006012 
L 349.201246 193.750185 
L 346.081819 193.093207 
L 333.604111 187.83738 
L 330.484684 187.180402 
L 321.126403 183.238532 
L 318.006976 182.581554 
L 308.648694 178.639684 
L 305.529267 177.982706 
L 296.170986 174.040836 
L 293.051559 175.354792 
L 289.932132 177.325727 
L 286.812705 178.639684 
L 283.693278 180.610619 
L 277.454424 183.238532 
L 274.334997 185.209467 
L 271.21557 186.523424 
L 268.096143 188.494359 
L 261.857289 191.122272 
L 258.737862 193.093207 
L 255.618435 194.407164 
L 252.499008 196.378099 
L 249.379581 195.064142 
L 243.140727 193.750185 
L 240.0213 192.436229 
L 233.782445 191.122272 
L 230.663018 189.808315 
L 224.424164 188.494359 
L 221.304737 187.180402 
L 211.946456 185.209467 
L 208.827029 183.89551 
L 202.588175 182.581554 
L 199.468748 181.267597 
L 190.110467 179.296662 
L 186.99104 177.982706 
L 180.752186 176.668749 
L 177.632759 175.354792 
L 168.274478 173.383857 
L 165.155051 172.069901 
L 158.916196 170.755944 
L 155.796769 169.441987 
L 146.438488 167.471052 
L 143.319061 166.157096 
L 137.080207 164.843139 
L 133.96078 163.529182 
L 127.721926 162.215226 
L 124.602499 160.901269 
L 115.244218 158.930334 
L 49.73625 172.726879 
L 49.73625 172.726879 
" clip-path="url(#pa20155b39e)" style="fill: none; stroke: #ff7f0e; stroke-width: 4"/>
   </g>
   <g id="line2d_32">
    <path d="M 49.73625 506.471867 
L 891.981551 506.471867 
" clip-path="url(#pa20155b39e)" style="fill: none; stroke: #000000; stroke-opacity: 0.5; stroke-width: 3.5"/>
   </g>
   <g id="line2d_33">
    <path d="M 891.981551 231.19795 
L 888.862124 231.854928 
L 873.264989 231.854928 
L 870.145562 232.511906 
L 860.787281 232.511906 
L 857.667854 233.168885 
L 789.040459 233.168885 
L 785.921032 232.511906 
L 782.801605 232.511906 
L 779.682178 231.854928 
L 776.562751 231.854928 
L 773.443324 231.19795 
L 770.323897 231.19795 
L 767.20447 230.540971 
L 764.085043 230.540971 
L 760.965616 229.883993 
L 754.726761 229.883993 
L 751.607334 229.227015 
L 748.487907 229.227015 
L 745.36848 228.570036 
L 742.249053 228.570036 
L 739.129626 227.913058 
L 736.010199 227.913058 
L 732.890772 227.25608 
L 729.771345 227.25608 
L 726.651918 226.599101 
L 723.532491 226.599101 
L 720.413064 225.942123 
L 714.17421 225.942123 
L 711.054783 225.285145 
L 707.935356 225.285145 
L 704.815929 224.628166 
L 701.696502 224.628166 
L 695.457648 223.31421 
L 692.338221 223.31421 
L 689.218794 222.657231 
L 686.099366 222.657231 
L 682.979939 222.000253 
L 679.860512 222.000253 
L 676.741085 222.657231 
L 673.621658 222.657231 
L 661.14395 225.285145 
L 658.024523 225.285145 
L 654.905096 225.942123 
L 648.666242 225.942123 
L 645.546815 226.599101 
L 639.307961 226.599101 
L 636.188534 227.25608 
L 626.830253 227.25608 
L 623.710826 227.913058 
L 617.471972 227.913058 
L 614.352545 228.570036 
L 604.994263 228.570036 
L 601.874836 229.227015 
L 592.516555 229.227015 
L 589.397128 229.883993 
L 583.158274 229.883993 
L 580.038847 230.540971 
L 573.799993 230.540971 
L 570.680566 231.19795 
L 567.561139 232.511906 
L 564.441712 233.168885 
L 561.322285 234.482841 
L 558.202858 234.482841 
L 555.083431 235.13982 
L 551.964004 235.13982 
L 545.72515 236.453776 
L 542.605723 236.453776 
L 536.366869 237.767733 
L 533.247441 237.767733 
L 530.128014 238.424711 
L 527.008587 238.424711 
L 520.769733 239.738668 
L 517.650306 239.738668 
L 514.530879 240.395646 
L 511.411452 240.395646 
L 505.172598 241.709603 
L 502.053171 241.709603 
L 495.814317 243.023559 
L 492.69489 243.023559 
L 489.575463 243.680538 
L 486.456036 243.680538 
L 483.336609 244.337516 
L 467.739474 244.337516 
L 464.620047 244.994494 
L 461.500619 244.337516 
L 458.381192 244.337516 
L 455.261765 243.680538 
L 452.142338 243.680538 
L 449.022911 243.023559 
L 445.903484 243.023559 
L 442.784057 242.366581 
L 436.545203 242.366581 
L 430.306349 241.052624 
L 424.067495 241.052624 
L 420.948068 240.395646 
L 417.828641 240.395646 
L 414.709214 239.738668 
L 408.47036 239.738668 
L 405.350933 239.08169 
L 402.231506 239.08169 
L 399.112079 238.424711 
L 395.992652 238.424711 
L 392.873225 237.767733 
L 386.63437 237.767733 
L 383.514943 237.110755 
L 380.395516 237.110755 
L 377.276089 236.453776 
L 371.037235 236.453776 
L 367.917808 235.796798 
L 364.798381 235.796798 
L 361.678954 235.13982 
L 358.559527 235.13982 
L 355.4401 234.482841 
L 352.320673 234.482841 
L 349.201246 233.825863 
L 346.081819 233.825863 
L 342.962392 233.168885 
L 336.723538 233.168885 
L 333.604111 232.511906 
L 330.484684 232.511906 
L 327.365257 231.854928 
L 321.126403 231.854928 
L 318.006976 231.19795 
L 314.887549 231.19795 
L 311.768121 230.540971 
L 308.648694 230.540971 
L 305.529267 229.883993 
L 302.40984 229.883993 
L 299.290413 229.227015 
L 293.051559 229.227015 
L 289.932132 228.570036 
L 286.812705 228.570036 
L 283.693278 227.913058 
L 280.573851 227.913058 
L 277.454424 227.25608 
L 274.334997 227.25608 
L 271.21557 223.971188 
L 264.976716 218.715362 
L 261.857289 216.744427 
L 255.618435 211.4886 
L 252.499008 209.517665 
L 246.260154 204.261838 
L 243.140727 202.290903 
L 236.901872 197.035077 
L 233.782445 195.064142 
L 227.543591 189.808315 
L 224.424164 187.83738 
L 215.065883 179.953641 
L 211.946456 177.982706 
L 205.707602 172.726879 
L 202.588175 170.755944 
L 193.229894 162.872204 
L 190.110467 160.901269 
L 183.871613 155.645443 
L 180.752186 153.674508 
L 171.393905 145.790768 
L 168.274478 143.819833 
L 162.035623 138.564006 
L 158.916196 137.25005 
L 155.796769 137.25005 
L 146.438488 139.220985 
L 143.319061 139.220985 
L 133.96078 141.19192 
L 130.841353 141.19192 
L 121.483072 143.162854 
L 118.363645 143.162854 
L 112.124791 144.476811 
L 109.005364 144.476811 
L 99.647083 146.447746 
L 96.527656 146.447746 
L 49.73625 156.302421 
L 49.73625 156.302421 
" clip-path="url(#pa20155b39e)" style="fill: none; stroke: #9467bd; stroke-width: 4"/>
   </g>
   <g id="line2d_34">
    <path d="M 49.73625 506.471867 
L 891.981551 506.471867 
" clip-path="url(#pa20155b39e)" style="fill: none; stroke: #000000; stroke-opacity: 0.5; stroke-width: 3.5"/>
   </g>
   <g id="line2d_35">
    <path d="M 891.981551 325.14585 
L 873.264989 321.20398 
L 870.145562 319.890023 
L 838.951292 313.32024 
L 835.831865 312.006283 
L 792.159886 302.808587 
L 789.040459 301.49463 
L 764.085043 296.238804 
L 760.965616 294.924847 
L 723.532491 287.041107 
L 720.413064 285.72715 
L 717.293637 285.72715 
L 714.17421 284.413194 
L 686.099366 278.500389 
L 682.979939 277.186432 
L 639.307961 267.988736 
L 636.188534 266.674779 
L 620.591399 263.389887 
L 617.471972 263.389887 
L 614.352545 262.732909 
L 608.11369 262.732909 
L 604.994263 262.075931 
L 598.755409 262.075931 
L 595.635982 261.418952 
L 589.397128 261.418952 
L 586.277701 260.761974 
L 580.038847 260.761974 
L 576.91942 260.104996 
L 570.680566 260.104996 
L 567.561139 259.448018 
L 561.322285 259.448018 
L 558.202858 258.791039 
L 551.964004 258.791039 
L 548.844577 258.134061 
L 542.605723 258.134061 
L 539.486296 257.477083 
L 533.247441 257.477083 
L 530.128014 256.820104 
L 523.88916 256.820104 
L 520.769733 256.163126 
L 514.530879 256.163126 
L 511.411452 255.506148 
L 505.172598 255.506148 
L 502.053171 254.849169 
L 495.814317 254.849169 
L 492.69489 254.192191 
L 486.456036 254.192191 
L 483.336609 253.535213 
L 477.097755 253.535213 
L 473.978328 252.878234 
L 470.858901 252.878234 
L 467.739474 252.221256 
L 461.500619 252.221256 
L 458.381192 251.564278 
L 452.142338 251.564278 
L 449.022911 250.907299 
L 442.784057 250.907299 
L 439.66463 250.250321 
L 433.425776 250.250321 
L 430.306349 249.593343 
L 424.067495 249.593343 
L 420.948068 248.936364 
L 417.828641 248.936364 
L 414.709214 248.279386 
L 405.350933 248.279386 
L 402.231506 247.622408 
L 399.112079 247.622408 
L 395.992652 246.965429 
L 389.753798 246.965429 
L 386.63437 246.308451 
L 383.514943 246.308451 
L 380.395516 245.651473 
L 374.156662 245.651473 
L 371.037235 244.994494 
L 364.798381 244.994494 
L 361.678954 244.337516 
L 358.559527 244.337516 
L 355.4401 243.680538 
L 352.320673 243.680538 
L 349.201246 243.023559 
L 342.962392 243.023559 
L 339.842965 242.366581 
L 333.604111 242.366581 
L 314.887549 238.424711 
L 311.768121 238.424711 
L 293.051559 234.482841 
L 289.932132 234.482841 
L 268.096143 229.883993 
L 264.976716 229.883993 
L 240.0213 224.628166 
L 236.901872 224.628166 
L 218.18531 220.686296 
L 215.065883 220.686296 
L 190.110467 215.43047 
L 186.99104 215.43047 
L 155.796769 208.860687 
L 152.677342 208.860687 
L 124.602499 202.947882 
L 121.483072 202.947882 
L 99.647083 198.349034 
L 96.527656 198.349034 
L 65.333385 191.77925 
L 62.213958 191.77925 
L 49.73625 189.151337 
L 49.73625 189.151337 
" clip-path="url(#pa20155b39e)" style="fill: none; stroke: #8c564b; stroke-width: 4"/>
   </g>
   <g id="line2d_36">
    <path d="M 49.73625 506.471867 
L 891.981551 506.471867 
" clip-path="url(#pa20155b39e)" style="fill: none; stroke: #000000; stroke-opacity: 0.5; stroke-width: 3.5"/>
   </g>
   <g id="legend_1">
    <g id="patch_3">
     <path d="M 692.106551 88.656094 
L 881.481551 88.656094 
Q 884.481551 88.656094 884.481551 85.656094 
L 884.481551 24.238125 
Q 884.481551 21.238125 881.481551 21.238125 
L 692.106551 21.238125 
Q 689.106551 21.238125 689.106551 24.238125 
L 689.106551 85.656094 
Q 689.106551 88.656094 692.106551 88.656094 
z
" style="fill: #ffffff; opacity: 0.7; stroke: #ffffff; stroke-width: 0.5; stroke-linejoin: miter"/>
    </g>
    <g id="line2d_37">
     <path d="M 696.606551 35.363906 
L 700.356551 35.363906 
L 704.106551 35.363906 
" style="fill: none; stroke: #d62728; stroke-width: 4"/>
    </g>
    <g id="text_14">
     <text style="fill: #222222; font: 15px 'Roboto', 'Arial', 'DejaVu Sans', sans-serif; text-anchor: start" x="711.606551" y="40.163906" transform="rotate(-0 711.606551 40.163906)">LULA 3</text>
    </g>
    <g id="line2d_38">
     <path d="M 696.606551 54.336562 
L 700.356551 54.336562 
L 704.106551 54.336562 
" style="fill: none; stroke: #1f77b4; stroke-width: 4"/>
    </g>
    <g id="text_15">
     <text style="fill: #222222; font: 15px 'Roboto', 'Arial', 'DejaVu Sans', sans-serif; text-anchor: start" x="711.606551" y="59.136562" transform="rotate(-0 711.606551 59.136562)">BOLSONARO</text>
    </g>
    <g id="line2d_39">
     <path d="M 696.606551 73.309219 
L 700.356551 73.309219 
L 704.106551 73.309219 
" style="fill: none; stroke: #2ca02c; stroke-width: 4"/>
    </g>
    <g id="text_16">
     <text style="fill: #222222; font: 15px 'Roboto', 'Arial', 'DejaVu Sans', sans-serif; text-anchor: start" x="711.606551" y="78.109219" transform="rotate(-0 711.606551 78.109219)">DILMA 1</text>
    </g>
    <g id="line2d_40">
     <path d="M 806.460457 35.363906 
L 810.210457 35.363906 
L 813.960457 35.363906 
" style="fill: none; stroke: #ff7f0e; stroke-width: 4"/>
    </g>
    <g id="text_17">
     <text style="fill: #222222; font: 15px 'Roboto', 'Arial', 'DejaVu Sans', sans-serif; text-anchor: start" x="821.460457" y="40.163906" transform="rotate(-0 821.460457 40.163906)">LULA 1</text>
    </g>
    <g id="line2d_41">
     <path d="M 806.460457 54.336562 
L 810.210457 54.336562 
L 813.960457 54.336562 
" style="fill: none; stroke: #9467bd; stroke-width: 4"/>
    </g>
    <g id="text_18">
     <text style="fill: #222222; font: 15px 'Roboto', 'Arial', 'DejaVu Sans', sans-serif; text-anchor: start" x="821.460457" y="59.136562" transform="rotate(-0 821.460457 59.136562)">FHC 1</text>
    </g>
    <g id="line2d_42">
     <path d="M 806.460457 73.309219 
L 810.210457 73.309219 
L 813.960457 73.309219 
" style="fill: none; stroke: #8c564b; stroke-width: 4"/>
    </g>
    <g id="text_19">
     <text style="fill: #222222; font: 15px 'Roboto', 'Arial', 'DejaVu Sans', sans-serif; text-anchor: start" x="821.460457" y="78.109219" transform="rotate(-0 821.460457 78.109219)">COLLOR</text>
    </g>
   </g>
  </g>
 </g>
 <defs>
  <clipPath id="pa20155b39e">
   <rect x="49.73625" y="13.738125" width="842.245301" height="511.194833"/>
  </clipPath>
 </defs>
</svg>
