<?xml version="1.0" encoding="utf-8" standalone="no"?>
<!DOCTYPE svg PUBLIC "-//W3C//DTD SVG 1.1//EN"
  "http://www.w3.org/Graphics/SVG/1.1/DTD/svg11.dtd">
<svg xmlns:xlink="http://www.w3.org/1999/xlink" width="886.294219pt" height="523.598125pt" viewBox="0 0 886.294219 523.598125" xmlns="http://www.w3.org/2000/svg" version="1.1">
 <metadata>
  <rdf:RDF xmlns:dc="http://purl.org/dc/elements/1.1/" xmlns:cc="http://creativecommons.org/ns#" xmlns:rdf="http://www.w3.org/1999/02/22-rdf-syntax-ns#">
   <cc:Work>
    <dc:type rdf:resource="http://purl.org/dc/dcmitype/StillImage"/>
    <dc:date>2023-10-11T13:18:40.371458</dc:date>
    <dc:format>image/svg+xml</dc:format>
    <dc:creator>
     <cc:Agent>
      <dc:title>Matplotlib v3.8.0, https://matplotlib.org/</dc:title>
     </cc:Agent>
    </dc:creator>
   </cc:Work>
  </rdf:RDF>
 </metadata>
 <defs>
  <style type="text/css">*{stroke-linejoin: round; stroke-linecap: butt}</style>
 </defs>
 <g id="figure_1">
  <g id="patch_1">
   <path d="M 0 523.598125 
L 886.294219 523.598125 
L 886.294219 0 
L 0 0 
L 0 523.598125 
z
" style="fill: none"/>
  </g>
  <g id="axes_1">
   <g id="patch_2">
    <path d="M 49.73625 510.211562 
L 865.55625 510.211562 
L 865.55625 94.671563 
L 49.73625 94.671563 
L 49.73625 510.211562 
z
" style="fill: none"/>
   </g>
   <g id="matplotlib.axis_1">
    <g id="xtick_1">
     <g id="line2d_1">
      <path d="M 49.73625 510.211562 
L 49.73625 94.671563 
" clip-path="url(#pf0dcf1b62d)" style="fill: none; stroke-dasharray: 0.7,2.1; stroke-dashoffset: 0; stroke: #000000; stroke-opacity: 0.5; stroke-width: 0.7"/>
     </g>
     <g id="line2d_2"/>
    </g>
    <g id="xtick_2">
     <g id="line2d_3">
      <path d="M 212.90025 510.211562 
L 212.90025 94.671563 
" clip-path="url(#pf0dcf1b62d)" style="fill: none; stroke-dasharray: 0.7,2.1; stroke-dashoffset: 0; stroke: #000000; stroke-opacity: 0.5; stroke-width: 0.7"/>
     </g>
     <g id="line2d_4"/>
     <g id="text_1">
      <text style="fill: #333333; font: 22px 'Roboto', 'Arial', 'DejaVu Sans', sans-serif; text-anchor: middle" x="212.90025" y="516.969375" transform="rotate(-0 212.90025 516.969375)">60 DIAS</text>
     </g>
    </g>
    <g id="xtick_3">
     <g id="line2d_5">
      <path d="M 376.06425 510.211562 
L 376.06425 94.671563 
" clip-path="url(#pf0dcf1b62d)" style="fill: none; stroke-dasharray: 0.7,2.1; stroke-dashoffset: 0; stroke: #000000; stroke-opacity: 0.5; stroke-width: 0.7"/>
     </g>
     <g id="line2d_6"/>
     <g id="text_2">
      <text style="fill: #333333; font: 22px 'Roboto', 'Arial', 'DejaVu Sans', sans-serif; text-anchor: middle" x="376.06425" y="516.969375" transform="rotate(-0 376.06425 516.969375)">120</text>
     </g>
    </g>
    <g id="xtick_4">
     <g id="line2d_7">
      <path d="M 539.22825 510.211562 
L 539.22825 94.671563 
" clip-path="url(#pf0dcf1b62d)" style="fill: none; stroke-dasharray: 0.7,2.1; stroke-dashoffset: 0; stroke: #000000; stroke-opacity: 0.5; stroke-width: 0.7"/>
     </g>
     <g id="line2d_8"/>
     <g id="text_3">
      <text style="fill: #333333; font: 22px 'Roboto', 'Arial', 'DejaVu Sans', sans-serif; text-anchor: middle" x="539.22825" y="516.969375" transform="rotate(-0 539.22825 516.969375)">180</text>
     </g>
    </g>
    <g id="xtick_5">
     <g id="line2d_9">
      <path d="M 702.39225 510.211562 
L 702.39225 94.671563 
" clip-path="url(#pf0dcf1b62d)" style="fill: none; stroke-dasharray: 0.7,2.1; stroke-dashoffset: 0; stroke: #000000; stroke-opacity: 0.5; stroke-width: 0.7"/>
     </g>
     <g id="line2d_10"/>
     <g id="text_4">
      <text style="fill: #333333; font: 22px 'Roboto', 'Arial', 'DejaVu Sans', sans-serif; text-anchor: middle" x="702.39225" y="516.969375" transform="rotate(-0 702.39225 516.969375)">240</text>
     </g>
    </g>
    <g id="xtick_6">
     <g id="line2d_11">
      <path d="M 865.55625 510.211562 
L 865.55625 94.671563 
" clip-path="url(#pf0dcf1b62d)" style="fill: none; stroke-dasharray: 0.7,2.1; stroke-dashoffset: 0; stroke: #000000; stroke-opacity: 0.5; stroke-width: 0.7"/>
     </g>
     <g id="line2d_12"/>
     <g id="text_5">
      <text style="fill: #333333; font: 22px 'Roboto', 'Arial', 'DejaVu Sans', sans-serif; text-anchor: middle" x="865.55625" y="516.969375" transform="rotate(-0 865.55625 516.969375)">300</text>
     </g>
    </g>
   </g>
   <g id="matplotlib.axis_2">
    <g id="ytick_1">
     <g id="line2d_13">
      <path d="M 49.73625 494.459902 
L 865.55625 494.459902 
" clip-path="url(#pf0dcf1b62d)" style="fill: none; stroke-dasharray: 0.7,2.1; stroke-dashoffset: 0; stroke: #000000; stroke-opacity: 0.5; stroke-width: 0.7"/>
     </g>
     <g id="text_6">
      <text style="fill: #333333; font: 24px 'Roboto', 'Arial', 'DejaVu Sans', sans-serif; text-anchor: end" x="46.73625" y="501.163027" transform="rotate(-0 46.73625 501.163027)">0  </text>
     </g>
    </g>
    <g id="ytick_2">
     <g id="line2d_14">
      <path d="M 49.73625 294.565732 
L 865.55625 294.565732 
" clip-path="url(#pf0dcf1b62d)" style="fill: none; stroke-dasharray: 0.7,2.1; stroke-dashoffset: 0; stroke: #000000; stroke-opacity: 0.5; stroke-width: 0.7"/>
     </g>
     <g id="text_7">
      <text style="fill: #333333; font: 24px 'Roboto', 'Arial', 'DejaVu Sans', sans-serif; text-anchor: end" x="46.73625" y="301.268857" transform="rotate(-0 46.73625 301.268857)">25  </text>
     </g>
    </g>
    <g id="ytick_3">
     <g id="line2d_15">
      <path d="M 49.73625 94.671563 
L 865.55625 94.671563 
" clip-path="url(#pf0dcf1b62d)" style="fill: none; stroke-dasharray: 0.7,2.1; stroke-dashoffset: 0; stroke: #000000; stroke-opacity: 0.5; stroke-width: 0.7"/>
     </g>
     <g id="text_8">
      <text style="fill: #333333; font: 24px 'Roboto', 'Arial', 'DejaVu Sans', sans-serif; text-anchor: end" x="46.73625" y="101.374688" transform="rotate(-0 46.73625 101.374688)">50%</text>
     </g>
    </g>
   </g>
   <g id="line2d_16">
    <path d="M 830.20405 251.388592 
L 827.48465 251.388592 
L 824.76525 252.188168 
L 822.04585 251.388592 
L 819.32645 251.388592 
L 816.60705 252.188168 
L 805.72945 252.188168 
L 803.01005 252.987745 
L 794.85185 252.987745 
L 792.13245 251.388592 
L 775.81605 251.388592 
L 773.09665 252.987745 
L 756.78025 252.987745 
L 754.06085 253.787322 
L 751.34145 253.787322 
L 748.62205 252.987745 
L 737.74445 252.987745 
L 732.30565 254.586898 
L 729.58625 254.586898 
L 726.86685 255.386475 
L 724.14745 255.386475 
L 718.70865 256.985628 
L 715.98925 256.985628 
L 713.26985 257.785205 
L 710.55045 257.785205 
L 707.83105 258.584782 
L 705.11165 258.584782 
L 702.39225 259.384358 
L 699.67285 259.384358 
L 696.95345 260.183935 
L 688.79525 260.183935 
L 686.07585 260.983512 
L 675.19825 260.983512 
L 672.47885 261.783088 
L 661.60125 261.783088 
L 658.88185 262.582665 
L 642.56545 262.582665 
L 639.84605 261.783088 
L 528.35065 261.783088 
L 520.19245 259.384358 
L 517.47305 257.785205 
L 509.31485 255.386475 
L 506.59545 253.787322 
L 501.15665 252.188168 
L 498.43725 252.188168 
L 495.71785 251.388592 
L 492.99845 251.388592 
L 487.55965 249.789438 
L 484.84025 249.789438 
L 479.40145 248.190285 
L 476.68205 248.190285 
L 471.24325 246.591131 
L 468.52385 246.591131 
L 465.80445 245.791555 
L 422.29405 245.791555 
L 419.57465 246.591131 
L 416.85525 246.591131 
L 414.13585 247.390708 
L 411.41645 247.390708 
L 405.97765 248.989862 
L 392.38065 248.989862 
L 389.66125 248.190285 
L 386.94185 248.989862 
L 384.22245 248.190285 
L 367.90605 248.190285 
L 365.18665 247.390708 
L 354.30905 247.390708 
L 351.58965 246.591131 
L 340.71205 246.591131 
L 337.99265 245.791555 
L 335.27325 245.791555 
L 329.83445 244.192401 
L 324.39565 244.192401 
L 321.67625 244.991978 
L 299.92105 244.991978 
L 297.20165 245.791555 
L 291.76285 245.791555 
L 289.04345 246.591131 
L 286.32405 246.591131 
L 272.72705 250.589015 
L 270.00765 252.188168 
L 245.53305 259.384358 
L 242.81365 259.384358 
L 237.37485 260.983512 
L 234.65545 260.983512 
L 223.77785 264.181818 
L 221.05845 264.181818 
L 215.61965 265.780972 
L 210.18085 265.780972 
L 204.74205 267.380125 
L 202.02265 267.380125 
L 199.30325 268.179702 
L 191.14505 268.179702 
L 188.42565 268.979278 
L 177.54805 268.979278 
L 174.82865 269.778855 
L 166.67045 269.778855 
L 163.95105 270.578432 
L 161.23165 270.578432 
L 153.07345 268.179702 
L 150.35405 268.179702 
L 147.63465 267.380125 
L 144.91525 267.380125 
L 142.19585 266.580548 
L 139.47645 266.580548 
L 136.75705 265.780972 
L 131.31825 265.780972 
L 128.59885 264.981395 
L 123.16005 266.580548 
L 120.44065 266.580548 
L 115.00185 268.179702 
L 112.28245 268.179702 
L 106.84365 269.778855 
L 104.12425 269.778855 
L 98.68545 271.378009 
L 95.96605 271.378009 
L 90.52725 272.977162 
L 87.80785 272.977162 
L 82.36905 274.576315 
L 79.64965 274.576315 
L 76.93025 275.375892 
L 74.21085 275.375892 
L 71.49145 276.175469 
L 66.05265 276.175469 
L 63.33325 275.375892 
L 60.61385 275.375892 
L 52.45565 272.977162 
L 49.73625 272.977162 
L 49.73625 272.977162 
" clip-path="url(#pf0dcf1b62d)" style="fill: none; stroke: #d62728; stroke-width: 4"/>
   </g>
   <g id="line2d_17">
    <path d="M 49.73625 494.459902 
L 865.55625 494.459902 
" clip-path="url(#pf0dcf1b62d)" style="fill: none; stroke: #000000; stroke-opacity: 0.5; stroke-width: 3.5"/>
   </g>
   <g id="line2d_18">
    <path d="M 865.55625 179.42669 
L 862.83685 181.025844 
L 857.39805 182.624997 
L 854.67865 184.224151 
L 849.23985 185.823304 
L 846.52045 187.422457 
L 841.08165 189.021611 
L 838.36225 190.620764 
L 835.64285 191.420341 
L 832.92345 193.019494 
L 827.48465 194.618647 
L 824.76525 197.017377 
L 816.60705 201.814837 
L 811.16825 203.413991 
L 808.44885 205.013144 
L 803.01005 206.612298 
L 800.29065 208.211451 
L 797.57125 209.011028 
L 794.85185 210.610181 
L 792.13245 211.409758 
L 789.41305 213.008911 
L 783.97425 214.608064 
L 781.25485 216.207218 
L 775.81605 217.806371 
L 767.65785 217.806371 
L 764.93845 215.407641 
L 751.34145 211.409758 
L 748.62205 209.810604 
L 735.02505 205.812721 
L 732.30565 204.213568 
L 721.42805 201.015261 
L 718.70865 199.416107 
L 707.83105 196.217801 
L 705.11165 197.017377 
L 702.39225 196.217801 
L 694.23405 198.616531 
L 691.51465 200.215684 
L 688.79525 202.614414 
L 677.91765 231.399175 
L 669.75945 226.601715 
L 664.32065 226.601715 
L 661.60125 227.401291 
L 645.28485 227.401291 
L 642.56545 228.200868 
L 626.24905 228.200868 
L 623.52965 230.599598 
L 615.37145 230.599598 
L 612.65205 229.800021 
L 609.93265 228.200868 
L 601.77445 228.200868 
L 599.05505 229.000445 
L 593.61625 229.000445 
L 590.89685 229.800021 
L 588.17745 229.800021 
L 585.45805 230.599598 
L 580.01925 230.599598 
L 577.29985 231.399175 
L 571.86105 231.399175 
L 569.14165 232.198751 
L 563.70285 232.198751 
L 560.98345 232.998328 
L 558.26405 232.998328 
L 555.54465 233.797905 
L 550.10585 233.797905 
L 547.38645 234.597481 
L 541.94765 234.597481 
L 536.50885 236.196635 
L 525.63125 229.800021 
L 517.47305 227.401291 
L 514.75365 227.401291 
L 506.59545 225.002561 
L 503.87605 225.002561 
L 495.71785 222.603831 
L 487.55965 227.401291 
L 484.84025 228.200868 
L 471.24325 236.196635 
L 468.52385 236.996211 
L 457.64625 243.392825 
L 454.92685 245.791555 
L 449.48805 252.188168 
L 446.76865 252.987745 
L 444.04925 254.586898 
L 441.32985 255.386475 
L 433.17165 260.183935 
L 430.45225 260.983512 
L 425.01345 264.181818 
L 422.29405 264.981395 
L 416.85525 268.179702 
L 414.13585 268.979278 
L 408.69705 272.177585 
L 405.97765 272.977162 
L 400.53885 276.175469 
L 397.81945 276.975045 
L 392.38065 280.173352 
L 389.66125 280.972929 
L 384.22245 284.171235 
L 381.50305 284.970812 
L 376.06425 288.169119 
L 370.62545 300.962346 
L 367.90605 295.365309 
L 365.18665 290.567849 
L 362.46725 288.968695 
L 359.74785 286.569965 
L 357.02845 284.970812 
L 354.30905 284.171235 
L 335.27325 284.171235 
L 332.55385 283.371659 
L 316.23745 283.371659 
L 313.51805 282.572082 
L 297.20165 282.572082 
L 291.76285 290.567849 
L 286.32405 295.365309 
L 283.60465 298.563616 
L 280.88525 300.962346 
L 278.16585 300.962346 
L 275.44645 301.761922 
L 270.00765 301.761922 
L 267.28825 302.561499 
L 261.84945 302.561499 
L 259.13005 303.361076 
L 253.69125 303.361076 
L 250.97185 304.160652 
L 245.53305 304.160652 
L 242.81365 304.960229 
L 237.37485 304.960229 
L 234.65545 305.759806 
L 229.21665 305.759806 
L 226.49725 306.559382 
L 218.33905 306.559382 
L 215.61965 307.358959 
L 210.18085 307.358959 
L 207.46145 308.158536 
L 202.02265 306.559382 
L 199.30325 310.557266 
L 188.42565 320.152186 
L 185.70625 323.350493 
L 166.67045 340.141603 
L 163.95105 343.33991 
L 155.79285 350.5361 
L 153.07345 350.5361 
L 150.35405 351.335676 
L 144.91525 351.335676 
L 142.19585 352.135253 
L 134.03765 352.135253 
L 131.31825 352.93483 
L 115.00185 352.93483 
L 112.28245 352.135253 
L 101.40485 352.135253 
L 98.68545 351.335676 
L 49.73625 351.335676 
L 49.73625 351.335676 
" clip-path="url(#pf0dcf1b62d)" style="fill: none; stroke: #1f77b4; stroke-width: 4"/>
   </g>
   <g id="line2d_19">
    <path d="M 49.73625 494.459902 
L 865.55625 494.459902 
" clip-path="url(#pf0dcf1b62d)" style="fill: none; stroke: #000000; stroke-opacity: 0.5; stroke-width: 3.5"/>
   </g>
   <g id="line2d_20">
    <path d="M 865.55625 428.095038 
L 857.39805 428.095038 
L 854.67865 427.295461 
L 846.52045 427.295461 
L 843.80105 426.495884 
L 835.64285 426.495884 
L 832.92345 425.696308 
L 822.04585 425.696308 
L 819.32645 424.896731 
L 805.72945 424.896731 
L 803.01005 424.097154 
L 794.85185 424.097154 
L 792.13245 423.297578 
L 783.97425 423.297578 
L 781.25485 422.498001 
L 770.37725 422.498001 
L 767.65785 421.698424 
L 748.62205 421.698424 
L 745.90265 420.898847 
L 743.18325 421.698424 
L 740.46385 420.898847 
L 737.74445 421.698424 
L 735.02505 421.698424 
L 732.30565 420.898847 
L 653.44305 420.898847 
L 642.56545 414.502234 
L 639.84605 413.702657 
L 631.68785 408.905197 
L 628.96845 408.905197 
L 626.24905 409.704774 
L 609.93265 409.704774 
L 607.21325 408.905197 
L 580.01925 408.905197 
L 577.29985 408.105621 
L 552.82525 408.105621 
L 550.10585 407.306044 
L 512.03425 407.306044 
L 509.31485 406.506467 
L 482.12085 406.506467 
L 479.40145 407.306044 
L 476.68205 407.306044 
L 471.24325 408.905197 
L 468.52385 408.905197 
L 463.08505 410.504351 
L 460.36565 410.504351 
L 457.64625 411.303927 
L 454.92685 411.303927 
L 449.48805 412.903081 
L 446.76865 412.903081 
L 441.32985 414.502234 
L 438.61045 414.502234 
L 433.17165 416.101387 
L 430.45225 416.101387 
L 425.01345 417.700541 
L 422.29405 417.700541 
L 416.85525 419.299694 
L 414.13585 419.299694 
L 408.69705 420.898847 
L 405.97765 420.898847 
L 400.53885 422.498001 
L 397.81945 422.498001 
L 392.38065 424.097154 
L 389.66125 424.097154 
L 384.22245 425.696308 
L 381.50305 425.696308 
L 376.06425 427.295461 
L 373.34485 427.295461 
L 367.90605 428.894614 
L 365.18665 428.894614 
L 359.74785 430.493768 
L 357.02845 430.493768 
L 348.87025 432.892498 
L 346.15085 432.892498 
L 343.43145 433.692074 
L 340.71205 433.692074 
L 335.27325 435.291228 
L 332.55385 435.291228 
L 327.11505 436.890381 
L 324.39565 436.890381 
L 318.95685 438.489534 
L 316.23745 438.489534 
L 310.79865 440.088688 
L 308.07925 440.088688 
L 302.64045 441.687841 
L 299.92105 441.687841 
L 294.48225 443.286994 
L 291.76285 443.286994 
L 286.32405 444.886148 
L 283.60465 444.886148 
L 278.16585 446.485301 
L 275.44645 446.485301 
L 272.72705 447.284878 
L 270.00765 447.284878 
L 267.28825 448.084455 
L 264.56885 446.485301 
L 261.84945 445.685725 
L 248.25245 437.689958 
L 231.93605 437.689958 
L 229.21665 436.890381 
L 210.18085 436.890381 
L 207.46145 436.090804 
L 185.70625 436.090804 
L 182.98685 435.291228 
L 166.67045 435.291228 
L 163.95105 434.491651 
L 139.47645 434.491651 
L 136.75705 433.692074 
L 112.28245 433.692074 
L 109.56305 432.892498 
L 90.52725 432.892498 
L 87.80785 432.092921 
L 74.21085 432.092921 
L 71.49145 431.293344 
L 68.77205 432.092921 
L 66.05265 431.293344 
L 49.73625 431.293344 
L 49.73625 431.293344 
" clip-path="url(#pf0dcf1b62d)" style="fill: none; stroke: #2ca02c; stroke-width: 4"/>
   </g>
   <g id="line2d_21">
    <path d="M 49.73625 494.459902 
L 865.55625 494.459902 
" clip-path="url(#pf0dcf1b62d)" style="fill: none; stroke: #000000; stroke-opacity: 0.5; stroke-width: 3.5"/>
   </g>
   <g id="line2d_22">
    <path d="M 865.55625 396.911547 
L 860.11745 396.911547 
L 857.39805 396.11197 
L 854.67865 396.11197 
L 851.95925 395.312394 
L 849.23985 395.312394 
L 846.52045 394.512817 
L 841.08165 394.512817 
L 838.36225 393.71324 
L 835.64285 393.71324 
L 832.92345 392.913664 
L 830.20405 392.913664 
L 827.48465 393.71324 
L 811.16825 393.71324 
L 808.44885 394.512817 
L 794.85185 394.512817 
L 792.13245 395.312394 
L 781.25485 395.312394 
L 778.53545 396.11197 
L 762.21905 396.11197 
L 759.49965 396.911547 
L 756.78025 396.911547 
L 754.06085 397.711124 
L 748.62205 397.711124 
L 743.18325 399.310277 
L 737.74445 399.310277 
L 735.02505 400.109854 
L 732.30565 400.109854 
L 729.58625 400.909431 
L 726.86685 400.909431 
L 724.14745 401.709007 
L 721.42805 401.709007 
L 718.70865 402.508584 
L 713.26985 402.508584 
L 710.55045 403.308161 
L 707.83105 403.308161 
L 705.11165 404.107737 
L 702.39225 404.107737 
L 699.67285 404.907314 
L 696.95345 404.907314 
L 694.23405 405.706891 
L 691.51465 405.706891 
L 688.79525 406.506467 
L 683.35645 406.506467 
L 680.63705 407.306044 
L 623.52965 407.306044 
L 620.81025 406.506467 
L 563.70285 406.506467 
L 560.98345 407.306044 
L 555.54465 407.306044 
L 552.82525 408.105621 
L 547.38645 408.105621 
L 544.66705 408.905197 
L 536.50885 408.905197 
L 533.78945 409.704774 
L 528.35065 409.704774 
L 525.63125 410.504351 
L 522.91185 410.504351 
L 512.03425 413.702657 
L 509.31485 413.702657 
L 506.59545 414.502234 
L 503.87605 414.502234 
L 498.43725 416.101387 
L 495.71785 416.101387 
L 492.99845 416.900964 
L 490.27905 416.900964 
L 484.84025 418.500117 
L 482.12085 418.500117 
L 476.68205 420.099271 
L 473.96265 420.099271 
L 471.24325 420.898847 
L 468.52385 420.898847 
L 463.08505 422.498001 
L 460.36565 422.498001 
L 457.64625 423.297578 
L 454.92685 423.297578 
L 452.20745 424.097154 
L 392.38065 424.097154 
L 389.66125 423.297578 
L 340.71205 423.297578 
L 337.99265 424.097154 
L 335.27325 424.097154 
L 332.55385 423.297578 
L 329.83445 423.297578 
L 327.11505 422.498001 
L 321.67625 424.097154 
L 318.95685 424.097154 
L 310.79865 426.495884 
L 308.07925 426.495884 
L 299.92105 428.894614 
L 297.20165 428.894614 
L 289.04345 431.293344 
L 286.32405 431.293344 
L 278.16585 433.692074 
L 275.44645 433.692074 
L 264.56885 436.890381 
L 261.84945 436.090804 
L 259.13005 436.090804 
L 256.41065 435.291228 
L 250.97185 435.291228 
L 248.25245 434.491651 
L 245.53305 434.491651 
L 242.81365 433.692074 
L 237.37485 433.692074 
L 234.65545 432.892498 
L 231.93605 432.892498 
L 229.21665 432.092921 
L 226.49725 432.092921 
L 223.77785 432.892498 
L 221.05845 432.892498 
L 212.90025 435.291228 
L 210.18085 435.291228 
L 202.02265 437.689958 
L 199.30325 437.689958 
L 193.86445 439.289111 
L 191.14505 439.289111 
L 185.70625 440.888264 
L 182.98685 440.888264 
L 174.82865 443.286994 
L 172.10925 443.286994 
L 163.95105 445.685725 
L 161.23165 445.685725 
L 155.79285 447.284878 
L 153.07345 447.284878 
L 147.63465 448.884031 
L 144.91525 448.884031 
L 136.75705 451.282761 
L 134.03765 451.282761 
L 128.59885 452.881915 
L 125.87945 452.881915 
L 115.00185 456.080221 
L 112.28245 456.080221 
L 106.84365 457.679375 
L 101.40485 456.080221 
L 98.68545 456.080221 
L 93.24665 454.481068 
L 90.52725 454.481068 
L 85.08845 452.881915 
L 82.36905 452.881915 
L 76.93025 451.282761 
L 74.21085 451.282761 
L 68.77205 449.683608 
L 66.05265 449.683608 
L 60.61385 448.084455 
L 57.89445 448.084455 
L 52.45565 446.485301 
L 49.73625 446.485301 
L 49.73625 446.485301 
" clip-path="url(#pf0dcf1b62d)" style="fill: none; stroke: #ff7f0e; stroke-width: 4"/>
   </g>
   <g id="line2d_23">
    <path d="M 49.73625 494.459902 
L 865.55625 494.459902 
" clip-path="url(#pf0dcf1b62d)" style="fill: none; stroke: #000000; stroke-opacity: 0.5; stroke-width: 3.5"/>
   </g>
   <g id="line2d_24">
    <path d="M 865.55625 374.5234 
L 813.88765 374.5234 
L 811.16825 373.723823 
L 745.90265 373.723823 
L 743.18325 372.924247 
L 735.02505 372.924247 
L 732.30565 372.12467 
L 721.42805 372.12467 
L 718.70865 371.325093 
L 707.83105 371.325093 
L 705.11165 370.525517 
L 688.79525 370.525517 
L 686.07585 371.325093 
L 680.63705 371.325093 
L 677.91765 372.12467 
L 672.47885 372.12467 
L 669.75945 372.924247 
L 658.88185 372.924247 
L 656.16245 373.723823 
L 650.72365 373.723823 
L 648.00425 374.5234 
L 642.56545 374.5234 
L 639.84605 375.322977 
L 634.40725 375.322977 
L 631.68785 376.122553 
L 626.24905 376.122553 
L 623.52965 376.92213 
L 618.09085 376.92213 
L 615.37145 377.721707 
L 609.93265 377.721707 
L 607.21325 378.521283 
L 601.77445 378.521283 
L 599.05505 379.32086 
L 596.33565 377.721707 
L 593.61625 377.721707 
L 574.58045 372.12467 
L 569.14165 372.12467 
L 566.42225 371.325093 
L 560.98345 371.325093 
L 558.26405 370.525517 
L 555.54465 370.525517 
L 552.82525 369.72594 
L 547.38645 369.72594 
L 544.66705 368.926363 
L 539.22825 368.926363 
L 536.50885 368.126787 
L 531.07005 368.126787 
L 528.35065 367.32721 
L 525.63125 367.32721 
L 522.91185 366.527633 
L 517.47305 366.527633 
L 514.75365 365.728057 
L 512.03425 365.728057 
L 509.31485 364.92848 
L 503.87605 364.92848 
L 501.15665 364.128903 
L 498.43725 364.128903 
L 495.71785 363.329327 
L 492.99845 363.329327 
L 490.27905 364.128903 
L 484.84025 364.128903 
L 482.12085 364.92848 
L 479.40145 364.92848 
L 476.68205 365.728057 
L 471.24325 365.728057 
L 468.52385 366.527633 
L 463.08505 366.527633 
L 460.36565 367.32721 
L 454.92685 367.32721 
L 452.20745 368.126787 
L 449.48805 368.126787 
L 446.76865 368.926363 
L 441.32985 368.926363 
L 438.61045 369.72594 
L 433.17165 369.72594 
L 411.41645 376.122553 
L 408.69705 375.322977 
L 365.18665 375.322977 
L 362.46725 374.5234 
L 329.83445 374.5234 
L 327.11505 373.723823 
L 308.07925 373.723823 
L 245.53305 392.114087 
L 240.09425 396.911547 
L 229.21665 400.109854 
L 226.49725 400.109854 
L 218.33905 402.508584 
L 215.61965 402.508584 
L 204.74205 405.706891 
L 202.02265 405.706891 
L 191.14505 408.905197 
L 188.42565 408.905197 
L 177.54805 412.103504 
L 174.82865 412.103504 
L 163.95105 415.301811 
L 161.23165 415.301811 
L 150.35405 418.500117 
L 147.63465 418.500117 
L 144.91525 420.099271 
L 134.03765 420.099271 
L 131.31825 419.299694 
L 85.08845 419.299694 
L 82.36905 418.500117 
L 68.77205 418.500117 
L 66.05265 417.700541 
L 49.73625 417.700541 
L 49.73625 417.700541 
" clip-path="url(#pf0dcf1b62d)" style="fill: none; stroke: #9467bd; stroke-width: 4"/>
   </g>
   <g id="line2d_25">
    <path d="M 49.73625 494.459902 
L 865.55625 494.459902 
" clip-path="url(#pf0dcf1b62d)" style="fill: none; stroke: #000000; stroke-opacity: 0.5; stroke-width: 3.5"/>
   </g>
   <g id="line2d_26">
    <path d="M 865.55625 264.181818 
L 862.83685 264.981395 
L 860.11745 264.981395 
L 857.39805 265.780972 
L 854.67865 265.780972 
L 851.95925 266.580548 
L 849.23985 266.580548 
L 846.52045 267.380125 
L 843.80105 267.380125 
L 841.08165 268.179702 
L 838.36225 268.179702 
L 835.64285 268.979278 
L 832.92345 268.979278 
L 830.20405 269.778855 
L 827.48465 269.778855 
L 824.76525 270.578432 
L 822.04585 270.578432 
L 819.32645 271.378009 
L 813.88765 271.378009 
L 811.16825 272.177585 
L 808.44885 272.177585 
L 805.72945 272.977162 
L 803.01005 272.977162 
L 800.29065 273.776739 
L 797.57125 273.776739 
L 781.25485 278.574199 
L 778.53545 280.173352 
L 764.93845 284.171235 
L 762.21905 285.770389 
L 751.34145 288.968695 
L 748.62205 290.567849 
L 732.30565 295.365309 
L 729.58625 296.964462 
L 715.98925 300.962346 
L 713.26985 302.561499 
L 696.95345 307.358959 
L 694.23405 308.958112 
L 680.63705 312.955996 
L 677.91765 314.555149 
L 664.32065 318.553033 
L 661.60125 320.152186 
L 645.28485 324.949646 
L 642.56545 326.548799 
L 628.96845 330.546683 
L 626.24905 332.145836 
L 609.93265 336.943296 
L 607.21325 338.54245 
L 590.89685 343.33991 
L 588.17745 344.939063 
L 577.29985 348.13737 
L 574.58045 349.736523 
L 558.26405 354.533983 
L 555.54465 356.133136 
L 547.38645 358.531867 
L 541.94765 358.531867 
L 539.22825 359.331443 
L 525.63125 359.331443 
L 522.91185 360.13102 
L 512.03425 360.13102 
L 509.31485 360.930597 
L 495.71785 360.930597 
L 492.99845 361.730173 
L 482.12085 361.730173 
L 479.40145 362.52975 
L 463.08505 362.52975 
L 460.36565 363.329327 
L 449.48805 363.329327 
L 446.76865 364.128903 
L 438.61045 364.128903 
L 435.89105 364.92848 
L 422.29405 364.92848 
L 419.57465 365.728057 
L 408.69705 365.728057 
L 405.97765 366.527633 
L 392.38065 366.527633 
L 389.66125 367.32721 
L 381.50305 367.32721 
L 378.78365 368.126787 
L 370.62545 368.126787 
L 367.90605 368.926363 
L 357.02845 368.926363 
L 354.30905 369.72594 
L 343.43145 369.72594 
L 340.71205 370.525517 
L 332.55385 370.525517 
L 329.83445 371.325093 
L 321.67625 371.325093 
L 318.95685 372.12467 
L 310.79865 372.12467 
L 308.07925 372.924247 
L 297.20165 372.924247 
L 294.48225 373.723823 
L 261.84945 373.723823 
L 259.13005 374.5234 
L 231.93605 374.5234 
L 229.21665 375.322977 
L 199.30325 375.322977 
L 196.58385 376.122553 
L 169.38985 376.122553 
L 166.67045 376.92213 
L 142.19585 376.92213 
L 139.47645 377.721707 
L 117.72125 377.721707 
L 115.00185 378.521283 
L 98.68545 378.521283 
L 95.96605 379.32086 
L 71.49145 379.32086 
L 68.77205 380.120437 
L 49.73625 380.120437 
L 49.73625 380.120437 
" clip-path="url(#pf0dcf1b62d)" style="fill: none; stroke: #8c564b; stroke-width: 4"/>
   </g>
   <g id="line2d_27">
    <path d="M 49.73625 494.459902 
L 865.55625 494.459902 
" clip-path="url(#pf0dcf1b62d)" style="fill: none; stroke: #000000; stroke-opacity: 0.5; stroke-width: 3.5"/>
   </g>
   <g id="text_9">
    <text style="fill: #222222; font: 30px 'Roboto', 'Arial', 'DejaVu Sans', sans-serif; text-anchor: middle" x="443.18625" y="25.011562" transform="rotate(-0 443.18625 25.011562)">Avaliação negativa dos presidentes nos primeiros 300 dias</text>
   </g>
   <g id="text_10">
    <text style="fill: #222222; font: 24px 'Roboto', 'Arial', 'DejaVu Sans', sans-serif; text-anchor: middle" x="443.18625" y="57.411562" transform="rotate(-0 443.18625 57.411562)">Lula 3 tem a segunda maior taxa de rejeição</text>
   </g>
   <g id="text_11">
    <text style="fill: #222222; font: 30px 'Roboto', 'Arial', 'DejaVu Sans', sans-serif; text-anchor: middle" x="443.18625" y="25.011562" transform="rotate(-0 443.18625 25.011562)">Avaliação negativa dos presidentes nos primeiros 300 dias</text>
   </g>
   <g id="text_12">
    <text style="fill: #222222; font: 24px 'Roboto', 'Arial', 'DejaVu Sans', sans-serif; text-anchor: middle" x="443.18625" y="57.411562" transform="rotate(-0 443.18625 57.411562)">Lula 3 tem a segunda maior taxa de rejeição</text>
   </g>
   <g id="text_13">
    <text style="fill: #222222; font: 30px 'Roboto', 'Arial', 'DejaVu Sans', sans-serif; text-anchor: middle" x="443.18625" y="25.011562" transform="rotate(-0 443.18625 25.011562)">Avaliação negativa dos presidentes nos primeiros 300 dias</text>
   </g>
   <g id="text_14">
    <text style="fill: #222222; font: 24px 'Roboto', 'Arial', 'DejaVu Sans', sans-serif; text-anchor: middle" x="443.18625" y="57.411562" transform="rotate(-0 443.18625 57.411562)">Lula 3 tem a segunda maior taxa de rejeição</text>
   </g>
   <g id="text_15">
    <text style="fill: #222222; font: 30px 'Roboto', 'Arial', 'DejaVu Sans', sans-serif; text-anchor: middle" x="443.18625" y="25.011562" transform="rotate(-0 443.18625 25.011562)">Avaliação negativa dos presidentes nos primeiros 300 dias</text>
   </g>
   <g id="text_16">
    <text style="fill: #222222; font: 24px 'Roboto', 'Arial', 'DejaVu Sans', sans-serif; text-anchor: middle" x="443.18625" y="57.411562" transform="rotate(-0 443.18625 57.411562)">Lula 3 tem a segunda maior taxa de rejeição</text>
   </g>
   <g id="text_17">
    <text style="fill: #222222; font: 30px 'Roboto', 'Arial', 'DejaVu Sans', sans-serif; text-anchor: middle" x="443.18625" y="25.011562" transform="rotate(-0 443.18625 25.011562)">Avaliação negativa dos presidentes nos primeiros 300 dias</text>
   </g>
   <g id="text_18">
    <text style="fill: #222222; font: 24px 'Roboto', 'Arial', 'DejaVu Sans', sans-serif; text-anchor: middle" x="443.18625" y="57.411562" transform="rotate(-0 443.18625 57.411562)">Lula 3 tem a segunda maior taxa de rejeição</text>
   </g>
   <g id="text_19">
    <text style="fill: #222222; font: 30px 'Roboto', 'Arial', 'DejaVu Sans', sans-serif; text-anchor: middle" x="443.18625" y="25.011562" transform="rotate(-0 443.18625 25.011562)">Avaliação negativa dos presidentes nos primeiros 300 dias</text>
   </g>
   <g id="text_20">
    <text style="fill: #222222; font: 24px 'Roboto', 'Arial', 'DejaVu Sans', sans-serif; text-anchor: middle" x="443.18625" y="57.411562" transform="rotate(-0 443.18625 57.411562)">Lula 3 tem a segunda maior taxa de rejeição</text>
   </g>
   <g id="legend_1">
    <g id="patch_3">
     <path d="M 585.717188 150.616875 
L 855.05625 150.616875 
Q 858.05625 150.616875 858.05625 147.616875 
L 858.05625 105.171563 
Q 858.05625 102.171563 855.05625 102.171563 
L 585.717188 102.171563 
Q 582.717188 102.171563 582.717188 105.171563 
L 582.717188 147.616875 
Q 582.717188 150.616875 585.717188 150.616875 
z
" style="fill: #ffffff; opacity: 0.7; stroke: #ffffff; stroke-width: 0.5; stroke-linejoin: miter"/>
    </g>
    <g id="line2d_28">
     <path d="M 590.217188 116.297344 
L 593.967188 116.297344 
L 597.717188 116.297344 
" style="fill: none; stroke: #d62728; stroke-width: 4"/>
    </g>
    <g id="text_21">
     <text style="fill: #222222; font: 15px 'Roboto', 'Arial', 'DejaVu Sans', sans-serif; text-anchor: start" x="605.217188" y="121.097344" transform="rotate(-0 605.217188 121.097344)">LULA 3</text>
    </g>
    <g id="line2d_29">
     <path d="M 590.217188 135.27 
L 593.967188 135.27 
L 597.717188 135.27 
" style="fill: none; stroke: #1f77b4; stroke-width: 4"/>
    </g>
    <g id="text_22">
     <text style="fill: #222222; font: 15px 'Roboto', 'Arial', 'DejaVu Sans', sans-serif; text-anchor: start" x="605.217188" y="140.07" transform="rotate(-0 605.217188 140.07)">BOLSONARO</text>
    </g>
    <g id="line2d_30">
     <path d="M 700.071094 116.297344 
L 703.821094 116.297344 
L 707.571094 116.297344 
" style="fill: none; stroke: #2ca02c; stroke-width: 4"/>
    </g>
    <g id="text_23">
     <text style="fill: #222222; font: 15px 'Roboto', 'Arial', 'DejaVu Sans', sans-serif; text-anchor: start" x="715.071094" y="121.097344" transform="rotate(-0 715.071094 121.097344)">DILMA 1</text>
    </g>
    <g id="line2d_31">
     <path d="M 700.071094 135.27 
L 703.821094 135.27 
L 707.571094 135.27 
" style="fill: none; stroke: #ff7f0e; stroke-width: 4"/>
    </g>
    <g id="text_24">
     <text style="fill: #222222; font: 15px 'Roboto', 'Arial', 'DejaVu Sans', sans-serif; text-anchor: start" x="715.071094" y="140.07" transform="rotate(-0 715.071094 140.07)">LULA 1</text>
    </g>
    <g id="line2d_32">
     <path d="M 780.035156 116.297344 
L 783.785156 116.297344 
L 787.535156 116.297344 
" style="fill: none; stroke: #9467bd; stroke-width: 4"/>
    </g>
    <g id="text_25">
     <text style="fill: #222222; font: 15px 'Roboto', 'Arial', 'DejaVu Sans', sans-serif; text-anchor: start" x="795.035156" y="121.097344" transform="rotate(-0 795.035156 121.097344)">FHC 1</text>
    </g>
    <g id="line2d_33">
     <path d="M 780.035156 135.27 
L 783.785156 135.27 
L 787.535156 135.27 
" style="fill: none; stroke: #8c564b; stroke-width: 4"/>
    </g>
    <g id="text_26">
     <text style="fill: #222222; font: 15px 'Roboto', 'Arial', 'DejaVu Sans', sans-serif; text-anchor: start" x="795.035156" y="140.07" transform="rotate(-0 795.035156 140.07)">COLLOR</text>
    </g>
   </g>
  </g>
 </g>
 <defs>
  <clipPath id="pf0dcf1b62d">
   <rect x="49.73625" y="94.671563" width="815.82" height="415.54"/>
  </clipPath>
 </defs>
</svg>
