<?xml version="1.0" encoding="utf-8" standalone="no"?>
<!DOCTYPE svg PUBLIC "-//W3C//DTD SVG 1.1//EN"
  "http://www.w3.org/Graphics/SVG/1.1/DTD/svg11.dtd">
<svg xmlns:xlink="http://www.w3.org/1999/xlink" width="912.71952pt" height="538.31952pt" viewBox="0 0 912.71952 538.31952" xmlns="http://www.w3.org/2000/svg" version="1.1">
 <metadata>
  <rdf:RDF xmlns:dc="http://purl.org/dc/elements/1.1/" xmlns:cc="http://creativecommons.org/ns#" xmlns:rdf="http://www.w3.org/1999/02/22-rdf-syntax-ns#">
   <cc:Work>
    <dc:type rdf:resource="http://purl.org/dc/dcmitype/StillImage"/>
    <dc:date>2023-05-11T16:32:17.176032</dc:date>
    <dc:format>image/svg+xml</dc:format>
    <dc:creator>
     <cc:Agent>
      <dc:title>Matplotlib v3.7.1, https://matplotlib.org/</dc:title>
     </cc:Agent>
    </dc:creator>
   </cc:Work>
  </rdf:RDF>
 </metadata>
 <defs>
  <style type="text/css">*{stroke-linejoin: round; stroke-linecap: butt}</style>
 </defs>
 <g id="figure_1">
  <g id="patch_1">
   <path d="M 0 538.31952 
L 912.71952 538.31952 
L 912.71952 0 
L 0 0 
L 0 538.31952 
z
" style="fill: none"/>
  </g>
  <g id="axes_1">
   <g id="patch_2">
    <path d="M 74.378125 524.932957 
L 891.981551 524.932957 
L 891.981551 13.738125 
L 74.378125 13.738125 
L 74.378125 524.932957 
z
" style="fill: none"/>
   </g>
   <g id="matplotlib.axis_1">
    <g id="xtick_1">
     <g id="line2d_1">
      <path d="M 74.378125 524.932957 
L 74.378125 13.738125 
" clip-path="url(#pb7909f7b5c)" style="fill: none; stroke-dasharray: 0.7,2.1; stroke-dashoffset: 0; stroke: #000000; stroke-opacity: 0.5; stroke-width: 0.7"/>
     </g>
     <g id="line2d_2"/>
    </g>
    <g id="xtick_2">
     <g id="line2d_3">
      <path d="M 210.645363 524.932957 
L 210.645363 13.738125 
" clip-path="url(#pb7909f7b5c)" style="fill: none; stroke-dasharray: 0.7,2.1; stroke-dashoffset: 0; stroke: #000000; stroke-opacity: 0.5; stroke-width: 0.7"/>
     </g>
     <g id="line2d_4"/>
     <g id="text_1">
      <text style="fill: #333333; font: 22px 'Roboto', 'Arial', 'DejaVu Sans', sans-serif; text-anchor: middle" x="210.645363" y="531.69077" transform="rotate(-0 210.645363 531.69077)">30 DIAS</text>
     </g>
    </g>
    <g id="xtick_3">
     <g id="line2d_5">
      <path d="M 346.9126 524.932957 
L 346.9126 13.738125 
" clip-path="url(#pb7909f7b5c)" style="fill: none; stroke-dasharray: 0.7,2.1; stroke-dashoffset: 0; stroke: #000000; stroke-opacity: 0.5; stroke-width: 0.7"/>
     </g>
     <g id="line2d_6"/>
     <g id="text_2">
      <text style="fill: #333333; font: 22px 'Roboto', 'Arial', 'DejaVu Sans', sans-serif; text-anchor: middle" x="346.9126" y="531.69077" transform="rotate(-0 346.9126 531.69077)">60</text>
     </g>
    </g>
    <g id="xtick_4">
     <g id="line2d_7">
      <path d="M 483.179838 524.932957 
L 483.179838 13.738125 
" clip-path="url(#pb7909f7b5c)" style="fill: none; stroke-dasharray: 0.7,2.1; stroke-dashoffset: 0; stroke: #000000; stroke-opacity: 0.5; stroke-width: 0.7"/>
     </g>
     <g id="line2d_8"/>
     <g id="text_3">
      <text style="fill: #333333; font: 22px 'Roboto', 'Arial', 'DejaVu Sans', sans-serif; text-anchor: middle" x="483.179838" y="531.69077" transform="rotate(-0 483.179838 531.69077)">90</text>
     </g>
    </g>
    <g id="xtick_5">
     <g id="line2d_9">
      <path d="M 619.447076 524.932957 
L 619.447076 13.738125 
" clip-path="url(#pb7909f7b5c)" style="fill: none; stroke-dasharray: 0.7,2.1; stroke-dashoffset: 0; stroke: #000000; stroke-opacity: 0.5; stroke-width: 0.7"/>
     </g>
     <g id="line2d_10"/>
     <g id="text_4">
      <text style="fill: #333333; font: 22px 'Roboto', 'Arial', 'DejaVu Sans', sans-serif; text-anchor: middle" x="619.447076" y="531.69077" transform="rotate(-0 619.447076 531.69077)">120</text>
     </g>
    </g>
    <g id="xtick_6">
     <g id="line2d_11">
      <path d="M 755.714314 524.932957 
L 755.714314 13.738125 
" clip-path="url(#pb7909f7b5c)" style="fill: none; stroke-dasharray: 0.7,2.1; stroke-dashoffset: 0; stroke: #000000; stroke-opacity: 0.5; stroke-width: 0.7"/>
     </g>
     <g id="line2d_12"/>
     <g id="text_5">
      <text style="fill: #333333; font: 22px 'Roboto', 'Arial', 'DejaVu Sans', sans-serif; text-anchor: middle" x="755.714314" y="531.69077" transform="rotate(-0 755.714314 531.69077)">150</text>
     </g>
    </g>
    <g id="xtick_7">
     <g id="line2d_13">
      <path d="M 891.981551 524.932957 
L 891.981551 13.738125 
" clip-path="url(#pb7909f7b5c)" style="fill: none; stroke-dasharray: 0.7,2.1; stroke-dashoffset: 0; stroke: #000000; stroke-opacity: 0.5; stroke-width: 0.7"/>
     </g>
     <g id="line2d_14"/>
     <g id="text_6">
      <text style="fill: #333333; font: 22px 'Roboto', 'Arial', 'DejaVu Sans', sans-serif; text-anchor: middle" x="891.981551" y="531.69077" transform="rotate(-0 891.981551 531.69077)">180</text>
     </g>
    </g>
   </g>
   <g id="matplotlib.axis_2">
    <g id="ytick_1">
     <g id="line2d_15">
      <path d="M 74.378125 505.153489 
L 891.981551 505.153489 
" clip-path="url(#pb7909f7b5c)" style="fill: none; stroke-dasharray: 0.7,2.1; stroke-dashoffset: 0; stroke: #000000; stroke-opacity: 0.5; stroke-width: 0.7"/>
     </g>
     <g id="text_7">
      <text style="fill: #333333; font: 24px 'Roboto', 'Arial', 'DejaVu Sans', sans-serif; text-anchor: end" x="71.378125" y="511.856614" transform="rotate(-0 71.378125 511.856614)">0   </text>
     </g>
    </g>
    <g id="ytick_2">
     <g id="line2d_16">
      <path d="M 74.378125 341.348368 
L 891.981551 341.348368 
" clip-path="url(#pb7909f7b5c)" style="fill: none; stroke-dasharray: 0.7,2.1; stroke-dashoffset: 0; stroke: #000000; stroke-opacity: 0.5; stroke-width: 0.7"/>
     </g>
     <g id="text_8">
      <text style="fill: #333333; font: 24px 'Roboto', 'Arial', 'DejaVu Sans', sans-serif; text-anchor: end" x="71.378125" y="348.051493" transform="rotate(-0 71.378125 348.051493)">20   </text>
     </g>
    </g>
    <g id="ytick_3">
     <g id="line2d_17">
      <path d="M 74.378125 177.543246 
L 891.981551 177.543246 
" clip-path="url(#pb7909f7b5c)" style="fill: none; stroke-dasharray: 0.7,2.1; stroke-dashoffset: 0; stroke: #000000; stroke-opacity: 0.5; stroke-width: 0.7"/>
     </g>
     <g id="text_9">
      <text style="fill: #333333; font: 24px 'Roboto', 'Arial', 'DejaVu Sans', sans-serif; text-anchor: end" x="71.378125" y="184.246371" transform="rotate(-0 71.378125 184.246371)">40   </text>
     </g>
    </g>
    <g id="ytick_4">
     <g id="line2d_18">
      <path d="M 74.378125 13.738125 
L 891.981551 13.738125 
" clip-path="url(#pb7909f7b5c)" style="fill: none; stroke-dasharray: 0.7,2.1; stroke-dashoffset: 0; stroke: #000000; stroke-opacity: 0.5; stroke-width: 0.7"/>
     </g>
     <g id="text_10">
      <text style="fill: #333333; font: 24px 'Roboto', 'Arial', 'DejaVu Sans', sans-serif; text-anchor: end" x="71.378125" y="20.44125" transform="rotate(-0 71.378125 20.44125)">60</text>
     </g>
    </g>
    <g id="text_11">
     <text style="fill: #222222; font: 600 20px 'Roboto', 'Arial', 'DejaVu Sans', sans-serif; text-anchor: middle" x="17.394375" y="269.335541" transform="rotate(-90 17.394375 269.335541)">SALDO EM PONTOS PERCENTUAIS</text>
    </g>
   </g>
   <g id="line2d_19">
    <path d="M 637.616041 442.907543 
L 633.0738 442.907543 
L 628.531558 442.907543 
L 623.989317 442.907543 
L 619.447076 442.907543 
L 614.904835 442.907543 
L 610.362593 442.907543 
L 605.820352 442.907543 
L 601.278111 437.993389 
L 596.73587 437.993389 
L 592.193628 438.812415 
L 587.651387 438.812415 
L 583.109146 438.812415 
L 578.566905 438.812415 
L 574.024663 438.812415 
L 569.482422 438.812415 
L 564.940181 438.812415 
L 560.397939 438.812415 
L 555.855698 438.812415 
L 551.313457 438.812415 
L 546.771216 439.631441 
L 542.228974 440.450466 
L 537.686733 438.812415 
L 533.144492 438.812415 
L 528.602251 437.174364 
L 524.060009 437.174364 
L 519.517768 435.536313 
L 514.975527 436.355338 
L 510.433286 437.174364 
L 505.891044 437.993389 
L 501.348803 438.812415 
L 496.806562 439.631441 
L 492.264321 440.450466 
L 487.722079 439.631441 
L 483.179838 438.812415 
L 478.637597 437.993389 
L 474.095356 437.174364 
L 469.553114 436.355338 
L 465.010873 435.536313 
L 460.468632 434.717287 
L 455.926391 433.898261 
L 451.384149 432.26021 
L 446.841908 431.441184 
L 442.299667 430.622159 
L 437.757426 429.803133 
L 433.215184 428.984108 
L 428.672943 427.346056 
L 424.130702 427.346056 
L 419.588461 425.708005 
L 415.046219 425.708005 
L 410.503978 424.069954 
L 405.961737 422.431903 
L 401.419495 422.431903 
L 396.877254 420.793852 
L 392.335013 420.793852 
L 387.792772 419.974826 
L 383.25053 419.1558 
L 378.708289 418.336775 
L 374.166048 417.517749 
L 369.623807 416.698724 
L 365.081565 416.698724 
L 360.539324 415.879698 
L 355.997083 415.879698 
L 351.454842 414.241647 
L 346.9126 413.422621 
L 342.370359 412.603596 
L 337.828118 411.78457 
L 333.285877 410.965544 
L 328.743635 409.327493 
L 324.201394 408.508467 
L 319.659153 406.870416 
L 315.116912 406.051391 
L 310.57467 406.051391 
L 306.032429 404.413339 
L 301.490188 403.594314 
L 296.947947 401.956263 
L 292.405705 401.137237 
L 287.863464 400.318211 
L 283.321223 398.68016 
L 278.778982 398.68016 
L 274.23674 397.042109 
L 269.694499 396.223083 
L 265.152258 395.404058 
L 260.610017 393.766007 
L 256.067775 393.766007 
L 251.525534 393.766007 
L 246.983293 392.946981 
L 242.441052 391.30893 
L 237.89881 391.30893 
L 233.356569 390.489904 
L 228.814328 389.670879 
L 224.272086 388.032827 
L 219.729845 387.213802 
L 215.187604 387.213802 
L 210.645363 386.394776 
L 206.103121 385.57575 
L 201.56088 384.756725 
L 197.018639 383.118674 
L 192.476398 381.480622 
L 187.934156 380.661597 
L 183.391915 379.023546 
L 178.849674 378.20452 
L 174.307433 377.385494 
L 169.765191 375.747443 
L 165.22295 374.928418 
L 160.680709 373.290366 
L 156.138468 371.652315 
L 151.596226 370.83329 
L 147.053985 369.195238 
L 142.511744 367.557187 
L 137.969503 366.738162 
L 133.427261 365.10011 
L 128.88502 364.281085 
L 124.342779 362.643034 
L 119.800538 361.004982 
L 115.258296 360.185957 
L 110.716055 356.909854 
L 106.173814 352.814726 
L 101.631573 349.538624 
L 97.089331 349.538624 
L 92.54709 348.719598 
L 88.004849 349.538624 
L 83.462608 348.719598 
L 78.920366 348.719598 
L 74.378125 347.900573 
" clip-path="url(#pb7909f7b5c)" style="fill: none; stroke: #d62728; stroke-width: 4"/>
   </g>
   <g id="line2d_20">
    <path d="M 74.378125 505.153489 
L 891.981551 505.153489 
" clip-path="url(#pb7909f7b5c)" style="fill: none; stroke: #000000; stroke-opacity: 0.5; stroke-width: 3.5"/>
   </g>
   <g id="line2d_21">
    <path d="M 891.981551 484.677849 
L 887.43931 483.039798 
L 878.354827 486.3159 
L 873.812586 487.134926 
L 869.270345 488.772977 
L 864.728104 488.772977 
L 860.185862 487.953951 
L 855.643621 487.953951 
L 846.559139 486.3159 
L 837.474656 486.3159 
L 832.932415 484.677849 
L 823.847932 484.677849 
L 805.678967 481.401746 
L 801.136726 481.401746 
L 778.42552 477.306618 
L 773.883279 477.306618 
L 755.714314 474.030516 
L 751.172072 472.392465 
L 742.08759 465.84026 
L 737.545349 464.202209 
L 733.003107 460.926106 
L 723.918625 456.011953 
L 719.376383 452.73585 
L 710.291901 447.821697 
L 705.74966 444.545594 
L 696.665177 439.631441 
L 692.122936 436.355338 
L 678.496212 428.984108 
L 673.953971 425.708005 
L 664.869488 420.793852 
L 660.327247 417.517749 
L 651.242765 412.603596 
L 646.700523 409.327493 
L 637.616041 404.413339 
L 633.0738 401.137237 
L 623.989317 396.223083 
L 619.447076 392.946981 
L 614.904835 383.118674 
L 610.362593 372.471341 
L 605.820352 384.756725 
L 601.278111 396.223083 
L 596.73587 401.956263 
L 592.193628 409.327493 
L 587.651387 415.060672 
L 583.109146 416.698724 
L 551.313457 416.698724 
L 542.228974 418.336775 
L 519.517768 418.336775 
L 514.975527 419.1558 
L 510.433286 419.1558 
L 505.891044 419.974826 
L 487.722079 419.974826 
L 474.095356 400.318211 
L 469.553114 397.861135 
L 465.010873 393.766007 
L 460.468632 391.30893 
L 446.841908 388.851853 
L 442.299667 388.851853 
L 433.215184 387.213802 
L 428.672943 387.213802 
L 424.130702 385.57575 
L 415.046219 385.57575 
L 410.503978 383.937699 
L 405.961737 383.937699 
L 392.335013 381.480622 
L 387.792772 381.480622 
L 383.25053 379.842571 
L 374.166048 379.842571 
L 369.623807 378.20452 
L 365.081565 378.20452 
L 360.539324 377.385494 
L 355.997083 377.385494 
L 351.454842 375.747443 
L 346.9126 375.747443 
L 337.828118 374.109392 
L 333.285877 372.471341 
L 328.743635 371.652315 
L 324.201394 366.738162 
L 319.659153 363.462059 
L 310.57467 358.547905 
L 306.032429 354.452777 
L 301.490188 349.538624 
L 269.694499 320.872728 
L 265.152258 315.958574 
L 251.525534 303.67319 
L 246.983293 300.397087 
L 242.441052 295.482934 
L 233.356569 288.930729 
L 228.814328 284.835601 
L 215.187604 275.007294 
L 210.645363 270.09314 
L 201.56088 263.540935 
L 197.018639 265.998012 
L 192.476398 267.636063 
L 187.934156 270.09314 
L 183.391915 271.731191 
L 178.849674 275.007294 
L 174.307433 277.46437 
L 169.765191 279.102422 
L 147.053985 291.387806 
L 142.511744 293.025857 
L 137.969503 295.482934 
L 133.427261 297.120985 
L 92.54709 297.120985 
L 88.004849 296.301959 
L 74.378125 296.301959 
L 74.378125 296.301959 
" clip-path="url(#pb7909f7b5c)" style="fill: none; stroke: #1f77b4; stroke-width: 4"/>
   </g>
   <g id="line2d_22">
    <path d="M 74.378125 505.153489 
L 891.981551 505.153489 
" clip-path="url(#pb7909f7b5c)" style="fill: none; stroke: #000000; stroke-opacity: 0.5; stroke-width: 3.5"/>
   </g>
   <g id="line2d_23">
    <path d="M 891.981551 198.018887 
L 887.43931 198.018887 
L 882.897069 197.199861 
L 846.559139 197.199861 
L 842.016897 198.018887 
L 837.474656 197.199861 
L 801.136726 197.199861 
L 719.376383 182.4574 
L 714.834142 180.819349 
L 710.291901 180.819349 
L 705.74966 179.181298 
L 701.207418 178.362272 
L 696.665177 178.362272 
L 692.122936 176.724221 
L 687.580695 175.905195 
L 683.038453 175.905195 
L 678.496212 174.267144 
L 651.242765 169.35299 
L 646.700523 167.714939 
L 642.158282 167.714939 
L 637.616041 166.895913 
L 633.0738 165.257862 
L 628.531558 165.257862 
L 623.989317 164.438837 
L 619.447076 162.800785 
L 614.904835 162.800785 
L 610.362593 161.162734 
L 605.820352 160.343709 
L 601.278111 160.343709 
L 596.73587 158.705657 
L 592.193628 157.886632 
L 587.651387 157.886632 
L 583.109146 156.248581 
L 578.566905 155.429555 
L 574.024663 153.791504 
L 569.482422 153.791504 
L 564.940181 152.153453 
L 560.397939 152.153453 
L 555.855698 151.334427 
L 551.313457 149.696376 
L 546.771216 149.696376 
L 542.228974 148.058325 
L 501.348803 140.687094 
L 496.806562 139.049043 
L 492.264321 139.049043 
L 487.722079 138.230017 
L 483.179838 136.591966 
L 478.637597 136.591966 
L 474.095356 134.953915 
L 469.553114 134.134889 
L 465.010873 134.134889 
L 460.468632 132.496838 
L 446.841908 130.039761 
L 442.299667 130.039761 
L 437.757426 128.40171 
L 433.215184 132.496838 
L 428.672943 135.77294 
L 424.130702 139.868068 
L 419.588461 144.782222 
L 405.961737 157.067606 
L 383.25053 157.067606 
L 378.708289 156.248581 
L 374.166048 157.067606 
L 342.370359 157.067606 
L 337.828118 157.886632 
L 319.659153 157.886632 
L 315.116912 157.067606 
L 301.490188 157.067606 
L 296.947947 157.886632 
L 269.694499 157.886632 
L 265.152258 158.705657 
L 242.441052 158.705657 
L 237.89881 157.886632 
L 224.272086 157.886632 
L 219.729845 158.705657 
L 183.391915 158.705657 
L 178.849674 157.886632 
L 174.307433 158.705657 
L 142.511744 158.705657 
L 137.969503 159.524683 
L 115.258296 159.524683 
L 110.716055 160.343709 
L 106.173814 158.705657 
L 101.631573 159.524683 
L 74.378125 159.524683 
L 74.378125 159.524683 
" clip-path="url(#pb7909f7b5c)" style="fill: none; stroke: #2ca02c; stroke-width: 4"/>
   </g>
   <g id="line2d_24">
    <path d="M 74.378125 505.153489 
L 891.981551 505.153489 
" clip-path="url(#pb7909f7b5c)" style="fill: none; stroke: #000000; stroke-opacity: 0.5; stroke-width: 3.5"/>
   </g>
   <g id="line2d_25">
    <path d="M 891.981551 229.960885 
L 887.43931 230.779911 
L 882.897069 229.960885 
L 878.354827 230.779911 
L 864.728104 230.779911 
L 860.185862 228.322834 
L 851.10138 225.046732 
L 846.559139 222.589655 
L 832.932415 217.675501 
L 828.390174 215.218424 
L 819.305691 211.942322 
L 814.76345 209.485245 
L 810.221209 208.666219 
L 801.136726 203.752066 
L 796.594485 202.93304 
L 787.510002 198.018887 
L 782.967761 197.199861 
L 778.42552 194.742784 
L 773.883279 193.104733 
L 769.341037 190.647656 
L 760.256555 187.371554 
L 755.714314 184.914477 
L 751.172072 184.095451 
L 746.629831 181.638374 
L 742.08759 182.4574 
L 728.460866 182.4574 
L 723.918625 183.276426 
L 714.834142 183.276426 
L 710.291901 184.095451 
L 701.207418 184.095451 
L 696.665177 184.914477 
L 683.038453 184.914477 
L 678.496212 185.733502 
L 669.41173 185.733502 
L 664.869488 186.552528 
L 651.242765 186.552528 
L 642.158282 188.190579 
L 633.0738 188.190579 
L 628.531558 189.009605 
L 619.447076 189.009605 
L 614.904835 189.82863 
L 601.278111 189.82863 
L 596.73587 190.647656 
L 587.651387 190.647656 
L 583.109146 191.466682 
L 574.024663 191.466682 
L 569.482422 192.285707 
L 560.397939 192.285707 
L 555.855698 191.466682 
L 551.313457 192.285707 
L 546.771216 194.742784 
L 542.228974 195.56181 
L 537.686733 198.018887 
L 533.144492 195.56181 
L 524.060009 192.285707 
L 510.433286 184.914477 
L 505.891044 184.095451 
L 492.264321 176.724221 
L 483.179838 173.448118 
L 474.095356 168.533965 
L 465.010873 165.257862 
L 455.926391 160.343709 
L 446.841908 157.067606 
L 433.215184 149.696376 
L 415.046219 159.524683 
L 410.503978 161.162734 
L 392.335013 170.991042 
L 387.792772 172.629093 
L 369.623807 182.4574 
L 365.081565 180.000323 
L 360.539324 179.181298 
L 355.997083 177.543246 
L 351.454842 175.08617 
L 346.9126 173.448118 
L 342.370359 172.629093 
L 337.828118 170.172016 
L 315.116912 161.98176 
L 310.57467 161.162734 
L 306.032429 158.705657 
L 301.490188 157.067606 
L 296.947947 156.248581 
L 292.405705 153.791504 
L 283.321223 150.515401 
L 278.778982 149.696376 
L 274.23674 147.239299 
L 251.525534 139.049043 
L 246.983293 138.230017 
L 242.441052 135.77294 
L 237.89881 134.134889 
L 233.356569 133.315864 
L 228.814328 130.858787 
L 219.729845 127.582684 
L 215.187604 126.763659 
L 210.645363 124.306582 
L 206.103121 122.668531 
L 201.56088 121.849505 
L 197.018639 119.392428 
L 187.934156 116.116326 
L 183.391915 113.659249 
L 178.849674 112.840223 
L 169.765191 109.564121 
L 160.680709 112.840223 
L 156.138468 113.659249 
L 147.053985 116.935351 
L 142.511744 117.754377 
L 133.427261 121.030479 
L 128.88502 121.849505 
L 119.800538 125.125608 
L 115.258296 125.944633 
L 106.173814 129.220736 
L 101.631573 130.039761 
L 92.54709 133.315864 
L 88.004849 134.134889 
L 78.920366 137.410992 
L 74.378125 138.230017 
L 74.378125 138.230017 
" clip-path="url(#pb7909f7b5c)" style="fill: none; stroke: #ff7f0e; stroke-width: 4"/>
   </g>
   <g id="line2d_26">
    <path d="M 74.378125 505.153489 
L 891.981551 505.153489 
" clip-path="url(#pb7909f7b5c)" style="fill: none; stroke: #000000; stroke-opacity: 0.5; stroke-width: 3.5"/>
   </g>
   <g id="line2d_27">
    <path d="M 891.981551 287.292678 
L 887.43931 288.111703 
L 882.897069 288.111703 
L 873.812586 289.749755 
L 869.270345 289.749755 
L 860.185862 291.387806 
L 855.643621 291.387806 
L 842.016897 293.844883 
L 837.474656 293.844883 
L 832.932415 294.663908 
L 828.390174 297.120985 
L 823.847932 297.940011 
L 819.305691 300.397087 
L 805.678967 300.397087 
L 801.136726 301.216113 
L 787.510002 301.216113 
L 782.967761 302.035139 
L 769.341037 302.035139 
L 764.798796 302.854164 
L 755.714314 302.854164 
L 751.172072 303.67319 
L 746.629831 302.854164 
L 742.08759 303.67319 
L 733.003107 303.67319 
L 728.460866 304.492215 
L 719.376383 304.492215 
L 714.834142 305.311241 
L 710.291901 304.492215 
L 705.74966 304.492215 
L 683.038453 300.397087 
L 669.41173 300.397087 
L 664.869488 299.578062 
L 660.327247 299.578062 
L 655.785006 298.759036 
L 651.242765 298.759036 
L 646.700523 297.940011 
L 637.616041 297.940011 
L 628.531558 296.301959 
L 619.447076 296.301959 
L 614.904835 295.482934 
L 610.362593 295.482934 
L 605.820352 294.663908 
L 601.278111 294.663908 
L 596.73587 295.482934 
L 592.193628 294.663908 
L 587.651387 294.663908 
L 583.109146 293.844883 
L 578.566905 293.844883 
L 574.024663 293.025857 
L 564.940181 293.025857 
L 560.397939 292.206831 
L 555.855698 292.206831 
L 551.313457 291.387806 
L 533.144492 291.387806 
L 528.602251 290.56878 
L 524.060009 290.56878 
L 519.517768 289.749755 
L 514.975527 289.749755 
L 510.433286 288.930729 
L 505.891044 288.930729 
L 501.348803 287.292678 
L 492.264321 285.654626 
L 487.722079 284.016575 
L 483.179838 283.19755 
L 478.637597 281.559498 
L 469.553114 279.921447 
L 465.010873 278.283396 
L 460.468632 277.46437 
L 455.926391 275.826319 
L 451.384149 275.007294 
L 446.841908 273.369242 
L 442.299667 272.550217 
L 437.757426 270.912166 
L 428.672943 269.274114 
L 424.130702 267.636063 
L 419.588461 266.817038 
L 415.046219 265.178986 
L 410.503978 264.359961 
L 405.961737 262.721909 
L 401.419495 261.902884 
L 396.877254 255.350679 
L 392.335013 249.6175 
L 387.792772 245.522372 
L 383.25053 242.246269 
L 374.166048 234.056013 
L 369.623807 231.598936 
L 360.539324 223.40868 
L 351.454842 216.856475 
L 346.9126 212.761347 
L 342.370359 209.485245 
L 333.285877 201.294989 
L 328.743635 198.837912 
L 315.116912 186.552528 
L 306.032429 180.000323 
L 301.490188 175.905195 
L 296.947947 172.629093 
L 287.863464 164.438837 
L 278.778982 157.886632 
L 269.694499 149.696376 
L 260.610017 143.144171 
L 251.525534 134.953915 
L 246.983293 131.677812 
L 242.441052 127.582684 
L 233.356569 121.030479 
L 228.814328 121.030479 
L 197.018639 126.763659 
L 192.476398 126.763659 
L 178.849674 129.220736 
L 174.307433 129.220736 
L 165.22295 130.858787 
L 160.680709 130.858787 
L 147.053985 133.315864 
L 142.511744 133.315864 
L 133.427261 134.953915 
L 128.88502 136.591966 
L 106.173814 140.687094 
L 101.631573 142.325145 
L 74.378125 147.239299 
L 74.378125 147.239299 
" clip-path="url(#pb7909f7b5c)" style="fill: none; stroke: #9467bd; stroke-width: 4"/>
   </g>
   <g id="line2d_28">
    <path d="M 74.378125 505.153489 
L 891.981551 505.153489 
" clip-path="url(#pb7909f7b5c)" style="fill: none; stroke: #000000; stroke-opacity: 0.5; stroke-width: 3.5"/>
   </g>
   <g id="line2d_29">
    <path d="M 891.981551 339.710317 
L 887.43931 339.710317 
L 882.897069 338.891291 
L 873.812586 338.891291 
L 864.728104 337.25324 
L 860.185862 337.25324 
L 855.643621 336.434214 
L 846.559139 336.434214 
L 842.016897 334.796163 
L 832.932415 334.796163 
L 828.390174 333.977137 
L 819.305691 333.977137 
L 814.76345 332.339086 
L 805.678967 332.339086 
L 801.136726 331.52006 
L 796.594485 331.52006 
L 787.510002 329.882009 
L 778.42552 329.882009 
L 773.883279 329.062984 
L 764.798796 329.062984 
L 760.256555 327.424932 
L 751.172072 327.424932 
L 746.629831 326.605907 
L 742.08759 326.605907 
L 733.003107 324.967856 
L 723.918625 324.967856 
L 719.376383 323.329804 
L 710.291901 323.329804 
L 705.74966 322.510779 
L 696.665177 322.510779 
L 692.122936 320.872728 
L 687.580695 320.872728 
L 683.038453 320.053702 
L 673.953971 320.053702 
L 669.41173 318.415651 
L 660.327247 318.415651 
L 655.785006 317.596625 
L 646.700523 317.596625 
L 642.158282 315.958574 
L 633.0738 315.958574 
L 623.989317 314.320523 
L 619.447076 314.320523 
L 614.904835 313.501497 
L 610.362593 313.501497 
L 605.820352 311.863446 
L 592.193628 311.863446 
L 578.566905 309.406369 
L 569.482422 309.406369 
L 555.855698 306.949292 
L 546.771216 306.949292 
L 542.228974 305.311241 
L 533.144492 305.311241 
L 519.517768 302.854164 
L 514.975527 302.854164 
L 505.891044 301.216113 
L 501.348803 301.216113 
L 496.806562 300.397087 
L 487.722079 300.397087 
L 483.179838 298.759036 
L 460.468632 294.663908 
L 455.926391 294.663908 
L 392.335013 283.19755 
L 387.792772 283.19755 
L 378.708289 281.559498 
L 374.166048 279.921447 
L 351.454842 275.826319 
L 346.9126 275.826319 
L 324.201394 271.731191 
L 319.659153 270.09314 
L 315.116912 270.09314 
L 278.778982 263.540935 
L 274.23674 263.540935 
L 269.694499 261.902884 
L 187.934156 247.160423 
L 183.391915 245.522372 
L 178.849674 245.522372 
L 156.138468 241.427244 
L 151.596226 239.789192 
L 147.053985 238.970167 
L 142.511744 238.970167 
L 110.716055 233.236988 
L 106.173814 231.598936 
L 97.089331 229.960885 
L 92.54709 229.960885 
L 74.378125 226.684783 
L 74.378125 226.684783 
" clip-path="url(#pb7909f7b5c)" style="fill: none; stroke: #8c564b; stroke-width: 4"/>
   </g>
   <g id="line2d_30">
    <path d="M 74.378125 505.153489 
L 891.981551 505.153489 
" clip-path="url(#pb7909f7b5c)" style="fill: none; stroke: #000000; stroke-opacity: 0.5; stroke-width: 3.5"/>
   </g>
   <g id="legend_1">
    <g id="patch_3">
     <path d="M 612.142489 69.683437 
L 881.481551 69.683437 
Q 884.481551 69.683437 884.481551 66.683437 
L 884.481551 24.238125 
Q 884.481551 21.238125 881.481551 21.238125 
L 612.142489 21.238125 
Q 609.142489 21.238125 609.142489 24.238125 
L 609.142489 66.683437 
Q 609.142489 69.683437 612.142489 69.683437 
z
" style="fill: #ffffff; opacity: 0.7; stroke: #ffffff; stroke-width: 0.5; stroke-linejoin: miter"/>
    </g>
    <g id="line2d_31">
     <path d="M 616.642489 35.363906 
L 620.392489 35.363906 
L 624.142489 35.363906 
" style="fill: none; stroke: #d62728; stroke-width: 4"/>
    </g>
    <g id="text_12">
     <text style="fill: #222222; font: 15px 'Roboto', 'Arial', 'DejaVu Sans', sans-serif; text-anchor: start" x="631.642489" y="40.163906" transform="rotate(-0 631.642489 40.163906)">LULA 3</text>
    </g>
    <g id="line2d_32">
     <path d="M 616.642489 54.336562 
L 620.392489 54.336562 
L 624.142489 54.336562 
" style="fill: none; stroke: #1f77b4; stroke-width: 4"/>
    </g>
    <g id="text_13">
     <text style="fill: #222222; font: 15px 'Roboto', 'Arial', 'DejaVu Sans', sans-serif; text-anchor: start" x="631.642489" y="59.136562" transform="rotate(-0 631.642489 59.136562)">BOLSONARO</text>
    </g>
    <g id="line2d_33">
     <path d="M 726.496395 35.363906 
L 730.246395 35.363906 
L 733.996395 35.363906 
" style="fill: none; stroke: #2ca02c; stroke-width: 4"/>
    </g>
    <g id="text_14">
     <text style="fill: #222222; font: 15px 'Roboto', 'Arial', 'DejaVu Sans', sans-serif; text-anchor: start" x="741.496395" y="40.163906" transform="rotate(-0 741.496395 40.163906)">DILMA 1</text>
    </g>
    <g id="line2d_34">
     <path d="M 726.496395 54.336562 
L 730.246395 54.336562 
L 733.996395 54.336562 
" style="fill: none; stroke: #ff7f0e; stroke-width: 4"/>
    </g>
    <g id="text_15">
     <text style="fill: #222222; font: 15px 'Roboto', 'Arial', 'DejaVu Sans', sans-serif; text-anchor: start" x="741.496395" y="59.136562" transform="rotate(-0 741.496395 59.136562)">LULA 1</text>
    </g>
    <g id="line2d_35">
     <path d="M 806.460457 35.363906 
L 810.210457 35.363906 
L 813.960457 35.363906 
" style="fill: none; stroke: #9467bd; stroke-width: 4"/>
    </g>
    <g id="text_16">
     <text style="fill: #222222; font: 15px 'Roboto', 'Arial', 'DejaVu Sans', sans-serif; text-anchor: start" x="821.460457" y="40.163906" transform="rotate(-0 821.460457 40.163906)">FHC 1</text>
    </g>
    <g id="line2d_36">
     <path d="M 806.460457 54.336562 
L 810.210457 54.336562 
L 813.960457 54.336562 
" style="fill: none; stroke: #8c564b; stroke-width: 4"/>
    </g>
    <g id="text_17">
     <text style="fill: #222222; font: 15px 'Roboto', 'Arial', 'DejaVu Sans', sans-serif; text-anchor: start" x="821.460457" y="59.136562" transform="rotate(-0 821.460457 59.136562)">COLLOR</text>
    </g>
   </g>
  </g>
 </g>
 <defs>
  <clipPath id="pb7909f7b5c">
   <rect x="74.378125" y="13.738125" width="817.603426" height="511.194832"/>
  </clipPath>
 </defs>
</svg>
