<?xml version="1.0" encoding="utf-8" standalone="no"?>
<!DOCTYPE svg PUBLIC "-//W3C//DTD SVG 1.1//EN"
  "http://www.w3.org/Graphics/SVG/1.1/DTD/svg11.dtd">
<svg xmlns:xlink="http://www.w3.org/1999/xlink" width="886.294219pt" height="523.598125pt" viewBox="0 0 886.294219 523.598125" xmlns="http://www.w3.org/2000/svg" version="1.1">
 <metadata>
  <rdf:RDF xmlns:dc="http://purl.org/dc/elements/1.1/" xmlns:cc="http://creativecommons.org/ns#" xmlns:rdf="http://www.w3.org/1999/02/22-rdf-syntax-ns#">
   <cc:Work>
    <dc:type rdf:resource="http://purl.org/dc/dcmitype/StillImage"/>
    <dc:date>2023-10-11T13:18:33.555120</dc:date>
    <dc:format>image/svg+xml</dc:format>
    <dc:creator>
     <cc:Agent>
      <dc:title>Matplotlib v3.8.0, https://matplotlib.org/</dc:title>
     </cc:Agent>
    </dc:creator>
   </cc:Work>
  </rdf:RDF>
 </metadata>
 <defs>
  <style type="text/css">*{stroke-linejoin: round; stroke-linecap: butt}</style>
 </defs>
 <g id="figure_1">
  <g id="patch_1">
   <path d="M 0 523.598125 
L 886.294219 523.598125 
L 886.294219 0 
L 0 0 
L 0 523.598125 
z
" style="fill: none"/>
  </g>
  <g id="axes_1">
   <g id="patch_2">
    <path d="M 49.73625 510.211562 
L 865.55625 510.211562 
L 865.55625 94.671563 
L 49.73625 94.671563 
L 49.73625 510.211562 
z
" style="fill: none"/>
   </g>
   <g id="matplotlib.axis_1">
    <g id="xtick_1">
     <g id="line2d_1">
      <path d="M 49.73625 510.211562 
L 49.73625 94.671563 
" clip-path="url(#p94a958c9c2)" style="fill: none; stroke-dasharray: 0.7,2.1; stroke-dashoffset: 0; stroke: #000000; stroke-opacity: 0.5; stroke-width: 0.7"/>
     </g>
     <g id="line2d_2"/>
    </g>
    <g id="xtick_2">
     <g id="line2d_3">
      <path d="M 212.90025 510.211562 
L 212.90025 94.671563 
" clip-path="url(#p94a958c9c2)" style="fill: none; stroke-dasharray: 0.7,2.1; stroke-dashoffset: 0; stroke: #000000; stroke-opacity: 0.5; stroke-width: 0.7"/>
     </g>
     <g id="line2d_4"/>
     <g id="text_1">
      <text style="fill: #333333; font: 22px 'Roboto', 'Arial', 'DejaVu Sans', sans-serif; text-anchor: middle" x="212.90025" y="516.969375" transform="rotate(-0 212.90025 516.969375)">60 DIAS</text>
     </g>
    </g>
    <g id="xtick_3">
     <g id="line2d_5">
      <path d="M 376.06425 510.211562 
L 376.06425 94.671563 
" clip-path="url(#p94a958c9c2)" style="fill: none; stroke-dasharray: 0.7,2.1; stroke-dashoffset: 0; stroke: #000000; stroke-opacity: 0.5; stroke-width: 0.7"/>
     </g>
     <g id="line2d_6"/>
     <g id="text_2">
      <text style="fill: #333333; font: 22px 'Roboto', 'Arial', 'DejaVu Sans', sans-serif; text-anchor: middle" x="376.06425" y="516.969375" transform="rotate(-0 376.06425 516.969375)">120</text>
     </g>
    </g>
    <g id="xtick_4">
     <g id="line2d_7">
      <path d="M 539.22825 510.211562 
L 539.22825 94.671563 
" clip-path="url(#p94a958c9c2)" style="fill: none; stroke-dasharray: 0.7,2.1; stroke-dashoffset: 0; stroke: #000000; stroke-opacity: 0.5; stroke-width: 0.7"/>
     </g>
     <g id="line2d_8"/>
     <g id="text_3">
      <text style="fill: #333333; font: 22px 'Roboto', 'Arial', 'DejaVu Sans', sans-serif; text-anchor: middle" x="539.22825" y="516.969375" transform="rotate(-0 539.22825 516.969375)">180</text>
     </g>
    </g>
    <g id="xtick_5">
     <g id="line2d_9">
      <path d="M 702.39225 510.211562 
L 702.39225 94.671563 
" clip-path="url(#p94a958c9c2)" style="fill: none; stroke-dasharray: 0.7,2.1; stroke-dashoffset: 0; stroke: #000000; stroke-opacity: 0.5; stroke-width: 0.7"/>
     </g>
     <g id="line2d_10"/>
     <g id="text_4">
      <text style="fill: #333333; font: 22px 'Roboto', 'Arial', 'DejaVu Sans', sans-serif; text-anchor: middle" x="702.39225" y="516.969375" transform="rotate(-0 702.39225 516.969375)">240</text>
     </g>
    </g>
    <g id="xtick_6">
     <g id="line2d_11">
      <path d="M 865.55625 510.211562 
L 865.55625 94.671563 
" clip-path="url(#p94a958c9c2)" style="fill: none; stroke-dasharray: 0.7,2.1; stroke-dashoffset: 0; stroke: #000000; stroke-opacity: 0.5; stroke-width: 0.7"/>
     </g>
     <g id="line2d_12"/>
     <g id="text_5">
      <text style="fill: #333333; font: 22px 'Roboto', 'Arial', 'DejaVu Sans', sans-serif; text-anchor: middle" x="865.55625" y="516.969375" transform="rotate(-0 865.55625 516.969375)">300</text>
     </g>
    </g>
   </g>
   <g id="matplotlib.axis_2">
    <g id="ytick_1">
     <g id="line2d_13">
      <path d="M 49.73625 495.204913 
L 865.55625 495.204913 
" clip-path="url(#p94a958c9c2)" style="fill: none; stroke-dasharray: 0.7,2.1; stroke-dashoffset: 0; stroke: #000000; stroke-opacity: 0.5; stroke-width: 0.7"/>
     </g>
     <g id="text_6">
      <text style="fill: #333333; font: 24px 'Roboto', 'Arial', 'DejaVu Sans', sans-serif; text-anchor: end" x="46.73625" y="501.908038" transform="rotate(-0 46.73625 501.908038)">0  </text>
     </g>
    </g>
    <g id="ytick_2">
     <g id="line2d_14">
      <path d="M 49.73625 361.693796 
L 865.55625 361.693796 
" clip-path="url(#p94a958c9c2)" style="fill: none; stroke-dasharray: 0.7,2.1; stroke-dashoffset: 0; stroke: #000000; stroke-opacity: 0.5; stroke-width: 0.7"/>
     </g>
     <g id="text_7">
      <text style="fill: #333333; font: 24px 'Roboto', 'Arial', 'DejaVu Sans', sans-serif; text-anchor: end" x="46.73625" y="368.396921" transform="rotate(-0 46.73625 368.396921)">25  </text>
     </g>
    </g>
    <g id="ytick_3">
     <g id="line2d_15">
      <path d="M 49.73625 228.182679 
L 865.55625 228.182679 
" clip-path="url(#p94a958c9c2)" style="fill: none; stroke-dasharray: 0.7,2.1; stroke-dashoffset: 0; stroke: #000000; stroke-opacity: 0.5; stroke-width: 0.7"/>
     </g>
     <g id="text_8">
      <text style="fill: #333333; font: 24px 'Roboto', 'Arial', 'DejaVu Sans', sans-serif; text-anchor: end" x="46.73625" y="234.885804" transform="rotate(-0 46.73625 234.885804)">50  </text>
     </g>
    </g>
    <g id="ytick_4">
     <g id="line2d_16">
      <path d="M 49.73625 94.671563 
L 865.55625 94.671563 
" clip-path="url(#p94a958c9c2)" style="fill: none; stroke-dasharray: 0.7,2.1; stroke-dashoffset: 0; stroke: #000000; stroke-opacity: 0.5; stroke-width: 0.7"/>
     </g>
     <g id="text_9">
      <text style="fill: #333333; font: 24px 'Roboto', 'Arial', 'DejaVu Sans', sans-serif; text-anchor: end" x="46.73625" y="101.374688" transform="rotate(-0 46.73625 101.374688)">75%</text>
     </g>
    </g>
   </g>
   <g id="line2d_17">
    <path d="M 830.20405 282.655215 
L 827.48465 283.189259 
L 824.76525 283.189259 
L 822.04585 282.655215 
L 819.32645 283.189259 
L 786.69365 283.189259 
L 781.25485 282.121171 
L 773.09665 282.121171 
L 770.37725 282.655215 
L 764.93845 282.655215 
L 762.21905 282.121171 
L 759.49965 281.053082 
L 754.06085 279.984993 
L 751.34145 279.984993 
L 748.62205 280.519037 
L 743.18325 280.519037 
L 740.46385 281.053082 
L 737.74445 280.519037 
L 732.30565 280.519037 
L 729.58625 279.984993 
L 721.42805 279.984993 
L 718.70865 279.450948 
L 715.98925 279.450948 
L 713.26985 278.916904 
L 710.55045 277.848815 
L 699.67285 275.712637 
L 677.91765 275.712637 
L 675.19825 275.178592 
L 664.32065 275.178592 
L 661.60125 274.644548 
L 653.44305 274.644548 
L 648.00425 275.712637 
L 645.28485 275.712637 
L 642.56545 276.246681 
L 639.84605 276.246681 
L 637.12665 276.780726 
L 634.40725 276.780726 
L 631.68785 277.31477 
L 628.96845 277.31477 
L 626.24905 277.848815 
L 623.52965 277.848815 
L 618.09085 278.916904 
L 615.37145 278.916904 
L 612.65205 279.450948 
L 609.93265 279.450948 
L 607.21325 279.984993 
L 604.49385 279.984993 
L 601.77445 280.519037 
L 599.05505 280.519037 
L 593.61625 281.587126 
L 590.89685 281.587126 
L 588.17745 282.121171 
L 585.45805 282.121171 
L 582.73865 282.655215 
L 580.01925 282.655215 
L 577.29985 283.189259 
L 571.86105 283.189259 
L 569.14165 283.723304 
L 566.42225 283.189259 
L 550.10585 283.189259 
L 547.38645 283.723304 
L 544.66705 283.723304 
L 539.22825 284.791393 
L 536.50885 284.791393 
L 533.78945 285.325437 
L 531.07005 285.325437 
L 528.35065 285.859482 
L 525.63125 286.927571 
L 520.19245 287.99566 
L 517.47305 289.063749 
L 512.03425 290.131838 
L 509.31485 291.199926 
L 506.59545 291.733971 
L 503.87605 292.80206 
L 498.43725 293.870149 
L 495.71785 294.938238 
L 492.99845 295.472282 
L 490.27905 295.472282 
L 487.55965 296.006327 
L 479.40145 296.006327 
L 476.68205 296.540371 
L 468.52385 296.540371 
L 465.80445 297.074416 
L 460.36565 296.006327 
L 457.64625 296.006327 
L 454.92685 295.472282 
L 452.20745 295.472282 
L 446.76865 294.404193 
L 444.04925 294.404193 
L 438.61045 293.336104 
L 435.89105 293.336104 
L 430.45225 292.268015 
L 427.73285 292.268015 
L 422.29405 291.199926 
L 419.57465 291.199926 
L 405.97765 288.529704 
L 400.53885 288.529704 
L 397.81945 289.063749 
L 373.34485 289.063749 
L 370.62545 288.529704 
L 337.99265 288.529704 
L 335.27325 287.99566 
L 332.55385 288.529704 
L 327.11505 288.529704 
L 324.39565 287.99566 
L 321.67625 287.99566 
L 316.23745 286.927571 
L 313.51805 287.99566 
L 299.92105 290.665882 
L 297.20165 290.665882 
L 294.48225 291.199926 
L 286.32405 291.199926 
L 280.88525 290.131838 
L 278.16585 289.063749 
L 272.72705 287.99566 
L 270.00765 286.927571 
L 267.28825 286.393526 
L 264.56885 285.325437 
L 259.13005 284.257348 
L 256.41065 283.189259 
L 253.69125 282.655215 
L 250.97185 281.587126 
L 248.25245 281.587126 
L 242.81365 280.519037 
L 240.09425 280.519037 
L 237.37485 279.984993 
L 231.93605 279.984993 
L 229.21665 279.450948 
L 223.77785 279.450948 
L 221.05845 278.916904 
L 218.33905 278.916904 
L 204.74205 276.246681 
L 202.02265 276.246681 
L 196.58385 275.178592 
L 193.86445 275.178592 
L 191.14505 274.644548 
L 188.42565 274.644548 
L 185.70625 274.110504 
L 180.26745 274.110504 
L 177.54805 273.576459 
L 174.82865 273.576459 
L 172.10925 273.042415 
L 166.67045 273.042415 
L 163.95105 272.50837 
L 161.23165 272.50837 
L 150.35405 270.372192 
L 147.63465 269.304103 
L 142.19585 268.236014 
L 139.47645 267.167925 
L 136.75705 267.167925 
L 123.16005 264.497703 
L 120.44065 264.497703 
L 104.12425 261.293436 
L 101.40485 261.293436 
L 85.08845 258.089169 
L 82.36905 258.089169 
L 74.21085 256.487036 
L 66.05265 248.476369 
L 49.73625 245.272102 
L 49.73625 245.272102 
" clip-path="url(#p94a958c9c2)" style="fill: none; stroke: #d62728; stroke-width: 4"/>
   </g>
   <g id="line2d_18">
    <path d="M 49.73625 495.204913 
L 865.55625 495.204913 
" clip-path="url(#p94a958c9c2)" style="fill: none; stroke: #000000; stroke-opacity: 0.5; stroke-width: 3.5"/>
   </g>
   <g id="line2d_19">
    <path d="M 865.55625 325.378772 
L 827.48465 317.90215 
L 824.76525 317.90215 
L 822.04585 316.834061 
L 803.01005 313.09575 
L 800.29065 312.027661 
L 794.85185 310.959572 
L 792.13245 309.891483 
L 783.97425 308.289349 
L 781.25485 307.22126 
L 778.53545 306.687216 
L 775.81605 305.619127 
L 770.37725 302.41486 
L 767.65785 301.346771 
L 764.93845 304.016994 
L 762.21905 304.551038 
L 756.78025 306.687216 
L 754.06085 307.22126 
L 748.62205 309.357438 
L 745.90265 309.891483 
L 740.46385 312.027661 
L 737.74445 312.561705 
L 732.30565 314.697883 
L 729.58625 315.231927 
L 724.14745 317.368105 
L 721.42805 317.90215 
L 715.98925 320.038328 
L 713.26985 320.572372 
L 707.83105 322.70855 
L 705.11165 322.174506 
L 702.39225 323.776639 
L 699.67285 324.844728 
L 694.23405 325.912817 
L 691.51465 326.980906 
L 688.79525 325.912817 
L 686.07585 323.242595 
L 683.35645 321.106417 
L 677.91765 315.765972 
L 672.47885 318.970239 
L 669.75945 320.038328 
L 664.32065 318.970239 
L 661.60125 317.90215 
L 658.88185 317.368105 
L 656.16245 316.300016 
L 650.72365 315.231927 
L 648.00425 314.163839 
L 642.56545 313.09575 
L 639.84605 312.027661 
L 634.40725 310.959572 
L 631.68785 309.891483 
L 626.24905 308.823394 
L 623.52965 307.22126 
L 609.93265 304.551038 
L 604.49385 302.41486 
L 601.77445 302.41486 
L 599.05505 302.948905 
L 596.33565 302.948905 
L 593.61625 303.482949 
L 590.89685 303.482949 
L 588.17745 304.016994 
L 585.45805 304.016994 
L 582.73865 304.551038 
L 580.01925 304.551038 
L 577.29985 305.085083 
L 574.58045 305.085083 
L 571.86105 305.619127 
L 569.14165 305.619127 
L 566.42225 306.153172 
L 563.70285 306.153172 
L 560.98345 306.687216 
L 558.26405 306.687216 
L 555.54465 307.22126 
L 552.82525 307.22126 
L 550.10585 307.755305 
L 547.38645 307.755305 
L 544.66705 308.289349 
L 541.94765 308.289349 
L 539.22825 308.823394 
L 536.50885 308.289349 
L 531.07005 308.289349 
L 528.35065 307.755305 
L 525.63125 307.755305 
L 522.91185 307.22126 
L 520.19245 306.153172 
L 514.75365 305.085083 
L 512.03425 304.016994 
L 506.59545 302.948905 
L 503.87605 301.880816 
L 498.43725 300.812727 
L 495.71785 299.744638 
L 454.92685 307.755305 
L 449.48805 307.755305 
L 446.76865 307.22126 
L 441.32985 305.085083 
L 438.61045 304.551038 
L 435.89105 303.482949 
L 433.17165 302.948905 
L 427.73285 300.812727 
L 425.01345 300.278682 
L 419.57465 298.142505 
L 416.85525 297.60846 
L 414.13585 296.540371 
L 411.41645 296.006327 
L 405.97765 293.870149 
L 403.25825 293.336104 
L 397.81945 291.199926 
L 395.10005 290.665882 
L 389.66125 288.529704 
L 386.94185 287.99566 
L 381.50305 285.859482 
L 378.78365 285.325437 
L 376.06425 284.257348 
L 373.34485 282.121171 
L 370.62545 279.450948 
L 365.18665 287.99566 
L 362.46725 290.665882 
L 359.74785 293.870149 
L 357.02845 296.540371 
L 354.30905 297.074416 
L 332.55385 297.074416 
L 329.83445 297.60846 
L 310.79865 297.60846 
L 308.07925 298.142505 
L 297.20165 298.142505 
L 291.76285 294.938238 
L 289.04345 292.268015 
L 286.32405 292.268015 
L 283.60465 291.733971 
L 280.88525 291.733971 
L 278.16585 291.199926 
L 275.44645 291.199926 
L 272.72705 290.665882 
L 267.28825 290.665882 
L 264.56885 290.131838 
L 261.84945 290.131838 
L 259.13005 289.597793 
L 253.69125 289.597793 
L 250.97185 289.063749 
L 248.25245 289.063749 
L 245.53305 288.529704 
L 242.81365 288.529704 
L 240.09425 287.99566 
L 237.37485 287.99566 
L 234.65545 287.461615 
L 229.21665 287.461615 
L 226.49725 286.927571 
L 223.77785 286.927571 
L 221.05845 286.393526 
L 218.33905 286.393526 
L 215.61965 285.859482 
L 212.90025 285.859482 
L 210.18085 285.325437 
L 207.46145 285.325437 
L 204.74205 283.723304 
L 202.02265 282.655215 
L 196.58385 281.587126 
L 191.14505 281.587126 
L 155.79285 267.70197 
L 153.07345 265.565792 
L 150.35405 262.89557 
L 134.03765 250.078502 
L 131.31825 247.40828 
L 125.87945 243.135924 
L 123.16005 244.738058 
L 120.44065 245.806147 
L 117.72125 247.40828 
L 115.00185 248.476369 
L 109.56305 251.680636 
L 106.84365 252.748725 
L 101.40485 255.952992 
L 98.68545 257.021081 
L 93.24665 260.225347 
L 90.52725 261.293436 
L 87.80785 262.89557 
L 85.08845 263.963659 
L 60.61385 263.963659 
L 57.89445 263.429614 
L 49.73625 263.429614 
L 49.73625 263.429614 
" clip-path="url(#p94a958c9c2)" style="fill: none; stroke: #1f77b4; stroke-width: 4"/>
   </g>
   <g id="line2d_20">
    <path d="M 49.73625 495.204913 
L 865.55625 495.204913 
" clip-path="url(#p94a958c9c2)" style="fill: none; stroke: #000000; stroke-opacity: 0.5; stroke-width: 3.5"/>
   </g>
   <g id="line2d_21">
    <path d="M 865.55625 211.093256 
L 860.11745 212.161345 
L 857.39805 212.161345 
L 851.95925 213.229434 
L 849.23985 213.229434 
L 846.52045 213.763479 
L 843.80105 213.763479 
L 838.36225 214.831568 
L 835.64285 214.831568 
L 832.92345 215.365612 
L 830.20405 215.365612 
L 827.48465 215.899657 
L 824.76525 215.899657 
L 819.32645 216.967746 
L 816.60705 216.967746 
L 811.16825 218.035834 
L 808.44885 218.035834 
L 803.01005 219.103923 
L 800.29065 219.103923 
L 797.57125 219.637968 
L 794.85185 219.637968 
L 789.41305 220.706057 
L 786.69365 220.706057 
L 783.97425 221.240101 
L 781.25485 221.240101 
L 775.81605 222.30819 
L 773.09665 222.30819 
L 767.65785 223.376279 
L 764.93845 223.376279 
L 762.21905 223.910324 
L 759.49965 223.910324 
L 756.78025 224.444368 
L 745.90265 224.444368 
L 743.18325 224.978413 
L 729.58625 224.978413 
L 726.86685 225.512457 
L 713.26985 225.512457 
L 710.55045 226.046501 
L 696.95345 226.046501 
L 694.23405 226.580546 
L 683.35645 226.580546 
L 680.63705 227.11459 
L 664.32065 227.11459 
L 661.60125 227.648635 
L 653.44305 227.648635 
L 631.68785 236.193346 
L 628.96845 236.193346 
L 620.81025 237.79548 
L 604.49385 237.79548 
L 601.77445 237.261435 
L 566.42225 237.261435 
L 563.70285 236.727391 
L 536.50885 236.727391 
L 533.78945 236.193346 
L 509.31485 236.193346 
L 506.59545 235.659302 
L 484.84025 235.659302 
L 482.12085 235.125257 
L 479.40145 235.125257 
L 476.68205 234.591213 
L 471.24325 234.591213 
L 468.52385 234.057168 
L 463.08505 234.057168 
L 460.36565 233.523124 
L 457.64625 233.523124 
L 454.92685 232.98908 
L 449.48805 232.98908 
L 446.76865 232.455035 
L 441.32985 232.455035 
L 438.61045 231.920991 
L 435.89105 231.920991 
L 433.17165 231.386946 
L 430.45225 231.386946 
L 427.73285 230.852902 
L 422.29405 230.852902 
L 419.57465 230.318857 
L 414.13585 230.318857 
L 411.41645 229.784813 
L 408.69705 229.784813 
L 405.97765 229.250768 
L 400.53885 229.250768 
L 397.81945 228.716724 
L 395.10005 228.716724 
L 392.38065 228.182679 
L 386.94185 228.182679 
L 384.22245 227.648635 
L 378.78365 227.648635 
L 376.06425 227.11459 
L 373.34485 227.11459 
L 370.62545 226.580546 
L 365.18665 226.580546 
L 362.46725 226.046501 
L 357.02845 226.046501 
L 354.30905 225.512457 
L 351.58965 225.512457 
L 348.87025 224.978413 
L 346.15085 224.978413 
L 343.43145 224.444368 
L 337.99265 224.444368 
L 335.27325 223.910324 
L 332.55385 223.910324 
L 329.83445 223.376279 
L 327.11505 223.376279 
L 324.39565 222.842235 
L 318.95685 222.842235 
L 316.23745 222.30819 
L 310.79865 222.30819 
L 308.07925 221.774146 
L 305.35985 221.774146 
L 302.64045 221.240101 
L 297.20165 221.240101 
L 294.48225 220.706057 
L 291.76285 220.706057 
L 289.04345 220.172012 
L 283.60465 220.172012 
L 280.88525 219.637968 
L 278.16585 219.637968 
L 275.44645 219.103923 
L 270.00765 219.103923 
L 267.28825 218.569879 
L 259.13005 223.376279 
L 256.41065 225.512457 
L 248.25245 230.318857 
L 234.65545 230.318857 
L 231.93605 229.784813 
L 196.58385 229.784813 
L 193.86445 229.250768 
L 150.35405 229.250768 
L 147.63465 228.716724 
L 115.00185 228.716724 
L 112.28245 228.182679 
L 71.49145 228.182679 
L 68.77205 227.648635 
L 49.73625 227.648635 
L 49.73625 227.648635 
" clip-path="url(#p94a958c9c2)" style="fill: none; stroke: #2ca02c; stroke-width: 4"/>
   </g>
   <g id="line2d_22">
    <path d="M 49.73625 495.204913 
L 865.55625 495.204913 
" clip-path="url(#p94a958c9c2)" style="fill: none; stroke: #000000; stroke-opacity: 0.5; stroke-width: 3.5"/>
   </g>
   <g id="line2d_23">
    <path d="M 865.55625 272.50837 
L 860.11745 272.50837 
L 857.39805 273.042415 
L 849.23985 273.042415 
L 846.52045 273.576459 
L 843.80105 273.576459 
L 841.08165 274.110504 
L 830.20405 274.110504 
L 813.88765 270.906237 
L 811.16825 270.906237 
L 789.41305 266.633881 
L 786.69365 266.633881 
L 770.37725 263.429614 
L 767.65785 263.429614 
L 759.49965 261.827481 
L 756.78025 261.827481 
L 748.62205 260.225347 
L 745.90265 260.225347 
L 743.18325 259.691303 
L 740.46385 259.691303 
L 735.02505 258.623214 
L 732.30565 258.623214 
L 726.86685 257.555125 
L 724.14745 257.555125 
L 721.42805 257.021081 
L 718.70865 257.021081 
L 713.26985 255.952992 
L 710.55045 255.952992 
L 705.11165 254.884903 
L 702.39225 254.884903 
L 696.95345 253.816814 
L 694.23405 253.816814 
L 688.79525 252.748725 
L 686.07585 252.748725 
L 680.63705 251.680636 
L 677.91765 251.680636 
L 675.19825 252.21468 
L 667.04005 252.21468 
L 664.32065 252.748725 
L 653.44305 252.748725 
L 650.72365 253.282769 
L 642.56545 253.282769 
L 639.84605 253.816814 
L 628.96845 253.816814 
L 626.24905 254.350858 
L 615.37145 254.350858 
L 612.65205 254.884903 
L 601.77445 254.884903 
L 599.05505 255.418947 
L 590.89685 255.418947 
L 588.17745 255.952992 
L 574.58045 255.952992 
L 571.86105 256.487036 
L 566.42225 256.487036 
L 563.70285 257.021081 
L 558.26405 257.021081 
L 555.54465 257.555125 
L 552.82525 257.555125 
L 550.10585 258.089169 
L 547.38645 258.089169 
L 544.66705 258.623214 
L 539.22825 258.623214 
L 536.50885 259.157258 
L 533.78945 259.157258 
L 531.07005 259.691303 
L 528.35065 259.691303 
L 525.63125 260.225347 
L 522.91185 260.225347 
L 520.19245 259.157258 
L 514.75365 258.089169 
L 509.31485 255.952992 
L 506.59545 255.418947 
L 501.15665 253.282769 
L 498.43725 252.748725 
L 492.99845 250.612547 
L 490.27905 250.078502 
L 484.84025 247.942325 
L 482.12085 247.40828 
L 476.68205 245.272102 
L 473.96265 244.738058 
L 465.80445 241.533791 
L 463.08505 240.999747 
L 457.64625 238.863569 
L 454.92685 238.329524 
L 452.20745 237.261435 
L 449.48805 237.79548 
L 441.32985 237.79548 
L 438.61045 238.329524 
L 433.17165 238.329524 
L 430.45225 238.863569 
L 425.01345 238.863569 
L 422.29405 239.397613 
L 414.13585 239.397613 
L 411.41645 239.931658 
L 405.97765 239.931658 
L 403.25825 240.465702 
L 395.10005 240.465702 
L 392.38065 240.999747 
L 384.22245 240.999747 
L 381.50305 241.533791 
L 376.06425 241.533791 
L 373.34485 242.067835 
L 365.18665 242.067835 
L 362.46725 242.60188 
L 357.02845 242.60188 
L 354.30905 243.135924 
L 348.87025 243.135924 
L 346.15085 243.669969 
L 337.99265 243.669969 
L 335.27325 244.204013 
L 332.55385 245.272102 
L 329.83445 245.806147 
L 327.11505 246.874236 
L 324.39565 245.806147 
L 321.67625 245.272102 
L 310.79865 240.999747 
L 308.07925 240.465702 
L 297.20165 236.193346 
L 294.48225 235.659302 
L 286.32405 232.455035 
L 283.60465 231.920991 
L 275.44645 228.716724 
L 272.72705 228.182679 
L 264.56885 224.978413 
L 261.84945 226.046501 
L 259.13005 227.648635 
L 256.41065 228.716724 
L 253.69125 230.318857 
L 248.25245 232.455035 
L 245.53305 234.057168 
L 242.81365 235.125257 
L 240.09425 236.727391 
L 234.65545 238.863569 
L 231.93605 240.465702 
L 229.21665 241.533791 
L 226.49725 243.135924 
L 223.77785 242.067835 
L 218.33905 240.999747 
L 215.61965 239.931658 
L 210.18085 238.863569 
L 207.46145 237.79548 
L 202.02265 236.727391 
L 199.30325 235.659302 
L 191.14505 234.057168 
L 188.42565 232.98908 
L 182.98685 231.920991 
L 180.26745 230.852902 
L 172.10925 229.250768 
L 169.38985 228.182679 
L 163.95105 227.11459 
L 161.23165 226.046501 
L 153.07345 224.444368 
L 150.35405 223.376279 
L 144.91525 222.30819 
L 142.19585 221.240101 
L 134.03765 219.637968 
L 131.31825 218.569879 
L 125.87945 217.50179 
L 123.16005 216.433701 
L 117.72125 215.365612 
L 115.00185 214.297523 
L 106.84365 212.69539 
L 49.73625 223.910324 
L 49.73625 223.910324 
" clip-path="url(#p94a958c9c2)" style="fill: none; stroke: #ff7f0e; stroke-width: 4"/>
   </g>
   <g id="line2d_24">
    <path d="M 49.73625 495.204913 
L 865.55625 495.204913 
" clip-path="url(#p94a958c9c2)" style="fill: none; stroke: #000000; stroke-opacity: 0.5; stroke-width: 3.5"/>
   </g>
   <g id="line2d_25">
    <path d="M 865.55625 268.770059 
L 851.95925 268.770059 
L 849.23985 269.304103 
L 841.08165 269.304103 
L 838.36225 269.838148 
L 827.48465 269.838148 
L 824.76525 270.372192 
L 813.88765 270.372192 
L 811.16825 270.906237 
L 797.57125 270.906237 
L 794.85185 271.440281 
L 783.97425 271.440281 
L 781.25485 271.974326 
L 767.65785 271.974326 
L 764.93845 272.50837 
L 756.78025 272.50837 
L 754.06085 273.042415 
L 694.23405 273.042415 
L 691.51465 272.50837 
L 688.79525 272.50837 
L 686.07585 271.974326 
L 683.35645 271.974326 
L 680.63705 271.440281 
L 677.91765 271.440281 
L 675.19825 270.906237 
L 672.47885 270.906237 
L 669.75945 270.372192 
L 664.32065 270.372192 
L 661.60125 269.838148 
L 658.88185 269.838148 
L 656.16245 269.304103 
L 653.44305 269.304103 
L 650.72365 268.770059 
L 648.00425 268.770059 
L 645.28485 268.236014 
L 642.56545 268.236014 
L 639.84605 267.70197 
L 637.12665 267.70197 
L 634.40725 267.167925 
L 628.96845 267.167925 
L 626.24905 266.633881 
L 623.52965 266.633881 
L 620.81025 266.099837 
L 618.09085 266.099837 
L 612.65205 265.031748 
L 609.93265 265.031748 
L 607.21325 264.497703 
L 604.49385 264.497703 
L 601.77445 263.963659 
L 599.05505 263.963659 
L 596.33565 264.497703 
L 593.61625 264.497703 
L 582.73865 266.633881 
L 580.01925 266.633881 
L 577.29985 267.167925 
L 571.86105 267.167925 
L 569.14165 267.70197 
L 563.70285 267.70197 
L 560.98345 268.236014 
L 552.82525 268.236014 
L 550.10585 268.770059 
L 544.66705 268.770059 
L 541.94765 269.304103 
L 533.78945 269.304103 
L 531.07005 269.838148 
L 522.91185 269.838148 
L 520.19245 270.372192 
L 514.75365 270.372192 
L 512.03425 270.906237 
L 506.59545 270.906237 
L 503.87605 271.440281 
L 501.15665 272.50837 
L 498.43725 273.042415 
L 495.71785 274.110504 
L 492.99845 274.110504 
L 490.27905 274.644548 
L 487.55965 274.644548 
L 482.12085 275.712637 
L 479.40145 275.712637 
L 473.96265 276.780726 
L 471.24325 276.780726 
L 468.52385 277.31477 
L 465.80445 277.31477 
L 460.36565 278.382859 
L 457.64625 278.382859 
L 454.92685 278.916904 
L 452.20745 278.916904 
L 446.76865 279.984993 
L 444.04925 279.984993 
L 438.61045 281.053082 
L 435.89105 281.053082 
L 433.17165 281.587126 
L 430.45225 281.587126 
L 427.73285 282.121171 
L 414.13585 282.121171 
L 411.41645 282.655215 
L 408.69705 282.121171 
L 405.97765 282.121171 
L 403.25825 281.587126 
L 400.53885 281.587126 
L 397.81945 281.053082 
L 395.10005 281.053082 
L 392.38065 280.519037 
L 386.94185 280.519037 
L 381.50305 279.450948 
L 376.06425 279.450948 
L 373.34485 278.916904 
L 370.62545 278.916904 
L 367.90605 278.382859 
L 362.46725 278.382859 
L 359.74785 277.848815 
L 357.02845 277.848815 
L 354.30905 277.31477 
L 351.58965 277.31477 
L 348.87025 276.780726 
L 343.43145 276.780726 
L 340.71205 276.246681 
L 337.99265 276.246681 
L 335.27325 275.712637 
L 329.83445 275.712637 
L 327.11505 275.178592 
L 324.39565 275.178592 
L 321.67625 274.644548 
L 318.95685 274.644548 
L 316.23745 274.110504 
L 313.51805 274.110504 
L 310.79865 273.576459 
L 308.07925 273.576459 
L 305.35985 273.042415 
L 299.92105 273.042415 
L 297.20165 272.50837 
L 294.48225 272.50837 
L 291.76285 271.974326 
L 286.32405 271.974326 
L 283.60465 271.440281 
L 280.88525 271.440281 
L 278.16585 270.906237 
L 275.44645 270.906237 
L 272.72705 270.372192 
L 270.00765 270.372192 
L 267.28825 269.838148 
L 261.84945 269.838148 
L 259.13005 269.304103 
L 256.41065 269.304103 
L 253.69125 268.770059 
L 250.97185 268.770059 
L 248.25245 268.236014 
L 245.53305 268.236014 
L 242.81365 265.565792 
L 237.37485 261.293436 
L 234.65545 259.691303 
L 229.21665 255.418947 
L 226.49725 253.816814 
L 221.05845 249.544458 
L 218.33905 247.942325 
L 212.90025 243.669969 
L 210.18085 242.067835 
L 204.74205 237.79548 
L 202.02265 236.193346 
L 193.86445 229.784813 
L 191.14505 228.182679 
L 185.70625 223.910324 
L 182.98685 222.30819 
L 174.82865 215.899657 
L 172.10925 214.297523 
L 166.67045 210.025167 
L 163.95105 208.423034 
L 155.79285 202.0145 
L 153.07345 200.412367 
L 147.63465 196.140011 
L 144.91525 195.071922 
L 142.19585 195.071922 
L 134.03765 196.674056 
L 131.31825 196.674056 
L 123.16005 198.276189 
L 120.44065 198.276189 
L 112.28245 199.878323 
L 109.56305 199.878323 
L 104.12425 200.946411 
L 101.40485 200.946411 
L 93.24665 202.548545 
L 90.52725 202.548545 
L 49.73625 210.559212 
L 49.73625 210.559212 
" clip-path="url(#p94a958c9c2)" style="fill: none; stroke: #9467bd; stroke-width: 4"/>
   </g>
   <g id="line2d_26">
    <path d="M 49.73625 495.204913 
L 865.55625 495.204913 
" clip-path="url(#p94a958c9c2)" style="fill: none; stroke: #000000; stroke-opacity: 0.5; stroke-width: 3.5"/>
   </g>
   <g id="line2d_27">
    <path d="M 865.55625 356.887396 
L 862.83685 356.353351 
L 857.39805 356.353351 
L 854.67865 355.819307 
L 851.95925 355.819307 
L 849.23985 355.285263 
L 846.52045 355.285263 
L 843.80105 354.751218 
L 841.08165 354.751218 
L 838.36225 354.217174 
L 835.64285 354.217174 
L 832.92345 353.683129 
L 830.20405 353.683129 
L 827.48465 353.149085 
L 824.76525 353.149085 
L 822.04585 352.61504 
L 819.32645 352.61504 
L 816.60705 352.080996 
L 813.88765 352.080996 
L 811.16825 351.546951 
L 808.44885 351.546951 
L 805.72945 351.012907 
L 800.29065 351.012907 
L 767.65785 344.604373 
L 764.93845 343.536284 
L 737.74445 338.19584 
L 735.02505 337.127751 
L 696.95345 329.651128 
L 694.23405 328.583039 
L 672.47885 324.310683 
L 669.75945 323.242595 
L 637.12665 316.834061 
L 634.40725 315.765972 
L 631.68785 315.765972 
L 628.96845 314.697883 
L 604.49385 309.891483 
L 601.77445 308.823394 
L 563.70285 301.346771 
L 560.98345 300.278682 
L 547.38645 297.60846 
L 544.66705 297.60846 
L 541.94765 297.074416 
L 536.50885 297.074416 
L 533.78945 296.540371 
L 528.35065 296.540371 
L 525.63125 296.006327 
L 520.19245 296.006327 
L 517.47305 295.472282 
L 512.03425 295.472282 
L 509.31485 294.938238 
L 503.87605 294.938238 
L 501.15665 294.404193 
L 495.71785 294.404193 
L 492.99845 293.870149 
L 487.55965 293.870149 
L 484.84025 293.336104 
L 479.40145 293.336104 
L 476.68205 292.80206 
L 471.24325 292.80206 
L 468.52385 292.268015 
L 463.08505 292.268015 
L 460.36565 291.733971 
L 454.92685 291.733971 
L 452.20745 291.199926 
L 446.76865 291.199926 
L 444.04925 290.665882 
L 438.61045 290.665882 
L 435.89105 290.131838 
L 430.45225 290.131838 
L 427.73285 289.597793 
L 422.29405 289.597793 
L 419.57465 289.063749 
L 416.85525 289.063749 
L 414.13585 288.529704 
L 408.69705 288.529704 
L 405.97765 287.99566 
L 400.53885 287.99566 
L 397.81945 287.461615 
L 392.38065 287.461615 
L 389.66125 286.927571 
L 384.22245 286.927571 
L 381.50305 286.393526 
L 376.06425 286.393526 
L 373.34485 285.859482 
L 370.62545 285.859482 
L 367.90605 285.325437 
L 359.74785 285.325437 
L 357.02845 284.791393 
L 354.30905 284.791393 
L 351.58965 284.257348 
L 346.15085 284.257348 
L 343.43145 283.723304 
L 340.71205 283.723304 
L 337.99265 283.189259 
L 332.55385 283.189259 
L 329.83445 282.655215 
L 324.39565 282.655215 
L 321.67625 282.121171 
L 318.95685 282.121171 
L 316.23745 281.587126 
L 313.51805 281.587126 
L 310.79865 281.053082 
L 305.35985 281.053082 
L 302.64045 280.519037 
L 297.20165 280.519037 
L 280.88525 277.31477 
L 278.16585 277.31477 
L 261.84945 274.110504 
L 259.13005 274.110504 
L 240.09425 270.372192 
L 237.37485 270.372192 
L 215.61965 266.099837 
L 212.90025 266.099837 
L 196.58385 262.89557 
L 193.86445 262.89557 
L 172.10925 258.623214 
L 169.38985 258.623214 
L 142.19585 253.282769 
L 139.47645 253.282769 
L 115.00185 248.476369 
L 112.28245 248.476369 
L 93.24665 244.738058 
L 90.52725 244.738058 
L 63.33325 239.397613 
L 60.61385 239.397613 
L 49.73625 237.261435 
L 49.73625 237.261435 
" clip-path="url(#p94a958c9c2)" style="fill: none; stroke: #8c564b; stroke-width: 4"/>
   </g>
   <g id="line2d_28">
    <path d="M 49.73625 495.204913 
L 865.55625 495.204913 
" clip-path="url(#p94a958c9c2)" style="fill: none; stroke: #000000; stroke-opacity: 0.5; stroke-width: 3.5"/>
   </g>
   <g id="text_10">
    <text style="fill: #222222; font: 30px 'Roboto', 'Arial', 'DejaVu Sans', sans-serif; text-anchor: middle" x="443.18625" y="25.011562" transform="rotate(-0 443.18625 25.011562)">Avaliação positiva dos presidentes nos primeiros 300 dias</text>
   </g>
   <g id="text_11">
    <text style="fill: #222222; font: 24px 'Roboto', 'Arial', 'DejaVu Sans', sans-serif; text-anchor: middle" x="443.18625" y="57.411562" transform="rotate(-0 443.18625 57.411562)">Lula 3 tem a quarta melhor avaliação positiva</text>
   </g>
   <g id="text_12">
    <text style="fill: #222222; font: 30px 'Roboto', 'Arial', 'DejaVu Sans', sans-serif; text-anchor: middle" x="443.18625" y="25.011562" transform="rotate(-0 443.18625 25.011562)">Avaliação positiva dos presidentes nos primeiros 300 dias</text>
   </g>
   <g id="text_13">
    <text style="fill: #222222; font: 24px 'Roboto', 'Arial', 'DejaVu Sans', sans-serif; text-anchor: middle" x="443.18625" y="57.411562" transform="rotate(-0 443.18625 57.411562)">Lula 3 tem a quarta melhor avaliação positiva</text>
   </g>
   <g id="text_14">
    <text style="fill: #222222; font: 30px 'Roboto', 'Arial', 'DejaVu Sans', sans-serif; text-anchor: middle" x="443.18625" y="25.011562" transform="rotate(-0 443.18625 25.011562)">Avaliação positiva dos presidentes nos primeiros 300 dias</text>
   </g>
   <g id="text_15">
    <text style="fill: #222222; font: 24px 'Roboto', 'Arial', 'DejaVu Sans', sans-serif; text-anchor: middle" x="443.18625" y="57.411562" transform="rotate(-0 443.18625 57.411562)">Lula 3 tem a quarta melhor avaliação positiva</text>
   </g>
   <g id="text_16">
    <text style="fill: #222222; font: 30px 'Roboto', 'Arial', 'DejaVu Sans', sans-serif; text-anchor: middle" x="443.18625" y="25.011562" transform="rotate(-0 443.18625 25.011562)">Avaliação positiva dos presidentes nos primeiros 300 dias</text>
   </g>
   <g id="text_17">
    <text style="fill: #222222; font: 24px 'Roboto', 'Arial', 'DejaVu Sans', sans-serif; text-anchor: middle" x="443.18625" y="57.411562" transform="rotate(-0 443.18625 57.411562)">Lula 3 tem a quarta melhor avaliação positiva</text>
   </g>
   <g id="text_18">
    <text style="fill: #222222; font: 30px 'Roboto', 'Arial', 'DejaVu Sans', sans-serif; text-anchor: middle" x="443.18625" y="25.011562" transform="rotate(-0 443.18625 25.011562)">Avaliação positiva dos presidentes nos primeiros 300 dias</text>
   </g>
   <g id="text_19">
    <text style="fill: #222222; font: 24px 'Roboto', 'Arial', 'DejaVu Sans', sans-serif; text-anchor: middle" x="443.18625" y="57.411562" transform="rotate(-0 443.18625 57.411562)">Lula 3 tem a quarta melhor avaliação positiva</text>
   </g>
   <g id="text_20">
    <text style="fill: #222222; font: 30px 'Roboto', 'Arial', 'DejaVu Sans', sans-serif; text-anchor: middle" x="443.18625" y="25.011562" transform="rotate(-0 443.18625 25.011562)">Avaliação positiva dos presidentes nos primeiros 300 dias</text>
   </g>
   <g id="text_21">
    <text style="fill: #222222; font: 24px 'Roboto', 'Arial', 'DejaVu Sans', sans-serif; text-anchor: middle" x="443.18625" y="57.411562" transform="rotate(-0 443.18625 57.411562)">Lula 3 tem a quarta melhor avaliação positiva</text>
   </g>
   <g id="legend_1">
    <g id="patch_3">
     <path d="M 585.717188 150.616875 
L 855.05625 150.616875 
Q 858.05625 150.616875 858.05625 147.616875 
L 858.05625 105.171563 
Q 858.05625 102.171563 855.05625 102.171563 
L 585.717188 102.171563 
Q 582.717188 102.171563 582.717188 105.171563 
L 582.717188 147.616875 
Q 582.717188 150.616875 585.717188 150.616875 
z
" style="fill: #ffffff; opacity: 0.7; stroke: #ffffff; stroke-width: 0.5; stroke-linejoin: miter"/>
    </g>
    <g id="line2d_29">
     <path d="M 590.217188 116.297344 
L 593.967188 116.297344 
L 597.717188 116.297344 
" style="fill: none; stroke: #d62728; stroke-width: 4"/>
    </g>
    <g id="text_22">
     <text style="fill: #222222; font: 15px 'Roboto', 'Arial', 'DejaVu Sans', sans-serif; text-anchor: start" x="605.217188" y="121.097344" transform="rotate(-0 605.217188 121.097344)">LULA 3</text>
    </g>
    <g id="line2d_30">
     <path d="M 590.217188 135.27 
L 593.967188 135.27 
L 597.717188 135.27 
" style="fill: none; stroke: #1f77b4; stroke-width: 4"/>
    </g>
    <g id="text_23">
     <text style="fill: #222222; font: 15px 'Roboto', 'Arial', 'DejaVu Sans', sans-serif; text-anchor: start" x="605.217188" y="140.07" transform="rotate(-0 605.217188 140.07)">BOLSONARO</text>
    </g>
    <g id="line2d_31">
     <path d="M 700.071094 116.297344 
L 703.821094 116.297344 
L 707.571094 116.297344 
" style="fill: none; stroke: #2ca02c; stroke-width: 4"/>
    </g>
    <g id="text_24">
     <text style="fill: #222222; font: 15px 'Roboto', 'Arial', 'DejaVu Sans', sans-serif; text-anchor: start" x="715.071094" y="121.097344" transform="rotate(-0 715.071094 121.097344)">DILMA 1</text>
    </g>
    <g id="line2d_32">
     <path d="M 700.071094 135.27 
L 703.821094 135.27 
L 707.571094 135.27 
" style="fill: none; stroke: #ff7f0e; stroke-width: 4"/>
    </g>
    <g id="text_25">
     <text style="fill: #222222; font: 15px 'Roboto', 'Arial', 'DejaVu Sans', sans-serif; text-anchor: start" x="715.071094" y="140.07" transform="rotate(-0 715.071094 140.07)">LULA 1</text>
    </g>
    <g id="line2d_33">
     <path d="M 780.035156 116.297344 
L 783.785156 116.297344 
L 787.535156 116.297344 
" style="fill: none; stroke: #9467bd; stroke-width: 4"/>
    </g>
    <g id="text_26">
     <text style="fill: #222222; font: 15px 'Roboto', 'Arial', 'DejaVu Sans', sans-serif; text-anchor: start" x="795.035156" y="121.097344" transform="rotate(-0 795.035156 121.097344)">FHC 1</text>
    </g>
    <g id="line2d_34">
     <path d="M 780.035156 135.27 
L 783.785156 135.27 
L 787.535156 135.27 
" style="fill: none; stroke: #8c564b; stroke-width: 4"/>
    </g>
    <g id="text_27">
     <text style="fill: #222222; font: 15px 'Roboto', 'Arial', 'DejaVu Sans', sans-serif; text-anchor: start" x="795.035156" y="140.07" transform="rotate(-0 795.035156 140.07)">COLLOR</text>
    </g>
   </g>
  </g>
 </g>
 <defs>
  <clipPath id="p94a958c9c2">
   <rect x="49.73625" y="94.671563" width="815.82" height="415.54"/>
  </clipPath>
 </defs>
</svg>
