<?xml version="1.0" encoding="utf-8" standalone="no"?>
<!DOCTYPE svg PUBLIC "-//W3C//DTD SVG 1.1//EN"
  "http://www.w3.org/Graphics/SVG/1.1/DTD/svg11.dtd">
<svg xmlns:xlink="http://www.w3.org/1999/xlink" width="886.151094pt" height="523.598125pt" viewBox="0 0 886.151094 523.598125" xmlns="http://www.w3.org/2000/svg" version="1.1">
 <metadata>
  <rdf:RDF xmlns:dc="http://purl.org/dc/elements/1.1/" xmlns:cc="http://creativecommons.org/ns#" xmlns:rdf="http://www.w3.org/1999/02/22-rdf-syntax-ns#">
   <cc:Work>
    <dc:type rdf:resource="http://purl.org/dc/dcmitype/StillImage"/>
    <dc:date>2023-10-11T13:20:51.715774</dc:date>
    <dc:format>image/svg+xml</dc:format>
    <dc:creator>
     <cc:Agent>
      <dc:title>Matplotlib v3.8.0, https://matplotlib.org/</dc:title>
     </cc:Agent>
    </dc:creator>
   </cc:Work>
  </rdf:RDF>
 </metadata>
 <defs>
  <style type="text/css">*{stroke-linejoin: round; stroke-linecap: butt}</style>
 </defs>
 <g id="figure_1">
  <g id="patch_1">
   <path d="M 0 523.598125 
L 886.151094 523.598125 
L 886.151094 0 
L 0 0 
L 0 523.598125 
z
" style="fill: none"/>
  </g>
  <g id="axes_1">
   <g id="patch_2">
    <path d="M 85.193125 510.211562 
L 865.413125 510.211562 
L 865.413125 94.671563 
L 85.193125 94.671563 
L 85.193125 510.211562 
z
" style="fill: none"/>
   </g>
   <g id="matplotlib.axis_1">
    <g id="xtick_1">
     <g id="line2d_1">
      <path d="M 85.193125 510.211562 
L 85.193125 94.671563 
" clip-path="url(#pfc9fd0e630)" style="fill: none; stroke-dasharray: 0.7,2.1; stroke-dashoffset: 0; stroke: #000000; stroke-opacity: 0.5; stroke-width: 0.7"/>
     </g>
     <g id="line2d_2"/>
    </g>
    <g id="xtick_2">
     <g id="line2d_3">
      <path d="M 241.237125 510.211562 
L 241.237125 94.671563 
" clip-path="url(#pfc9fd0e630)" style="fill: none; stroke-dasharray: 0.7,2.1; stroke-dashoffset: 0; stroke: #000000; stroke-opacity: 0.5; stroke-width: 0.7"/>
     </g>
     <g id="line2d_4"/>
     <g id="text_1">
      <text style="fill: #333333; font: 22px 'Roboto', 'Arial', 'DejaVu Sans', sans-serif; text-anchor: middle" x="241.237125" y="516.969375" transform="rotate(-0 241.237125 516.969375)">60 DIAS</text>
     </g>
    </g>
    <g id="xtick_3">
     <g id="line2d_5">
      <path d="M 397.281125 510.211562 
L 397.281125 94.671563 
" clip-path="url(#pfc9fd0e630)" style="fill: none; stroke-dasharray: 0.7,2.1; stroke-dashoffset: 0; stroke: #000000; stroke-opacity: 0.5; stroke-width: 0.7"/>
     </g>
     <g id="line2d_6"/>
     <g id="text_2">
      <text style="fill: #333333; font: 22px 'Roboto', 'Arial', 'DejaVu Sans', sans-serif; text-anchor: middle" x="397.281125" y="516.969375" transform="rotate(-0 397.281125 516.969375)">120</text>
     </g>
    </g>
    <g id="xtick_4">
     <g id="line2d_7">
      <path d="M 553.325125 510.211562 
L 553.325125 94.671563 
" clip-path="url(#pfc9fd0e630)" style="fill: none; stroke-dasharray: 0.7,2.1; stroke-dashoffset: 0; stroke: #000000; stroke-opacity: 0.5; stroke-width: 0.7"/>
     </g>
     <g id="line2d_8"/>
     <g id="text_3">
      <text style="fill: #333333; font: 22px 'Roboto', 'Arial', 'DejaVu Sans', sans-serif; text-anchor: middle" x="553.325125" y="516.969375" transform="rotate(-0 553.325125 516.969375)">180</text>
     </g>
    </g>
    <g id="xtick_5">
     <g id="line2d_9">
      <path d="M 709.369125 510.211562 
L 709.369125 94.671563 
" clip-path="url(#pfc9fd0e630)" style="fill: none; stroke-dasharray: 0.7,2.1; stroke-dashoffset: 0; stroke: #000000; stroke-opacity: 0.5; stroke-width: 0.7"/>
     </g>
     <g id="line2d_10"/>
     <g id="text_4">
      <text style="fill: #333333; font: 22px 'Roboto', 'Arial', 'DejaVu Sans', sans-serif; text-anchor: middle" x="709.369125" y="516.969375" transform="rotate(-0 709.369125 516.969375)">240</text>
     </g>
    </g>
    <g id="xtick_6">
     <g id="line2d_11">
      <path d="M 865.413125 510.211562 
L 865.413125 94.671563 
" clip-path="url(#pfc9fd0e630)" style="fill: none; stroke-dasharray: 0.7,2.1; stroke-dashoffset: 0; stroke: #000000; stroke-opacity: 0.5; stroke-width: 0.7"/>
     </g>
     <g id="line2d_12"/>
     <g id="text_5">
      <text style="fill: #333333; font: 22px 'Roboto', 'Arial', 'DejaVu Sans', sans-serif; text-anchor: middle" x="865.413125" y="516.969375" transform="rotate(-0 865.413125 516.969375)">300</text>
     </g>
    </g>
   </g>
   <g id="matplotlib.axis_2">
    <g id="ytick_1">
     <g id="line2d_13">
      <path d="M 85.193125 488.245232 
L 865.413125 488.245232 
" clip-path="url(#pfc9fd0e630)" style="fill: none; stroke-dasharray: 0.7,2.1; stroke-dashoffset: 0; stroke: #000000; stroke-opacity: 0.5; stroke-width: 0.7"/>
     </g>
     <g id="text_6">
      <text style="fill: #333333; font: 24px 'Roboto', 'Arial', 'DejaVu Sans', sans-serif; text-anchor: end" x="82.193125" y="494.948357" transform="rotate(-0 82.193125 494.948357)">-20   </text>
     </g>
    </g>
    <g id="ytick_2">
     <g id="line2d_14">
      <path d="M 85.193125 389.851815 
L 865.413125 389.851815 
" clip-path="url(#pfc9fd0e630)" style="fill: none; stroke-dasharray: 0.7,2.1; stroke-dashoffset: 0; stroke: #000000; stroke-opacity: 0.5; stroke-width: 0.7"/>
     </g>
     <g id="text_7">
      <text style="fill: #333333; font: 24px 'Roboto', 'Arial', 'DejaVu Sans', sans-serif; text-anchor: end" x="82.193125" y="396.55494" transform="rotate(-0 82.193125 396.55494)">0   </text>
     </g>
    </g>
    <g id="ytick_3">
     <g id="line2d_15">
      <path d="M 85.193125 291.458397 
L 865.413125 291.458397 
" clip-path="url(#pfc9fd0e630)" style="fill: none; stroke-dasharray: 0.7,2.1; stroke-dashoffset: 0; stroke: #000000; stroke-opacity: 0.5; stroke-width: 0.7"/>
     </g>
     <g id="text_8">
      <text style="fill: #333333; font: 24px 'Roboto', 'Arial', 'DejaVu Sans', sans-serif; text-anchor: end" x="82.193125" y="298.161522" transform="rotate(-0 82.193125 298.161522)">20   </text>
     </g>
    </g>
    <g id="ytick_4">
     <g id="line2d_16">
      <path d="M 85.193125 193.06498 
L 865.413125 193.06498 
" clip-path="url(#pfc9fd0e630)" style="fill: none; stroke-dasharray: 0.7,2.1; stroke-dashoffset: 0; stroke: #000000; stroke-opacity: 0.5; stroke-width: 0.7"/>
     </g>
     <g id="text_9">
      <text style="fill: #333333; font: 24px 'Roboto', 'Arial', 'DejaVu Sans', sans-serif; text-anchor: end" x="82.193125" y="199.768105" transform="rotate(-0 82.193125 199.768105)">40   </text>
     </g>
    </g>
    <g id="ytick_5">
     <g id="line2d_17">
      <path d="M 85.193125 94.671563 
L 865.413125 94.671563 
" clip-path="url(#pfc9fd0e630)" style="fill: none; stroke-dasharray: 0.7,2.1; stroke-dashoffset: 0; stroke: #000000; stroke-opacity: 0.5; stroke-width: 0.7"/>
     </g>
     <g id="text_10">
      <text style="fill: #333333; font: 24px 'Roboto', 'Arial', 'DejaVu Sans', sans-serif; text-anchor: end" x="82.193125" y="101.374688" transform="rotate(-0 82.193125 101.374688)">60</text>
     </g>
    </g>
    <g id="text_11">
     <text style="fill: #222222; font: 600 20px 'Roboto', 'Arial', 'DejaVu Sans', sans-serif; text-anchor: middle" x="17.394375" y="302.441563" transform="rotate(-90 17.394375 302.441563)">SALDO EM PONTOS PERCENTUAIS</text>
    </g>
   </g>
   <g id="line2d_18">
    <path d="M 831.603592 343.606909 
L 829.002858 344.098876 
L 826.402125 343.606909 
L 823.801392 343.606909 
L 821.200658 344.098876 
L 818.599925 343.606909 
L 808.196992 343.606909 
L 805.596258 343.114941 
L 797.794058 343.114941 
L 795.193325 344.098876 
L 789.991858 344.098876 
L 784.790392 343.114941 
L 779.588925 343.114941 
L 776.988192 342.131007 
L 774.387458 342.622974 
L 769.185992 342.622974 
L 766.585258 342.131007 
L 763.984525 341.147073 
L 761.383792 340.655106 
L 758.783058 339.671172 
L 756.182325 339.671172 
L 753.581592 340.655106 
L 748.380125 340.655106 
L 745.779392 341.147073 
L 732.775725 338.687238 
L 730.174992 338.687238 
L 727.574258 338.195271 
L 724.973525 337.211336 
L 722.372792 337.211336 
L 714.570592 334.259534 
L 711.969858 333.767567 
L 709.369125 332.783633 
L 704.167658 331.799698 
L 696.365458 331.799698 
L 693.764725 331.307731 
L 685.962525 331.307731 
L 680.761058 330.323797 
L 672.958858 330.323797 
L 667.757392 329.339863 
L 662.555925 329.339863 
L 657.354458 330.323797 
L 654.753725 330.323797 
L 646.951525 331.799698 
L 644.350792 331.799698 
L 641.750058 332.291666 
L 639.149325 332.291666 
L 636.548592 332.783633 
L 633.947858 332.783633 
L 628.746392 333.767567 
L 626.145658 333.767567 
L 623.544925 334.259534 
L 620.944192 334.259534 
L 618.343458 334.751501 
L 615.742725 334.751501 
L 613.141992 335.243468 
L 610.541258 335.243468 
L 605.339792 336.227402 
L 602.739058 336.227402 
L 600.138325 336.719369 
L 597.537592 336.719369 
L 594.936858 337.211336 
L 592.336125 337.211336 
L 589.735392 337.703303 
L 584.533925 337.703303 
L 581.933192 338.195271 
L 579.332458 337.703303 
L 563.728058 337.703303 
L 561.127325 338.195271 
L 558.526592 338.195271 
L 553.325125 339.179205 
L 550.724392 339.179205 
L 548.123658 339.671172 
L 545.522925 339.671172 
L 542.922192 340.163139 
L 540.321458 341.63904 
L 535.119992 343.606909 
L 532.519258 345.574777 
L 527.317792 347.542645 
L 519.515592 351.970349 
L 516.914858 352.954283 
L 514.314125 353.44625 
L 511.713392 354.922152 
L 506.511925 355.906086 
L 503.911192 356.89002 
L 501.310458 356.89002 
L 488.306792 359.349855 
L 485.706058 359.349855 
L 483.105325 360.333789 
L 477.903858 359.349855 
L 475.303125 359.349855 
L 472.702392 358.857888 
L 470.101658 358.857888 
L 464.900192 357.873954 
L 462.299458 357.873954 
L 457.097992 356.89002 
L 454.497258 356.89002 
L 449.295792 355.906086 
L 446.695058 355.906086 
L 436.292125 353.938217 
L 433.691392 352.954283 
L 431.090658 352.462316 
L 425.889192 350.494448 
L 420.687725 350.494448 
L 418.086992 350.986415 
L 412.885525 350.986415 
L 410.284792 351.478382 
L 407.684058 350.986415 
L 405.083325 351.478382 
L 394.680392 351.478382 
L 392.079658 350.986415 
L 389.478925 350.986415 
L 386.878192 351.478382 
L 376.475258 351.478382 
L 373.874525 351.970349 
L 363.471592 351.970349 
L 360.870858 352.462316 
L 358.270125 351.970349 
L 355.669392 352.954283 
L 353.068658 353.44625 
L 350.467925 353.44625 
L 340.064992 351.478382 
L 337.464258 352.462316 
L 324.460592 354.922152 
L 321.859858 354.430184 
L 319.259125 354.922152 
L 316.658392 354.922152 
L 314.057658 354.430184 
L 311.456925 354.430184 
L 306.255458 352.462316 
L 303.654725 350.986415 
L 298.453258 349.018546 
L 295.852525 347.050678 
L 293.251792 346.066744 
L 290.651058 344.590843 
L 285.449592 342.622974 
L 282.848858 341.147073 
L 280.248125 340.163139 
L 277.647392 338.687238 
L 275.046658 338.195271 
L 272.445925 337.211336 
L 267.244458 336.227402 
L 264.643725 335.243468 
L 262.042992 335.243468 
L 259.442258 334.751501 
L 256.841525 333.767567 
L 246.438592 331.799698 
L 243.837858 330.815764 
L 238.636392 329.83183 
L 233.434925 327.863962 
L 230.834192 327.863962 
L 228.233458 326.880028 
L 225.632725 326.38806 
L 223.031992 326.38806 
L 215.229792 324.912159 
L 210.028325 324.912159 
L 202.226125 323.436258 
L 197.024658 323.436258 
L 194.423925 322.452324 
L 184.020992 322.452324 
L 176.218792 320.976423 
L 173.618058 320.976423 
L 171.017325 319.992488 
L 168.416592 320.484455 
L 163.215125 319.500521 
L 160.614392 319.500521 
L 155.412925 317.532653 
L 152.812192 317.532653 
L 147.610725 315.564785 
L 145.009992 315.072817 
L 139.808525 313.104949 
L 134.607058 312.121015 
L 132.006325 311.137081 
L 129.405592 310.645114 
L 124.204125 308.677245 
L 121.603392 308.185278 
L 119.002658 307.201344 
L 113.801192 306.21741 
L 111.200458 305.233476 
L 108.599725 304.741509 
L 105.998992 301.789706 
L 100.797525 296.870035 
L 98.196792 296.870035 
L 95.596058 296.378068 
L 87.793858 296.378068 
L 85.193125 295.886101 
L 85.193125 295.886101 
" clip-path="url(#pfc9fd0e630)" style="fill: none; stroke: #d62728; stroke-width: 4"/>
   </g>
   <g id="line2d_19">
    <path d="M 85.193125 493.164903 
L 865.413125 493.164903 
" clip-path="url(#pfc9fd0e630)" style="fill: none; stroke: #000000; stroke-opacity: 0.5; stroke-width: 3.5"/>
   </g>
   <g id="line2d_20">
    <path d="M 865.413125 427.241313 
L 862.812392 425.765412 
L 857.610925 423.797544 
L 855.010192 422.321642 
L 849.808725 420.353774 
L 847.207992 418.877873 
L 842.006525 416.910004 
L 839.405792 415.434103 
L 836.805058 414.450169 
L 834.204325 412.974268 
L 829.002858 411.006399 
L 826.402125 409.530498 
L 823.801392 407.56263 
L 818.599925 404.610827 
L 813.398458 402.642959 
L 810.797725 401.167058 
L 805.596258 399.199189 
L 802.995525 397.231321 
L 800.394792 396.247387 
L 792.592592 391.819683 
L 787.391125 389.851815 
L 784.790392 387.883946 
L 782.189658 386.900012 
L 774.387458 382.472308 
L 771.786725 381.488374 
L 769.185992 385.424111 
L 766.585258 386.408045 
L 761.383792 389.359848 
L 758.783058 390.343782 
L 756.182325 391.819683 
L 753.581592 393.787551 
L 750.980858 394.771486 
L 745.779392 397.723288 
L 743.178658 398.707222 
L 740.577925 400.183124 
L 737.977192 402.150992 
L 735.376458 403.134926 
L 730.174992 406.086729 
L 727.574258 407.070663 
L 724.973525 409.038531 
L 722.372792 410.514432 
L 719.772058 411.498367 
L 714.570592 414.450169 
L 711.969858 413.466235 
L 709.369125 415.434103 
L 706.768392 415.92607 
L 698.966192 415.92607 
L 696.365458 413.466235 
L 693.764725 406.578696 
L 691.163992 400.183124 
L 685.962525 386.408045 
L 680.761058 391.327716 
L 678.160325 393.295584 
L 672.958858 392.31165 
L 670.358125 390.835749 
L 667.757392 390.343782 
L 665.156658 389.359848 
L 659.955192 388.375913 
L 657.354458 387.391979 
L 654.753725 386.900012 
L 649.552258 384.932144 
L 644.350792 383.94821 
L 641.750058 382.964275 
L 636.548592 381.980341 
L 633.947858 379.028539 
L 626.145658 377.552638 
L 623.544925 377.552638 
L 620.944192 378.044605 
L 615.742725 376.076736 
L 607.940525 376.076736 
L 605.339792 376.568703 
L 602.739058 376.076736 
L 600.138325 376.568703 
L 597.537592 376.076736 
L 594.936858 376.568703 
L 587.134658 376.568703 
L 584.533925 377.06067 
L 581.933192 376.568703 
L 579.332458 377.06067 
L 566.328792 377.06067 
L 563.728058 377.552638 
L 561.127325 377.06067 
L 558.526592 377.552638 
L 553.325125 377.552638 
L 550.724392 376.568703 
L 545.522925 378.536572 
L 542.922192 379.028539 
L 540.321458 380.012473 
L 537.720725 380.012473 
L 535.119992 379.520506 
L 532.519258 379.520506 
L 527.317792 378.536572 
L 522.116325 378.536572 
L 519.515592 377.552638 
L 514.314125 377.552638 
L 503.911192 375.584769 
L 501.310458 375.584769 
L 488.306792 373.124934 
L 485.706058 373.124934 
L 475.303125 371.157065 
L 472.702392 370.173131 
L 467.500925 366.237395 
L 464.900192 365.25346 
L 462.299458 363.285592 
L 457.097992 360.333789 
L 454.497258 358.365921 
L 449.295792 355.414119 
L 446.695058 353.44625 
L 441.493592 350.494448 
L 438.892858 348.526579 
L 431.090658 344.098876 
L 428.489925 342.131007 
L 423.288458 339.179205 
L 420.687725 337.211336 
L 415.486258 334.259534 
L 412.885525 332.291666 
L 407.684058 329.339863 
L 405.083325 327.371995 
L 399.881858 324.420192 
L 397.281125 322.452324 
L 394.680392 316.548719 
L 392.079658 310.153147 
L 389.478925 317.532653 
L 386.878192 324.420192 
L 384.277458 327.863962 
L 381.676725 332.291666 
L 379.075992 335.735435 
L 376.475258 336.719369 
L 358.270125 336.719369 
L 353.068658 337.703303 
L 340.064992 337.703303 
L 337.464258 338.195271 
L 334.863525 338.195271 
L 332.262792 338.687238 
L 321.859858 338.687238 
L 314.057658 326.880028 
L 311.456925 325.404126 
L 308.856192 322.944291 
L 306.255458 321.46839 
L 298.453258 319.992488 
L 295.852525 319.992488 
L 290.651058 319.008554 
L 288.050325 319.008554 
L 285.449592 318.02462 
L 280.248125 318.02462 
L 277.647392 317.040686 
L 275.046658 317.040686 
L 267.244458 315.564785 
L 264.643725 315.564785 
L 262.042992 314.58085 
L 256.841525 314.58085 
L 254.240792 313.596916 
L 251.640058 313.596916 
L 249.039325 313.104949 
L 246.438592 313.104949 
L 243.837858 312.121015 
L 241.237125 312.121015 
L 236.035658 311.137081 
L 233.434925 310.153147 
L 230.834192 309.66118 
L 228.233458 306.709377 
L 225.632725 304.741509 
L 220.431258 301.789706 
L 217.830525 299.329871 
L 215.229792 296.378068 
L 197.024658 279.15922 
L 194.423925 276.207418 
L 186.621725 268.827911 
L 184.020992 266.860043 
L 181.420258 263.90824 
L 176.218792 259.972504 
L 173.618058 257.512668 
L 165.815858 251.609063 
L 163.215125 248.657261 
L 158.013658 244.721524 
L 155.412925 246.197425 
L 152.812192 247.181359 
L 150.211458 248.657261 
L 147.610725 249.641195 
L 145.009992 251.609063 
L 142.409258 253.084965 
L 139.808525 254.068899 
L 126.804858 261.448405 
L 124.204125 262.432339 
L 121.603392 263.90824 
L 119.002658 264.892175 
L 95.596058 264.892175 
L 92.995325 264.400208 
L 85.193125 264.400208 
L 85.193125 264.400208 
" clip-path="url(#pfc9fd0e630)" style="fill: none; stroke: #1f77b4; stroke-width: 4"/>
   </g>
   <g id="line2d_21">
    <path d="M 85.193125 493.164903 
L 865.413125 493.164903 
" clip-path="url(#pfc9fd0e630)" style="fill: none; stroke: #000000; stroke-opacity: 0.5; stroke-width: 3.5"/>
   </g>
   <g id="line2d_22">
    <path d="M 865.413125 168.958593 
L 860.211658 169.942527 
L 857.610925 169.942527 
L 855.010192 170.926461 
L 852.409458 171.418428 
L 849.808725 171.418428 
L 839.405792 173.386296 
L 836.805058 173.386296 
L 834.204325 174.370231 
L 831.603592 174.370231 
L 829.002858 174.862198 
L 826.402125 174.862198 
L 823.801392 175.354165 
L 821.200658 176.338099 
L 818.599925 176.338099 
L 813.398458 177.322033 
L 810.797725 177.322033 
L 808.196992 177.814 
L 805.596258 178.797934 
L 802.995525 178.797934 
L 800.394792 179.289901 
L 797.794058 179.289901 
L 795.193325 180.273836 
L 792.592592 180.765803 
L 789.991858 180.765803 
L 779.588925 182.733671 
L 776.988192 182.733671 
L 774.387458 183.225638 
L 771.786725 184.209572 
L 769.185992 184.209572 
L 766.585258 184.701539 
L 763.984525 184.701539 
L 761.383792 185.193507 
L 753.581592 185.193507 
L 750.980858 185.685474 
L 748.380125 185.685474 
L 745.779392 186.177441 
L 743.178658 185.685474 
L 740.577925 185.685474 
L 737.977192 186.177441 
L 735.376458 186.177441 
L 732.775725 186.669408 
L 719.772058 186.669408 
L 717.171325 187.161375 
L 704.167658 187.161375 
L 701.566925 187.653342 
L 691.163992 187.653342 
L 688.563258 188.145309 
L 672.958858 188.145309 
L 670.358125 188.637276 
L 662.555925 188.637276 
L 652.152992 196.50875 
L 649.552258 197.984651 
L 641.750058 203.888256 
L 636.548592 203.888256 
L 631.347125 204.87219 
L 620.944192 204.87219 
L 618.343458 205.364157 
L 615.742725 205.364157 
L 613.141992 204.87219 
L 592.336125 204.87219 
L 589.735392 205.364157 
L 579.332458 205.364157 
L 576.731725 204.87219 
L 566.328792 204.87219 
L 563.728058 205.364157 
L 550.724392 205.364157 
L 548.123658 204.87219 
L 527.317792 204.87219 
L 524.717058 205.364157 
L 522.116325 204.87219 
L 501.310458 204.87219 
L 454.497258 196.016782 
L 451.896525 195.032848 
L 449.295792 195.032848 
L 446.695058 194.048914 
L 444.094325 193.556947 
L 441.493592 193.556947 
L 438.892858 192.573013 
L 436.292125 192.081046 
L 433.691392 192.081046 
L 431.090658 191.097112 
L 415.486258 188.145309 
L 412.885525 187.161375 
L 410.284792 187.161375 
L 407.684058 186.669408 
L 405.083325 185.685474 
L 402.482592 185.685474 
L 399.881858 185.193507 
L 397.281125 184.209572 
L 394.680392 184.209572 
L 392.079658 183.225638 
L 389.478925 182.733671 
L 386.878192 182.733671 
L 384.277458 181.749737 
L 381.676725 181.25777 
L 379.075992 181.25777 
L 376.475258 180.273836 
L 373.874525 179.781869 
L 371.273792 178.797934 
L 368.673058 178.797934 
L 366.072325 177.814 
L 363.471592 177.814 
L 360.870858 177.322033 
L 358.270125 176.338099 
L 355.669392 176.338099 
L 353.068658 175.354165 
L 329.662058 170.926461 
L 327.061325 169.942527 
L 324.460592 169.942527 
L 321.859858 169.45056 
L 319.259125 168.466626 
L 316.658392 168.466626 
L 314.057658 167.482691 
L 311.456925 166.990724 
L 308.856192 166.990724 
L 306.255458 166.00679 
L 298.453258 164.530889 
L 295.852525 164.530889 
L 293.251792 163.546955 
L 290.651058 166.00679 
L 288.050325 167.974658 
L 285.449592 170.434494 
L 282.848858 173.386296 
L 275.046658 180.765803 
L 262.042992 180.765803 
L 259.442258 180.273836 
L 256.841525 180.765803 
L 238.636392 180.765803 
L 236.035658 181.25777 
L 225.632725 181.25777 
L 223.031992 180.765803 
L 215.229792 180.765803 
L 212.629058 181.25777 
L 197.024658 181.25777 
L 194.423925 181.749737 
L 181.420258 181.749737 
L 178.819525 181.25777 
L 171.017325 181.25777 
L 168.416592 181.749737 
L 147.610725 181.749737 
L 145.009992 181.25777 
L 142.409258 181.749737 
L 124.204125 181.749737 
L 121.603392 182.241704 
L 108.599725 182.241704 
L 105.998992 182.733671 
L 103.398258 181.749737 
L 100.797525 182.241704 
L 85.193125 182.241704 
L 85.193125 182.241704 
" clip-path="url(#pfc9fd0e630)" style="fill: none; stroke: #2ca02c; stroke-width: 4"/>
   </g>
   <g id="line2d_23">
    <path d="M 85.193125 493.164903 
L 865.413125 493.164903 
" clip-path="url(#pfc9fd0e630)" style="fill: none; stroke: #000000; stroke-opacity: 0.5; stroke-width: 3.5"/>
   </g>
   <g id="line2d_24">
    <path d="M 865.413125 244.721524 
L 860.211658 244.721524 
L 857.610925 245.705458 
L 855.010192 245.705458 
L 852.409458 246.197425 
L 849.808725 246.197425 
L 847.207992 247.181359 
L 844.607258 247.181359 
L 839.405792 248.165294 
L 836.805058 248.165294 
L 834.204325 248.657261 
L 831.603592 248.657261 
L 829.002858 247.673327 
L 815.999192 245.213491 
L 813.398458 245.213491 
L 810.797725 244.229557 
L 797.794058 241.769722 
L 795.193325 240.785787 
L 792.592592 240.29382 
L 789.991858 240.29382 
L 784.790392 239.309886 
L 782.189658 238.325952 
L 774.387458 236.850051 
L 771.786725 236.850051 
L 766.585258 235.866116 
L 763.984525 234.882182 
L 761.383792 234.882182 
L 758.783058 233.898248 
L 750.980858 232.422347 
L 748.380125 231.438413 
L 745.779392 231.438413 
L 743.178658 230.946446 
L 740.577925 229.962511 
L 737.977192 229.962511 
L 735.376458 228.978577 
L 714.570592 225.042841 
L 711.969858 224.058906 
L 709.369125 224.058906 
L 706.768392 223.074972 
L 698.966192 221.599071 
L 696.365458 220.615137 
L 693.764725 220.615137 
L 691.163992 220.12317 
L 688.563258 219.139236 
L 685.962525 219.139236 
L 683.361792 219.631203 
L 675.559592 219.631203 
L 672.958858 220.12317 
L 662.555925 220.12317 
L 659.955192 220.615137 
L 652.152992 220.615137 
L 649.552258 221.107104 
L 639.149325 221.107104 
L 636.548592 221.599071 
L 633.947858 221.599071 
L 631.347125 222.091038 
L 626.145658 222.091038 
L 623.544925 222.583005 
L 613.141992 222.583005 
L 610.541258 223.074972 
L 602.739058 223.074972 
L 600.138325 223.566939 
L 587.134658 223.566939 
L 584.533925 224.058906 
L 579.332458 224.058906 
L 576.731725 224.550873 
L 574.130992 224.058906 
L 571.530258 224.058906 
L 568.929525 224.550873 
L 566.328792 224.058906 
L 563.728058 224.550873 
L 553.325125 224.550873 
L 550.724392 225.042841 
L 548.123658 224.550873 
L 545.522925 225.042841 
L 537.720725 225.042841 
L 535.119992 223.566939 
L 529.918525 221.599071 
L 527.317792 220.12317 
L 519.515592 217.171367 
L 516.914858 215.695466 
L 511.713392 213.727598 
L 509.112658 212.251696 
L 506.511925 211.759729 
L 501.310458 208.807927 
L 498.709725 208.31596 
L 493.508258 205.364157 
L 490.907525 204.87219 
L 488.306792 203.396289 
L 485.706058 202.412355 
L 483.105325 200.936453 
L 477.903858 198.968585 
L 475.303125 197.492684 
L 472.702392 197.000717 
L 470.101658 195.524815 
L 467.500925 196.016782 
L 459.698725 196.016782 
L 457.097992 196.50875 
L 451.896525 196.50875 
L 449.295792 197.000717 
L 444.094325 197.000717 
L 441.493592 197.492684 
L 433.691392 197.492684 
L 431.090658 197.984651 
L 425.889192 197.984651 
L 423.288458 198.476618 
L 415.486258 198.476618 
L 410.284792 199.460552 
L 405.083325 199.460552 
L 402.482592 199.952519 
L 397.281125 199.952519 
L 394.680392 200.444486 
L 386.878192 200.444486 
L 384.277458 200.936453 
L 379.075992 200.936453 
L 376.475258 201.42842 
L 371.273792 201.42842 
L 368.673058 201.920387 
L 363.471592 201.920387 
L 360.870858 201.42842 
L 358.270125 201.920387 
L 355.669392 203.396289 
L 353.068658 203.888256 
L 350.467925 205.364157 
L 347.867192 203.888256 
L 342.665725 201.920387 
L 334.863525 197.492684 
L 332.262792 197.000717 
L 324.460592 192.573013 
L 319.259125 190.605144 
L 314.057658 187.653342 
L 308.856192 185.685474 
L 303.654725 182.733671 
L 298.453258 180.765803 
L 290.651058 176.338099 
L 280.248125 182.241704 
L 277.647392 183.225638 
L 267.244458 189.129243 
L 264.643725 190.113177 
L 254.240792 196.016782 
L 251.640058 194.540881 
L 249.039325 194.048914 
L 246.438592 193.06498 
L 243.837858 191.589079 
L 241.237125 190.605144 
L 238.636392 190.113177 
L 236.035658 188.637276 
L 223.031992 183.717605 
L 220.431258 183.225638 
L 217.830525 181.749737 
L 215.229792 180.765803 
L 212.629058 180.273836 
L 210.028325 178.797934 
L 204.826858 176.830066 
L 202.226125 176.338099 
L 199.625392 174.862198 
L 186.621725 169.942527 
L 184.020992 169.45056 
L 181.420258 167.974658 
L 178.819525 166.990724 
L 176.218792 166.498757 
L 173.618058 165.022856 
L 168.416592 163.054988 
L 165.815858 162.563021 
L 163.215125 161.087119 
L 160.614392 160.103185 
L 158.013658 159.611218 
L 155.412925 158.135317 
L 150.211458 156.167448 
L 147.610725 154.691547 
L 145.009992 154.19958 
L 139.808525 152.231712 
L 134.607058 154.19958 
L 132.006325 154.691547 
L 126.804858 156.659415 
L 124.204125 157.151383 
L 119.002658 159.119251 
L 116.401925 159.611218 
L 111.200458 161.579086 
L 108.599725 162.071053 
L 103.398258 164.038922 
L 100.797525 164.530889 
L 95.596058 166.498757 
L 92.995325 166.990724 
L 87.793858 168.958593 
L 85.193125 169.45056 
L 85.193125 169.45056 
" clip-path="url(#pfc9fd0e630)" style="fill: none; stroke: #ff7f0e; stroke-width: 4"/>
   </g>
   <g id="line2d_25">
    <path d="M 85.193125 493.164903 
L 865.413125 493.164903 
" clip-path="url(#pfc9fd0e630)" style="fill: none; stroke: #000000; stroke-opacity: 0.5; stroke-width: 3.5"/>
   </g>
   <g id="line2d_26">
    <path d="M 865.413125 255.052833 
L 852.409458 255.052833 
L 849.808725 255.5448 
L 842.006525 255.5448 
L 839.405792 256.036767 
L 829.002858 256.036767 
L 826.402125 256.528734 
L 815.999192 256.528734 
L 813.398458 257.512668 
L 800.394792 257.512668 
L 797.794058 258.004635 
L 787.391125 258.004635 
L 784.790392 258.496602 
L 771.786725 258.496602 
L 769.185992 258.98857 
L 761.383792 258.98857 
L 758.783058 259.480537 
L 750.980858 259.480537 
L 748.380125 259.972504 
L 740.577925 259.972504 
L 737.977192 260.464471 
L 727.574258 260.464471 
L 724.973525 260.956438 
L 714.570592 260.956438 
L 711.969858 261.448405 
L 701.566925 261.448405 
L 698.966192 260.956438 
L 696.365458 260.956438 
L 693.764725 259.972504 
L 691.163992 259.972504 
L 683.361792 258.496602 
L 680.761058 258.496602 
L 678.160325 257.512668 
L 672.958858 257.512668 
L 670.358125 257.020701 
L 667.757392 257.020701 
L 665.156658 256.036767 
L 662.555925 256.036767 
L 654.753725 254.560866 
L 652.152992 254.560866 
L 649.552258 253.576932 
L 646.951525 253.576932 
L 641.750058 252.592997 
L 639.149325 252.592997 
L 631.347125 251.117096 
L 628.746392 251.117096 
L 626.145658 250.133162 
L 623.544925 249.641195 
L 620.944192 249.641195 
L 618.343458 248.657261 
L 615.742725 248.657261 
L 610.541258 247.673327 
L 607.940525 249.149228 
L 605.339792 249.149228 
L 594.936858 253.084965 
L 592.336125 253.576932 
L 589.735392 254.560866 
L 587.134658 255.052833 
L 584.533925 255.052833 
L 579.332458 256.036767 
L 576.731725 256.036767 
L 571.530258 257.020701 
L 568.929525 257.020701 
L 563.728058 258.004635 
L 561.127325 258.004635 
L 555.925858 258.98857 
L 553.325125 258.98857 
L 550.724392 259.480537 
L 548.123658 259.480537 
L 542.922192 260.464471 
L 540.321458 260.464471 
L 535.119992 261.448405 
L 532.519258 261.448405 
L 524.717058 262.924306 
L 522.116325 262.924306 
L 519.515592 263.416273 
L 516.914858 264.892175 
L 514.314125 265.384142 
L 511.713392 266.860043 
L 503.911192 266.860043 
L 501.310458 267.35201 
L 493.508258 267.35201 
L 490.907525 267.843977 
L 483.105325 267.843977 
L 480.504592 268.335944 
L 475.303125 268.335944 
L 472.702392 268.827911 
L 470.101658 268.335944 
L 467.500925 268.827911 
L 462.299458 268.827911 
L 459.698725 269.319878 
L 454.497258 269.319878 
L 451.896525 269.811845 
L 449.295792 269.319878 
L 446.695058 269.319878 
L 433.691392 266.860043 
L 425.889192 266.860043 
L 423.288458 266.368076 
L 420.687725 266.368076 
L 418.086992 265.876109 
L 415.486258 265.876109 
L 412.885525 265.384142 
L 407.684058 265.384142 
L 402.482592 264.400208 
L 397.281125 264.400208 
L 394.680392 263.90824 
L 392.079658 263.90824 
L 389.478925 263.416273 
L 386.878192 263.416273 
L 384.277458 263.90824 
L 381.676725 263.416273 
L 379.075992 263.416273 
L 376.475258 262.924306 
L 373.874525 262.924306 
L 371.273792 262.432339 
L 366.072325 262.432339 
L 363.471592 261.940372 
L 360.870858 261.940372 
L 358.270125 261.448405 
L 347.867192 261.448405 
L 345.266458 260.956438 
L 342.665725 260.956438 
L 340.064992 260.464471 
L 337.464258 260.464471 
L 334.863525 259.972504 
L 332.262792 259.972504 
L 329.662058 258.98857 
L 324.460592 258.004635 
L 321.859858 257.020701 
L 319.259125 256.528734 
L 316.658392 255.5448 
L 311.456925 254.560866 
L 308.856192 253.576932 
L 306.255458 253.084965 
L 303.654725 252.10103 
L 301.053992 251.609063 
L 298.453258 250.625129 
L 295.852525 250.133162 
L 293.251792 249.149228 
L 288.050325 248.165294 
L 285.449592 247.181359 
L 282.848858 246.689392 
L 280.248125 245.705458 
L 277.647392 245.213491 
L 275.046658 244.229557 
L 272.445925 243.73759 
L 269.845192 239.801853 
L 267.244458 236.358084 
L 264.643725 233.898248 
L 262.042992 231.93038 
L 256.841525 227.010709 
L 254.240792 225.534808 
L 249.039325 220.615137 
L 243.837858 216.6794 
L 241.237125 214.219565 
L 238.636392 212.251696 
L 233.434925 207.332025 
L 230.834192 205.856124 
L 223.031992 198.476618 
L 217.830525 194.540881 
L 215.229792 192.081046 
L 212.629058 190.113177 
L 207.427592 185.193507 
L 202.226125 181.25777 
L 197.024658 176.338099 
L 191.823192 172.402362 
L 186.621725 167.482691 
L 184.020992 165.514823 
L 181.420258 163.054988 
L 176.218792 159.119251 
L 173.618058 159.119251 
L 155.412925 162.563021 
L 152.812192 162.563021 
L 145.009992 164.038922 
L 142.409258 164.038922 
L 137.207792 165.022856 
L 134.607058 165.022856 
L 126.804858 166.498757 
L 124.204125 166.498757 
L 119.002658 167.482691 
L 116.401925 168.466626 
L 103.398258 170.926461 
L 100.797525 171.910395 
L 85.193125 174.862198 
L 85.193125 174.862198 
" clip-path="url(#pfc9fd0e630)" style="fill: none; stroke: #9467bd; stroke-width: 4"/>
   </g>
   <g id="line2d_27">
    <path d="M 85.193125 493.164903 
L 865.413125 493.164903 
" clip-path="url(#pfc9fd0e630)" style="fill: none; stroke: #000000; stroke-opacity: 0.5; stroke-width: 3.5"/>
   </g>
   <g id="line2d_28">
    <path d="M 865.413125 404.11886 
L 862.812392 403.134926 
L 860.211658 403.134926 
L 818.599925 395.263453 
L 815.999192 395.263453 
L 813.398458 394.279518 
L 810.797725 394.279518 
L 808.196992 393.295584 
L 805.596258 393.295584 
L 800.394792 392.31165 
L 784.790392 386.408045 
L 782.189658 384.932144 
L 771.786725 380.996407 
L 766.585258 378.044605 
L 756.182325 374.108868 
L 753.581592 372.632967 
L 743.178658 368.69723 
L 740.577925 367.221329 
L 737.977192 366.237395 
L 735.376458 364.761493 
L 722.372792 359.841822 
L 719.772058 358.365921 
L 704.167658 352.462316 
L 701.566925 350.494448 
L 688.563258 345.574777 
L 685.962525 344.098876 
L 680.761058 342.131007 
L 678.160325 340.655106 
L 672.958858 338.687238 
L 670.358125 337.211336 
L 654.753725 331.307731 
L 652.152992 329.83183 
L 646.951525 327.863962 
L 644.350792 326.38806 
L 641.750058 325.896093 
L 636.548592 322.944291 
L 620.944192 317.040686 
L 618.343458 315.564785 
L 615.742725 314.58085 
L 613.141992 313.104949 
L 602.739058 309.169212 
L 600.138325 307.693311 
L 589.735392 303.757574 
L 587.134658 302.281673 
L 576.731725 298.345937 
L 574.130992 296.870035 
L 571.530258 295.886101 
L 568.929525 294.4102 
L 561.127325 291.458397 
L 558.526592 291.458397 
L 553.325125 290.474463 
L 550.724392 290.474463 
L 548.123658 289.982496 
L 542.922192 289.982496 
L 537.720725 288.998562 
L 535.119992 288.998562 
L 532.519258 288.506595 
L 527.317792 288.506595 
L 524.717058 287.522661 
L 519.515592 287.522661 
L 516.914858 287.030694 
L 511.713392 287.030694 
L 509.112658 286.046759 
L 503.911192 286.046759 
L 501.310458 285.554792 
L 498.709725 285.554792 
L 493.508258 284.570858 
L 488.306792 284.570858 
L 485.706058 284.078891 
L 480.504592 284.078891 
L 477.903858 283.094957 
L 472.702392 283.094957 
L 470.101658 282.60299 
L 467.500925 282.60299 
L 462.299458 281.619056 
L 457.097992 281.619056 
L 454.497258 280.635121 
L 449.295792 280.635121 
L 446.695058 280.143154 
L 441.493592 280.143154 
L 438.892858 279.15922 
L 436.292125 279.15922 
L 433.691392 278.667253 
L 428.489925 278.667253 
L 425.889192 277.683319 
L 420.687725 277.683319 
L 418.086992 277.191352 
L 412.885525 277.191352 
L 410.284792 276.207418 
L 405.083325 276.207418 
L 399.881858 275.223483 
L 397.281125 275.223483 
L 394.680392 274.731516 
L 392.079658 274.731516 
L 389.478925 273.747582 
L 381.676725 273.747582 
L 373.874525 272.271681 
L 368.673058 272.271681 
L 360.870858 270.79578 
L 355.669392 270.79578 
L 353.068658 269.811845 
L 347.867192 269.811845 
L 340.064992 268.335944 
L 337.464258 268.335944 
L 332.262792 267.35201 
L 329.662058 267.35201 
L 327.061325 266.860043 
L 321.859858 266.860043 
L 319.259125 265.876109 
L 306.255458 263.416273 
L 303.654725 263.416273 
L 267.244458 256.528734 
L 264.643725 256.528734 
L 259.442258 255.5448 
L 256.841525 254.560866 
L 243.837858 252.10103 
L 241.237125 252.10103 
L 228.233458 249.641195 
L 225.632725 248.657261 
L 223.031992 248.657261 
L 202.226125 244.721524 
L 199.625392 244.721524 
L 197.024658 243.73759 
L 150.211458 234.882182 
L 147.610725 233.898248 
L 145.009992 233.898248 
L 132.006325 231.438413 
L 129.405592 230.454479 
L 126.804858 229.962511 
L 124.204125 229.962511 
L 105.998992 226.518742 
L 103.398258 225.534808 
L 98.196792 224.550873 
L 95.596058 224.550873 
L 85.193125 222.583005 
L 85.193125 222.583005 
" clip-path="url(#pfc9fd0e630)" style="fill: none; stroke: #8c564b; stroke-width: 4"/>
   </g>
   <g id="line2d_29">
    <path d="M 85.193125 493.164903 
L 865.413125 493.164903 
" clip-path="url(#pfc9fd0e630)" style="fill: none; stroke: #000000; stroke-opacity: 0.5; stroke-width: 3.5"/>
   </g>
   <g id="text_12">
    <text style="fill: #222222; font: 30px 'Roboto', 'Arial', 'DejaVu Sans', sans-serif; text-anchor: middle" x="443.043125" y="25.011562" transform="rotate(-0 443.043125 25.011562)">Saldo de aprovação dos presidentes nos primeiros 300 dias</text>
   </g>
   <g id="text_13">
    <text style="fill: #222222; font: 24px 'Roboto', 'Arial', 'DejaVu Sans', sans-serif; text-anchor: middle" x="443.043125" y="57.411562" transform="rotate(-0 443.043125 57.411562)">Embora positivo, Lula 3 tem o terceiro pior saldo de avaliação</text>
   </g>
   <g id="text_14">
    <text style="fill: #222222; font: 30px 'Roboto', 'Arial', 'DejaVu Sans', sans-serif; text-anchor: middle" x="443.043125" y="25.011562" transform="rotate(-0 443.043125 25.011562)">Saldo de aprovação dos presidentes nos primeiros 300 dias</text>
   </g>
   <g id="text_15">
    <text style="fill: #222222; font: 24px 'Roboto', 'Arial', 'DejaVu Sans', sans-serif; text-anchor: middle" x="443.043125" y="57.411562" transform="rotate(-0 443.043125 57.411562)">Embora positivo, Lula 3 tem o terceiro pior saldo de avaliação</text>
   </g>
   <g id="text_16">
    <text style="fill: #222222; font: 30px 'Roboto', 'Arial', 'DejaVu Sans', sans-serif; text-anchor: middle" x="443.043125" y="25.011562" transform="rotate(-0 443.043125 25.011562)">Saldo de aprovação dos presidentes nos primeiros 300 dias</text>
   </g>
   <g id="text_17">
    <text style="fill: #222222; font: 24px 'Roboto', 'Arial', 'DejaVu Sans', sans-serif; text-anchor: middle" x="443.043125" y="57.411562" transform="rotate(-0 443.043125 57.411562)">Embora positivo, Lula 3 tem o terceiro pior saldo de avaliação</text>
   </g>
   <g id="text_18">
    <text style="fill: #222222; font: 30px 'Roboto', 'Arial', 'DejaVu Sans', sans-serif; text-anchor: middle" x="443.043125" y="25.011562" transform="rotate(-0 443.043125 25.011562)">Saldo de aprovação dos presidentes nos primeiros 300 dias</text>
   </g>
   <g id="text_19">
    <text style="fill: #222222; font: 24px 'Roboto', 'Arial', 'DejaVu Sans', sans-serif; text-anchor: middle" x="443.043125" y="57.411562" transform="rotate(-0 443.043125 57.411562)">Embora positivo, Lula 3 tem o terceiro pior saldo de avaliação</text>
   </g>
   <g id="text_20">
    <text style="fill: #222222; font: 30px 'Roboto', 'Arial', 'DejaVu Sans', sans-serif; text-anchor: middle" x="443.043125" y="25.011562" transform="rotate(-0 443.043125 25.011562)">Saldo de aprovação dos presidentes nos primeiros 300 dias</text>
   </g>
   <g id="text_21">
    <text style="fill: #222222; font: 24px 'Roboto', 'Arial', 'DejaVu Sans', sans-serif; text-anchor: middle" x="443.043125" y="57.411562" transform="rotate(-0 443.043125 57.411562)">Embora positivo, Lula 3 tem o terceiro pior saldo de avaliação</text>
   </g>
   <g id="text_22">
    <text style="fill: #222222; font: 30px 'Roboto', 'Arial', 'DejaVu Sans', sans-serif; text-anchor: middle" x="443.043125" y="25.011562" transform="rotate(-0 443.043125 25.011562)">Saldo de aprovação dos presidentes nos primeiros 300 dias</text>
   </g>
   <g id="text_23">
    <text style="fill: #222222; font: 24px 'Roboto', 'Arial', 'DejaVu Sans', sans-serif; text-anchor: middle" x="443.043125" y="57.411562" transform="rotate(-0 443.043125 57.411562)">Embora positivo, Lula 3 tem o terceiro pior saldo de avaliação</text>
   </g>
   <g id="legend_1">
    <g id="patch_3">
     <path d="M 585.574062 150.616875 
L 854.913125 150.616875 
Q 857.913125 150.616875 857.913125 147.616875 
L 857.913125 105.171563 
Q 857.913125 102.171563 854.913125 102.171563 
L 585.574062 102.171563 
Q 582.574062 102.171563 582.574062 105.171563 
L 582.574062 147.616875 
Q 582.574062 150.616875 585.574062 150.616875 
z
" style="fill: #ffffff; opacity: 0.7; stroke: #ffffff; stroke-width: 0.5; stroke-linejoin: miter"/>
    </g>
    <g id="line2d_30">
     <path d="M 590.074062 116.297344 
L 593.824062 116.297344 
L 597.574062 116.297344 
" style="fill: none; stroke: #d62728; stroke-width: 4"/>
    </g>
    <g id="text_24">
     <text style="fill: #222222; font: 15px 'Roboto', 'Arial', 'DejaVu Sans', sans-serif; text-anchor: start" x="605.074062" y="121.097344" transform="rotate(-0 605.074062 121.097344)">LULA 3</text>
    </g>
    <g id="line2d_31">
     <path d="M 590.074062 135.27 
L 593.824062 135.27 
L 597.574062 135.27 
" style="fill: none; stroke: #1f77b4; stroke-width: 4"/>
    </g>
    <g id="text_25">
     <text style="fill: #222222; font: 15px 'Roboto', 'Arial', 'DejaVu Sans', sans-serif; text-anchor: start" x="605.074062" y="140.07" transform="rotate(-0 605.074062 140.07)">BOLSONARO</text>
    </g>
    <g id="line2d_32">
     <path d="M 699.927969 116.297344 
L 703.677969 116.297344 
L 707.427969 116.297344 
" style="fill: none; stroke: #2ca02c; stroke-width: 4"/>
    </g>
    <g id="text_26">
     <text style="fill: #222222; font: 15px 'Roboto', 'Arial', 'DejaVu Sans', sans-serif; text-anchor: start" x="714.927969" y="121.097344" transform="rotate(-0 714.927969 121.097344)">DILMA 1</text>
    </g>
    <g id="line2d_33">
     <path d="M 699.927969 135.27 
L 703.677969 135.27 
L 707.427969 135.27 
" style="fill: none; stroke: #ff7f0e; stroke-width: 4"/>
    </g>
    <g id="text_27">
     <text style="fill: #222222; font: 15px 'Roboto', 'Arial', 'DejaVu Sans', sans-serif; text-anchor: start" x="714.927969" y="140.07" transform="rotate(-0 714.927969 140.07)">LULA 1</text>
    </g>
    <g id="line2d_34">
     <path d="M 779.892031 116.297344 
L 783.642031 116.297344 
L 787.392031 116.297344 
" style="fill: none; stroke: #9467bd; stroke-width: 4"/>
    </g>
    <g id="text_28">
     <text style="fill: #222222; font: 15px 'Roboto', 'Arial', 'DejaVu Sans', sans-serif; text-anchor: start" x="794.892031" y="121.097344" transform="rotate(-0 794.892031 121.097344)">FHC 1</text>
    </g>
    <g id="line2d_35">
     <path d="M 779.892031 135.27 
L 783.642031 135.27 
L 787.392031 135.27 
" style="fill: none; stroke: #8c564b; stroke-width: 4"/>
    </g>
    <g id="text_29">
     <text style="fill: #222222; font: 15px 'Roboto', 'Arial', 'DejaVu Sans', sans-serif; text-anchor: start" x="794.892031" y="140.07" transform="rotate(-0 794.892031 140.07)">COLLOR</text>
    </g>
   </g>
  </g>
 </g>
 <defs>
  <clipPath id="pfc9fd0e630">
   <rect x="85.193125" y="94.671563" width="780.22" height="415.54"/>
  </clipPath>
 </defs>
</svg>
